  0
SECTION
  2
BLOCKS
  0
ENDSEC
  0
SECTION
  2
ENTITIES
  0
LINE
  8
0
 10
7.59999
 20
45
 11
2.59999
 21
45
  0
LINE
  8
0
 10
2.59999
 20
45
 11
2.59999
 21
-45
  0
LINE
  8
0
 10
2.59999
 20
-45
 11
7.59999
 21
-45
  0
LINE
  8
0
 10
7.59999
 20
-45
 11
7.59999
 21
45
  0
LINE
  8
0
 10
4.91707
 20
38.2596
 11
4.73616
 21
38.2882
  0
LINE
  8
0
 10
4.73616
 20
38.2882
 11
4.55922
 21
38.3356
  0
LINE
  8
0
 10
4.55922
 20
38.3356
 11
4.38821
 21
38.4013
  0
LINE
  8
0
 10
4.38821
 20
38.4013
 11
4.22499
 21
38.4845
  0
LINE
  8
0
 10
4.22499
 20
38.4845
 11
4.07138
 21
38.5842
  0
LINE
  8
0
 10
4.07138
 20
38.5842
 11
3.92902
 21
38.6995
  0
LINE
  8
0
 10
3.92902
 20
38.6995
 11
3.7995
 21
38.829
  0
LINE
  8
0
 10
3.7995
 20
38.829
 11
3.68422
 21
38.9714
  0
LINE
  8
0
 10
3.68422
 20
38.9714
 11
3.58446
 21
39.125
  0
LINE
  8
0
 10
3.58446
 20
39.125
 11
3.5013
 21
39.2882
  0
LINE
  8
0
 10
3.5013
 20
39.2882
 11
3.43565
 21
39.4592
  0
LINE
  8
0
 10
3.43565
 20
39.4592
 11
3.38824
 21
39.6362
  0
LINE
  8
0
 10
3.38824
 20
39.6362
 11
3.35959
 21
39.8171
  0
LINE
  8
0
 10
3.35959
 20
39.8171
 11
3.34999
 21
40
  0
LINE
  8
0
 10
3.34999
 20
40
 11
3.35959
 21
40.1829
  0
LINE
  8
0
 10
3.35959
 20
40.1829
 11
3.38824
 21
40.3638
  0
LINE
  8
0
 10
3.38824
 20
40.3638
 11
3.43565
 21
40.5408
  0
LINE
  8
0
 10
3.43565
 20
40.5408
 11
3.5013
 21
40.7118
  0
LINE
  8
0
 10
3.5013
 20
40.7118
 11
3.58446
 21
40.875
  0
LINE
  8
0
 10
3.58446
 20
40.875
 11
3.68422
 21
41.0286
  0
LINE
  8
0
 10
3.68422
 20
41.0286
 11
3.7995
 21
41.171
  0
LINE
  8
0
 10
3.7995
 20
41.171
 11
3.92902
 21
41.3005
  0
LINE
  8
0
 10
3.92902
 20
41.3005
 11
4.07138
 21
41.4158
  0
LINE
  8
0
 10
4.07138
 20
41.4158
 11
4.22499
 21
41.5155
  0
LINE
  8
0
 10
4.22499
 20
41.5155
 11
4.38821
 21
41.5987
  0
LINE
  8
0
 10
4.38821
 20
41.5987
 11
4.55922
 21
41.6643
  0
LINE
  8
0
 10
4.55922
 20
41.6643
 11
4.73616
 21
41.7117
  0
LINE
  8
0
 10
4.73616
 20
41.7117
 11
4.91707
 21
41.7404
  0
LINE
  8
0
 10
4.91707
 20
41.7404
 11
5.09999
 21
41.75
  0
LINE
  8
0
 10
5.09999
 20
41.75
 11
5.28291
 21
41.7404
  0
LINE
  8
0
 10
5.28291
 20
41.7404
 11
5.46382
 21
41.7117
  0
LINE
  8
0
 10
5.46382
 20
41.7117
 11
5.64076
 21
41.6643
  0
LINE
  8
0
 10
5.64076
 20
41.6643
 11
5.81177
 21
41.5987
  0
LINE
  8
0
 10
5.81177
 20
41.5987
 11
5.97499
 21
41.5155
  0
LINE
  8
0
 10
5.97499
 20
41.5155
 11
6.1286
 21
41.4158
  0
LINE
  8
0
 10
6.1286
 20
41.4158
 11
6.27097
 21
41.3005
  0
LINE
  8
0
 10
6.27097
 20
41.3005
 11
6.40048
 21
41.171
  0
LINE
  8
0
 10
6.40048
 20
41.171
 11
6.51576
 21
41.0286
  0
LINE
  8
0
 10
6.51576
 20
41.0286
 11
6.61552
 21
40.875
  0
LINE
  8
0
 10
6.61552
 20
40.875
 11
6.69868
 21
40.7118
  0
LINE
  8
0
 10
6.69868
 20
40.7118
 11
6.76433
 21
40.5408
  0
LINE
  8
0
 10
6.76433
 20
40.5408
 11
6.81174
 21
40.3638
  0
LINE
  8
0
 10
6.81174
 20
40.3638
 11
6.84039
 21
40.1829
  0
LINE
  8
0
 10
6.84039
 20
40.1829
 11
6.84999
 21
40
  0
LINE
  8
0
 10
6.84999
 20
40
 11
6.84039
 21
39.8171
  0
LINE
  8
0
 10
6.84039
 20
39.8171
 11
6.81174
 21
39.6362
  0
LINE
  8
0
 10
6.81174
 20
39.6362
 11
6.76433
 21
39.4592
  0
LINE
  8
0
 10
6.76433
 20
39.4592
 11
6.69868
 21
39.2882
  0
LINE
  8
0
 10
6.69868
 20
39.2882
 11
6.61552
 21
39.125
  0
LINE
  8
0
 10
6.61552
 20
39.125
 11
6.51576
 21
38.9714
  0
LINE
  8
0
 10
6.51576
 20
38.9714
 11
6.40048
 21
38.829
  0
LINE
  8
0
 10
6.40048
 20
38.829
 11
6.27097
 21
38.6995
  0
LINE
  8
0
 10
6.27097
 20
38.6995
 11
6.1286
 21
38.5842
  0
LINE
  8
0
 10
6.1286
 20
38.5842
 11
5.97499
 21
38.4845
  0
LINE
  8
0
 10
5.97499
 20
38.4845
 11
5.81177
 21
38.4013
  0
LINE
  8
0
 10
5.81177
 20
38.4013
 11
5.64076
 21
38.3356
  0
LINE
  8
0
 10
5.64076
 20
38.3356
 11
5.46382
 21
38.2882
  0
LINE
  8
0
 10
5.46382
 20
38.2882
 11
5.28291
 21
38.2596
  0
LINE
  8
0
 10
5.28291
 20
38.2596
 11
5.09999
 21
38.25
  0
LINE
  8
0
 10
5.09999
 20
38.25
 11
4.91707
 21
38.2596
  0
LINE
  8
0
 10
17.8
 20
45
 11
12.8
 21
45
  0
LINE
  8
0
 10
12.8
 20
45
 11
12.8
 21
-45
  0
LINE
  8
0
 10
12.8
 20
-45
 11
17.8
 21
-45
  0
LINE
  8
0
 10
17.8
 20
-45
 11
17.8
 21
45
  0
LINE
  8
0
 10
15.1171
 20
38.2596
 11
14.9362
 21
38.2882
  0
LINE
  8
0
 10
14.9362
 20
38.2882
 11
14.7592
 21
38.3356
  0
LINE
  8
0
 10
14.7592
 20
38.3356
 11
14.5882
 21
38.4013
  0
LINE
  8
0
 10
14.5882
 20
38.4013
 11
14.425
 21
38.4845
  0
LINE
  8
0
 10
14.425
 20
38.4845
 11
14.2714
 21
38.5842
  0
LINE
  8
0
 10
14.2714
 20
38.5842
 11
14.129
 21
38.6995
  0
LINE
  8
0
 10
14.129
 20
38.6995
 11
13.9995
 21
38.829
  0
LINE
  8
0
 10
13.9995
 20
38.829
 11
13.8842
 21
38.9714
  0
LINE
  8
0
 10
13.8842
 20
38.9714
 11
13.7845
 21
39.125
  0
LINE
  8
0
 10
13.7845
 20
39.125
 11
13.7013
 21
39.2882
  0
LINE
  8
0
 10
13.7013
 20
39.2882
 11
13.6357
 21
39.4592
  0
LINE
  8
0
 10
13.6357
 20
39.4592
 11
13.5882
 21
39.6362
  0
LINE
  8
0
 10
13.5882
 20
39.6362
 11
13.5596
 21
39.8171
  0
LINE
  8
0
 10
13.5596
 20
39.8171
 11
13.55
 21
40
  0
LINE
  8
0
 10
13.55
 20
40
 11
13.5596
 21
40.1829
  0
LINE
  8
0
 10
13.5596
 20
40.1829
 11
13.5882
 21
40.3638
  0
LINE
  8
0
 10
13.5882
 20
40.3638
 11
13.6357
 21
40.5408
  0
LINE
  8
0
 10
13.6357
 20
40.5408
 11
13.7013
 21
40.7118
  0
LINE
  8
0
 10
13.7013
 20
40.7118
 11
13.7845
 21
40.875
  0
LINE
  8
0
 10
13.7845
 20
40.875
 11
13.8842
 21
41.0286
  0
LINE
  8
0
 10
13.8842
 20
41.0286
 11
13.9995
 21
41.171
  0
LINE
  8
0
 10
13.9995
 20
41.171
 11
14.129
 21
41.3005
  0
LINE
  8
0
 10
14.129
 20
41.3005
 11
14.2714
 21
41.4158
  0
LINE
  8
0
 10
14.2714
 20
41.4158
 11
14.425
 21
41.5155
  0
LINE
  8
0
 10
14.425
 20
41.5155
 11
14.5882
 21
41.5987
  0
LINE
  8
0
 10
14.5882
 20
41.5987
 11
14.7592
 21
41.6643
  0
LINE
  8
0
 10
14.7592
 20
41.6643
 11
14.9362
 21
41.7117
  0
LINE
  8
0
 10
14.9362
 20
41.7117
 11
15.1171
 21
41.7404
  0
LINE
  8
0
 10
15.1171
 20
41.7404
 11
15.3
 21
41.75
  0
LINE
  8
0
 10
15.3
 20
41.75
 11
15.4829
 21
41.7404
  0
LINE
  8
0
 10
15.4829
 20
41.7404
 11
15.6638
 21
41.7117
  0
LINE
  8
0
 10
15.6638
 20
41.7117
 11
15.8408
 21
41.6643
  0
LINE
  8
0
 10
15.8408
 20
41.6643
 11
16.0118
 21
41.5987
  0
LINE
  8
0
 10
16.0118
 20
41.5987
 11
16.175
 21
41.5155
  0
LINE
  8
0
 10
16.175
 20
41.5155
 11
16.3286
 21
41.4158
  0
LINE
  8
0
 10
16.3286
 20
41.4158
 11
16.471
 21
41.3005
  0
LINE
  8
0
 10
16.471
 20
41.3005
 11
16.6005
 21
41.171
  0
LINE
  8
0
 10
16.6005
 20
41.171
 11
16.7158
 21
41.0286
  0
LINE
  8
0
 10
16.7158
 20
41.0286
 11
16.8155
 21
40.875
  0
LINE
  8
0
 10
16.8155
 20
40.875
 11
16.8987
 21
40.7118
  0
LINE
  8
0
 10
16.8987
 20
40.7118
 11
16.9643
 21
40.5408
  0
LINE
  8
0
 10
16.9643
 20
40.5408
 11
17.0117
 21
40.3638
  0
LINE
  8
0
 10
17.0117
 20
40.3638
 11
17.0404
 21
40.1829
  0
LINE
  8
0
 10
17.0404
 20
40.1829
 11
17.05
 21
40
  0
LINE
  8
0
 10
17.05
 20
40
 11
17.0404
 21
39.8171
  0
LINE
  8
0
 10
17.0404
 20
39.8171
 11
17.0117
 21
39.6362
  0
LINE
  8
0
 10
17.0117
 20
39.6362
 11
16.9643
 21
39.4592
  0
LINE
  8
0
 10
16.9643
 20
39.4592
 11
16.8987
 21
39.2882
  0
LINE
  8
0
 10
16.8987
 20
39.2882
 11
16.8155
 21
39.125
  0
LINE
  8
0
 10
16.8155
 20
39.125
 11
16.7158
 21
38.9714
  0
LINE
  8
0
 10
16.7158
 20
38.9714
 11
16.6005
 21
38.829
  0
LINE
  8
0
 10
16.6005
 20
38.829
 11
16.471
 21
38.6995
  0
LINE
  8
0
 10
16.471
 20
38.6995
 11
16.3286
 21
38.5842
  0
LINE
  8
0
 10
16.3286
 20
38.5842
 11
16.175
 21
38.4845
  0
LINE
  8
0
 10
16.175
 20
38.4845
 11
16.0118
 21
38.4013
  0
LINE
  8
0
 10
16.0118
 20
38.4013
 11
15.8408
 21
38.3356
  0
LINE
  8
0
 10
15.8408
 20
38.3356
 11
15.6638
 21
38.2882
  0
LINE
  8
0
 10
15.6638
 20
38.2882
 11
15.4829
 21
38.2596
  0
LINE
  8
0
 10
15.4829
 20
38.2596
 11
15.3
 21
38.25
  0
LINE
  8
0
 10
15.3
 20
38.25
 11
15.1171
 21
38.2596
  0
LINE
  8
0
 10
12.7
 20
45
 11
7.7
 21
45
  0
LINE
  8
0
 10
7.7
 20
45
 11
7.7
 21
-45
  0
LINE
  8
0
 10
7.7
 20
-45
 11
12.7
 21
-45
  0
LINE
  8
0
 10
12.7
 20
-45
 11
12.7
 21
45
  0
LINE
  8
0
 10
10.0171
 20
38.2596
 11
9.83617
 21
38.2882
  0
LINE
  8
0
 10
9.83617
 20
38.2882
 11
9.65923
 21
38.3356
  0
LINE
  8
0
 10
9.65923
 20
38.3356
 11
9.48822
 21
38.4013
  0
LINE
  8
0
 10
9.48822
 20
38.4013
 11
9.325
 21
38.4845
  0
LINE
  8
0
 10
9.325
 20
38.4845
 11
9.17139
 21
38.5842
  0
LINE
  8
0
 10
9.17139
 20
38.5842
 11
9.02902
 21
38.6995
  0
LINE
  8
0
 10
9.02902
 20
38.6995
 11
8.89951
 21
38.829
  0
LINE
  8
0
 10
8.89951
 20
38.829
 11
8.78423
 21
38.9714
  0
LINE
  8
0
 10
8.78423
 20
38.9714
 11
8.68446
 21
39.125
  0
LINE
  8
0
 10
8.68446
 20
39.125
 11
8.6013
 21
39.2882
  0
LINE
  8
0
 10
8.6013
 20
39.2882
 11
8.53566
 21
39.4592
  0
LINE
  8
0
 10
8.53566
 20
39.4592
 11
8.48825
 21
39.6362
  0
LINE
  8
0
 10
8.48825
 20
39.6362
 11
8.45959
 21
39.8171
  0
LINE
  8
0
 10
8.45959
 20
39.8171
 11
8.45
 21
40
  0
LINE
  8
0
 10
8.45
 20
40
 11
8.45959
 21
40.1829
  0
LINE
  8
0
 10
8.45959
 20
40.1829
 11
8.48825
 21
40.3638
  0
LINE
  8
0
 10
8.48825
 20
40.3638
 11
8.53566
 21
40.5408
  0
LINE
  8
0
 10
8.53566
 20
40.5408
 11
8.6013
 21
40.7118
  0
LINE
  8
0
 10
8.6013
 20
40.7118
 11
8.68446
 21
40.875
  0
LINE
  8
0
 10
8.68446
 20
40.875
 11
8.78423
 21
41.0286
  0
LINE
  8
0
 10
8.78423
 20
41.0286
 11
8.89951
 21
41.171
  0
LINE
  8
0
 10
8.89951
 20
41.171
 11
9.02902
 21
41.3005
  0
LINE
  8
0
 10
9.02902
 20
41.3005
 11
9.17139
 21
41.4158
  0
LINE
  8
0
 10
9.17139
 20
41.4158
 11
9.325
 21
41.5155
  0
LINE
  8
0
 10
9.325
 20
41.5155
 11
9.48822
 21
41.5987
  0
LINE
  8
0
 10
9.48822
 20
41.5987
 11
9.65923
 21
41.6643
  0
LINE
  8
0
 10
9.65923
 20
41.6643
 11
9.83617
 21
41.7117
  0
LINE
  8
0
 10
9.83617
 20
41.7117
 11
10.0171
 21
41.7404
  0
LINE
  8
0
 10
10.0171
 20
41.7404
 11
10.2
 21
41.75
  0
LINE
  8
0
 10
10.2
 20
41.75
 11
10.3829
 21
41.7404
  0
LINE
  8
0
 10
10.3829
 20
41.7404
 11
10.5638
 21
41.7117
  0
LINE
  8
0
 10
10.5638
 20
41.7117
 11
10.7408
 21
41.6643
  0
LINE
  8
0
 10
10.7408
 20
41.6643
 11
10.9118
 21
41.5987
  0
LINE
  8
0
 10
10.9118
 20
41.5987
 11
11.075
 21
41.5155
  0
LINE
  8
0
 10
11.075
 20
41.5155
 11
11.2286
 21
41.4158
  0
LINE
  8
0
 10
11.2286
 20
41.4158
 11
11.371
 21
41.3005
  0
LINE
  8
0
 10
11.371
 20
41.3005
 11
11.5005
 21
41.171
  0
LINE
  8
0
 10
11.5005
 20
41.171
 11
11.6158
 21
41.0286
  0
LINE
  8
0
 10
11.6158
 20
41.0286
 11
11.7155
 21
40.875
  0
LINE
  8
0
 10
11.7155
 20
40.875
 11
11.7987
 21
40.7118
  0
LINE
  8
0
 10
11.7987
 20
40.7118
 11
11.8643
 21
40.5408
  0
LINE
  8
0
 10
11.8643
 20
40.5408
 11
11.9117
 21
40.3638
  0
LINE
  8
0
 10
11.9117
 20
40.3638
 11
11.9404
 21
40.1829
  0
LINE
  8
0
 10
11.9404
 20
40.1829
 11
11.95
 21
40
  0
LINE
  8
0
 10
11.95
 20
40
 11
11.9404
 21
39.8171
  0
LINE
  8
0
 10
11.9404
 20
39.8171
 11
11.9117
 21
39.6362
  0
LINE
  8
0
 10
11.9117
 20
39.6362
 11
11.8643
 21
39.4592
  0
LINE
  8
0
 10
11.8643
 20
39.4592
 11
11.7987
 21
39.2882
  0
LINE
  8
0
 10
11.7987
 20
39.2882
 11
11.7155
 21
39.125
  0
LINE
  8
0
 10
11.7155
 20
39.125
 11
11.6158
 21
38.9714
  0
LINE
  8
0
 10
11.6158
 20
38.9714
 11
11.5005
 21
38.829
  0
LINE
  8
0
 10
11.5005
 20
38.829
 11
11.371
 21
38.6995
  0
LINE
  8
0
 10
11.371
 20
38.6995
 11
11.2286
 21
38.5842
  0
LINE
  8
0
 10
11.2286
 20
38.5842
 11
11.075
 21
38.4845
  0
LINE
  8
0
 10
11.075
 20
38.4845
 11
10.9118
 21
38.4013
  0
LINE
  8
0
 10
10.9118
 20
38.4013
 11
10.7408
 21
38.3356
  0
LINE
  8
0
 10
10.7408
 20
38.3356
 11
10.5638
 21
38.2882
  0
LINE
  8
0
 10
10.5638
 20
38.2882
 11
10.3829
 21
38.2596
  0
LINE
  8
0
 10
10.3829
 20
38.2596
 11
10.2
 21
38.25
  0
LINE
  8
0
 10
10.2
 20
38.25
 11
10.0171
 21
38.2596
  0
LINE
  8
0
 10
2.5
 20
45
 11
-2.5
 21
45
  0
LINE
  8
0
 10
-2.5
 20
45
 11
-2.5
 21
-45
  0
LINE
  8
0
 10
-2.5
 20
-45
 11
2.5
 21
-45
  0
LINE
  8
0
 10
2.5
 20
-45
 11
2.5
 21
45
  0
LINE
  8
0
 10
-0.182922
 20
38.2596
 11
-0.363831
 21
38.2882
  0
LINE
  8
0
 10
-0.363831
 20
38.2882
 11
-0.540771
 21
38.3356
  0
LINE
  8
0
 10
-0.540771
 20
38.3356
 11
-0.711777
 21
38.4013
  0
LINE
  8
0
 10
-0.711777
 20
38.4013
 11
-0.875
 21
38.4845
  0
LINE
  8
0
 10
-0.875
 20
38.4845
 11
-1.02861
 21
38.5842
  0
LINE
  8
0
 10
-1.02861
 20
38.5842
 11
-1.17097
 21
38.6995
  0
LINE
  8
0
 10
-1.17097
 20
38.6995
 11
-1.30049
 21
38.829
  0
LINE
  8
0
 10
-1.30049
 20
38.829
 11
-1.41577
 21
38.9714
  0
LINE
  8
0
 10
-1.41577
 20
38.9714
 11
-1.51553
 21
39.125
  0
LINE
  8
0
 10
-1.51553
 20
39.125
 11
-1.59869
 21
39.2882
  0
LINE
  8
0
 10
-1.59869
 20
39.2882
 11
-1.66434
 21
39.4592
  0
LINE
  8
0
 10
-1.66434
 20
39.4592
 11
-1.71175
 21
39.6362
  0
LINE
  8
0
 10
-1.71175
 20
39.6362
 11
-1.7404
 21
39.8171
  0
LINE
  8
0
 10
-1.7404
 20
39.8171
 11
-1.75
 21
40
  0
LINE
  8
0
 10
-1.75
 20
40
 11
-1.7404
 21
40.1829
  0
LINE
  8
0
 10
-1.7404
 20
40.1829
 11
-1.71175
 21
40.3638
  0
LINE
  8
0
 10
-1.71175
 20
40.3638
 11
-1.66434
 21
40.5408
  0
LINE
  8
0
 10
-1.66434
 20
40.5408
 11
-1.59869
 21
40.7118
  0
LINE
  8
0
 10
-1.59869
 20
40.7118
 11
-1.51553
 21
40.875
  0
LINE
  8
0
 10
-1.51553
 20
40.875
 11
-1.41577
 21
41.0286
  0
LINE
  8
0
 10
-1.41577
 20
41.0286
 11
-1.30049
 21
41.171
  0
LINE
  8
0
 10
-1.30049
 20
41.171
 11
-1.17097
 21
41.3005
  0
LINE
  8
0
 10
-1.17097
 20
41.3005
 11
-1.02861
 21
41.4158
  0
LINE
  8
0
 10
-1.02861
 20
41.4158
 11
-0.875
 21
41.5155
  0
LINE
  8
0
 10
-0.875
 20
41.5155
 11
-0.711777
 21
41.5987
  0
LINE
  8
0
 10
-0.711777
 20
41.5987
 11
-0.540771
 21
41.6643
  0
LINE
  8
0
 10
-0.540771
 20
41.6643
 11
-0.363831
 21
41.7117
  0
LINE
  8
0
 10
-0.363831
 20
41.7117
 11
-0.182922
 21
41.7404
  0
LINE
  8
0
 10
-0.182922
 20
41.7404
 11
0
 21
41.75
  0
LINE
  8
0
 10
0
 20
41.75
 11
0.182922
 21
41.7404
  0
LINE
  8
0
 10
0.182922
 20
41.7404
 11
0.363831
 21
41.7117
  0
LINE
  8
0
 10
0.363831
 20
41.7117
 11
0.540771
 21
41.6643
  0
LINE
  8
0
 10
0.540771
 20
41.6643
 11
0.711777
 21
41.5987
  0
LINE
  8
0
 10
0.711777
 20
41.5987
 11
0.875
 21
41.5155
  0
LINE
  8
0
 10
0.875
 20
41.5155
 11
1.02861
 21
41.4158
  0
LINE
  8
0
 10
1.02861
 20
41.4158
 11
1.17097
 21
41.3005
  0
LINE
  8
0
 10
1.17097
 20
41.3005
 11
1.30049
 21
41.171
  0
LINE
  8
0
 10
1.30049
 20
41.171
 11
1.41577
 21
41.0286
  0
LINE
  8
0
 10
1.41577
 20
41.0286
 11
1.51553
 21
40.875
  0
LINE
  8
0
 10
1.51553
 20
40.875
 11
1.59869
 21
40.7118
  0
LINE
  8
0
 10
1.59869
 20
40.7118
 11
1.66434
 21
40.5408
  0
LINE
  8
0
 10
1.66434
 20
40.5408
 11
1.71175
 21
40.3638
  0
LINE
  8
0
 10
1.71175
 20
40.3638
 11
1.7404
 21
40.1829
  0
LINE
  8
0
 10
1.7404
 20
40.1829
 11
1.75
 21
40
  0
LINE
  8
0
 10
1.75
 20
40
 11
1.7404
 21
39.8171
  0
LINE
  8
0
 10
1.7404
 20
39.8171
 11
1.71175
 21
39.6362
  0
LINE
  8
0
 10
1.71175
 20
39.6362
 11
1.66434
 21
39.4592
  0
LINE
  8
0
 10
1.66434
 20
39.4592
 11
1.59869
 21
39.2882
  0
LINE
  8
0
 10
1.59869
 20
39.2882
 11
1.51553
 21
39.125
  0
LINE
  8
0
 10
1.51553
 20
39.125
 11
1.41577
 21
38.9714
  0
LINE
  8
0
 10
1.41577
 20
38.9714
 11
1.30049
 21
38.829
  0
LINE
  8
0
 10
1.30049
 20
38.829
 11
1.17097
 21
38.6995
  0
LINE
  8
0
 10
1.17097
 20
38.6995
 11
1.02861
 21
38.5842
  0
LINE
  8
0
 10
1.02861
 20
38.5842
 11
0.875
 21
38.4845
  0
LINE
  8
0
 10
0.875
 20
38.4845
 11
0.711777
 21
38.4013
  0
LINE
  8
0
 10
0.711777
 20
38.4013
 11
0.540771
 21
38.3356
  0
LINE
  8
0
 10
0.540771
 20
38.3356
 11
0.363831
 21
38.2882
  0
LINE
  8
0
 10
0.363831
 20
38.2882
 11
0.182922
 21
38.2596
  0
LINE
  8
0
 10
0.182922
 20
38.2596
 11
0
 21
38.25
  0
LINE
  8
0
 10
0
 20
38.25
 11
-0.182922
 21
38.2596
  0
ENDSEC
  0
SECTION
  2
OBJECTS
  0
DICTIONARY
  0
ENDSEC
  0
EOF
