  0
SECTION
  2
BLOCKS
  0
ENDSEC
  0
SECTION
  2
ENTITIES
  0
LINE
  8
0
 10
42.3333
 20
0
 11
63.5
 21
0
  0
LINE
  8
0
 10
63.5
 20
0
 11
63.5
 21
-1.2
  0
LINE
  8
0
 10
63.5
 20
-1.2
 11
63.4686
 21
-1.20163
  0
LINE
  8
0
 10
63.4686
 20
-1.20163
 11
63.4376
 21
-1.20654
  0
LINE
  8
0
 10
63.4376
 20
-1.20654
 11
63.4073
 21
-1.21468
  0
LINE
  8
0
 10
63.4073
 20
-1.21468
 11
63.378
 21
-1.22592
  0
LINE
  8
0
 10
63.378
 20
-1.22592
 11
63.35
 21
-1.24019
  0
LINE
  8
0
 10
63.35
 20
-1.24019
 11
63.3237
 21
-1.25729
  0
LINE
  8
0
 10
63.3237
 20
-1.25729
 11
63.2993
 21
-1.27705
  0
LINE
  8
0
 10
63.2993
 20
-1.27705
 11
63.2771
 21
-1.29926
  0
LINE
  8
0
 10
63.2771
 20
-1.29926
 11
63.2573
 21
-1.32365
  0
LINE
  8
0
 10
63.2573
 20
-1.32365
 11
63.2402
 21
-1.34999
  0
LINE
  8
0
 10
63.2402
 20
-1.34999
 11
63.2259
 21
-1.37798
  0
LINE
  8
0
 10
63.2259
 20
-1.37798
 11
63.2147
 21
-1.40729
  0
LINE
  8
0
 10
63.2147
 20
-1.40729
 11
63.2065
 21
-1.43762
  0
LINE
  8
0
 10
63.2065
 20
-1.43762
 11
63.2016
 21
-1.46863
  0
LINE
  8
0
 10
63.2016
 20
-1.46863
 11
63.2
 21
-1.5
  0
LINE
  8
0
 10
63.2
 20
-1.5
 11
63.2016
 21
-1.53136
  0
LINE
  8
0
 10
63.2016
 20
-1.53136
 11
63.2065
 21
-1.56236
  0
LINE
  8
0
 10
63.2065
 20
-1.56236
 11
63.2147
 21
-1.5927
  0
LINE
  8
0
 10
63.2147
 20
-1.5927
 11
63.2259
 21
-1.62201
  0
LINE
  8
0
 10
63.2259
 20
-1.62201
 11
63.2402
 21
-1.64999
  0
LINE
  8
0
 10
63.2402
 20
-1.64999
 11
63.2573
 21
-1.67633
  0
LINE
  8
0
 10
63.2573
 20
-1.67633
 11
63.2771
 21
-1.70073
  0
LINE
  8
0
 10
63.2771
 20
-1.70073
 11
63.2993
 21
-1.72293
  0
LINE
  8
0
 10
63.2993
 20
-1.72293
 11
63.3237
 21
-1.74269
  0
LINE
  8
0
 10
63.3237
 20
-1.74269
 11
63.35
 21
-1.7598
  0
LINE
  8
0
 10
63.35
 20
-1.7598
 11
63.378
 21
-1.77406
  0
LINE
  8
0
 10
63.378
 20
-1.77406
 11
63.4073
 21
-1.78531
  0
LINE
  8
0
 10
63.4073
 20
-1.78531
 11
63.4376
 21
-1.79344
  0
LINE
  8
0
 10
63.4376
 20
-1.79344
 11
63.4686
 21
-1.79836
  0
LINE
  8
0
 10
63.4686
 20
-1.79836
 11
63.5
 21
-1.79999
  0
LINE
  8
0
 10
63.5
 20
-1.79999
 11
63.5
 21
-3
  0
LINE
  8
0
 10
63.5
 20
-3
 11
84.6667
 21
-3
  0
LINE
  8
0
 10
84.6667
 20
-3
 11
84.6667
 21
0
  0
LINE
  8
0
 10
84.6667
 20
0
 11
105.833
 21
0
  0
LINE
  8
0
 10
105.833
 20
0
 11
105.833
 21
-1.2
  0
LINE
  8
0
 10
105.833
 20
-1.2
 11
105.802
 21
-1.20163
  0
LINE
  8
0
 10
105.802
 20
-1.20163
 11
105.771
 21
-1.20654
  0
LINE
  8
0
 10
105.771
 20
-1.20654
 11
105.741
 21
-1.21468
  0
LINE
  8
0
 10
105.741
 20
-1.21468
 11
105.711
 21
-1.22592
  0
LINE
  8
0
 10
105.711
 20
-1.22592
 11
105.683
 21
-1.24019
  0
LINE
  8
0
 10
105.683
 20
-1.24019
 11
105.657
 21
-1.25729
  0
LINE
  8
0
 10
105.657
 20
-1.25729
 11
105.633
 21
-1.27705
  0
LINE
  8
0
 10
105.633
 20
-1.27705
 11
105.61
 21
-1.29926
  0
LINE
  8
0
 10
105.61
 20
-1.29926
 11
105.591
 21
-1.32365
  0
LINE
  8
0
 10
105.591
 20
-1.32365
 11
105.574
 21
-1.34999
  0
LINE
  8
0
 10
105.574
 20
-1.34999
 11
105.559
 21
-1.37798
  0
LINE
  8
0
 10
105.559
 20
-1.37798
 11
105.548
 21
-1.40729
  0
LINE
  8
0
 10
105.548
 20
-1.40729
 11
105.54
 21
-1.43762
  0
LINE
  8
0
 10
105.54
 20
-1.43762
 11
105.535
 21
-1.46863
  0
LINE
  8
0
 10
105.535
 20
-1.46863
 11
105.533
 21
-1.5
  0
LINE
  8
0
 10
105.533
 20
-1.5
 11
105.535
 21
-1.53136
  0
LINE
  8
0
 10
105.535
 20
-1.53136
 11
105.54
 21
-1.56236
  0
LINE
  8
0
 10
105.54
 20
-1.56236
 11
105.548
 21
-1.5927
  0
LINE
  8
0
 10
105.548
 20
-1.5927
 11
105.559
 21
-1.62201
  0
LINE
  8
0
 10
105.559
 20
-1.62201
 11
105.574
 21
-1.64999
  0
LINE
  8
0
 10
105.574
 20
-1.64999
 11
105.591
 21
-1.67633
  0
LINE
  8
0
 10
105.591
 20
-1.67633
 11
105.61
 21
-1.70073
  0
LINE
  8
0
 10
105.61
 20
-1.70073
 11
105.633
 21
-1.72293
  0
LINE
  8
0
 10
105.633
 20
-1.72293
 11
105.657
 21
-1.74269
  0
LINE
  8
0
 10
105.657
 20
-1.74269
 11
105.683
 21
-1.7598
  0
LINE
  8
0
 10
105.683
 20
-1.7598
 11
105.711
 21
-1.77406
  0
LINE
  8
0
 10
105.711
 20
-1.77406
 11
105.741
 21
-1.78531
  0
LINE
  8
0
 10
105.741
 20
-1.78531
 11
105.771
 21
-1.79344
  0
LINE
  8
0
 10
105.771
 20
-1.79344
 11
105.802
 21
-1.79836
  0
LINE
  8
0
 10
105.802
 20
-1.79836
 11
105.833
 21
-1.79999
  0
LINE
  8
0
 10
105.833
 20
-1.79999
 11
105.833
 21
-3
  0
LINE
  8
0
 10
105.833
 20
-3
 11
127
 21
-3
  0
LINE
  8
0
 10
127
 20
-3
 11
127
 21
254
  0
LINE
  8
0
 10
127
 20
254
 11
105.833
 21
254
  0
LINE
  8
0
 10
105.833
 20
254
 11
105.833
 21
257
  0
LINE
  8
0
 10
105.833
 20
257
 11
84.6667
 21
257
  0
LINE
  8
0
 10
84.6667
 20
257
 11
84.6667
 21
254
  0
LINE
  8
0
 10
84.6667
 20
254
 11
63.5
 21
254
  0
LINE
  8
0
 10
63.5
 20
254
 11
63.5
 21
257
  0
LINE
  8
0
 10
63.5
 20
257
 11
42.3333
 21
257
  0
LINE
  8
0
 10
42.3333
 20
257
 11
42.3333
 21
254
  0
LINE
  8
0
 10
42.3333
 20
254
 11
21.1667
 21
254
  0
LINE
  8
0
 10
21.1667
 20
254
 11
21.1667
 21
257
  0
LINE
  8
0
 10
21.1667
 20
257
 11
0
 21
257
  0
LINE
  8
0
 10
0
 20
257
 11
0
 21
222.25
  0
LINE
  8
0
 10
0
 20
222.25
 11
-3
 21
222.25
  0
LINE
  8
0
 10
-3
 20
222.25
 11
-3
 21
190.5
  0
LINE
  8
0
 10
-3
 20
190.5
 11
0
 21
190.5
  0
LINE
  8
0
 10
0
 20
190.5
 11
0
 21
158.75
  0
LINE
  8
0
 10
0
 20
158.75
 11
-3
 21
158.75
  0
LINE
  8
0
 10
-3
 20
158.75
 11
-3
 21
127
  0
LINE
  8
0
 10
-3
 20
127
 11
0
 21
127
  0
LINE
  8
0
 10
0
 20
127
 11
0
 21
95.25
  0
LINE
  8
0
 10
0
 20
95.25
 11
-3
 21
95.25
  0
LINE
  8
0
 10
-3
 20
95.25
 11
-3
 21
63.5
  0
LINE
  8
0
 10
-3
 20
63.5
 11
0
 21
63.5
  0
LINE
  8
0
 10
0
 20
63.5
 11
0
 21
31.75
  0
LINE
  8
0
 10
0
 20
31.75
 11
-3
 21
31.75
  0
LINE
  8
0
 10
-3
 20
31.75
 11
-3
 21
0
  0
LINE
  8
0
 10
-3
 20
0
 11
21.1667
 21
0
  0
LINE
  8
0
 10
21.1667
 20
0
 11
21.1667
 21
-1.2
  0
LINE
  8
0
 10
21.1667
 20
-1.2
 11
21.1353
 21
-1.20163
  0
LINE
  8
0
 10
21.1353
 20
-1.20163
 11
21.1043
 21
-1.20654
  0
LINE
  8
0
 10
21.1043
 20
-1.20654
 11
21.074
 21
-1.21468
  0
LINE
  8
0
 10
21.074
 20
-1.21468
 11
21.0446
 21
-1.22592
  0
LINE
  8
0
 10
21.0446
 20
-1.22592
 11
21.0167
 21
-1.24019
  0
LINE
  8
0
 10
21.0167
 20
-1.24019
 11
20.9903
 21
-1.25729
  0
LINE
  8
0
 10
20.9903
 20
-1.25729
 11
20.9659
 21
-1.27705
  0
LINE
  8
0
 10
20.9659
 20
-1.27705
 11
20.9437
 21
-1.29926
  0
LINE
  8
0
 10
20.9437
 20
-1.29926
 11
20.924
 21
-1.32365
  0
LINE
  8
0
 10
20.924
 20
-1.32365
 11
20.9069
 21
-1.34999
  0
LINE
  8
0
 10
20.9069
 20
-1.34999
 11
20.8926
 21
-1.37798
  0
LINE
  8
0
 10
20.8926
 20
-1.37798
 11
20.8813
 21
-1.40729
  0
LINE
  8
0
 10
20.8813
 20
-1.40729
 11
20.8732
 21
-1.43762
  0
LINE
  8
0
 10
20.8732
 20
-1.43762
 11
20.8683
 21
-1.46863
  0
LINE
  8
0
 10
20.8683
 20
-1.46863
 11
20.8667
 21
-1.5
  0
LINE
  8
0
 10
20.8667
 20
-1.5
 11
20.8683
 21
-1.53136
  0
LINE
  8
0
 10
20.8683
 20
-1.53136
 11
20.8732
 21
-1.56236
  0
LINE
  8
0
 10
20.8732
 20
-1.56236
 11
20.8813
 21
-1.5927
  0
LINE
  8
0
 10
20.8813
 20
-1.5927
 11
20.8926
 21
-1.62201
  0
LINE
  8
0
 10
20.8926
 20
-1.62201
 11
20.9069
 21
-1.64999
  0
LINE
  8
0
 10
20.9069
 20
-1.64999
 11
20.924
 21
-1.67633
  0
LINE
  8
0
 10
20.924
 20
-1.67633
 11
20.9437
 21
-1.70073
  0
LINE
  8
0
 10
20.9437
 20
-1.70073
 11
20.9659
 21
-1.72293
  0
LINE
  8
0
 10
20.9659
 20
-1.72293
 11
20.9903
 21
-1.74269
  0
LINE
  8
0
 10
20.9903
 20
-1.74269
 11
21.0167
 21
-1.7598
  0
LINE
  8
0
 10
21.0167
 20
-1.7598
 11
21.0446
 21
-1.77406
  0
LINE
  8
0
 10
21.0446
 20
-1.77406
 11
21.074
 21
-1.78531
  0
LINE
  8
0
 10
21.074
 20
-1.78531
 11
21.1043
 21
-1.79344
  0
LINE
  8
0
 10
21.1043
 20
-1.79344
 11
21.1353
 21
-1.79836
  0
LINE
  8
0
 10
21.1353
 20
-1.79836
 11
21.1667
 21
-1.79999
  0
LINE
  8
0
 10
21.1667
 20
-1.79999
 11
21.1667
 21
-3
  0
LINE
  8
0
 10
21.1667
 20
-3
 11
42.3333
 21
-3
  0
LINE
  8
0
 10
42.3333
 20
-3
 11
42.3333
 21
0
  0
LINE
  8
0
 10
432.633
 20
0
 11
453.8
 21
0
  0
LINE
  8
0
 10
453.8
 20
0
 11
453.8
 21
-1.2
  0
LINE
  8
0
 10
453.8
 20
-1.2
 11
453.769
 21
-1.20163
  0
LINE
  8
0
 10
453.769
 20
-1.20163
 11
453.738
 21
-1.20654
  0
LINE
  8
0
 10
453.738
 20
-1.20654
 11
453.707
 21
-1.21468
  0
LINE
  8
0
 10
453.707
 20
-1.21468
 11
453.678
 21
-1.22592
  0
LINE
  8
0
 10
453.678
 20
-1.22592
 11
453.65
 21
-1.24019
  0
LINE
  8
0
 10
453.65
 20
-1.24019
 11
453.624
 21
-1.25729
  0
LINE
  8
0
 10
453.624
 20
-1.25729
 11
453.599
 21
-1.27705
  0
LINE
  8
0
 10
453.599
 20
-1.27705
 11
453.577
 21
-1.29926
  0
LINE
  8
0
 10
453.577
 20
-1.29926
 11
453.557
 21
-1.32365
  0
LINE
  8
0
 10
453.557
 20
-1.32365
 11
453.54
 21
-1.34999
  0
LINE
  8
0
 10
453.54
 20
-1.34999
 11
453.526
 21
-1.37798
  0
LINE
  8
0
 10
453.526
 20
-1.37798
 11
453.515
 21
-1.40729
  0
LINE
  8
0
 10
453.515
 20
-1.40729
 11
453.507
 21
-1.43762
  0
LINE
  8
0
 10
453.507
 20
-1.43762
 11
453.502
 21
-1.46863
  0
LINE
  8
0
 10
453.502
 20
-1.46863
 11
453.5
 21
-1.5
  0
LINE
  8
0
 10
453.5
 20
-1.5
 11
453.502
 21
-1.53136
  0
LINE
  8
0
 10
453.502
 20
-1.53136
 11
453.507
 21
-1.56236
  0
LINE
  8
0
 10
453.507
 20
-1.56236
 11
453.515
 21
-1.5927
  0
LINE
  8
0
 10
453.515
 20
-1.5927
 11
453.526
 21
-1.62201
  0
LINE
  8
0
 10
453.526
 20
-1.62201
 11
453.54
 21
-1.64999
  0
LINE
  8
0
 10
453.54
 20
-1.64999
 11
453.557
 21
-1.67633
  0
LINE
  8
0
 10
453.557
 20
-1.67633
 11
453.577
 21
-1.70073
  0
LINE
  8
0
 10
453.577
 20
-1.70073
 11
453.599
 21
-1.72293
  0
LINE
  8
0
 10
453.599
 20
-1.72293
 11
453.624
 21
-1.74269
  0
LINE
  8
0
 10
453.624
 20
-1.74269
 11
453.65
 21
-1.7598
  0
LINE
  8
0
 10
453.65
 20
-1.7598
 11
453.678
 21
-1.77406
  0
LINE
  8
0
 10
453.678
 20
-1.77406
 11
453.707
 21
-1.78531
  0
LINE
  8
0
 10
453.707
 20
-1.78531
 11
453.738
 21
-1.79344
  0
LINE
  8
0
 10
453.738
 20
-1.79344
 11
453.769
 21
-1.79836
  0
LINE
  8
0
 10
453.769
 20
-1.79836
 11
453.8
 21
-1.79999
  0
LINE
  8
0
 10
453.8
 20
-1.79999
 11
453.8
 21
-3
  0
LINE
  8
0
 10
453.8
 20
-3
 11
474.967
 21
-3
  0
LINE
  8
0
 10
474.967
 20
-3
 11
474.967
 21
0
  0
LINE
  8
0
 10
474.967
 20
0
 11
496.133
 21
0
  0
LINE
  8
0
 10
496.133
 20
0
 11
496.133
 21
-1.2
  0
LINE
  8
0
 10
496.133
 20
-1.2
 11
496.102
 21
-1.20163
  0
LINE
  8
0
 10
496.102
 20
-1.20163
 11
496.071
 21
-1.20654
  0
LINE
  8
0
 10
496.071
 20
-1.20654
 11
496.041
 21
-1.21468
  0
LINE
  8
0
 10
496.041
 20
-1.21468
 11
496.011
 21
-1.22592
  0
LINE
  8
0
 10
496.011
 20
-1.22592
 11
495.983
 21
-1.24019
  0
LINE
  8
0
 10
495.983
 20
-1.24019
 11
495.957
 21
-1.25729
  0
LINE
  8
0
 10
495.957
 20
-1.25729
 11
495.933
 21
-1.27705
  0
LINE
  8
0
 10
495.933
 20
-1.27705
 11
495.91
 21
-1.29926
  0
LINE
  8
0
 10
495.91
 20
-1.29926
 11
495.891
 21
-1.32365
  0
LINE
  8
0
 10
495.891
 20
-1.32365
 11
495.874
 21
-1.34999
  0
LINE
  8
0
 10
495.874
 20
-1.34999
 11
495.859
 21
-1.37798
  0
LINE
  8
0
 10
495.859
 20
-1.37798
 11
495.848
 21
-1.40729
  0
LINE
  8
0
 10
495.848
 20
-1.40729
 11
495.84
 21
-1.43762
  0
LINE
  8
0
 10
495.84
 20
-1.43762
 11
495.835
 21
-1.46863
  0
LINE
  8
0
 10
495.835
 20
-1.46863
 11
495.833
 21
-1.5
  0
LINE
  8
0
 10
495.833
 20
-1.5
 11
495.835
 21
-1.53136
  0
LINE
  8
0
 10
495.835
 20
-1.53136
 11
495.84
 21
-1.56236
  0
LINE
  8
0
 10
495.84
 20
-1.56236
 11
495.848
 21
-1.5927
  0
LINE
  8
0
 10
495.848
 20
-1.5927
 11
495.859
 21
-1.62201
  0
LINE
  8
0
 10
495.859
 20
-1.62201
 11
495.874
 21
-1.64999
  0
LINE
  8
0
 10
495.874
 20
-1.64999
 11
495.891
 21
-1.67633
  0
LINE
  8
0
 10
495.891
 20
-1.67633
 11
495.91
 21
-1.70073
  0
LINE
  8
0
 10
495.91
 20
-1.70073
 11
495.933
 21
-1.72293
  0
LINE
  8
0
 10
495.933
 20
-1.72293
 11
495.957
 21
-1.74269
  0
LINE
  8
0
 10
495.957
 20
-1.74269
 11
495.983
 21
-1.7598
  0
LINE
  8
0
 10
495.983
 20
-1.7598
 11
496.011
 21
-1.77406
  0
LINE
  8
0
 10
496.011
 20
-1.77406
 11
496.041
 21
-1.78531
  0
LINE
  8
0
 10
496.041
 20
-1.78531
 11
496.071
 21
-1.79344
  0
LINE
  8
0
 10
496.071
 20
-1.79344
 11
496.102
 21
-1.79836
  0
LINE
  8
0
 10
496.102
 20
-1.79836
 11
496.133
 21
-1.79999
  0
LINE
  8
0
 10
496.133
 20
-1.79999
 11
496.133
 21
-3
  0
LINE
  8
0
 10
496.133
 20
-3
 11
517.3
 21
-3
  0
LINE
  8
0
 10
517.3
 20
-3
 11
517.3
 21
254
  0
LINE
  8
0
 10
517.3
 20
254
 11
496.133
 21
254
  0
LINE
  8
0
 10
496.133
 20
254
 11
496.133
 21
257
  0
LINE
  8
0
 10
496.133
 20
257
 11
474.967
 21
257
  0
LINE
  8
0
 10
474.967
 20
257
 11
474.967
 21
254
  0
LINE
  8
0
 10
474.967
 20
254
 11
453.8
 21
254
  0
LINE
  8
0
 10
453.8
 20
254
 11
453.8
 21
257
  0
LINE
  8
0
 10
453.8
 20
257
 11
432.633
 21
257
  0
LINE
  8
0
 10
432.633
 20
257
 11
432.633
 21
254
  0
LINE
  8
0
 10
432.633
 20
254
 11
411.467
 21
254
  0
LINE
  8
0
 10
411.467
 20
254
 11
411.467
 21
257
  0
LINE
  8
0
 10
411.467
 20
257
 11
390.3
 21
257
  0
LINE
  8
0
 10
390.3
 20
257
 11
390.3
 21
222.25
  0
LINE
  8
0
 10
390.3
 20
222.25
 11
387.3
 21
222.25
  0
LINE
  8
0
 10
387.3
 20
222.25
 11
387.3
 21
190.5
  0
LINE
  8
0
 10
387.3
 20
190.5
 11
390.3
 21
190.5
  0
LINE
  8
0
 10
390.3
 20
190.5
 11
390.3
 21
158.75
  0
LINE
  8
0
 10
390.3
 20
158.75
 11
387.3
 21
158.75
  0
LINE
  8
0
 10
387.3
 20
158.75
 11
387.3
 21
127
  0
LINE
  8
0
 10
387.3
 20
127
 11
390.3
 21
127
  0
LINE
  8
0
 10
390.3
 20
127
 11
390.3
 21
95.25
  0
LINE
  8
0
 10
390.3
 20
95.25
 11
387.3
 21
95.25
  0
LINE
  8
0
 10
387.3
 20
95.25
 11
387.3
 21
63.5
  0
LINE
  8
0
 10
387.3
 20
63.5
 11
390.3
 21
63.5
  0
LINE
  8
0
 10
390.3
 20
63.5
 11
390.3
 21
31.75
  0
LINE
  8
0
 10
390.3
 20
31.75
 11
387.3
 21
31.75
  0
LINE
  8
0
 10
387.3
 20
31.75
 11
387.3
 21
0
  0
LINE
  8
0
 10
387.3
 20
0
 11
411.467
 21
0
  0
LINE
  8
0
 10
411.467
 20
0
 11
411.467
 21
-1.2
  0
LINE
  8
0
 10
411.467
 20
-1.2
 11
411.435
 21
-1.20163
  0
LINE
  8
0
 10
411.435
 20
-1.20163
 11
411.404
 21
-1.20654
  0
LINE
  8
0
 10
411.404
 20
-1.20654
 11
411.374
 21
-1.21468
  0
LINE
  8
0
 10
411.374
 20
-1.21468
 11
411.345
 21
-1.22592
  0
LINE
  8
0
 10
411.345
 20
-1.22592
 11
411.317
 21
-1.24019
  0
LINE
  8
0
 10
411.317
 20
-1.24019
 11
411.29
 21
-1.25729
  0
LINE
  8
0
 10
411.29
 20
-1.25729
 11
411.266
 21
-1.27705
  0
LINE
  8
0
 10
411.266
 20
-1.27705
 11
411.244
 21
-1.29926
  0
LINE
  8
0
 10
411.244
 20
-1.29926
 11
411.224
 21
-1.32365
  0
LINE
  8
0
 10
411.224
 20
-1.32365
 11
411.207
 21
-1.34999
  0
LINE
  8
0
 10
411.207
 20
-1.34999
 11
411.193
 21
-1.37798
  0
LINE
  8
0
 10
411.193
 20
-1.37798
 11
411.181
 21
-1.40729
  0
LINE
  8
0
 10
411.181
 20
-1.40729
 11
411.173
 21
-1.43762
  0
LINE
  8
0
 10
411.173
 20
-1.43762
 11
411.168
 21
-1.46863
  0
LINE
  8
0
 10
411.168
 20
-1.46863
 11
411.167
 21
-1.5
  0
LINE
  8
0
 10
411.167
 20
-1.5
 11
411.168
 21
-1.53136
  0
LINE
  8
0
 10
411.168
 20
-1.53136
 11
411.173
 21
-1.56236
  0
LINE
  8
0
 10
411.173
 20
-1.56236
 11
411.181
 21
-1.5927
  0
LINE
  8
0
 10
411.181
 20
-1.5927
 11
411.193
 21
-1.62201
  0
LINE
  8
0
 10
411.193
 20
-1.62201
 11
411.207
 21
-1.64999
  0
LINE
  8
0
 10
411.207
 20
-1.64999
 11
411.224
 21
-1.67633
  0
LINE
  8
0
 10
411.224
 20
-1.67633
 11
411.244
 21
-1.70073
  0
LINE
  8
0
 10
411.244
 20
-1.70073
 11
411.266
 21
-1.72293
  0
LINE
  8
0
 10
411.266
 20
-1.72293
 11
411.29
 21
-1.74269
  0
LINE
  8
0
 10
411.29
 20
-1.74269
 11
411.317
 21
-1.7598
  0
LINE
  8
0
 10
411.317
 20
-1.7598
 11
411.345
 21
-1.77406
  0
LINE
  8
0
 10
411.345
 20
-1.77406
 11
411.374
 21
-1.78531
  0
LINE
  8
0
 10
411.374
 20
-1.78531
 11
411.404
 21
-1.79344
  0
LINE
  8
0
 10
411.404
 20
-1.79344
 11
411.435
 21
-1.79836
  0
LINE
  8
0
 10
411.435
 20
-1.79836
 11
411.467
 21
-1.79999
  0
LINE
  8
0
 10
411.467
 20
-1.79999
 11
411.467
 21
-3
  0
LINE
  8
0
 10
411.467
 20
-3
 11
432.633
 21
-3
  0
LINE
  8
0
 10
432.633
 20
-3
 11
432.633
 21
0
  0
LINE
  8
0
 10
172.433
 20
0
 11
193.6
 21
0
  0
LINE
  8
0
 10
193.6
 20
0
 11
193.6
 21
-1.2
  0
LINE
  8
0
 10
193.6
 20
-1.2
 11
193.569
 21
-1.20163
  0
LINE
  8
0
 10
193.569
 20
-1.20163
 11
193.538
 21
-1.20654
  0
LINE
  8
0
 10
193.538
 20
-1.20654
 11
193.507
 21
-1.21468
  0
LINE
  8
0
 10
193.507
 20
-1.21468
 11
193.478
 21
-1.22592
  0
LINE
  8
0
 10
193.478
 20
-1.22592
 11
193.45
 21
-1.24019
  0
LINE
  8
0
 10
193.45
 20
-1.24019
 11
193.424
 21
-1.25729
  0
LINE
  8
0
 10
193.424
 20
-1.25729
 11
193.399
 21
-1.27705
  0
LINE
  8
0
 10
193.399
 20
-1.27705
 11
193.377
 21
-1.29926
  0
LINE
  8
0
 10
193.377
 20
-1.29926
 11
193.357
 21
-1.32365
  0
LINE
  8
0
 10
193.357
 20
-1.32365
 11
193.34
 21
-1.34999
  0
LINE
  8
0
 10
193.34
 20
-1.34999
 11
193.326
 21
-1.37798
  0
LINE
  8
0
 10
193.326
 20
-1.37798
 11
193.315
 21
-1.40729
  0
LINE
  8
0
 10
193.315
 20
-1.40729
 11
193.307
 21
-1.43762
  0
LINE
  8
0
 10
193.307
 20
-1.43762
 11
193.302
 21
-1.46863
  0
LINE
  8
0
 10
193.302
 20
-1.46863
 11
193.3
 21
-1.5
  0
LINE
  8
0
 10
193.3
 20
-1.5
 11
193.302
 21
-1.53136
  0
LINE
  8
0
 10
193.302
 20
-1.53136
 11
193.307
 21
-1.56236
  0
LINE
  8
0
 10
193.307
 20
-1.56236
 11
193.315
 21
-1.5927
  0
LINE
  8
0
 10
193.315
 20
-1.5927
 11
193.326
 21
-1.62201
  0
LINE
  8
0
 10
193.326
 20
-1.62201
 11
193.34
 21
-1.64999
  0
LINE
  8
0
 10
193.34
 20
-1.64999
 11
193.357
 21
-1.67633
  0
LINE
  8
0
 10
193.357
 20
-1.67633
 11
193.377
 21
-1.70073
  0
LINE
  8
0
 10
193.377
 20
-1.70073
 11
193.399
 21
-1.72293
  0
LINE
  8
0
 10
193.399
 20
-1.72293
 11
193.424
 21
-1.74269
  0
LINE
  8
0
 10
193.424
 20
-1.74269
 11
193.45
 21
-1.7598
  0
LINE
  8
0
 10
193.45
 20
-1.7598
 11
193.478
 21
-1.77406
  0
LINE
  8
0
 10
193.478
 20
-1.77406
 11
193.507
 21
-1.78531
  0
LINE
  8
0
 10
193.507
 20
-1.78531
 11
193.538
 21
-1.79344
  0
LINE
  8
0
 10
193.538
 20
-1.79344
 11
193.569
 21
-1.79836
  0
LINE
  8
0
 10
193.569
 20
-1.79836
 11
193.6
 21
-1.79999
  0
LINE
  8
0
 10
193.6
 20
-1.79999
 11
193.6
 21
-3
  0
LINE
  8
0
 10
193.6
 20
-3
 11
214.767
 21
-3
  0
LINE
  8
0
 10
214.767
 20
-3
 11
214.767
 21
0
  0
LINE
  8
0
 10
214.767
 20
0
 11
235.933
 21
0
  0
LINE
  8
0
 10
235.933
 20
0
 11
235.933
 21
-1.2
  0
LINE
  8
0
 10
235.933
 20
-1.2
 11
235.902
 21
-1.20163
  0
LINE
  8
0
 10
235.902
 20
-1.20163
 11
235.871
 21
-1.20654
  0
LINE
  8
0
 10
235.871
 20
-1.20654
 11
235.841
 21
-1.21468
  0
LINE
  8
0
 10
235.841
 20
-1.21468
 11
235.811
 21
-1.22592
  0
LINE
  8
0
 10
235.811
 20
-1.22592
 11
235.783
 21
-1.24019
  0
LINE
  8
0
 10
235.783
 20
-1.24019
 11
235.757
 21
-1.25729
  0
LINE
  8
0
 10
235.757
 20
-1.25729
 11
235.733
 21
-1.27705
  0
LINE
  8
0
 10
235.733
 20
-1.27705
 11
235.71
 21
-1.29926
  0
LINE
  8
0
 10
235.71
 20
-1.29926
 11
235.691
 21
-1.32365
  0
LINE
  8
0
 10
235.691
 20
-1.32365
 11
235.674
 21
-1.34999
  0
LINE
  8
0
 10
235.674
 20
-1.34999
 11
235.659
 21
-1.37798
  0
LINE
  8
0
 10
235.659
 20
-1.37798
 11
235.648
 21
-1.40729
  0
LINE
  8
0
 10
235.648
 20
-1.40729
 11
235.64
 21
-1.43762
  0
LINE
  8
0
 10
235.64
 20
-1.43762
 11
235.635
 21
-1.46863
  0
LINE
  8
0
 10
235.635
 20
-1.46863
 11
235.633
 21
-1.5
  0
LINE
  8
0
 10
235.633
 20
-1.5
 11
235.635
 21
-1.53136
  0
LINE
  8
0
 10
235.635
 20
-1.53136
 11
235.64
 21
-1.56236
  0
LINE
  8
0
 10
235.64
 20
-1.56236
 11
235.648
 21
-1.5927
  0
LINE
  8
0
 10
235.648
 20
-1.5927
 11
235.659
 21
-1.62201
  0
LINE
  8
0
 10
235.659
 20
-1.62201
 11
235.674
 21
-1.64999
  0
LINE
  8
0
 10
235.674
 20
-1.64999
 11
235.691
 21
-1.67633
  0
LINE
  8
0
 10
235.691
 20
-1.67633
 11
235.71
 21
-1.70073
  0
LINE
  8
0
 10
235.71
 20
-1.70073
 11
235.733
 21
-1.72293
  0
LINE
  8
0
 10
235.733
 20
-1.72293
 11
235.757
 21
-1.74269
  0
LINE
  8
0
 10
235.757
 20
-1.74269
 11
235.783
 21
-1.7598
  0
LINE
  8
0
 10
235.783
 20
-1.7598
 11
235.811
 21
-1.77406
  0
LINE
  8
0
 10
235.811
 20
-1.77406
 11
235.841
 21
-1.78531
  0
LINE
  8
0
 10
235.841
 20
-1.78531
 11
235.871
 21
-1.79344
  0
LINE
  8
0
 10
235.871
 20
-1.79344
 11
235.902
 21
-1.79836
  0
LINE
  8
0
 10
235.902
 20
-1.79836
 11
235.933
 21
-1.79999
  0
LINE
  8
0
 10
235.933
 20
-1.79999
 11
235.933
 21
-3
  0
LINE
  8
0
 10
235.933
 20
-3
 11
257.1
 21
-3
  0
LINE
  8
0
 10
257.1
 20
-3
 11
257.1
 21
203.2
  0
LINE
  8
0
 10
257.1
 20
203.2
 11
235.933
 21
203.2
  0
LINE
  8
0
 10
235.933
 20
203.2
 11
235.933
 21
206.2
  0
LINE
  8
0
 10
235.933
 20
206.2
 11
214.767
 21
206.2
  0
LINE
  8
0
 10
214.767
 20
206.2
 11
214.767
 21
203.2
  0
LINE
  8
0
 10
214.767
 20
203.2
 11
193.6
 21
203.2
  0
LINE
  8
0
 10
193.6
 20
203.2
 11
193.6
 21
206.2
  0
LINE
  8
0
 10
193.6
 20
206.2
 11
172.433
 21
206.2
  0
LINE
  8
0
 10
172.433
 20
206.2
 11
172.433
 21
203.2
  0
LINE
  8
0
 10
172.433
 20
203.2
 11
151.267
 21
203.2
  0
LINE
  8
0
 10
151.267
 20
203.2
 11
151.267
 21
206.2
  0
LINE
  8
0
 10
151.267
 20
206.2
 11
130.1
 21
206.2
  0
LINE
  8
0
 10
130.1
 20
206.2
 11
130.1
 21
177.8
  0
LINE
  8
0
 10
130.1
 20
177.8
 11
127.1
 21
177.8
  0
LINE
  8
0
 10
127.1
 20
177.8
 11
127.1
 21
152.4
  0
LINE
  8
0
 10
127.1
 20
152.4
 11
130.1
 21
152.4
  0
LINE
  8
0
 10
130.1
 20
152.4
 11
130.1
 21
127
  0
LINE
  8
0
 10
130.1
 20
127
 11
127.1
 21
127
  0
LINE
  8
0
 10
127.1
 20
127
 11
127.1
 21
101.6
  0
LINE
  8
0
 10
127.1
 20
101.6
 11
130.1
 21
101.6
  0
LINE
  8
0
 10
130.1
 20
101.6
 11
130.1
 21
76.2
  0
LINE
  8
0
 10
130.1
 20
76.2
 11
127.1
 21
76.2
  0
LINE
  8
0
 10
127.1
 20
76.2
 11
127.1
 21
50.8
  0
LINE
  8
0
 10
127.1
 20
50.8
 11
130.1
 21
50.8
  0
LINE
  8
0
 10
130.1
 20
50.8
 11
130.1
 21
25.4
  0
LINE
  8
0
 10
130.1
 20
25.4
 11
127.1
 21
25.4
  0
LINE
  8
0
 10
127.1
 20
25.4
 11
127.1
 21
0
  0
LINE
  8
0
 10
127.1
 20
0
 11
151.267
 21
0
  0
LINE
  8
0
 10
151.267
 20
0
 11
151.267
 21
-1.2
  0
LINE
  8
0
 10
151.267
 20
-1.2
 11
151.235
 21
-1.20163
  0
LINE
  8
0
 10
151.235
 20
-1.20163
 11
151.204
 21
-1.20654
  0
LINE
  8
0
 10
151.204
 20
-1.20654
 11
151.174
 21
-1.21468
  0
LINE
  8
0
 10
151.174
 20
-1.21468
 11
151.145
 21
-1.22592
  0
LINE
  8
0
 10
151.145
 20
-1.22592
 11
151.117
 21
-1.24019
  0
LINE
  8
0
 10
151.117
 20
-1.24019
 11
151.09
 21
-1.25729
  0
LINE
  8
0
 10
151.09
 20
-1.25729
 11
151.066
 21
-1.27705
  0
LINE
  8
0
 10
151.066
 20
-1.27705
 11
151.044
 21
-1.29926
  0
LINE
  8
0
 10
151.044
 20
-1.29926
 11
151.024
 21
-1.32365
  0
LINE
  8
0
 10
151.024
 20
-1.32365
 11
151.007
 21
-1.34999
  0
LINE
  8
0
 10
151.007
 20
-1.34999
 11
150.993
 21
-1.37798
  0
LINE
  8
0
 10
150.993
 20
-1.37798
 11
150.981
 21
-1.40729
  0
LINE
  8
0
 10
150.981
 20
-1.40729
 11
150.973
 21
-1.43762
  0
LINE
  8
0
 10
150.973
 20
-1.43762
 11
150.968
 21
-1.46863
  0
LINE
  8
0
 10
150.968
 20
-1.46863
 11
150.967
 21
-1.5
  0
LINE
  8
0
 10
150.967
 20
-1.5
 11
150.968
 21
-1.53136
  0
LINE
  8
0
 10
150.968
 20
-1.53136
 11
150.973
 21
-1.56236
  0
LINE
  8
0
 10
150.973
 20
-1.56236
 11
150.981
 21
-1.5927
  0
LINE
  8
0
 10
150.981
 20
-1.5927
 11
150.993
 21
-1.62201
  0
LINE
  8
0
 10
150.993
 20
-1.62201
 11
151.007
 21
-1.64999
  0
LINE
  8
0
 10
151.007
 20
-1.64999
 11
151.024
 21
-1.67633
  0
LINE
  8
0
 10
151.024
 20
-1.67633
 11
151.044
 21
-1.70073
  0
LINE
  8
0
 10
151.044
 20
-1.70073
 11
151.066
 21
-1.72293
  0
LINE
  8
0
 10
151.066
 20
-1.72293
 11
151.09
 21
-1.74269
  0
LINE
  8
0
 10
151.09
 20
-1.74269
 11
151.117
 21
-1.7598
  0
LINE
  8
0
 10
151.117
 20
-1.7598
 11
151.145
 21
-1.77406
  0
LINE
  8
0
 10
151.145
 20
-1.77406
 11
151.174
 21
-1.78531
  0
LINE
  8
0
 10
151.174
 20
-1.78531
 11
151.204
 21
-1.79344
  0
LINE
  8
0
 10
151.204
 20
-1.79344
 11
151.235
 21
-1.79836
  0
LINE
  8
0
 10
151.235
 20
-1.79836
 11
151.267
 21
-1.79999
  0
LINE
  8
0
 10
151.267
 20
-1.79999
 11
151.267
 21
-3
  0
LINE
  8
0
 10
151.267
 20
-3
 11
172.433
 21
-3
  0
LINE
  8
0
 10
172.433
 20
-3
 11
172.433
 21
0
  0
LINE
  8
0
 10
302.533
 20
0
 11
323.7
 21
0
  0
LINE
  8
0
 10
323.7
 20
0
 11
323.7
 21
-1.2
  0
LINE
  8
0
 10
323.7
 20
-1.2
 11
323.669
 21
-1.20163
  0
LINE
  8
0
 10
323.669
 20
-1.20163
 11
323.638
 21
-1.20654
  0
LINE
  8
0
 10
323.638
 20
-1.20654
 11
323.607
 21
-1.21468
  0
LINE
  8
0
 10
323.607
 20
-1.21468
 11
323.578
 21
-1.22592
  0
LINE
  8
0
 10
323.578
 20
-1.22592
 11
323.55
 21
-1.24019
  0
LINE
  8
0
 10
323.55
 20
-1.24019
 11
323.524
 21
-1.25729
  0
LINE
  8
0
 10
323.524
 20
-1.25729
 11
323.499
 21
-1.27705
  0
LINE
  8
0
 10
323.499
 20
-1.27705
 11
323.477
 21
-1.29926
  0
LINE
  8
0
 10
323.477
 20
-1.29926
 11
323.457
 21
-1.32365
  0
LINE
  8
0
 10
323.457
 20
-1.32365
 11
323.44
 21
-1.34999
  0
LINE
  8
0
 10
323.44
 20
-1.34999
 11
323.426
 21
-1.37798
  0
LINE
  8
0
 10
323.426
 20
-1.37798
 11
323.415
 21
-1.40729
  0
LINE
  8
0
 10
323.415
 20
-1.40729
 11
323.407
 21
-1.43762
  0
LINE
  8
0
 10
323.407
 20
-1.43762
 11
323.402
 21
-1.46863
  0
LINE
  8
0
 10
323.402
 20
-1.46863
 11
323.4
 21
-1.5
  0
LINE
  8
0
 10
323.4
 20
-1.5
 11
323.402
 21
-1.53136
  0
LINE
  8
0
 10
323.402
 20
-1.53136
 11
323.407
 21
-1.56236
  0
LINE
  8
0
 10
323.407
 20
-1.56236
 11
323.415
 21
-1.5927
  0
LINE
  8
0
 10
323.415
 20
-1.5927
 11
323.426
 21
-1.62201
  0
LINE
  8
0
 10
323.426
 20
-1.62201
 11
323.44
 21
-1.64999
  0
LINE
  8
0
 10
323.44
 20
-1.64999
 11
323.457
 21
-1.67633
  0
LINE
  8
0
 10
323.457
 20
-1.67633
 11
323.477
 21
-1.70073
  0
LINE
  8
0
 10
323.477
 20
-1.70073
 11
323.499
 21
-1.72293
  0
LINE
  8
0
 10
323.499
 20
-1.72293
 11
323.524
 21
-1.74269
  0
LINE
  8
0
 10
323.524
 20
-1.74269
 11
323.55
 21
-1.7598
  0
LINE
  8
0
 10
323.55
 20
-1.7598
 11
323.578
 21
-1.77406
  0
LINE
  8
0
 10
323.578
 20
-1.77406
 11
323.607
 21
-1.78531
  0
LINE
  8
0
 10
323.607
 20
-1.78531
 11
323.638
 21
-1.79344
  0
LINE
  8
0
 10
323.638
 20
-1.79344
 11
323.669
 21
-1.79836
  0
LINE
  8
0
 10
323.669
 20
-1.79836
 11
323.7
 21
-1.79999
  0
LINE
  8
0
 10
323.7
 20
-1.79999
 11
323.7
 21
-3
  0
LINE
  8
0
 10
323.7
 20
-3
 11
344.867
 21
-3
  0
LINE
  8
0
 10
344.867
 20
-3
 11
344.867
 21
0
  0
LINE
  8
0
 10
344.867
 20
0
 11
366.033
 21
0
  0
LINE
  8
0
 10
366.033
 20
0
 11
366.033
 21
-1.2
  0
LINE
  8
0
 10
366.033
 20
-1.2
 11
366.002
 21
-1.20163
  0
LINE
  8
0
 10
366.002
 20
-1.20163
 11
365.971
 21
-1.20654
  0
LINE
  8
0
 10
365.971
 20
-1.20654
 11
365.941
 21
-1.21468
  0
LINE
  8
0
 10
365.941
 20
-1.21468
 11
365.911
 21
-1.22592
  0
LINE
  8
0
 10
365.911
 20
-1.22592
 11
365.883
 21
-1.24019
  0
LINE
  8
0
 10
365.883
 20
-1.24019
 11
365.857
 21
-1.25729
  0
LINE
  8
0
 10
365.857
 20
-1.25729
 11
365.833
 21
-1.27705
  0
LINE
  8
0
 10
365.833
 20
-1.27705
 11
365.81
 21
-1.29926
  0
LINE
  8
0
 10
365.81
 20
-1.29926
 11
365.791
 21
-1.32365
  0
LINE
  8
0
 10
365.791
 20
-1.32365
 11
365.774
 21
-1.34999
  0
LINE
  8
0
 10
365.774
 20
-1.34999
 11
365.759
 21
-1.37798
  0
LINE
  8
0
 10
365.759
 20
-1.37798
 11
365.748
 21
-1.40729
  0
LINE
  8
0
 10
365.748
 20
-1.40729
 11
365.74
 21
-1.43762
  0
LINE
  8
0
 10
365.74
 20
-1.43762
 11
365.735
 21
-1.46863
  0
LINE
  8
0
 10
365.735
 20
-1.46863
 11
365.733
 21
-1.5
  0
LINE
  8
0
 10
365.733
 20
-1.5
 11
365.735
 21
-1.53136
  0
LINE
  8
0
 10
365.735
 20
-1.53136
 11
365.74
 21
-1.56236
  0
LINE
  8
0
 10
365.74
 20
-1.56236
 11
365.748
 21
-1.5927
  0
LINE
  8
0
 10
365.748
 20
-1.5927
 11
365.759
 21
-1.62201
  0
LINE
  8
0
 10
365.759
 20
-1.62201
 11
365.774
 21
-1.64999
  0
LINE
  8
0
 10
365.774
 20
-1.64999
 11
365.791
 21
-1.67633
  0
LINE
  8
0
 10
365.791
 20
-1.67633
 11
365.81
 21
-1.70073
  0
LINE
  8
0
 10
365.81
 20
-1.70073
 11
365.833
 21
-1.72293
  0
LINE
  8
0
 10
365.833
 20
-1.72293
 11
365.857
 21
-1.74269
  0
LINE
  8
0
 10
365.857
 20
-1.74269
 11
365.883
 21
-1.7598
  0
LINE
  8
0
 10
365.883
 20
-1.7598
 11
365.911
 21
-1.77406
  0
LINE
  8
0
 10
365.911
 20
-1.77406
 11
365.941
 21
-1.78531
  0
LINE
  8
0
 10
365.941
 20
-1.78531
 11
365.971
 21
-1.79344
  0
LINE
  8
0
 10
365.971
 20
-1.79344
 11
366.002
 21
-1.79836
  0
LINE
  8
0
 10
366.002
 20
-1.79836
 11
366.033
 21
-1.79999
  0
LINE
  8
0
 10
366.033
 20
-1.79999
 11
366.033
 21
-3
  0
LINE
  8
0
 10
366.033
 20
-3
 11
387.2
 21
-3
  0
LINE
  8
0
 10
387.2
 20
-3
 11
387.2
 21
203.2
  0
LINE
  8
0
 10
387.2
 20
203.2
 11
366.033
 21
203.2
  0
LINE
  8
0
 10
366.033
 20
203.2
 11
366.033
 21
206.2
  0
LINE
  8
0
 10
366.033
 20
206.2
 11
344.867
 21
206.2
  0
LINE
  8
0
 10
344.867
 20
206.2
 11
344.867
 21
203.2
  0
LINE
  8
0
 10
344.867
 20
203.2
 11
323.7
 21
203.2
  0
LINE
  8
0
 10
323.7
 20
203.2
 11
323.7
 21
206.2
  0
LINE
  8
0
 10
323.7
 20
206.2
 11
302.533
 21
206.2
  0
LINE
  8
0
 10
302.533
 20
206.2
 11
302.533
 21
203.2
  0
LINE
  8
0
 10
302.533
 20
203.2
 11
281.367
 21
203.2
  0
LINE
  8
0
 10
281.367
 20
203.2
 11
281.367
 21
206.2
  0
LINE
  8
0
 10
281.367
 20
206.2
 11
260.2
 21
206.2
  0
LINE
  8
0
 10
260.2
 20
206.2
 11
260.2
 21
177.8
  0
LINE
  8
0
 10
260.2
 20
177.8
 11
257.2
 21
177.8
  0
LINE
  8
0
 10
257.2
 20
177.8
 11
257.2
 21
152.4
  0
LINE
  8
0
 10
257.2
 20
152.4
 11
260.2
 21
152.4
  0
LINE
  8
0
 10
260.2
 20
152.4
 11
260.2
 21
127
  0
LINE
  8
0
 10
260.2
 20
127
 11
257.2
 21
127
  0
LINE
  8
0
 10
257.2
 20
127
 11
257.2
 21
101.6
  0
LINE
  8
0
 10
257.2
 20
101.6
 11
260.2
 21
101.6
  0
LINE
  8
0
 10
260.2
 20
101.6
 11
260.2
 21
76.2
  0
LINE
  8
0
 10
260.2
 20
76.2
 11
257.2
 21
76.2
  0
LINE
  8
0
 10
257.2
 20
76.2
 11
257.2
 21
50.8
  0
LINE
  8
0
 10
257.2
 20
50.8
 11
260.2
 21
50.8
  0
LINE
  8
0
 10
260.2
 20
50.8
 11
260.2
 21
25.4
  0
LINE
  8
0
 10
260.2
 20
25.4
 11
257.2
 21
25.4
  0
LINE
  8
0
 10
257.2
 20
25.4
 11
257.2
 21
0
  0
LINE
  8
0
 10
257.2
 20
0
 11
281.367
 21
0
  0
LINE
  8
0
 10
281.367
 20
0
 11
281.367
 21
-1.2
  0
LINE
  8
0
 10
281.367
 20
-1.2
 11
281.335
 21
-1.20163
  0
LINE
  8
0
 10
281.335
 20
-1.20163
 11
281.304
 21
-1.20654
  0
LINE
  8
0
 10
281.304
 20
-1.20654
 11
281.274
 21
-1.21468
  0
LINE
  8
0
 10
281.274
 20
-1.21468
 11
281.245
 21
-1.22592
  0
LINE
  8
0
 10
281.245
 20
-1.22592
 11
281.217
 21
-1.24019
  0
LINE
  8
0
 10
281.217
 20
-1.24019
 11
281.19
 21
-1.25729
  0
LINE
  8
0
 10
281.19
 20
-1.25729
 11
281.166
 21
-1.27705
  0
LINE
  8
0
 10
281.166
 20
-1.27705
 11
281.144
 21
-1.29926
  0
LINE
  8
0
 10
281.144
 20
-1.29926
 11
281.124
 21
-1.32365
  0
LINE
  8
0
 10
281.124
 20
-1.32365
 11
281.107
 21
-1.34999
  0
LINE
  8
0
 10
281.107
 20
-1.34999
 11
281.093
 21
-1.37798
  0
LINE
  8
0
 10
281.093
 20
-1.37798
 11
281.081
 21
-1.40729
  0
LINE
  8
0
 10
281.081
 20
-1.40729
 11
281.073
 21
-1.43762
  0
LINE
  8
0
 10
281.073
 20
-1.43762
 11
281.068
 21
-1.46863
  0
LINE
  8
0
 10
281.068
 20
-1.46863
 11
281.067
 21
-1.5
  0
LINE
  8
0
 10
281.067
 20
-1.5
 11
281.068
 21
-1.53136
  0
LINE
  8
0
 10
281.068
 20
-1.53136
 11
281.073
 21
-1.56236
  0
LINE
  8
0
 10
281.073
 20
-1.56236
 11
281.081
 21
-1.5927
  0
LINE
  8
0
 10
281.081
 20
-1.5927
 11
281.093
 21
-1.62201
  0
LINE
  8
0
 10
281.093
 20
-1.62201
 11
281.107
 21
-1.64999
  0
LINE
  8
0
 10
281.107
 20
-1.64999
 11
281.124
 21
-1.67633
  0
LINE
  8
0
 10
281.124
 20
-1.67633
 11
281.144
 21
-1.70073
  0
LINE
  8
0
 10
281.144
 20
-1.70073
 11
281.166
 21
-1.72293
  0
LINE
  8
0
 10
281.166
 20
-1.72293
 11
281.19
 21
-1.74269
  0
LINE
  8
0
 10
281.19
 20
-1.74269
 11
281.217
 21
-1.7598
  0
LINE
  8
0
 10
281.217
 20
-1.7598
 11
281.245
 21
-1.77406
  0
LINE
  8
0
 10
281.245
 20
-1.77406
 11
281.274
 21
-1.78531
  0
LINE
  8
0
 10
281.274
 20
-1.78531
 11
281.304
 21
-1.79344
  0
LINE
  8
0
 10
281.304
 20
-1.79344
 11
281.335
 21
-1.79836
  0
LINE
  8
0
 10
281.335
 20
-1.79836
 11
281.367
 21
-1.79999
  0
LINE
  8
0
 10
281.367
 20
-1.79999
 11
281.367
 21
-3
  0
LINE
  8
0
 10
281.367
 20
-3
 11
302.533
 21
-3
  0
LINE
  8
0
 10
302.533
 20
-3
 11
302.533
 21
0
  0
ENDSEC
  0
SECTION
  2
OBJECTS
  0
DICTIONARY
  0
ENDSEC
  0
EOF
