  0
SECTION
  2
BLOCKS
  0
ENDSEC
  0
SECTION
  2
ENTITIES
  0
LINE
  8
0
 10
775.6
 20
254
 11
750.2
 21
254
  0
LINE
  8
0
 10
750.2
 20
254
 11
750.2
 21
255.2
  0
LINE
  8
0
 10
750.2
 20
255.2
 11
750.231
 21
255.202
  0
LINE
  8
0
 10
750.231
 20
255.202
 11
750.262
 21
255.207
  0
LINE
  8
0
 10
750.262
 20
255.207
 11
750.293
 21
255.215
  0
LINE
  8
0
 10
750.293
 20
255.215
 11
750.322
 21
255.226
  0
LINE
  8
0
 10
750.322
 20
255.226
 11
750.35
 21
255.24
  0
LINE
  8
0
 10
750.35
 20
255.24
 11
750.376
 21
255.257
  0
LINE
  8
0
 10
750.376
 20
255.257
 11
750.401
 21
255.277
  0
LINE
  8
0
 10
750.401
 20
255.277
 11
750.423
 21
255.299
  0
LINE
  8
0
 10
750.423
 20
255.299
 11
750.443
 21
255.324
  0
LINE
  8
0
 10
750.443
 20
255.324
 11
750.46
 21
255.35
  0
LINE
  8
0
 10
750.46
 20
255.35
 11
750.474
 21
255.378
  0
LINE
  8
0
 10
750.474
 20
255.378
 11
750.485
 21
255.407
  0
LINE
  8
0
 10
750.485
 20
255.407
 11
750.493
 21
255.438
  0
LINE
  8
0
 10
750.493
 20
255.438
 11
750.498
 21
255.469
  0
LINE
  8
0
 10
750.498
 20
255.469
 11
750.5
 21
255.5
  0
LINE
  8
0
 10
750.5
 20
255.5
 11
750.498
 21
255.531
  0
LINE
  8
0
 10
750.498
 20
255.531
 11
750.493
 21
255.562
  0
LINE
  8
0
 10
750.493
 20
255.562
 11
750.485
 21
255.593
  0
LINE
  8
0
 10
750.485
 20
255.593
 11
750.474
 21
255.622
  0
LINE
  8
0
 10
750.474
 20
255.622
 11
750.46
 21
255.65
  0
LINE
  8
0
 10
750.46
 20
255.65
 11
750.443
 21
255.676
  0
LINE
  8
0
 10
750.443
 20
255.676
 11
750.423
 21
255.701
  0
LINE
  8
0
 10
750.423
 20
255.701
 11
750.401
 21
255.723
  0
LINE
  8
0
 10
750.401
 20
255.723
 11
750.376
 21
255.743
  0
LINE
  8
0
 10
750.376
 20
255.743
 11
750.35
 21
255.76
  0
LINE
  8
0
 10
750.35
 20
255.76
 11
750.322
 21
255.774
  0
LINE
  8
0
 10
750.322
 20
255.774
 11
750.293
 21
255.785
  0
LINE
  8
0
 10
750.293
 20
255.785
 11
750.262
 21
255.793
  0
LINE
  8
0
 10
750.262
 20
255.793
 11
750.231
 21
255.798
  0
LINE
  8
0
 10
750.231
 20
255.798
 11
750.2
 21
255.8
  0
LINE
  8
0
 10
750.2
 20
255.8
 11
750.2
 21
257
  0
LINE
  8
0
 10
750.2
 20
257
 11
749.826
 21
257
  0
LINE
  8
0
 10
749.826
 20
257
 11
749.578
 21
257.925
  0
LINE
  8
0
 10
749.578
 20
257.925
 11
749.102
 21
259.166
  0
LINE
  8
0
 10
749.102
 20
259.166
 11
748.499
 21
260.35
  0
LINE
  8
0
 10
748.499
 20
260.35
 11
747.775
 21
261.465
  0
LINE
  8
0
 10
747.775
 20
261.465
 11
746.938
 21
262.498
  0
LINE
  8
0
 10
746.938
 20
262.498
 11
745.998
 21
263.438
  0
LINE
  8
0
 10
745.998
 20
263.438
 11
744.965
 21
264.275
  0
LINE
  8
0
 10
744.965
 20
264.275
 11
743.85
 21
264.999
  0
LINE
  8
0
 10
743.85
 20
264.999
 11
742.666
 21
265.602
  0
LINE
  8
0
 10
742.666
 20
265.602
 11
741.424
 21
266.078
  0
LINE
  8
0
 10
741.424
 20
266.078
 11
740.141
 21
266.422
  0
LINE
  8
0
 10
740.141
 20
266.422
 11
738.828
 21
266.63
  0
LINE
  8
0
 10
738.828
 20
266.63
 11
737.5
 21
266.7
  0
LINE
  8
0
 10
737.5
 20
266.7
 11
736.172
 21
266.63
  0
LINE
  8
0
 10
736.172
 20
266.63
 11
734.859
 21
266.422
  0
LINE
  8
0
 10
734.859
 20
266.422
 11
733.576
 21
266.078
  0
LINE
  8
0
 10
733.576
 20
266.078
 11
732.334
 21
265.602
  0
LINE
  8
0
 10
732.334
 20
265.602
 11
731.15
 21
264.999
  0
LINE
  8
0
 10
731.15
 20
264.999
 11
730.035
 21
264.275
  0
LINE
  8
0
 10
730.035
 20
264.275
 11
729.002
 21
263.438
  0
LINE
  8
0
 10
729.002
 20
263.438
 11
728.062
 21
262.498
  0
LINE
  8
0
 10
728.062
 20
262.498
 11
727.225
 21
261.465
  0
LINE
  8
0
 10
727.225
 20
261.465
 11
726.501
 21
260.35
  0
LINE
  8
0
 10
726.501
 20
260.35
 11
725.898
 21
259.166
  0
LINE
  8
0
 10
725.898
 20
259.166
 11
725.422
 21
257.925
  0
LINE
  8
0
 10
725.422
 20
257.925
 11
725.174
 21
257
  0
LINE
  8
0
 10
725.174
 20
257
 11
724.8
 21
257
  0
LINE
  8
0
 10
724.8
 20
257
 11
724.8
 21
254
  0
LINE
  8
0
 10
724.8
 20
254
 11
699.4
 21
254
  0
LINE
  8
0
 10
699.4
 20
254
 11
699.4
 21
255.2
  0
LINE
  8
0
 10
699.4
 20
255.2
 11
699.431
 21
255.202
  0
LINE
  8
0
 10
699.431
 20
255.202
 11
699.462
 21
255.207
  0
LINE
  8
0
 10
699.462
 20
255.207
 11
699.493
 21
255.215
  0
LINE
  8
0
 10
699.493
 20
255.215
 11
699.522
 21
255.226
  0
LINE
  8
0
 10
699.522
 20
255.226
 11
699.55
 21
255.24
  0
LINE
  8
0
 10
699.55
 20
255.24
 11
699.576
 21
255.257
  0
LINE
  8
0
 10
699.576
 20
255.257
 11
699.601
 21
255.277
  0
LINE
  8
0
 10
699.601
 20
255.277
 11
699.623
 21
255.299
  0
LINE
  8
0
 10
699.623
 20
255.299
 11
699.643
 21
255.324
  0
LINE
  8
0
 10
699.643
 20
255.324
 11
699.66
 21
255.35
  0
LINE
  8
0
 10
699.66
 20
255.35
 11
699.674
 21
255.378
  0
LINE
  8
0
 10
699.674
 20
255.378
 11
699.685
 21
255.407
  0
LINE
  8
0
 10
699.685
 20
255.407
 11
699.693
 21
255.438
  0
LINE
  8
0
 10
699.693
 20
255.438
 11
699.698
 21
255.469
  0
LINE
  8
0
 10
699.698
 20
255.469
 11
699.7
 21
255.5
  0
LINE
  8
0
 10
699.7
 20
255.5
 11
699.698
 21
255.531
  0
LINE
  8
0
 10
699.698
 20
255.531
 11
699.693
 21
255.562
  0
LINE
  8
0
 10
699.693
 20
255.562
 11
699.685
 21
255.593
  0
LINE
  8
0
 10
699.685
 20
255.593
 11
699.674
 21
255.622
  0
LINE
  8
0
 10
699.674
 20
255.622
 11
699.66
 21
255.65
  0
LINE
  8
0
 10
699.66
 20
255.65
 11
699.643
 21
255.676
  0
LINE
  8
0
 10
699.643
 20
255.676
 11
699.623
 21
255.701
  0
LINE
  8
0
 10
699.623
 20
255.701
 11
699.601
 21
255.723
  0
LINE
  8
0
 10
699.601
 20
255.723
 11
699.576
 21
255.743
  0
LINE
  8
0
 10
699.576
 20
255.743
 11
699.55
 21
255.76
  0
LINE
  8
0
 10
699.55
 20
255.76
 11
699.522
 21
255.774
  0
LINE
  8
0
 10
699.522
 20
255.774
 11
699.493
 21
255.785
  0
LINE
  8
0
 10
699.493
 20
255.785
 11
699.462
 21
255.793
  0
LINE
  8
0
 10
699.462
 20
255.793
 11
699.431
 21
255.798
  0
LINE
  8
0
 10
699.431
 20
255.798
 11
699.4
 21
255.8
  0
LINE
  8
0
 10
699.4
 20
255.8
 11
699.4
 21
257
  0
LINE
  8
0
 10
699.4
 20
257
 11
699.026
 21
257
  0
LINE
  8
0
 10
699.026
 20
257
 11
698.778
 21
257.925
  0
LINE
  8
0
 10
698.778
 20
257.925
 11
698.302
 21
259.166
  0
LINE
  8
0
 10
698.302
 20
259.166
 11
697.699
 21
260.35
  0
LINE
  8
0
 10
697.699
 20
260.35
 11
696.974
 21
261.465
  0
LINE
  8
0
 10
696.974
 20
261.465
 11
696.138
 21
262.498
  0
LINE
  8
0
 10
696.138
 20
262.498
 11
695.198
 21
263.438
  0
LINE
  8
0
 10
695.198
 20
263.438
 11
694.165
 21
264.275
  0
LINE
  8
0
 10
694.165
 20
264.275
 11
693.05
 21
264.999
  0
LINE
  8
0
 10
693.05
 20
264.999
 11
691.866
 21
265.602
  0
LINE
  8
0
 10
691.866
 20
265.602
 11
690.625
 21
266.078
  0
LINE
  8
0
 10
690.625
 20
266.078
 11
689.34
 21
266.422
  0
LINE
  8
0
 10
689.34
 20
266.422
 11
688.028
 21
266.63
  0
LINE
  8
0
 10
688.028
 20
266.63
 11
686.7
 21
266.7
  0
LINE
  8
0
 10
686.7
 20
266.7
 11
685.372
 21
266.63
  0
LINE
  8
0
 10
685.372
 20
266.63
 11
684.06
 21
266.422
  0
LINE
  8
0
 10
684.06
 20
266.422
 11
682.776
 21
266.078
  0
LINE
  8
0
 10
682.776
 20
266.078
 11
681.534
 21
265.602
  0
LINE
  8
0
 10
681.534
 20
265.602
 11
680.35
 21
264.999
  0
LINE
  8
0
 10
680.35
 20
264.999
 11
679.235
 21
264.275
  0
LINE
  8
0
 10
679.235
 20
264.275
 11
678.202
 21
263.438
  0
LINE
  8
0
 10
678.202
 20
263.438
 11
677.262
 21
262.498
  0
LINE
  8
0
 10
677.262
 20
262.498
 11
676.425
 21
261.465
  0
LINE
  8
0
 10
676.425
 20
261.465
 11
675.701
 21
260.35
  0
LINE
  8
0
 10
675.701
 20
260.35
 11
675.098
 21
259.166
  0
LINE
  8
0
 10
675.098
 20
259.166
 11
674.622
 21
257.925
  0
LINE
  8
0
 10
674.622
 20
257.925
 11
674.374
 21
257
  0
LINE
  8
0
 10
674.374
 20
257
 11
674
 21
257
  0
LINE
  8
0
 10
674
 20
257
 11
674
 21
222.25
  0
LINE
  8
0
 10
674
 20
222.25
 11
672.8
 21
222.25
  0
LINE
  8
0
 10
672.8
 20
222.25
 11
672.798
 21
222.281
  0
LINE
  8
0
 10
672.798
 20
222.281
 11
672.793
 21
222.312
  0
LINE
  8
0
 10
672.793
 20
222.312
 11
672.785
 21
222.343
  0
LINE
  8
0
 10
672.785
 20
222.343
 11
672.774
 21
222.372
  0
LINE
  8
0
 10
672.774
 20
222.372
 11
672.76
 21
222.4
  0
LINE
  8
0
 10
672.76
 20
222.4
 11
672.743
 21
222.426
  0
LINE
  8
0
 10
672.743
 20
222.426
 11
672.723
 21
222.451
  0
LINE
  8
0
 10
672.723
 20
222.451
 11
672.701
 21
222.473
  0
LINE
  8
0
 10
672.701
 20
222.473
 11
672.676
 21
222.493
  0
LINE
  8
0
 10
672.676
 20
222.493
 11
672.65
 21
222.51
  0
LINE
  8
0
 10
672.65
 20
222.51
 11
672.622
 21
222.524
  0
LINE
  8
0
 10
672.622
 20
222.524
 11
672.593
 21
222.535
  0
LINE
  8
0
 10
672.593
 20
222.535
 11
672.562
 21
222.543
  0
LINE
  8
0
 10
672.562
 20
222.543
 11
672.531
 21
222.548
  0
LINE
  8
0
 10
672.531
 20
222.548
 11
672.5
 21
222.55
  0
LINE
  8
0
 10
672.5
 20
222.55
 11
672.469
 21
222.548
  0
LINE
  8
0
 10
672.469
 20
222.548
 11
672.438
 21
222.543
  0
LINE
  8
0
 10
672.438
 20
222.543
 11
672.407
 21
222.535
  0
LINE
  8
0
 10
672.407
 20
222.535
 11
672.378
 21
222.524
  0
LINE
  8
0
 10
672.378
 20
222.524
 11
672.35
 21
222.51
  0
LINE
  8
0
 10
672.35
 20
222.51
 11
672.324
 21
222.493
  0
LINE
  8
0
 10
672.324
 20
222.493
 11
672.299
 21
222.473
  0
LINE
  8
0
 10
672.299
 20
222.473
 11
672.277
 21
222.451
  0
LINE
  8
0
 10
672.277
 20
222.451
 11
672.257
 21
222.426
  0
LINE
  8
0
 10
672.257
 20
222.426
 11
672.24
 21
222.4
  0
LINE
  8
0
 10
672.24
 20
222.4
 11
672.226
 21
222.372
  0
LINE
  8
0
 10
672.226
 20
222.372
 11
672.215
 21
222.343
  0
LINE
  8
0
 10
672.215
 20
222.343
 11
672.207
 21
222.312
  0
LINE
  8
0
 10
672.207
 20
222.312
 11
672.202
 21
222.281
  0
LINE
  8
0
 10
672.202
 20
222.281
 11
672.2
 21
222.25
  0
LINE
  8
0
 10
672.2
 20
222.25
 11
671
 21
222.25
  0
LINE
  8
0
 10
671
 20
222.25
 11
671
 21
221.951
  0
LINE
  8
0
 10
671
 20
221.951
 11
670.699
 21
221.903
  0
LINE
  8
0
 10
670.699
 20
221.903
 11
669.094
 21
221.473
  0
LINE
  8
0
 10
669.094
 20
221.473
 11
667.543
 21
220.878
  0
LINE
  8
0
 10
667.543
 20
220.878
 11
666.062
 21
220.123
  0
LINE
  8
0
 10
666.062
 20
220.123
 11
664.669
 21
219.218
  0
LINE
  8
0
 10
664.669
 20
219.218
 11
663.378
 21
218.172
  0
LINE
  8
0
 10
663.378
 20
218.172
 11
662.203
 21
216.997
  0
LINE
  8
0
 10
662.203
 20
216.997
 11
661.157
 21
215.706
  0
LINE
  8
0
 10
661.157
 20
215.706
 11
660.252
 21
214.312
  0
LINE
  8
0
 10
660.252
 20
214.312
 11
659.497
 21
212.832
  0
LINE
  8
0
 10
659.497
 20
212.832
 11
658.902
 21
211.281
  0
LINE
  8
0
 10
658.902
 20
211.281
 11
658.472
 21
209.676
  0
LINE
  8
0
 10
658.472
 20
209.676
 11
658.212
 21
208.034
  0
LINE
  8
0
 10
658.212
 20
208.034
 11
658.125
 21
206.375
  0
LINE
  8
0
 10
658.125
 20
206.375
 11
658.212
 21
204.716
  0
LINE
  8
0
 10
658.212
 20
204.716
 11
658.472
 21
203.074
  0
LINE
  8
0
 10
658.472
 20
203.074
 11
658.902
 21
201.469
  0
LINE
  8
0
 10
658.902
 20
201.469
 11
659.497
 21
199.918
  0
LINE
  8
0
 10
659.497
 20
199.918
 11
660.252
 21
198.438
  0
LINE
  8
0
 10
660.252
 20
198.438
 11
661.157
 21
197.044
  0
LINE
  8
0
 10
661.157
 20
197.044
 11
662.203
 21
195.753
  0
LINE
  8
0
 10
662.203
 20
195.753
 11
663.378
 21
194.578
  0
LINE
  8
0
 10
663.378
 20
194.578
 11
664.669
 21
193.532
  0
LINE
  8
0
 10
664.669
 20
193.532
 11
666.062
 21
192.627
  0
LINE
  8
0
 10
666.062
 20
192.627
 11
667.543
 21
191.872
  0
LINE
  8
0
 10
667.543
 20
191.872
 11
669.094
 21
191.277
  0
LINE
  8
0
 10
669.094
 20
191.277
 11
670.699
 21
190.847
  0
LINE
  8
0
 10
670.699
 20
190.847
 11
671
 21
190.799
  0
LINE
  8
0
 10
671
 20
190.799
 11
671
 21
190.5
  0
LINE
  8
0
 10
671
 20
190.5
 11
674
 21
190.5
  0
LINE
  8
0
 10
674
 20
190.5
 11
674
 21
158.75
  0
LINE
  8
0
 10
674
 20
158.75
 11
672.8
 21
158.75
  0
LINE
  8
0
 10
672.8
 20
158.75
 11
672.798
 21
158.781
  0
LINE
  8
0
 10
672.798
 20
158.781
 11
672.793
 21
158.812
  0
LINE
  8
0
 10
672.793
 20
158.812
 11
672.785
 21
158.843
  0
LINE
  8
0
 10
672.785
 20
158.843
 11
672.774
 21
158.872
  0
LINE
  8
0
 10
672.774
 20
158.872
 11
672.76
 21
158.9
  0
LINE
  8
0
 10
672.76
 20
158.9
 11
672.743
 21
158.926
  0
LINE
  8
0
 10
672.743
 20
158.926
 11
672.723
 21
158.951
  0
LINE
  8
0
 10
672.723
 20
158.951
 11
672.701
 21
158.973
  0
LINE
  8
0
 10
672.701
 20
158.973
 11
672.676
 21
158.993
  0
LINE
  8
0
 10
672.676
 20
158.993
 11
672.65
 21
159.01
  0
LINE
  8
0
 10
672.65
 20
159.01
 11
672.622
 21
159.024
  0
LINE
  8
0
 10
672.622
 20
159.024
 11
672.593
 21
159.035
  0
LINE
  8
0
 10
672.593
 20
159.035
 11
672.562
 21
159.043
  0
LINE
  8
0
 10
672.562
 20
159.043
 11
672.531
 21
159.048
  0
LINE
  8
0
 10
672.531
 20
159.048
 11
672.5
 21
159.05
  0
LINE
  8
0
 10
672.5
 20
159.05
 11
672.469
 21
159.048
  0
LINE
  8
0
 10
672.469
 20
159.048
 11
672.438
 21
159.043
  0
LINE
  8
0
 10
672.438
 20
159.043
 11
672.407
 21
159.035
  0
LINE
  8
0
 10
672.407
 20
159.035
 11
672.378
 21
159.024
  0
LINE
  8
0
 10
672.378
 20
159.024
 11
672.35
 21
159.01
  0
LINE
  8
0
 10
672.35
 20
159.01
 11
672.324
 21
158.993
  0
LINE
  8
0
 10
672.324
 20
158.993
 11
672.299
 21
158.973
  0
LINE
  8
0
 10
672.299
 20
158.973
 11
672.277
 21
158.951
  0
LINE
  8
0
 10
672.277
 20
158.951
 11
672.257
 21
158.926
  0
LINE
  8
0
 10
672.257
 20
158.926
 11
672.24
 21
158.9
  0
LINE
  8
0
 10
672.24
 20
158.9
 11
672.226
 21
158.872
  0
LINE
  8
0
 10
672.226
 20
158.872
 11
672.215
 21
158.843
  0
LINE
  8
0
 10
672.215
 20
158.843
 11
672.207
 21
158.812
  0
LINE
  8
0
 10
672.207
 20
158.812
 11
672.202
 21
158.781
  0
LINE
  8
0
 10
672.202
 20
158.781
 11
672.2
 21
158.75
  0
LINE
  8
0
 10
672.2
 20
158.75
 11
671
 21
158.75
  0
LINE
  8
0
 10
671
 20
158.75
 11
671
 21
158.451
  0
LINE
  8
0
 10
671
 20
158.451
 11
670.699
 21
158.403
  0
LINE
  8
0
 10
670.699
 20
158.403
 11
669.094
 21
157.973
  0
LINE
  8
0
 10
669.094
 20
157.973
 11
667.543
 21
157.378
  0
LINE
  8
0
 10
667.543
 20
157.378
 11
666.062
 21
156.623
  0
LINE
  8
0
 10
666.062
 20
156.623
 11
664.669
 21
155.718
  0
LINE
  8
0
 10
664.669
 20
155.718
 11
663.378
 21
154.672
  0
LINE
  8
0
 10
663.378
 20
154.672
 11
662.203
 21
153.497
  0
LINE
  8
0
 10
662.203
 20
153.497
 11
661.157
 21
152.206
  0
LINE
  8
0
 10
661.157
 20
152.206
 11
660.252
 21
150.812
  0
LINE
  8
0
 10
660.252
 20
150.812
 11
659.497
 21
149.332
  0
LINE
  8
0
 10
659.497
 20
149.332
 11
658.902
 21
147.781
  0
LINE
  8
0
 10
658.902
 20
147.781
 11
658.472
 21
146.176
  0
LINE
  8
0
 10
658.472
 20
146.176
 11
658.212
 21
144.534
  0
LINE
  8
0
 10
658.212
 20
144.534
 11
658.125
 21
142.875
  0
LINE
  8
0
 10
658.125
 20
142.875
 11
658.212
 21
141.216
  0
LINE
  8
0
 10
658.212
 20
141.216
 11
658.472
 21
139.574
  0
LINE
  8
0
 10
658.472
 20
139.574
 11
658.902
 21
137.969
  0
LINE
  8
0
 10
658.902
 20
137.969
 11
659.497
 21
136.418
  0
LINE
  8
0
 10
659.497
 20
136.418
 11
660.252
 21
134.938
  0
LINE
  8
0
 10
660.252
 20
134.938
 11
661.157
 21
133.544
  0
LINE
  8
0
 10
661.157
 20
133.544
 11
662.203
 21
132.253
  0
LINE
  8
0
 10
662.203
 20
132.253
 11
663.378
 21
131.078
  0
LINE
  8
0
 10
663.378
 20
131.078
 11
664.669
 21
130.032
  0
LINE
  8
0
 10
664.669
 20
130.032
 11
666.062
 21
129.127
  0
LINE
  8
0
 10
666.062
 20
129.127
 11
667.543
 21
128.372
  0
LINE
  8
0
 10
667.543
 20
128.372
 11
669.094
 21
127.777
  0
LINE
  8
0
 10
669.094
 20
127.777
 11
670.699
 21
127.347
  0
LINE
  8
0
 10
670.699
 20
127.347
 11
671
 21
127.299
  0
LINE
  8
0
 10
671
 20
127.299
 11
671
 21
127
  0
LINE
  8
0
 10
671
 20
127
 11
674
 21
127
  0
LINE
  8
0
 10
674
 20
127
 11
674
 21
95.25
  0
LINE
  8
0
 10
674
 20
95.25
 11
672.8
 21
95.25
  0
LINE
  8
0
 10
672.8
 20
95.25
 11
672.798
 21
95.2814
  0
LINE
  8
0
 10
672.798
 20
95.2814
 11
672.793
 21
95.3124
  0
LINE
  8
0
 10
672.793
 20
95.3124
 11
672.785
 21
95.3427
  0
LINE
  8
0
 10
672.785
 20
95.3427
 11
672.774
 21
95.372
  0
LINE
  8
0
 10
672.774
 20
95.372
 11
672.76
 21
95.4
  0
LINE
  8
0
 10
672.76
 20
95.4
 11
672.743
 21
95.4263
  0
LINE
  8
0
 10
672.743
 20
95.4263
 11
672.723
 21
95.4507
  0
LINE
  8
0
 10
672.723
 20
95.4507
 11
672.701
 21
95.4729
  0
LINE
  8
0
 10
672.701
 20
95.4729
 11
672.676
 21
95.4927
  0
LINE
  8
0
 10
672.676
 20
95.4927
 11
672.65
 21
95.5098
  0
LINE
  8
0
 10
672.65
 20
95.5098
 11
672.622
 21
95.5241
  0
LINE
  8
0
 10
672.622
 20
95.5241
 11
672.593
 21
95.5353
  0
LINE
  8
0
 10
672.593
 20
95.5353
 11
672.562
 21
95.5434
  0
LINE
  8
0
 10
672.562
 20
95.5434
 11
672.531
 21
95.5484
  0
LINE
  8
0
 10
672.531
 20
95.5484
 11
672.5
 21
95.55
  0
LINE
  8
0
 10
672.5
 20
95.55
 11
672.469
 21
95.5484
  0
LINE
  8
0
 10
672.469
 20
95.5484
 11
672.438
 21
95.5434
  0
LINE
  8
0
 10
672.438
 20
95.5434
 11
672.407
 21
95.5353
  0
LINE
  8
0
 10
672.407
 20
95.5353
 11
672.378
 21
95.5241
  0
LINE
  8
0
 10
672.378
 20
95.5241
 11
672.35
 21
95.5098
  0
LINE
  8
0
 10
672.35
 20
95.5098
 11
672.324
 21
95.4927
  0
LINE
  8
0
 10
672.324
 20
95.4927
 11
672.299
 21
95.4729
  0
LINE
  8
0
 10
672.299
 20
95.4729
 11
672.277
 21
95.4507
  0
LINE
  8
0
 10
672.277
 20
95.4507
 11
672.257
 21
95.4263
  0
LINE
  8
0
 10
672.257
 20
95.4263
 11
672.24
 21
95.4
  0
LINE
  8
0
 10
672.24
 20
95.4
 11
672.226
 21
95.372
  0
LINE
  8
0
 10
672.226
 20
95.372
 11
672.215
 21
95.3427
  0
LINE
  8
0
 10
672.215
 20
95.3427
 11
672.207
 21
95.3124
  0
LINE
  8
0
 10
672.207
 20
95.3124
 11
672.202
 21
95.2814
  0
LINE
  8
0
 10
672.202
 20
95.2814
 11
672.2
 21
95.25
  0
LINE
  8
0
 10
672.2
 20
95.25
 11
671
 21
95.25
  0
LINE
  8
0
 10
671
 20
95.25
 11
671
 21
94.9507
  0
LINE
  8
0
 10
671
 20
94.9507
 11
670.699
 21
94.9031
  0
LINE
  8
0
 10
670.699
 20
94.9031
 11
669.094
 21
94.473
  0
LINE
  8
0
 10
669.094
 20
94.473
 11
667.543
 21
93.8775
  0
LINE
  8
0
 10
667.543
 20
93.8775
 11
666.062
 21
93.1232
  0
LINE
  8
0
 10
666.062
 20
93.1232
 11
664.669
 21
92.2181
  0
LINE
  8
0
 10
664.669
 20
92.2181
 11
663.378
 21
91.1724
  0
LINE
  8
0
 10
663.378
 20
91.1724
 11
662.203
 21
89.9975
  0
LINE
  8
0
 10
662.203
 20
89.9975
 11
661.157
 21
88.7061
  0
LINE
  8
0
 10
661.157
 20
88.7061
 11
660.252
 21
87.3125
  0
LINE
  8
0
 10
660.252
 20
87.3125
 11
659.497
 21
85.8319
  0
LINE
  8
0
 10
659.497
 20
85.8319
 11
658.902
 21
84.2806
  0
LINE
  8
0
 10
658.902
 20
84.2806
 11
658.472
 21
82.6756
  0
LINE
  8
0
 10
658.472
 20
82.6756
 11
658.212
 21
81.0344
  0
LINE
  8
0
 10
658.212
 20
81.0344
 11
658.125
 21
79.375
  0
LINE
  8
0
 10
658.125
 20
79.375
 11
658.212
 21
77.7156
  0
LINE
  8
0
 10
658.212
 20
77.7156
 11
658.472
 21
76.0744
  0
LINE
  8
0
 10
658.472
 20
76.0744
 11
658.902
 21
74.4693
  0
LINE
  8
0
 10
658.902
 20
74.4693
 11
659.497
 21
72.918
  0
LINE
  8
0
 10
659.497
 20
72.918
 11
660.252
 21
71.4375
  0
LINE
  8
0
 10
660.252
 20
71.4375
 11
661.157
 21
70.0439
  0
LINE
  8
0
 10
661.157
 20
70.0439
 11
662.203
 21
68.7525
  0
LINE
  8
0
 10
662.203
 20
68.7525
 11
663.378
 21
67.5776
  0
LINE
  8
0
 10
663.378
 20
67.5776
 11
664.669
 21
66.5318
  0
LINE
  8
0
 10
664.669
 20
66.5318
 11
666.062
 21
65.6268
  0
LINE
  8
0
 10
666.062
 20
65.6268
 11
667.543
 21
64.8725
  0
LINE
  8
0
 10
667.543
 20
64.8725
 11
669.094
 21
64.277
  0
LINE
  8
0
 10
669.094
 20
64.277
 11
670.699
 21
63.8469
  0
LINE
  8
0
 10
670.699
 20
63.8469
 11
671
 21
63.7993
  0
LINE
  8
0
 10
671
 20
63.7993
 11
671
 21
63.5
  0
LINE
  8
0
 10
671
 20
63.5
 11
674
 21
63.5
  0
LINE
  8
0
 10
674
 20
63.5
 11
674
 21
31.75
  0
LINE
  8
0
 10
674
 20
31.75
 11
672.8
 21
31.75
  0
LINE
  8
0
 10
672.8
 20
31.75
 11
672.798
 21
31.7814
  0
LINE
  8
0
 10
672.798
 20
31.7814
 11
672.793
 21
31.8124
  0
LINE
  8
0
 10
672.793
 20
31.8124
 11
672.785
 21
31.8427
  0
LINE
  8
0
 10
672.785
 20
31.8427
 11
672.774
 21
31.872
  0
LINE
  8
0
 10
672.774
 20
31.872
 11
672.76
 21
31.9
  0
LINE
  8
0
 10
672.76
 20
31.9
 11
672.743
 21
31.9263
  0
LINE
  8
0
 10
672.743
 20
31.9263
 11
672.723
 21
31.9507
  0
LINE
  8
0
 10
672.723
 20
31.9507
 11
672.701
 21
31.9729
  0
LINE
  8
0
 10
672.701
 20
31.9729
 11
672.676
 21
31.9927
  0
LINE
  8
0
 10
672.676
 20
31.9927
 11
672.65
 21
32.0098
  0
LINE
  8
0
 10
672.65
 20
32.0098
 11
672.622
 21
32.0241
  0
LINE
  8
0
 10
672.622
 20
32.0241
 11
672.593
 21
32.0353
  0
LINE
  8
0
 10
672.593
 20
32.0353
 11
672.562
 21
32.0434
  0
LINE
  8
0
 10
672.562
 20
32.0434
 11
672.531
 21
32.0484
  0
LINE
  8
0
 10
672.531
 20
32.0484
 11
672.5
 21
32.05
  0
LINE
  8
0
 10
672.5
 20
32.05
 11
672.469
 21
32.0484
  0
LINE
  8
0
 10
672.469
 20
32.0484
 11
672.438
 21
32.0434
  0
LINE
  8
0
 10
672.438
 20
32.0434
 11
672.407
 21
32.0353
  0
LINE
  8
0
 10
672.407
 20
32.0353
 11
672.378
 21
32.0241
  0
LINE
  8
0
 10
672.378
 20
32.0241
 11
672.35
 21
32.0098
  0
LINE
  8
0
 10
672.35
 20
32.0098
 11
672.324
 21
31.9927
  0
LINE
  8
0
 10
672.324
 20
31.9927
 11
672.299
 21
31.9729
  0
LINE
  8
0
 10
672.299
 20
31.9729
 11
672.277
 21
31.9507
  0
LINE
  8
0
 10
672.277
 20
31.9507
 11
672.257
 21
31.9263
  0
LINE
  8
0
 10
672.257
 20
31.9263
 11
672.24
 21
31.9
  0
LINE
  8
0
 10
672.24
 20
31.9
 11
672.226
 21
31.872
  0
LINE
  8
0
 10
672.226
 20
31.872
 11
672.215
 21
31.8427
  0
LINE
  8
0
 10
672.215
 20
31.8427
 11
672.207
 21
31.8124
  0
LINE
  8
0
 10
672.207
 20
31.8124
 11
672.202
 21
31.7814
  0
LINE
  8
0
 10
672.202
 20
31.7814
 11
672.2
 21
31.75
  0
LINE
  8
0
 10
672.2
 20
31.75
 11
671
 21
31.75
  0
LINE
  8
0
 10
671
 20
31.75
 11
671
 21
31.4507
  0
LINE
  8
0
 10
671
 20
31.4507
 11
670.699
 21
31.4031
  0
LINE
  8
0
 10
670.699
 20
31.4031
 11
669.094
 21
30.973
  0
LINE
  8
0
 10
669.094
 20
30.973
 11
667.543
 21
30.3775
  0
LINE
  8
0
 10
667.543
 20
30.3775
 11
666.062
 21
29.6232
  0
LINE
  8
0
 10
666.062
 20
29.6232
 11
664.669
 21
28.7181
  0
LINE
  8
0
 10
664.669
 20
28.7181
 11
663.378
 21
27.6724
  0
LINE
  8
0
 10
663.378
 20
27.6724
 11
662.203
 21
26.4974
  0
LINE
  8
0
 10
662.203
 20
26.4974
 11
661.157
 21
25.2061
  0
LINE
  8
0
 10
661.157
 20
25.2061
 11
660.252
 21
23.8125
  0
LINE
  8
0
 10
660.252
 20
23.8125
 11
659.497
 21
22.3319
  0
LINE
  8
0
 10
659.497
 20
22.3319
 11
658.902
 21
20.7806
  0
LINE
  8
0
 10
658.902
 20
20.7806
 11
658.472
 21
19.1756
  0
LINE
  8
0
 10
658.472
 20
19.1756
 11
658.212
 21
17.5344
  0
LINE
  8
0
 10
658.212
 20
17.5344
 11
658.125
 21
15.875
  0
LINE
  8
0
 10
658.125
 20
15.875
 11
658.212
 21
14.2156
  0
LINE
  8
0
 10
658.212
 20
14.2156
 11
658.472
 21
12.5744
  0
LINE
  8
0
 10
658.472
 20
12.5744
 11
658.902
 21
10.9693
  0
LINE
  8
0
 10
658.902
 20
10.9693
 11
659.497
 21
9.41805
  0
LINE
  8
0
 10
659.497
 20
9.41805
 11
660.252
 21
7.9375
  0
LINE
  8
0
 10
660.252
 20
7.9375
 11
661.157
 21
6.5439
  0
LINE
  8
0
 10
661.157
 20
6.5439
 11
662.203
 21
5.25255
  0
LINE
  8
0
 10
662.203
 20
5.25255
 11
663.378
 21
4.07758
  0
LINE
  8
0
 10
663.378
 20
4.07758
 11
664.669
 21
3.03185
  0
LINE
  8
0
 10
664.669
 20
3.03185
 11
666.062
 21
2.12685
  0
LINE
  8
0
 10
666.062
 20
2.12685
 11
667.543
 21
1.37245
  0
LINE
  8
0
 10
667.543
 20
1.37245
 11
669.094
 21
0.776978
  0
LINE
  8
0
 10
669.094
 20
0.776978
 11
670.699
 21
0.346893
  0
LINE
  8
0
 10
670.699
 20
0.346893
 11
671
 21
0.299286
  0
LINE
  8
0
 10
671
 20
0.299286
 11
671
 21
0
  0
LINE
  8
0
 10
671
 20
0
 11
699.4
 21
0
  0
LINE
  8
0
 10
699.4
 20
0
 11
699.4
 21
-1.2
  0
LINE
  8
0
 10
699.4
 20
-1.2
 11
699.369
 21
-1.20163
  0
LINE
  8
0
 10
699.369
 20
-1.20163
 11
699.338
 21
-1.20654
  0
LINE
  8
0
 10
699.338
 20
-1.20654
 11
699.307
 21
-1.21468
  0
LINE
  8
0
 10
699.307
 20
-1.21468
 11
699.278
 21
-1.22592
  0
LINE
  8
0
 10
699.278
 20
-1.22592
 11
699.25
 21
-1.24019
  0
LINE
  8
0
 10
699.25
 20
-1.24019
 11
699.224
 21
-1.25729
  0
LINE
  8
0
 10
699.224
 20
-1.25729
 11
699.199
 21
-1.27705
  0
LINE
  8
0
 10
699.199
 20
-1.27705
 11
699.177
 21
-1.29926
  0
LINE
  8
0
 10
699.177
 20
-1.29926
 11
699.157
 21
-1.32365
  0
LINE
  8
0
 10
699.157
 20
-1.32365
 11
699.14
 21
-1.34999
  0
LINE
  8
0
 10
699.14
 20
-1.34999
 11
699.126
 21
-1.37798
  0
LINE
  8
0
 10
699.126
 20
-1.37798
 11
699.115
 21
-1.40729
  0
LINE
  8
0
 10
699.115
 20
-1.40729
 11
699.107
 21
-1.43762
  0
LINE
  8
0
 10
699.107
 20
-1.43762
 11
699.102
 21
-1.46863
  0
LINE
  8
0
 10
699.102
 20
-1.46863
 11
699.1
 21
-1.5
  0
LINE
  8
0
 10
699.1
 20
-1.5
 11
699.102
 21
-1.53136
  0
LINE
  8
0
 10
699.102
 20
-1.53136
 11
699.107
 21
-1.56236
  0
LINE
  8
0
 10
699.107
 20
-1.56236
 11
699.115
 21
-1.5927
  0
LINE
  8
0
 10
699.115
 20
-1.5927
 11
699.126
 21
-1.62201
  0
LINE
  8
0
 10
699.126
 20
-1.62201
 11
699.14
 21
-1.64999
  0
LINE
  8
0
 10
699.14
 20
-1.64999
 11
699.157
 21
-1.67633
  0
LINE
  8
0
 10
699.157
 20
-1.67633
 11
699.177
 21
-1.70073
  0
LINE
  8
0
 10
699.177
 20
-1.70073
 11
699.199
 21
-1.72293
  0
LINE
  8
0
 10
699.199
 20
-1.72293
 11
699.224
 21
-1.74269
  0
LINE
  8
0
 10
699.224
 20
-1.74269
 11
699.25
 21
-1.7598
  0
LINE
  8
0
 10
699.25
 20
-1.7598
 11
699.278
 21
-1.77406
  0
LINE
  8
0
 10
699.278
 20
-1.77406
 11
699.307
 21
-1.78531
  0
LINE
  8
0
 10
699.307
 20
-1.78531
 11
699.338
 21
-1.79344
  0
LINE
  8
0
 10
699.338
 20
-1.79344
 11
699.369
 21
-1.79836
  0
LINE
  8
0
 10
699.369
 20
-1.79836
 11
699.4
 21
-1.79999
  0
LINE
  8
0
 10
699.4
 20
-1.79999
 11
699.4
 21
-3
  0
LINE
  8
0
 10
699.4
 20
-3
 11
699.774
 21
-3
  0
LINE
  8
0
 10
699.774
 20
-3
 11
700.022
 21
-3.92451
  0
LINE
  8
0
 10
700.022
 20
-3.92451
 11
700.498
 21
-5.16554
  0
LINE
  8
0
 10
700.498
 20
-5.16554
 11
701.102
 21
-6.34999
  0
LINE
  8
0
 10
701.102
 20
-6.34999
 11
701.826
 21
-7.46486
  0
LINE
  8
0
 10
701.826
 20
-7.46486
 11
702.662
 21
-8.49796
  0
LINE
  8
0
 10
702.662
 20
-8.49796
 11
703.602
 21
-9.43793
  0
LINE
  8
0
 10
703.602
 20
-9.43793
 11
704.635
 21
-10.2745
  0
LINE
  8
0
 10
704.635
 20
-10.2745
 11
705.75
 21
-10.9985
  0
LINE
  8
0
 10
705.75
 20
-10.9985
 11
706.934
 21
-11.602
  0
LINE
  8
0
 10
706.934
 20
-11.602
 11
708.175
 21
-12.0784
  0
LINE
  8
0
 10
708.175
 20
-12.0784
 11
709.46
 21
-12.4225
  0
LINE
  8
0
 10
709.46
 20
-12.4225
 11
710.772
 21
-12.6304
  0
LINE
  8
0
 10
710.772
 20
-12.6304
 11
712.1
 21
-12.7
  0
LINE
  8
0
 10
712.1
 20
-12.7
 11
713.427
 21
-12.6304
  0
LINE
  8
0
 10
713.427
 20
-12.6304
 11
714.74
 21
-12.4225
  0
LINE
  8
0
 10
714.74
 20
-12.4225
 11
716.025
 21
-12.0784
  0
LINE
  8
0
 10
716.025
 20
-12.0784
 11
717.266
 21
-11.602
  0
LINE
  8
0
 10
717.266
 20
-11.602
 11
718.45
 21
-10.9985
  0
LINE
  8
0
 10
718.45
 20
-10.9985
 11
719.565
 21
-10.2745
  0
LINE
  8
0
 10
719.565
 20
-10.2745
 11
720.598
 21
-9.43793
  0
LINE
  8
0
 10
720.598
 20
-9.43793
 11
721.538
 21
-8.49796
  0
LINE
  8
0
 10
721.538
 20
-8.49796
 11
722.375
 21
-7.46486
  0
LINE
  8
0
 10
722.375
 20
-7.46486
 11
723.099
 21
-6.34999
  0
LINE
  8
0
 10
723.099
 20
-6.34999
 11
723.702
 21
-5.16554
  0
LINE
  8
0
 10
723.702
 20
-5.16554
 11
724.178
 21
-3.92451
  0
LINE
  8
0
 10
724.178
 20
-3.92451
 11
724.426
 21
-3
  0
LINE
  8
0
 10
724.426
 20
-3
 11
724.8
 21
-3
  0
LINE
  8
0
 10
724.8
 20
-3
 11
724.8
 21
0
  0
LINE
  8
0
 10
724.8
 20
0
 11
750.2
 21
0
  0
LINE
  8
0
 10
750.2
 20
0
 11
750.2
 21
-1.2
  0
LINE
  8
0
 10
750.2
 20
-1.2
 11
750.169
 21
-1.20163
  0
LINE
  8
0
 10
750.169
 20
-1.20163
 11
750.138
 21
-1.20654
  0
LINE
  8
0
 10
750.138
 20
-1.20654
 11
750.107
 21
-1.21468
  0
LINE
  8
0
 10
750.107
 20
-1.21468
 11
750.078
 21
-1.22592
  0
LINE
  8
0
 10
750.078
 20
-1.22592
 11
750.05
 21
-1.24019
  0
LINE
  8
0
 10
750.05
 20
-1.24019
 11
750.024
 21
-1.25729
  0
LINE
  8
0
 10
750.024
 20
-1.25729
 11
749.999
 21
-1.27705
  0
LINE
  8
0
 10
749.999
 20
-1.27705
 11
749.977
 21
-1.29926
  0
LINE
  8
0
 10
749.977
 20
-1.29926
 11
749.957
 21
-1.32365
  0
LINE
  8
0
 10
749.957
 20
-1.32365
 11
749.94
 21
-1.34999
  0
LINE
  8
0
 10
749.94
 20
-1.34999
 11
749.926
 21
-1.37798
  0
LINE
  8
0
 10
749.926
 20
-1.37798
 11
749.915
 21
-1.40729
  0
LINE
  8
0
 10
749.915
 20
-1.40729
 11
749.907
 21
-1.43762
  0
LINE
  8
0
 10
749.907
 20
-1.43762
 11
749.902
 21
-1.46863
  0
LINE
  8
0
 10
749.902
 20
-1.46863
 11
749.9
 21
-1.5
  0
LINE
  8
0
 10
749.9
 20
-1.5
 11
749.902
 21
-1.53136
  0
LINE
  8
0
 10
749.902
 20
-1.53136
 11
749.907
 21
-1.56236
  0
LINE
  8
0
 10
749.907
 20
-1.56236
 11
749.915
 21
-1.5927
  0
LINE
  8
0
 10
749.915
 20
-1.5927
 11
749.926
 21
-1.62201
  0
LINE
  8
0
 10
749.926
 20
-1.62201
 11
749.94
 21
-1.64999
  0
LINE
  8
0
 10
749.94
 20
-1.64999
 11
749.957
 21
-1.67633
  0
LINE
  8
0
 10
749.957
 20
-1.67633
 11
749.977
 21
-1.70073
  0
LINE
  8
0
 10
749.977
 20
-1.70073
 11
749.999
 21
-1.72293
  0
LINE
  8
0
 10
749.999
 20
-1.72293
 11
750.024
 21
-1.74269
  0
LINE
  8
0
 10
750.024
 20
-1.74269
 11
750.05
 21
-1.7598
  0
LINE
  8
0
 10
750.05
 20
-1.7598
 11
750.078
 21
-1.77406
  0
LINE
  8
0
 10
750.078
 20
-1.77406
 11
750.107
 21
-1.78531
  0
LINE
  8
0
 10
750.107
 20
-1.78531
 11
750.138
 21
-1.79344
  0
LINE
  8
0
 10
750.138
 20
-1.79344
 11
750.169
 21
-1.79836
  0
LINE
  8
0
 10
750.169
 20
-1.79836
 11
750.2
 21
-1.79999
  0
LINE
  8
0
 10
750.2
 20
-1.79999
 11
750.2
 21
-3
  0
LINE
  8
0
 10
750.2
 20
-3
 11
750.574
 21
-3
  0
LINE
  8
0
 10
750.574
 20
-3
 11
750.822
 21
-3.92451
  0
LINE
  8
0
 10
750.822
 20
-3.92451
 11
751.298
 21
-5.16554
  0
LINE
  8
0
 10
751.298
 20
-5.16554
 11
751.901
 21
-6.34999
  0
LINE
  8
0
 10
751.901
 20
-6.34999
 11
752.625
 21
-7.46486
  0
LINE
  8
0
 10
752.625
 20
-7.46486
 11
753.462
 21
-8.49796
  0
LINE
  8
0
 10
753.462
 20
-8.49796
 11
754.402
 21
-9.43793
  0
LINE
  8
0
 10
754.402
 20
-9.43793
 11
755.435
 21
-10.2745
  0
LINE
  8
0
 10
755.435
 20
-10.2745
 11
756.55
 21
-10.9985
  0
LINE
  8
0
 10
756.55
 20
-10.9985
 11
757.734
 21
-11.602
  0
LINE
  8
0
 10
757.734
 20
-11.602
 11
758.975
 21
-12.0784
  0
LINE
  8
0
 10
758.975
 20
-12.0784
 11
760.26
 21
-12.4225
  0
LINE
  8
0
 10
760.26
 20
-12.4225
 11
761.573
 21
-12.6304
  0
LINE
  8
0
 10
761.573
 20
-12.6304
 11
762.9
 21
-12.7
  0
LINE
  8
0
 10
762.9
 20
-12.7
 11
764.228
 21
-12.6304
  0
LINE
  8
0
 10
764.228
 20
-12.6304
 11
765.54
 21
-12.4225
  0
LINE
  8
0
 10
765.54
 20
-12.4225
 11
766.825
 21
-12.0784
  0
LINE
  8
0
 10
766.825
 20
-12.0784
 11
768.066
 21
-11.602
  0
LINE
  8
0
 10
768.066
 20
-11.602
 11
769.25
 21
-10.9985
  0
LINE
  8
0
 10
769.25
 20
-10.9985
 11
770.365
 21
-10.2745
  0
LINE
  8
0
 10
770.365
 20
-10.2745
 11
771.398
 21
-9.43793
  0
LINE
  8
0
 10
771.398
 20
-9.43793
 11
772.338
 21
-8.49796
  0
LINE
  8
0
 10
772.338
 20
-8.49796
 11
773.174
 21
-7.46486
  0
LINE
  8
0
 10
773.174
 20
-7.46486
 11
773.898
 21
-6.34999
  0
LINE
  8
0
 10
773.898
 20
-6.34999
 11
774.502
 21
-5.16554
  0
LINE
  8
0
 10
774.502
 20
-5.16554
 11
774.978
 21
-3.92451
  0
LINE
  8
0
 10
774.978
 20
-3.92451
 11
775.226
 21
-3
  0
LINE
  8
0
 10
775.226
 20
-3
 11
775.6
 21
-3
  0
LINE
  8
0
 10
775.6
 20
-3
 11
775.6
 21
0
  0
LINE
  8
0
 10
775.6
 20
0
 11
801
 21
0
  0
LINE
  8
0
 10
801
 20
0
 11
801
 21
-1.2
  0
LINE
  8
0
 10
801
 20
-1.2
 11
800.969
 21
-1.20163
  0
LINE
  8
0
 10
800.969
 20
-1.20163
 11
800.938
 21
-1.20654
  0
LINE
  8
0
 10
800.938
 20
-1.20654
 11
800.907
 21
-1.21468
  0
LINE
  8
0
 10
800.907
 20
-1.21468
 11
800.878
 21
-1.22592
  0
LINE
  8
0
 10
800.878
 20
-1.22592
 11
800.85
 21
-1.24019
  0
LINE
  8
0
 10
800.85
 20
-1.24019
 11
800.824
 21
-1.25729
  0
LINE
  8
0
 10
800.824
 20
-1.25729
 11
800.799
 21
-1.27705
  0
LINE
  8
0
 10
800.799
 20
-1.27705
 11
800.777
 21
-1.29926
  0
LINE
  8
0
 10
800.777
 20
-1.29926
 11
800.757
 21
-1.32365
  0
LINE
  8
0
 10
800.757
 20
-1.32365
 11
800.74
 21
-1.34999
  0
LINE
  8
0
 10
800.74
 20
-1.34999
 11
800.726
 21
-1.37798
  0
LINE
  8
0
 10
800.726
 20
-1.37798
 11
800.715
 21
-1.40729
  0
LINE
  8
0
 10
800.715
 20
-1.40729
 11
800.707
 21
-1.43762
  0
LINE
  8
0
 10
800.707
 20
-1.43762
 11
800.702
 21
-1.46863
  0
LINE
  8
0
 10
800.702
 20
-1.46863
 11
800.7
 21
-1.5
  0
LINE
  8
0
 10
800.7
 20
-1.5
 11
800.702
 21
-1.53136
  0
LINE
  8
0
 10
800.702
 20
-1.53136
 11
800.707
 21
-1.56236
  0
LINE
  8
0
 10
800.707
 20
-1.56236
 11
800.715
 21
-1.5927
  0
LINE
  8
0
 10
800.715
 20
-1.5927
 11
800.726
 21
-1.62201
  0
LINE
  8
0
 10
800.726
 20
-1.62201
 11
800.74
 21
-1.64999
  0
LINE
  8
0
 10
800.74
 20
-1.64999
 11
800.757
 21
-1.67633
  0
LINE
  8
0
 10
800.757
 20
-1.67633
 11
800.777
 21
-1.70073
  0
LINE
  8
0
 10
800.777
 20
-1.70073
 11
800.799
 21
-1.72293
  0
LINE
  8
0
 10
800.799
 20
-1.72293
 11
800.824
 21
-1.74269
  0
LINE
  8
0
 10
800.824
 20
-1.74269
 11
800.85
 21
-1.7598
  0
LINE
  8
0
 10
800.85
 20
-1.7598
 11
800.878
 21
-1.77406
  0
LINE
  8
0
 10
800.878
 20
-1.77406
 11
800.907
 21
-1.78531
  0
LINE
  8
0
 10
800.907
 20
-1.78531
 11
800.938
 21
-1.79344
  0
LINE
  8
0
 10
800.938
 20
-1.79344
 11
800.969
 21
-1.79836
  0
LINE
  8
0
 10
800.969
 20
-1.79836
 11
801
 21
-1.79999
  0
LINE
  8
0
 10
801
 20
-1.79999
 11
801
 21
-3
  0
LINE
  8
0
 10
801
 20
-3
 11
801.374
 21
-3
  0
LINE
  8
0
 10
801.374
 20
-3
 11
801.622
 21
-3.92451
  0
LINE
  8
0
 10
801.622
 20
-3.92451
 11
802.098
 21
-5.16554
  0
LINE
  8
0
 10
802.098
 20
-5.16554
 11
802.701
 21
-6.34999
  0
LINE
  8
0
 10
802.701
 20
-6.34999
 11
803.425
 21
-7.46486
  0
LINE
  8
0
 10
803.425
 20
-7.46486
 11
804.262
 21
-8.49796
  0
LINE
  8
0
 10
804.262
 20
-8.49796
 11
805.202
 21
-9.43793
  0
LINE
  8
0
 10
805.202
 20
-9.43793
 11
806.235
 21
-10.2745
  0
LINE
  8
0
 10
806.235
 20
-10.2745
 11
807.35
 21
-10.9985
  0
LINE
  8
0
 10
807.35
 20
-10.9985
 11
808.534
 21
-11.602
  0
LINE
  8
0
 10
808.534
 20
-11.602
 11
809.776
 21
-12.0784
  0
LINE
  8
0
 10
809.776
 20
-12.0784
 11
811.06
 21
-12.4225
  0
LINE
  8
0
 10
811.06
 20
-12.4225
 11
812.372
 21
-12.6304
  0
LINE
  8
0
 10
812.372
 20
-12.6304
 11
813.7
 21
-12.7
  0
LINE
  8
0
 10
813.7
 20
-12.7
 11
815.028
 21
-12.6304
  0
LINE
  8
0
 10
815.028
 20
-12.6304
 11
816.34
 21
-12.4225
  0
LINE
  8
0
 10
816.34
 20
-12.4225
 11
817.625
 21
-12.0784
  0
LINE
  8
0
 10
817.625
 20
-12.0784
 11
818.866
 21
-11.602
  0
LINE
  8
0
 10
818.866
 20
-11.602
 11
820.05
 21
-10.9985
  0
LINE
  8
0
 10
820.05
 20
-10.9985
 11
821.165
 21
-10.2745
  0
LINE
  8
0
 10
821.165
 20
-10.2745
 11
822.198
 21
-9.43793
  0
LINE
  8
0
 10
822.198
 20
-9.43793
 11
823.138
 21
-8.49796
  0
LINE
  8
0
 10
823.138
 20
-8.49796
 11
823.974
 21
-7.46486
  0
LINE
  8
0
 10
823.974
 20
-7.46486
 11
824.699
 21
-6.34999
  0
LINE
  8
0
 10
824.699
 20
-6.34999
 11
825.302
 21
-5.16554
  0
LINE
  8
0
 10
825.302
 20
-5.16554
 11
825.778
 21
-3.92451
  0
LINE
  8
0
 10
825.778
 20
-3.92451
 11
826.026
 21
-3
  0
LINE
  8
0
 10
826.026
 20
-3
 11
826.4
 21
-3
  0
LINE
  8
0
 10
826.4
 20
-3
 11
826.4
 21
0
  0
LINE
  8
0
 10
826.4
 20
0
 11
851.8
 21
0
  0
LINE
  8
0
 10
851.8
 20
0
 11
851.8
 21
-1.2
  0
LINE
  8
0
 10
851.8
 20
-1.2
 11
851.769
 21
-1.20163
  0
LINE
  8
0
 10
851.769
 20
-1.20163
 11
851.738
 21
-1.20654
  0
LINE
  8
0
 10
851.738
 20
-1.20654
 11
851.707
 21
-1.21468
  0
LINE
  8
0
 10
851.707
 20
-1.21468
 11
851.678
 21
-1.22592
  0
LINE
  8
0
 10
851.678
 20
-1.22592
 11
851.65
 21
-1.24019
  0
LINE
  8
0
 10
851.65
 20
-1.24019
 11
851.624
 21
-1.25729
  0
LINE
  8
0
 10
851.624
 20
-1.25729
 11
851.599
 21
-1.27705
  0
LINE
  8
0
 10
851.599
 20
-1.27705
 11
851.577
 21
-1.29926
  0
LINE
  8
0
 10
851.577
 20
-1.29926
 11
851.557
 21
-1.32365
  0
LINE
  8
0
 10
851.557
 20
-1.32365
 11
851.54
 21
-1.34999
  0
LINE
  8
0
 10
851.54
 20
-1.34999
 11
851.526
 21
-1.37798
  0
LINE
  8
0
 10
851.526
 20
-1.37798
 11
851.515
 21
-1.40729
  0
LINE
  8
0
 10
851.515
 20
-1.40729
 11
851.507
 21
-1.43762
  0
LINE
  8
0
 10
851.507
 20
-1.43762
 11
851.502
 21
-1.46863
  0
LINE
  8
0
 10
851.502
 20
-1.46863
 11
851.5
 21
-1.5
  0
LINE
  8
0
 10
851.5
 20
-1.5
 11
851.502
 21
-1.53136
  0
LINE
  8
0
 10
851.502
 20
-1.53136
 11
851.507
 21
-1.56236
  0
LINE
  8
0
 10
851.507
 20
-1.56236
 11
851.515
 21
-1.5927
  0
LINE
  8
0
 10
851.515
 20
-1.5927
 11
851.526
 21
-1.62201
  0
LINE
  8
0
 10
851.526
 20
-1.62201
 11
851.54
 21
-1.64999
  0
LINE
  8
0
 10
851.54
 20
-1.64999
 11
851.557
 21
-1.67633
  0
LINE
  8
0
 10
851.557
 20
-1.67633
 11
851.577
 21
-1.70073
  0
LINE
  8
0
 10
851.577
 20
-1.70073
 11
851.599
 21
-1.72293
  0
LINE
  8
0
 10
851.599
 20
-1.72293
 11
851.624
 21
-1.74269
  0
LINE
  8
0
 10
851.624
 20
-1.74269
 11
851.65
 21
-1.7598
  0
LINE
  8
0
 10
851.65
 20
-1.7598
 11
851.678
 21
-1.77406
  0
LINE
  8
0
 10
851.678
 20
-1.77406
 11
851.707
 21
-1.78531
  0
LINE
  8
0
 10
851.707
 20
-1.78531
 11
851.738
 21
-1.79344
  0
LINE
  8
0
 10
851.738
 20
-1.79344
 11
851.769
 21
-1.79836
  0
LINE
  8
0
 10
851.769
 20
-1.79836
 11
851.8
 21
-1.79999
  0
LINE
  8
0
 10
851.8
 20
-1.79999
 11
851.8
 21
-3
  0
LINE
  8
0
 10
851.8
 20
-3
 11
852.174
 21
-3
  0
LINE
  8
0
 10
852.174
 20
-3
 11
852.422
 21
-3.92451
  0
LINE
  8
0
 10
852.422
 20
-3.92451
 11
852.898
 21
-5.16554
  0
LINE
  8
0
 10
852.898
 20
-5.16554
 11
853.501
 21
-6.34999
  0
LINE
  8
0
 10
853.501
 20
-6.34999
 11
854.225
 21
-7.46486
  0
LINE
  8
0
 10
854.225
 20
-7.46486
 11
855.062
 21
-8.49796
  0
LINE
  8
0
 10
855.062
 20
-8.49796
 11
856.002
 21
-9.43793
  0
LINE
  8
0
 10
856.002
 20
-9.43793
 11
857.035
 21
-10.2745
  0
LINE
  8
0
 10
857.035
 20
-10.2745
 11
858.15
 21
-10.9985
  0
LINE
  8
0
 10
858.15
 20
-10.9985
 11
859.334
 21
-11.602
  0
LINE
  8
0
 10
859.334
 20
-11.602
 11
860.576
 21
-12.0784
  0
LINE
  8
0
 10
860.576
 20
-12.0784
 11
861.859
 21
-12.4225
  0
LINE
  8
0
 10
861.859
 20
-12.4225
 11
863.172
 21
-12.6304
  0
LINE
  8
0
 10
863.172
 20
-12.6304
 11
864.5
 21
-12.7
  0
LINE
  8
0
 10
864.5
 20
-12.7
 11
865.828
 21
-12.6304
  0
LINE
  8
0
 10
865.828
 20
-12.6304
 11
867.141
 21
-12.4225
  0
LINE
  8
0
 10
867.141
 20
-12.4225
 11
868.424
 21
-12.0784
  0
LINE
  8
0
 10
868.424
 20
-12.0784
 11
869.666
 21
-11.602
  0
LINE
  8
0
 10
869.666
 20
-11.602
 11
870.85
 21
-10.9985
  0
LINE
  8
0
 10
870.85
 20
-10.9985
 11
871.965
 21
-10.2745
  0
LINE
  8
0
 10
871.965
 20
-10.2745
 11
872.998
 21
-9.43793
  0
LINE
  8
0
 10
872.998
 20
-9.43793
 11
873.938
 21
-8.49796
  0
LINE
  8
0
 10
873.938
 20
-8.49796
 11
874.775
 21
-7.46486
  0
LINE
  8
0
 10
874.775
 20
-7.46486
 11
875.499
 21
-6.34999
  0
LINE
  8
0
 10
875.499
 20
-6.34999
 11
876.102
 21
-5.16554
  0
LINE
  8
0
 10
876.102
 20
-5.16554
 11
876.578
 21
-3.92451
  0
LINE
  8
0
 10
876.578
 20
-3.92451
 11
876.826
 21
-3
  0
LINE
  8
0
 10
876.826
 20
-3
 11
877.2
 21
-3
  0
LINE
  8
0
 10
877.2
 20
-3
 11
877.2
 21
31.75
  0
LINE
  8
0
 10
877.2
 20
31.75
 11
878.4
 21
31.75
  0
LINE
  8
0
 10
878.4
 20
31.75
 11
878.402
 21
31.7186
  0
LINE
  8
0
 10
878.402
 20
31.7186
 11
878.407
 21
31.6876
  0
LINE
  8
0
 10
878.407
 20
31.6876
 11
878.415
 21
31.6573
  0
LINE
  8
0
 10
878.415
 20
31.6573
 11
878.426
 21
31.628
  0
LINE
  8
0
 10
878.426
 20
31.628
 11
878.44
 21
31.6
  0
LINE
  8
0
 10
878.44
 20
31.6
 11
878.457
 21
31.5737
  0
LINE
  8
0
 10
878.457
 20
31.5737
 11
878.477
 21
31.5493
  0
LINE
  8
0
 10
878.477
 20
31.5493
 11
878.499
 21
31.5271
  0
LINE
  8
0
 10
878.499
 20
31.5271
 11
878.524
 21
31.5073
  0
LINE
  8
0
 10
878.524
 20
31.5073
 11
878.55
 21
31.4902
  0
LINE
  8
0
 10
878.55
 20
31.4902
 11
878.578
 21
31.4759
  0
LINE
  8
0
 10
878.578
 20
31.4759
 11
878.607
 21
31.4647
  0
LINE
  8
0
 10
878.607
 20
31.4647
 11
878.638
 21
31.4565
  0
LINE
  8
0
 10
878.638
 20
31.4565
 11
878.669
 21
31.4516
  0
LINE
  8
0
 10
878.669
 20
31.4516
 11
878.7
 21
31.45
  0
LINE
  8
0
 10
878.7
 20
31.45
 11
878.731
 21
31.4516
  0
LINE
  8
0
 10
878.731
 20
31.4516
 11
878.762
 21
31.4565
  0
LINE
  8
0
 10
878.762
 20
31.4565
 11
878.793
 21
31.4647
  0
LINE
  8
0
 10
878.793
 20
31.4647
 11
878.822
 21
31.4759
  0
LINE
  8
0
 10
878.822
 20
31.4759
 11
878.85
 21
31.4902
  0
LINE
  8
0
 10
878.85
 20
31.4902
 11
878.876
 21
31.5073
  0
LINE
  8
0
 10
878.876
 20
31.5073
 11
878.901
 21
31.5271
  0
LINE
  8
0
 10
878.901
 20
31.5271
 11
878.923
 21
31.5493
  0
LINE
  8
0
 10
878.923
 20
31.5493
 11
878.943
 21
31.5737
  0
LINE
  8
0
 10
878.943
 20
31.5737
 11
878.96
 21
31.6
  0
LINE
  8
0
 10
878.96
 20
31.6
 11
878.974
 21
31.628
  0
LINE
  8
0
 10
878.974
 20
31.628
 11
878.985
 21
31.6573
  0
LINE
  8
0
 10
878.985
 20
31.6573
 11
878.993
 21
31.6876
  0
LINE
  8
0
 10
878.993
 20
31.6876
 11
878.998
 21
31.7186
  0
LINE
  8
0
 10
878.998
 20
31.7186
 11
879
 21
31.75
  0
LINE
  8
0
 10
879
 20
31.75
 11
880.2
 21
31.75
  0
LINE
  8
0
 10
880.2
 20
31.75
 11
880.2
 21
32.0493
  0
LINE
  8
0
 10
880.2
 20
32.0493
 11
880.501
 21
32.0969
  0
LINE
  8
0
 10
880.501
 20
32.0969
 11
882.106
 21
32.527
  0
LINE
  8
0
 10
882.106
 20
32.527
 11
883.657
 21
33.1225
  0
LINE
  8
0
 10
883.657
 20
33.1225
 11
885.138
 21
33.8768
  0
LINE
  8
0
 10
885.138
 20
33.8768
 11
886.531
 21
34.7818
  0
LINE
  8
0
 10
886.531
 20
34.7818
 11
887.822
 21
35.8276
  0
LINE
  8
0
 10
887.822
 20
35.8276
 11
888.997
 21
37.0025
  0
LINE
  8
0
 10
888.997
 20
37.0025
 11
890.043
 21
38.2939
  0
LINE
  8
0
 10
890.043
 20
38.2939
 11
890.948
 21
39.6875
  0
LINE
  8
0
 10
890.948
 20
39.6875
 11
891.703
 21
41.168
  0
LINE
  8
0
 10
891.703
 20
41.168
 11
892.298
 21
42.7193
  0
LINE
  8
0
 10
892.298
 20
42.7193
 11
892.728
 21
44.3244
  0
LINE
  8
0
 10
892.728
 20
44.3244
 11
892.988
 21
45.9656
  0
LINE
  8
0
 10
892.988
 20
45.9656
 11
893.075
 21
47.625
  0
LINE
  8
0
 10
893.075
 20
47.625
 11
892.988
 21
49.2844
  0
LINE
  8
0
 10
892.988
 20
49.2844
 11
892.728
 21
50.9256
  0
LINE
  8
0
 10
892.728
 20
50.9256
 11
892.298
 21
52.5306
  0
LINE
  8
0
 10
892.298
 20
52.5306
 11
891.703
 21
54.0819
  0
LINE
  8
0
 10
891.703
 20
54.0819
 11
890.948
 21
55.5625
  0
LINE
  8
0
 10
890.948
 20
55.5625
 11
890.043
 21
56.9561
  0
LINE
  8
0
 10
890.043
 20
56.9561
 11
888.997
 21
58.2474
  0
LINE
  8
0
 10
888.997
 20
58.2474
 11
887.822
 21
59.4224
  0
LINE
  8
0
 10
887.822
 20
59.4224
 11
886.531
 21
60.4681
  0
LINE
  8
0
 10
886.531
 20
60.4681
 11
885.138
 21
61.3732
  0
LINE
  8
0
 10
885.138
 20
61.3732
 11
883.657
 21
62.1275
  0
LINE
  8
0
 10
883.657
 20
62.1275
 11
882.106
 21
62.723
  0
LINE
  8
0
 10
882.106
 20
62.723
 11
880.501
 21
63.1531
  0
LINE
  8
0
 10
880.501
 20
63.1531
 11
880.2
 21
63.2007
  0
LINE
  8
0
 10
880.2
 20
63.2007
 11
880.2
 21
63.5
  0
LINE
  8
0
 10
880.2
 20
63.5
 11
877.2
 21
63.5
  0
LINE
  8
0
 10
877.2
 20
63.5
 11
877.2
 21
95.25
  0
LINE
  8
0
 10
877.2
 20
95.25
 11
878.4
 21
95.25
  0
LINE
  8
0
 10
878.4
 20
95.25
 11
878.402
 21
95.2186
  0
LINE
  8
0
 10
878.402
 20
95.2186
 11
878.407
 21
95.1876
  0
LINE
  8
0
 10
878.407
 20
95.1876
 11
878.415
 21
95.1573
  0
LINE
  8
0
 10
878.415
 20
95.1573
 11
878.426
 21
95.128
  0
LINE
  8
0
 10
878.426
 20
95.128
 11
878.44
 21
95.1
  0
LINE
  8
0
 10
878.44
 20
95.1
 11
878.457
 21
95.0737
  0
LINE
  8
0
 10
878.457
 20
95.0737
 11
878.477
 21
95.0493
  0
LINE
  8
0
 10
878.477
 20
95.0493
 11
878.499
 21
95.0271
  0
LINE
  8
0
 10
878.499
 20
95.0271
 11
878.524
 21
95.0073
  0
LINE
  8
0
 10
878.524
 20
95.0073
 11
878.55
 21
94.9902
  0
LINE
  8
0
 10
878.55
 20
94.9902
 11
878.578
 21
94.9759
  0
LINE
  8
0
 10
878.578
 20
94.9759
 11
878.607
 21
94.9647
  0
LINE
  8
0
 10
878.607
 20
94.9647
 11
878.638
 21
94.9566
  0
LINE
  8
0
 10
878.638
 20
94.9566
 11
878.669
 21
94.9516
  0
LINE
  8
0
 10
878.669
 20
94.9516
 11
878.7
 21
94.95
  0
LINE
  8
0
 10
878.7
 20
94.95
 11
878.731
 21
94.9516
  0
LINE
  8
0
 10
878.731
 20
94.9516
 11
878.762
 21
94.9566
  0
LINE
  8
0
 10
878.762
 20
94.9566
 11
878.793
 21
94.9647
  0
LINE
  8
0
 10
878.793
 20
94.9647
 11
878.822
 21
94.9759
  0
LINE
  8
0
 10
878.822
 20
94.9759
 11
878.85
 21
94.9902
  0
LINE
  8
0
 10
878.85
 20
94.9902
 11
878.876
 21
95.0073
  0
LINE
  8
0
 10
878.876
 20
95.0073
 11
878.901
 21
95.0271
  0
LINE
  8
0
 10
878.901
 20
95.0271
 11
878.923
 21
95.0493
  0
LINE
  8
0
 10
878.923
 20
95.0493
 11
878.943
 21
95.0737
  0
LINE
  8
0
 10
878.943
 20
95.0737
 11
878.96
 21
95.1
  0
LINE
  8
0
 10
878.96
 20
95.1
 11
878.974
 21
95.128
  0
LINE
  8
0
 10
878.974
 20
95.128
 11
878.985
 21
95.1573
  0
LINE
  8
0
 10
878.985
 20
95.1573
 11
878.993
 21
95.1876
  0
LINE
  8
0
 10
878.993
 20
95.1876
 11
878.998
 21
95.2186
  0
LINE
  8
0
 10
878.998
 20
95.2186
 11
879
 21
95.25
  0
LINE
  8
0
 10
879
 20
95.25
 11
880.2
 21
95.25
  0
LINE
  8
0
 10
880.2
 20
95.25
 11
880.2
 21
95.5493
  0
LINE
  8
0
 10
880.2
 20
95.5493
 11
880.501
 21
95.5969
  0
LINE
  8
0
 10
880.501
 20
95.5969
 11
882.106
 21
96.027
  0
LINE
  8
0
 10
882.106
 20
96.027
 11
883.657
 21
96.6225
  0
LINE
  8
0
 10
883.657
 20
96.6225
 11
885.138
 21
97.3768
  0
LINE
  8
0
 10
885.138
 20
97.3768
 11
886.531
 21
98.2818
  0
LINE
  8
0
 10
886.531
 20
98.2818
 11
887.822
 21
99.3276
  0
LINE
  8
0
 10
887.822
 20
99.3276
 11
888.997
 21
100.503
  0
LINE
  8
0
 10
888.997
 20
100.503
 11
890.043
 21
101.794
  0
LINE
  8
0
 10
890.043
 20
101.794
 11
890.948
 21
103.188
  0
LINE
  8
0
 10
890.948
 20
103.188
 11
891.703
 21
104.668
  0
LINE
  8
0
 10
891.703
 20
104.668
 11
892.298
 21
106.219
  0
LINE
  8
0
 10
892.298
 20
106.219
 11
892.728
 21
107.824
  0
LINE
  8
0
 10
892.728
 20
107.824
 11
892.988
 21
109.466
  0
LINE
  8
0
 10
892.988
 20
109.466
 11
893.075
 21
111.125
  0
LINE
  8
0
 10
893.075
 20
111.125
 11
892.988
 21
112.784
  0
LINE
  8
0
 10
892.988
 20
112.784
 11
892.728
 21
114.426
  0
LINE
  8
0
 10
892.728
 20
114.426
 11
892.298
 21
116.031
  0
LINE
  8
0
 10
892.298
 20
116.031
 11
891.703
 21
117.582
  0
LINE
  8
0
 10
891.703
 20
117.582
 11
890.948
 21
119.062
  0
LINE
  8
0
 10
890.948
 20
119.062
 11
890.043
 21
120.456
  0
LINE
  8
0
 10
890.043
 20
120.456
 11
888.997
 21
121.747
  0
LINE
  8
0
 10
888.997
 20
121.747
 11
887.822
 21
122.922
  0
LINE
  8
0
 10
887.822
 20
122.922
 11
886.531
 21
123.968
  0
LINE
  8
0
 10
886.531
 20
123.968
 11
885.138
 21
124.873
  0
LINE
  8
0
 10
885.138
 20
124.873
 11
883.657
 21
125.628
  0
LINE
  8
0
 10
883.657
 20
125.628
 11
882.106
 21
126.223
  0
LINE
  8
0
 10
882.106
 20
126.223
 11
880.501
 21
126.653
  0
LINE
  8
0
 10
880.501
 20
126.653
 11
880.2
 21
126.701
  0
LINE
  8
0
 10
880.2
 20
126.701
 11
880.2
 21
127
  0
LINE
  8
0
 10
880.2
 20
127
 11
877.2
 21
127
  0
LINE
  8
0
 10
877.2
 20
127
 11
877.2
 21
158.75
  0
LINE
  8
0
 10
877.2
 20
158.75
 11
878.4
 21
158.75
  0
LINE
  8
0
 10
878.4
 20
158.75
 11
878.402
 21
158.719
  0
LINE
  8
0
 10
878.402
 20
158.719
 11
878.407
 21
158.688
  0
LINE
  8
0
 10
878.407
 20
158.688
 11
878.415
 21
158.657
  0
LINE
  8
0
 10
878.415
 20
158.657
 11
878.426
 21
158.628
  0
LINE
  8
0
 10
878.426
 20
158.628
 11
878.44
 21
158.6
  0
LINE
  8
0
 10
878.44
 20
158.6
 11
878.457
 21
158.574
  0
LINE
  8
0
 10
878.457
 20
158.574
 11
878.477
 21
158.549
  0
LINE
  8
0
 10
878.477
 20
158.549
 11
878.499
 21
158.527
  0
LINE
  8
0
 10
878.499
 20
158.527
 11
878.524
 21
158.507
  0
LINE
  8
0
 10
878.524
 20
158.507
 11
878.55
 21
158.49
  0
LINE
  8
0
 10
878.55
 20
158.49
 11
878.578
 21
158.476
  0
LINE
  8
0
 10
878.578
 20
158.476
 11
878.607
 21
158.465
  0
LINE
  8
0
 10
878.607
 20
158.465
 11
878.638
 21
158.457
  0
LINE
  8
0
 10
878.638
 20
158.457
 11
878.669
 21
158.452
  0
LINE
  8
0
 10
878.669
 20
158.452
 11
878.7
 21
158.45
  0
LINE
  8
0
 10
878.7
 20
158.45
 11
878.731
 21
158.452
  0
LINE
  8
0
 10
878.731
 20
158.452
 11
878.762
 21
158.457
  0
LINE
  8
0
 10
878.762
 20
158.457
 11
878.793
 21
158.465
  0
LINE
  8
0
 10
878.793
 20
158.465
 11
878.822
 21
158.476
  0
LINE
  8
0
 10
878.822
 20
158.476
 11
878.85
 21
158.49
  0
LINE
  8
0
 10
878.85
 20
158.49
 11
878.876
 21
158.507
  0
LINE
  8
0
 10
878.876
 20
158.507
 11
878.901
 21
158.527
  0
LINE
  8
0
 10
878.901
 20
158.527
 11
878.923
 21
158.549
  0
LINE
  8
0
 10
878.923
 20
158.549
 11
878.943
 21
158.574
  0
LINE
  8
0
 10
878.943
 20
158.574
 11
878.96
 21
158.6
  0
LINE
  8
0
 10
878.96
 20
158.6
 11
878.974
 21
158.628
  0
LINE
  8
0
 10
878.974
 20
158.628
 11
878.985
 21
158.657
  0
LINE
  8
0
 10
878.985
 20
158.657
 11
878.993
 21
158.688
  0
LINE
  8
0
 10
878.993
 20
158.688
 11
878.998
 21
158.719
  0
LINE
  8
0
 10
878.998
 20
158.719
 11
879
 21
158.75
  0
LINE
  8
0
 10
879
 20
158.75
 11
880.2
 21
158.75
  0
LINE
  8
0
 10
880.2
 20
158.75
 11
880.2
 21
159.049
  0
LINE
  8
0
 10
880.2
 20
159.049
 11
880.501
 21
159.097
  0
LINE
  8
0
 10
880.501
 20
159.097
 11
882.106
 21
159.527
  0
LINE
  8
0
 10
882.106
 20
159.527
 11
883.657
 21
160.122
  0
LINE
  8
0
 10
883.657
 20
160.122
 11
885.138
 21
160.877
  0
LINE
  8
0
 10
885.138
 20
160.877
 11
886.531
 21
161.782
  0
LINE
  8
0
 10
886.531
 20
161.782
 11
887.822
 21
162.828
  0
LINE
  8
0
 10
887.822
 20
162.828
 11
888.997
 21
164.003
  0
LINE
  8
0
 10
888.997
 20
164.003
 11
890.043
 21
165.294
  0
LINE
  8
0
 10
890.043
 20
165.294
 11
890.948
 21
166.688
  0
LINE
  8
0
 10
890.948
 20
166.688
 11
891.703
 21
168.168
  0
LINE
  8
0
 10
891.703
 20
168.168
 11
892.298
 21
169.719
  0
LINE
  8
0
 10
892.298
 20
169.719
 11
892.728
 21
171.324
  0
LINE
  8
0
 10
892.728
 20
171.324
 11
892.988
 21
172.966
  0
LINE
  8
0
 10
892.988
 20
172.966
 11
893.075
 21
174.625
  0
LINE
  8
0
 10
893.075
 20
174.625
 11
892.988
 21
176.284
  0
LINE
  8
0
 10
892.988
 20
176.284
 11
892.728
 21
177.926
  0
LINE
  8
0
 10
892.728
 20
177.926
 11
892.298
 21
179.531
  0
LINE
  8
0
 10
892.298
 20
179.531
 11
891.703
 21
181.082
  0
LINE
  8
0
 10
891.703
 20
181.082
 11
890.948
 21
182.562
  0
LINE
  8
0
 10
890.948
 20
182.562
 11
890.043
 21
183.956
  0
LINE
  8
0
 10
890.043
 20
183.956
 11
888.997
 21
185.247
  0
LINE
  8
0
 10
888.997
 20
185.247
 11
887.822
 21
186.422
  0
LINE
  8
0
 10
887.822
 20
186.422
 11
886.531
 21
187.468
  0
LINE
  8
0
 10
886.531
 20
187.468
 11
885.138
 21
188.373
  0
LINE
  8
0
 10
885.138
 20
188.373
 11
883.657
 21
189.128
  0
LINE
  8
0
 10
883.657
 20
189.128
 11
882.106
 21
189.723
  0
LINE
  8
0
 10
882.106
 20
189.723
 11
880.501
 21
190.153
  0
LINE
  8
0
 10
880.501
 20
190.153
 11
880.2
 21
190.201
  0
LINE
  8
0
 10
880.2
 20
190.201
 11
880.2
 21
190.5
  0
LINE
  8
0
 10
880.2
 20
190.5
 11
877.2
 21
190.5
  0
LINE
  8
0
 10
877.2
 20
190.5
 11
877.2
 21
222.25
  0
LINE
  8
0
 10
877.2
 20
222.25
 11
878.4
 21
222.25
  0
LINE
  8
0
 10
878.4
 20
222.25
 11
878.402
 21
222.219
  0
LINE
  8
0
 10
878.402
 20
222.219
 11
878.407
 21
222.188
  0
LINE
  8
0
 10
878.407
 20
222.188
 11
878.415
 21
222.157
  0
LINE
  8
0
 10
878.415
 20
222.157
 11
878.426
 21
222.128
  0
LINE
  8
0
 10
878.426
 20
222.128
 11
878.44
 21
222.1
  0
LINE
  8
0
 10
878.44
 20
222.1
 11
878.457
 21
222.074
  0
LINE
  8
0
 10
878.457
 20
222.074
 11
878.477
 21
222.049
  0
LINE
  8
0
 10
878.477
 20
222.049
 11
878.499
 21
222.027
  0
LINE
  8
0
 10
878.499
 20
222.027
 11
878.524
 21
222.007
  0
LINE
  8
0
 10
878.524
 20
222.007
 11
878.55
 21
221.99
  0
LINE
  8
0
 10
878.55
 20
221.99
 11
878.578
 21
221.976
  0
LINE
  8
0
 10
878.578
 20
221.976
 11
878.607
 21
221.965
  0
LINE
  8
0
 10
878.607
 20
221.965
 11
878.638
 21
221.957
  0
LINE
  8
0
 10
878.638
 20
221.957
 11
878.669
 21
221.952
  0
LINE
  8
0
 10
878.669
 20
221.952
 11
878.7
 21
221.95
  0
LINE
  8
0
 10
878.7
 20
221.95
 11
878.731
 21
221.952
  0
LINE
  8
0
 10
878.731
 20
221.952
 11
878.762
 21
221.957
  0
LINE
  8
0
 10
878.762
 20
221.957
 11
878.793
 21
221.965
  0
LINE
  8
0
 10
878.793
 20
221.965
 11
878.822
 21
221.976
  0
LINE
  8
0
 10
878.822
 20
221.976
 11
878.85
 21
221.99
  0
LINE
  8
0
 10
878.85
 20
221.99
 11
878.876
 21
222.007
  0
LINE
  8
0
 10
878.876
 20
222.007
 11
878.901
 21
222.027
  0
LINE
  8
0
 10
878.901
 20
222.027
 11
878.923
 21
222.049
  0
LINE
  8
0
 10
878.923
 20
222.049
 11
878.943
 21
222.074
  0
LINE
  8
0
 10
878.943
 20
222.074
 11
878.96
 21
222.1
  0
LINE
  8
0
 10
878.96
 20
222.1
 11
878.974
 21
222.128
  0
LINE
  8
0
 10
878.974
 20
222.128
 11
878.985
 21
222.157
  0
LINE
  8
0
 10
878.985
 20
222.157
 11
878.993
 21
222.188
  0
LINE
  8
0
 10
878.993
 20
222.188
 11
878.998
 21
222.219
  0
LINE
  8
0
 10
878.998
 20
222.219
 11
879
 21
222.25
  0
LINE
  8
0
 10
879
 20
222.25
 11
880.2
 21
222.25
  0
LINE
  8
0
 10
880.2
 20
222.25
 11
880.2
 21
222.549
  0
LINE
  8
0
 10
880.2
 20
222.549
 11
880.501
 21
222.597
  0
LINE
  8
0
 10
880.501
 20
222.597
 11
882.106
 21
223.027
  0
LINE
  8
0
 10
882.106
 20
223.027
 11
883.657
 21
223.622
  0
LINE
  8
0
 10
883.657
 20
223.622
 11
885.138
 21
224.377
  0
LINE
  8
0
 10
885.138
 20
224.377
 11
886.531
 21
225.282
  0
LINE
  8
0
 10
886.531
 20
225.282
 11
887.822
 21
226.328
  0
LINE
  8
0
 10
887.822
 20
226.328
 11
888.997
 21
227.503
  0
LINE
  8
0
 10
888.997
 20
227.503
 11
890.043
 21
228.794
  0
LINE
  8
0
 10
890.043
 20
228.794
 11
890.948
 21
230.188
  0
LINE
  8
0
 10
890.948
 20
230.188
 11
891.703
 21
231.668
  0
LINE
  8
0
 10
891.703
 20
231.668
 11
892.298
 21
233.219
  0
LINE
  8
0
 10
892.298
 20
233.219
 11
892.728
 21
234.824
  0
LINE
  8
0
 10
892.728
 20
234.824
 11
892.988
 21
236.466
  0
LINE
  8
0
 10
892.988
 20
236.466
 11
893.075
 21
238.125
  0
LINE
  8
0
 10
893.075
 20
238.125
 11
892.988
 21
239.784
  0
LINE
  8
0
 10
892.988
 20
239.784
 11
892.728
 21
241.426
  0
LINE
  8
0
 10
892.728
 20
241.426
 11
892.298
 21
243.031
  0
LINE
  8
0
 10
892.298
 20
243.031
 11
891.703
 21
244.582
  0
LINE
  8
0
 10
891.703
 20
244.582
 11
890.948
 21
246.062
  0
LINE
  8
0
 10
890.948
 20
246.062
 11
890.043
 21
247.456
  0
LINE
  8
0
 10
890.043
 20
247.456
 11
888.997
 21
248.747
  0
LINE
  8
0
 10
888.997
 20
248.747
 11
887.822
 21
249.922
  0
LINE
  8
0
 10
887.822
 20
249.922
 11
886.531
 21
250.968
  0
LINE
  8
0
 10
886.531
 20
250.968
 11
885.138
 21
251.873
  0
LINE
  8
0
 10
885.138
 20
251.873
 11
883.657
 21
252.628
  0
LINE
  8
0
 10
883.657
 20
252.628
 11
882.106
 21
253.223
  0
LINE
  8
0
 10
882.106
 20
253.223
 11
880.501
 21
253.653
  0
LINE
  8
0
 10
880.501
 20
253.653
 11
880.2
 21
253.701
  0
LINE
  8
0
 10
880.2
 20
253.701
 11
880.2
 21
254
  0
LINE
  8
0
 10
880.2
 20
254
 11
851.8
 21
254
  0
LINE
  8
0
 10
851.8
 20
254
 11
851.8
 21
255.2
  0
LINE
  8
0
 10
851.8
 20
255.2
 11
851.831
 21
255.202
  0
LINE
  8
0
 10
851.831
 20
255.202
 11
851.862
 21
255.207
  0
LINE
  8
0
 10
851.862
 20
255.207
 11
851.893
 21
255.215
  0
LINE
  8
0
 10
851.893
 20
255.215
 11
851.922
 21
255.226
  0
LINE
  8
0
 10
851.922
 20
255.226
 11
851.95
 21
255.24
  0
LINE
  8
0
 10
851.95
 20
255.24
 11
851.976
 21
255.257
  0
LINE
  8
0
 10
851.976
 20
255.257
 11
852.001
 21
255.277
  0
LINE
  8
0
 10
852.001
 20
255.277
 11
852.023
 21
255.299
  0
LINE
  8
0
 10
852.023
 20
255.299
 11
852.043
 21
255.324
  0
LINE
  8
0
 10
852.043
 20
255.324
 11
852.06
 21
255.35
  0
LINE
  8
0
 10
852.06
 20
255.35
 11
852.074
 21
255.378
  0
LINE
  8
0
 10
852.074
 20
255.378
 11
852.085
 21
255.407
  0
LINE
  8
0
 10
852.085
 20
255.407
 11
852.093
 21
255.438
  0
LINE
  8
0
 10
852.093
 20
255.438
 11
852.098
 21
255.469
  0
LINE
  8
0
 10
852.098
 20
255.469
 11
852.1
 21
255.5
  0
LINE
  8
0
 10
852.1
 20
255.5
 11
852.098
 21
255.531
  0
LINE
  8
0
 10
852.098
 20
255.531
 11
852.093
 21
255.562
  0
LINE
  8
0
 10
852.093
 20
255.562
 11
852.085
 21
255.593
  0
LINE
  8
0
 10
852.085
 20
255.593
 11
852.074
 21
255.622
  0
LINE
  8
0
 10
852.074
 20
255.622
 11
852.06
 21
255.65
  0
LINE
  8
0
 10
852.06
 20
255.65
 11
852.043
 21
255.676
  0
LINE
  8
0
 10
852.043
 20
255.676
 11
852.023
 21
255.701
  0
LINE
  8
0
 10
852.023
 20
255.701
 11
852.001
 21
255.723
  0
LINE
  8
0
 10
852.001
 20
255.723
 11
851.976
 21
255.743
  0
LINE
  8
0
 10
851.976
 20
255.743
 11
851.95
 21
255.76
  0
LINE
  8
0
 10
851.95
 20
255.76
 11
851.922
 21
255.774
  0
LINE
  8
0
 10
851.922
 20
255.774
 11
851.893
 21
255.785
  0
LINE
  8
0
 10
851.893
 20
255.785
 11
851.862
 21
255.793
  0
LINE
  8
0
 10
851.862
 20
255.793
 11
851.831
 21
255.798
  0
LINE
  8
0
 10
851.831
 20
255.798
 11
851.8
 21
255.8
  0
LINE
  8
0
 10
851.8
 20
255.8
 11
851.8
 21
257
  0
LINE
  8
0
 10
851.8
 20
257
 11
851.426
 21
257
  0
LINE
  8
0
 10
851.426
 20
257
 11
851.178
 21
257.925
  0
LINE
  8
0
 10
851.178
 20
257.925
 11
850.702
 21
259.166
  0
LINE
  8
0
 10
850.702
 20
259.166
 11
850.099
 21
260.35
  0
LINE
  8
0
 10
850.099
 20
260.35
 11
849.375
 21
261.465
  0
LINE
  8
0
 10
849.375
 20
261.465
 11
848.538
 21
262.498
  0
LINE
  8
0
 10
848.538
 20
262.498
 11
847.598
 21
263.438
  0
LINE
  8
0
 10
847.598
 20
263.438
 11
846.565
 21
264.275
  0
LINE
  8
0
 10
846.565
 20
264.275
 11
845.45
 21
264.999
  0
LINE
  8
0
 10
845.45
 20
264.999
 11
844.266
 21
265.602
  0
LINE
  8
0
 10
844.266
 20
265.602
 11
843.025
 21
266.078
  0
LINE
  8
0
 10
843.025
 20
266.078
 11
841.74
 21
266.422
  0
LINE
  8
0
 10
841.74
 20
266.422
 11
840.427
 21
266.63
  0
LINE
  8
0
 10
840.427
 20
266.63
 11
839.1
 21
266.7
  0
LINE
  8
0
 10
839.1
 20
266.7
 11
837.772
 21
266.63
  0
LINE
  8
0
 10
837.772
 20
266.63
 11
836.46
 21
266.422
  0
LINE
  8
0
 10
836.46
 20
266.422
 11
835.175
 21
266.078
  0
LINE
  8
0
 10
835.175
 20
266.078
 11
833.934
 21
265.602
  0
LINE
  8
0
 10
833.934
 20
265.602
 11
832.75
 21
264.999
  0
LINE
  8
0
 10
832.75
 20
264.999
 11
831.635
 21
264.275
  0
LINE
  8
0
 10
831.635
 20
264.275
 11
830.602
 21
263.438
  0
LINE
  8
0
 10
830.602
 20
263.438
 11
829.662
 21
262.498
  0
LINE
  8
0
 10
829.662
 20
262.498
 11
828.826
 21
261.465
  0
LINE
  8
0
 10
828.826
 20
261.465
 11
828.102
 21
260.35
  0
LINE
  8
0
 10
828.102
 20
260.35
 11
827.498
 21
259.166
  0
LINE
  8
0
 10
827.498
 20
259.166
 11
827.022
 21
257.925
  0
LINE
  8
0
 10
827.022
 20
257.925
 11
826.774
 21
257
  0
LINE
  8
0
 10
826.774
 20
257
 11
826.4
 21
257
  0
LINE
  8
0
 10
826.4
 20
257
 11
826.4
 21
254
  0
LINE
  8
0
 10
826.4
 20
254
 11
801
 21
254
  0
LINE
  8
0
 10
801
 20
254
 11
801
 21
255.2
  0
LINE
  8
0
 10
801
 20
255.2
 11
801.031
 21
255.202
  0
LINE
  8
0
 10
801.031
 20
255.202
 11
801.062
 21
255.207
  0
LINE
  8
0
 10
801.062
 20
255.207
 11
801.093
 21
255.215
  0
LINE
  8
0
 10
801.093
 20
255.215
 11
801.122
 21
255.226
  0
LINE
  8
0
 10
801.122
 20
255.226
 11
801.15
 21
255.24
  0
LINE
  8
0
 10
801.15
 20
255.24
 11
801.176
 21
255.257
  0
LINE
  8
0
 10
801.176
 20
255.257
 11
801.201
 21
255.277
  0
LINE
  8
0
 10
801.201
 20
255.277
 11
801.223
 21
255.299
  0
LINE
  8
0
 10
801.223
 20
255.299
 11
801.243
 21
255.324
  0
LINE
  8
0
 10
801.243
 20
255.324
 11
801.26
 21
255.35
  0
LINE
  8
0
 10
801.26
 20
255.35
 11
801.274
 21
255.378
  0
LINE
  8
0
 10
801.274
 20
255.378
 11
801.285
 21
255.407
  0
LINE
  8
0
 10
801.285
 20
255.407
 11
801.293
 21
255.438
  0
LINE
  8
0
 10
801.293
 20
255.438
 11
801.298
 21
255.469
  0
LINE
  8
0
 10
801.298
 20
255.469
 11
801.3
 21
255.5
  0
LINE
  8
0
 10
801.3
 20
255.5
 11
801.298
 21
255.531
  0
LINE
  8
0
 10
801.298
 20
255.531
 11
801.293
 21
255.562
  0
LINE
  8
0
 10
801.293
 20
255.562
 11
801.285
 21
255.593
  0
LINE
  8
0
 10
801.285
 20
255.593
 11
801.274
 21
255.622
  0
LINE
  8
0
 10
801.274
 20
255.622
 11
801.26
 21
255.65
  0
LINE
  8
0
 10
801.26
 20
255.65
 11
801.243
 21
255.676
  0
LINE
  8
0
 10
801.243
 20
255.676
 11
801.223
 21
255.701
  0
LINE
  8
0
 10
801.223
 20
255.701
 11
801.201
 21
255.723
  0
LINE
  8
0
 10
801.201
 20
255.723
 11
801.176
 21
255.743
  0
LINE
  8
0
 10
801.176
 20
255.743
 11
801.15
 21
255.76
  0
LINE
  8
0
 10
801.15
 20
255.76
 11
801.122
 21
255.774
  0
LINE
  8
0
 10
801.122
 20
255.774
 11
801.093
 21
255.785
  0
LINE
  8
0
 10
801.093
 20
255.785
 11
801.062
 21
255.793
  0
LINE
  8
0
 10
801.062
 20
255.793
 11
801.031
 21
255.798
  0
LINE
  8
0
 10
801.031
 20
255.798
 11
801
 21
255.8
  0
LINE
  8
0
 10
801
 20
255.8
 11
801
 21
257
  0
LINE
  8
0
 10
801
 20
257
 11
800.626
 21
257
  0
LINE
  8
0
 10
800.626
 20
257
 11
800.378
 21
257.925
  0
LINE
  8
0
 10
800.378
 20
257.925
 11
799.902
 21
259.166
  0
LINE
  8
0
 10
799.902
 20
259.166
 11
799.299
 21
260.35
  0
LINE
  8
0
 10
799.299
 20
260.35
 11
798.575
 21
261.465
  0
LINE
  8
0
 10
798.575
 20
261.465
 11
797.738
 21
262.498
  0
LINE
  8
0
 10
797.738
 20
262.498
 11
796.798
 21
263.438
  0
LINE
  8
0
 10
796.798
 20
263.438
 11
795.765
 21
264.275
  0
LINE
  8
0
 10
795.765
 20
264.275
 11
794.65
 21
264.999
  0
LINE
  8
0
 10
794.65
 20
264.999
 11
793.466
 21
265.602
  0
LINE
  8
0
 10
793.466
 20
265.602
 11
792.224
 21
266.078
  0
LINE
  8
0
 10
792.224
 20
266.078
 11
790.94
 21
266.422
  0
LINE
  8
0
 10
790.94
 20
266.422
 11
789.628
 21
266.63
  0
LINE
  8
0
 10
789.628
 20
266.63
 11
788.3
 21
266.7
  0
LINE
  8
0
 10
788.3
 20
266.7
 11
786.972
 21
266.63
  0
LINE
  8
0
 10
786.972
 20
266.63
 11
785.66
 21
266.422
  0
LINE
  8
0
 10
785.66
 20
266.422
 11
784.375
 21
266.078
  0
LINE
  8
0
 10
784.375
 20
266.078
 11
783.134
 21
265.602
  0
LINE
  8
0
 10
783.134
 20
265.602
 11
781.95
 21
264.999
  0
LINE
  8
0
 10
781.95
 20
264.999
 11
780.835
 21
264.275
  0
LINE
  8
0
 10
780.835
 20
264.275
 11
779.802
 21
263.438
  0
LINE
  8
0
 10
779.802
 20
263.438
 11
778.862
 21
262.498
  0
LINE
  8
0
 10
778.862
 20
262.498
 11
778.026
 21
261.465
  0
LINE
  8
0
 10
778.026
 20
261.465
 11
777.301
 21
260.35
  0
LINE
  8
0
 10
777.301
 20
260.35
 11
776.698
 21
259.166
  0
LINE
  8
0
 10
776.698
 20
259.166
 11
776.222
 21
257.925
  0
LINE
  8
0
 10
776.222
 20
257.925
 11
775.974
 21
257
  0
LINE
  8
0
 10
775.974
 20
257
 11
775.6
 21
257
  0
LINE
  8
0
 10
775.6
 20
257
 11
775.6
 21
254
  0
LINE
  8
0
 10
822.917
 20
172.76
 11
822.736
 21
172.788
  0
LINE
  8
0
 10
822.736
 20
172.788
 11
822.559
 21
172.836
  0
LINE
  8
0
 10
822.559
 20
172.836
 11
822.388
 21
172.901
  0
LINE
  8
0
 10
822.388
 20
172.901
 11
822.225
 21
172.984
  0
LINE
  8
0
 10
822.225
 20
172.984
 11
822.071
 21
173.084
  0
LINE
  8
0
 10
822.071
 20
173.084
 11
821.929
 21
173.199
  0
LINE
  8
0
 10
821.929
 20
173.199
 11
821.799
 21
173.329
  0
LINE
  8
0
 10
821.799
 20
173.329
 11
821.684
 21
173.471
  0
LINE
  8
0
 10
821.684
 20
173.471
 11
821.584
 21
173.625
  0
LINE
  8
0
 10
821.584
 20
173.625
 11
821.501
 21
173.788
  0
LINE
  8
0
 10
821.501
 20
173.788
 11
821.436
 21
173.959
  0
LINE
  8
0
 10
821.436
 20
173.959
 11
821.388
 21
174.136
  0
LINE
  8
0
 10
821.388
 20
174.136
 11
821.36
 21
174.317
  0
LINE
  8
0
 10
821.36
 20
174.317
 11
821.35
 21
174.5
  0
LINE
  8
0
 10
821.35
 20
174.5
 11
821.36
 21
174.683
  0
LINE
  8
0
 10
821.36
 20
174.683
 11
821.388
 21
174.864
  0
LINE
  8
0
 10
821.388
 20
174.864
 11
821.436
 21
175.041
  0
LINE
  8
0
 10
821.436
 20
175.041
 11
821.501
 21
175.212
  0
LINE
  8
0
 10
821.501
 20
175.212
 11
821.584
 21
175.375
  0
LINE
  8
0
 10
821.584
 20
175.375
 11
821.684
 21
175.529
  0
LINE
  8
0
 10
821.684
 20
175.529
 11
821.799
 21
175.671
  0
LINE
  8
0
 10
821.799
 20
175.671
 11
821.929
 21
175.801
  0
LINE
  8
0
 10
821.929
 20
175.801
 11
822.071
 21
175.916
  0
LINE
  8
0
 10
822.071
 20
175.916
 11
822.225
 21
176.016
  0
LINE
  8
0
 10
822.225
 20
176.016
 11
822.388
 21
176.099
  0
LINE
  8
0
 10
822.388
 20
176.099
 11
822.559
 21
176.164
  0
LINE
  8
0
 10
822.559
 20
176.164
 11
822.736
 21
176.212
  0
LINE
  8
0
 10
822.736
 20
176.212
 11
822.917
 21
176.24
  0
LINE
  8
0
 10
822.917
 20
176.24
 11
823.1
 21
176.25
  0
LINE
  8
0
 10
823.1
 20
176.25
 11
823.283
 21
176.24
  0
LINE
  8
0
 10
823.283
 20
176.24
 11
823.464
 21
176.212
  0
LINE
  8
0
 10
823.464
 20
176.212
 11
823.641
 21
176.164
  0
LINE
  8
0
 10
823.641
 20
176.164
 11
823.812
 21
176.099
  0
LINE
  8
0
 10
823.812
 20
176.099
 11
823.975
 21
176.016
  0
LINE
  8
0
 10
823.975
 20
176.016
 11
824.129
 21
175.916
  0
LINE
  8
0
 10
824.129
 20
175.916
 11
824.271
 21
175.801
  0
LINE
  8
0
 10
824.271
 20
175.801
 11
824.401
 21
175.671
  0
LINE
  8
0
 10
824.401
 20
175.671
 11
824.516
 21
175.529
  0
LINE
  8
0
 10
824.516
 20
175.529
 11
824.616
 21
175.375
  0
LINE
  8
0
 10
824.616
 20
175.375
 11
824.699
 21
175.212
  0
LINE
  8
0
 10
824.699
 20
175.212
 11
824.764
 21
175.041
  0
LINE
  8
0
 10
824.764
 20
175.041
 11
824.812
 21
174.864
  0
LINE
  8
0
 10
824.812
 20
174.864
 11
824.84
 21
174.683
  0
LINE
  8
0
 10
824.84
 20
174.683
 11
824.85
 21
174.5
  0
LINE
  8
0
 10
824.85
 20
174.5
 11
824.84
 21
174.317
  0
LINE
  8
0
 10
824.84
 20
174.317
 11
824.812
 21
174.136
  0
LINE
  8
0
 10
824.812
 20
174.136
 11
824.764
 21
173.959
  0
LINE
  8
0
 10
824.764
 20
173.959
 11
824.699
 21
173.788
  0
LINE
  8
0
 10
824.699
 20
173.788
 11
824.616
 21
173.625
  0
LINE
  8
0
 10
824.616
 20
173.625
 11
824.516
 21
173.471
  0
LINE
  8
0
 10
824.516
 20
173.471
 11
824.401
 21
173.329
  0
LINE
  8
0
 10
824.401
 20
173.329
 11
824.271
 21
173.199
  0
LINE
  8
0
 10
824.271
 20
173.199
 11
824.129
 21
173.084
  0
LINE
  8
0
 10
824.129
 20
173.084
 11
823.975
 21
172.984
  0
LINE
  8
0
 10
823.975
 20
172.984
 11
823.812
 21
172.901
  0
LINE
  8
0
 10
823.812
 20
172.901
 11
823.641
 21
172.836
  0
LINE
  8
0
 10
823.641
 20
172.836
 11
823.464
 21
172.788
  0
LINE
  8
0
 10
823.464
 20
172.788
 11
823.283
 21
172.76
  0
LINE
  8
0
 10
823.283
 20
172.76
 11
823.1
 21
172.75
  0
LINE
  8
0
 10
823.1
 20
172.75
 11
822.917
 21
172.76
  0
LINE
  8
0
 10
727.917
 20
172.76
 11
727.736
 21
172.788
  0
LINE
  8
0
 10
727.736
 20
172.788
 11
727.559
 21
172.836
  0
LINE
  8
0
 10
727.559
 20
172.836
 11
727.388
 21
172.901
  0
LINE
  8
0
 10
727.388
 20
172.901
 11
727.225
 21
172.984
  0
LINE
  8
0
 10
727.225
 20
172.984
 11
727.071
 21
173.084
  0
LINE
  8
0
 10
727.071
 20
173.084
 11
726.929
 21
173.199
  0
LINE
  8
0
 10
726.929
 20
173.199
 11
726.799
 21
173.329
  0
LINE
  8
0
 10
726.799
 20
173.329
 11
726.684
 21
173.471
  0
LINE
  8
0
 10
726.684
 20
173.471
 11
726.584
 21
173.625
  0
LINE
  8
0
 10
726.584
 20
173.625
 11
726.501
 21
173.788
  0
LINE
  8
0
 10
726.501
 20
173.788
 11
726.436
 21
173.959
  0
LINE
  8
0
 10
726.436
 20
173.959
 11
726.388
 21
174.136
  0
LINE
  8
0
 10
726.388
 20
174.136
 11
726.36
 21
174.317
  0
LINE
  8
0
 10
726.36
 20
174.317
 11
726.35
 21
174.5
  0
LINE
  8
0
 10
726.35
 20
174.5
 11
726.36
 21
174.683
  0
LINE
  8
0
 10
726.36
 20
174.683
 11
726.388
 21
174.864
  0
LINE
  8
0
 10
726.388
 20
174.864
 11
726.436
 21
175.041
  0
LINE
  8
0
 10
726.436
 20
175.041
 11
726.501
 21
175.212
  0
LINE
  8
0
 10
726.501
 20
175.212
 11
726.584
 21
175.375
  0
LINE
  8
0
 10
726.584
 20
175.375
 11
726.684
 21
175.529
  0
LINE
  8
0
 10
726.684
 20
175.529
 11
726.799
 21
175.671
  0
LINE
  8
0
 10
726.799
 20
175.671
 11
726.929
 21
175.801
  0
LINE
  8
0
 10
726.929
 20
175.801
 11
727.071
 21
175.916
  0
LINE
  8
0
 10
727.071
 20
175.916
 11
727.225
 21
176.016
  0
LINE
  8
0
 10
727.225
 20
176.016
 11
727.388
 21
176.099
  0
LINE
  8
0
 10
727.388
 20
176.099
 11
727.559
 21
176.164
  0
LINE
  8
0
 10
727.559
 20
176.164
 11
727.736
 21
176.212
  0
LINE
  8
0
 10
727.736
 20
176.212
 11
727.917
 21
176.24
  0
LINE
  8
0
 10
727.917
 20
176.24
 11
728.1
 21
176.25
  0
LINE
  8
0
 10
728.1
 20
176.25
 11
728.283
 21
176.24
  0
LINE
  8
0
 10
728.283
 20
176.24
 11
728.464
 21
176.212
  0
LINE
  8
0
 10
728.464
 20
176.212
 11
728.641
 21
176.164
  0
LINE
  8
0
 10
728.641
 20
176.164
 11
728.812
 21
176.099
  0
LINE
  8
0
 10
728.812
 20
176.099
 11
728.975
 21
176.016
  0
LINE
  8
0
 10
728.975
 20
176.016
 11
729.129
 21
175.916
  0
LINE
  8
0
 10
729.129
 20
175.916
 11
729.271
 21
175.801
  0
LINE
  8
0
 10
729.271
 20
175.801
 11
729.401
 21
175.671
  0
LINE
  8
0
 10
729.401
 20
175.671
 11
729.516
 21
175.529
  0
LINE
  8
0
 10
729.516
 20
175.529
 11
729.616
 21
175.375
  0
LINE
  8
0
 10
729.616
 20
175.375
 11
729.699
 21
175.212
  0
LINE
  8
0
 10
729.699
 20
175.212
 11
729.764
 21
175.041
  0
LINE
  8
0
 10
729.764
 20
175.041
 11
729.812
 21
174.864
  0
LINE
  8
0
 10
729.812
 20
174.864
 11
729.84
 21
174.683
  0
LINE
  8
0
 10
729.84
 20
174.683
 11
729.85
 21
174.5
  0
LINE
  8
0
 10
729.85
 20
174.5
 11
729.84
 21
174.317
  0
LINE
  8
0
 10
729.84
 20
174.317
 11
729.812
 21
174.136
  0
LINE
  8
0
 10
729.812
 20
174.136
 11
729.764
 21
173.959
  0
LINE
  8
0
 10
729.764
 20
173.959
 11
729.699
 21
173.788
  0
LINE
  8
0
 10
729.699
 20
173.788
 11
729.616
 21
173.625
  0
LINE
  8
0
 10
729.616
 20
173.625
 11
729.516
 21
173.471
  0
LINE
  8
0
 10
729.516
 20
173.471
 11
729.401
 21
173.329
  0
LINE
  8
0
 10
729.401
 20
173.329
 11
729.271
 21
173.199
  0
LINE
  8
0
 10
729.271
 20
173.199
 11
729.129
 21
173.084
  0
LINE
  8
0
 10
729.129
 20
173.084
 11
728.975
 21
172.984
  0
LINE
  8
0
 10
728.975
 20
172.984
 11
728.812
 21
172.901
  0
LINE
  8
0
 10
728.812
 20
172.901
 11
728.641
 21
172.836
  0
LINE
  8
0
 10
728.641
 20
172.836
 11
728.464
 21
172.788
  0
LINE
  8
0
 10
728.464
 20
172.788
 11
728.283
 21
172.76
  0
LINE
  8
0
 10
728.283
 20
172.76
 11
728.1
 21
172.75
  0
LINE
  8
0
 10
728.1
 20
172.75
 11
727.917
 21
172.76
  0
LINE
  8
0
 10
730.6
 20
82
 11
730.6
 21
172
  0
LINE
  8
0
 10
730.6
 20
172
 11
820.6
 21
172
  0
LINE
  8
0
 10
820.6
 20
172
 11
820.6
 21
82
  0
LINE
  8
0
 10
820.6
 20
82
 11
730.6
 21
82
  0
LINE
  8
0
 10
822.917
 20
77.7596
 11
822.736
 21
77.7882
  0
LINE
  8
0
 10
822.736
 20
77.7882
 11
822.559
 21
77.8356
  0
LINE
  8
0
 10
822.559
 20
77.8356
 11
822.388
 21
77.9013
  0
LINE
  8
0
 10
822.388
 20
77.9013
 11
822.225
 21
77.9845
  0
LINE
  8
0
 10
822.225
 20
77.9845
 11
822.071
 21
78.0842
  0
LINE
  8
0
 10
822.071
 20
78.0842
 11
821.929
 21
78.1995
  0
LINE
  8
0
 10
821.929
 20
78.1995
 11
821.799
 21
78.329
  0
LINE
  8
0
 10
821.799
 20
78.329
 11
821.684
 21
78.4714
  0
LINE
  8
0
 10
821.684
 20
78.4714
 11
821.584
 21
78.625
  0
LINE
  8
0
 10
821.584
 20
78.625
 11
821.501
 21
78.7882
  0
LINE
  8
0
 10
821.501
 20
78.7882
 11
821.436
 21
78.9592
  0
LINE
  8
0
 10
821.436
 20
78.9592
 11
821.388
 21
79.1362
  0
LINE
  8
0
 10
821.388
 20
79.1362
 11
821.36
 21
79.3171
  0
LINE
  8
0
 10
821.36
 20
79.3171
 11
821.35
 21
79.5
  0
LINE
  8
0
 10
821.35
 20
79.5
 11
821.36
 21
79.6829
  0
LINE
  8
0
 10
821.36
 20
79.6829
 11
821.388
 21
79.8638
  0
LINE
  8
0
 10
821.388
 20
79.8638
 11
821.436
 21
80.0408
  0
LINE
  8
0
 10
821.436
 20
80.0408
 11
821.501
 21
80.2118
  0
LINE
  8
0
 10
821.501
 20
80.2118
 11
821.584
 21
80.375
  0
LINE
  8
0
 10
821.584
 20
80.375
 11
821.684
 21
80.5286
  0
LINE
  8
0
 10
821.684
 20
80.5286
 11
821.799
 21
80.671
  0
LINE
  8
0
 10
821.799
 20
80.671
 11
821.929
 21
80.8005
  0
LINE
  8
0
 10
821.929
 20
80.8005
 11
822.071
 21
80.9158
  0
LINE
  8
0
 10
822.071
 20
80.9158
 11
822.225
 21
81.0155
  0
LINE
  8
0
 10
822.225
 20
81.0155
 11
822.388
 21
81.0987
  0
LINE
  8
0
 10
822.388
 20
81.0987
 11
822.559
 21
81.1644
  0
LINE
  8
0
 10
822.559
 20
81.1644
 11
822.736
 21
81.2118
  0
LINE
  8
0
 10
822.736
 20
81.2118
 11
822.917
 21
81.2404
  0
LINE
  8
0
 10
822.917
 20
81.2404
 11
823.1
 21
81.25
  0
LINE
  8
0
 10
823.1
 20
81.25
 11
823.283
 21
81.2404
  0
LINE
  8
0
 10
823.283
 20
81.2404
 11
823.464
 21
81.2118
  0
LINE
  8
0
 10
823.464
 20
81.2118
 11
823.641
 21
81.1644
  0
LINE
  8
0
 10
823.641
 20
81.1644
 11
823.812
 21
81.0987
  0
LINE
  8
0
 10
823.812
 20
81.0987
 11
823.975
 21
81.0155
  0
LINE
  8
0
 10
823.975
 20
81.0155
 11
824.129
 21
80.9158
  0
LINE
  8
0
 10
824.129
 20
80.9158
 11
824.271
 21
80.8005
  0
LINE
  8
0
 10
824.271
 20
80.8005
 11
824.401
 21
80.671
  0
LINE
  8
0
 10
824.401
 20
80.671
 11
824.516
 21
80.5286
  0
LINE
  8
0
 10
824.516
 20
80.5286
 11
824.616
 21
80.375
  0
LINE
  8
0
 10
824.616
 20
80.375
 11
824.699
 21
80.2118
  0
LINE
  8
0
 10
824.699
 20
80.2118
 11
824.764
 21
80.0408
  0
LINE
  8
0
 10
824.764
 20
80.0408
 11
824.812
 21
79.8638
  0
LINE
  8
0
 10
824.812
 20
79.8638
 11
824.84
 21
79.6829
  0
LINE
  8
0
 10
824.84
 20
79.6829
 11
824.85
 21
79.5
  0
LINE
  8
0
 10
824.85
 20
79.5
 11
824.84
 21
79.3171
  0
LINE
  8
0
 10
824.84
 20
79.3171
 11
824.812
 21
79.1362
  0
LINE
  8
0
 10
824.812
 20
79.1362
 11
824.764
 21
78.9592
  0
LINE
  8
0
 10
824.764
 20
78.9592
 11
824.699
 21
78.7882
  0
LINE
  8
0
 10
824.699
 20
78.7882
 11
824.616
 21
78.625
  0
LINE
  8
0
 10
824.616
 20
78.625
 11
824.516
 21
78.4714
  0
LINE
  8
0
 10
824.516
 20
78.4714
 11
824.401
 21
78.329
  0
LINE
  8
0
 10
824.401
 20
78.329
 11
824.271
 21
78.1995
  0
LINE
  8
0
 10
824.271
 20
78.1995
 11
824.129
 21
78.0842
  0
LINE
  8
0
 10
824.129
 20
78.0842
 11
823.975
 21
77.9845
  0
LINE
  8
0
 10
823.975
 20
77.9845
 11
823.812
 21
77.9013
  0
LINE
  8
0
 10
823.812
 20
77.9013
 11
823.641
 21
77.8356
  0
LINE
  8
0
 10
823.641
 20
77.8356
 11
823.464
 21
77.7882
  0
LINE
  8
0
 10
823.464
 20
77.7882
 11
823.283
 21
77.7596
  0
LINE
  8
0
 10
823.283
 20
77.7596
 11
823.1
 21
77.75
  0
LINE
  8
0
 10
823.1
 20
77.75
 11
822.917
 21
77.7596
  0
LINE
  8
0
 10
727.917
 20
77.7596
 11
727.736
 21
77.7882
  0
LINE
  8
0
 10
727.736
 20
77.7882
 11
727.559
 21
77.8356
  0
LINE
  8
0
 10
727.559
 20
77.8356
 11
727.388
 21
77.9013
  0
LINE
  8
0
 10
727.388
 20
77.9013
 11
727.225
 21
77.9845
  0
LINE
  8
0
 10
727.225
 20
77.9845
 11
727.071
 21
78.0842
  0
LINE
  8
0
 10
727.071
 20
78.0842
 11
726.929
 21
78.1995
  0
LINE
  8
0
 10
726.929
 20
78.1995
 11
726.799
 21
78.329
  0
LINE
  8
0
 10
726.799
 20
78.329
 11
726.684
 21
78.4714
  0
LINE
  8
0
 10
726.684
 20
78.4714
 11
726.584
 21
78.625
  0
LINE
  8
0
 10
726.584
 20
78.625
 11
726.501
 21
78.7882
  0
LINE
  8
0
 10
726.501
 20
78.7882
 11
726.436
 21
78.9592
  0
LINE
  8
0
 10
726.436
 20
78.9592
 11
726.388
 21
79.1362
  0
LINE
  8
0
 10
726.388
 20
79.1362
 11
726.36
 21
79.3171
  0
LINE
  8
0
 10
726.36
 20
79.3171
 11
726.35
 21
79.5
  0
LINE
  8
0
 10
726.35
 20
79.5
 11
726.36
 21
79.6829
  0
LINE
  8
0
 10
726.36
 20
79.6829
 11
726.388
 21
79.8638
  0
LINE
  8
0
 10
726.388
 20
79.8638
 11
726.436
 21
80.0408
  0
LINE
  8
0
 10
726.436
 20
80.0408
 11
726.501
 21
80.2118
  0
LINE
  8
0
 10
726.501
 20
80.2118
 11
726.584
 21
80.375
  0
LINE
  8
0
 10
726.584
 20
80.375
 11
726.684
 21
80.5286
  0
LINE
  8
0
 10
726.684
 20
80.5286
 11
726.799
 21
80.671
  0
LINE
  8
0
 10
726.799
 20
80.671
 11
726.929
 21
80.8005
  0
LINE
  8
0
 10
726.929
 20
80.8005
 11
727.071
 21
80.9158
  0
LINE
  8
0
 10
727.071
 20
80.9158
 11
727.225
 21
81.0155
  0
LINE
  8
0
 10
727.225
 20
81.0155
 11
727.388
 21
81.0987
  0
LINE
  8
0
 10
727.388
 20
81.0987
 11
727.559
 21
81.1644
  0
LINE
  8
0
 10
727.559
 20
81.1644
 11
727.736
 21
81.2118
  0
LINE
  8
0
 10
727.736
 20
81.2118
 11
727.917
 21
81.2404
  0
LINE
  8
0
 10
727.917
 20
81.2404
 11
728.1
 21
81.25
  0
LINE
  8
0
 10
728.1
 20
81.25
 11
728.283
 21
81.2404
  0
LINE
  8
0
 10
728.283
 20
81.2404
 11
728.464
 21
81.2118
  0
LINE
  8
0
 10
728.464
 20
81.2118
 11
728.641
 21
81.1644
  0
LINE
  8
0
 10
728.641
 20
81.1644
 11
728.812
 21
81.0987
  0
LINE
  8
0
 10
728.812
 20
81.0987
 11
728.975
 21
81.0155
  0
LINE
  8
0
 10
728.975
 20
81.0155
 11
729.129
 21
80.9158
  0
LINE
  8
0
 10
729.129
 20
80.9158
 11
729.271
 21
80.8005
  0
LINE
  8
0
 10
729.271
 20
80.8005
 11
729.401
 21
80.671
  0
LINE
  8
0
 10
729.401
 20
80.671
 11
729.516
 21
80.5286
  0
LINE
  8
0
 10
729.516
 20
80.5286
 11
729.616
 21
80.375
  0
LINE
  8
0
 10
729.616
 20
80.375
 11
729.699
 21
80.2118
  0
LINE
  8
0
 10
729.699
 20
80.2118
 11
729.764
 21
80.0408
  0
LINE
  8
0
 10
729.764
 20
80.0408
 11
729.812
 21
79.8638
  0
LINE
  8
0
 10
729.812
 20
79.8638
 11
729.84
 21
79.6829
  0
LINE
  8
0
 10
729.84
 20
79.6829
 11
729.85
 21
79.5
  0
LINE
  8
0
 10
729.85
 20
79.5
 11
729.84
 21
79.3171
  0
LINE
  8
0
 10
729.84
 20
79.3171
 11
729.812
 21
79.1362
  0
LINE
  8
0
 10
729.812
 20
79.1362
 11
729.764
 21
78.9592
  0
LINE
  8
0
 10
729.764
 20
78.9592
 11
729.699
 21
78.7882
  0
LINE
  8
0
 10
729.699
 20
78.7882
 11
729.616
 21
78.625
  0
LINE
  8
0
 10
729.616
 20
78.625
 11
729.516
 21
78.4714
  0
LINE
  8
0
 10
729.516
 20
78.4714
 11
729.401
 21
78.329
  0
LINE
  8
0
 10
729.401
 20
78.329
 11
729.271
 21
78.1995
  0
LINE
  8
0
 10
729.271
 20
78.1995
 11
729.129
 21
78.0842
  0
LINE
  8
0
 10
729.129
 20
78.0842
 11
728.975
 21
77.9845
  0
LINE
  8
0
 10
728.975
 20
77.9845
 11
728.812
 21
77.9013
  0
LINE
  8
0
 10
728.812
 20
77.9013
 11
728.641
 21
77.8356
  0
LINE
  8
0
 10
728.641
 20
77.8356
 11
728.464
 21
77.7882
  0
LINE
  8
0
 10
728.464
 20
77.7882
 11
728.283
 21
77.7596
  0
LINE
  8
0
 10
728.283
 20
77.7596
 11
728.1
 21
77.75
  0
LINE
  8
0
 10
728.1
 20
77.75
 11
727.917
 21
77.7596
  0
ENDSEC
  0
SECTION
  2
OBJECTS
  0
DICTIONARY
  0
ENDSEC
  0
EOF
