  0
SECTION
  2
BLOCKS
  0
ENDSEC
  0
SECTION
  2
ENTITIES
  0
LINE
  8
0
 10
55.5
 20
253
 11
48
 21
253
  0
LINE
  8
0
 10
48
 20
253
 11
48
 21
206
  0
LINE
  8
0
 10
48
 20
206
 11
55.5
 21
206
  0
LINE
  8
0
 10
55.5
 20
206
 11
55.5
 21
253
  0
LINE
  8
0
 10
9.5
 20
253
 11
2
 21
253
  0
LINE
  8
0
 10
2
 20
253
 11
2
 21
206
  0
LINE
  8
0
 10
2
 20
206
 11
9.5
 21
206
  0
LINE
  8
0
 10
9.5
 20
206
 11
9.5
 21
253
  0
LINE
  8
0
 10
44
 20
253
 11
36.5
 21
253
  0
LINE
  8
0
 10
36.5
 20
253
 11
36.5
 21
206
  0
LINE
  8
0
 10
36.5
 20
206
 11
44
 21
206
  0
LINE
  8
0
 10
44
 20
206
 11
44
 21
253
  0
LINE
  8
0
 10
21
 20
253
 11
13.5
 21
253
  0
LINE
  8
0
 10
13.5
 20
253
 11
13.5
 21
206
  0
LINE
  8
0
 10
13.5
 20
206
 11
21
 21
206
  0
LINE
  8
0
 10
21
 20
206
 11
21
 21
253
  0
LINE
  8
0
 10
32.5
 20
253
 11
25
 21
253
  0
LINE
  8
0
 10
25
 20
253
 11
25
 21
206
  0
LINE
  8
0
 10
25
 20
206
 11
32.5
 21
206
  0
LINE
  8
0
 10
32.5
 20
206
 11
32.5
 21
253
  0
LINE
  8
0
 10
55.5
 20
202
 11
48
 21
202
  0
LINE
  8
0
 10
48
 20
202
 11
48
 21
155
  0
LINE
  8
0
 10
48
 20
155
 11
55.5
 21
155
  0
LINE
  8
0
 10
55.5
 20
155
 11
55.5
 21
202
  0
LINE
  8
0
 10
9.5
 20
202
 11
2
 21
202
  0
LINE
  8
0
 10
2
 20
202
 11
2
 21
155
  0
LINE
  8
0
 10
2
 20
155
 11
9.5
 21
155
  0
LINE
  8
0
 10
9.5
 20
155
 11
9.5
 21
202
  0
LINE
  8
0
 10
44
 20
202
 11
36.5
 21
202
  0
LINE
  8
0
 10
36.5
 20
202
 11
36.5
 21
155
  0
LINE
  8
0
 10
36.5
 20
155
 11
44
 21
155
  0
LINE
  8
0
 10
44
 20
155
 11
44
 21
202
  0
LINE
  8
0
 10
21
 20
202
 11
13.5
 21
202
  0
LINE
  8
0
 10
13.5
 20
202
 11
13.5
 21
155
  0
LINE
  8
0
 10
13.5
 20
155
 11
21
 21
155
  0
LINE
  8
0
 10
21
 20
155
 11
21
 21
202
  0
LINE
  8
0
 10
32.5
 20
202
 11
25
 21
202
  0
LINE
  8
0
 10
25
 20
202
 11
25
 21
155
  0
LINE
  8
0
 10
25
 20
155
 11
32.5
 21
155
  0
LINE
  8
0
 10
32.5
 20
155
 11
32.5
 21
202
  0
LINE
  8
0
 10
32.5
 20
151
 11
25
 21
151
  0
LINE
  8
0
 10
25
 20
151
 11
25
 21
104
  0
LINE
  8
0
 10
25
 20
104
 11
32.5
 21
104
  0
LINE
  8
0
 10
32.5
 20
104
 11
32.5
 21
151
  0
LINE
  8
0
 10
55.5
 20
151
 11
48
 21
151
  0
LINE
  8
0
 10
48
 20
151
 11
48
 21
104
  0
LINE
  8
0
 10
48
 20
104
 11
55.5
 21
104
  0
LINE
  8
0
 10
55.5
 20
104
 11
55.5
 21
151
  0
LINE
  8
0
 10
44
 20
151
 11
36.5
 21
151
  0
LINE
  8
0
 10
36.5
 20
151
 11
36.5
 21
104
  0
LINE
  8
0
 10
36.5
 20
104
 11
44
 21
104
  0
LINE
  8
0
 10
44
 20
104
 11
44
 21
151
  0
LINE
  8
0
 10
21
 20
151
 11
13.5
 21
151
  0
LINE
  8
0
 10
13.5
 20
151
 11
13.5
 21
104
  0
LINE
  8
0
 10
13.5
 20
104
 11
21
 21
104
  0
LINE
  8
0
 10
21
 20
104
 11
21
 21
151
  0
LINE
  8
0
 10
9.5
 20
151
 11
2
 21
151
  0
LINE
  8
0
 10
2
 20
151
 11
2
 21
104
  0
LINE
  8
0
 10
2
 20
104
 11
9.5
 21
104
  0
LINE
  8
0
 10
9.5
 20
104
 11
9.5
 21
151
  0
LINE
  8
0
 10
32.5
 20
100
 11
25
 21
100
  0
LINE
  8
0
 10
25
 20
100
 11
25
 21
53
  0
LINE
  8
0
 10
25
 20
53
 11
32.5
 21
53
  0
LINE
  8
0
 10
32.5
 20
53
 11
32.5
 21
100
  0
LINE
  8
0
 10
44
 20
100
 11
36.5
 21
100
  0
LINE
  8
0
 10
36.5
 20
100
 11
36.5
 21
53
  0
LINE
  8
0
 10
36.5
 20
53
 11
44
 21
53
  0
LINE
  8
0
 10
44
 20
53
 11
44
 21
100
  0
LINE
  8
0
 10
21
 20
100
 11
13.5
 21
100
  0
LINE
  8
0
 10
13.5
 20
100
 11
13.5
 21
53
  0
LINE
  8
0
 10
13.5
 20
53
 11
21
 21
53
  0
LINE
  8
0
 10
21
 20
53
 11
21
 21
100
  0
LINE
  8
0
 10
55.5
 20
100
 11
48
 21
100
  0
LINE
  8
0
 10
48
 20
100
 11
48
 21
53
  0
LINE
  8
0
 10
48
 20
53
 11
55.5
 21
53
  0
LINE
  8
0
 10
55.5
 20
53
 11
55.5
 21
100
  0
LINE
  8
0
 10
9.5
 20
100
 11
2
 21
100
  0
LINE
  8
0
 10
2
 20
100
 11
2
 21
53
  0
LINE
  8
0
 10
2
 20
53
 11
9.5
 21
53
  0
LINE
  8
0
 10
9.5
 20
53
 11
9.5
 21
100
  0
LINE
  8
0
 10
9.5
 20
49
 11
2
 21
49
  0
LINE
  8
0
 10
2
 20
49
 11
2
 21
2
  0
LINE
  8
0
 10
2
 20
2
 11
9.5
 21
2
  0
LINE
  8
0
 10
9.5
 20
2
 11
9.5
 21
49
  0
LINE
  8
0
 10
44
 20
49
 11
36.5
 21
49
  0
LINE
  8
0
 10
36.5
 20
49
 11
36.5
 21
2
  0
LINE
  8
0
 10
36.5
 20
2
 11
44
 21
2
  0
LINE
  8
0
 10
44
 20
2
 11
44
 21
49
  0
LINE
  8
0
 10
32.5
 20
49
 11
25
 21
49
  0
LINE
  8
0
 10
25
 20
49
 11
25
 21
2
  0
LINE
  8
0
 10
25
 20
2
 11
32.5
 21
2
  0
LINE
  8
0
 10
32.5
 20
2
 11
32.5
 21
49
  0
LINE
  8
0
 10
55.5
 20
49
 11
48
 21
49
  0
LINE
  8
0
 10
48
 20
49
 11
48
 21
2
  0
LINE
  8
0
 10
48
 20
2
 11
55.5
 21
2
  0
LINE
  8
0
 10
55.5
 20
2
 11
55.5
 21
49
  0
LINE
  8
0
 10
21
 20
49
 11
13.5
 21
49
  0
LINE
  8
0
 10
13.5
 20
49
 11
13.5
 21
2
  0
LINE
  8
0
 10
13.5
 20
2
 11
21
 21
2
  0
LINE
  8
0
 10
21
 20
2
 11
21
 21
49
  0
ENDSEC
  0
SECTION
  2
OBJECTS
  0
DICTIONARY
  0
ENDSEC
  0
EOF
