  0
SECTION
  2
BLOCKS
  0
ENDSEC
  0
SECTION
  2
ENTITIES
  0
LINE
  8
0
 10
289.741
 20
-16.9456
 11
291.711
 21
-16.6337
  0
LINE
  8
0
 10
291.711
 20
-16.6337
 11
293.637
 21
-16.1176
  0
LINE
  8
0
 10
293.637
 20
-16.1176
 11
295.498
 21
-15.403
  0
LINE
  8
0
 10
295.498
 20
-15.403
 11
297.275
 21
-14.4978
  0
LINE
  8
0
 10
297.275
 20
-14.4978
 11
298.947
 21
-13.4118
  0
LINE
  8
0
 10
298.947
 20
-13.4118
 11
300.497
 21
-12.1569
  0
LINE
  8
0
 10
300.497
 20
-12.1569
 11
301.907
 21
-10.7469
  0
LINE
  8
0
 10
301.907
 20
-10.7469
 11
303.162
 21
-9.1973
  0
LINE
  8
0
 10
303.162
 20
-9.1973
 11
304.248
 21
-7.52499
  0
LINE
  8
0
 10
304.248
 20
-7.52499
 11
305.153
 21
-5.74832
  0
LINE
  8
0
 10
305.153
 20
-5.74832
 11
305.868
 21
-3.88676
  0
LINE
  8
0
 10
305.868
 20
-3.88676
 11
306.384
 21
-1.96071
  0
LINE
  8
0
 10
306.384
 20
-1.96071
 11
306.536
 21
-1
  0
LINE
  8
0
 10
306.536
 20
-1
 11
306.8
 21
-1
  0
LINE
  8
0
 10
306.8
 20
-1
 11
306.8
 21
40.1
  0
LINE
  8
0
 10
306.8
 20
40.1
 11
308
 21
40.1
  0
LINE
  8
0
 10
308
 20
40.1
 11
308.002
 21
40.0686
  0
LINE
  8
0
 10
308.002
 20
40.0686
 11
308.007
 21
40.0376
  0
LINE
  8
0
 10
308.007
 20
40.0376
 11
308.015
 21
40.0073
  0
LINE
  8
0
 10
308.015
 20
40.0073
 11
308.026
 21
39.978
  0
LINE
  8
0
 10
308.026
 20
39.978
 11
308.04
 21
39.95
  0
LINE
  8
0
 10
308.04
 20
39.95
 11
308.057
 21
39.9237
  0
LINE
  8
0
 10
308.057
 20
39.9237
 11
308.077
 21
39.8993
  0
LINE
  8
0
 10
308.077
 20
39.8993
 11
308.099
 21
39.877
  0
LINE
  8
0
 10
308.099
 20
39.877
 11
308.124
 21
39.8573
  0
LINE
  8
0
 10
308.124
 20
39.8573
 11
308.15
 21
39.8402
  0
LINE
  8
0
 10
308.15
 20
39.8402
 11
308.178
 21
39.8259
  0
LINE
  8
0
 10
308.178
 20
39.8259
 11
308.207
 21
39.8147
  0
LINE
  8
0
 10
308.207
 20
39.8147
 11
308.238
 21
39.8065
  0
LINE
  8
0
 10
308.238
 20
39.8065
 11
308.269
 21
39.8016
  0
LINE
  8
0
 10
308.269
 20
39.8016
 11
308.3
 21
39.8
  0
LINE
  8
0
 10
308.3
 20
39.8
 11
308.331
 21
39.8016
  0
LINE
  8
0
 10
308.331
 20
39.8016
 11
308.362
 21
39.8065
  0
LINE
  8
0
 10
308.362
 20
39.8065
 11
308.393
 21
39.8147
  0
LINE
  8
0
 10
308.393
 20
39.8147
 11
308.422
 21
39.8259
  0
LINE
  8
0
 10
308.422
 20
39.8259
 11
308.45
 21
39.8402
  0
LINE
  8
0
 10
308.45
 20
39.8402
 11
308.476
 21
39.8573
  0
LINE
  8
0
 10
308.476
 20
39.8573
 11
308.501
 21
39.877
  0
LINE
  8
0
 10
308.501
 20
39.877
 11
308.523
 21
39.8993
  0
LINE
  8
0
 10
308.523
 20
39.8993
 11
308.543
 21
39.9237
  0
LINE
  8
0
 10
308.543
 20
39.9237
 11
308.56
 21
39.95
  0
LINE
  8
0
 10
308.56
 20
39.95
 11
308.574
 21
39.978
  0
LINE
  8
0
 10
308.574
 20
39.978
 11
308.585
 21
40.0073
  0
LINE
  8
0
 10
308.585
 20
40.0073
 11
308.593
 21
40.0376
  0
LINE
  8
0
 10
308.593
 20
40.0376
 11
308.598
 21
40.0686
  0
LINE
  8
0
 10
308.598
 20
40.0686
 11
308.6
 21
40.1
  0
LINE
  8
0
 10
308.6
 20
40.1
 11
309.8
 21
40.1
  0
LINE
  8
0
 10
309.8
 20
40.1
 11
309.8
 21
40.3641
  0
LINE
  8
0
 10
309.8
 20
40.3641
 11
310.761
 21
40.5163
  0
LINE
  8
0
 10
310.761
 20
40.5163
 11
312.687
 21
41.0324
  0
LINE
  8
0
 10
312.687
 20
41.0324
 11
314.548
 21
41.7469
  0
LINE
  8
0
 10
314.548
 20
41.7469
 11
316.325
 21
42.6522
  0
LINE
  8
0
 10
316.325
 20
42.6522
 11
317.997
 21
43.7382
  0
LINE
  8
0
 10
317.997
 20
43.7382
 11
319.547
 21
44.9931
  0
LINE
  8
0
 10
319.547
 20
44.9931
 11
320.957
 21
46.4031
  0
LINE
  8
0
 10
320.957
 20
46.4031
 11
322.212
 21
47.9527
  0
LINE
  8
0
 10
322.212
 20
47.9527
 11
323.298
 21
49.625
  0
LINE
  8
0
 10
323.298
 20
49.625
 11
324.203
 21
51.4017
  0
LINE
  8
0
 10
324.203
 20
51.4017
 11
324.918
 21
53.2632
  0
LINE
  8
0
 10
324.918
 20
53.2632
 11
325.434
 21
55.1893
  0
LINE
  8
0
 10
325.434
 20
55.1893
 11
325.746
 21
57.1587
  0
LINE
  8
0
 10
325.746
 20
57.1587
 11
325.85
 21
59.15
  0
LINE
  8
0
 10
325.85
 20
59.15
 11
325.746
 21
61.1413
  0
LINE
  8
0
 10
325.746
 20
61.1413
 11
325.434
 21
63.1107
  0
LINE
  8
0
 10
325.434
 20
63.1107
 11
324.918
 21
65.0368
  0
LINE
  8
0
 10
324.918
 20
65.0368
 11
324.203
 21
66.8983
  0
LINE
  8
0
 10
324.203
 20
66.8983
 11
323.298
 21
68.675
  0
LINE
  8
0
 10
323.298
 20
68.675
 11
322.212
 21
70.3473
  0
LINE
  8
0
 10
322.212
 20
70.3473
 11
320.957
 21
71.8969
  0
LINE
  8
0
 10
320.957
 20
71.8969
 11
319.547
 21
73.3069
  0
LINE
  8
0
 10
319.547
 20
73.3069
 11
317.997
 21
74.5618
  0
LINE
  8
0
 10
317.997
 20
74.5618
 11
316.325
 21
75.6478
  0
LINE
  8
0
 10
316.325
 20
75.6478
 11
314.548
 21
76.553
  0
LINE
  8
0
 10
314.548
 20
76.553
 11
312.687
 21
77.2676
  0
LINE
  8
0
 10
312.687
 20
77.2676
 11
310.761
 21
77.7837
  0
LINE
  8
0
 10
310.761
 20
77.7837
 11
309.8
 21
77.9359
  0
LINE
  8
0
 10
309.8
 20
77.9359
 11
309.8
 21
78.2
  0
LINE
  8
0
 10
309.8
 20
78.2
 11
306.8
 21
78.2
  0
LINE
  8
0
 10
306.8
 20
78.2
 11
306.8
 21
116.3
  0
LINE
  8
0
 10
306.8
 20
116.3
 11
308
 21
116.3
  0
LINE
  8
0
 10
308
 20
116.3
 11
308.002
 21
116.269
  0
LINE
  8
0
 10
308.002
 20
116.269
 11
308.007
 21
116.238
  0
LINE
  8
0
 10
308.007
 20
116.238
 11
308.015
 21
116.207
  0
LINE
  8
0
 10
308.015
 20
116.207
 11
308.026
 21
116.178
  0
LINE
  8
0
 10
308.026
 20
116.178
 11
308.04
 21
116.15
  0
LINE
  8
0
 10
308.04
 20
116.15
 11
308.057
 21
116.124
  0
LINE
  8
0
 10
308.057
 20
116.124
 11
308.077
 21
116.099
  0
LINE
  8
0
 10
308.077
 20
116.099
 11
308.099
 21
116.077
  0
LINE
  8
0
 10
308.099
 20
116.077
 11
308.124
 21
116.057
  0
LINE
  8
0
 10
308.124
 20
116.057
 11
308.15
 21
116.04
  0
LINE
  8
0
 10
308.15
 20
116.04
 11
308.178
 21
116.026
  0
LINE
  8
0
 10
308.178
 20
116.026
 11
308.207
 21
116.015
  0
LINE
  8
0
 10
308.207
 20
116.015
 11
308.238
 21
116.007
  0
LINE
  8
0
 10
308.238
 20
116.007
 11
308.269
 21
116.002
  0
LINE
  8
0
 10
308.269
 20
116.002
 11
308.3
 21
116
  0
LINE
  8
0
 10
308.3
 20
116
 11
308.331
 21
116.002
  0
LINE
  8
0
 10
308.331
 20
116.002
 11
308.362
 21
116.007
  0
LINE
  8
0
 10
308.362
 20
116.007
 11
308.393
 21
116.015
  0
LINE
  8
0
 10
308.393
 20
116.015
 11
308.422
 21
116.026
  0
LINE
  8
0
 10
308.422
 20
116.026
 11
308.45
 21
116.04
  0
LINE
  8
0
 10
308.45
 20
116.04
 11
308.476
 21
116.057
  0
LINE
  8
0
 10
308.476
 20
116.057
 11
308.501
 21
116.077
  0
LINE
  8
0
 10
308.501
 20
116.077
 11
308.523
 21
116.099
  0
LINE
  8
0
 10
308.523
 20
116.099
 11
308.543
 21
116.124
  0
LINE
  8
0
 10
308.543
 20
116.124
 11
308.56
 21
116.15
  0
LINE
  8
0
 10
308.56
 20
116.15
 11
308.574
 21
116.178
  0
LINE
  8
0
 10
308.574
 20
116.178
 11
308.585
 21
116.207
  0
LINE
  8
0
 10
308.585
 20
116.207
 11
308.593
 21
116.238
  0
LINE
  8
0
 10
308.593
 20
116.238
 11
308.598
 21
116.269
  0
LINE
  8
0
 10
308.598
 20
116.269
 11
308.6
 21
116.3
  0
LINE
  8
0
 10
308.6
 20
116.3
 11
309.8
 21
116.3
  0
LINE
  8
0
 10
309.8
 20
116.3
 11
309.8
 21
116.564
  0
LINE
  8
0
 10
309.8
 20
116.564
 11
310.761
 21
116.716
  0
LINE
  8
0
 10
310.761
 20
116.716
 11
312.687
 21
117.232
  0
LINE
  8
0
 10
312.687
 20
117.232
 11
314.548
 21
117.947
  0
LINE
  8
0
 10
314.548
 20
117.947
 11
316.325
 21
118.852
  0
LINE
  8
0
 10
316.325
 20
118.852
 11
317.997
 21
119.938
  0
LINE
  8
0
 10
317.997
 20
119.938
 11
319.547
 21
121.193
  0
LINE
  8
0
 10
319.547
 20
121.193
 11
320.957
 21
122.603
  0
LINE
  8
0
 10
320.957
 20
122.603
 11
322.212
 21
124.153
  0
LINE
  8
0
 10
322.212
 20
124.153
 11
323.298
 21
125.825
  0
LINE
  8
0
 10
323.298
 20
125.825
 11
324.203
 21
127.602
  0
LINE
  8
0
 10
324.203
 20
127.602
 11
324.918
 21
129.463
  0
LINE
  8
0
 10
324.918
 20
129.463
 11
325.434
 21
131.389
  0
LINE
  8
0
 10
325.434
 20
131.389
 11
325.746
 21
133.359
  0
LINE
  8
0
 10
325.746
 20
133.359
 11
325.85
 21
135.35
  0
LINE
  8
0
 10
325.85
 20
135.35
 11
325.746
 21
137.341
  0
LINE
  8
0
 10
325.746
 20
137.341
 11
325.434
 21
139.311
  0
LINE
  8
0
 10
325.434
 20
139.311
 11
324.918
 21
141.237
  0
LINE
  8
0
 10
324.918
 20
141.237
 11
324.203
 21
143.098
  0
LINE
  8
0
 10
324.203
 20
143.098
 11
323.298
 21
144.875
  0
LINE
  8
0
 10
323.298
 20
144.875
 11
322.212
 21
146.547
  0
LINE
  8
0
 10
322.212
 20
146.547
 11
320.957
 21
148.097
  0
LINE
  8
0
 10
320.957
 20
148.097
 11
319.547
 21
149.507
  0
LINE
  8
0
 10
319.547
 20
149.507
 11
317.997
 21
150.762
  0
LINE
  8
0
 10
317.997
 20
150.762
 11
316.325
 21
151.848
  0
LINE
  8
0
 10
316.325
 20
151.848
 11
314.548
 21
152.753
  0
LINE
  8
0
 10
314.548
 20
152.753
 11
312.687
 21
153.468
  0
LINE
  8
0
 10
312.687
 20
153.468
 11
310.761
 21
153.984
  0
LINE
  8
0
 10
310.761
 20
153.984
 11
309.8
 21
154.136
  0
LINE
  8
0
 10
309.8
 20
154.136
 11
309.8
 21
154.4
  0
LINE
  8
0
 10
309.8
 20
154.4
 11
306.8
 21
154.4
  0
LINE
  8
0
 10
306.8
 20
154.4
 11
306.8
 21
192.5
  0
LINE
  8
0
 10
306.8
 20
192.5
 11
308
 21
192.5
  0
LINE
  8
0
 10
308
 20
192.5
 11
308.002
 21
192.469
  0
LINE
  8
0
 10
308.002
 20
192.469
 11
308.007
 21
192.438
  0
LINE
  8
0
 10
308.007
 20
192.438
 11
308.015
 21
192.407
  0
LINE
  8
0
 10
308.015
 20
192.407
 11
308.026
 21
192.378
  0
LINE
  8
0
 10
308.026
 20
192.378
 11
308.04
 21
192.35
  0
LINE
  8
0
 10
308.04
 20
192.35
 11
308.057
 21
192.324
  0
LINE
  8
0
 10
308.057
 20
192.324
 11
308.077
 21
192.299
  0
LINE
  8
0
 10
308.077
 20
192.299
 11
308.099
 21
192.277
  0
LINE
  8
0
 10
308.099
 20
192.277
 11
308.124
 21
192.257
  0
LINE
  8
0
 10
308.124
 20
192.257
 11
308.15
 21
192.24
  0
LINE
  8
0
 10
308.15
 20
192.24
 11
308.178
 21
192.226
  0
LINE
  8
0
 10
308.178
 20
192.226
 11
308.207
 21
192.215
  0
LINE
  8
0
 10
308.207
 20
192.215
 11
308.238
 21
192.207
  0
LINE
  8
0
 10
308.238
 20
192.207
 11
308.269
 21
192.202
  0
LINE
  8
0
 10
308.269
 20
192.202
 11
308.3
 21
192.2
  0
LINE
  8
0
 10
308.3
 20
192.2
 11
308.331
 21
192.202
  0
LINE
  8
0
 10
308.331
 20
192.202
 11
308.362
 21
192.207
  0
LINE
  8
0
 10
308.362
 20
192.207
 11
308.393
 21
192.215
  0
LINE
  8
0
 10
308.393
 20
192.215
 11
308.422
 21
192.226
  0
LINE
  8
0
 10
308.422
 20
192.226
 11
308.45
 21
192.24
  0
LINE
  8
0
 10
308.45
 20
192.24
 11
308.476
 21
192.257
  0
LINE
  8
0
 10
308.476
 20
192.257
 11
308.501
 21
192.277
  0
LINE
  8
0
 10
308.501
 20
192.277
 11
308.523
 21
192.299
  0
LINE
  8
0
 10
308.523
 20
192.299
 11
308.543
 21
192.324
  0
LINE
  8
0
 10
308.543
 20
192.324
 11
308.56
 21
192.35
  0
LINE
  8
0
 10
308.56
 20
192.35
 11
308.574
 21
192.378
  0
LINE
  8
0
 10
308.574
 20
192.378
 11
308.585
 21
192.407
  0
LINE
  8
0
 10
308.585
 20
192.407
 11
308.593
 21
192.438
  0
LINE
  8
0
 10
308.593
 20
192.438
 11
308.598
 21
192.469
  0
LINE
  8
0
 10
308.598
 20
192.469
 11
308.6
 21
192.5
  0
LINE
  8
0
 10
308.6
 20
192.5
 11
309.8
 21
192.5
  0
LINE
  8
0
 10
309.8
 20
192.5
 11
309.8
 21
192.764
  0
LINE
  8
0
 10
309.8
 20
192.764
 11
310.761
 21
192.916
  0
LINE
  8
0
 10
310.761
 20
192.916
 11
312.687
 21
193.432
  0
LINE
  8
0
 10
312.687
 20
193.432
 11
314.548
 21
194.147
  0
LINE
  8
0
 10
314.548
 20
194.147
 11
316.325
 21
195.052
  0
LINE
  8
0
 10
316.325
 20
195.052
 11
317.997
 21
196.138
  0
LINE
  8
0
 10
317.997
 20
196.138
 11
319.547
 21
197.393
  0
LINE
  8
0
 10
319.547
 20
197.393
 11
320.957
 21
198.803
  0
LINE
  8
0
 10
320.957
 20
198.803
 11
322.212
 21
200.353
  0
LINE
  8
0
 10
322.212
 20
200.353
 11
323.298
 21
202.025
  0
LINE
  8
0
 10
323.298
 20
202.025
 11
324.203
 21
203.802
  0
LINE
  8
0
 10
324.203
 20
203.802
 11
324.918
 21
205.663
  0
LINE
  8
0
 10
324.918
 20
205.663
 11
325.434
 21
207.589
  0
LINE
  8
0
 10
325.434
 20
207.589
 11
325.746
 21
209.559
  0
LINE
  8
0
 10
325.746
 20
209.559
 11
325.85
 21
211.55
  0
LINE
  8
0
 10
325.85
 20
211.55
 11
325.746
 21
213.541
  0
LINE
  8
0
 10
325.746
 20
213.541
 11
325.434
 21
215.511
  0
LINE
  8
0
 10
325.434
 20
215.511
 11
324.918
 21
217.437
  0
LINE
  8
0
 10
324.918
 20
217.437
 11
324.203
 21
219.298
  0
LINE
  8
0
 10
324.203
 20
219.298
 11
323.298
 21
221.075
  0
LINE
  8
0
 10
323.298
 20
221.075
 11
322.212
 21
222.747
  0
LINE
  8
0
 10
322.212
 20
222.747
 11
320.957
 21
224.297
  0
LINE
  8
0
 10
320.957
 20
224.297
 11
319.547
 21
225.707
  0
LINE
  8
0
 10
319.547
 20
225.707
 11
317.997
 21
226.962
  0
LINE
  8
0
 10
317.997
 20
226.962
 11
316.325
 21
228.048
  0
LINE
  8
0
 10
316.325
 20
228.048
 11
314.548
 21
228.953
  0
LINE
  8
0
 10
314.548
 20
228.953
 11
312.687
 21
229.668
  0
LINE
  8
0
 10
312.687
 20
229.668
 11
310.761
 21
230.184
  0
LINE
  8
0
 10
310.761
 20
230.184
 11
309.8
 21
230.336
  0
LINE
  8
0
 10
309.8
 20
230.336
 11
309.8
 21
230.6
  0
LINE
  8
0
 10
309.8
 20
230.6
 11
306.8
 21
230.6
  0
LINE
  8
0
 10
306.8
 20
230.6
 11
306.8
 21
268.7
  0
LINE
  8
0
 10
306.8
 20
268.7
 11
308
 21
268.7
  0
LINE
  8
0
 10
308
 20
268.7
 11
308.002
 21
268.669
  0
LINE
  8
0
 10
308.002
 20
268.669
 11
308.007
 21
268.638
  0
LINE
  8
0
 10
308.007
 20
268.638
 11
308.015
 21
268.607
  0
LINE
  8
0
 10
308.015
 20
268.607
 11
308.026
 21
268.578
  0
LINE
  8
0
 10
308.026
 20
268.578
 11
308.04
 21
268.55
  0
LINE
  8
0
 10
308.04
 20
268.55
 11
308.057
 21
268.524
  0
LINE
  8
0
 10
308.057
 20
268.524
 11
308.077
 21
268.499
  0
LINE
  8
0
 10
308.077
 20
268.499
 11
308.099
 21
268.477
  0
LINE
  8
0
 10
308.099
 20
268.477
 11
308.124
 21
268.457
  0
LINE
  8
0
 10
308.124
 20
268.457
 11
308.15
 21
268.44
  0
LINE
  8
0
 10
308.15
 20
268.44
 11
308.178
 21
268.426
  0
LINE
  8
0
 10
308.178
 20
268.426
 11
308.207
 21
268.415
  0
LINE
  8
0
 10
308.207
 20
268.415
 11
308.238
 21
268.407
  0
LINE
  8
0
 10
308.238
 20
268.407
 11
308.269
 21
268.402
  0
LINE
  8
0
 10
308.269
 20
268.402
 11
308.3
 21
268.4
  0
LINE
  8
0
 10
308.3
 20
268.4
 11
308.331
 21
268.402
  0
LINE
  8
0
 10
308.331
 20
268.402
 11
308.362
 21
268.407
  0
LINE
  8
0
 10
308.362
 20
268.407
 11
308.393
 21
268.415
  0
LINE
  8
0
 10
308.393
 20
268.415
 11
308.422
 21
268.426
  0
LINE
  8
0
 10
308.422
 20
268.426
 11
308.45
 21
268.44
  0
LINE
  8
0
 10
308.45
 20
268.44
 11
308.476
 21
268.457
  0
LINE
  8
0
 10
308.476
 20
268.457
 11
308.501
 21
268.477
  0
LINE
  8
0
 10
308.501
 20
268.477
 11
308.523
 21
268.499
  0
LINE
  8
0
 10
308.523
 20
268.499
 11
308.543
 21
268.524
  0
LINE
  8
0
 10
308.543
 20
268.524
 11
308.56
 21
268.55
  0
LINE
  8
0
 10
308.56
 20
268.55
 11
308.574
 21
268.578
  0
LINE
  8
0
 10
308.574
 20
268.578
 11
308.585
 21
268.607
  0
LINE
  8
0
 10
308.585
 20
268.607
 11
308.593
 21
268.638
  0
LINE
  8
0
 10
308.593
 20
268.638
 11
308.598
 21
268.669
  0
LINE
  8
0
 10
308.598
 20
268.669
 11
308.6
 21
268.7
  0
LINE
  8
0
 10
308.6
 20
268.7
 11
309.8
 21
268.7
  0
LINE
  8
0
 10
309.8
 20
268.7
 11
309.8
 21
268.964
  0
LINE
  8
0
 10
309.8
 20
268.964
 11
310.761
 21
269.116
  0
LINE
  8
0
 10
310.761
 20
269.116
 11
312.687
 21
269.632
  0
LINE
  8
0
 10
312.687
 20
269.632
 11
314.548
 21
270.347
  0
LINE
  8
0
 10
314.548
 20
270.347
 11
316.325
 21
271.252
  0
LINE
  8
0
 10
316.325
 20
271.252
 11
317.997
 21
272.338
  0
LINE
  8
0
 10
317.997
 20
272.338
 11
319.547
 21
273.593
  0
LINE
  8
0
 10
319.547
 20
273.593
 11
320.957
 21
275.003
  0
LINE
  8
0
 10
320.957
 20
275.003
 11
322.212
 21
276.553
  0
LINE
  8
0
 10
322.212
 20
276.553
 11
323.298
 21
278.225
  0
LINE
  8
0
 10
323.298
 20
278.225
 11
324.203
 21
280.002
  0
LINE
  8
0
 10
324.203
 20
280.002
 11
324.918
 21
281.863
  0
LINE
  8
0
 10
324.918
 20
281.863
 11
325.434
 21
283.789
  0
LINE
  8
0
 10
325.434
 20
283.789
 11
325.746
 21
285.759
  0
LINE
  8
0
 10
325.746
 20
285.759
 11
325.85
 21
287.75
  0
LINE
  8
0
 10
325.85
 20
287.75
 11
325.746
 21
289.741
  0
LINE
  8
0
 10
325.746
 20
289.741
 11
325.434
 21
291.711
  0
LINE
  8
0
 10
325.434
 20
291.711
 11
324.918
 21
293.637
  0
LINE
  8
0
 10
324.918
 20
293.637
 11
324.203
 21
295.498
  0
LINE
  8
0
 10
324.203
 20
295.498
 11
323.298
 21
297.275
  0
LINE
  8
0
 10
323.298
 20
297.275
 11
322.212
 21
298.947
  0
LINE
  8
0
 10
322.212
 20
298.947
 11
320.957
 21
300.497
  0
LINE
  8
0
 10
320.957
 20
300.497
 11
319.547
 21
301.907
  0
LINE
  8
0
 10
319.547
 20
301.907
 11
317.997
 21
303.162
  0
LINE
  8
0
 10
317.997
 20
303.162
 11
316.325
 21
304.248
  0
LINE
  8
0
 10
316.325
 20
304.248
 11
314.548
 21
305.153
  0
LINE
  8
0
 10
314.548
 20
305.153
 11
312.687
 21
305.868
  0
LINE
  8
0
 10
312.687
 20
305.868
 11
310.761
 21
306.384
  0
LINE
  8
0
 10
310.761
 20
306.384
 11
309.8
 21
306.536
  0
LINE
  8
0
 10
309.8
 20
306.536
 11
309.8
 21
306.8
  0
LINE
  8
0
 10
309.8
 20
306.8
 11
268.7
 21
306.8
  0
LINE
  8
0
 10
268.7
 20
306.8
 11
268.7
 21
308
  0
LINE
  8
0
 10
268.7
 20
308
 11
268.731
 21
308.002
  0
LINE
  8
0
 10
268.731
 20
308.002
 11
268.762
 21
308.007
  0
LINE
  8
0
 10
268.762
 20
308.007
 11
268.793
 21
308.015
  0
LINE
  8
0
 10
268.793
 20
308.015
 11
268.822
 21
308.026
  0
LINE
  8
0
 10
268.822
 20
308.026
 11
268.85
 21
308.04
  0
LINE
  8
0
 10
268.85
 20
308.04
 11
268.876
 21
308.057
  0
LINE
  8
0
 10
268.876
 20
308.057
 11
268.901
 21
308.077
  0
LINE
  8
0
 10
268.901
 20
308.077
 11
268.923
 21
308.099
  0
LINE
  8
0
 10
268.923
 20
308.099
 11
268.943
 21
308.124
  0
LINE
  8
0
 10
268.943
 20
308.124
 11
268.96
 21
308.15
  0
LINE
  8
0
 10
268.96
 20
308.15
 11
268.974
 21
308.178
  0
LINE
  8
0
 10
268.974
 20
308.178
 11
268.985
 21
308.207
  0
LINE
  8
0
 10
268.985
 20
308.207
 11
268.993
 21
308.238
  0
LINE
  8
0
 10
268.993
 20
308.238
 11
268.998
 21
308.269
  0
LINE
  8
0
 10
268.998
 20
308.269
 11
269
 21
308.3
  0
LINE
  8
0
 10
269
 20
308.3
 11
268.998
 21
308.331
  0
LINE
  8
0
 10
268.998
 20
308.331
 11
268.993
 21
308.362
  0
LINE
  8
0
 10
268.993
 20
308.362
 11
268.985
 21
308.393
  0
LINE
  8
0
 10
268.985
 20
308.393
 11
268.974
 21
308.422
  0
LINE
  8
0
 10
268.974
 20
308.422
 11
268.96
 21
308.45
  0
LINE
  8
0
 10
268.96
 20
308.45
 11
268.943
 21
308.476
  0
LINE
  8
0
 10
268.943
 20
308.476
 11
268.923
 21
308.501
  0
LINE
  8
0
 10
268.923
 20
308.501
 11
268.901
 21
308.523
  0
LINE
  8
0
 10
268.901
 20
308.523
 11
268.876
 21
308.543
  0
LINE
  8
0
 10
268.876
 20
308.543
 11
268.85
 21
308.56
  0
LINE
  8
0
 10
268.85
 20
308.56
 11
268.822
 21
308.574
  0
LINE
  8
0
 10
268.822
 20
308.574
 11
268.793
 21
308.585
  0
LINE
  8
0
 10
268.793
 20
308.585
 11
268.762
 21
308.593
  0
LINE
  8
0
 10
268.762
 20
308.593
 11
268.731
 21
308.598
  0
LINE
  8
0
 10
268.731
 20
308.598
 11
268.7
 21
308.6
  0
LINE
  8
0
 10
268.7
 20
308.6
 11
268.7
 21
309.8
  0
LINE
  8
0
 10
268.7
 20
309.8
 11
268.436
 21
309.8
  0
LINE
  8
0
 10
268.436
 20
309.8
 11
268.284
 21
310.761
  0
LINE
  8
0
 10
268.284
 20
310.761
 11
267.768
 21
312.687
  0
LINE
  8
0
 10
267.768
 20
312.687
 11
267.053
 21
314.548
  0
LINE
  8
0
 10
267.053
 20
314.548
 11
266.148
 21
316.325
  0
LINE
  8
0
 10
266.148
 20
316.325
 11
265.062
 21
317.997
  0
LINE
  8
0
 10
265.062
 20
317.997
 11
263.807
 21
319.547
  0
LINE
  8
0
 10
263.807
 20
319.547
 11
262.397
 21
320.957
  0
LINE
  8
0
 10
262.397
 20
320.957
 11
260.847
 21
322.212
  0
LINE
  8
0
 10
260.847
 20
322.212
 11
259.175
 21
323.298
  0
LINE
  8
0
 10
259.175
 20
323.298
 11
257.398
 21
324.203
  0
LINE
  8
0
 10
257.398
 20
324.203
 11
255.537
 21
324.918
  0
LINE
  8
0
 10
255.537
 20
324.918
 11
253.611
 21
325.434
  0
LINE
  8
0
 10
253.611
 20
325.434
 11
251.641
 21
325.746
  0
LINE
  8
0
 10
251.641
 20
325.746
 11
249.65
 21
325.85
  0
LINE
  8
0
 10
249.65
 20
325.85
 11
247.659
 21
325.746
  0
LINE
  8
0
 10
247.659
 20
325.746
 11
245.689
 21
325.434
  0
LINE
  8
0
 10
245.689
 20
325.434
 11
243.763
 21
324.918
  0
LINE
  8
0
 10
243.763
 20
324.918
 11
241.902
 21
324.203
  0
LINE
  8
0
 10
241.902
 20
324.203
 11
240.125
 21
323.298
  0
LINE
  8
0
 10
240.125
 20
323.298
 11
238.453
 21
322.212
  0
LINE
  8
0
 10
238.453
 20
322.212
 11
236.903
 21
320.957
  0
LINE
  8
0
 10
236.903
 20
320.957
 11
235.493
 21
319.547
  0
LINE
  8
0
 10
235.493
 20
319.547
 11
234.238
 21
317.997
  0
LINE
  8
0
 10
234.238
 20
317.997
 11
233.152
 21
316.325
  0
LINE
  8
0
 10
233.152
 20
316.325
 11
232.247
 21
314.548
  0
LINE
  8
0
 10
232.247
 20
314.548
 11
231.532
 21
312.687
  0
LINE
  8
0
 10
231.532
 20
312.687
 11
231.016
 21
310.761
  0
LINE
  8
0
 10
231.016
 20
310.761
 11
230.864
 21
309.8
  0
LINE
  8
0
 10
230.864
 20
309.8
 11
230.6
 21
309.8
  0
LINE
  8
0
 10
230.6
 20
309.8
 11
230.6
 21
306.8
  0
LINE
  8
0
 10
230.6
 20
306.8
 11
192.5
 21
306.8
  0
LINE
  8
0
 10
192.5
 20
306.8
 11
192.5
 21
308
  0
LINE
  8
0
 10
192.5
 20
308
 11
192.531
 21
308.002
  0
LINE
  8
0
 10
192.531
 20
308.002
 11
192.562
 21
308.007
  0
LINE
  8
0
 10
192.562
 20
308.007
 11
192.593
 21
308.015
  0
LINE
  8
0
 10
192.593
 20
308.015
 11
192.622
 21
308.026
  0
LINE
  8
0
 10
192.622
 20
308.026
 11
192.65
 21
308.04
  0
LINE
  8
0
 10
192.65
 20
308.04
 11
192.676
 21
308.057
  0
LINE
  8
0
 10
192.676
 20
308.057
 11
192.701
 21
308.077
  0
LINE
  8
0
 10
192.701
 20
308.077
 11
192.723
 21
308.099
  0
LINE
  8
0
 10
192.723
 20
308.099
 11
192.743
 21
308.124
  0
LINE
  8
0
 10
192.743
 20
308.124
 11
192.76
 21
308.15
  0
LINE
  8
0
 10
192.76
 20
308.15
 11
192.774
 21
308.178
  0
LINE
  8
0
 10
192.774
 20
308.178
 11
192.785
 21
308.207
  0
LINE
  8
0
 10
192.785
 20
308.207
 11
192.793
 21
308.238
  0
LINE
  8
0
 10
192.793
 20
308.238
 11
192.798
 21
308.269
  0
LINE
  8
0
 10
192.798
 20
308.269
 11
192.8
 21
308.3
  0
LINE
  8
0
 10
192.8
 20
308.3
 11
192.798
 21
308.331
  0
LINE
  8
0
 10
192.798
 20
308.331
 11
192.793
 21
308.362
  0
LINE
  8
0
 10
192.793
 20
308.362
 11
192.785
 21
308.393
  0
LINE
  8
0
 10
192.785
 20
308.393
 11
192.774
 21
308.422
  0
LINE
  8
0
 10
192.774
 20
308.422
 11
192.76
 21
308.45
  0
LINE
  8
0
 10
192.76
 20
308.45
 11
192.743
 21
308.476
  0
LINE
  8
0
 10
192.743
 20
308.476
 11
192.723
 21
308.501
  0
LINE
  8
0
 10
192.723
 20
308.501
 11
192.701
 21
308.523
  0
LINE
  8
0
 10
192.701
 20
308.523
 11
192.676
 21
308.543
  0
LINE
  8
0
 10
192.676
 20
308.543
 11
192.65
 21
308.56
  0
LINE
  8
0
 10
192.65
 20
308.56
 11
192.622
 21
308.574
  0
LINE
  8
0
 10
192.622
 20
308.574
 11
192.593
 21
308.585
  0
LINE
  8
0
 10
192.593
 20
308.585
 11
192.562
 21
308.593
  0
LINE
  8
0
 10
192.562
 20
308.593
 11
192.531
 21
308.598
  0
LINE
  8
0
 10
192.531
 20
308.598
 11
192.5
 21
308.6
  0
LINE
  8
0
 10
192.5
 20
308.6
 11
192.5
 21
309.8
  0
LINE
  8
0
 10
192.5
 20
309.8
 11
192.236
 21
309.8
  0
LINE
  8
0
 10
192.236
 20
309.8
 11
192.084
 21
310.761
  0
LINE
  8
0
 10
192.084
 20
310.761
 11
191.568
 21
312.687
  0
LINE
  8
0
 10
191.568
 20
312.687
 11
190.853
 21
314.548
  0
LINE
  8
0
 10
190.853
 20
314.548
 11
189.948
 21
316.325
  0
LINE
  8
0
 10
189.948
 20
316.325
 11
188.862
 21
317.997
  0
LINE
  8
0
 10
188.862
 20
317.997
 11
187.607
 21
319.547
  0
LINE
  8
0
 10
187.607
 20
319.547
 11
186.197
 21
320.957
  0
LINE
  8
0
 10
186.197
 20
320.957
 11
184.647
 21
322.212
  0
LINE
  8
0
 10
184.647
 20
322.212
 11
182.975
 21
323.298
  0
LINE
  8
0
 10
182.975
 20
323.298
 11
181.198
 21
324.203
  0
LINE
  8
0
 10
181.198
 20
324.203
 11
179.337
 21
324.918
  0
LINE
  8
0
 10
179.337
 20
324.918
 11
177.411
 21
325.434
  0
LINE
  8
0
 10
177.411
 20
325.434
 11
175.441
 21
325.746
  0
LINE
  8
0
 10
175.441
 20
325.746
 11
173.45
 21
325.85
  0
LINE
  8
0
 10
173.45
 20
325.85
 11
171.459
 21
325.746
  0
LINE
  8
0
 10
171.459
 20
325.746
 11
169.489
 21
325.434
  0
LINE
  8
0
 10
169.489
 20
325.434
 11
167.563
 21
324.918
  0
LINE
  8
0
 10
167.563
 20
324.918
 11
165.702
 21
324.203
  0
LINE
  8
0
 10
165.702
 20
324.203
 11
163.925
 21
323.298
  0
LINE
  8
0
 10
163.925
 20
323.298
 11
162.253
 21
322.212
  0
LINE
  8
0
 10
162.253
 20
322.212
 11
160.703
 21
320.957
  0
LINE
  8
0
 10
160.703
 20
320.957
 11
159.293
 21
319.547
  0
LINE
  8
0
 10
159.293
 20
319.547
 11
158.038
 21
317.997
  0
LINE
  8
0
 10
158.038
 20
317.997
 11
156.952
 21
316.325
  0
LINE
  8
0
 10
156.952
 20
316.325
 11
156.047
 21
314.548
  0
LINE
  8
0
 10
156.047
 20
314.548
 11
155.332
 21
312.687
  0
LINE
  8
0
 10
155.332
 20
312.687
 11
154.816
 21
310.761
  0
LINE
  8
0
 10
154.816
 20
310.761
 11
154.664
 21
309.8
  0
LINE
  8
0
 10
154.664
 20
309.8
 11
154.4
 21
306.8
  0
LINE
  8
0
 10
154.4
 20
306.8
 11
116.3
 21
306.8
  0
LINE
  8
0
 10
116.3
 20
306.8
 11
116.3
 21
308
  0
LINE
  8
0
 10
116.3
 20
308
 11
116.331
 21
308.002
  0
LINE
  8
0
 10
116.331
 20
308.002
 11
116.362
 21
308.007
  0
LINE
  8
0
 10
116.362
 20
308.007
 11
116.393
 21
308.015
  0
LINE
  8
0
 10
116.393
 20
308.015
 11
116.422
 21
308.026
  0
LINE
  8
0
 10
116.422
 20
308.026
 11
116.45
 21
308.04
  0
LINE
  8
0
 10
116.45
 20
308.04
 11
116.476
 21
308.057
  0
LINE
  8
0
 10
116.476
 20
308.057
 11
116.501
 21
308.077
  0
LINE
  8
0
 10
116.501
 20
308.077
 11
116.523
 21
308.099
  0
LINE
  8
0
 10
116.523
 20
308.099
 11
116.543
 21
308.124
  0
LINE
  8
0
 10
116.543
 20
308.124
 11
116.56
 21
308.15
  0
LINE
  8
0
 10
116.56
 20
308.15
 11
116.574
 21
308.178
  0
LINE
  8
0
 10
116.574
 20
308.178
 11
116.585
 21
308.207
  0
LINE
  8
0
 10
116.585
 20
308.207
 11
116.593
 21
308.238
  0
LINE
  8
0
 10
116.593
 20
308.238
 11
116.598
 21
308.269
  0
LINE
  8
0
 10
116.598
 20
308.269
 11
116.6
 21
308.3
  0
LINE
  8
0
 10
116.6
 20
308.3
 11
116.598
 21
308.331
  0
LINE
  8
0
 10
116.598
 20
308.331
 11
116.593
 21
308.362
  0
LINE
  8
0
 10
116.593
 20
308.362
 11
116.585
 21
308.393
  0
LINE
  8
0
 10
116.585
 20
308.393
 11
116.574
 21
308.422
  0
LINE
  8
0
 10
116.574
 20
308.422
 11
116.56
 21
308.45
  0
LINE
  8
0
 10
116.56
 20
308.45
 11
116.543
 21
308.476
  0
LINE
  8
0
 10
116.543
 20
308.476
 11
116.523
 21
308.501
  0
LINE
  8
0
 10
116.523
 20
308.501
 11
116.501
 21
308.523
  0
LINE
  8
0
 10
116.501
 20
308.523
 11
116.476
 21
308.543
  0
LINE
  8
0
 10
116.476
 20
308.543
 11
116.45
 21
308.56
  0
LINE
  8
0
 10
116.45
 20
308.56
 11
116.422
 21
308.574
  0
LINE
  8
0
 10
116.422
 20
308.574
 11
116.393
 21
308.585
  0
LINE
  8
0
 10
116.393
 20
308.585
 11
116.362
 21
308.593
  0
LINE
  8
0
 10
116.362
 20
308.593
 11
116.331
 21
308.598
  0
LINE
  8
0
 10
116.331
 20
308.598
 11
116.3
 21
308.6
  0
LINE
  8
0
 10
116.3
 20
308.6
 11
116.3
 21
309.8
  0
LINE
  8
0
 10
116.3
 20
309.8
 11
116.036
 21
309.8
  0
LINE
  8
0
 10
116.036
 20
309.8
 11
115.884
 21
310.761
  0
LINE
  8
0
 10
115.884
 20
310.761
 11
115.368
 21
312.687
  0
LINE
  8
0
 10
115.368
 20
312.687
 11
114.653
 21
314.548
  0
LINE
  8
0
 10
114.653
 20
314.548
 11
113.748
 21
316.325
  0
LINE
  8
0
 10
113.748
 20
316.325
 11
112.662
 21
317.997
  0
LINE
  8
0
 10
112.662
 20
317.997
 11
111.407
 21
319.547
  0
LINE
  8
0
 10
111.407
 20
319.547
 11
109.997
 21
320.957
  0
LINE
  8
0
 10
109.997
 20
320.957
 11
108.447
 21
322.212
  0
LINE
  8
0
 10
108.447
 20
322.212
 11
106.775
 21
323.298
  0
LINE
  8
0
 10
106.775
 20
323.298
 11
104.998
 21
324.203
  0
LINE
  8
0
 10
104.998
 20
324.203
 11
103.137
 21
324.918
  0
LINE
  8
0
 10
103.137
 20
324.918
 11
101.211
 21
325.434
  0
LINE
  8
0
 10
101.211
 20
325.434
 11
99.2413
 21
325.746
  0
LINE
  8
0
 10
99.2413
 20
325.746
 11
97.25
 21
325.85
  0
LINE
  8
0
 10
97.25
 20
325.85
 11
95.2587
 21
325.746
  0
LINE
  8
0
 10
95.2587
 20
325.746
 11
93.2893
 21
325.434
  0
LINE
  8
0
 10
93.2893
 20
325.434
 11
91.3632
 21
324.918
  0
LINE
  8
0
 10
91.3632
 20
324.918
 11
89.5017
 21
324.203
  0
LINE
  8
0
 10
89.5017
 20
324.203
 11
87.725
 21
323.298
  0
LINE
  8
0
 10
87.725
 20
323.298
 11
86.0527
 21
322.212
  0
LINE
  8
0
 10
86.0527
 20
322.212
 11
84.5031
 21
320.957
  0
LINE
  8
0
 10
84.5031
 20
320.957
 11
83.0931
 21
319.547
  0
LINE
  8
0
 10
83.0931
 20
319.547
 11
81.8382
 21
317.997
  0
LINE
  8
0
 10
81.8382
 20
317.997
 11
80.7522
 21
316.325
  0
LINE
  8
0
 10
80.7522
 20
316.325
 11
79.847
 21
314.548
  0
LINE
  8
0
 10
79.847
 20
314.548
 11
79.1324
 21
312.687
  0
LINE
  8
0
 10
79.1324
 20
312.687
 11
78.6163
 21
310.761
  0
LINE
  8
0
 10
78.6163
 20
310.761
 11
78.4641
 21
309.8
  0
LINE
  8
0
 10
78.4641
 20
309.8
 11
78.2
 21
309.8
  0
LINE
  8
0
 10
78.2
 20
309.8
 11
78.2
 21
306.8
  0
LINE
  8
0
 10
78.2
 20
306.8
 11
40.1
 21
306.8
  0
LINE
  8
0
 10
40.1
 20
306.8
 11
40.1
 21
308
  0
LINE
  8
0
 10
40.1
 20
308
 11
40.1313
 21
308.002
  0
LINE
  8
0
 10
40.1313
 20
308.002
 11
40.1624
 21
308.007
  0
LINE
  8
0
 10
40.1624
 20
308.007
 11
40.1927
 21
308.015
  0
LINE
  8
0
 10
40.1927
 20
308.015
 11
40.222
 21
308.026
  0
LINE
  8
0
 10
40.222
 20
308.026
 11
40.25
 21
308.04
  0
LINE
  8
0
 10
40.25
 20
308.04
 11
40.2763
 21
308.057
  0
LINE
  8
0
 10
40.2763
 20
308.057
 11
40.3007
 21
308.077
  0
LINE
  8
0
 10
40.3007
 20
308.077
 11
40.3229
 21
308.099
  0
LINE
  8
0
 10
40.3229
 20
308.099
 11
40.3427
 21
308.124
  0
LINE
  8
0
 10
40.3427
 20
308.124
 11
40.3598
 21
308.15
  0
LINE
  8
0
 10
40.3598
 20
308.15
 11
40.3741
 21
308.178
  0
LINE
  8
0
 10
40.3741
 20
308.178
 11
40.3853
 21
308.207
  0
LINE
  8
0
 10
40.3853
 20
308.207
 11
40.3934
 21
308.238
  0
LINE
  8
0
 10
40.3934
 20
308.238
 11
40.3983
 21
308.269
  0
LINE
  8
0
 10
40.3983
 20
308.269
 11
40.4
 21
308.3
  0
LINE
  8
0
 10
40.4
 20
308.3
 11
40.3983
 21
308.331
  0
LINE
  8
0
 10
40.3983
 20
308.331
 11
40.3934
 21
308.362
  0
LINE
  8
0
 10
40.3934
 20
308.362
 11
40.3853
 21
308.393
  0
LINE
  8
0
 10
40.3853
 20
308.393
 11
40.3741
 21
308.422
  0
LINE
  8
0
 10
40.3741
 20
308.422
 11
40.3598
 21
308.45
  0
LINE
  8
0
 10
40.3598
 20
308.45
 11
40.3427
 21
308.476
  0
LINE
  8
0
 10
40.3427
 20
308.476
 11
40.3229
 21
308.501
  0
LINE
  8
0
 10
40.3229
 20
308.501
 11
40.3007
 21
308.523
  0
LINE
  8
0
 10
40.3007
 20
308.523
 11
40.2763
 21
308.543
  0
LINE
  8
0
 10
40.2763
 20
308.543
 11
40.25
 21
308.56
  0
LINE
  8
0
 10
40.25
 20
308.56
 11
40.222
 21
308.574
  0
LINE
  8
0
 10
40.222
 20
308.574
 11
40.1927
 21
308.585
  0
LINE
  8
0
 10
40.1927
 20
308.585
 11
40.1624
 21
308.593
  0
LINE
  8
0
 10
40.1624
 20
308.593
 11
40.1313
 21
308.598
  0
LINE
  8
0
 10
40.1313
 20
308.598
 11
40.1
 21
308.6
  0
LINE
  8
0
 10
40.1
 20
308.6
 11
40.1
 21
309.8
  0
LINE
  8
0
 10
40.1
 20
309.8
 11
39.8359
 21
309.8
  0
LINE
  8
0
 10
39.8359
 20
309.8
 11
39.6837
 21
310.761
  0
LINE
  8
0
 10
39.6837
 20
310.761
 11
39.1676
 21
312.687
  0
LINE
  8
0
 10
39.1676
 20
312.687
 11
38.453
 21
314.548
  0
LINE
  8
0
 10
38.453
 20
314.548
 11
37.5478
 21
316.325
  0
LINE
  8
0
 10
37.5478
 20
316.325
 11
36.4618
 21
317.997
  0
LINE
  8
0
 10
36.4618
 20
317.997
 11
35.2069
 21
319.547
  0
LINE
  8
0
 10
35.2069
 20
319.547
 11
33.7969
 21
320.957
  0
LINE
  8
0
 10
33.7969
 20
320.957
 11
32.2473
 21
322.212
  0
LINE
  8
0
 10
32.2473
 20
322.212
 11
30.575
 21
323.298
  0
LINE
  8
0
 10
30.575
 20
323.298
 11
28.7983
 21
324.203
  0
LINE
  8
0
 10
28.7983
 20
324.203
 11
26.9368
 21
324.918
  0
LINE
  8
0
 10
26.9368
 20
324.918
 11
25.0107
 21
325.434
  0
LINE
  8
0
 10
25.0107
 20
325.434
 11
23.0413
 21
325.746
  0
LINE
  8
0
 10
23.0413
 20
325.746
 11
21.05
 21
325.85
  0
LINE
  8
0
 10
21.05
 20
325.85
 11
19.0587
 21
325.746
  0
LINE
  8
0
 10
19.0587
 20
325.746
 11
17.0893
 21
325.434
  0
LINE
  8
0
 10
17.0893
 20
325.434
 11
15.1632
 21
324.918
  0
LINE
  8
0
 10
15.1632
 20
324.918
 11
13.3017
 21
324.203
  0
LINE
  8
0
 10
13.3017
 20
324.203
 11
11.525
 21
323.298
  0
LINE
  8
0
 10
11.525
 20
323.298
 11
9.85268
 21
322.212
  0
LINE
  8
0
 10
9.85268
 20
322.212
 11
8.30305
 21
320.957
  0
LINE
  8
0
 10
8.30305
 20
320.957
 11
6.89308
 21
319.547
  0
LINE
  8
0
 10
6.89308
 20
319.547
 11
5.63821
 21
317.997
  0
LINE
  8
0
 10
5.63821
 20
317.997
 11
4.55222
 21
316.325
  0
LINE
  8
0
 10
4.55222
 20
316.325
 11
3.64696
 21
314.548
  0
LINE
  8
0
 10
3.64696
 20
314.548
 11
2.93237
 21
312.687
  0
LINE
  8
0
 10
2.93237
 20
312.687
 11
2.41628
 21
310.761
  0
LINE
  8
0
 10
2.41628
 20
310.761
 11
2.26411
 21
309.8
  0
LINE
  8
0
 10
2.26411
 20
309.8
 11
2
 21
309.8
  0
LINE
  8
0
 10
2
 20
309.8
 11
2
 21
268.7
  0
LINE
  8
0
 10
2
 20
268.7
 11
0.800003
 21
268.7
  0
LINE
  8
0
 10
0.800003
 20
268.7
 11
0.79837
 21
268.731
  0
LINE
  8
0
 10
0.79837
 20
268.731
 11
0.793457
 21
268.762
  0
LINE
  8
0
 10
0.793457
 20
268.762
 11
0.785324
 21
268.793
  0
LINE
  8
0
 10
0.785324
 20
268.793
 11
0.774078
 21
268.822
  0
LINE
  8
0
 10
0.774078
 20
268.822
 11
0.759811
 21
268.85
  0
LINE
  8
0
 10
0.759811
 20
268.85
 11
0.742706
 21
268.876
  0
LINE
  8
0
 10
0.742706
 20
268.876
 11
0.722946
 21
268.901
  0
LINE
  8
0
 10
0.722946
 20
268.901
 11
0.700745
 21
268.923
  0
LINE
  8
0
 10
0.700745
 20
268.923
 11
0.676346
 21
268.943
  0
LINE
  8
0
 10
0.676346
 20
268.943
 11
0.650009
 21
268.96
  0
LINE
  8
0
 10
0.650009
 20
268.96
 11
0.622025
 21
268.974
  0
LINE
  8
0
 10
0.622025
 20
268.974
 11
0.592712
 21
268.985
  0
LINE
  8
0
 10
0.592712
 20
268.985
 11
0.562378
 21
268.993
  0
LINE
  8
0
 10
0.562378
 20
268.993
 11
0.531372
 21
268.998
  0
LINE
  8
0
 10
0.531372
 20
268.998
 11
0.5
 21
269
  0
LINE
  8
0
 10
0.5
 20
269
 11
0.468643
 21
268.998
  0
LINE
  8
0
 10
0.468643
 20
268.998
 11
0.437637
 21
268.993
  0
LINE
  8
0
 10
0.437637
 20
268.993
 11
0.407303
 21
268.985
  0
LINE
  8
0
 10
0.407303
 20
268.985
 11
0.377991
 21
268.974
  0
LINE
  8
0
 10
0.377991
 20
268.974
 11
0.350006
 21
268.96
  0
LINE
  8
0
 10
0.350006
 20
268.96
 11
0.323669
 21
268.943
  0
LINE
  8
0
 10
0.323669
 20
268.943
 11
0.299271
 21
268.923
  0
LINE
  8
0
 10
0.299271
 20
268.923
 11
0.277069
 21
268.901
  0
LINE
  8
0
 10
0.277069
 20
268.901
 11
0.257309
 21
268.876
  0
LINE
  8
0
 10
0.257309
 20
268.876
 11
0.240204
 21
268.85
  0
LINE
  8
0
 10
0.240204
 20
268.85
 11
0.225937
 21
268.822
  0
LINE
  8
0
 10
0.225937
 20
268.822
 11
0.214691
 21
268.793
  0
LINE
  8
0
 10
0.214691
 20
268.793
 11
0.206558
 21
268.762
  0
LINE
  8
0
 10
0.206558
 20
268.762
 11
0.201645
 21
268.731
  0
LINE
  8
0
 10
0.201645
 20
268.731
 11
0.200012
 21
268.7
  0
LINE
  8
0
 10
0.200012
 20
268.7
 11
-1
 21
268.7
  0
LINE
  8
0
 10
-1
 20
268.7
 11
-1
 21
268.436
  0
LINE
  8
0
 10
-1
 20
268.436
 11
-1.96071
 21
268.284
  0
LINE
  8
0
 10
-1.96071
 20
268.284
 11
-3.88676
 21
267.768
  0
LINE
  8
0
 10
-3.88676
 20
267.768
 11
-5.74832
 21
267.053
  0
LINE
  8
0
 10
-5.74832
 20
267.053
 11
-7.52499
 21
266.148
  0
LINE
  8
0
 10
-7.52499
 20
266.148
 11
-9.1973
 21
265.062
  0
LINE
  8
0
 10
-9.1973
 20
265.062
 11
-10.7469
 21
263.807
  0
LINE
  8
0
 10
-10.7469
 20
263.807
 11
-12.1569
 21
262.397
  0
LINE
  8
0
 10
-12.1569
 20
262.397
 11
-13.4118
 21
260.847
  0
LINE
  8
0
 10
-13.4118
 20
260.847
 11
-14.4978
 21
259.175
  0
LINE
  8
0
 10
-14.4978
 20
259.175
 11
-15.403
 21
257.398
  0
LINE
  8
0
 10
-15.403
 20
257.398
 11
-16.1176
 21
255.537
  0
LINE
  8
0
 10
-16.1176
 20
255.537
 11
-16.6337
 21
253.611
  0
LINE
  8
0
 10
-16.6337
 20
253.611
 11
-16.9456
 21
251.641
  0
LINE
  8
0
 10
-16.9456
 20
251.641
 11
-17.05
 21
249.65
  0
LINE
  8
0
 10
-17.05
 20
249.65
 11
-16.9456
 21
247.659
  0
LINE
  8
0
 10
-16.9456
 20
247.659
 11
-16.6337
 21
245.689
  0
LINE
  8
0
 10
-16.6337
 20
245.689
 11
-16.1176
 21
243.763
  0
LINE
  8
0
 10
-16.1176
 20
243.763
 11
-15.403
 21
241.902
  0
LINE
  8
0
 10
-15.403
 20
241.902
 11
-14.4978
 21
240.125
  0
LINE
  8
0
 10
-14.4978
 20
240.125
 11
-13.4118
 21
238.453
  0
LINE
  8
0
 10
-13.4118
 20
238.453
 11
-12.1569
 21
236.903
  0
LINE
  8
0
 10
-12.1569
 20
236.903
 11
-10.7469
 21
235.493
  0
LINE
  8
0
 10
-10.7469
 20
235.493
 11
-9.1973
 21
234.238
  0
LINE
  8
0
 10
-9.1973
 20
234.238
 11
-7.52499
 21
233.152
  0
LINE
  8
0
 10
-7.52499
 20
233.152
 11
-5.74832
 21
232.247
  0
LINE
  8
0
 10
-5.74832
 20
232.247
 11
-3.88676
 21
231.532
  0
LINE
  8
0
 10
-3.88676
 20
231.532
 11
-1.96071
 21
231.016
  0
LINE
  8
0
 10
-1.96071
 20
231.016
 11
-1
 21
230.864
  0
LINE
  8
0
 10
-1
 20
230.864
 11
-1
 21
230.6
  0
LINE
  8
0
 10
-1
 20
230.6
 11
2
 21
230.6
  0
LINE
  8
0
 10
2
 20
230.6
 11
2
 21
192.5
  0
LINE
  8
0
 10
2
 20
192.5
 11
0.800003
 21
192.5
  0
LINE
  8
0
 10
0.800003
 20
192.5
 11
0.79837
 21
192.531
  0
LINE
  8
0
 10
0.79837
 20
192.531
 11
0.793457
 21
192.562
  0
LINE
  8
0
 10
0.793457
 20
192.562
 11
0.785324
 21
192.593
  0
LINE
  8
0
 10
0.785324
 20
192.593
 11
0.774078
 21
192.622
  0
LINE
  8
0
 10
0.774078
 20
192.622
 11
0.759811
 21
192.65
  0
LINE
  8
0
 10
0.759811
 20
192.65
 11
0.742706
 21
192.676
  0
LINE
  8
0
 10
0.742706
 20
192.676
 11
0.722946
 21
192.701
  0
LINE
  8
0
 10
0.722946
 20
192.701
 11
0.700745
 21
192.723
  0
LINE
  8
0
 10
0.700745
 20
192.723
 11
0.676346
 21
192.743
  0
LINE
  8
0
 10
0.676346
 20
192.743
 11
0.650009
 21
192.76
  0
LINE
  8
0
 10
0.650009
 20
192.76
 11
0.622025
 21
192.774
  0
LINE
  8
0
 10
0.622025
 20
192.774
 11
0.592712
 21
192.785
  0
LINE
  8
0
 10
0.592712
 20
192.785
 11
0.562378
 21
192.793
  0
LINE
  8
0
 10
0.562378
 20
192.793
 11
0.531372
 21
192.798
  0
LINE
  8
0
 10
0.531372
 20
192.798
 11
0.5
 21
192.8
  0
LINE
  8
0
 10
0.5
 20
192.8
 11
0.468643
 21
192.798
  0
LINE
  8
0
 10
0.468643
 20
192.798
 11
0.437637
 21
192.793
  0
LINE
  8
0
 10
0.437637
 20
192.793
 11
0.407303
 21
192.785
  0
LINE
  8
0
 10
0.407303
 20
192.785
 11
0.377991
 21
192.774
  0
LINE
  8
0
 10
0.377991
 20
192.774
 11
0.350006
 21
192.76
  0
LINE
  8
0
 10
0.350006
 20
192.76
 11
0.323669
 21
192.743
  0
LINE
  8
0
 10
0.323669
 20
192.743
 11
0.299271
 21
192.723
  0
LINE
  8
0
 10
0.299271
 20
192.723
 11
0.277069
 21
192.701
  0
LINE
  8
0
 10
0.277069
 20
192.701
 11
0.257309
 21
192.676
  0
LINE
  8
0
 10
0.257309
 20
192.676
 11
0.240204
 21
192.65
  0
LINE
  8
0
 10
0.240204
 20
192.65
 11
0.225937
 21
192.622
  0
LINE
  8
0
 10
0.225937
 20
192.622
 11
0.214691
 21
192.593
  0
LINE
  8
0
 10
0.214691
 20
192.593
 11
0.206558
 21
192.562
  0
LINE
  8
0
 10
0.206558
 20
192.562
 11
0.201645
 21
192.531
  0
LINE
  8
0
 10
0.201645
 20
192.531
 11
0.200012
 21
192.5
  0
LINE
  8
0
 10
0.200012
 20
192.5
 11
-1
 21
192.5
  0
LINE
  8
0
 10
-1
 20
192.5
 11
-1
 21
192.236
  0
LINE
  8
0
 10
-1
 20
192.236
 11
-1.96071
 21
192.084
  0
LINE
  8
0
 10
-1.96071
 20
192.084
 11
-3.88676
 21
191.568
  0
LINE
  8
0
 10
-3.88676
 20
191.568
 11
-5.74832
 21
190.853
  0
LINE
  8
0
 10
-5.74832
 20
190.853
 11
-7.52499
 21
189.948
  0
LINE
  8
0
 10
-7.52499
 20
189.948
 11
-9.1973
 21
188.862
  0
LINE
  8
0
 10
-9.1973
 20
188.862
 11
-10.7469
 21
187.607
  0
LINE
  8
0
 10
-10.7469
 20
187.607
 11
-12.1569
 21
186.197
  0
LINE
  8
0
 10
-12.1569
 20
186.197
 11
-13.4118
 21
184.647
  0
LINE
  8
0
 10
-13.4118
 20
184.647
 11
-14.4978
 21
182.975
  0
LINE
  8
0
 10
-14.4978
 20
182.975
 11
-15.403
 21
181.198
  0
LINE
  8
0
 10
-15.403
 20
181.198
 11
-16.1176
 21
179.337
  0
LINE
  8
0
 10
-16.1176
 20
179.337
 11
-16.6337
 21
177.411
  0
LINE
  8
0
 10
-16.6337
 20
177.411
 11
-16.9456
 21
175.441
  0
LINE
  8
0
 10
-16.9456
 20
175.441
 11
-17.05
 21
173.45
  0
LINE
  8
0
 10
-17.05
 20
173.45
 11
-16.9456
 21
171.459
  0
LINE
  8
0
 10
-16.9456
 20
171.459
 11
-16.6337
 21
169.489
  0
LINE
  8
0
 10
-16.6337
 20
169.489
 11
-16.1176
 21
167.563
  0
LINE
  8
0
 10
-16.1176
 20
167.563
 11
-15.403
 21
165.702
  0
LINE
  8
0
 10
-15.403
 20
165.702
 11
-14.4978
 21
163.925
  0
LINE
  8
0
 10
-14.4978
 20
163.925
 11
-13.4118
 21
162.253
  0
LINE
  8
0
 10
-13.4118
 20
162.253
 11
-12.1569
 21
160.703
  0
LINE
  8
0
 10
-12.1569
 20
160.703
 11
-10.7469
 21
159.293
  0
LINE
  8
0
 10
-10.7469
 20
159.293
 11
-9.1973
 21
158.038
  0
LINE
  8
0
 10
-9.1973
 20
158.038
 11
-7.52499
 21
156.952
  0
LINE
  8
0
 10
-7.52499
 20
156.952
 11
-5.74832
 21
156.047
  0
LINE
  8
0
 10
-5.74832
 20
156.047
 11
-3.88676
 21
155.332
  0
LINE
  8
0
 10
-3.88676
 20
155.332
 11
-1.96071
 21
154.816
  0
LINE
  8
0
 10
-1.96071
 20
154.816
 11
-1
 21
154.664
  0
LINE
  8
0
 10
-1
 20
154.664
 11
-1
 21
154.4
  0
LINE
  8
0
 10
-1
 20
154.4
 11
2
 21
154.4
  0
LINE
  8
0
 10
2
 20
154.4
 11
2
 21
116.3
  0
LINE
  8
0
 10
2
 20
116.3
 11
0.800003
 21
116.3
  0
LINE
  8
0
 10
0.800003
 20
116.3
 11
0.79837
 21
116.331
  0
LINE
  8
0
 10
0.79837
 20
116.331
 11
0.793457
 21
116.362
  0
LINE
  8
0
 10
0.793457
 20
116.362
 11
0.785324
 21
116.393
  0
LINE
  8
0
 10
0.785324
 20
116.393
 11
0.774078
 21
116.422
  0
LINE
  8
0
 10
0.774078
 20
116.422
 11
0.759811
 21
116.45
  0
LINE
  8
0
 10
0.759811
 20
116.45
 11
0.742706
 21
116.476
  0
LINE
  8
0
 10
0.742706
 20
116.476
 11
0.722946
 21
116.501
  0
LINE
  8
0
 10
0.722946
 20
116.501
 11
0.700745
 21
116.523
  0
LINE
  8
0
 10
0.700745
 20
116.523
 11
0.676346
 21
116.543
  0
LINE
  8
0
 10
0.676346
 20
116.543
 11
0.650009
 21
116.56
  0
LINE
  8
0
 10
0.650009
 20
116.56
 11
0.622025
 21
116.574
  0
LINE
  8
0
 10
0.622025
 20
116.574
 11
0.592712
 21
116.585
  0
LINE
  8
0
 10
0.592712
 20
116.585
 11
0.562378
 21
116.593
  0
LINE
  8
0
 10
0.562378
 20
116.593
 11
0.531372
 21
116.598
  0
LINE
  8
0
 10
0.531372
 20
116.598
 11
0.5
 21
116.6
  0
LINE
  8
0
 10
0.5
 20
116.6
 11
0.468643
 21
116.598
  0
LINE
  8
0
 10
0.468643
 20
116.598
 11
0.437637
 21
116.593
  0
LINE
  8
0
 10
0.437637
 20
116.593
 11
0.407303
 21
116.585
  0
LINE
  8
0
 10
0.407303
 20
116.585
 11
0.377991
 21
116.574
  0
LINE
  8
0
 10
0.377991
 20
116.574
 11
0.350006
 21
116.56
  0
LINE
  8
0
 10
0.350006
 20
116.56
 11
0.323669
 21
116.543
  0
LINE
  8
0
 10
0.323669
 20
116.543
 11
0.299271
 21
116.523
  0
LINE
  8
0
 10
0.299271
 20
116.523
 11
0.277069
 21
116.501
  0
LINE
  8
0
 10
0.277069
 20
116.501
 11
0.257309
 21
116.476
  0
LINE
  8
0
 10
0.257309
 20
116.476
 11
0.240204
 21
116.45
  0
LINE
  8
0
 10
0.240204
 20
116.45
 11
0.225937
 21
116.422
  0
LINE
  8
0
 10
0.225937
 20
116.422
 11
0.214691
 21
116.393
  0
LINE
  8
0
 10
0.214691
 20
116.393
 11
0.206558
 21
116.362
  0
LINE
  8
0
 10
0.206558
 20
116.362
 11
0.201645
 21
116.331
  0
LINE
  8
0
 10
0.201645
 20
116.331
 11
0.200012
 21
116.3
  0
LINE
  8
0
 10
0.200012
 20
116.3
 11
-1
 21
116.3
  0
LINE
  8
0
 10
-1
 20
116.3
 11
-1
 21
116.036
  0
LINE
  8
0
 10
-1
 20
116.036
 11
-1.96071
 21
115.884
  0
LINE
  8
0
 10
-1.96071
 20
115.884
 11
-3.88676
 21
115.368
  0
LINE
  8
0
 10
-3.88676
 20
115.368
 11
-5.74832
 21
114.653
  0
LINE
  8
0
 10
-5.74832
 20
114.653
 11
-7.52499
 21
113.748
  0
LINE
  8
0
 10
-7.52499
 20
113.748
 11
-9.1973
 21
112.662
  0
LINE
  8
0
 10
-9.1973
 20
112.662
 11
-10.7469
 21
111.407
  0
LINE
  8
0
 10
-10.7469
 20
111.407
 11
-12.1569
 21
109.997
  0
LINE
  8
0
 10
-12.1569
 20
109.997
 11
-13.4118
 21
108.447
  0
LINE
  8
0
 10
-13.4118
 20
108.447
 11
-14.4978
 21
106.775
  0
LINE
  8
0
 10
-14.4978
 20
106.775
 11
-15.403
 21
104.998
  0
LINE
  8
0
 10
-15.403
 20
104.998
 11
-16.1176
 21
103.137
  0
LINE
  8
0
 10
-16.1176
 20
103.137
 11
-16.6337
 21
101.211
  0
LINE
  8
0
 10
-16.6337
 20
101.211
 11
-16.9456
 21
99.2413
  0
LINE
  8
0
 10
-16.9456
 20
99.2413
 11
-17.05
 21
97.25
  0
LINE
  8
0
 10
-17.05
 20
97.25
 11
-16.9456
 21
95.2587
  0
LINE
  8
0
 10
-16.9456
 20
95.2587
 11
-16.6337
 21
93.2893
  0
LINE
  8
0
 10
-16.6337
 20
93.2893
 11
-16.1176
 21
91.3632
  0
LINE
  8
0
 10
-16.1176
 20
91.3632
 11
-15.403
 21
89.5017
  0
LINE
  8
0
 10
-15.403
 20
89.5017
 11
-14.4978
 21
87.725
  0
LINE
  8
0
 10
-14.4978
 20
87.725
 11
-13.4118
 21
86.0527
  0
LINE
  8
0
 10
-13.4118
 20
86.0527
 11
-12.1569
 21
84.5031
  0
LINE
  8
0
 10
-12.1569
 20
84.5031
 11
-10.7469
 21
83.0931
  0
LINE
  8
0
 10
-10.7469
 20
83.0931
 11
-9.1973
 21
81.8382
  0
LINE
  8
0
 10
-9.1973
 20
81.8382
 11
-7.52499
 21
80.7522
  0
LINE
  8
0
 10
-7.52499
 20
80.7522
 11
-5.74832
 21
79.847
  0
LINE
  8
0
 10
-5.74832
 20
79.847
 11
-3.88676
 21
79.1324
  0
LINE
  8
0
 10
-3.88676
 20
79.1324
 11
-1.96071
 21
78.6163
  0
LINE
  8
0
 10
-1.96071
 20
78.6163
 11
-1
 21
78.4641
  0
LINE
  8
0
 10
-1
 20
78.4641
 11
-1
 21
78.2
  0
LINE
  8
0
 10
-1
 20
78.2
 11
2
 21
78.2
  0
LINE
  8
0
 10
2
 20
78.2
 11
2
 21
40.1
  0
LINE
  8
0
 10
2
 20
40.1
 11
0.800003
 21
40.1
  0
LINE
  8
0
 10
0.800003
 20
40.1
 11
0.79837
 21
40.1313
  0
LINE
  8
0
 10
0.79837
 20
40.1313
 11
0.793457
 21
40.1624
  0
LINE
  8
0
 10
0.793457
 20
40.1624
 11
0.785324
 21
40.1927
  0
LINE
  8
0
 10
0.785324
 20
40.1927
 11
0.774078
 21
40.222
  0
LINE
  8
0
 10
0.774078
 20
40.222
 11
0.759811
 21
40.25
  0
LINE
  8
0
 10
0.759811
 20
40.25
 11
0.742706
 21
40.2763
  0
LINE
  8
0
 10
0.742706
 20
40.2763
 11
0.722946
 21
40.3007
  0
LINE
  8
0
 10
0.722946
 20
40.3007
 11
0.700745
 21
40.3229
  0
LINE
  8
0
 10
0.700745
 20
40.3229
 11
0.676346
 21
40.3427
  0
LINE
  8
0
 10
0.676346
 20
40.3427
 11
0.650009
 21
40.3598
  0
LINE
  8
0
 10
0.650009
 20
40.3598
 11
0.622025
 21
40.3741
  0
LINE
  8
0
 10
0.622025
 20
40.3741
 11
0.592712
 21
40.3853
  0
LINE
  8
0
 10
0.592712
 20
40.3853
 11
0.562378
 21
40.3934
  0
LINE
  8
0
 10
0.562378
 20
40.3934
 11
0.531372
 21
40.3983
  0
LINE
  8
0
 10
0.531372
 20
40.3983
 11
0.5
 21
40.4
  0
LINE
  8
0
 10
0.5
 20
40.4
 11
0.468643
 21
40.3983
  0
LINE
  8
0
 10
0.468643
 20
40.3983
 11
0.437637
 21
40.3934
  0
LINE
  8
0
 10
0.437637
 20
40.3934
 11
0.407303
 21
40.3853
  0
LINE
  8
0
 10
0.407303
 20
40.3853
 11
0.377991
 21
40.3741
  0
LINE
  8
0
 10
0.377991
 20
40.3741
 11
0.350006
 21
40.3598
  0
LINE
  8
0
 10
0.350006
 20
40.3598
 11
0.323669
 21
40.3427
  0
LINE
  8
0
 10
0.323669
 20
40.3427
 11
0.299271
 21
40.3229
  0
LINE
  8
0
 10
0.299271
 20
40.3229
 11
0.277069
 21
40.3007
  0
LINE
  8
0
 10
0.277069
 20
40.3007
 11
0.257309
 21
40.2763
  0
LINE
  8
0
 10
0.257309
 20
40.2763
 11
0.240204
 21
40.25
  0
LINE
  8
0
 10
0.240204
 20
40.25
 11
0.225937
 21
40.222
  0
LINE
  8
0
 10
0.225937
 20
40.222
 11
0.214691
 21
40.1927
  0
LINE
  8
0
 10
0.214691
 20
40.1927
 11
0.206558
 21
40.1624
  0
LINE
  8
0
 10
0.206558
 20
40.1624
 11
0.201645
 21
40.1313
  0
LINE
  8
0
 10
0.201645
 20
40.1313
 11
0.200012
 21
40.1
  0
LINE
  8
0
 10
0.200012
 20
40.1
 11
-1
 21
40.1
  0
LINE
  8
0
 10
-1
 20
40.1
 11
-1
 21
39.8359
  0
LINE
  8
0
 10
-1
 20
39.8359
 11
-1.96071
 21
39.6837
  0
LINE
  8
0
 10
-1.96071
 20
39.6837
 11
-3.88676
 21
39.1676
  0
LINE
  8
0
 10
-3.88676
 20
39.1676
 11
-5.74832
 21
38.453
  0
LINE
  8
0
 10
-5.74832
 20
38.453
 11
-7.52499
 21
37.5478
  0
LINE
  8
0
 10
-7.52499
 20
37.5478
 11
-9.1973
 21
36.4618
  0
LINE
  8
0
 10
-9.1973
 20
36.4618
 11
-10.7469
 21
35.2069
  0
LINE
  8
0
 10
-10.7469
 20
35.2069
 11
-12.1569
 21
33.7969
  0
LINE
  8
0
 10
-12.1569
 20
33.7969
 11
-13.4118
 21
32.2473
  0
LINE
  8
0
 10
-13.4118
 20
32.2473
 11
-14.4978
 21
30.575
  0
LINE
  8
0
 10
-14.4978
 20
30.575
 11
-15.403
 21
28.7983
  0
LINE
  8
0
 10
-15.403
 20
28.7983
 11
-16.1176
 21
26.9368
  0
LINE
  8
0
 10
-16.1176
 20
26.9368
 11
-16.6337
 21
25.0107
  0
LINE
  8
0
 10
-16.6337
 20
25.0107
 11
-16.9456
 21
23.0413
  0
LINE
  8
0
 10
-16.9456
 20
23.0413
 11
-17.05
 21
21.05
  0
LINE
  8
0
 10
-17.05
 20
21.05
 11
-16.9456
 21
19.0587
  0
LINE
  8
0
 10
-16.9456
 20
19.0587
 11
-16.6337
 21
17.0893
  0
LINE
  8
0
 10
-16.6337
 20
17.0893
 11
-16.1176
 21
15.1632
  0
LINE
  8
0
 10
-16.1176
 20
15.1632
 11
-15.403
 21
13.3017
  0
LINE
  8
0
 10
-15.403
 20
13.3017
 11
-14.4978
 21
11.525
  0
LINE
  8
0
 10
-14.4978
 20
11.525
 11
-13.4118
 21
9.85268
  0
LINE
  8
0
 10
-13.4118
 20
9.85268
 11
-12.1569
 21
8.30305
  0
LINE
  8
0
 10
-12.1569
 20
8.30305
 11
-10.7469
 21
6.89308
  0
LINE
  8
0
 10
-10.7469
 20
6.89308
 11
-9.1973
 21
5.63821
  0
LINE
  8
0
 10
-9.1973
 20
5.63821
 11
-7.52499
 21
4.55222
  0
LINE
  8
0
 10
-7.52499
 20
4.55222
 11
-5.74832
 21
3.64696
  0
LINE
  8
0
 10
-5.74832
 20
3.64696
 11
-3.88676
 21
2.93237
  0
LINE
  8
0
 10
-3.88676
 20
2.93237
 11
-1.96071
 21
2.41628
  0
LINE
  8
0
 10
-1.96071
 20
2.41628
 11
-1
 21
2.26411
  0
LINE
  8
0
 10
-1
 20
2.26411
 11
-1
 21
2
  0
LINE
  8
0
 10
-1
 20
2
 11
40.1
 21
2
  0
LINE
  8
0
 10
40.1
 20
2
 11
40.1
 21
0.800003
  0
LINE
  8
0
 10
40.1
 20
0.800003
 11
40.0686
 21
0.79837
  0
LINE
  8
0
 10
40.0686
 20
0.79837
 11
40.0376
 21
0.793457
  0
LINE
  8
0
 10
40.0376
 20
0.793457
 11
40.0073
 21
0.785324
  0
LINE
  8
0
 10
40.0073
 20
0.785324
 11
39.978
 21
0.774078
  0
LINE
  8
0
 10
39.978
 20
0.774078
 11
39.95
 21
0.759811
  0
LINE
  8
0
 10
39.95
 20
0.759811
 11
39.9237
 21
0.742706
  0
LINE
  8
0
 10
39.9237
 20
0.742706
 11
39.8993
 21
0.722946
  0
LINE
  8
0
 10
39.8993
 20
0.722946
 11
39.877
 21
0.700745
  0
LINE
  8
0
 10
39.877
 20
0.700745
 11
39.8573
 21
0.676346
  0
LINE
  8
0
 10
39.8573
 20
0.676346
 11
39.8402
 21
0.650009
  0
LINE
  8
0
 10
39.8402
 20
0.650009
 11
39.8259
 21
0.622025
  0
LINE
  8
0
 10
39.8259
 20
0.622025
 11
39.8147
 21
0.592712
  0
LINE
  8
0
 10
39.8147
 20
0.592712
 11
39.8065
 21
0.562378
  0
LINE
  8
0
 10
39.8065
 20
0.562378
 11
39.8016
 21
0.531372
  0
LINE
  8
0
 10
39.8016
 20
0.531372
 11
39.8
 21
0.5
  0
LINE
  8
0
 10
39.8
 20
0.5
 11
39.8016
 21
0.468643
  0
LINE
  8
0
 10
39.8016
 20
0.468643
 11
39.8065
 21
0.437637
  0
LINE
  8
0
 10
39.8065
 20
0.437637
 11
39.8147
 21
0.407303
  0
LINE
  8
0
 10
39.8147
 20
0.407303
 11
39.8259
 21
0.377991
  0
LINE
  8
0
 10
39.8259
 20
0.377991
 11
39.8402
 21
0.350006
  0
LINE
  8
0
 10
39.8402
 20
0.350006
 11
39.8573
 21
0.323669
  0
LINE
  8
0
 10
39.8573
 20
0.323669
 11
39.877
 21
0.299271
  0
LINE
  8
0
 10
39.877
 20
0.299271
 11
39.8993
 21
0.277069
  0
LINE
  8
0
 10
39.8993
 20
0.277069
 11
39.9237
 21
0.257309
  0
LINE
  8
0
 10
39.9237
 20
0.257309
 11
39.95
 21
0.240204
  0
LINE
  8
0
 10
39.95
 20
0.240204
 11
39.978
 21
0.225937
  0
LINE
  8
0
 10
39.978
 20
0.225937
 11
40.0073
 21
0.214691
  0
LINE
  8
0
 10
40.0073
 20
0.214691
 11
40.0376
 21
0.206558
  0
LINE
  8
0
 10
40.0376
 20
0.206558
 11
40.0686
 21
0.201645
  0
LINE
  8
0
 10
40.0686
 20
0.201645
 11
40.1
 21
0.200012
  0
LINE
  8
0
 10
40.1
 20
0.200012
 11
40.1
 21
-1
  0
LINE
  8
0
 10
40.1
 20
-1
 11
40.3641
 21
-1
  0
LINE
  8
0
 10
40.3641
 20
-1
 11
40.5163
 21
-1.96071
  0
LINE
  8
0
 10
40.5163
 20
-1.96071
 11
41.0324
 21
-3.88676
  0
LINE
  8
0
 10
41.0324
 20
-3.88676
 11
41.7469
 21
-5.74832
  0
LINE
  8
0
 10
41.7469
 20
-5.74832
 11
42.6522
 21
-7.52499
  0
LINE
  8
0
 10
42.6522
 20
-7.52499
 11
43.7382
 21
-9.1973
  0
LINE
  8
0
 10
43.7382
 20
-9.1973
 11
44.9931
 21
-10.7469
  0
LINE
  8
0
 10
44.9931
 20
-10.7469
 11
46.4031
 21
-12.1569
  0
LINE
  8
0
 10
46.4031
 20
-12.1569
 11
47.9527
 21
-13.4118
  0
LINE
  8
0
 10
47.9527
 20
-13.4118
 11
49.625
 21
-14.4978
  0
LINE
  8
0
 10
49.625
 20
-14.4978
 11
51.4017
 21
-15.403
  0
LINE
  8
0
 10
51.4017
 20
-15.403
 11
53.2632
 21
-16.1176
  0
LINE
  8
0
 10
53.2632
 20
-16.1176
 11
55.1893
 21
-16.6337
  0
LINE
  8
0
 10
55.1893
 20
-16.6337
 11
57.1587
 21
-16.9456
  0
LINE
  8
0
 10
57.1587
 20
-16.9456
 11
59.15
 21
-17.05
  0
LINE
  8
0
 10
59.15
 20
-17.05
 11
61.1413
 21
-16.9456
  0
LINE
  8
0
 10
61.1413
 20
-16.9456
 11
63.1107
 21
-16.6337
  0
LINE
  8
0
 10
63.1107
 20
-16.6337
 11
65.0368
 21
-16.1176
  0
LINE
  8
0
 10
65.0368
 20
-16.1176
 11
66.8983
 21
-15.403
  0
LINE
  8
0
 10
66.8983
 20
-15.403
 11
68.675
 21
-14.4978
  0
LINE
  8
0
 10
68.675
 20
-14.4978
 11
70.3473
 21
-13.4118
  0
LINE
  8
0
 10
70.3473
 20
-13.4118
 11
71.8969
 21
-12.1569
  0
LINE
  8
0
 10
71.8969
 20
-12.1569
 11
73.3069
 21
-10.7469
  0
LINE
  8
0
 10
73.3069
 20
-10.7469
 11
74.5618
 21
-9.1973
  0
LINE
  8
0
 10
74.5618
 20
-9.1973
 11
75.6478
 21
-7.52499
  0
LINE
  8
0
 10
75.6478
 20
-7.52499
 11
76.553
 21
-5.74832
  0
LINE
  8
0
 10
76.553
 20
-5.74832
 11
77.2676
 21
-3.88676
  0
LINE
  8
0
 10
77.2676
 20
-3.88676
 11
77.7837
 21
-1.96071
  0
LINE
  8
0
 10
77.7837
 20
-1.96071
 11
77.9359
 21
-1
  0
LINE
  8
0
 10
77.9359
 20
-1
 11
78.2
 21
-1
  0
LINE
  8
0
 10
78.2
 20
-1
 11
78.2
 21
2
  0
LINE
  8
0
 10
78.2
 20
2
 11
116.3
 21
2
  0
LINE
  8
0
 10
116.3
 20
2
 11
116.3
 21
0.800003
  0
LINE
  8
0
 10
116.3
 20
0.800003
 11
116.269
 21
0.79837
  0
LINE
  8
0
 10
116.269
 20
0.79837
 11
116.238
 21
0.793457
  0
LINE
  8
0
 10
116.238
 20
0.793457
 11
116.207
 21
0.785324
  0
LINE
  8
0
 10
116.207
 20
0.785324
 11
116.178
 21
0.774078
  0
LINE
  8
0
 10
116.178
 20
0.774078
 11
116.15
 21
0.759811
  0
LINE
  8
0
 10
116.15
 20
0.759811
 11
116.124
 21
0.742706
  0
LINE
  8
0
 10
116.124
 20
0.742706
 11
116.099
 21
0.722946
  0
LINE
  8
0
 10
116.099
 20
0.722946
 11
116.077
 21
0.700745
  0
LINE
  8
0
 10
116.077
 20
0.700745
 11
116.057
 21
0.676346
  0
LINE
  8
0
 10
116.057
 20
0.676346
 11
116.04
 21
0.650009
  0
LINE
  8
0
 10
116.04
 20
0.650009
 11
116.026
 21
0.622025
  0
LINE
  8
0
 10
116.026
 20
0.622025
 11
116.015
 21
0.592712
  0
LINE
  8
0
 10
116.015
 20
0.592712
 11
116.007
 21
0.562378
  0
LINE
  8
0
 10
116.007
 20
0.562378
 11
116.002
 21
0.531372
  0
LINE
  8
0
 10
116.002
 20
0.531372
 11
116
 21
0.5
  0
LINE
  8
0
 10
116
 20
0.5
 11
116.002
 21
0.468643
  0
LINE
  8
0
 10
116.002
 20
0.468643
 11
116.007
 21
0.437637
  0
LINE
  8
0
 10
116.007
 20
0.437637
 11
116.015
 21
0.407303
  0
LINE
  8
0
 10
116.015
 20
0.407303
 11
116.026
 21
0.377991
  0
LINE
  8
0
 10
116.026
 20
0.377991
 11
116.04
 21
0.350006
  0
LINE
  8
0
 10
116.04
 20
0.350006
 11
116.057
 21
0.323669
  0
LINE
  8
0
 10
116.057
 20
0.323669
 11
116.077
 21
0.299271
  0
LINE
  8
0
 10
116.077
 20
0.299271
 11
116.099
 21
0.277069
  0
LINE
  8
0
 10
116.099
 20
0.277069
 11
116.124
 21
0.257309
  0
LINE
  8
0
 10
116.124
 20
0.257309
 11
116.15
 21
0.240204
  0
LINE
  8
0
 10
116.15
 20
0.240204
 11
116.178
 21
0.225937
  0
LINE
  8
0
 10
116.178
 20
0.225937
 11
116.207
 21
0.214691
  0
LINE
  8
0
 10
116.207
 20
0.214691
 11
116.238
 21
0.206558
  0
LINE
  8
0
 10
116.238
 20
0.206558
 11
116.269
 21
0.201645
  0
LINE
  8
0
 10
116.269
 20
0.201645
 11
116.3
 21
0.200012
  0
LINE
  8
0
 10
116.3
 20
0.200012
 11
116.3
 21
-1
  0
LINE
  8
0
 10
116.3
 20
-1
 11
116.564
 21
-1
  0
LINE
  8
0
 10
116.564
 20
-1
 11
116.716
 21
-1.96071
  0
LINE
  8
0
 10
116.716
 20
-1.96071
 11
117.232
 21
-3.88676
  0
LINE
  8
0
 10
117.232
 20
-3.88676
 11
117.947
 21
-5.74832
  0
LINE
  8
0
 10
117.947
 20
-5.74832
 11
118.852
 21
-7.52499
  0
LINE
  8
0
 10
118.852
 20
-7.52499
 11
119.938
 21
-9.1973
  0
LINE
  8
0
 10
119.938
 20
-9.1973
 11
121.193
 21
-10.7469
  0
LINE
  8
0
 10
121.193
 20
-10.7469
 11
122.603
 21
-12.1569
  0
LINE
  8
0
 10
122.603
 20
-12.1569
 11
124.153
 21
-13.4118
  0
LINE
  8
0
 10
124.153
 20
-13.4118
 11
125.825
 21
-14.4978
  0
LINE
  8
0
 10
125.825
 20
-14.4978
 11
127.602
 21
-15.403
  0
LINE
  8
0
 10
127.602
 20
-15.403
 11
129.463
 21
-16.1176
  0
LINE
  8
0
 10
129.463
 20
-16.1176
 11
131.389
 21
-16.6337
  0
LINE
  8
0
 10
131.389
 20
-16.6337
 11
133.359
 21
-16.9456
  0
LINE
  8
0
 10
133.359
 20
-16.9456
 11
135.35
 21
-17.05
  0
LINE
  8
0
 10
135.35
 20
-17.05
 11
137.341
 21
-16.9456
  0
LINE
  8
0
 10
137.341
 20
-16.9456
 11
139.311
 21
-16.6337
  0
LINE
  8
0
 10
139.311
 20
-16.6337
 11
141.237
 21
-16.1176
  0
LINE
  8
0
 10
141.237
 20
-16.1176
 11
143.098
 21
-15.403
  0
LINE
  8
0
 10
143.098
 20
-15.403
 11
144.875
 21
-14.4978
  0
LINE
  8
0
 10
144.875
 20
-14.4978
 11
146.547
 21
-13.4118
  0
LINE
  8
0
 10
146.547
 20
-13.4118
 11
148.097
 21
-12.1569
  0
LINE
  8
0
 10
148.097
 20
-12.1569
 11
149.507
 21
-10.7469
  0
LINE
  8
0
 10
149.507
 20
-10.7469
 11
150.762
 21
-9.1973
  0
LINE
  8
0
 10
150.762
 20
-9.1973
 11
151.848
 21
-7.52499
  0
LINE
  8
0
 10
151.848
 20
-7.52499
 11
152.753
 21
-5.74832
  0
LINE
  8
0
 10
152.753
 20
-5.74832
 11
153.468
 21
-3.88676
  0
LINE
  8
0
 10
153.468
 20
-3.88676
 11
153.984
 21
-1.96071
  0
LINE
  8
0
 10
153.984
 20
-1.96071
 11
154.136
 21
-1
  0
LINE
  8
0
 10
154.136
 20
-1
 11
154.4
 21
-1
  0
LINE
  8
0
 10
154.4
 20
-1
 11
154.4
 21
2
  0
LINE
  8
0
 10
154.4
 20
2
 11
192.5
 21
2
  0
LINE
  8
0
 10
192.5
 20
2
 11
192.5
 21
0.800003
  0
LINE
  8
0
 10
192.5
 20
0.800003
 11
192.469
 21
0.79837
  0
LINE
  8
0
 10
192.469
 20
0.79837
 11
192.438
 21
0.793457
  0
LINE
  8
0
 10
192.438
 20
0.793457
 11
192.407
 21
0.785324
  0
LINE
  8
0
 10
192.407
 20
0.785324
 11
192.378
 21
0.774078
  0
LINE
  8
0
 10
192.378
 20
0.774078
 11
192.35
 21
0.759811
  0
LINE
  8
0
 10
192.35
 20
0.759811
 11
192.324
 21
0.742706
  0
LINE
  8
0
 10
192.324
 20
0.742706
 11
192.299
 21
0.722946
  0
LINE
  8
0
 10
192.299
 20
0.722946
 11
192.277
 21
0.700745
  0
LINE
  8
0
 10
192.277
 20
0.700745
 11
192.257
 21
0.676346
  0
LINE
  8
0
 10
192.257
 20
0.676346
 11
192.24
 21
0.650009
  0
LINE
  8
0
 10
192.24
 20
0.650009
 11
192.226
 21
0.622025
  0
LINE
  8
0
 10
192.226
 20
0.622025
 11
192.215
 21
0.592712
  0
LINE
  8
0
 10
192.215
 20
0.592712
 11
192.207
 21
0.562378
  0
LINE
  8
0
 10
192.207
 20
0.562378
 11
192.202
 21
0.531372
  0
LINE
  8
0
 10
192.202
 20
0.531372
 11
192.2
 21
0.5
  0
LINE
  8
0
 10
192.2
 20
0.5
 11
192.202
 21
0.468643
  0
LINE
  8
0
 10
192.202
 20
0.468643
 11
192.207
 21
0.437637
  0
LINE
  8
0
 10
192.207
 20
0.437637
 11
192.215
 21
0.407303
  0
LINE
  8
0
 10
192.215
 20
0.407303
 11
192.226
 21
0.377991
  0
LINE
  8
0
 10
192.226
 20
0.377991
 11
192.24
 21
0.350006
  0
LINE
  8
0
 10
192.24
 20
0.350006
 11
192.257
 21
0.323669
  0
LINE
  8
0
 10
192.257
 20
0.323669
 11
192.277
 21
0.299271
  0
LINE
  8
0
 10
192.277
 20
0.299271
 11
192.299
 21
0.277069
  0
LINE
  8
0
 10
192.299
 20
0.277069
 11
192.324
 21
0.257309
  0
LINE
  8
0
 10
192.324
 20
0.257309
 11
192.35
 21
0.240204
  0
LINE
  8
0
 10
192.35
 20
0.240204
 11
192.378
 21
0.225937
  0
LINE
  8
0
 10
192.378
 20
0.225937
 11
192.407
 21
0.214691
  0
LINE
  8
0
 10
192.407
 20
0.214691
 11
192.438
 21
0.206558
  0
LINE
  8
0
 10
192.438
 20
0.206558
 11
192.469
 21
0.201645
  0
LINE
  8
0
 10
192.469
 20
0.201645
 11
192.5
 21
0.200012
  0
LINE
  8
0
 10
192.5
 20
0.200012
 11
192.5
 21
-1
  0
LINE
  8
0
 10
192.5
 20
-1
 11
192.764
 21
-1
  0
LINE
  8
0
 10
192.764
 20
-1
 11
192.916
 21
-1.96071
  0
LINE
  8
0
 10
192.916
 20
-1.96071
 11
193.432
 21
-3.88676
  0
LINE
  8
0
 10
193.432
 20
-3.88676
 11
194.147
 21
-5.74832
  0
LINE
  8
0
 10
194.147
 20
-5.74832
 11
195.052
 21
-7.52499
  0
LINE
  8
0
 10
195.052
 20
-7.52499
 11
196.138
 21
-9.1973
  0
LINE
  8
0
 10
196.138
 20
-9.1973
 11
197.393
 21
-10.7469
  0
LINE
  8
0
 10
197.393
 20
-10.7469
 11
198.803
 21
-12.1569
  0
LINE
  8
0
 10
198.803
 20
-12.1569
 11
200.353
 21
-13.4118
  0
LINE
  8
0
 10
200.353
 20
-13.4118
 11
202.025
 21
-14.4978
  0
LINE
  8
0
 10
202.025
 20
-14.4978
 11
203.802
 21
-15.403
  0
LINE
  8
0
 10
203.802
 20
-15.403
 11
205.663
 21
-16.1176
  0
LINE
  8
0
 10
205.663
 20
-16.1176
 11
207.589
 21
-16.6337
  0
LINE
  8
0
 10
207.589
 20
-16.6337
 11
209.559
 21
-16.9456
  0
LINE
  8
0
 10
209.559
 20
-16.9456
 11
211.55
 21
-17.05
  0
LINE
  8
0
 10
211.55
 20
-17.05
 11
213.541
 21
-16.9456
  0
LINE
  8
0
 10
213.541
 20
-16.9456
 11
215.511
 21
-16.6337
  0
LINE
  8
0
 10
215.511
 20
-16.6337
 11
217.437
 21
-16.1176
  0
LINE
  8
0
 10
217.437
 20
-16.1176
 11
219.298
 21
-15.403
  0
LINE
  8
0
 10
219.298
 20
-15.403
 11
221.075
 21
-14.4978
  0
LINE
  8
0
 10
221.075
 20
-14.4978
 11
222.747
 21
-13.4118
  0
LINE
  8
0
 10
222.747
 20
-13.4118
 11
224.297
 21
-12.1569
  0
LINE
  8
0
 10
224.297
 20
-12.1569
 11
225.707
 21
-10.7469
  0
LINE
  8
0
 10
225.707
 20
-10.7469
 11
226.962
 21
-9.1973
  0
LINE
  8
0
 10
226.962
 20
-9.1973
 11
228.048
 21
-7.52499
  0
LINE
  8
0
 10
228.048
 20
-7.52499
 11
228.953
 21
-5.74832
  0
LINE
  8
0
 10
228.953
 20
-5.74832
 11
229.668
 21
-3.88676
  0
LINE
  8
0
 10
229.668
 20
-3.88676
 11
230.184
 21
-1.96071
  0
LINE
  8
0
 10
230.184
 20
-1.96071
 11
230.336
 21
-1
  0
LINE
  8
0
 10
230.336
 20
-1
 11
230.6
 21
-1
  0
LINE
  8
0
 10
230.6
 20
-1
 11
230.6
 21
2
  0
LINE
  8
0
 10
230.6
 20
2
 11
268.7
 21
2
  0
LINE
  8
0
 10
268.7
 20
2
 11
268.7
 21
0.800003
  0
LINE
  8
0
 10
268.7
 20
0.800003
 11
268.669
 21
0.79837
  0
LINE
  8
0
 10
268.669
 20
0.79837
 11
268.638
 21
0.793457
  0
LINE
  8
0
 10
268.638
 20
0.793457
 11
268.607
 21
0.785324
  0
LINE
  8
0
 10
268.607
 20
0.785324
 11
268.578
 21
0.774078
  0
LINE
  8
0
 10
268.578
 20
0.774078
 11
268.55
 21
0.759811
  0
LINE
  8
0
 10
268.55
 20
0.759811
 11
268.524
 21
0.742706
  0
LINE
  8
0
 10
268.524
 20
0.742706
 11
268.499
 21
0.722946
  0
LINE
  8
0
 10
268.499
 20
0.722946
 11
268.477
 21
0.700745
  0
LINE
  8
0
 10
268.477
 20
0.700745
 11
268.457
 21
0.676346
  0
LINE
  8
0
 10
268.457
 20
0.676346
 11
268.44
 21
0.650009
  0
LINE
  8
0
 10
268.44
 20
0.650009
 11
268.426
 21
0.622025
  0
LINE
  8
0
 10
268.426
 20
0.622025
 11
268.415
 21
0.592712
  0
LINE
  8
0
 10
268.415
 20
0.592712
 11
268.407
 21
0.562378
  0
LINE
  8
0
 10
268.407
 20
0.562378
 11
268.402
 21
0.531372
  0
LINE
  8
0
 10
268.402
 20
0.531372
 11
268.4
 21
0.5
  0
LINE
  8
0
 10
268.4
 20
0.5
 11
268.402
 21
0.468643
  0
LINE
  8
0
 10
268.402
 20
0.468643
 11
268.407
 21
0.437637
  0
LINE
  8
0
 10
268.407
 20
0.437637
 11
268.415
 21
0.407303
  0
LINE
  8
0
 10
268.415
 20
0.407303
 11
268.426
 21
0.377991
  0
LINE
  8
0
 10
268.426
 20
0.377991
 11
268.44
 21
0.350006
  0
LINE
  8
0
 10
268.44
 20
0.350006
 11
268.457
 21
0.323669
  0
LINE
  8
0
 10
268.457
 20
0.323669
 11
268.477
 21
0.299271
  0
LINE
  8
0
 10
268.477
 20
0.299271
 11
268.499
 21
0.277069
  0
LINE
  8
0
 10
268.499
 20
0.277069
 11
268.524
 21
0.257309
  0
LINE
  8
0
 10
268.524
 20
0.257309
 11
268.55
 21
0.240204
  0
LINE
  8
0
 10
268.55
 20
0.240204
 11
268.578
 21
0.225937
  0
LINE
  8
0
 10
268.578
 20
0.225937
 11
268.607
 21
0.214691
  0
LINE
  8
0
 10
268.607
 20
0.214691
 11
268.638
 21
0.206558
  0
LINE
  8
0
 10
268.638
 20
0.206558
 11
268.669
 21
0.201645
  0
LINE
  8
0
 10
268.669
 20
0.201645
 11
268.7
 21
0.200012
  0
LINE
  8
0
 10
268.7
 20
0.200012
 11
268.7
 21
-1
  0
LINE
  8
0
 10
268.7
 20
-1
 11
268.964
 21
-1
  0
LINE
  8
0
 10
268.964
 20
-1
 11
269.116
 21
-1.96071
  0
LINE
  8
0
 10
269.116
 20
-1.96071
 11
269.632
 21
-3.88676
  0
LINE
  8
0
 10
269.632
 20
-3.88676
 11
270.347
 21
-5.74832
  0
LINE
  8
0
 10
270.347
 20
-5.74832
 11
271.252
 21
-7.52499
  0
LINE
  8
0
 10
271.252
 20
-7.52499
 11
272.338
 21
-9.1973
  0
LINE
  8
0
 10
272.338
 20
-9.1973
 11
273.593
 21
-10.7469
  0
LINE
  8
0
 10
273.593
 20
-10.7469
 11
275.003
 21
-12.1569
  0
LINE
  8
0
 10
275.003
 20
-12.1569
 11
276.553
 21
-13.4118
  0
LINE
  8
0
 10
276.553
 20
-13.4118
 11
278.225
 21
-14.4978
  0
LINE
  8
0
 10
278.225
 20
-14.4978
 11
280.002
 21
-15.403
  0
LINE
  8
0
 10
280.002
 20
-15.403
 11
281.863
 21
-16.1176
  0
LINE
  8
0
 10
281.863
 20
-16.1176
 11
283.789
 21
-16.6337
  0
LINE
  8
0
 10
283.789
 20
-16.6337
 11
285.759
 21
-16.9456
  0
LINE
  8
0
 10
285.759
 20
-16.9456
 11
287.75
 21
-17.05
  0
LINE
  8
0
 10
287.75
 20
-17.05
 11
289.741
 21
-16.9456
  0
LINE
  8
0
 10
106.769
 20
200.657
 11
106.64
 21
200.677
  0
LINE
  8
0
 10
106.64
 20
200.677
 11
106.514
 21
200.711
  0
LINE
  8
0
 10
106.514
 20
200.711
 11
106.392
 21
200.758
  0
LINE
  8
0
 10
106.392
 20
200.758
 11
106.275
 21
200.817
  0
LINE
  8
0
 10
106.275
 20
200.817
 11
106.165
 21
200.889
  0
LINE
  8
0
 10
106.165
 20
200.889
 11
106.064
 21
200.971
  0
LINE
  8
0
 10
106.064
 20
200.971
 11
105.971
 21
201.064
  0
LINE
  8
0
 10
105.971
 20
201.064
 11
105.889
 21
201.165
  0
LINE
  8
0
 10
105.889
 20
201.165
 11
105.817
 21
201.275
  0
LINE
  8
0
 10
105.817
 20
201.275
 11
105.758
 21
201.392
  0
LINE
  8
0
 10
105.758
 20
201.392
 11
105.711
 21
201.514
  0
LINE
  8
0
 10
105.711
 20
201.514
 11
105.677
 21
201.64
  0
LINE
  8
0
 10
105.677
 20
201.64
 11
105.657
 21
201.769
  0
LINE
  8
0
 10
105.657
 20
201.769
 11
105.65
 21
201.9
  0
LINE
  8
0
 10
105.65
 20
201.9
 11
105.657
 21
202.031
  0
LINE
  8
0
 10
105.657
 20
202.031
 11
105.677
 21
202.16
  0
LINE
  8
0
 10
105.677
 20
202.16
 11
105.711
 21
202.286
  0
LINE
  8
0
 10
105.711
 20
202.286
 11
105.758
 21
202.408
  0
LINE
  8
0
 10
105.758
 20
202.408
 11
105.817
 21
202.525
  0
LINE
  8
0
 10
105.817
 20
202.525
 11
105.889
 21
202.635
  0
LINE
  8
0
 10
105.889
 20
202.635
 11
105.971
 21
202.736
  0
LINE
  8
0
 10
105.971
 20
202.736
 11
106.064
 21
202.829
  0
LINE
  8
0
 10
106.064
 20
202.829
 11
106.165
 21
202.911
  0
LINE
  8
0
 10
106.165
 20
202.911
 11
106.275
 21
202.983
  0
LINE
  8
0
 10
106.275
 20
202.983
 11
106.392
 21
203.042
  0
LINE
  8
0
 10
106.392
 20
203.042
 11
106.514
 21
203.089
  0
LINE
  8
0
 10
106.514
 20
203.089
 11
106.64
 21
203.123
  0
LINE
  8
0
 10
106.64
 20
203.123
 11
106.769
 21
203.143
  0
LINE
  8
0
 10
106.769
 20
203.143
 11
106.9
 21
203.15
  0
LINE
  8
0
 10
106.9
 20
203.15
 11
107.031
 21
203.143
  0
LINE
  8
0
 10
107.031
 20
203.143
 11
107.16
 21
203.123
  0
LINE
  8
0
 10
107.16
 20
203.123
 11
107.286
 21
203.089
  0
LINE
  8
0
 10
107.286
 20
203.089
 11
107.408
 21
203.042
  0
LINE
  8
0
 10
107.408
 20
203.042
 11
107.525
 21
202.983
  0
LINE
  8
0
 10
107.525
 20
202.983
 11
107.635
 21
202.911
  0
LINE
  8
0
 10
107.635
 20
202.911
 11
107.736
 21
202.829
  0
LINE
  8
0
 10
107.736
 20
202.829
 11
107.829
 21
202.736
  0
LINE
  8
0
 10
107.829
 20
202.736
 11
107.911
 21
202.635
  0
LINE
  8
0
 10
107.911
 20
202.635
 11
107.983
 21
202.525
  0
LINE
  8
0
 10
107.983
 20
202.525
 11
108.042
 21
202.408
  0
LINE
  8
0
 10
108.042
 20
202.408
 11
108.089
 21
202.286
  0
LINE
  8
0
 10
108.089
 20
202.286
 11
108.123
 21
202.16
  0
LINE
  8
0
 10
108.123
 20
202.16
 11
108.143
 21
202.031
  0
LINE
  8
0
 10
108.143
 20
202.031
 11
108.15
 21
201.9
  0
LINE
  8
0
 10
108.15
 20
201.9
 11
108.143
 21
201.769
  0
LINE
  8
0
 10
108.143
 20
201.769
 11
108.123
 21
201.64
  0
LINE
  8
0
 10
108.123
 20
201.64
 11
108.089
 21
201.514
  0
LINE
  8
0
 10
108.089
 20
201.514
 11
108.042
 21
201.392
  0
LINE
  8
0
 10
108.042
 20
201.392
 11
107.983
 21
201.275
  0
LINE
  8
0
 10
107.983
 20
201.275
 11
107.911
 21
201.165
  0
LINE
  8
0
 10
107.911
 20
201.165
 11
107.829
 21
201.064
  0
LINE
  8
0
 10
107.829
 20
201.064
 11
107.736
 21
200.971
  0
LINE
  8
0
 10
107.736
 20
200.971
 11
107.635
 21
200.889
  0
LINE
  8
0
 10
107.635
 20
200.889
 11
107.525
 21
200.817
  0
LINE
  8
0
 10
107.525
 20
200.817
 11
107.408
 21
200.758
  0
LINE
  8
0
 10
107.408
 20
200.758
 11
107.286
 21
200.711
  0
LINE
  8
0
 10
107.286
 20
200.711
 11
107.16
 21
200.677
  0
LINE
  8
0
 10
107.16
 20
200.677
 11
107.031
 21
200.657
  0
LINE
  8
0
 10
107.031
 20
200.657
 11
106.9
 21
200.65
  0
LINE
  8
0
 10
106.9
 20
200.65
 11
106.769
 21
200.657
  0
LINE
  8
0
 10
201.769
 20
200.657
 11
201.64
 21
200.677
  0
LINE
  8
0
 10
201.64
 20
200.677
 11
201.514
 21
200.711
  0
LINE
  8
0
 10
201.514
 20
200.711
 11
201.392
 21
200.758
  0
LINE
  8
0
 10
201.392
 20
200.758
 11
201.275
 21
200.817
  0
LINE
  8
0
 10
201.275
 20
200.817
 11
201.165
 21
200.889
  0
LINE
  8
0
 10
201.165
 20
200.889
 11
201.064
 21
200.971
  0
LINE
  8
0
 10
201.064
 20
200.971
 11
200.971
 21
201.064
  0
LINE
  8
0
 10
200.971
 20
201.064
 11
200.889
 21
201.165
  0
LINE
  8
0
 10
200.889
 20
201.165
 11
200.817
 21
201.275
  0
LINE
  8
0
 10
200.817
 20
201.275
 11
200.758
 21
201.392
  0
LINE
  8
0
 10
200.758
 20
201.392
 11
200.711
 21
201.514
  0
LINE
  8
0
 10
200.711
 20
201.514
 11
200.677
 21
201.64
  0
LINE
  8
0
 10
200.677
 20
201.64
 11
200.657
 21
201.769
  0
LINE
  8
0
 10
200.657
 20
201.769
 11
200.65
 21
201.9
  0
LINE
  8
0
 10
200.65
 20
201.9
 11
200.657
 21
202.031
  0
LINE
  8
0
 10
200.657
 20
202.031
 11
200.677
 21
202.16
  0
LINE
  8
0
 10
200.677
 20
202.16
 11
200.711
 21
202.286
  0
LINE
  8
0
 10
200.711
 20
202.286
 11
200.758
 21
202.408
  0
LINE
  8
0
 10
200.758
 20
202.408
 11
200.817
 21
202.525
  0
LINE
  8
0
 10
200.817
 20
202.525
 11
200.889
 21
202.635
  0
LINE
  8
0
 10
200.889
 20
202.635
 11
200.971
 21
202.736
  0
LINE
  8
0
 10
200.971
 20
202.736
 11
201.064
 21
202.829
  0
LINE
  8
0
 10
201.064
 20
202.829
 11
201.165
 21
202.911
  0
LINE
  8
0
 10
201.165
 20
202.911
 11
201.275
 21
202.983
  0
LINE
  8
0
 10
201.275
 20
202.983
 11
201.392
 21
203.042
  0
LINE
  8
0
 10
201.392
 20
203.042
 11
201.514
 21
203.089
  0
LINE
  8
0
 10
201.514
 20
203.089
 11
201.64
 21
203.123
  0
LINE
  8
0
 10
201.64
 20
203.123
 11
201.769
 21
203.143
  0
LINE
  8
0
 10
201.769
 20
203.143
 11
201.9
 21
203.15
  0
LINE
  8
0
 10
201.9
 20
203.15
 11
202.031
 21
203.143
  0
LINE
  8
0
 10
202.031
 20
203.143
 11
202.16
 21
203.123
  0
LINE
  8
0
 10
202.16
 20
203.123
 11
202.286
 21
203.089
  0
LINE
  8
0
 10
202.286
 20
203.089
 11
202.408
 21
203.042
  0
LINE
  8
0
 10
202.408
 20
203.042
 11
202.525
 21
202.983
  0
LINE
  8
0
 10
202.525
 20
202.983
 11
202.635
 21
202.911
  0
LINE
  8
0
 10
202.635
 20
202.911
 11
202.736
 21
202.829
  0
LINE
  8
0
 10
202.736
 20
202.829
 11
202.829
 21
202.736
  0
LINE
  8
0
 10
202.829
 20
202.736
 11
202.911
 21
202.635
  0
LINE
  8
0
 10
202.911
 20
202.635
 11
202.983
 21
202.525
  0
LINE
  8
0
 10
202.983
 20
202.525
 11
203.042
 21
202.408
  0
LINE
  8
0
 10
203.042
 20
202.408
 11
203.089
 21
202.286
  0
LINE
  8
0
 10
203.089
 20
202.286
 11
203.123
 21
202.16
  0
LINE
  8
0
 10
203.123
 20
202.16
 11
203.143
 21
202.031
  0
LINE
  8
0
 10
203.143
 20
202.031
 11
203.15
 21
201.9
  0
LINE
  8
0
 10
203.15
 20
201.9
 11
203.143
 21
201.769
  0
LINE
  8
0
 10
203.143
 20
201.769
 11
203.123
 21
201.64
  0
LINE
  8
0
 10
203.123
 20
201.64
 11
203.089
 21
201.514
  0
LINE
  8
0
 10
203.089
 20
201.514
 11
203.042
 21
201.392
  0
LINE
  8
0
 10
203.042
 20
201.392
 11
202.983
 21
201.275
  0
LINE
  8
0
 10
202.983
 20
201.275
 11
202.911
 21
201.165
  0
LINE
  8
0
 10
202.911
 20
201.165
 11
202.829
 21
201.064
  0
LINE
  8
0
 10
202.829
 20
201.064
 11
202.736
 21
200.971
  0
LINE
  8
0
 10
202.736
 20
200.971
 11
202.635
 21
200.889
  0
LINE
  8
0
 10
202.635
 20
200.889
 11
202.525
 21
200.817
  0
LINE
  8
0
 10
202.525
 20
200.817
 11
202.408
 21
200.758
  0
LINE
  8
0
 10
202.408
 20
200.758
 11
202.286
 21
200.711
  0
LINE
  8
0
 10
202.286
 20
200.711
 11
202.16
 21
200.677
  0
LINE
  8
0
 10
202.16
 20
200.677
 11
202.031
 21
200.657
  0
LINE
  8
0
 10
202.031
 20
200.657
 11
201.9
 21
200.65
  0
LINE
  8
0
 10
201.9
 20
200.65
 11
201.769
 21
200.657
  0
LINE
  8
0
 10
109.4
 20
109.4
 11
109.4
 21
199.4
  0
LINE
  8
0
 10
109.4
 20
199.4
 11
199.4
 21
199.4
  0
LINE
  8
0
 10
199.4
 20
199.4
 11
199.4
 21
109.4
  0
LINE
  8
0
 10
199.4
 20
109.4
 11
109.4
 21
109.4
  0
LINE
  8
0
 10
106.769
 20
105.657
 11
106.64
 21
105.677
  0
LINE
  8
0
 10
106.64
 20
105.677
 11
106.514
 21
105.711
  0
LINE
  8
0
 10
106.514
 20
105.711
 11
106.392
 21
105.758
  0
LINE
  8
0
 10
106.392
 20
105.758
 11
106.275
 21
105.817
  0
LINE
  8
0
 10
106.275
 20
105.817
 11
106.165
 21
105.889
  0
LINE
  8
0
 10
106.165
 20
105.889
 11
106.064
 21
105.971
  0
LINE
  8
0
 10
106.064
 20
105.971
 11
105.971
 21
106.064
  0
LINE
  8
0
 10
105.971
 20
106.064
 11
105.889
 21
106.165
  0
LINE
  8
0
 10
105.889
 20
106.165
 11
105.817
 21
106.275
  0
LINE
  8
0
 10
105.817
 20
106.275
 11
105.758
 21
106.392
  0
LINE
  8
0
 10
105.758
 20
106.392
 11
105.711
 21
106.514
  0
LINE
  8
0
 10
105.711
 20
106.514
 11
105.677
 21
106.64
  0
LINE
  8
0
 10
105.677
 20
106.64
 11
105.657
 21
106.769
  0
LINE
  8
0
 10
105.657
 20
106.769
 11
105.65
 21
106.9
  0
LINE
  8
0
 10
105.65
 20
106.9
 11
105.657
 21
107.031
  0
LINE
  8
0
 10
105.657
 20
107.031
 11
105.677
 21
107.16
  0
LINE
  8
0
 10
105.677
 20
107.16
 11
105.711
 21
107.286
  0
LINE
  8
0
 10
105.711
 20
107.286
 11
105.758
 21
107.408
  0
LINE
  8
0
 10
105.758
 20
107.408
 11
105.817
 21
107.525
  0
LINE
  8
0
 10
105.817
 20
107.525
 11
105.889
 21
107.635
  0
LINE
  8
0
 10
105.889
 20
107.635
 11
105.971
 21
107.736
  0
LINE
  8
0
 10
105.971
 20
107.736
 11
106.064
 21
107.829
  0
LINE
  8
0
 10
106.064
 20
107.829
 11
106.165
 21
107.911
  0
LINE
  8
0
 10
106.165
 20
107.911
 11
106.275
 21
107.983
  0
LINE
  8
0
 10
106.275
 20
107.983
 11
106.392
 21
108.042
  0
LINE
  8
0
 10
106.392
 20
108.042
 11
106.514
 21
108.089
  0
LINE
  8
0
 10
106.514
 20
108.089
 11
106.64
 21
108.123
  0
LINE
  8
0
 10
106.64
 20
108.123
 11
106.769
 21
108.143
  0
LINE
  8
0
 10
106.769
 20
108.143
 11
106.9
 21
108.15
  0
LINE
  8
0
 10
106.9
 20
108.15
 11
107.031
 21
108.143
  0
LINE
  8
0
 10
107.031
 20
108.143
 11
107.16
 21
108.123
  0
LINE
  8
0
 10
107.16
 20
108.123
 11
107.286
 21
108.089
  0
LINE
  8
0
 10
107.286
 20
108.089
 11
107.408
 21
108.042
  0
LINE
  8
0
 10
107.408
 20
108.042
 11
107.525
 21
107.983
  0
LINE
  8
0
 10
107.525
 20
107.983
 11
107.635
 21
107.911
  0
LINE
  8
0
 10
107.635
 20
107.911
 11
107.736
 21
107.829
  0
LINE
  8
0
 10
107.736
 20
107.829
 11
107.829
 21
107.736
  0
LINE
  8
0
 10
107.829
 20
107.736
 11
107.911
 21
107.635
  0
LINE
  8
0
 10
107.911
 20
107.635
 11
107.983
 21
107.525
  0
LINE
  8
0
 10
107.983
 20
107.525
 11
108.042
 21
107.408
  0
LINE
  8
0
 10
108.042
 20
107.408
 11
108.089
 21
107.286
  0
LINE
  8
0
 10
108.089
 20
107.286
 11
108.123
 21
107.16
  0
LINE
  8
0
 10
108.123
 20
107.16
 11
108.143
 21
107.031
  0
LINE
  8
0
 10
108.143
 20
107.031
 11
108.15
 21
106.9
  0
LINE
  8
0
 10
108.15
 20
106.9
 11
108.143
 21
106.769
  0
LINE
  8
0
 10
108.143
 20
106.769
 11
108.123
 21
106.64
  0
LINE
  8
0
 10
108.123
 20
106.64
 11
108.089
 21
106.514
  0
LINE
  8
0
 10
108.089
 20
106.514
 11
108.042
 21
106.392
  0
LINE
  8
0
 10
108.042
 20
106.392
 11
107.983
 21
106.275
  0
LINE
  8
0
 10
107.983
 20
106.275
 11
107.911
 21
106.165
  0
LINE
  8
0
 10
107.911
 20
106.165
 11
107.829
 21
106.064
  0
LINE
  8
0
 10
107.829
 20
106.064
 11
107.736
 21
105.971
  0
LINE
  8
0
 10
107.736
 20
105.971
 11
107.635
 21
105.889
  0
LINE
  8
0
 10
107.635
 20
105.889
 11
107.525
 21
105.817
  0
LINE
  8
0
 10
107.525
 20
105.817
 11
107.408
 21
105.758
  0
LINE
  8
0
 10
107.408
 20
105.758
 11
107.286
 21
105.711
  0
LINE
  8
0
 10
107.286
 20
105.711
 11
107.16
 21
105.677
  0
LINE
  8
0
 10
107.16
 20
105.677
 11
107.031
 21
105.657
  0
LINE
  8
0
 10
107.031
 20
105.657
 11
106.9
 21
105.65
  0
LINE
  8
0
 10
106.9
 20
105.65
 11
106.769
 21
105.657
  0
LINE
  8
0
 10
201.769
 20
105.657
 11
201.64
 21
105.677
  0
LINE
  8
0
 10
201.64
 20
105.677
 11
201.514
 21
105.711
  0
LINE
  8
0
 10
201.514
 20
105.711
 11
201.392
 21
105.758
  0
LINE
  8
0
 10
201.392
 20
105.758
 11
201.275
 21
105.817
  0
LINE
  8
0
 10
201.275
 20
105.817
 11
201.165
 21
105.889
  0
LINE
  8
0
 10
201.165
 20
105.889
 11
201.064
 21
105.971
  0
LINE
  8
0
 10
201.064
 20
105.971
 11
200.971
 21
106.064
  0
LINE
  8
0
 10
200.971
 20
106.064
 11
200.889
 21
106.165
  0
LINE
  8
0
 10
200.889
 20
106.165
 11
200.817
 21
106.275
  0
LINE
  8
0
 10
200.817
 20
106.275
 11
200.758
 21
106.392
  0
LINE
  8
0
 10
200.758
 20
106.392
 11
200.711
 21
106.514
  0
LINE
  8
0
 10
200.711
 20
106.514
 11
200.677
 21
106.64
  0
LINE
  8
0
 10
200.677
 20
106.64
 11
200.657
 21
106.769
  0
LINE
  8
0
 10
200.657
 20
106.769
 11
200.65
 21
106.9
  0
LINE
  8
0
 10
200.65
 20
106.9
 11
200.657
 21
107.031
  0
LINE
  8
0
 10
200.657
 20
107.031
 11
200.677
 21
107.16
  0
LINE
  8
0
 10
200.677
 20
107.16
 11
200.711
 21
107.286
  0
LINE
  8
0
 10
200.711
 20
107.286
 11
200.758
 21
107.408
  0
LINE
  8
0
 10
200.758
 20
107.408
 11
200.817
 21
107.525
  0
LINE
  8
0
 10
200.817
 20
107.525
 11
200.889
 21
107.635
  0
LINE
  8
0
 10
200.889
 20
107.635
 11
200.971
 21
107.736
  0
LINE
  8
0
 10
200.971
 20
107.736
 11
201.064
 21
107.829
  0
LINE
  8
0
 10
201.064
 20
107.829
 11
201.165
 21
107.911
  0
LINE
  8
0
 10
201.165
 20
107.911
 11
201.275
 21
107.983
  0
LINE
  8
0
 10
201.275
 20
107.983
 11
201.392
 21
108.042
  0
LINE
  8
0
 10
201.392
 20
108.042
 11
201.514
 21
108.089
  0
LINE
  8
0
 10
201.514
 20
108.089
 11
201.64
 21
108.123
  0
LINE
  8
0
 10
201.64
 20
108.123
 11
201.769
 21
108.143
  0
LINE
  8
0
 10
201.769
 20
108.143
 11
201.9
 21
108.15
  0
LINE
  8
0
 10
201.9
 20
108.15
 11
202.031
 21
108.143
  0
LINE
  8
0
 10
202.031
 20
108.143
 11
202.16
 21
108.123
  0
LINE
  8
0
 10
202.16
 20
108.123
 11
202.286
 21
108.089
  0
LINE
  8
0
 10
202.286
 20
108.089
 11
202.408
 21
108.042
  0
LINE
  8
0
 10
202.408
 20
108.042
 11
202.525
 21
107.983
  0
LINE
  8
0
 10
202.525
 20
107.983
 11
202.635
 21
107.911
  0
LINE
  8
0
 10
202.635
 20
107.911
 11
202.736
 21
107.829
  0
LINE
  8
0
 10
202.736
 20
107.829
 11
202.829
 21
107.736
  0
LINE
  8
0
 10
202.829
 20
107.736
 11
202.911
 21
107.635
  0
LINE
  8
0
 10
202.911
 20
107.635
 11
202.983
 21
107.525
  0
LINE
  8
0
 10
202.983
 20
107.525
 11
203.042
 21
107.408
  0
LINE
  8
0
 10
203.042
 20
107.408
 11
203.089
 21
107.286
  0
LINE
  8
0
 10
203.089
 20
107.286
 11
203.123
 21
107.16
  0
LINE
  8
0
 10
203.123
 20
107.16
 11
203.143
 21
107.031
  0
LINE
  8
0
 10
203.143
 20
107.031
 11
203.15
 21
106.9
  0
LINE
  8
0
 10
203.15
 20
106.9
 11
203.143
 21
106.769
  0
LINE
  8
0
 10
203.143
 20
106.769
 11
203.123
 21
106.64
  0
LINE
  8
0
 10
203.123
 20
106.64
 11
203.089
 21
106.514
  0
LINE
  8
0
 10
203.089
 20
106.514
 11
203.042
 21
106.392
  0
LINE
  8
0
 10
203.042
 20
106.392
 11
202.983
 21
106.275
  0
LINE
  8
0
 10
202.983
 20
106.275
 11
202.911
 21
106.165
  0
LINE
  8
0
 10
202.911
 20
106.165
 11
202.829
 21
106.064
  0
LINE
  8
0
 10
202.829
 20
106.064
 11
202.736
 21
105.971
  0
LINE
  8
0
 10
202.736
 20
105.971
 11
202.635
 21
105.889
  0
LINE
  8
0
 10
202.635
 20
105.889
 11
202.525
 21
105.817
  0
LINE
  8
0
 10
202.525
 20
105.817
 11
202.408
 21
105.758
  0
LINE
  8
0
 10
202.408
 20
105.758
 11
202.286
 21
105.711
  0
LINE
  8
0
 10
202.286
 20
105.711
 11
202.16
 21
105.677
  0
LINE
  8
0
 10
202.16
 20
105.677
 11
202.031
 21
105.657
  0
LINE
  8
0
 10
202.031
 20
105.657
 11
201.9
 21
105.65
  0
LINE
  8
0
 10
201.9
 20
105.65
 11
201.769
 21
105.657
  0
LINE
  8
0
 10
154.664
 20
309.8
 11
154.4
 21
309.8
  0
LINE
  8
0
 10
154.4
 20
309.8
 11
154.4
 21
306.8
  0
LINE
  8
0
 10
154.4
 20
306.8
 11
154.664
 21
309.8
  0
ENDSEC
  0
SECTION
  2
OBJECTS
  0
DICTIONARY
  0
ENDSEC
  0
EOF
