<?xml version="1.0" standalone="no"?><!DOCTYPE svg PUBLIC "-//W3C//DTD SVG 1.1//EN" "http://www.w3.org/Graphics/SVG/1.1/DTD/svg11.dtd"><svg xmlns="http://www.w3.org/2000/svg" height="136mmmm" version="1.1" viewBox="43 -178 223 136" width="223mmmm">
<title>OpenSCAD Model</title>
<path d=" M 238.074,-169.744 L 241.01,-169.58 L 243.986,-169.338 L 247,-169.019 L 250.053,-168.621 L 253.146,-168.145  L 256.277,-167.591 L 259.448,-166.96 L 262.657,-166.25 L 264.407,-174.426 L 260.746,-175.189 L 257.095,-175.85  L 253.454,-176.409 L 249.824,-176.866 L 246.204,-177.222 L 242.595,-177.477 L 238.996,-177.629 L 235.407,-177.68  L 231.806,-177.629 L 228.168,-177.477 L 224.493,-177.222 L 220.782,-176.866 L 217.035,-176.409 L 213.251,-175.85  L 209.431,-175.189 L 205.574,-174.426 L 203.824,-166.25 L 207.404,-166.978 L 210.892,-167.623 L 214.289,-168.184  L 217.595,-168.662 L 220.81,-169.058 L 223.933,-169.37 L 226.966,-169.598 L 229.907,-169.744 L 222.491,-134.992  L 230.657,-134.992 z M 55.083,-152.4 L 97.416,-152.4 L 93.666,-134.992 L 101.833,-134.992 L 110.916,-177.552 L 102.75,-177.552  L 99.083,-160.592 L 56.75,-160.592 L 60.417,-177.552 L 52.083,-177.552 L 43,-134.992 L 51.333,-134.992  z M 164.425,-135.043 L 168.063,-135.196 L 171.737,-135.45 L 175.448,-135.806 L 179.195,-136.265 L 182.979,-136.825  L 186.799,-137.486 L 190.656,-138.25 L 198.322,-174.25 L 194.68,-175.024 L 191.046,-175.695 L 187.42,-176.262  L 183.801,-176.726 L 180.191,-177.088 L 176.588,-177.346 L 172.993,-177.5 L 169.405,-177.552 L 165.802,-177.5  L 162.161,-177.346 L 158.48,-177.088 L 154.76,-176.726 L 151.001,-176.262 L 147.203,-175.695 L 143.365,-175.024  L 139.489,-174.25 L 131.823,-138.243 L 135.485,-137.481 L 139.136,-136.821 L 142.777,-136.262 L 146.407,-135.805  L 150.027,-135.449 L 153.636,-135.195 L 157.235,-135.043 L 160.823,-134.992 z M 160.246,-142.832 L 157.641,-142.927 L 155.007,-143.086 L 152.344,-143.308 L 149.653,-143.594 L 146.932,-143.944  L 144.184,-144.357 L 141.406,-144.833 L 146.323,-167.757 L 149.186,-168.223 L 151.985,-168.626 L 154.718,-168.968  L 157.385,-169.247 L 159.988,-169.465 L 162.526,-169.62 L 164.999,-169.713 L 167.406,-169.744 L 169.982,-169.712  L 172.583,-169.614 L 175.211,-169.452 L 177.864,-169.224 L 180.544,-168.932 L 183.25,-168.575 L 185.982,-168.153  L 188.739,-167.666 L 183.906,-144.746 L 181.043,-144.29 L 178.245,-143.895 L 175.512,-143.56 L 172.844,-143.286  L 170.241,-143.074 L 167.703,-142.922 L 165.231,-142.83 L 162.823,-142.8 z M 158.809,-45.0429 L 162.447,-45.1956 L 166.122,-45.4501 L 169.833,-45.8065 L 173.58,-46.2646 L 177.364,-46.8246  L 181.184,-47.4864 L 185.041,-48.25 L 192.707,-84.25 L 189.065,-85.0239 L 185.431,-85.6946 L 181.805,-86.2621  L 178.186,-86.7265 L 174.576,-87.0876 L 170.973,-87.3456 L 167.377,-87.5004 L 163.79,-87.552 L 160.187,-87.5004  L 156.545,-87.3456 L 152.864,-87.0876 L 149.145,-86.7265 L 145.385,-86.2621 L 141.587,-85.6946 L 137.75,-85.0239  L 133.874,-84.25 L 126.208,-48.243 L 129.87,-47.481 L 133.521,-46.8207 L 137.161,-46.2619 L 140.792,-45.8047  L 144.411,-45.4492 L 148.021,-45.1952 L 151.62,-45.0428 L 155.208,-44.992 z M 154.631,-52.8318 L 152.026,-52.927 L 149.392,-53.0859 L 146.729,-53.3082 L 144.037,-53.5941 L 141.317,-53.9436  L 138.568,-54.3565 L 135.791,-54.833 L 140.708,-77.757 L 143.571,-78.2227 L 146.369,-78.6263 L 149.102,-78.9678  L 151.77,-79.2472 L 154.373,-79.4646 L 156.911,-79.6198 L 159.383,-79.713 L 161.791,-79.744 L 164.367,-79.7115  L 166.968,-79.6141 L 169.596,-79.4518 L 172.249,-79.2245 L 174.929,-78.9323 L 177.635,-78.5751 L 180.366,-78.153  L 183.124,-77.666 L 178.291,-54.746 L 175.428,-54.2899 L 172.63,-53.8946 L 169.897,-53.5602 L 167.229,-53.2865  L 164.626,-53.0737 L 162.088,-52.9216 L 159.616,-52.8304 L 157.208,-52.8 z M 82.9776,-45.0221 L 87.2029,-45.1123 L 91.259,-45.2627 L 95.1457,-45.4732 L 98.8632,-45.7439 L 102.411,-46.0748  L 105.79,-46.4658 L 109,-46.917 L 112.75,-64.577 L 104.333,-66.248 L 113.5,-67.752 L 117.333,-86.048  L 114.276,-86.4005 L 111.021,-86.706 L 107.568,-86.9645 L 103.916,-87.176 L 100.068,-87.3405 L 96.0206,-87.458  L 91.7758,-87.5285 L 87.333,-87.552 L 82.4255,-87.5225 L 77.6196,-87.4341 L 72.9153,-87.2868 L 68.3125,-87.0805  L 63.8113,-86.8153 L 59.4116,-86.4911 L 55.1135,-86.108 L 50.917,-85.666 L 49.417,-78.5 L 54.167,-78.5  L 49.083,-54.75 L 44.5,-54.917 L 43,-47.494 L 47.0741,-46.9076 L 51.2551,-46.3994 L 55.5428,-45.9693  L 59.9372,-45.6175 L 64.4385,-45.3438 L 69.0466,-45.1484 L 73.7614,-45.0311 L 78.583,-44.992 z M 60.583,-70.592 L 62.417,-78.919 L 64.7973,-79.1573 L 67.2296,-79.3639 L 69.714,-79.5387 L 72.2505,-79.6817  L 74.839,-79.793 L 77.4796,-79.8724 L 80.1723,-79.9201 L 82.917,-79.936 L 85.9274,-79.9149 L 88.9586,-79.8516  L 92.0107,-79.746 L 95.0835,-79.5982 L 98.1772,-79.4083 L 101.292,-79.1761 L 104.427,-78.9016 L 107.583,-78.585  L 106.5,-73.659 L 103.042,-72.9402 L 99.7084,-72.3172 L 96.5001,-71.79 L 93.4167,-71.3587 L 90.4584,-71.0233  L 87.6249,-70.7837 L 84.9165,-70.6399 L 82.333,-70.592 z M 74.9661,-52.9459 L 72.2395,-52.9997 L 69.5703,-53.0893 L 66.9582,-53.2147 L 64.4035,-53.376 L 61.9061,-53.5732  L 59.4659,-53.8062 L 57.083,-54.075 L 58.917,-62.4 L 80.667,-62.4 L 82.9899,-62.3429 L 85.4586,-62.1717  L 88.0732,-61.8864 L 90.8335,-61.487 L 93.7397,-60.9734 L 96.7916,-60.3457 L 99.9894,-59.6039 L 103.333,-58.748  L 102.416,-54.166 L 99.3509,-53.8758 L 96.2806,-53.6244 L 93.2052,-53.4116 L 90.1245,-53.2375 L 87.0387,-53.1021  L 83.9476,-53.0054 L 80.8514,-52.9473 L 77.75,-52.928 z M 229.626,-59.752 L 252.042,-42.176 L 257.959,-48.92 L 237.959,-64.642 L 265.126,-80.583 L 261.959,-87.379  L 231.792,-69.585 L 209.043,-87.489 L 202.959,-80.75 L 223.459,-64.575 L 196.626,-48.729 L 199.709,-42.175  z " fill="lightgray" />
</svg>