G04 #@! TF.GenerationSoftware,KiCad,Pcbnew,5.1.4+dfsg1-1*
G04 #@! TF.CreationDate,2020-12-14T22:30:58-06:00*
G04 #@! TF.ProjectId,HotBox,486f7442-6f78-42e6-9b69-6361645f7063,2*
G04 #@! TF.SameCoordinates,Original*
G04 #@! TF.FileFunction,Legend,Bot*
G04 #@! TF.FilePolarity,Positive*
%FSLAX46Y46*%
G04 Gerber Fmt 4.6, Leading zero omitted, Abs format (unit mm)*
G04 Created by KiCad (PCBNEW 5.1.4+dfsg1-1) date 2020-12-14 22:30:58*
%MOMM*%
%LPD*%
G04 APERTURE LIST*
%ADD10C,0.120000*%
%ADD11C,0.150000*%
G04 APERTURE END LIST*
D10*
X191493000Y-121981000D02*
X192503000Y-121981000D01*
X191493000Y-116901000D02*
X191493000Y-121981000D01*
X192503000Y-116901000D02*
X191493000Y-116901000D01*
X192603000Y-115551000D02*
X186603000Y-115551000D01*
X192603000Y-125851000D02*
X192603000Y-115551000D01*
X186653000Y-125851000D02*
X192603000Y-125851000D01*
X186653000Y-122651000D02*
X186653000Y-125851000D01*
X186603000Y-115551000D02*
X186603000Y-121301000D01*
X166873000Y-114333000D02*
X126873000Y-114333000D01*
X166873000Y-74333000D02*
X166873000Y-114333000D01*
X126873000Y-74333000D02*
X166873000Y-74333000D01*
X126873000Y-114333000D02*
X126873000Y-74333000D01*
X166873000Y-114333000D02*
X126873000Y-114333000D01*
X166873000Y-74333000D02*
X166873000Y-114333000D01*
X126873000Y-74333000D02*
X166873000Y-74333000D01*
X126873000Y-114333000D02*
X126873000Y-74333000D01*
X187578000Y-108013000D02*
X188778000Y-108013000D01*
X188778000Y-106253000D02*
X187578000Y-106253000D01*
X179033000Y-136217500D02*
X179033000Y-135017500D01*
X177273000Y-135017500D02*
X177273000Y-136217500D01*
D11*
X186105380Y-120091476D02*
X185105380Y-120091476D01*
X185819666Y-120424809D01*
X185105380Y-120758142D01*
X186105380Y-120758142D01*
X186105380Y-121758142D02*
X186105380Y-121186714D01*
X186105380Y-121472428D02*
X185105380Y-121472428D01*
X185248238Y-121377190D01*
X185343476Y-121281952D01*
X185391095Y-121186714D01*
X109325380Y-131023476D02*
X108325380Y-131023476D01*
X109039666Y-131356809D01*
X108325380Y-131690142D01*
X109325380Y-131690142D01*
X108420619Y-132118714D02*
X108373000Y-132166333D01*
X108325380Y-132261571D01*
X108325380Y-132499666D01*
X108373000Y-132594904D01*
X108420619Y-132642523D01*
X108515857Y-132690142D01*
X108611095Y-132690142D01*
X108753952Y-132642523D01*
X109325380Y-132071095D01*
X109325380Y-132690142D01*
X148063476Y-94285380D02*
X148063476Y-93285380D01*
X147682523Y-93285380D01*
X147587285Y-93333000D01*
X147539666Y-93380619D01*
X147492047Y-93475857D01*
X147492047Y-93618714D01*
X147539666Y-93713952D01*
X147587285Y-93761571D01*
X147682523Y-93809190D01*
X148063476Y-93809190D01*
X147063476Y-93761571D02*
X146730142Y-93761571D01*
X146587285Y-94285380D02*
X147063476Y-94285380D01*
X147063476Y-93285380D01*
X146587285Y-93285380D01*
X145634904Y-94285380D02*
X146206333Y-94285380D01*
X145920619Y-94285380D02*
X145920619Y-93285380D01*
X146015857Y-93428238D01*
X146111095Y-93523476D01*
X146206333Y-93571095D01*
X189463714Y-108235380D02*
X188892285Y-108235380D01*
X189178000Y-109235380D02*
X189178000Y-108235380D01*
X188558952Y-109235380D02*
X188558952Y-108235380D01*
X188558952Y-108711571D02*
X187987523Y-108711571D01*
X187987523Y-109235380D02*
X187987523Y-108235380D01*
X187558952Y-108330619D02*
X187511333Y-108283000D01*
X187416095Y-108235380D01*
X187178000Y-108235380D01*
X187082761Y-108283000D01*
X187035142Y-108330619D01*
X186987523Y-108425857D01*
X186987523Y-108521095D01*
X187035142Y-108663952D01*
X187606571Y-109235380D01*
X186987523Y-109235380D01*
X175955380Y-134331785D02*
X175955380Y-134903214D01*
X176955380Y-134617500D02*
X175955380Y-134617500D01*
X176955380Y-135236547D02*
X175955380Y-135236547D01*
X176431571Y-135236547D02*
X176431571Y-135807976D01*
X176955380Y-135807976D02*
X175955380Y-135807976D01*
X176955380Y-136807976D02*
X176955380Y-136236547D01*
X176955380Y-136522261D02*
X175955380Y-136522261D01*
X176098238Y-136427023D01*
X176193476Y-136331785D01*
X176241095Y-136236547D01*
M02*
