M48
INCH,TZ
T1C0.0157
T2C0.0315
T3C0.0394
T4C0.0402
T5C0.0433
T6C0.0642
T7C0.1063
T8C0.2402
%
G90
G05
T1
X45264Y-27049
X46089Y-52624
X46089Y-53424
X47044Y-47955
X47044Y-51455
X47839Y-52649
X49514Y-47049
X56092Y-54344
X59564Y-19749
X68060Y-45958
X68060Y-48950
X69153Y-46588
X70816Y-47375
X70816Y-46509
X70895Y-48241
T2
X51131Y-47281
X51131Y-53281
X52131Y-47281
X52131Y-53281
X53131Y-47281
X53131Y-53281
X54131Y-47281
X54131Y-53281
X55131Y-47281
X55131Y-53281
X56131Y-47281
X56131Y-53281
X57131Y-47281
X57131Y-53281
X58131Y-47281
X58131Y-53281
X59131Y-47281
X59131Y-53281
X60131Y-47281
X60131Y-53281
X61131Y-47281
X61131Y-53281
X62131Y-47281
X62131Y-53281
X63131Y-47281
X63131Y-53281
X64131Y-47281
X64131Y-53281
X65131Y-47281
X65131Y-53281
X58130Y-26749
X59114Y-26749
T3
X41879Y-34580
X41879Y-35580
X41879Y-36580
X41879Y-37580
X41879Y-38580
X41879Y-39580
X41879Y-40580
X41879Y-41580
X46879Y-34580
X46879Y-35580
X46879Y-36580
X46879Y-37580
X46879Y-38580
X46879Y-39580
X46879Y-40580
X46879Y-41580
T4
X74489Y-46024
X74489Y-47024
X74489Y-48024
X74489Y-49024
T5
X67548Y-37533
X67548Y-39501
X69517Y-37533
X69517Y-39501
X67706Y-31352
X67706Y-33320
X69674Y-31352
X69674Y-33320
T6
X49163Y-29265
X49163Y-45013
T7
X57657Y-23419
X59625Y-23419
T8
X51919Y-23359
X65304Y-23359
T0
M30
