G04 #@! TF.GenerationSoftware,KiCad,Pcbnew,5.1.4+dfsg1-1*
G04 #@! TF.CreationDate,2020-12-14T22:30:58-06:00*
G04 #@! TF.ProjectId,HotBox,486f7442-6f78-42e6-9b69-6361645f7063,2*
G04 #@! TF.SameCoordinates,Original*
G04 #@! TF.FileFunction,Copper,L1,Top*
G04 #@! TF.FilePolarity,Positive*
%FSLAX46Y46*%
G04 Gerber Fmt 4.6, Leading zero omitted, Abs format (unit mm)*
G04 Created by KiCad (PCBNEW 5.1.4+dfsg1-1) date 2020-12-14 22:30:58*
%MOMM*%
%LPD*%
G04 APERTURE LIST*
%ADD10O,2.030000X1.730000*%
%ADD11R,2.030000X1.730000*%
%ADD12R,1.600000X1.600000*%
%ADD13O,1.600000X1.600000*%
%ADD14R,0.700000X0.800000*%
%ADD15R,4.500000X4.290000*%
%ADD16R,1.700000X1.700000*%
%ADD17C,1.700000*%
%ADD18C,10.160000*%
%ADD19C,1.600000*%
%ADD20C,0.100000*%
%ADD21C,0.875000*%
%ADD22R,3.800000X3.800000*%
%ADD23C,3.800000*%
%ADD24R,1.350000X0.850000*%
%ADD25R,0.850000X1.350000*%
%ADD26C,2.500000*%
%ADD27R,1.500000X0.400000*%
%ADD28C,2.200000*%
%ADD29R,0.500000X0.800000*%
%ADD30R,0.400000X0.800000*%
%ADD31R,0.400000X1.500000*%
%ADD32R,2.000000X3.800000*%
%ADD33R,2.000000X1.500000*%
%ADD34R,1.800000X2.500000*%
%ADD35C,0.300000*%
%ADD36C,0.800000*%
%ADD37C,0.250000*%
%ADD38C,0.508000*%
%ADD39C,0.762000*%
%ADD40C,0.254000*%
G04 APERTURE END LIST*
D10*
X189203000Y-124521000D03*
X189203000Y-121981000D03*
X189203000Y-119441000D03*
D11*
X189203000Y-116901000D03*
D12*
X129873000Y-135333000D03*
D13*
X162893000Y-120093000D03*
X132413000Y-135333000D03*
X160353000Y-120093000D03*
X134953000Y-135333000D03*
X157813000Y-120093000D03*
X137493000Y-135333000D03*
X155273000Y-120093000D03*
X140033000Y-135333000D03*
X152733000Y-120093000D03*
X142573000Y-135333000D03*
X150193000Y-120093000D03*
X145113000Y-135333000D03*
X147653000Y-120093000D03*
X147653000Y-135333000D03*
X145113000Y-120093000D03*
X150193000Y-135333000D03*
X142573000Y-120093000D03*
X152733000Y-135333000D03*
X140033000Y-120093000D03*
X155273000Y-135333000D03*
X137493000Y-120093000D03*
X157813000Y-135333000D03*
X134953000Y-120093000D03*
X160353000Y-135333000D03*
X132413000Y-120093000D03*
X162893000Y-135333000D03*
X129873000Y-120093000D03*
X165433000Y-135333000D03*
X165433000Y-120093000D03*
D14*
X121783000Y-65083000D03*
X120513000Y-65083000D03*
X119233000Y-65083000D03*
X117963000Y-65083000D03*
X117963000Y-70583000D03*
X119233000Y-70583000D03*
X120513000Y-70583000D03*
X121783000Y-70583000D03*
D15*
X119873000Y-68333000D03*
D16*
X106373000Y-87833000D03*
D17*
X106373000Y-90373000D03*
X106373000Y-92913000D03*
X106373000Y-95453000D03*
X106373000Y-97993000D03*
X106373000Y-100533000D03*
X106373000Y-103073000D03*
X106373000Y-105613000D03*
X119073000Y-105613000D03*
X119073000Y-103073000D03*
X119073000Y-100533000D03*
X119073000Y-97993000D03*
X119073000Y-95453000D03*
X119073000Y-92913000D03*
X119073000Y-90373000D03*
X119073000Y-87833000D03*
D18*
X165873000Y-59333000D03*
X131873000Y-59333000D03*
D12*
X150149500Y-67942500D03*
D19*
X147649500Y-67942500D03*
D20*
G36*
X117414191Y-60958553D02*
G01*
X117435426Y-60961703D01*
X117456250Y-60966919D01*
X117476462Y-60974151D01*
X117495868Y-60983330D01*
X117514281Y-60994366D01*
X117531524Y-61007154D01*
X117547430Y-61021570D01*
X117561846Y-61037476D01*
X117574634Y-61054719D01*
X117585670Y-61073132D01*
X117594849Y-61092538D01*
X117602081Y-61112750D01*
X117607297Y-61133574D01*
X117610447Y-61154809D01*
X117611500Y-61176250D01*
X117611500Y-61613750D01*
X117610447Y-61635191D01*
X117607297Y-61656426D01*
X117602081Y-61677250D01*
X117594849Y-61697462D01*
X117585670Y-61716868D01*
X117574634Y-61735281D01*
X117561846Y-61752524D01*
X117547430Y-61768430D01*
X117531524Y-61782846D01*
X117514281Y-61795634D01*
X117495868Y-61806670D01*
X117476462Y-61815849D01*
X117456250Y-61823081D01*
X117435426Y-61828297D01*
X117414191Y-61831447D01*
X117392750Y-61832500D01*
X116880250Y-61832500D01*
X116858809Y-61831447D01*
X116837574Y-61828297D01*
X116816750Y-61823081D01*
X116796538Y-61815849D01*
X116777132Y-61806670D01*
X116758719Y-61795634D01*
X116741476Y-61782846D01*
X116725570Y-61768430D01*
X116711154Y-61752524D01*
X116698366Y-61735281D01*
X116687330Y-61716868D01*
X116678151Y-61697462D01*
X116670919Y-61677250D01*
X116665703Y-61656426D01*
X116662553Y-61635191D01*
X116661500Y-61613750D01*
X116661500Y-61176250D01*
X116662553Y-61154809D01*
X116665703Y-61133574D01*
X116670919Y-61112750D01*
X116678151Y-61092538D01*
X116687330Y-61073132D01*
X116698366Y-61054719D01*
X116711154Y-61037476D01*
X116725570Y-61021570D01*
X116741476Y-61007154D01*
X116758719Y-60994366D01*
X116777132Y-60983330D01*
X116796538Y-60974151D01*
X116816750Y-60966919D01*
X116837574Y-60961703D01*
X116858809Y-60958553D01*
X116880250Y-60957500D01*
X117392750Y-60957500D01*
X117414191Y-60958553D01*
X117414191Y-60958553D01*
G37*
D21*
X117136500Y-61395000D03*
D20*
G36*
X117414191Y-59383553D02*
G01*
X117435426Y-59386703D01*
X117456250Y-59391919D01*
X117476462Y-59399151D01*
X117495868Y-59408330D01*
X117514281Y-59419366D01*
X117531524Y-59432154D01*
X117547430Y-59446570D01*
X117561846Y-59462476D01*
X117574634Y-59479719D01*
X117585670Y-59498132D01*
X117594849Y-59517538D01*
X117602081Y-59537750D01*
X117607297Y-59558574D01*
X117610447Y-59579809D01*
X117611500Y-59601250D01*
X117611500Y-60038750D01*
X117610447Y-60060191D01*
X117607297Y-60081426D01*
X117602081Y-60102250D01*
X117594849Y-60122462D01*
X117585670Y-60141868D01*
X117574634Y-60160281D01*
X117561846Y-60177524D01*
X117547430Y-60193430D01*
X117531524Y-60207846D01*
X117514281Y-60220634D01*
X117495868Y-60231670D01*
X117476462Y-60240849D01*
X117456250Y-60248081D01*
X117435426Y-60253297D01*
X117414191Y-60256447D01*
X117392750Y-60257500D01*
X116880250Y-60257500D01*
X116858809Y-60256447D01*
X116837574Y-60253297D01*
X116816750Y-60248081D01*
X116796538Y-60240849D01*
X116777132Y-60231670D01*
X116758719Y-60220634D01*
X116741476Y-60207846D01*
X116725570Y-60193430D01*
X116711154Y-60177524D01*
X116698366Y-60160281D01*
X116687330Y-60141868D01*
X116678151Y-60122462D01*
X116670919Y-60102250D01*
X116665703Y-60081426D01*
X116662553Y-60060191D01*
X116661500Y-60038750D01*
X116661500Y-59601250D01*
X116662553Y-59579809D01*
X116665703Y-59558574D01*
X116670919Y-59537750D01*
X116678151Y-59517538D01*
X116687330Y-59498132D01*
X116698366Y-59479719D01*
X116711154Y-59462476D01*
X116725570Y-59446570D01*
X116741476Y-59432154D01*
X116758719Y-59419366D01*
X116777132Y-59408330D01*
X116796538Y-59399151D01*
X116816750Y-59391919D01*
X116837574Y-59386703D01*
X116858809Y-59383553D01*
X116880250Y-59382500D01*
X117392750Y-59382500D01*
X117414191Y-59383553D01*
X117414191Y-59383553D01*
G37*
D21*
X117136500Y-59820000D03*
D22*
X146448000Y-59483000D03*
D23*
X151448000Y-59483000D03*
D24*
X110081000Y-65228000D03*
X110081000Y-63418000D03*
D25*
X176468000Y-122333000D03*
X178278000Y-122333000D03*
X178378000Y-118333000D03*
X176568000Y-118333000D03*
D26*
X124873000Y-74333000D03*
X124873000Y-114333000D03*
D27*
X112430500Y-65260500D03*
X112430500Y-65910500D03*
X112430500Y-66560500D03*
X115090500Y-66560500D03*
X115090500Y-65910500D03*
X115090500Y-65260500D03*
D25*
X172968000Y-118333000D03*
X174778000Y-118333000D03*
X172968000Y-122333000D03*
X174778000Y-122333000D03*
D24*
X115136500Y-61612500D03*
X115136500Y-59802500D03*
D28*
X176973000Y-84633000D03*
X176973000Y-79633000D03*
X171973000Y-79633000D03*
X171973000Y-84633000D03*
X171573000Y-100333000D03*
X171573000Y-95333000D03*
X176573000Y-95333000D03*
X176573000Y-100333000D03*
D25*
X116971000Y-63180000D03*
X115161000Y-63180000D03*
D29*
X111916000Y-109968500D03*
D30*
X111116000Y-109968500D03*
D29*
X109516000Y-109968500D03*
D30*
X110316000Y-109968500D03*
D29*
X111916000Y-111768500D03*
D30*
X110316000Y-111768500D03*
X111116000Y-111768500D03*
D29*
X109516000Y-111768500D03*
X113834000Y-111768500D03*
D30*
X115434000Y-111768500D03*
X114634000Y-111768500D03*
D29*
X116234000Y-111768500D03*
D30*
X114634000Y-109968500D03*
D29*
X113834000Y-109968500D03*
D30*
X115434000Y-109968500D03*
D29*
X116234000Y-109968500D03*
D24*
X121511000Y-130791500D03*
X121511000Y-132601500D03*
D31*
X117178000Y-132074000D03*
X117828000Y-132074000D03*
X118478000Y-132074000D03*
X118478000Y-129414000D03*
X117828000Y-129414000D03*
X117178000Y-129414000D03*
D32*
X123518000Y-119504500D03*
D33*
X117218000Y-119504500D03*
X117218000Y-121804500D03*
X117218000Y-117204500D03*
D34*
X176502000Y-69561500D03*
X176502000Y-65561500D03*
D35*
X125903000Y-117409000D03*
D20*
G36*
X126903000Y-117409000D02*
G01*
X126403000Y-118159000D01*
X125403000Y-118159000D01*
X125403000Y-116659000D01*
X126403000Y-116659000D01*
X126903000Y-117409000D01*
X126903000Y-117409000D01*
G37*
D35*
X127353000Y-117409000D03*
D20*
G36*
X127853000Y-118159000D02*
G01*
X126703000Y-118159000D01*
X127203000Y-117409000D01*
X126703000Y-116659000D01*
X127853000Y-116659000D01*
X127853000Y-118159000D01*
X127853000Y-118159000D01*
G37*
D35*
X127316000Y-121727000D03*
D20*
G36*
X127816000Y-122477000D02*
G01*
X126666000Y-122477000D01*
X127166000Y-121727000D01*
X126666000Y-120977000D01*
X127816000Y-120977000D01*
X127816000Y-122477000D01*
X127816000Y-122477000D01*
G37*
D35*
X125866000Y-121727000D03*
D20*
G36*
X126866000Y-121727000D02*
G01*
X126366000Y-122477000D01*
X125366000Y-122477000D01*
X125366000Y-120977000D01*
X126366000Y-120977000D01*
X126866000Y-121727000D01*
X126866000Y-121727000D01*
G37*
D36*
X117066000Y-133665000D03*
X117066000Y-135697000D03*
X179872996Y-120333000D03*
X175648000Y-118333000D03*
X142473000Y-138033000D03*
X179873000Y-118133022D03*
X180073000Y-122533000D03*
X114970500Y-68704500D03*
X121511000Y-133728500D03*
X125765500Y-119504500D03*
X151292500Y-50162500D03*
X119493000Y-121804500D03*
X119493000Y-130694500D03*
X172873000Y-124333000D03*
X172873000Y-116733000D03*
D37*
X129873000Y-134283000D02*
X123476500Y-127886500D01*
X129873000Y-135333000D02*
X129873000Y-134283000D01*
X123476500Y-127886500D02*
X118209000Y-127886500D01*
X117828000Y-128267500D02*
X117828000Y-129414000D01*
X118209000Y-127886500D02*
X117828000Y-128267500D01*
X132413000Y-136464370D02*
X131656370Y-137221000D01*
X132413000Y-135333000D02*
X132413000Y-136464370D01*
X131656370Y-137221000D02*
X121701500Y-137221000D01*
X117828000Y-133074000D02*
X117237000Y-133665000D01*
X117828000Y-132074000D02*
X117828000Y-133074000D01*
X117237000Y-133665000D02*
X117066000Y-133665000D01*
X121701500Y-137221000D02*
X118590000Y-137221000D01*
X118590000Y-137221000D02*
X117066000Y-135697000D01*
X174778000Y-122333000D02*
X176468000Y-122333000D01*
X174778000Y-121408000D02*
X174778000Y-122333000D01*
X166509410Y-117733000D02*
X169509410Y-120733000D01*
X174103000Y-120733000D02*
X174778000Y-121408000D01*
X157813000Y-118393000D02*
X158473000Y-117733000D01*
X157813000Y-120093000D02*
X157813000Y-118393000D01*
X158473000Y-117733000D02*
X166509410Y-117733000D01*
X169509410Y-120733000D02*
X174103000Y-120733000D01*
X176468000Y-122333000D02*
X176468000Y-122083000D01*
X179307311Y-120333000D02*
X179872996Y-120333000D01*
X178218000Y-120333000D02*
X179307311Y-120333000D01*
X176468000Y-122083000D02*
X178218000Y-120333000D01*
X156323010Y-117282990D02*
X155273000Y-118333000D01*
X174778000Y-119258000D02*
X173753010Y-120282990D01*
X155273000Y-118333000D02*
X155273000Y-120093000D01*
X169695810Y-120282990D02*
X166695810Y-117282990D01*
X173753010Y-120282990D02*
X169695810Y-120282990D01*
X174778000Y-118333000D02*
X174778000Y-119258000D01*
X166695810Y-117282990D02*
X156323010Y-117282990D01*
X174778000Y-118333000D02*
X175648000Y-118333000D01*
X175648000Y-118333000D02*
X176568000Y-118333000D01*
X189353000Y-124521000D02*
X189203000Y-124521000D01*
X142573000Y-135333000D02*
X145073000Y-137833000D01*
X145073000Y-137833000D02*
X189987000Y-137833000D01*
X190853000Y-136967000D02*
X190853000Y-126021000D01*
X189987000Y-137833000D02*
X190853000Y-136967000D01*
X190853000Y-126021000D02*
X189353000Y-124521000D01*
X145113000Y-135333000D02*
X147113000Y-137333000D01*
X177787000Y-137333000D02*
X178012410Y-137333000D01*
X147113000Y-137333000D02*
X177787000Y-137333000D01*
X189053000Y-121981000D02*
X189203000Y-121981000D01*
X187551000Y-123483000D02*
X189053000Y-121981000D01*
X190345000Y-128839000D02*
X187551000Y-126045000D01*
X177787000Y-137333000D02*
X187155000Y-137333000D01*
X187551000Y-126045000D02*
X187551000Y-123483000D01*
X187155000Y-137333000D02*
X187267000Y-137221000D01*
X187267000Y-137221000D02*
X189583000Y-137221000D01*
X189583000Y-137221000D02*
X190345000Y-136459000D01*
X190345000Y-136459000D02*
X190345000Y-128839000D01*
X116090500Y-65910500D02*
X116240500Y-66060500D01*
X115090500Y-65910500D02*
X116090500Y-65910500D01*
X102673000Y-135133000D02*
X105573000Y-138033000D01*
X116240500Y-70665500D02*
X102673000Y-84233000D01*
X105573000Y-138033000D02*
X142473000Y-138033000D01*
X116240500Y-66060500D02*
X116240500Y-70665500D01*
X102673000Y-84233000D02*
X102673000Y-135133000D01*
X169773000Y-96583000D02*
X168123000Y-96583000D01*
X168123000Y-96583000D02*
X166873000Y-97833000D01*
X166873000Y-114033000D02*
X164073020Y-116832980D01*
X166873000Y-97833000D02*
X166873000Y-114033000D01*
X164073020Y-116832980D02*
X143773020Y-116832980D01*
X142573000Y-118033000D02*
X142573000Y-120093000D01*
X143773020Y-116832980D02*
X142573000Y-118033000D01*
X171573000Y-98383000D02*
X169773000Y-96583000D01*
X171573000Y-100333000D02*
X171573000Y-98383000D01*
X171573000Y-100333000D02*
X176573000Y-100333000D01*
X152123055Y-126083055D02*
X113623055Y-126083055D01*
X152733000Y-135333000D02*
X152733000Y-126693000D01*
X152733000Y-126693000D02*
X152123055Y-126083055D01*
X109865990Y-122325990D02*
X110086750Y-122546750D01*
X109865990Y-112768490D02*
X109865990Y-122325990D01*
X109516000Y-112418500D02*
X109865990Y-112768490D01*
X109516000Y-111768500D02*
X109516000Y-112418500D01*
X113623055Y-126083055D02*
X110086750Y-122546750D01*
X140832999Y-119136591D02*
X143636590Y-116333000D01*
X140033000Y-120093000D02*
X140832999Y-119293001D01*
X140832999Y-119293001D02*
X140832999Y-119136591D01*
X143636590Y-116333000D02*
X163936590Y-116333000D01*
X163936590Y-116333000D02*
X166422990Y-113846600D01*
X166422990Y-113846600D02*
X166422991Y-97646599D01*
X167854795Y-93151205D02*
X167854795Y-96214795D01*
X166422991Y-97646599D02*
X167854795Y-96214795D01*
X171973000Y-84633000D02*
X176973000Y-84633000D01*
X167973000Y-93033000D02*
X167854795Y-93151205D01*
X171973000Y-84633000D02*
X171973000Y-88433000D01*
X167973000Y-92433000D02*
X167973000Y-93033000D01*
X171973000Y-88433000D02*
X167973000Y-92433000D01*
X155273000Y-126233000D02*
X154673044Y-125633044D01*
X155273000Y-135333000D02*
X155273000Y-126233000D01*
X154673044Y-125633044D02*
X114173044Y-125633044D01*
X110316000Y-121776000D02*
X110618500Y-122078500D01*
X114173044Y-125633044D02*
X110618500Y-122078500D01*
X110316000Y-111768500D02*
X110316000Y-121776000D01*
X157813000Y-125773000D02*
X157223033Y-125183033D01*
X157813000Y-135333000D02*
X157813000Y-125773000D01*
X157223033Y-125183033D02*
X114359443Y-125183033D01*
X111116000Y-121939590D02*
X111317705Y-122141295D01*
X111116000Y-111768500D02*
X111116000Y-121939590D01*
X114359443Y-125183033D02*
X111317705Y-122141295D01*
X159273022Y-124733022D02*
X114545842Y-124733022D01*
X160353000Y-125813000D02*
X159273022Y-124733022D01*
X114545842Y-124733022D02*
X111873000Y-122060180D01*
X111873000Y-112413000D02*
X111873000Y-111738000D01*
X160353000Y-135333000D02*
X160353000Y-125813000D01*
X111873000Y-122060180D02*
X111873000Y-112413000D01*
X162323011Y-124283011D02*
X162893000Y-124853000D01*
X162893000Y-124853000D02*
X162893000Y-135333000D01*
X114823011Y-124283011D02*
X162323011Y-124283011D01*
X113873000Y-111738000D02*
X113873000Y-123333000D01*
X113873000Y-123333000D02*
X114823011Y-124283011D01*
X165373000Y-135273000D02*
X165433000Y-135333000D01*
X116373000Y-123833000D02*
X164373000Y-123833000D01*
X164373000Y-123833000D02*
X165373000Y-124833000D01*
X165373000Y-124833000D02*
X165373000Y-135273000D01*
X114634000Y-111768500D02*
X114634000Y-123168500D01*
X115298500Y-123833000D02*
X116373000Y-123833000D01*
X114634000Y-123168500D02*
X115298500Y-123833000D01*
X124873000Y-123333000D02*
X124373000Y-123333000D01*
X165433000Y-122273000D02*
X165433000Y-120093000D01*
X124873000Y-123333000D02*
X164373000Y-123333000D01*
X164373000Y-123333000D02*
X165433000Y-122273000D01*
X115434000Y-111768500D02*
X115434000Y-122889000D01*
X115878000Y-123333000D02*
X118545000Y-123333000D01*
X115434000Y-122889000D02*
X115878000Y-123333000D01*
X118545000Y-123333000D02*
X124873000Y-123333000D01*
X179872978Y-118133000D02*
X179873000Y-118133022D01*
X178378000Y-118333000D02*
X178578000Y-118133000D01*
X178578000Y-118133000D02*
X179872978Y-118133000D01*
X178478000Y-122533000D02*
X180073000Y-122533000D01*
X178278000Y-122333000D02*
X178478000Y-122533000D01*
X115090500Y-67010500D02*
X114907000Y-67194000D01*
X115090500Y-66560500D02*
X115090500Y-67010500D01*
X114907000Y-67194000D02*
X114907000Y-68641000D01*
X114907000Y-68641000D02*
X114970500Y-68704500D01*
X121511000Y-132601500D02*
X121511000Y-133276500D01*
X121511000Y-133276500D02*
X121511000Y-133728500D01*
D38*
X123518000Y-119504500D02*
X117218000Y-119504500D01*
X123518000Y-119504500D02*
X124768000Y-119504500D01*
X124768000Y-119504500D02*
X125765500Y-119504500D01*
D37*
X115090500Y-65260500D02*
X116382500Y-65260500D01*
X116560000Y-65083000D02*
X117963000Y-65083000D01*
X116382500Y-65260500D02*
X116560000Y-65083000D01*
X115073000Y-65243000D02*
X115090500Y-65260500D01*
X115090500Y-63250500D02*
X115161000Y-63180000D01*
X115090500Y-65260500D02*
X115090500Y-63250500D01*
X115136500Y-63155500D02*
X115161000Y-63180000D01*
X115136500Y-61612500D02*
X115136500Y-63155500D01*
X112414000Y-65244000D02*
X112430500Y-65260500D01*
X110589000Y-65244000D02*
X112414000Y-65244000D01*
X109664000Y-65244000D02*
X109632500Y-65275500D01*
X110589000Y-65244000D02*
X109664000Y-65244000D01*
X109632500Y-65275500D02*
X103159500Y-65275500D01*
X103159500Y-65275500D02*
X102651500Y-64767500D01*
X102651500Y-64767500D02*
X102651500Y-51877000D01*
X102651500Y-51877000D02*
X104366000Y-50162500D01*
X104366000Y-50162500D02*
X151038500Y-50162500D01*
X151038500Y-50162500D02*
X151292500Y-50162500D01*
D38*
X117218000Y-117204500D02*
X117218000Y-115225000D01*
X118110000Y-114333000D02*
X124873000Y-114333000D01*
X117218000Y-115225000D02*
X118110000Y-114333000D01*
D37*
X104753000Y-95453000D02*
X106373000Y-95453000D01*
X103873000Y-96333000D02*
X104753000Y-95453000D01*
X118478000Y-132074000D02*
X118478000Y-134094500D01*
X118478000Y-134094500D02*
X118082000Y-134490500D01*
X118082000Y-134490500D02*
X115859500Y-134490500D01*
X115859500Y-134490500D02*
X115351500Y-133982500D01*
X115351500Y-133982500D02*
X115351500Y-129601000D01*
X115351500Y-129601000D02*
X103873000Y-118122500D01*
X103873000Y-118122500D02*
X103873000Y-96333000D01*
X108381500Y-105613000D02*
X106373000Y-105613000D01*
X109516000Y-109968500D02*
X109516000Y-106747500D01*
X109516000Y-106747500D02*
X108381500Y-105613000D01*
X106743000Y-103073000D02*
X106373000Y-103073000D01*
X110316000Y-106646000D02*
X107642500Y-103972500D01*
X107873000Y-104203000D02*
X107642500Y-103972500D01*
X110316000Y-109968500D02*
X110316000Y-106646000D01*
X107642500Y-103972500D02*
X106743000Y-103073000D01*
X108073000Y-100533000D02*
X106373000Y-100533000D01*
X111116000Y-103576000D02*
X109799750Y-102259750D01*
X109873000Y-102333000D02*
X109799750Y-102259750D01*
X111116000Y-109968500D02*
X111116000Y-103576000D01*
X109799750Y-102259750D02*
X108073000Y-100533000D01*
X116543000Y-105613000D02*
X119073000Y-105613000D01*
X115434000Y-109968500D02*
X115434000Y-106722000D01*
X115434000Y-106722000D02*
X116543000Y-105613000D01*
X117633000Y-103073000D02*
X119073000Y-103073000D01*
X114634000Y-106072000D02*
X115991750Y-104714250D01*
X114634000Y-109968500D02*
X114634000Y-106072000D01*
X115873000Y-104833000D02*
X115991750Y-104714250D01*
X115991750Y-104714250D02*
X117633000Y-103073000D01*
X119073000Y-100533000D02*
X116673000Y-100533000D01*
X113873000Y-103333000D02*
X113873000Y-109928000D01*
X116673000Y-100533000D02*
X113873000Y-103333000D01*
X119073000Y-96655081D02*
X119073000Y-97993000D01*
X119073000Y-95453000D02*
X119073000Y-96655081D01*
X116213000Y-97993000D02*
X119073000Y-97993000D01*
X111873000Y-109928000D02*
X111873000Y-102333000D01*
X111873000Y-102333000D02*
X116213000Y-97993000D01*
X115136500Y-59802500D02*
X117119000Y-59802500D01*
X119558500Y-130728000D02*
X119542500Y-130744000D01*
X118478000Y-129414000D02*
X118478000Y-130505000D01*
X118717000Y-130744000D02*
X119542500Y-130744000D01*
X118478000Y-130505000D02*
X118717000Y-130744000D01*
X117508000Y-130744000D02*
X118717000Y-130744000D01*
X117178000Y-131074000D02*
X117508000Y-130744000D01*
X117178000Y-132074000D02*
X117178000Y-131074000D01*
X121414000Y-130694500D02*
X121511000Y-130791500D01*
X119493000Y-130694500D02*
X121414000Y-130694500D01*
X125866000Y-121727000D02*
X125295290Y-122297710D01*
D39*
X125295290Y-122297710D02*
X120557710Y-122297710D01*
X120064500Y-121804500D02*
X119493000Y-121804500D01*
X120557710Y-122297710D02*
X120064500Y-121804500D01*
X117218000Y-121804500D02*
X119493000Y-121804500D01*
D37*
X112430500Y-65910500D02*
X112430500Y-66560500D01*
X104373000Y-99993000D02*
X106373000Y-97993000D01*
X104373000Y-117833000D02*
X104373000Y-99993000D01*
X117178000Y-129414000D02*
X117178000Y-127681000D01*
X116512500Y-127015500D02*
X113555500Y-127015500D01*
X117178000Y-127681000D02*
X116512500Y-127015500D01*
X113555500Y-127015500D02*
X104373000Y-117833000D01*
X172873000Y-122428000D02*
X172873000Y-124333000D01*
X172968000Y-122333000D02*
X172873000Y-122428000D01*
X172873000Y-118238000D02*
X172873000Y-116733000D01*
X172968000Y-118333000D02*
X172873000Y-118238000D01*
X170473000Y-122333000D02*
X172968000Y-122333000D01*
X166473000Y-118333000D02*
X170473000Y-122333000D01*
X163521630Y-118333000D02*
X166473000Y-118333000D01*
X162893000Y-120093000D02*
X162893000Y-118961630D01*
X162893000Y-118961630D02*
X163521630Y-118333000D01*
D39*
X162893000Y-120093000D02*
X162893000Y-122001000D01*
X162893000Y-122001000D02*
X162659000Y-122235000D01*
X127447010Y-121858010D02*
X127447010Y-121727000D01*
X162659000Y-122235000D02*
X127824000Y-122235000D01*
X127824000Y-122235000D02*
X127447010Y-121858010D01*
X129873000Y-120093000D02*
X129873000Y-117897000D01*
X129385000Y-117409000D02*
X127484010Y-117409000D01*
X129873000Y-117897000D02*
X129385000Y-117409000D01*
D40*
G36*
X150276500Y-68134533D02*
G01*
X150276500Y-69218750D01*
X150435250Y-69377500D01*
X150949500Y-69380572D01*
X151073982Y-69368312D01*
X151193680Y-69332002D01*
X151303994Y-69273037D01*
X151400685Y-69193685D01*
X151480037Y-69096994D01*
X151539002Y-68986680D01*
X151575312Y-68866982D01*
X151587572Y-68742500D01*
X151584500Y-68228250D01*
X151492617Y-68136367D01*
X174980806Y-68171794D01*
X174976188Y-68187018D01*
X174963928Y-68311500D01*
X174967000Y-69275750D01*
X175125750Y-69434500D01*
X176375000Y-69434500D01*
X176375000Y-69414500D01*
X176629000Y-69414500D01*
X176629000Y-69434500D01*
X177878250Y-69434500D01*
X178037000Y-69275750D01*
X178040072Y-68311500D01*
X178027812Y-68187018D01*
X178024587Y-68176385D01*
X191234000Y-68196309D01*
X191234000Y-120679653D01*
X190094580Y-120676552D01*
X189929802Y-120588476D01*
X189647051Y-120502705D01*
X189426680Y-120481000D01*
X188979320Y-120481000D01*
X188758949Y-120502705D01*
X188476198Y-120588476D01*
X188320454Y-120671723D01*
X180861378Y-120651421D01*
X180868222Y-120634898D01*
X180907996Y-120434939D01*
X180907996Y-120231061D01*
X180868222Y-120031102D01*
X180790201Y-119842744D01*
X180676933Y-119673226D01*
X180532770Y-119529063D01*
X180363252Y-119415795D01*
X180174894Y-119337774D01*
X179974935Y-119298000D01*
X179771057Y-119298000D01*
X179571098Y-119337774D01*
X179382740Y-119415795D01*
X179213222Y-119529063D01*
X179169285Y-119573000D01*
X179093019Y-119573000D01*
X179157494Y-119538537D01*
X179254185Y-119459185D01*
X179333537Y-119362494D01*
X179392502Y-119252180D01*
X179428812Y-119132482D01*
X179434790Y-119071785D01*
X179571102Y-119128248D01*
X179771061Y-119168022D01*
X179974939Y-119168022D01*
X180174898Y-119128248D01*
X180363256Y-119050227D01*
X180532774Y-118936959D01*
X180676937Y-118792796D01*
X180790205Y-118623278D01*
X180868226Y-118434920D01*
X180908000Y-118234961D01*
X180908000Y-118031083D01*
X180868226Y-117831124D01*
X180790205Y-117642766D01*
X180676937Y-117473248D01*
X180532774Y-117329085D01*
X180363256Y-117215817D01*
X180174898Y-117137796D01*
X179974939Y-117098022D01*
X179771061Y-117098022D01*
X179571102Y-117137796D01*
X179382744Y-117215817D01*
X179304486Y-117268107D01*
X179254185Y-117206815D01*
X179157494Y-117127463D01*
X179047180Y-117068498D01*
X178927482Y-117032188D01*
X178803000Y-117019928D01*
X177953000Y-117019928D01*
X177828518Y-117032188D01*
X177708820Y-117068498D01*
X177598506Y-117127463D01*
X177501815Y-117206815D01*
X177473000Y-117241926D01*
X177444185Y-117206815D01*
X177347494Y-117127463D01*
X177237180Y-117068498D01*
X177117482Y-117032188D01*
X176993000Y-117019928D01*
X176143000Y-117019928D01*
X176018518Y-117032188D01*
X175898820Y-117068498D01*
X175788506Y-117127463D01*
X175691815Y-117206815D01*
X175673000Y-117229741D01*
X175654185Y-117206815D01*
X175557494Y-117127463D01*
X175447180Y-117068498D01*
X175327482Y-117032188D01*
X175203000Y-117019928D01*
X174353000Y-117019928D01*
X174228518Y-117032188D01*
X174108820Y-117068498D01*
X173998506Y-117127463D01*
X173901815Y-117206815D01*
X173873000Y-117241926D01*
X173844185Y-117206815D01*
X173808982Y-117177925D01*
X173868226Y-117034898D01*
X173908000Y-116834939D01*
X173908000Y-116631061D01*
X173868226Y-116431102D01*
X173790205Y-116242744D01*
X173676937Y-116073226D01*
X173639711Y-116036000D01*
X187549928Y-116036000D01*
X187549928Y-117766000D01*
X187562188Y-117890482D01*
X187598498Y-118010180D01*
X187657463Y-118120494D01*
X187736815Y-118217185D01*
X187833506Y-118296537D01*
X187943820Y-118355502D01*
X188063518Y-118391812D01*
X188188000Y-118404072D01*
X190218000Y-118404072D01*
X190342482Y-118391812D01*
X190462180Y-118355502D01*
X190572494Y-118296537D01*
X190669185Y-118217185D01*
X190748537Y-118120494D01*
X190807502Y-118010180D01*
X190843812Y-117890482D01*
X190856072Y-117766000D01*
X190856072Y-116036000D01*
X190843812Y-115911518D01*
X190807502Y-115791820D01*
X190748537Y-115681506D01*
X190669185Y-115584815D01*
X190572494Y-115505463D01*
X190462180Y-115446498D01*
X190342482Y-115410188D01*
X190218000Y-115397928D01*
X188188000Y-115397928D01*
X188063518Y-115410188D01*
X187943820Y-115446498D01*
X187833506Y-115505463D01*
X187736815Y-115584815D01*
X187657463Y-115681506D01*
X187598498Y-115791820D01*
X187562188Y-115911518D01*
X187549928Y-116036000D01*
X173639711Y-116036000D01*
X173532774Y-115929063D01*
X173363256Y-115815795D01*
X173174898Y-115737774D01*
X172974939Y-115698000D01*
X172771061Y-115698000D01*
X172571102Y-115737774D01*
X172382744Y-115815795D01*
X172213226Y-115929063D01*
X172069063Y-116073226D01*
X171955795Y-116242744D01*
X171877774Y-116431102D01*
X171838000Y-116631061D01*
X171838000Y-116834939D01*
X171877774Y-117034898D01*
X171955795Y-117223256D01*
X172011109Y-117306039D01*
X171953498Y-117413820D01*
X171917188Y-117533518D01*
X171904928Y-117658000D01*
X171904928Y-119008000D01*
X171917188Y-119132482D01*
X171953498Y-119252180D01*
X172012463Y-119362494D01*
X172091815Y-119459185D01*
X172169562Y-119522990D01*
X170010612Y-119522990D01*
X167259614Y-116771993D01*
X167235811Y-116742989D01*
X167120086Y-116648016D01*
X166988057Y-116577444D01*
X166844796Y-116533987D01*
X166733143Y-116522990D01*
X166733132Y-116522990D01*
X166695810Y-116519314D01*
X166658488Y-116522990D01*
X165457811Y-116522990D01*
X167384003Y-114596799D01*
X167413001Y-114573001D01*
X167507974Y-114457276D01*
X167578546Y-114325247D01*
X167622003Y-114181986D01*
X167633000Y-114070333D01*
X167633000Y-114070325D01*
X167636676Y-114033000D01*
X167633000Y-113995675D01*
X167633000Y-98147801D01*
X168437802Y-97343000D01*
X169458199Y-97343000D01*
X170813001Y-98697804D01*
X170813001Y-98769851D01*
X170751169Y-98795463D01*
X170467002Y-98985337D01*
X170225337Y-99227002D01*
X170035463Y-99511169D01*
X169904675Y-99826919D01*
X169838000Y-100162117D01*
X169838000Y-100503883D01*
X169904675Y-100839081D01*
X170035463Y-101154831D01*
X170225337Y-101438998D01*
X170467002Y-101680663D01*
X170751169Y-101870537D01*
X171066919Y-102001325D01*
X171402117Y-102068000D01*
X171743883Y-102068000D01*
X172079081Y-102001325D01*
X172394831Y-101870537D01*
X172678998Y-101680663D01*
X172920663Y-101438998D01*
X173110537Y-101154831D01*
X173136148Y-101093000D01*
X175009852Y-101093000D01*
X175035463Y-101154831D01*
X175225337Y-101438998D01*
X175467002Y-101680663D01*
X175751169Y-101870537D01*
X176066919Y-102001325D01*
X176402117Y-102068000D01*
X176743883Y-102068000D01*
X177079081Y-102001325D01*
X177394831Y-101870537D01*
X177678998Y-101680663D01*
X177920663Y-101438998D01*
X178110537Y-101154831D01*
X178241325Y-100839081D01*
X178308000Y-100503883D01*
X178308000Y-100162117D01*
X178241325Y-99826919D01*
X178110537Y-99511169D01*
X177920663Y-99227002D01*
X177678998Y-98985337D01*
X177394831Y-98795463D01*
X177079081Y-98664675D01*
X176743883Y-98598000D01*
X176402117Y-98598000D01*
X176066919Y-98664675D01*
X175751169Y-98795463D01*
X175467002Y-98985337D01*
X175225337Y-99227002D01*
X175035463Y-99511169D01*
X175009852Y-99573000D01*
X173136148Y-99573000D01*
X173110537Y-99511169D01*
X172920663Y-99227002D01*
X172678998Y-98985337D01*
X172394831Y-98795463D01*
X172333000Y-98769852D01*
X172333000Y-98420322D01*
X172336676Y-98382999D01*
X172333000Y-98345676D01*
X172333000Y-98345667D01*
X172322003Y-98234014D01*
X172278546Y-98090753D01*
X172207974Y-97958724D01*
X172191660Y-97938845D01*
X172136799Y-97871996D01*
X172136795Y-97871992D01*
X172113001Y-97842999D01*
X172084008Y-97819205D01*
X171315591Y-97050789D01*
X171402117Y-97068000D01*
X171743883Y-97068000D01*
X172079081Y-97001325D01*
X172394831Y-96870537D01*
X172678998Y-96680663D01*
X172920663Y-96438998D01*
X173110537Y-96154831D01*
X173241325Y-95839081D01*
X173308000Y-95503883D01*
X173308000Y-95162117D01*
X174838000Y-95162117D01*
X174838000Y-95503883D01*
X174904675Y-95839081D01*
X175035463Y-96154831D01*
X175225337Y-96438998D01*
X175467002Y-96680663D01*
X175751169Y-96870537D01*
X176066919Y-97001325D01*
X176402117Y-97068000D01*
X176743883Y-97068000D01*
X177079081Y-97001325D01*
X177394831Y-96870537D01*
X177678998Y-96680663D01*
X177920663Y-96438998D01*
X178110537Y-96154831D01*
X178241325Y-95839081D01*
X178308000Y-95503883D01*
X178308000Y-95162117D01*
X178241325Y-94826919D01*
X178110537Y-94511169D01*
X177920663Y-94227002D01*
X177678998Y-93985337D01*
X177394831Y-93795463D01*
X177079081Y-93664675D01*
X176743883Y-93598000D01*
X176402117Y-93598000D01*
X176066919Y-93664675D01*
X175751169Y-93795463D01*
X175467002Y-93985337D01*
X175225337Y-94227002D01*
X175035463Y-94511169D01*
X174904675Y-94826919D01*
X174838000Y-95162117D01*
X173308000Y-95162117D01*
X173241325Y-94826919D01*
X173110537Y-94511169D01*
X172920663Y-94227002D01*
X172678998Y-93985337D01*
X172394831Y-93795463D01*
X172079081Y-93664675D01*
X171743883Y-93598000D01*
X171402117Y-93598000D01*
X171066919Y-93664675D01*
X170751169Y-93795463D01*
X170467002Y-93985337D01*
X170225337Y-94227002D01*
X170035463Y-94511169D01*
X169904675Y-94826919D01*
X169838000Y-95162117D01*
X169838000Y-95503883D01*
X169903298Y-95832156D01*
X169810333Y-95823000D01*
X169810322Y-95823000D01*
X169773000Y-95819324D01*
X169735678Y-95823000D01*
X168614795Y-95823000D01*
X168614795Y-93444515D01*
X168678546Y-93325247D01*
X168722003Y-93181986D01*
X168733000Y-93070333D01*
X168733000Y-93070323D01*
X168736676Y-93033001D01*
X168733000Y-92995678D01*
X168733000Y-92747801D01*
X172484003Y-88996799D01*
X172513001Y-88973001D01*
X172607974Y-88857276D01*
X172678546Y-88725247D01*
X172722003Y-88581986D01*
X172733000Y-88470333D01*
X172733000Y-88470324D01*
X172736676Y-88433001D01*
X172733000Y-88395678D01*
X172733000Y-86196148D01*
X172794831Y-86170537D01*
X173078998Y-85980663D01*
X173320663Y-85738998D01*
X173510537Y-85454831D01*
X173536148Y-85393000D01*
X175409852Y-85393000D01*
X175435463Y-85454831D01*
X175625337Y-85738998D01*
X175867002Y-85980663D01*
X176151169Y-86170537D01*
X176466919Y-86301325D01*
X176802117Y-86368000D01*
X177143883Y-86368000D01*
X177479081Y-86301325D01*
X177794831Y-86170537D01*
X178078998Y-85980663D01*
X178320663Y-85738998D01*
X178510537Y-85454831D01*
X178641325Y-85139081D01*
X178708000Y-84803883D01*
X178708000Y-84462117D01*
X178641325Y-84126919D01*
X178510537Y-83811169D01*
X178320663Y-83527002D01*
X178078998Y-83285337D01*
X177794831Y-83095463D01*
X177479081Y-82964675D01*
X177143883Y-82898000D01*
X176802117Y-82898000D01*
X176466919Y-82964675D01*
X176151169Y-83095463D01*
X175867002Y-83285337D01*
X175625337Y-83527002D01*
X175435463Y-83811169D01*
X175409852Y-83873000D01*
X173536148Y-83873000D01*
X173510537Y-83811169D01*
X173320663Y-83527002D01*
X173078998Y-83285337D01*
X172794831Y-83095463D01*
X172479081Y-82964675D01*
X172143883Y-82898000D01*
X171802117Y-82898000D01*
X171466919Y-82964675D01*
X171151169Y-83095463D01*
X170867002Y-83285337D01*
X170625337Y-83527002D01*
X170435463Y-83811169D01*
X170304675Y-84126919D01*
X170238000Y-84462117D01*
X170238000Y-84803883D01*
X170304675Y-85139081D01*
X170435463Y-85454831D01*
X170625337Y-85738998D01*
X170867002Y-85980663D01*
X171151169Y-86170537D01*
X171213000Y-86196148D01*
X171213001Y-88118197D01*
X167462003Y-91869196D01*
X167432999Y-91892999D01*
X167377871Y-91960174D01*
X167338026Y-92008724D01*
X167267455Y-92140753D01*
X167267454Y-92140754D01*
X167223997Y-92284015D01*
X167213000Y-92395668D01*
X167213000Y-92395678D01*
X167209324Y-92433000D01*
X167213000Y-92470322D01*
X167213000Y-92739690D01*
X167150149Y-92857276D01*
X167149249Y-92858959D01*
X167105792Y-93002220D01*
X167094795Y-93113873D01*
X167094795Y-93113883D01*
X167091119Y-93151205D01*
X167094795Y-93188528D01*
X167094796Y-95899992D01*
X165911989Y-97082800D01*
X165882991Y-97106598D01*
X165859193Y-97135596D01*
X165859192Y-97135597D01*
X165788017Y-97222323D01*
X165717445Y-97354353D01*
X165673989Y-97497614D01*
X165659315Y-97646599D01*
X165662992Y-97683931D01*
X165662990Y-113531798D01*
X163621789Y-115573000D01*
X143673912Y-115573000D01*
X143636589Y-115569324D01*
X143599266Y-115573000D01*
X143599257Y-115573000D01*
X143487604Y-115583997D01*
X143344343Y-115627454D01*
X143212314Y-115698026D01*
X143212312Y-115698027D01*
X143212313Y-115698027D01*
X143125586Y-115769201D01*
X143125582Y-115769205D01*
X143096589Y-115792999D01*
X143072795Y-115821992D01*
X140488789Y-118406000D01*
X130889000Y-118406000D01*
X130889000Y-117946893D01*
X130893914Y-117896999D01*
X130889000Y-117847105D01*
X130889000Y-117847098D01*
X130874298Y-117697829D01*
X130816202Y-117506313D01*
X130721860Y-117329810D01*
X130594896Y-117175104D01*
X130556127Y-117143287D01*
X130138713Y-116725873D01*
X130106896Y-116687104D01*
X129952190Y-116560140D01*
X129775687Y-116465798D01*
X129584171Y-116407702D01*
X129434902Y-116393000D01*
X129385000Y-116388085D01*
X129335098Y-116393000D01*
X128430839Y-116393000D01*
X128383537Y-116304506D01*
X128304185Y-116207815D01*
X128207494Y-116128463D01*
X128097180Y-116069498D01*
X127977482Y-116033188D01*
X127853000Y-116020928D01*
X126703000Y-116020928D01*
X126579173Y-116033059D01*
X126459437Y-116069243D01*
X126349061Y-116128092D01*
X126252287Y-116207343D01*
X126172834Y-116303951D01*
X126113754Y-116414204D01*
X126077319Y-116533864D01*
X126064928Y-116658333D01*
X126077059Y-116782827D01*
X126113243Y-116902563D01*
X126172092Y-117012939D01*
X126436133Y-117409000D01*
X126172092Y-117805061D01*
X126113498Y-117914820D01*
X126077188Y-118034518D01*
X126064928Y-118159000D01*
X126077188Y-118283482D01*
X126113498Y-118403180D01*
X126172463Y-118513494D01*
X126221325Y-118573033D01*
X126067398Y-118509274D01*
X125867439Y-118469500D01*
X125663561Y-118469500D01*
X125463602Y-118509274D01*
X125275244Y-118587295D01*
X125233032Y-118615500D01*
X125156072Y-118615500D01*
X125156072Y-117604500D01*
X125143812Y-117480018D01*
X125107502Y-117360320D01*
X125048537Y-117250006D01*
X124969185Y-117153315D01*
X124872494Y-117073963D01*
X124762180Y-117014998D01*
X124642482Y-116978688D01*
X124518000Y-116966428D01*
X122518000Y-116966428D01*
X122393518Y-116978688D01*
X122273820Y-117014998D01*
X122163506Y-117073963D01*
X122066815Y-117153315D01*
X121987463Y-117250006D01*
X121928498Y-117360320D01*
X121892188Y-117480018D01*
X121879928Y-117604500D01*
X121879928Y-118615500D01*
X121500000Y-118615500D01*
X121500000Y-115646605D01*
X123739000Y-115646605D01*
X123864914Y-115936577D01*
X124197126Y-116102433D01*
X124555312Y-116200290D01*
X124925706Y-116226389D01*
X125294075Y-116179725D01*
X125646262Y-116062094D01*
X125881086Y-115936577D01*
X126007000Y-115646605D01*
X124873000Y-114512605D01*
X123739000Y-115646605D01*
X121500000Y-115646605D01*
X121500000Y-114385706D01*
X122979611Y-114385706D01*
X123026275Y-114754075D01*
X123143906Y-115106262D01*
X123269423Y-115341086D01*
X123559395Y-115467000D01*
X124693395Y-114333000D01*
X125052605Y-114333000D01*
X126186605Y-115467000D01*
X126476577Y-115341086D01*
X126642433Y-115008874D01*
X126740290Y-114650688D01*
X126766389Y-114280294D01*
X126719725Y-113911925D01*
X126602094Y-113559738D01*
X126476577Y-113324914D01*
X126186605Y-113199000D01*
X125052605Y-114333000D01*
X124693395Y-114333000D01*
X123559395Y-113199000D01*
X123269423Y-113324914D01*
X123103567Y-113657126D01*
X123005710Y-114015312D01*
X122979611Y-114385706D01*
X121500000Y-114385706D01*
X121500000Y-113019395D01*
X123739000Y-113019395D01*
X124873000Y-114153395D01*
X126007000Y-113019395D01*
X125881086Y-112729423D01*
X125548874Y-112563567D01*
X125190688Y-112465710D01*
X124820294Y-112439611D01*
X124451925Y-112486275D01*
X124099738Y-112603906D01*
X123864914Y-112729423D01*
X123739000Y-113019395D01*
X121500000Y-113019395D01*
X121500000Y-97235606D01*
X139273489Y-79462117D01*
X170238000Y-79462117D01*
X170238000Y-79803883D01*
X170304675Y-80139081D01*
X170435463Y-80454831D01*
X170625337Y-80738998D01*
X170867002Y-80980663D01*
X171151169Y-81170537D01*
X171466919Y-81301325D01*
X171802117Y-81368000D01*
X172143883Y-81368000D01*
X172479081Y-81301325D01*
X172794831Y-81170537D01*
X173078998Y-80980663D01*
X173320663Y-80738998D01*
X173510537Y-80454831D01*
X173641325Y-80139081D01*
X173708000Y-79803883D01*
X173708000Y-79462117D01*
X175238000Y-79462117D01*
X175238000Y-79803883D01*
X175304675Y-80139081D01*
X175435463Y-80454831D01*
X175625337Y-80738998D01*
X175867002Y-80980663D01*
X176151169Y-81170537D01*
X176466919Y-81301325D01*
X176802117Y-81368000D01*
X177143883Y-81368000D01*
X177479081Y-81301325D01*
X177794831Y-81170537D01*
X178078998Y-80980663D01*
X178320663Y-80738998D01*
X178510537Y-80454831D01*
X178641325Y-80139081D01*
X178708000Y-79803883D01*
X178708000Y-79462117D01*
X178641325Y-79126919D01*
X178510537Y-78811169D01*
X178320663Y-78527002D01*
X178078998Y-78285337D01*
X177794831Y-78095463D01*
X177479081Y-77964675D01*
X177143883Y-77898000D01*
X176802117Y-77898000D01*
X176466919Y-77964675D01*
X176151169Y-78095463D01*
X175867002Y-78285337D01*
X175625337Y-78527002D01*
X175435463Y-78811169D01*
X175304675Y-79126919D01*
X175238000Y-79462117D01*
X173708000Y-79462117D01*
X173641325Y-79126919D01*
X173510537Y-78811169D01*
X173320663Y-78527002D01*
X173078998Y-78285337D01*
X172794831Y-78095463D01*
X172479081Y-77964675D01*
X172143883Y-77898000D01*
X171802117Y-77898000D01*
X171466919Y-77964675D01*
X171151169Y-78095463D01*
X170867002Y-78285337D01*
X170625337Y-78527002D01*
X170435463Y-78811169D01*
X170304675Y-79126919D01*
X170238000Y-79462117D01*
X139273489Y-79462117D01*
X147924106Y-70811500D01*
X174963928Y-70811500D01*
X174976188Y-70935982D01*
X175012498Y-71055680D01*
X175071463Y-71165994D01*
X175150815Y-71262685D01*
X175247506Y-71342037D01*
X175357820Y-71401002D01*
X175477518Y-71437312D01*
X175602000Y-71449572D01*
X176216250Y-71446500D01*
X176375000Y-71287750D01*
X176375000Y-69688500D01*
X176629000Y-69688500D01*
X176629000Y-71287750D01*
X176787750Y-71446500D01*
X177402000Y-71449572D01*
X177526482Y-71437312D01*
X177646180Y-71401002D01*
X177756494Y-71342037D01*
X177853185Y-71262685D01*
X177932537Y-71165994D01*
X177991502Y-71055680D01*
X178027812Y-70935982D01*
X178040072Y-70811500D01*
X178037000Y-69847250D01*
X177878250Y-69688500D01*
X176629000Y-69688500D01*
X176375000Y-69688500D01*
X175125750Y-69688500D01*
X174967000Y-69847250D01*
X174963928Y-70811500D01*
X147924106Y-70811500D01*
X149350570Y-69385036D01*
X149354257Y-69380544D01*
X149863750Y-69377500D01*
X150022500Y-69218750D01*
X150022500Y-68134150D01*
X150276500Y-68134533D01*
X150276500Y-68134533D01*
G37*
X150276500Y-68134533D02*
X150276500Y-69218750D01*
X150435250Y-69377500D01*
X150949500Y-69380572D01*
X151073982Y-69368312D01*
X151193680Y-69332002D01*
X151303994Y-69273037D01*
X151400685Y-69193685D01*
X151480037Y-69096994D01*
X151539002Y-68986680D01*
X151575312Y-68866982D01*
X151587572Y-68742500D01*
X151584500Y-68228250D01*
X151492617Y-68136367D01*
X174980806Y-68171794D01*
X174976188Y-68187018D01*
X174963928Y-68311500D01*
X174967000Y-69275750D01*
X175125750Y-69434500D01*
X176375000Y-69434500D01*
X176375000Y-69414500D01*
X176629000Y-69414500D01*
X176629000Y-69434500D01*
X177878250Y-69434500D01*
X178037000Y-69275750D01*
X178040072Y-68311500D01*
X178027812Y-68187018D01*
X178024587Y-68176385D01*
X191234000Y-68196309D01*
X191234000Y-120679653D01*
X190094580Y-120676552D01*
X189929802Y-120588476D01*
X189647051Y-120502705D01*
X189426680Y-120481000D01*
X188979320Y-120481000D01*
X188758949Y-120502705D01*
X188476198Y-120588476D01*
X188320454Y-120671723D01*
X180861378Y-120651421D01*
X180868222Y-120634898D01*
X180907996Y-120434939D01*
X180907996Y-120231061D01*
X180868222Y-120031102D01*
X180790201Y-119842744D01*
X180676933Y-119673226D01*
X180532770Y-119529063D01*
X180363252Y-119415795D01*
X180174894Y-119337774D01*
X179974935Y-119298000D01*
X179771057Y-119298000D01*
X179571098Y-119337774D01*
X179382740Y-119415795D01*
X179213222Y-119529063D01*
X179169285Y-119573000D01*
X179093019Y-119573000D01*
X179157494Y-119538537D01*
X179254185Y-119459185D01*
X179333537Y-119362494D01*
X179392502Y-119252180D01*
X179428812Y-119132482D01*
X179434790Y-119071785D01*
X179571102Y-119128248D01*
X179771061Y-119168022D01*
X179974939Y-119168022D01*
X180174898Y-119128248D01*
X180363256Y-119050227D01*
X180532774Y-118936959D01*
X180676937Y-118792796D01*
X180790205Y-118623278D01*
X180868226Y-118434920D01*
X180908000Y-118234961D01*
X180908000Y-118031083D01*
X180868226Y-117831124D01*
X180790205Y-117642766D01*
X180676937Y-117473248D01*
X180532774Y-117329085D01*
X180363256Y-117215817D01*
X180174898Y-117137796D01*
X179974939Y-117098022D01*
X179771061Y-117098022D01*
X179571102Y-117137796D01*
X179382744Y-117215817D01*
X179304486Y-117268107D01*
X179254185Y-117206815D01*
X179157494Y-117127463D01*
X179047180Y-117068498D01*
X178927482Y-117032188D01*
X178803000Y-117019928D01*
X177953000Y-117019928D01*
X177828518Y-117032188D01*
X177708820Y-117068498D01*
X177598506Y-117127463D01*
X177501815Y-117206815D01*
X177473000Y-117241926D01*
X177444185Y-117206815D01*
X177347494Y-117127463D01*
X177237180Y-117068498D01*
X177117482Y-117032188D01*
X176993000Y-117019928D01*
X176143000Y-117019928D01*
X176018518Y-117032188D01*
X175898820Y-117068498D01*
X175788506Y-117127463D01*
X175691815Y-117206815D01*
X175673000Y-117229741D01*
X175654185Y-117206815D01*
X175557494Y-117127463D01*
X175447180Y-117068498D01*
X175327482Y-117032188D01*
X175203000Y-117019928D01*
X174353000Y-117019928D01*
X174228518Y-117032188D01*
X174108820Y-117068498D01*
X173998506Y-117127463D01*
X173901815Y-117206815D01*
X173873000Y-117241926D01*
X173844185Y-117206815D01*
X173808982Y-117177925D01*
X173868226Y-117034898D01*
X173908000Y-116834939D01*
X173908000Y-116631061D01*
X173868226Y-116431102D01*
X173790205Y-116242744D01*
X173676937Y-116073226D01*
X173639711Y-116036000D01*
X187549928Y-116036000D01*
X187549928Y-117766000D01*
X187562188Y-117890482D01*
X187598498Y-118010180D01*
X187657463Y-118120494D01*
X187736815Y-118217185D01*
X187833506Y-118296537D01*
X187943820Y-118355502D01*
X188063518Y-118391812D01*
X188188000Y-118404072D01*
X190218000Y-118404072D01*
X190342482Y-118391812D01*
X190462180Y-118355502D01*
X190572494Y-118296537D01*
X190669185Y-118217185D01*
X190748537Y-118120494D01*
X190807502Y-118010180D01*
X190843812Y-117890482D01*
X190856072Y-117766000D01*
X190856072Y-116036000D01*
X190843812Y-115911518D01*
X190807502Y-115791820D01*
X190748537Y-115681506D01*
X190669185Y-115584815D01*
X190572494Y-115505463D01*
X190462180Y-115446498D01*
X190342482Y-115410188D01*
X190218000Y-115397928D01*
X188188000Y-115397928D01*
X188063518Y-115410188D01*
X187943820Y-115446498D01*
X187833506Y-115505463D01*
X187736815Y-115584815D01*
X187657463Y-115681506D01*
X187598498Y-115791820D01*
X187562188Y-115911518D01*
X187549928Y-116036000D01*
X173639711Y-116036000D01*
X173532774Y-115929063D01*
X173363256Y-115815795D01*
X173174898Y-115737774D01*
X172974939Y-115698000D01*
X172771061Y-115698000D01*
X172571102Y-115737774D01*
X172382744Y-115815795D01*
X172213226Y-115929063D01*
X172069063Y-116073226D01*
X171955795Y-116242744D01*
X171877774Y-116431102D01*
X171838000Y-116631061D01*
X171838000Y-116834939D01*
X171877774Y-117034898D01*
X171955795Y-117223256D01*
X172011109Y-117306039D01*
X171953498Y-117413820D01*
X171917188Y-117533518D01*
X171904928Y-117658000D01*
X171904928Y-119008000D01*
X171917188Y-119132482D01*
X171953498Y-119252180D01*
X172012463Y-119362494D01*
X172091815Y-119459185D01*
X172169562Y-119522990D01*
X170010612Y-119522990D01*
X167259614Y-116771993D01*
X167235811Y-116742989D01*
X167120086Y-116648016D01*
X166988057Y-116577444D01*
X166844796Y-116533987D01*
X166733143Y-116522990D01*
X166733132Y-116522990D01*
X166695810Y-116519314D01*
X166658488Y-116522990D01*
X165457811Y-116522990D01*
X167384003Y-114596799D01*
X167413001Y-114573001D01*
X167507974Y-114457276D01*
X167578546Y-114325247D01*
X167622003Y-114181986D01*
X167633000Y-114070333D01*
X167633000Y-114070325D01*
X167636676Y-114033000D01*
X167633000Y-113995675D01*
X167633000Y-98147801D01*
X168437802Y-97343000D01*
X169458199Y-97343000D01*
X170813001Y-98697804D01*
X170813001Y-98769851D01*
X170751169Y-98795463D01*
X170467002Y-98985337D01*
X170225337Y-99227002D01*
X170035463Y-99511169D01*
X169904675Y-99826919D01*
X169838000Y-100162117D01*
X169838000Y-100503883D01*
X169904675Y-100839081D01*
X170035463Y-101154831D01*
X170225337Y-101438998D01*
X170467002Y-101680663D01*
X170751169Y-101870537D01*
X171066919Y-102001325D01*
X171402117Y-102068000D01*
X171743883Y-102068000D01*
X172079081Y-102001325D01*
X172394831Y-101870537D01*
X172678998Y-101680663D01*
X172920663Y-101438998D01*
X173110537Y-101154831D01*
X173136148Y-101093000D01*
X175009852Y-101093000D01*
X175035463Y-101154831D01*
X175225337Y-101438998D01*
X175467002Y-101680663D01*
X175751169Y-101870537D01*
X176066919Y-102001325D01*
X176402117Y-102068000D01*
X176743883Y-102068000D01*
X177079081Y-102001325D01*
X177394831Y-101870537D01*
X177678998Y-101680663D01*
X177920663Y-101438998D01*
X178110537Y-101154831D01*
X178241325Y-100839081D01*
X178308000Y-100503883D01*
X178308000Y-100162117D01*
X178241325Y-99826919D01*
X178110537Y-99511169D01*
X177920663Y-99227002D01*
X177678998Y-98985337D01*
X177394831Y-98795463D01*
X177079081Y-98664675D01*
X176743883Y-98598000D01*
X176402117Y-98598000D01*
X176066919Y-98664675D01*
X175751169Y-98795463D01*
X175467002Y-98985337D01*
X175225337Y-99227002D01*
X175035463Y-99511169D01*
X175009852Y-99573000D01*
X173136148Y-99573000D01*
X173110537Y-99511169D01*
X172920663Y-99227002D01*
X172678998Y-98985337D01*
X172394831Y-98795463D01*
X172333000Y-98769852D01*
X172333000Y-98420322D01*
X172336676Y-98382999D01*
X172333000Y-98345676D01*
X172333000Y-98345667D01*
X172322003Y-98234014D01*
X172278546Y-98090753D01*
X172207974Y-97958724D01*
X172191660Y-97938845D01*
X172136799Y-97871996D01*
X172136795Y-97871992D01*
X172113001Y-97842999D01*
X172084008Y-97819205D01*
X171315591Y-97050789D01*
X171402117Y-97068000D01*
X171743883Y-97068000D01*
X172079081Y-97001325D01*
X172394831Y-96870537D01*
X172678998Y-96680663D01*
X172920663Y-96438998D01*
X173110537Y-96154831D01*
X173241325Y-95839081D01*
X173308000Y-95503883D01*
X173308000Y-95162117D01*
X174838000Y-95162117D01*
X174838000Y-95503883D01*
X174904675Y-95839081D01*
X175035463Y-96154831D01*
X175225337Y-96438998D01*
X175467002Y-96680663D01*
X175751169Y-96870537D01*
X176066919Y-97001325D01*
X176402117Y-97068000D01*
X176743883Y-97068000D01*
X177079081Y-97001325D01*
X177394831Y-96870537D01*
X177678998Y-96680663D01*
X177920663Y-96438998D01*
X178110537Y-96154831D01*
X178241325Y-95839081D01*
X178308000Y-95503883D01*
X178308000Y-95162117D01*
X178241325Y-94826919D01*
X178110537Y-94511169D01*
X177920663Y-94227002D01*
X177678998Y-93985337D01*
X177394831Y-93795463D01*
X177079081Y-93664675D01*
X176743883Y-93598000D01*
X176402117Y-93598000D01*
X176066919Y-93664675D01*
X175751169Y-93795463D01*
X175467002Y-93985337D01*
X175225337Y-94227002D01*
X175035463Y-94511169D01*
X174904675Y-94826919D01*
X174838000Y-95162117D01*
X173308000Y-95162117D01*
X173241325Y-94826919D01*
X173110537Y-94511169D01*
X172920663Y-94227002D01*
X172678998Y-93985337D01*
X172394831Y-93795463D01*
X172079081Y-93664675D01*
X171743883Y-93598000D01*
X171402117Y-93598000D01*
X171066919Y-93664675D01*
X170751169Y-93795463D01*
X170467002Y-93985337D01*
X170225337Y-94227002D01*
X170035463Y-94511169D01*
X169904675Y-94826919D01*
X169838000Y-95162117D01*
X169838000Y-95503883D01*
X169903298Y-95832156D01*
X169810333Y-95823000D01*
X169810322Y-95823000D01*
X169773000Y-95819324D01*
X169735678Y-95823000D01*
X168614795Y-95823000D01*
X168614795Y-93444515D01*
X168678546Y-93325247D01*
X168722003Y-93181986D01*
X168733000Y-93070333D01*
X168733000Y-93070323D01*
X168736676Y-93033001D01*
X168733000Y-92995678D01*
X168733000Y-92747801D01*
X172484003Y-88996799D01*
X172513001Y-88973001D01*
X172607974Y-88857276D01*
X172678546Y-88725247D01*
X172722003Y-88581986D01*
X172733000Y-88470333D01*
X172733000Y-88470324D01*
X172736676Y-88433001D01*
X172733000Y-88395678D01*
X172733000Y-86196148D01*
X172794831Y-86170537D01*
X173078998Y-85980663D01*
X173320663Y-85738998D01*
X173510537Y-85454831D01*
X173536148Y-85393000D01*
X175409852Y-85393000D01*
X175435463Y-85454831D01*
X175625337Y-85738998D01*
X175867002Y-85980663D01*
X176151169Y-86170537D01*
X176466919Y-86301325D01*
X176802117Y-86368000D01*
X177143883Y-86368000D01*
X177479081Y-86301325D01*
X177794831Y-86170537D01*
X178078998Y-85980663D01*
X178320663Y-85738998D01*
X178510537Y-85454831D01*
X178641325Y-85139081D01*
X178708000Y-84803883D01*
X178708000Y-84462117D01*
X178641325Y-84126919D01*
X178510537Y-83811169D01*
X178320663Y-83527002D01*
X178078998Y-83285337D01*
X177794831Y-83095463D01*
X177479081Y-82964675D01*
X177143883Y-82898000D01*
X176802117Y-82898000D01*
X176466919Y-82964675D01*
X176151169Y-83095463D01*
X175867002Y-83285337D01*
X175625337Y-83527002D01*
X175435463Y-83811169D01*
X175409852Y-83873000D01*
X173536148Y-83873000D01*
X173510537Y-83811169D01*
X173320663Y-83527002D01*
X173078998Y-83285337D01*
X172794831Y-83095463D01*
X172479081Y-82964675D01*
X172143883Y-82898000D01*
X171802117Y-82898000D01*
X171466919Y-82964675D01*
X171151169Y-83095463D01*
X170867002Y-83285337D01*
X170625337Y-83527002D01*
X170435463Y-83811169D01*
X170304675Y-84126919D01*
X170238000Y-84462117D01*
X170238000Y-84803883D01*
X170304675Y-85139081D01*
X170435463Y-85454831D01*
X170625337Y-85738998D01*
X170867002Y-85980663D01*
X171151169Y-86170537D01*
X171213000Y-86196148D01*
X171213001Y-88118197D01*
X167462003Y-91869196D01*
X167432999Y-91892999D01*
X167377871Y-91960174D01*
X167338026Y-92008724D01*
X167267455Y-92140753D01*
X167267454Y-92140754D01*
X167223997Y-92284015D01*
X167213000Y-92395668D01*
X167213000Y-92395678D01*
X167209324Y-92433000D01*
X167213000Y-92470322D01*
X167213000Y-92739690D01*
X167150149Y-92857276D01*
X167149249Y-92858959D01*
X167105792Y-93002220D01*
X167094795Y-93113873D01*
X167094795Y-93113883D01*
X167091119Y-93151205D01*
X167094795Y-93188528D01*
X167094796Y-95899992D01*
X165911989Y-97082800D01*
X165882991Y-97106598D01*
X165859193Y-97135596D01*
X165859192Y-97135597D01*
X165788017Y-97222323D01*
X165717445Y-97354353D01*
X165673989Y-97497614D01*
X165659315Y-97646599D01*
X165662992Y-97683931D01*
X165662990Y-113531798D01*
X163621789Y-115573000D01*
X143673912Y-115573000D01*
X143636589Y-115569324D01*
X143599266Y-115573000D01*
X143599257Y-115573000D01*
X143487604Y-115583997D01*
X143344343Y-115627454D01*
X143212314Y-115698026D01*
X143212312Y-115698027D01*
X143212313Y-115698027D01*
X143125586Y-115769201D01*
X143125582Y-115769205D01*
X143096589Y-115792999D01*
X143072795Y-115821992D01*
X140488789Y-118406000D01*
X130889000Y-118406000D01*
X130889000Y-117946893D01*
X130893914Y-117896999D01*
X130889000Y-117847105D01*
X130889000Y-117847098D01*
X130874298Y-117697829D01*
X130816202Y-117506313D01*
X130721860Y-117329810D01*
X130594896Y-117175104D01*
X130556127Y-117143287D01*
X130138713Y-116725873D01*
X130106896Y-116687104D01*
X129952190Y-116560140D01*
X129775687Y-116465798D01*
X129584171Y-116407702D01*
X129434902Y-116393000D01*
X129385000Y-116388085D01*
X129335098Y-116393000D01*
X128430839Y-116393000D01*
X128383537Y-116304506D01*
X128304185Y-116207815D01*
X128207494Y-116128463D01*
X128097180Y-116069498D01*
X127977482Y-116033188D01*
X127853000Y-116020928D01*
X126703000Y-116020928D01*
X126579173Y-116033059D01*
X126459437Y-116069243D01*
X126349061Y-116128092D01*
X126252287Y-116207343D01*
X126172834Y-116303951D01*
X126113754Y-116414204D01*
X126077319Y-116533864D01*
X126064928Y-116658333D01*
X126077059Y-116782827D01*
X126113243Y-116902563D01*
X126172092Y-117012939D01*
X126436133Y-117409000D01*
X126172092Y-117805061D01*
X126113498Y-117914820D01*
X126077188Y-118034518D01*
X126064928Y-118159000D01*
X126077188Y-118283482D01*
X126113498Y-118403180D01*
X126172463Y-118513494D01*
X126221325Y-118573033D01*
X126067398Y-118509274D01*
X125867439Y-118469500D01*
X125663561Y-118469500D01*
X125463602Y-118509274D01*
X125275244Y-118587295D01*
X125233032Y-118615500D01*
X125156072Y-118615500D01*
X125156072Y-117604500D01*
X125143812Y-117480018D01*
X125107502Y-117360320D01*
X125048537Y-117250006D01*
X124969185Y-117153315D01*
X124872494Y-117073963D01*
X124762180Y-117014998D01*
X124642482Y-116978688D01*
X124518000Y-116966428D01*
X122518000Y-116966428D01*
X122393518Y-116978688D01*
X122273820Y-117014998D01*
X122163506Y-117073963D01*
X122066815Y-117153315D01*
X121987463Y-117250006D01*
X121928498Y-117360320D01*
X121892188Y-117480018D01*
X121879928Y-117604500D01*
X121879928Y-118615500D01*
X121500000Y-118615500D01*
X121500000Y-115646605D01*
X123739000Y-115646605D01*
X123864914Y-115936577D01*
X124197126Y-116102433D01*
X124555312Y-116200290D01*
X124925706Y-116226389D01*
X125294075Y-116179725D01*
X125646262Y-116062094D01*
X125881086Y-115936577D01*
X126007000Y-115646605D01*
X124873000Y-114512605D01*
X123739000Y-115646605D01*
X121500000Y-115646605D01*
X121500000Y-114385706D01*
X122979611Y-114385706D01*
X123026275Y-114754075D01*
X123143906Y-115106262D01*
X123269423Y-115341086D01*
X123559395Y-115467000D01*
X124693395Y-114333000D01*
X125052605Y-114333000D01*
X126186605Y-115467000D01*
X126476577Y-115341086D01*
X126642433Y-115008874D01*
X126740290Y-114650688D01*
X126766389Y-114280294D01*
X126719725Y-113911925D01*
X126602094Y-113559738D01*
X126476577Y-113324914D01*
X126186605Y-113199000D01*
X125052605Y-114333000D01*
X124693395Y-114333000D01*
X123559395Y-113199000D01*
X123269423Y-113324914D01*
X123103567Y-113657126D01*
X123005710Y-114015312D01*
X122979611Y-114385706D01*
X121500000Y-114385706D01*
X121500000Y-113019395D01*
X123739000Y-113019395D01*
X124873000Y-114153395D01*
X126007000Y-113019395D01*
X125881086Y-112729423D01*
X125548874Y-112563567D01*
X125190688Y-112465710D01*
X124820294Y-112439611D01*
X124451925Y-112486275D01*
X124099738Y-112603906D01*
X123864914Y-112729423D01*
X123739000Y-113019395D01*
X121500000Y-113019395D01*
X121500000Y-97235606D01*
X139273489Y-79462117D01*
X170238000Y-79462117D01*
X170238000Y-79803883D01*
X170304675Y-80139081D01*
X170435463Y-80454831D01*
X170625337Y-80738998D01*
X170867002Y-80980663D01*
X171151169Y-81170537D01*
X171466919Y-81301325D01*
X171802117Y-81368000D01*
X172143883Y-81368000D01*
X172479081Y-81301325D01*
X172794831Y-81170537D01*
X173078998Y-80980663D01*
X173320663Y-80738998D01*
X173510537Y-80454831D01*
X173641325Y-80139081D01*
X173708000Y-79803883D01*
X173708000Y-79462117D01*
X175238000Y-79462117D01*
X175238000Y-79803883D01*
X175304675Y-80139081D01*
X175435463Y-80454831D01*
X175625337Y-80738998D01*
X175867002Y-80980663D01*
X176151169Y-81170537D01*
X176466919Y-81301325D01*
X176802117Y-81368000D01*
X177143883Y-81368000D01*
X177479081Y-81301325D01*
X177794831Y-81170537D01*
X178078998Y-80980663D01*
X178320663Y-80738998D01*
X178510537Y-80454831D01*
X178641325Y-80139081D01*
X178708000Y-79803883D01*
X178708000Y-79462117D01*
X178641325Y-79126919D01*
X178510537Y-78811169D01*
X178320663Y-78527002D01*
X178078998Y-78285337D01*
X177794831Y-78095463D01*
X177479081Y-77964675D01*
X177143883Y-77898000D01*
X176802117Y-77898000D01*
X176466919Y-77964675D01*
X176151169Y-78095463D01*
X175867002Y-78285337D01*
X175625337Y-78527002D01*
X175435463Y-78811169D01*
X175304675Y-79126919D01*
X175238000Y-79462117D01*
X173708000Y-79462117D01*
X173641325Y-79126919D01*
X173510537Y-78811169D01*
X173320663Y-78527002D01*
X173078998Y-78285337D01*
X172794831Y-78095463D01*
X172479081Y-77964675D01*
X172143883Y-77898000D01*
X171802117Y-77898000D01*
X171466919Y-77964675D01*
X171151169Y-78095463D01*
X170867002Y-78285337D01*
X170625337Y-78527002D01*
X170435463Y-78811169D01*
X170304675Y-79126919D01*
X170238000Y-79462117D01*
X139273489Y-79462117D01*
X147924106Y-70811500D01*
X174963928Y-70811500D01*
X174976188Y-70935982D01*
X175012498Y-71055680D01*
X175071463Y-71165994D01*
X175150815Y-71262685D01*
X175247506Y-71342037D01*
X175357820Y-71401002D01*
X175477518Y-71437312D01*
X175602000Y-71449572D01*
X176216250Y-71446500D01*
X176375000Y-71287750D01*
X176375000Y-69688500D01*
X176629000Y-69688500D01*
X176629000Y-71287750D01*
X176787750Y-71446500D01*
X177402000Y-71449572D01*
X177526482Y-71437312D01*
X177646180Y-71401002D01*
X177756494Y-71342037D01*
X177853185Y-71262685D01*
X177932537Y-71165994D01*
X177991502Y-71055680D01*
X178027812Y-70935982D01*
X178040072Y-70811500D01*
X178037000Y-69847250D01*
X177878250Y-69688500D01*
X176629000Y-69688500D01*
X176375000Y-69688500D01*
X175125750Y-69688500D01*
X174967000Y-69847250D01*
X174963928Y-70811500D01*
X147924106Y-70811500D01*
X149350570Y-69385036D01*
X149354257Y-69380544D01*
X149863750Y-69377500D01*
X150022500Y-69218750D01*
X150022500Y-68134150D01*
X150276500Y-68134533D01*
G36*
X117368820Y-66072502D02*
G01*
X117488518Y-66108812D01*
X117613000Y-66121072D01*
X118313000Y-66121072D01*
X118437482Y-66108812D01*
X118557180Y-66072502D01*
X118580569Y-66060000D01*
X118615431Y-66060000D01*
X118638820Y-66072502D01*
X118758518Y-66108812D01*
X118883000Y-66121072D01*
X119583000Y-66121072D01*
X119707482Y-66108812D01*
X119827180Y-66072502D01*
X119850569Y-66060000D01*
X119895431Y-66060000D01*
X119918820Y-66072502D01*
X120038518Y-66108812D01*
X120163000Y-66121072D01*
X120863000Y-66121072D01*
X120987482Y-66108812D01*
X121107180Y-66072502D01*
X121130569Y-66060000D01*
X121165431Y-66060000D01*
X121188820Y-66072502D01*
X121308518Y-66108812D01*
X121433000Y-66121072D01*
X122133000Y-66121072D01*
X122257482Y-66108812D01*
X122377180Y-66072502D01*
X122400569Y-66060000D01*
X129346000Y-66060000D01*
X129346000Y-80480394D01*
X127720394Y-82106000D01*
X119925606Y-82106000D01*
X116900000Y-79080394D01*
X116900000Y-71043892D01*
X116946046Y-70957747D01*
X116989503Y-70814486D01*
X117000500Y-70702833D01*
X117004177Y-70665500D01*
X117000500Y-70628167D01*
X117000500Y-66097822D01*
X117004176Y-66060499D01*
X117004127Y-66060000D01*
X117345431Y-66060000D01*
X117368820Y-66072502D01*
X117368820Y-66072502D01*
G37*
X117368820Y-66072502D02*
X117488518Y-66108812D01*
X117613000Y-66121072D01*
X118313000Y-66121072D01*
X118437482Y-66108812D01*
X118557180Y-66072502D01*
X118580569Y-66060000D01*
X118615431Y-66060000D01*
X118638820Y-66072502D01*
X118758518Y-66108812D01*
X118883000Y-66121072D01*
X119583000Y-66121072D01*
X119707482Y-66108812D01*
X119827180Y-66072502D01*
X119850569Y-66060000D01*
X119895431Y-66060000D01*
X119918820Y-66072502D01*
X120038518Y-66108812D01*
X120163000Y-66121072D01*
X120863000Y-66121072D01*
X120987482Y-66108812D01*
X121107180Y-66072502D01*
X121130569Y-66060000D01*
X121165431Y-66060000D01*
X121188820Y-66072502D01*
X121308518Y-66108812D01*
X121433000Y-66121072D01*
X122133000Y-66121072D01*
X122257482Y-66108812D01*
X122377180Y-66072502D01*
X122400569Y-66060000D01*
X129346000Y-66060000D01*
X129346000Y-80480394D01*
X127720394Y-82106000D01*
X119925606Y-82106000D01*
X116900000Y-79080394D01*
X116900000Y-71043892D01*
X116946046Y-70957747D01*
X116989503Y-70814486D01*
X117000500Y-70702833D01*
X117004177Y-70665500D01*
X117000500Y-70628167D01*
X117000500Y-66097822D01*
X117004176Y-66060499D01*
X117004127Y-66060000D01*
X117345431Y-66060000D01*
X117368820Y-66072502D01*
G36*
X148546000Y-66866393D02*
G01*
X148462597Y-66949796D01*
X148391014Y-66705829D01*
X148135504Y-66584929D01*
X147861316Y-66516200D01*
X147578988Y-66502283D01*
X147299370Y-66543713D01*
X147033208Y-66638897D01*
X146907986Y-66705829D01*
X146836403Y-66949798D01*
X147649500Y-67762895D01*
X147663643Y-67748753D01*
X147843248Y-67928358D01*
X147829105Y-67942500D01*
X147843248Y-67956643D01*
X147663643Y-68136248D01*
X147649500Y-68122105D01*
X146836403Y-68935202D01*
X146907986Y-69179171D01*
X147163496Y-69300071D01*
X147437684Y-69368800D01*
X147641792Y-69378861D01*
X132220622Y-84706000D01*
X103433000Y-84706000D01*
X103433000Y-84547801D01*
X116138000Y-71842802D01*
X116138000Y-79133000D01*
X116150201Y-79256882D01*
X116186336Y-79376004D01*
X116245017Y-79485787D01*
X116323987Y-79582013D01*
X119423987Y-82682013D01*
X119520213Y-82760983D01*
X119629996Y-82819664D01*
X119749118Y-82855799D01*
X119873000Y-82868000D01*
X127773000Y-82868000D01*
X127896882Y-82855799D01*
X128016004Y-82819664D01*
X128125787Y-82760983D01*
X128222013Y-82682013D01*
X129922013Y-80982013D01*
X130000983Y-80885787D01*
X130059664Y-80776004D01*
X130095799Y-80656882D01*
X130108000Y-80533000D01*
X130108000Y-68013012D01*
X146209283Y-68013012D01*
X146250713Y-68292630D01*
X146345897Y-68558792D01*
X146412829Y-68684014D01*
X146656798Y-68755597D01*
X147469895Y-67942500D01*
X146656798Y-67129403D01*
X146412829Y-67200986D01*
X146291929Y-67456496D01*
X146223200Y-67730684D01*
X146209283Y-68013012D01*
X130108000Y-68013012D01*
X130108000Y-65933000D01*
X130095799Y-65809118D01*
X130059664Y-65689996D01*
X130000983Y-65580213D01*
X129922013Y-65483987D01*
X129825787Y-65405017D01*
X129716004Y-65346336D01*
X129596882Y-65310201D01*
X129473000Y-65298000D01*
X118951072Y-65298000D01*
X118951072Y-64683000D01*
X118938812Y-64558518D01*
X118902502Y-64438820D01*
X118843537Y-64328506D01*
X118764185Y-64231815D01*
X118667494Y-64152463D01*
X118557180Y-64093498D01*
X118437482Y-64057188D01*
X118313000Y-64044928D01*
X117613000Y-64044928D01*
X117488518Y-64057188D01*
X117368820Y-64093498D01*
X117258506Y-64152463D01*
X117161815Y-64231815D01*
X117086982Y-64323000D01*
X116597323Y-64323000D01*
X116560000Y-64319324D01*
X116522677Y-64323000D01*
X116522667Y-64323000D01*
X116411014Y-64333997D01*
X116267753Y-64377454D01*
X116135724Y-64448026D01*
X116098640Y-64478460D01*
X116084680Y-64470998D01*
X115964982Y-64434688D01*
X115866657Y-64425004D01*
X115940494Y-64385537D01*
X116037185Y-64306185D01*
X116116537Y-64209494D01*
X116175502Y-64099180D01*
X116211812Y-63979482D01*
X116224072Y-63855000D01*
X116224072Y-62520374D01*
X116262685Y-62488685D01*
X116342037Y-62391994D01*
X116346291Y-62384036D01*
X116417320Y-62422002D01*
X116537018Y-62458312D01*
X116661500Y-62470572D01*
X116850750Y-62467500D01*
X117009500Y-62308750D01*
X117009500Y-61522000D01*
X117263500Y-61522000D01*
X117263500Y-62308750D01*
X117422250Y-62467500D01*
X117611500Y-62470572D01*
X117735982Y-62458312D01*
X117855680Y-62422002D01*
X117965994Y-62363037D01*
X118062685Y-62283685D01*
X118142037Y-62186994D01*
X118201002Y-62076680D01*
X118237312Y-61956982D01*
X118249572Y-61832500D01*
X118246500Y-61680750D01*
X118087750Y-61522000D01*
X117263500Y-61522000D01*
X117009500Y-61522000D01*
X116989500Y-61522000D01*
X116989500Y-61268000D01*
X117009500Y-61268000D01*
X117009500Y-61248000D01*
X117263500Y-61248000D01*
X117263500Y-61268000D01*
X118087750Y-61268000D01*
X118246500Y-61109250D01*
X118249572Y-60957500D01*
X118237312Y-60833018D01*
X118201002Y-60713320D01*
X118142037Y-60603006D01*
X118087400Y-60536430D01*
X118105171Y-60514775D01*
X118184350Y-60366642D01*
X118233108Y-60205908D01*
X118249572Y-60038750D01*
X118249572Y-59601250D01*
X118233108Y-59434092D01*
X118184350Y-59273358D01*
X118105171Y-59125225D01*
X117998615Y-58995385D01*
X117868775Y-58888829D01*
X117720642Y-58809650D01*
X117559908Y-58760892D01*
X117392750Y-58744428D01*
X116880250Y-58744428D01*
X116713092Y-58760892D01*
X116552358Y-58809650D01*
X116404225Y-58888829D01*
X116301265Y-58973325D01*
X116262685Y-58926315D01*
X116165994Y-58846963D01*
X116055680Y-58787998D01*
X115935982Y-58751688D01*
X115811500Y-58739428D01*
X114461500Y-58739428D01*
X114337018Y-58751688D01*
X114217320Y-58787998D01*
X114107006Y-58846963D01*
X114010315Y-58926315D01*
X113930963Y-59023006D01*
X113871998Y-59133320D01*
X113835688Y-59253018D01*
X113823428Y-59377500D01*
X113823428Y-60227500D01*
X113835688Y-60351982D01*
X113871998Y-60471680D01*
X113930963Y-60581994D01*
X114010315Y-60678685D01*
X114045426Y-60707500D01*
X114010315Y-60736315D01*
X113930963Y-60833006D01*
X113871998Y-60943320D01*
X113835688Y-61063018D01*
X113823428Y-61187500D01*
X113823428Y-62037500D01*
X113835688Y-62161982D01*
X113871998Y-62281680D01*
X113930963Y-62391994D01*
X114010315Y-62488685D01*
X114097928Y-62560587D01*
X114097928Y-63855000D01*
X114110188Y-63979482D01*
X114146498Y-64099180D01*
X114205463Y-64209494D01*
X114284815Y-64306185D01*
X114330500Y-64343678D01*
X114330500Y-64423413D01*
X114216018Y-64434688D01*
X114096320Y-64470998D01*
X113986006Y-64529963D01*
X113889315Y-64609315D01*
X113809963Y-64706006D01*
X113760500Y-64798543D01*
X113711037Y-64706006D01*
X113631685Y-64609315D01*
X113534994Y-64529963D01*
X113424680Y-64470998D01*
X113304982Y-64434688D01*
X113180500Y-64422428D01*
X111680500Y-64422428D01*
X111556018Y-64434688D01*
X111436320Y-64470998D01*
X111411995Y-64484000D01*
X111305509Y-64484000D01*
X111286537Y-64448506D01*
X111207185Y-64351815D01*
X111172074Y-64323000D01*
X111207185Y-64294185D01*
X111286537Y-64197494D01*
X111345502Y-64087180D01*
X111381812Y-63967482D01*
X111394072Y-63843000D01*
X111391000Y-63703750D01*
X111232250Y-63545000D01*
X110208000Y-63545000D01*
X110208000Y-63565000D01*
X109954000Y-63565000D01*
X109954000Y-63545000D01*
X108929750Y-63545000D01*
X108771000Y-63703750D01*
X108767928Y-63843000D01*
X108780188Y-63967482D01*
X108816498Y-64087180D01*
X108875463Y-64197494D01*
X108954815Y-64294185D01*
X108989926Y-64323000D01*
X108954815Y-64351815D01*
X108875463Y-64448506D01*
X108839653Y-64515500D01*
X103474302Y-64515500D01*
X103411500Y-64452699D01*
X103411500Y-62993000D01*
X108767928Y-62993000D01*
X108771000Y-63132250D01*
X108929750Y-63291000D01*
X109954000Y-63291000D01*
X109954000Y-62516750D01*
X110208000Y-62516750D01*
X110208000Y-63291000D01*
X111232250Y-63291000D01*
X111391000Y-63132250D01*
X111394072Y-62993000D01*
X111381812Y-62868518D01*
X111345502Y-62748820D01*
X111286537Y-62638506D01*
X111207185Y-62541815D01*
X111110494Y-62462463D01*
X111000180Y-62403498D01*
X110880482Y-62367188D01*
X110756000Y-62354928D01*
X110366750Y-62358000D01*
X110208000Y-62516750D01*
X109954000Y-62516750D01*
X109795250Y-62358000D01*
X109406000Y-62354928D01*
X109281518Y-62367188D01*
X109161820Y-62403498D01*
X109051506Y-62462463D01*
X108954815Y-62541815D01*
X108875463Y-62638506D01*
X108816498Y-62748820D01*
X108780188Y-62868518D01*
X108767928Y-62993000D01*
X103411500Y-62993000D01*
X103411500Y-56523540D01*
X106231000Y-56523540D01*
X106231000Y-57142460D01*
X106351745Y-57749488D01*
X106588596Y-58321295D01*
X106932449Y-58835908D01*
X107370092Y-59273551D01*
X107884705Y-59617404D01*
X108456512Y-59854255D01*
X109063540Y-59975000D01*
X109682460Y-59975000D01*
X110289488Y-59854255D01*
X110861295Y-59617404D01*
X111375908Y-59273551D01*
X111813551Y-58835908D01*
X112157404Y-58321295D01*
X112394255Y-57749488D01*
X112515000Y-57142460D01*
X112515000Y-56523540D01*
X112394255Y-55916512D01*
X112157404Y-55344705D01*
X111813551Y-54830092D01*
X111375908Y-54392449D01*
X110861295Y-54048596D01*
X110289488Y-53811745D01*
X109682460Y-53691000D01*
X109063540Y-53691000D01*
X108456512Y-53811745D01*
X107884705Y-54048596D01*
X107370092Y-54392449D01*
X106932449Y-54830092D01*
X106588596Y-55344705D01*
X106351745Y-55916512D01*
X106231000Y-56523540D01*
X103411500Y-56523540D01*
X103411500Y-52191801D01*
X104680802Y-50922500D01*
X148546000Y-50922500D01*
X148546000Y-66866393D01*
X148546000Y-66866393D01*
G37*
X148546000Y-66866393D02*
X148462597Y-66949796D01*
X148391014Y-66705829D01*
X148135504Y-66584929D01*
X147861316Y-66516200D01*
X147578988Y-66502283D01*
X147299370Y-66543713D01*
X147033208Y-66638897D01*
X146907986Y-66705829D01*
X146836403Y-66949798D01*
X147649500Y-67762895D01*
X147663643Y-67748753D01*
X147843248Y-67928358D01*
X147829105Y-67942500D01*
X147843248Y-67956643D01*
X147663643Y-68136248D01*
X147649500Y-68122105D01*
X146836403Y-68935202D01*
X146907986Y-69179171D01*
X147163496Y-69300071D01*
X147437684Y-69368800D01*
X147641792Y-69378861D01*
X132220622Y-84706000D01*
X103433000Y-84706000D01*
X103433000Y-84547801D01*
X116138000Y-71842802D01*
X116138000Y-79133000D01*
X116150201Y-79256882D01*
X116186336Y-79376004D01*
X116245017Y-79485787D01*
X116323987Y-79582013D01*
X119423987Y-82682013D01*
X119520213Y-82760983D01*
X119629996Y-82819664D01*
X119749118Y-82855799D01*
X119873000Y-82868000D01*
X127773000Y-82868000D01*
X127896882Y-82855799D01*
X128016004Y-82819664D01*
X128125787Y-82760983D01*
X128222013Y-82682013D01*
X129922013Y-80982013D01*
X130000983Y-80885787D01*
X130059664Y-80776004D01*
X130095799Y-80656882D01*
X130108000Y-80533000D01*
X130108000Y-68013012D01*
X146209283Y-68013012D01*
X146250713Y-68292630D01*
X146345897Y-68558792D01*
X146412829Y-68684014D01*
X146656798Y-68755597D01*
X147469895Y-67942500D01*
X146656798Y-67129403D01*
X146412829Y-67200986D01*
X146291929Y-67456496D01*
X146223200Y-67730684D01*
X146209283Y-68013012D01*
X130108000Y-68013012D01*
X130108000Y-65933000D01*
X130095799Y-65809118D01*
X130059664Y-65689996D01*
X130000983Y-65580213D01*
X129922013Y-65483987D01*
X129825787Y-65405017D01*
X129716004Y-65346336D01*
X129596882Y-65310201D01*
X129473000Y-65298000D01*
X118951072Y-65298000D01*
X118951072Y-64683000D01*
X118938812Y-64558518D01*
X118902502Y-64438820D01*
X118843537Y-64328506D01*
X118764185Y-64231815D01*
X118667494Y-64152463D01*
X118557180Y-64093498D01*
X118437482Y-64057188D01*
X118313000Y-64044928D01*
X117613000Y-64044928D01*
X117488518Y-64057188D01*
X117368820Y-64093498D01*
X117258506Y-64152463D01*
X117161815Y-64231815D01*
X117086982Y-64323000D01*
X116597323Y-64323000D01*
X116560000Y-64319324D01*
X116522677Y-64323000D01*
X116522667Y-64323000D01*
X116411014Y-64333997D01*
X116267753Y-64377454D01*
X116135724Y-64448026D01*
X116098640Y-64478460D01*
X116084680Y-64470998D01*
X115964982Y-64434688D01*
X115866657Y-64425004D01*
X115940494Y-64385537D01*
X116037185Y-64306185D01*
X116116537Y-64209494D01*
X116175502Y-64099180D01*
X116211812Y-63979482D01*
X116224072Y-63855000D01*
X116224072Y-62520374D01*
X116262685Y-62488685D01*
X116342037Y-62391994D01*
X116346291Y-62384036D01*
X116417320Y-62422002D01*
X116537018Y-62458312D01*
X116661500Y-62470572D01*
X116850750Y-62467500D01*
X117009500Y-62308750D01*
X117009500Y-61522000D01*
X117263500Y-61522000D01*
X117263500Y-62308750D01*
X117422250Y-62467500D01*
X117611500Y-62470572D01*
X117735982Y-62458312D01*
X117855680Y-62422002D01*
X117965994Y-62363037D01*
X118062685Y-62283685D01*
X118142037Y-62186994D01*
X118201002Y-62076680D01*
X118237312Y-61956982D01*
X118249572Y-61832500D01*
X118246500Y-61680750D01*
X118087750Y-61522000D01*
X117263500Y-61522000D01*
X117009500Y-61522000D01*
X116989500Y-61522000D01*
X116989500Y-61268000D01*
X117009500Y-61268000D01*
X117009500Y-61248000D01*
X117263500Y-61248000D01*
X117263500Y-61268000D01*
X118087750Y-61268000D01*
X118246500Y-61109250D01*
X118249572Y-60957500D01*
X118237312Y-60833018D01*
X118201002Y-60713320D01*
X118142037Y-60603006D01*
X118087400Y-60536430D01*
X118105171Y-60514775D01*
X118184350Y-60366642D01*
X118233108Y-60205908D01*
X118249572Y-60038750D01*
X118249572Y-59601250D01*
X118233108Y-59434092D01*
X118184350Y-59273358D01*
X118105171Y-59125225D01*
X117998615Y-58995385D01*
X117868775Y-58888829D01*
X117720642Y-58809650D01*
X117559908Y-58760892D01*
X117392750Y-58744428D01*
X116880250Y-58744428D01*
X116713092Y-58760892D01*
X116552358Y-58809650D01*
X116404225Y-58888829D01*
X116301265Y-58973325D01*
X116262685Y-58926315D01*
X116165994Y-58846963D01*
X116055680Y-58787998D01*
X115935982Y-58751688D01*
X115811500Y-58739428D01*
X114461500Y-58739428D01*
X114337018Y-58751688D01*
X114217320Y-58787998D01*
X114107006Y-58846963D01*
X114010315Y-58926315D01*
X113930963Y-59023006D01*
X113871998Y-59133320D01*
X113835688Y-59253018D01*
X113823428Y-59377500D01*
X113823428Y-60227500D01*
X113835688Y-60351982D01*
X113871998Y-60471680D01*
X113930963Y-60581994D01*
X114010315Y-60678685D01*
X114045426Y-60707500D01*
X114010315Y-60736315D01*
X113930963Y-60833006D01*
X113871998Y-60943320D01*
X113835688Y-61063018D01*
X113823428Y-61187500D01*
X113823428Y-62037500D01*
X113835688Y-62161982D01*
X113871998Y-62281680D01*
X113930963Y-62391994D01*
X114010315Y-62488685D01*
X114097928Y-62560587D01*
X114097928Y-63855000D01*
X114110188Y-63979482D01*
X114146498Y-64099180D01*
X114205463Y-64209494D01*
X114284815Y-64306185D01*
X114330500Y-64343678D01*
X114330500Y-64423413D01*
X114216018Y-64434688D01*
X114096320Y-64470998D01*
X113986006Y-64529963D01*
X113889315Y-64609315D01*
X113809963Y-64706006D01*
X113760500Y-64798543D01*
X113711037Y-64706006D01*
X113631685Y-64609315D01*
X113534994Y-64529963D01*
X113424680Y-64470998D01*
X113304982Y-64434688D01*
X113180500Y-64422428D01*
X111680500Y-64422428D01*
X111556018Y-64434688D01*
X111436320Y-64470998D01*
X111411995Y-64484000D01*
X111305509Y-64484000D01*
X111286537Y-64448506D01*
X111207185Y-64351815D01*
X111172074Y-64323000D01*
X111207185Y-64294185D01*
X111286537Y-64197494D01*
X111345502Y-64087180D01*
X111381812Y-63967482D01*
X111394072Y-63843000D01*
X111391000Y-63703750D01*
X111232250Y-63545000D01*
X110208000Y-63545000D01*
X110208000Y-63565000D01*
X109954000Y-63565000D01*
X109954000Y-63545000D01*
X108929750Y-63545000D01*
X108771000Y-63703750D01*
X108767928Y-63843000D01*
X108780188Y-63967482D01*
X108816498Y-64087180D01*
X108875463Y-64197494D01*
X108954815Y-64294185D01*
X108989926Y-64323000D01*
X108954815Y-64351815D01*
X108875463Y-64448506D01*
X108839653Y-64515500D01*
X103474302Y-64515500D01*
X103411500Y-64452699D01*
X103411500Y-62993000D01*
X108767928Y-62993000D01*
X108771000Y-63132250D01*
X108929750Y-63291000D01*
X109954000Y-63291000D01*
X109954000Y-62516750D01*
X110208000Y-62516750D01*
X110208000Y-63291000D01*
X111232250Y-63291000D01*
X111391000Y-63132250D01*
X111394072Y-62993000D01*
X111381812Y-62868518D01*
X111345502Y-62748820D01*
X111286537Y-62638506D01*
X111207185Y-62541815D01*
X111110494Y-62462463D01*
X111000180Y-62403498D01*
X110880482Y-62367188D01*
X110756000Y-62354928D01*
X110366750Y-62358000D01*
X110208000Y-62516750D01*
X109954000Y-62516750D01*
X109795250Y-62358000D01*
X109406000Y-62354928D01*
X109281518Y-62367188D01*
X109161820Y-62403498D01*
X109051506Y-62462463D01*
X108954815Y-62541815D01*
X108875463Y-62638506D01*
X108816498Y-62748820D01*
X108780188Y-62868518D01*
X108767928Y-62993000D01*
X103411500Y-62993000D01*
X103411500Y-56523540D01*
X106231000Y-56523540D01*
X106231000Y-57142460D01*
X106351745Y-57749488D01*
X106588596Y-58321295D01*
X106932449Y-58835908D01*
X107370092Y-59273551D01*
X107884705Y-59617404D01*
X108456512Y-59854255D01*
X109063540Y-59975000D01*
X109682460Y-59975000D01*
X110289488Y-59854255D01*
X110861295Y-59617404D01*
X111375908Y-59273551D01*
X111813551Y-58835908D01*
X112157404Y-58321295D01*
X112394255Y-57749488D01*
X112515000Y-57142460D01*
X112515000Y-56523540D01*
X112394255Y-55916512D01*
X112157404Y-55344705D01*
X111813551Y-54830092D01*
X111375908Y-54392449D01*
X110861295Y-54048596D01*
X110289488Y-53811745D01*
X109682460Y-53691000D01*
X109063540Y-53691000D01*
X108456512Y-53811745D01*
X107884705Y-54048596D01*
X107370092Y-54392449D01*
X106932449Y-54830092D01*
X106588596Y-55344705D01*
X106351745Y-55916512D01*
X106231000Y-56523540D01*
X103411500Y-56523540D01*
X103411500Y-52191801D01*
X104680802Y-50922500D01*
X148546000Y-50922500D01*
X148546000Y-66866393D01*
G36*
X102595700Y-65786502D02*
G01*
X102619499Y-65815501D01*
X102735224Y-65910474D01*
X102867253Y-65981046D01*
X103010514Y-66024503D01*
X103122167Y-66035500D01*
X103122176Y-66035500D01*
X103159499Y-66039176D01*
X103196822Y-66035500D01*
X108898447Y-66035500D01*
X108954815Y-66104185D01*
X109051506Y-66183537D01*
X109161820Y-66242502D01*
X109281518Y-66278812D01*
X109406000Y-66291072D01*
X110756000Y-66291072D01*
X110880482Y-66278812D01*
X111000180Y-66242502D01*
X111052666Y-66214447D01*
X111054688Y-66234982D01*
X111054845Y-66235500D01*
X111054688Y-66236018D01*
X111042428Y-66360500D01*
X111042428Y-66760500D01*
X111054688Y-66884982D01*
X111090998Y-67004680D01*
X111149963Y-67114994D01*
X111229315Y-67211685D01*
X111326006Y-67291037D01*
X111436320Y-67350002D01*
X111556018Y-67386312D01*
X111680500Y-67398572D01*
X113180500Y-67398572D01*
X113304982Y-67386312D01*
X113424680Y-67350002D01*
X113534994Y-67291037D01*
X113631685Y-67211685D01*
X113711037Y-67114994D01*
X113760107Y-67023192D01*
X113815292Y-67122843D01*
X113896074Y-67218344D01*
X113993934Y-67296250D01*
X114105113Y-67353567D01*
X114225338Y-67388093D01*
X114349988Y-67398501D01*
X114804750Y-67395500D01*
X114963500Y-67236750D01*
X114963500Y-66748572D01*
X115217500Y-66748572D01*
X115217500Y-67236750D01*
X115376250Y-67395500D01*
X115480500Y-67396188D01*
X115480501Y-70350697D01*
X102500000Y-83331199D01*
X102500000Y-65690802D01*
X102595700Y-65786502D01*
X102595700Y-65786502D01*
G37*
X102595700Y-65786502D02*
X102619499Y-65815501D01*
X102735224Y-65910474D01*
X102867253Y-65981046D01*
X103010514Y-66024503D01*
X103122167Y-66035500D01*
X103122176Y-66035500D01*
X103159499Y-66039176D01*
X103196822Y-66035500D01*
X108898447Y-66035500D01*
X108954815Y-66104185D01*
X109051506Y-66183537D01*
X109161820Y-66242502D01*
X109281518Y-66278812D01*
X109406000Y-66291072D01*
X110756000Y-66291072D01*
X110880482Y-66278812D01*
X111000180Y-66242502D01*
X111052666Y-66214447D01*
X111054688Y-66234982D01*
X111054845Y-66235500D01*
X111054688Y-66236018D01*
X111042428Y-66360500D01*
X111042428Y-66760500D01*
X111054688Y-66884982D01*
X111090998Y-67004680D01*
X111149963Y-67114994D01*
X111229315Y-67211685D01*
X111326006Y-67291037D01*
X111436320Y-67350002D01*
X111556018Y-67386312D01*
X111680500Y-67398572D01*
X113180500Y-67398572D01*
X113304982Y-67386312D01*
X113424680Y-67350002D01*
X113534994Y-67291037D01*
X113631685Y-67211685D01*
X113711037Y-67114994D01*
X113760107Y-67023192D01*
X113815292Y-67122843D01*
X113896074Y-67218344D01*
X113993934Y-67296250D01*
X114105113Y-67353567D01*
X114225338Y-67388093D01*
X114349988Y-67398501D01*
X114804750Y-67395500D01*
X114963500Y-67236750D01*
X114963500Y-66748572D01*
X115217500Y-66748572D01*
X115217500Y-67236750D01*
X115376250Y-67395500D01*
X115480500Y-67396188D01*
X115480501Y-70350697D01*
X102500000Y-83331199D01*
X102500000Y-65690802D01*
X102595700Y-65786502D01*
G36*
X178026000Y-64181045D02*
G01*
X177991502Y-64067320D01*
X177932537Y-63957006D01*
X177853185Y-63860315D01*
X177756494Y-63780963D01*
X177646180Y-63721998D01*
X177526482Y-63685688D01*
X177402000Y-63673428D01*
X176787750Y-63676500D01*
X176629000Y-63835250D01*
X176629000Y-65434500D01*
X176649000Y-65434500D01*
X176649000Y-65466000D01*
X176355000Y-65466000D01*
X176355000Y-65434500D01*
X176375000Y-65434500D01*
X176375000Y-63835250D01*
X176216250Y-63676500D01*
X175602000Y-63673428D01*
X175477518Y-63685688D01*
X175357820Y-63721998D01*
X175247506Y-63780963D01*
X175150815Y-63860315D01*
X175071463Y-63957006D01*
X175012498Y-64067320D01*
X174976188Y-64187018D01*
X174963928Y-64311500D01*
X174967000Y-65275750D01*
X175125748Y-65434498D01*
X174967000Y-65434498D01*
X174967000Y-65466000D01*
X150340000Y-65466000D01*
X150340000Y-63370196D01*
X162015409Y-63370196D01*
X162601124Y-64052416D01*
X163584704Y-64600045D01*
X164656223Y-64945265D01*
X165774501Y-65074808D01*
X166896565Y-64983697D01*
X167979294Y-64675433D01*
X168981079Y-64161863D01*
X169144876Y-64052416D01*
X169730591Y-63370196D01*
X165873000Y-59512605D01*
X162015409Y-63370196D01*
X150340000Y-63370196D01*
X150340000Y-61764149D01*
X150498223Y-61846575D01*
X150977583Y-61986452D01*
X151475021Y-62030123D01*
X151971422Y-61975909D01*
X152447707Y-61825894D01*
X152840638Y-61615867D01*
X153044744Y-61259349D01*
X151448000Y-59662605D01*
X151433858Y-59676748D01*
X151254253Y-59497143D01*
X151268395Y-59483000D01*
X151627605Y-59483000D01*
X153224349Y-61079744D01*
X153580867Y-60875638D01*
X153811575Y-60432777D01*
X153951452Y-59953417D01*
X153995123Y-59455979D01*
X153970935Y-59234501D01*
X160131192Y-59234501D01*
X160222303Y-60356565D01*
X160530567Y-61439294D01*
X161044137Y-62441079D01*
X161153584Y-62604876D01*
X161835804Y-63190591D01*
X165693395Y-59333000D01*
X166052605Y-59333000D01*
X169910196Y-63190591D01*
X170592416Y-62604876D01*
X171140045Y-61621296D01*
X171485265Y-60549777D01*
X171614808Y-59431499D01*
X171523697Y-58309435D01*
X171215433Y-57226706D01*
X170701863Y-56224921D01*
X170592416Y-56061124D01*
X169910196Y-55475409D01*
X166052605Y-59333000D01*
X165693395Y-59333000D01*
X161835804Y-55475409D01*
X161153584Y-56061124D01*
X160605955Y-57044704D01*
X160260735Y-58116223D01*
X160131192Y-59234501D01*
X153970935Y-59234501D01*
X153940909Y-58959578D01*
X153790894Y-58483293D01*
X153580867Y-58090362D01*
X153224349Y-57886256D01*
X151627605Y-59483000D01*
X151268395Y-59483000D01*
X151254253Y-59468858D01*
X151433858Y-59289253D01*
X151448000Y-59303395D01*
X153044744Y-57706651D01*
X152840638Y-57350133D01*
X152397777Y-57119425D01*
X151918417Y-56979548D01*
X151420979Y-56935877D01*
X150924578Y-56990091D01*
X150448293Y-57140106D01*
X150340000Y-57197990D01*
X150340000Y-55295804D01*
X162015409Y-55295804D01*
X165873000Y-59153395D01*
X169730591Y-55295804D01*
X169144876Y-54613584D01*
X168161296Y-54065955D01*
X167089777Y-53720735D01*
X165971499Y-53591192D01*
X164849435Y-53682303D01*
X163766706Y-53990567D01*
X162764921Y-54504137D01*
X162601124Y-54613584D01*
X162015409Y-55295804D01*
X150340000Y-55295804D01*
X150340000Y-50922500D01*
X150588789Y-50922500D01*
X150632726Y-50966437D01*
X150802244Y-51079705D01*
X150990602Y-51157726D01*
X151190561Y-51197500D01*
X151394439Y-51197500D01*
X151594398Y-51157726D01*
X151782756Y-51079705D01*
X151952274Y-50966437D01*
X152096437Y-50822274D01*
X152209705Y-50652756D01*
X152287726Y-50464398D01*
X152327500Y-50264439D01*
X152327500Y-50060561D01*
X152309884Y-49972000D01*
X178026000Y-49972000D01*
X178026000Y-64181045D01*
X178026000Y-64181045D01*
G37*
X178026000Y-64181045D02*
X177991502Y-64067320D01*
X177932537Y-63957006D01*
X177853185Y-63860315D01*
X177756494Y-63780963D01*
X177646180Y-63721998D01*
X177526482Y-63685688D01*
X177402000Y-63673428D01*
X176787750Y-63676500D01*
X176629000Y-63835250D01*
X176629000Y-65434500D01*
X176649000Y-65434500D01*
X176649000Y-65466000D01*
X176355000Y-65466000D01*
X176355000Y-65434500D01*
X176375000Y-65434500D01*
X176375000Y-63835250D01*
X176216250Y-63676500D01*
X175602000Y-63673428D01*
X175477518Y-63685688D01*
X175357820Y-63721998D01*
X175247506Y-63780963D01*
X175150815Y-63860315D01*
X175071463Y-63957006D01*
X175012498Y-64067320D01*
X174976188Y-64187018D01*
X174963928Y-64311500D01*
X174967000Y-65275750D01*
X175125748Y-65434498D01*
X174967000Y-65434498D01*
X174967000Y-65466000D01*
X150340000Y-65466000D01*
X150340000Y-63370196D01*
X162015409Y-63370196D01*
X162601124Y-64052416D01*
X163584704Y-64600045D01*
X164656223Y-64945265D01*
X165774501Y-65074808D01*
X166896565Y-64983697D01*
X167979294Y-64675433D01*
X168981079Y-64161863D01*
X169144876Y-64052416D01*
X169730591Y-63370196D01*
X165873000Y-59512605D01*
X162015409Y-63370196D01*
X150340000Y-63370196D01*
X150340000Y-61764149D01*
X150498223Y-61846575D01*
X150977583Y-61986452D01*
X151475021Y-62030123D01*
X151971422Y-61975909D01*
X152447707Y-61825894D01*
X152840638Y-61615867D01*
X153044744Y-61259349D01*
X151448000Y-59662605D01*
X151433858Y-59676748D01*
X151254253Y-59497143D01*
X151268395Y-59483000D01*
X151627605Y-59483000D01*
X153224349Y-61079744D01*
X153580867Y-60875638D01*
X153811575Y-60432777D01*
X153951452Y-59953417D01*
X153995123Y-59455979D01*
X153970935Y-59234501D01*
X160131192Y-59234501D01*
X160222303Y-60356565D01*
X160530567Y-61439294D01*
X161044137Y-62441079D01*
X161153584Y-62604876D01*
X161835804Y-63190591D01*
X165693395Y-59333000D01*
X166052605Y-59333000D01*
X169910196Y-63190591D01*
X170592416Y-62604876D01*
X171140045Y-61621296D01*
X171485265Y-60549777D01*
X171614808Y-59431499D01*
X171523697Y-58309435D01*
X171215433Y-57226706D01*
X170701863Y-56224921D01*
X170592416Y-56061124D01*
X169910196Y-55475409D01*
X166052605Y-59333000D01*
X165693395Y-59333000D01*
X161835804Y-55475409D01*
X161153584Y-56061124D01*
X160605955Y-57044704D01*
X160260735Y-58116223D01*
X160131192Y-59234501D01*
X153970935Y-59234501D01*
X153940909Y-58959578D01*
X153790894Y-58483293D01*
X153580867Y-58090362D01*
X153224349Y-57886256D01*
X151627605Y-59483000D01*
X151268395Y-59483000D01*
X151254253Y-59468858D01*
X151433858Y-59289253D01*
X151448000Y-59303395D01*
X153044744Y-57706651D01*
X152840638Y-57350133D01*
X152397777Y-57119425D01*
X151918417Y-56979548D01*
X151420979Y-56935877D01*
X150924578Y-56990091D01*
X150448293Y-57140106D01*
X150340000Y-57197990D01*
X150340000Y-55295804D01*
X162015409Y-55295804D01*
X165873000Y-59153395D01*
X169730591Y-55295804D01*
X169144876Y-54613584D01*
X168161296Y-54065955D01*
X167089777Y-53720735D01*
X165971499Y-53591192D01*
X164849435Y-53682303D01*
X163766706Y-53990567D01*
X162764921Y-54504137D01*
X162601124Y-54613584D01*
X162015409Y-55295804D01*
X150340000Y-55295804D01*
X150340000Y-50922500D01*
X150588789Y-50922500D01*
X150632726Y-50966437D01*
X150802244Y-51079705D01*
X150990602Y-51157726D01*
X151190561Y-51197500D01*
X151394439Y-51197500D01*
X151594398Y-51157726D01*
X151782756Y-51079705D01*
X151952274Y-50966437D01*
X152096437Y-50822274D01*
X152209705Y-50652756D01*
X152287726Y-50464398D01*
X152327500Y-50264439D01*
X152327500Y-50060561D01*
X152309884Y-49972000D01*
X178026000Y-49972000D01*
X178026000Y-64181045D01*
M02*
