<?xml version="1.0" encoding="UTF-8" standalone="no"?>
<svg
   xmlns:dc="http://purl.org/dc/elements/1.1/"
   xmlns:cc="http://creativecommons.org/ns#"
   xmlns:rdf="http://www.w3.org/1999/02/22-rdf-syntax-ns#"
   xmlns:svg="http://www.w3.org/2000/svg"
   xmlns="http://www.w3.org/2000/svg"
   xmlns:sodipodi="http://sodipodi.sourceforge.net/DTD/sodipodi-0.dtd"
   xmlns:inkscape="http://www.inkscape.org/namespaces/inkscape"
   height="343.10031"
   version="1.1"
   viewBox="-4 -308 343.10013 343.10031"
   width="343.10013"
   id="svg16"
   sodipodi:docname="HB_Top.svg"
   inkscape:version="1.0 (b51213c273, 2020-08-10)">
  <metadata
     id="metadata22">
    <rdf:RDF>
      <cc:Work
         rdf:about="">
        <dc:format>image/svg+xml</dc:format>
        <dc:type
           rdf:resource="http://purl.org/dc/dcmitype/StillImage" />
      </cc:Work>
    </rdf:RDF>
  </metadata>
  <defs
     id="defs20" />
  <sodipodi:namedview
     pagecolor="#ffffff"
     bordercolor="#666666"
     borderopacity="1"
     objecttolerance="10"
     gridtolerance="10"
     guidetolerance="10"
     inkscape:pageopacity="0"
     inkscape:pageshadow="2"
     inkscape:window-width="1920"
     inkscape:window-height="968"
     id="namedview18"
     showgrid="false"
     inkscape:zoom="1.3173077"
     inkscape:cx="36.12316"
     inkscape:cy="157.36196"
     inkscape:window-x="0"
     inkscape:window-y="27"
     inkscape:window-maximized="1"
     inkscape:current-layer="svg16"
     inkscape:document-rotation="0" />
  <title
     id="title2">OpenSCAD Model</title>
  <path
     d="m 32.200063,34.938483 -1.97,-0.3127 -1.93,-0.5175 -1.87,-0.7164 -1.78,-0.9077 -1.68,-1.0888 -1.55,-1.2582 -1.41,-1.4137 -1.26,-1.5537 -1.09,-1.67667 -0.91,-1.78134 -0.72,-1.86645 -0.51,-1.93112 -0.15,-0.92112 h -0.27 v -41.1 h -1.1 l -0.01,0.0227 -0.01,0.0355 -0.01,0.0342 -0.02,0.0326 -0.02,0.0308 -0.02,0.0284 -0.03,0.026 -0.02,0.023 -0.03,0.02 -0.04,0.0166 -0.03,0.0131 -0.04,0.01 -0.03,0.006 -0.04,0.002 -0.04,-0.002 -0.03,-0.006 -0.04,-0.01 -0.03,-0.0131 -0.04,-0.0166 -0.03,-0.02 -0.02,-0.023 -0.03,-0.026 -0.02,-0.0284 -0.02,-0.0308 -0.02,-0.0326 -0.01,-0.0342 -0.01,-0.0354 -0.01,-0.0228 h -1.2 v -0.2714 l -0.92,-0.1459 -1.9300003,-0.5174 -1.87,-0.7165 -1.78,-0.9076 -1.68,-1.0889 -1.55,-1.2582 -1.41000002,-1.4137 -1.26,-1.5536 -1.08999998,-1.6768 -0.91,-1.7813 -0.72,-1.8664 -0.51,-1.9312 -0.32,-1.9746 -0.1,-1.9965 0.1,-1.9965 0.32,-1.9746 0.51,-1.9311 0.72,-1.8665 0.91,-1.7813 1.08999998,-1.6767 1.26,-1.5537 1.41000002,-1.4137 1.55,-1.2582 1.68,-1.0888 1.78,-0.9077 1.87,-0.7164 1.9300003,-0.5175 0.92,-0.1459 v -0.2714 h 3 v -38 h -1.1 l -0.01,0.023 -0.01,0.035 -0.01,0.034 -0.02,0.033 -0.02,0.031 -0.02,0.028 -0.03,0.026 -0.02,0.023 -0.03,0.02 -0.04,0.017 -0.03,0.013 -0.04,0.009 -0.03,0.006 -0.04,0.002 -0.04,-0.002 -0.03,-0.006 -0.04,-0.009 -0.03,-0.013 -0.04,-0.017 -0.03,-0.02 -0.02,-0.023 -0.03,-0.026 -0.02,-0.028 -0.02,-0.031 -0.02,-0.033 -0.01,-0.034 -0.01,-0.035 -0.01,-0.023 h -1.2 v -0.271 l -0.92,-0.146 -1.9300003,-0.518 -1.87,-0.716 -1.78,-0.908003 -1.68,-1.089 -1.55,-1.258 -1.41000002,-1.414 -1.26,-1.553 -1.08999998,-1.677 -0.91,-1.781 -0.72,-1.867 -0.51,-1.931 -0.32,-1.975 -0.1,-1.996 0.1,-1.996 0.32,-1.975 0.51,-1.931 0.72,-1.867 0.91,-1.781 1.08999998,-1.677 1.26,-1.553 1.41000002,-1.414 1.55,-1.258 1.68,-1.089 1.78,-0.908 1.87,-0.716 1.9300003,-0.518 0.92,-0.146 v -0.271 h 3 v -37.99999 h -1.1 l -0.01,0.023 -0.01,0.035 -0.01,0.034 -0.02,0.033 -0.02,0.031 -0.02,0.028 -0.03,0.026 -0.02,0.023 -0.03,0.02 -0.04,0.017 -0.03,0.013 -0.04,0.009 -0.03,0.006 -0.04,0.002 -0.04,-0.002 -0.03,-0.006 -0.04,-0.009 -0.03,-0.013 -0.04,-0.017 -0.03,-0.02 -0.02,-0.023 -0.03,-0.026 -0.02,-0.028 -0.02,-0.031 -0.02,-0.033 -0.01,-0.034 -0.01,-0.035 -0.01,-0.023 h -1.2 v -0.271 l -0.92,-0.146 -1.9300003,-0.518 -1.87,-0.716 -1.78,-0.908 -1.68,-1.089 -1.55,-1.258 -1.41000002,-1.414 -1.26,-1.553 -1.08999998,-1.677 -0.91,-1.781 -0.72,-1.867 -0.51,-1.931 -0.32,-1.974 -0.1,-1.997 0.1,-1.996 0.32,-1.975 0.51,-1.931 0.72,-1.867 0.91,-1.781 1.08999998,-1.677 1.26,-1.553 1.41000002,-1.414 1.55,-1.258 1.68,-1.089 1.78,-0.908 1.87,-0.716 1.9300003,-0.518 0.92,-0.146 v -0.271 h 3 v -38 h -1.1 l -0.01,0.023 -0.01,0.035 -0.01,0.034 -0.02,0.033 -0.02,0.031 -0.02,0.028 -0.03,0.026 -0.02,0.023 -0.03,0.02 -0.04,0.017 -0.03,0.013 -0.04,0.009 -0.03,0.006 -0.04,0.002 -0.04,-0.002 -0.03,-0.006 -0.04,-0.009 -0.03,-0.013 -0.04,-0.017 -0.03,-0.02 -0.02,-0.023 -0.03,-0.026 -0.02,-0.028 -0.02,-0.031 -0.02,-0.033 -0.01,-0.034 -0.01,-0.035 -0.01,-0.023 h -1.2 v -0.271 l -0.92,-0.146 -1.9300003,-0.518 -1.87,-0.716 -1.78,-0.908 -1.68,-1.089 -1.55,-1.258 -1.41000002,-1.414 -1.26,-1.553 -1.08999998,-1.677 -0.91,-1.781 -0.72,-1.867 -0.51,-1.931 -0.32,-1.974 -0.1,-1.997 0.1,-1.997 0.32,-1.974 0.51,-1.931 0.72,-1.867 0.91,-1.781 1.08999998,-1.677 1.26,-1.553 1.41000002,-1.414 1.55,-1.258 1.68,-1.089 1.78,-0.908 1.87,-0.716 1.9300003,-0.518 0.92,-0.146 v -0.271 h 41.1 v -1.104 l -0.02,-0.004 -0.04,-0.009 -0.03,-0.013 -0.03,-0.017 -0.04,-0.02 -0.02,-0.023 -0.03,-0.026 -0.02,-0.028 -0.02,-0.031 -0.02,-0.033 -0.01,-0.034 -0.01,-0.035 -0.01,-0.036 v -0.037 -0.037 l 0.01,-0.036 0.01,-0.035 0.01,-0.034 0.02,-0.033 0.02,-0.031 0.02,-0.028 0.03,-0.026 0.02,-0.023 0.04,-0.02 0.03,-0.017 0.03,-0.013 0.04,-0.009 0.02,-0.004 v -1.204 h 0.27 l 0.15,-0.921 0.51,-1.931 0.72,-1.867 0.91,-1.781 1.09,-1.677 1.26,-1.553 1.41,-1.414 1.55,-1.258 1.68,-1.089 1.78,-0.908 1.87,-0.716 1.93,-0.518 1.97,-0.312 2,-0.105 2,0.105 1.97,0.312 1.93,0.518 1.87,0.716 1.78,0.908 1.68,1.089 1.55,1.258 1.41,1.414 1.26,1.553 1.09,1.677 0.91,1.781 0.72,1.867 0.51,1.931 0.15,0.921 h 0.27 v 3 h 37.999997 v -1.104 l -0.023,-0.004 -0.035,-0.009 -0.034,-0.013 -0.033,-0.017 -0.031,-0.02 -0.028,-0.023 -0.026,-0.026 -0.023,-0.028 -0.02,-0.031 -0.017,-0.033 -0.013,-0.034 -0.009,-0.035 -0.006,-0.036 -0.002,-0.037 0.002,-0.037 0.006,-0.036 0.009,-0.035 0.013,-0.034 0.017,-0.033 0.02,-0.031 0.023,-0.028 0.026,-0.026 0.028,-0.023 0.031,-0.02 0.033,-0.017 0.034,-0.013 0.035,-0.009 0.023,-0.004 v -1.204 h 0.271 l 0.146,-0.921 0.518,-1.931 0.716,-1.867 0.908,-1.781 1.089,-1.677 1.258,-1.553 1.414,-1.414 1.553,-1.258 1.677,-1.089 1.781,-0.908 1.867,-0.716 1.931,-0.518 1.975,-0.312 1.996,-0.105 1.997,0.105 1.974,0.312 1.931,0.518 1.867,0.716 1.781,0.908 1.677,1.089 1.553,1.258 1.414,1.414 1.258,1.553 1.089,1.677 0.908,1.781 0.716,1.867 0.518,1.931 0.146,0.921 h 0.271 v 3 h 38 v -1.104 l -0.023,-0.004 -0.035,-0.009 -0.034,-0.013 -0.033,-0.017 -0.031,-0.02 -0.028,-0.023 -0.026,-0.026 -0.023,-0.028 -0.02,-0.031 -0.017,-0.033 -0.013,-0.034 -0.009,-0.035 -0.006,-0.036 -0.002,-0.037 0.002,-0.037 0.006,-0.036 0.009,-0.035 0.013,-0.034 0.017,-0.033 0.02,-0.031 0.023,-0.028 0.026,-0.026 0.028,-0.023 0.031,-0.02 0.033,-0.017 0.034,-0.013 0.035,-0.009 0.023,-0.004 v -1.204 h 0.271 l 0.146,-0.921 0.518,-1.931 0.716,-1.867 0.908,-1.781 1.089,-1.677 1.258,-1.553 1.414,-1.414 1.553,-1.258 1.677,-1.089 1.781,-0.908 1.867,-0.716 1.931,-0.518 1.975,-0.312 1.996,-0.105 1.997,0.105 1.974,0.312 1.931,0.518 1.867,0.716 1.781,0.908 1.677,1.089 1.553,1.258 1.414,1.414 1.258,1.553 1.089,1.677 0.908,1.781 0.716,1.867 0.518,1.931 0.146,0.921 h 0.271 v 3 h 38 v -1.104 l -0.023,-0.004 -0.035,-0.009 -0.034,-0.013 -0.033,-0.017 -0.031,-0.02 -0.028,-0.023 -0.026,-0.026 -0.023,-0.028 -0.02,-0.031 -0.017,-0.033 -0.013,-0.034 -0.009,-0.035 -0.006,-0.036 -0.002,-0.037 0.002,-0.037 0.006,-0.036 0.009,-0.035 0.013,-0.034 0.017,-0.033 0.02,-0.031 0.023,-0.028 0.026,-0.026 0.028,-0.023 0.031,-0.02 0.033,-0.017 0.034,-0.013 0.035,-0.009 0.023,-0.004 v -1.204 h 0.271 l 0.146,-0.921 0.518,-1.931 0.716,-1.867 0.908,-1.781 1.089,-1.677 1.258,-1.553 1.414,-1.414 1.553,-1.258 1.677,-1.089 1.781,-0.908 1.867,-0.716 1.931,-0.518 1.974,-0.312 1.997,-0.105 1.996,0.105 1.975,0.312 1.931,0.518 1.867,0.716 1.781,0.908 1.677,1.089 1.553,1.258 1.414,1.414 1.258,1.553 1.089,1.677 0.908,1.781 0.716,1.867 0.518,1.931 0.146,0.921 h 0.271 v 41.1 h 1.104 l 0.004,-0.023 0.009,-0.035 0.013,-0.034 0.017,-0.033 0.02,-0.031 0.023,-0.028 0.026,-0.026 0.028,-0.023 0.031,-0.02 0.033,-0.017 0.034,-0.013 0.035,-0.009 0.036,-0.006 0.037,-0.002 0.037,0.002 0.036,0.006 0.035,0.009 0.034,0.013 0.033,0.017 0.031,0.02 0.028,0.023 0.026,0.026 0.023,0.028 0.02,0.031 0.017,0.033 0.013,0.034 0.009,0.035 0.004,0.023 h 1.204 v 0.271 l 0.921,0.146 1.931,0.518 1.867,0.716 1.781,0.908 1.677,1.089 1.553,1.258 1.414,1.414 1.258,1.553 1.089,1.677 0.908,1.781 0.716,1.867 0.518,1.931 0.312,1.975 0.105,1.996 -0.105,1.996 -0.312,1.975 -0.518,1.931 -0.716,1.867 -0.908,1.781 -1.089,1.677 -1.258,1.553 -1.414,1.414 -1.553,1.258 -1.677,1.089 -1.781,0.908 -1.867,0.716 -1.931,0.518 -0.921,0.146 v 0.271 h -3 v 38 h 1.104 l 0.004,-0.023 0.009,-0.035 0.013,-0.034 0.017,-0.033 0.02,-0.031 0.023,-0.028 0.026,-0.026 0.028,-0.023 0.031,-0.02 0.033,-0.017 0.034,-0.013 0.035,-0.009 0.036,-0.006 0.037,-0.002 0.037,0.002 0.036,0.006 0.035,0.009 0.034,0.013 0.033,0.017 0.031,0.02 0.028,0.023 0.026,0.026 0.023,0.028 0.02,0.031 0.017,0.033 0.013,0.034 0.009,0.035 0.004,0.023 h 1.204 v 0.271 l 0.921,0.146 1.931,0.518 1.867,0.716 1.781,0.90799 1.677,1.089 1.553,1.258 1.414,1.414 1.258,1.553 1.089,1.677 0.908,1.781 0.716,1.867 0.518,1.931 0.312,1.974 0.105,1.997 -0.105,1.996 -0.312,1.975 -0.518,1.931 -0.716,1.867 -0.908,1.781 -1.089,1.677 -1.258,1.553 -1.414,1.414 -1.553,1.258 -1.677,1.089 -1.781,0.908 -1.867,0.716 -1.931,0.518 -0.921,0.146 v 0.271 h -3 v 38.000003 h 1.104 l 0.004,-0.023 0.009,-0.035 0.013,-0.034 0.017,-0.033 0.02,-0.031 0.023,-0.028 0.026,-0.026 0.028,-0.023 0.031,-0.02 0.033,-0.017 0.034,-0.013 0.035,-0.009 0.036,-0.006 0.037,-0.002 0.037,0.002 0.036,0.006 0.035,0.009 0.034,0.013 0.033,0.017 0.031,0.02 0.028,0.023 0.026,0.026 0.023,0.028 0.02,0.031 0.017,0.033 0.013,0.034 0.009,0.035 0.004,0.023 h 1.204 v 0.271 l 0.921,0.146 1.931,0.518 1.867,0.716 1.781,0.908 1.677,1.089 1.553,1.258 1.414,1.414 1.258,1.553 1.089,1.677 0.908,1.781 0.716,1.867 0.518,1.9309 0.312,1.9746 0.105,1.9965 -0.105,1.9965 -0.312,1.9746 -0.518,1.9312 -0.716,1.8664 -0.908,1.7813 -1.089,1.6767 -1.258,1.5538 -1.414,1.4136 -1.553,1.2582 -1.677,1.0889 -1.781,0.9076 -1.867,0.7165 -1.931,0.5174 -0.921,0.1459 v 0.2714 h -3 v 38 h 1.104 l 0.004,-0.0228 0.009,-0.0353 0.013,-0.0343 0.017,-0.0326 0.02,-0.0308 0.023,-0.0285 0.026,-0.0259 0.028,-0.023 0.031,-0.02 0.033,-0.0166 0.034,-0.0131 0.035,-0.01 0.036,-0.006 0.037,-0.002 0.037,0.002 0.036,0.006 0.035,0.01 0.034,0.0131 0.033,0.0166 0.031,0.02 0.028,0.0231 0.026,0.0259 0.023,0.0284 0.02,0.0308 0.017,0.0326 0.013,0.0343 0.009,0.0353 0.004,0.0228 h 1.204 v 0.2714 l 0.921,0.1459 1.931,0.5175 1.867,0.7164 1.781,0.9077 1.677,1.0888 1.553,1.2582 1.414,1.4137 1.258,1.5537 1.089,1.6767 0.908,1.7813 0.716,1.8665 0.518,1.9311 0.312,1.9746 0.105,1.9965 -0.105,1.9965 -0.312,1.97460002 -0.518,1.93109998 -0.716,1.8665 -0.908,1.78135 -1.089,1.67671 -1.258,1.55369 -1.414,1.41367 -1.553,1.25818 -1.677,1.08885 -1.781,0.90764 -1.867,0.71646 -1.931,0.51746 -0.921,0.14587 v 0.27142 h -41.1 v 1.10396 l 0.023,0.004 0.035,0.01 0.034,0.0131 0.033,0.0167 0.031,0.02 0.028,0.023 0.026,0.0259 0.023,0.0285 0.02,0.0308 0.017,0.0326 0.013,0.0342 0.009,0.0355 0.006,0.0362 0.002,0.0366 -0.002,0.0366 -0.006,0.0362 -0.009,0.0354 -0.013,0.0342 -0.017,0.0326 -0.02,0.0308 -0.023,0.0285 -0.026,0.0259 -0.028,0.023 -0.031,0.02 -0.033,0.0167 -0.034,0.0131 -0.035,0.01 -0.023,0.004 v 1.20398 h -0.271 l -0.146,0.92112 -0.518,1.93112 -0.716,1.86645 -0.908,1.78134 -1.089,1.67667 -1.258,1.5537 -1.414,1.4137 -1.553,1.2582 -1.677,1.0888 -1.781,0.9077 -1.867,0.7164 -1.931,0.5175 -1.974,0.3127 -1.997,0.1047 -1.997,-0.1047 -1.974,-0.3127 -1.931,-0.5175 -1.867,-0.7164 -1.781,-0.9077 -1.677,-1.0888 -1.553,-1.2582 -1.414,-1.4137 -1.258,-1.5537 -1.089,-1.67667 -0.908,-1.78134 -0.716,-1.86645 -0.518,-1.93112 -0.146,-0.92112 h -0.271 v -3 h -38 v 1.10396 l 0.023,0.004 0.035,0.01 0.034,0.0131 0.033,0.0167 0.031,0.02 0.028,0.023 0.026,0.0259 0.023,0.0285 0.02,0.0307 0.017,0.0326 0.013,0.0342 0.009,0.0353 0.006,0.0362 0.002,0.0366 -0.002,0.0366 -0.006,0.0362 -0.009,0.0354 -0.013,0.0342 -0.017,0.0326 -0.02,0.0307 -0.023,0.0285 -0.026,0.0259 -0.028,0.023 -0.031,0.02 -0.033,0.0167 -0.034,0.0131 -0.035,0.01 -0.023,0.004 v 1.20398 h -0.271 l -0.146,0.92112 -0.518,1.93112 -0.716,1.86645 -0.908,1.78134 -1.089,1.67667 -1.258,1.5537 -1.414,1.4137 -1.553,1.2582 -1.677,1.0888 -1.781,0.9077 -1.867,0.7164 -1.931,0.5175 -1.975,0.3127 -1.996,0.1047 -1.997,-0.1047 -1.974,-0.3127 -1.931,-0.5175 -1.867,-0.7164 -1.781,-0.9077 -1.677,-1.0888 -1.553,-1.2582 -1.414,-1.4137 -1.258,-1.5537 -1.089,-1.67667 -0.908,-1.78134 -0.716,-1.86645 -0.518,-1.93112 -0.146,-0.92112 h -0.271 v -3 h -38 v 1.10396 l 0.023,0.004 0.035,0.01 0.034,0.0131 0.033,0.0167 0.031,0.02 0.028,0.0231 0.026,0.0259 0.023,0.0285 0.02,0.0307 0.017,0.0326 0.013,0.0342 0.009,0.0353 0.006,0.0362 0.002,0.0366 -0.002,0.0366 -0.006,0.0362 -0.009,0.0354 -0.013,0.0342 -0.017,0.0326 -0.02,0.0307 -0.023,0.0285 -0.026,0.0259 -0.028,0.0231 -0.031,0.02 -0.033,0.0167 -0.034,0.0131 -0.035,0.01 -0.023,0.004 v 1.20398 h -0.271 l -0.146,0.92112 -0.518,1.93112 -0.716,1.86645 -0.908,1.78134 -1.089,1.67667 -1.258,1.5537 -1.414,1.4137 -1.553,1.2582 -1.677,1.0888 -1.781,0.9077 -1.867,0.7164 -1.931,0.5175 -1.975,0.3127 -1.996,0.1047 -1.997,-0.1047 -1.974,-0.3127 -1.931,-0.5175 -1.867,-0.7164 -1.781,-0.9077 -1.676997,-1.0888 -1.553,-1.2582 -1.414,-1.4137 -1.256,-1.5537 -1.09,-1.67667 -0.91,-1.78134 -0.72,-1.86645 -0.51,-1.93112 -0.15,-0.92112 h -0.27 v -3 h -38 v 1.10396 l 0.02,0.004 0.04,0.01 0.03,0.0131 0.04,0.0166 0.03,0.0199 0.02,0.0231 0.03,0.0259 0.02,0.0285 0.02,0.0307 0.02,0.0326 0.01,0.0343 0.01,0.0353 0.01,0.0362 v 0.0366 0.0366 l -0.01,0.0362 -0.01,0.0353 -0.01,0.0343 -0.02,0.0326 -0.02,0.0307 -0.02,0.0285 -0.03,0.0259 -0.02,0.0231 -0.03,0.0199 -0.04,0.0166 -0.03,0.0131 -0.04,0.01 -0.02,0.004 v 1.20398 h -0.27 l -0.15,0.92112 -0.51,1.93112 -0.72,1.86645 -0.91,1.78134 -1.09,1.67667 -1.26,1.5537 -1.41,1.4137 -1.55,1.2582 -1.68,1.0888 -1.78,0.9077 -1.87,0.7164 -1.93,0.5175 -1.97,0.3127 -2,0.1047 z m 182.974997,-217.702393 0.124,-0.019 0.122,-0.033 0.117,-0.045 0.112,-0.057 0.105,-0.068 0.098,-0.079 0.089,-0.089 0.079,-0.098 0.068,-0.105 0.057,-0.112 0.045,-0.117 0.033,-0.121 0.019,-0.125 0.007,-0.125 -0.007,-0.125 -0.019,-0.125 -0.033,-0.121 -0.045,-0.117 -0.057,-0.112 -0.068,-0.105 -0.079,-0.098 -0.089,-0.089 -0.098,-0.079 -0.105,-0.068 -0.112,-0.057 -0.117,-0.045 -0.122,-0.033 -0.124,-0.019 -0.125,-0.007 -0.125,0.007 -0.124,0.019 -0.122,0.033 -0.117,0.045 -0.112,0.057 -0.105,0.068 -0.098,0.079 -0.089,0.089 -0.079,0.098 -0.068,0.105 -0.057,0.112 -0.045,0.117 -0.033,0.121 -0.019,0.125 -0.007,0.125 0.007,0.125 0.019,0.125 0.033,0.121 0.045,0.117 0.057,0.112 0.068,0.105 0.079,0.098 0.089,0.089 0.098,0.079 0.105,0.068 0.112,0.057 0.117,0.045 0.122,0.033 0.124,0.019 0.125,0.007 z m -95,0 0.124,-0.019 0.122,-0.033 0.117,-0.045 0.112,-0.057 0.105,-0.068 0.098,-0.079 0.089,-0.089 0.079,-0.098 0.068,-0.105 0.057,-0.112 0.045,-0.117 0.033,-0.121 0.019,-0.125 0.007,-0.125 -0.007,-0.125 -0.019,-0.125 -0.033,-0.121 -0.045,-0.117 -0.057,-0.112 -0.068,-0.105 -0.079,-0.098 -0.089,-0.089 -0.098,-0.079 -0.105,-0.068 -0.112,-0.057 -0.117,-0.045 -0.122,-0.033 -0.124,-0.019 -0.125,-0.007 -0.125,0.007 -0.124,0.019 -0.122,0.033 -0.117,0.045 -0.112,0.057 -0.105,0.068 -0.098,0.079 -0.089,0.089 -0.079,0.098 -0.068,0.105 -0.057,0.112 -0.045,0.117 -0.033,0.121 -0.019,0.125 -0.007,0.125 0.007,0.125 0.019,0.125 0.033,0.121 0.045,0.117 0.057,0.112 0.068,0.105 0.079,0.098 0.089,0.089 0.098,0.079 0.105,0.068 0.112,0.057 0.117,0.045 0.122,0.033 0.124,0.019 0.125,0.007 z m 92.325,91.256993 v -89.899993 h -89.9 v 89.899993 z m 2.675,3.743 0.124,-0.019 0.122,-0.033 0.117,-0.045 0.112,-0.057 0.105,-0.068 0.098,-0.079 0.089,-0.089 0.079,-0.098 0.068,-0.105 0.057,-0.112 0.045,-0.117 0.033,-0.121 0.019,-0.125 0.007,-0.125 -0.007,-0.125 -0.019,-0.125 -0.033,-0.121 -0.045,-0.117 -0.057,-0.112 -0.068,-0.105 -0.079,-0.098 -0.089,-0.089 -0.098,-0.079 -0.105,-0.068 -0.112,-0.057 -0.117,-0.045 -0.122,-0.033 -0.124,-0.019 -0.125,-0.007 -0.125,0.007 -0.124,0.019 -0.122,0.033 -0.117,0.045 -0.112,0.057 -0.105,0.068 -0.098,0.079 -0.089,0.089 -0.079,0.098 -0.068,0.105 -0.057,0.112 -0.045,0.117 -0.033,0.121 -0.019,0.125 -0.007,0.125 0.007,0.125 0.019,0.125 0.033,0.121 0.045,0.117 0.057,0.112 0.068,0.105 0.079,0.098 0.089,0.089 0.098,0.079 0.105,0.068 0.112,0.057 0.117,0.045 0.122,0.033 0.124,0.019 0.125,0.007 z m -95,0 0.124,-0.019 0.122,-0.033 0.117,-0.045 0.112,-0.057 0.105,-0.068 0.098,-0.079 0.089,-0.089 0.079,-0.098 0.068,-0.105 0.057,-0.112 0.045,-0.117 0.033,-0.121 0.019,-0.125 0.007,-0.125 -0.007,-0.125 -0.019,-0.125 -0.033,-0.121 -0.045,-0.117 -0.057,-0.112 -0.068,-0.105 -0.079,-0.098 -0.089,-0.089 -0.098,-0.079 -0.105,-0.068 -0.112,-0.057 -0.117,-0.045 -0.122,-0.033 -0.124,-0.019 -0.125,-0.007 -0.125,0.007 -0.124,0.019 -0.122,0.033 -0.117,0.045 -0.112,0.057 -0.105,0.068 -0.098,0.079 -0.089,0.089 -0.079,0.098 -0.068,0.105 -0.057,0.112 -0.045,0.117 -0.033,0.121 -0.019,0.125 -0.007,0.125 0.007,0.125 0.019,0.125 0.033,0.121 0.045,0.117 0.057,0.112 0.068,0.105 0.079,0.098 0.089,0.089 0.098,0.079 0.105,0.068 0.112,0.057 0.117,0.045 0.122,0.033 0.124,0.019 0.125,0.007 z"
     fill="none"
     stroke="#0000ff"
     stroke-width="0.1"
     id="path12" />
  <path
     d="m 26.218069,-24.111932 h 14.009 l -1.25,5.824 h 2.825 l 3.049,-14.372 h -2.824 l -1.222,5.696 h -14.01 l 1.223,-5.696 h -2.881 l -3.049,14.372 h 2.88 z m 60.997,-5.8216 0.935,0.053 0.991,0.0819 1.004,0.1084 1.016,0.1348 1.03,0.1613 1.043,0.1879 1.055,0.2141 1.119,0.2521 0.604,-2.8236 -1.27,-0.2647 -1.218,-0.2206 -1.215,-0.1867 -1.212,-0.1527 -1.208,-0.1188 -1.204,-0.0849 -1.201,-0.0509 -1.198,-0.017 -1.202,0.017 -1.214,0.0509 -1.226,0.0849 -1.239,0.1187 -1.25,0.1528 -1.263,0.1866 -1.274,0.2206 -1.319,0.2608 -0.606,2.8322 1.268,-0.2626 1.162,-0.2187 1.131,-0.1904 1.102,-0.1623 1.07,-0.1339 1.04,-0.1058 1.009,-0.0775 0.916,-0.0461 -2.472,11.6448 h 2.825 z m -24.588,11.628 1.214,-0.053 1.226,-0.0883 1.239,-0.1237 1.25,-0.1589 1.263,-0.1942 1.275,-0.2296 1.318,-0.2713 2.572,-12.0805 -1.263,-0.2788 -1.213,-0.2324 -1.21,-0.1967 -1.208,-0.1609 -1.205,-0.1252 -1.202,-0.0894 -1.2,-0.0536 -1.197,-0.0179 -1.203,0.0179 -1.215,0.0536 -1.229,0.0894 -1.241,0.1252 -1.254,0.1609 -1.268,0.1966 -1.28,0.2324 -1.324,0.2747 -2.574,12.123 1.271,0.2651 1.218,0.2211 1.215,0.187 1.211,0.1531 1.208,0.119 1.205,0.085 1.201,0.051 1.198,0.017 z m -1.394,-2.7173 -0.866,-0.0324 -0.877,-0.0543 -0.887,-0.0759 -0.896,-0.0976 -0.905,-0.1193 -0.916,-0.1411 -0.874,-0.1537 1.622,-7.5611 0.92,-0.1547 0.932,-0.1387 0.91,-0.1174 0.888,-0.0961 0.867,-0.0748 0.844,-0.0533 0.823,-0.032 0.802,-0.0107 0.858,0.0111 0.865,0.0332 0.875,0.0554 0.883,0.0775 0.893,0.0998 0.9,0.1219 0.909,0.144 0.868,0.1571 -1.593,7.5563 -0.921,0.1523 -0.931,0.1367 -0.911,0.1158 -0.887,0.0946 -0.867,0.0737 -0.845,0.0525 -0.822,0.0316 -0.802,0.0105 z m 65.521001,12.6413002 -0.884,0.0222 -0.787,0.0264 -0.755,0.0321 -0.722,0.0377 -0.689,0.0436 -0.656,0.0492 -0.623,0.055 -0.626,0.0644 -0.3,1.4195 0.588,-0.0667 0.522,-0.0526 0.527,-0.0465 0.53,-0.0403 0.535,-0.0341 0.537,-0.028 0.543,-0.0217 0.483,-0.0138 -1.222,5.8232 h 1.464 z m 38.67,0 -0.884,0.0222 -0.788,0.0264 -0.754,0.0321 -0.722,0.0377 -0.689,0.0436 -0.656,0.0492 -0.623,0.055 -0.626,0.0644 -0.3,1.4195 0.588,-0.0667 0.522,-0.0526 0.527,-0.0465 0.53,-0.0403 0.535,-0.0341 0.537,-0.028 0.543,-0.0217 0.483,-0.0138 -1.222,5.8232 h 1.463 z m 13.546,1.7436 -0.244,1.138 h -8.445 l -0.81,3.8293 0.64,0.1389 0.593,0.1114 0.593,0.0942 0.595,0.0771 0.596,0.06 0.596,0.0428 0.598,0.0257 0.598,0.0086 0.603,-0.0091 0.612,-0.0273 0.62,-0.0456 0.629,-0.0638 0.638,-0.082 0.646,-0.1002 0.655,-0.1185 0.695,-0.1431 0.315,-1.4684 -0.774,0.1555 -0.682,0.1217 -0.665,0.1029 -0.648,0.0842 -0.631,0.0655 -0.613,0.0468 -0.597,0.0281 -0.58,0.0093 -0.398,-0.005 -0.404,-0.015 -0.412,-0.025 -0.417,-0.035 -0.424,-0.045 -0.43,-0.0551 -0.437,-0.065 -0.394,-0.0666 0.245,-1.1883 h 8.444 l 0.797,-3.7683 -0.637,-0.1382 -0.59,-0.1108 -0.591,-0.0937 -0.593,-0.0767 -0.594,-0.0596 -0.595,-0.0426 -0.597,-0.0256 -0.598,-0.0085 -0.603,0.009 -0.613,0.0268 -0.621,0.0448 -0.631,0.0627 -0.639,0.0806 -0.649,0.0985 -0.658,0.1164 -0.698,0.1407 -0.315,1.4682 0.777,-0.1528 0.685,-0.1196 0.667,-0.1013 0.65,-0.0828 0.632,-0.0644 0.616,-0.046 0.597,-0.0276 0.579,-0.0092 0.396,0.0048 0.402,0.0143 0.41,0.024 0.416,0.0334 0.425,0.0431 0.433,0.0527 0.438,0.0622 z m 24.23,-0.1992 0.386,0.0358 0.216,0.0231 -8.776,4.4171 0.421,1.2702 10.351,-5.2913 0.307,-1.4414 -0.66,-0.1381 -0.61,-0.111 -0.608,-0.0938 -0.607,-0.0768 -0.604,-0.0598 -0.603,-0.0427 -0.602,-0.0256 -0.599,-0.0085 -0.602,0.0085 -0.608,0.0254 -0.613,0.0425 -0.62,0.0594 -0.626,0.0764 -0.632,0.0933 -0.638,0.1103 -0.675,0.1335 -0.315,1.469 0.762,-0.1456 0.666,-0.1137 0.646,-0.0963 0.625,-0.0788 0.605,-0.0612 0.585,-0.0437 0.563,-0.0263 0.544,-0.0087 0.388,0.0028 0.387,0.0082 0.387,0.0137 0.387,0.0192 0.386,0.0247 z m -62.9,0.1992 -0.243,1.138 h -8.446 l -0.81,3.8293 0.64,0.1389 0.593,0.1114 0.594,0.0942 0.594,0.0771 0.596,0.06 0.596,0.0428 0.598,0.0257 0.598,0.0086 0.603,-0.0091 0.612,-0.0273 0.62,-0.0456 0.629,-0.0638 0.638,-0.082 0.646,-0.1002 0.655,-0.1185 0.695,-0.1431 0.315,-1.4684 -0.774,0.1555 -0.682,0.1217 -0.665,0.1029 -0.647,0.0842 -0.631,0.0655 -0.614,0.0468 -0.597,0.0281 -0.58,0.0093 -0.398,-0.005 -0.404,-0.015 -0.411,-0.025 -0.418,-0.035 -0.424,-0.045 -0.43,-0.0551 -0.437,-0.065 -0.394,-0.0666 0.245,-1.1883 h 8.445 l 0.796,-3.7683 -0.637,-0.1382 -0.59,-0.1108 -0.591,-0.0937 -0.593,-0.0767 -0.594,-0.0596 -0.595,-0.0426 -0.597,-0.0256 -0.598,-0.0085 -0.603,0.009 -0.613,0.0268 -0.621,0.0448 -0.631,0.0627 -0.639,0.0806 -0.649,0.0985 -0.658,0.1164 -0.698,0.1407 -0.315,1.4682 0.777,-0.1528 0.685,-0.1196 0.667,-0.1013 0.65,-0.0828 0.632,-0.0644 0.616,-0.046 0.597,-0.0276 0.58,-0.0092 0.395,0.0048 0.402,0.0143 0.41,0.024 0.416,0.0334 0.425,0.0431 0.433,0.0527 0.438,0.0622 z m 47.728,3.0365 3.747,2.9561 1.052,-1.1961 -3.318,-2.6314 4.505,-2.6542 -0.571,-1.2088 -5.045,2.9764 -3.802,-3.0057 -1.081,1.1963 3.402,2.6834 -4.45,2.6832 0.557,1.1581 z m -38.67,0 3.747,2.9561 1.052,-1.1961 -3.318,-2.6314 4.505,-2.6542 -0.571,-1.2088 -5.045,2.9764 -3.802,-3.0057 -1.081,1.1963 3.402,2.6834 -4.45,2.6832 0.557,1.1581 z m -88.603001,15.2958498 1.214,-0.05297 1.226,-0.08832 1.239,-0.12361 1.25,-0.15894 1.263,-0.19424 1.274,-0.22956 1.319,-0.27131 2.572,-12.0804998 -1.263,-0.2788 -1.213,-0.2324 -1.21,-0.1967 -1.208,-0.1609 -1.205,-0.1252 -1.202,-0.0894 -1.2,-0.0536 -1.197,-0.0179 -1.203,0.0179 -1.215,0.0536 -1.229,0.0894 -1.241,0.1252 -1.254,0.1609 -1.268,0.1966 -1.28,0.2324 -1.324,0.2747 -2.574,12.1229998 1.271,0.26515 1.218,0.22104 1.215,0.18702 1.211,0.15305 1.208,0.119 1.205,0.08504 1.201,0.05101 1.198,0.017 z m -1.394,-2.7171998 -0.866,-0.03249 -0.877,-0.05426 -0.887,-0.0759 -0.896,-0.09764 -0.905,-0.11928 -0.916,-0.1411 -0.874,-0.15373 1.621,-7.56105 0.921,-0.1547 0.932,-0.1387 0.91,-0.1174 0.888,-0.0961 0.867,-0.0748 0.844,-0.0533 0.823,-0.032 0.802,-0.0107 0.857,0.0111 0.866,0.0332 0.875,0.0554 0.882,0.0775 0.893,0.0998 0.901,0.1219 0.909,0.144 0.868,0.1571 -1.593,7.55625 -0.921,0.15235 -0.931,0.1367 -0.911,0.11582 -0.887,0.0946 -0.867,0.07365 -0.845,0.05257 -0.823,0.03153 -0.801,0.01052 z m -23.884,2.7241798 1.409,-0.03211 1.353,-0.05346 1.296,-0.07488 1.24,-0.09625 1.184,-0.11768 1.128,-0.13908 1.105,-0.16554 1.267,-5.9705298 -2.582,-0.5101 2.815,-0.4589 1.296,-6.2311 -1.074,-0.1248 -1.086,-0.1026 -1.152,-0.0869 -1.217,-0.0711 -1.284,-0.0553 -1.35,-0.0394 -1.415,-0.0237 -1.482,-0.0079 -1.636,0.0105 -1.603,0.0315 -1.569,0.0524 -1.535,0.0734 -1.501,0.0944 -1.468,0.1154 -1.433,0.1364 -1.436,0.1614 -0.52,2.4846 h 1.583 l -1.672,7.81549 -1.529,-0.05601 -0.518,2.5993898 1.41,0.20574 1.395,0.17177 1.43,0.14534 1.466,0.11892 1.502,0.09247 1.536,0.06606 1.573,0.03962 1.608,0.01322 z m 6.1,-11.4388298 1.044,0.0948 0.996,0.1037 -0.342,1.5596 -1.12,0.2331 -1.111,0.2077 -1.068,0.1756 -1.027,0.1436 -0.985,0.1118 -0.943,0.0798 -0.901,0.0479 -0.859,0.0159 h -7.188 l 0.59,-2.689 0.757,-0.0785 0.81,-0.0712 0.828,-0.0603 0.844,-0.0493 0.863,-0.0384 0.88,-0.0274 0.896,-0.0164 0.915,-0.0054999978 1.003,0.0072999978 1.009,0.0219 1.017,0.0364 1.024,0.0511 1.03,0.0656 z m -8.77,8.7186 -0.909,-0.02071 -0.888,-0.03447 -0.87,-0.04832 -0.851,-0.06209 -0.831,-0.07585 -0.813,-0.08972 -0.739,-0.09644 0.59,-2.6655 h 7.209 l 0.773,0.0186 0.821,0.05567 0.87,0.09286 0.918,0.12998 0.968,0.16734 1.015,0.20427 1.065,0.24179 1.068,0.26744 -0.289,1.44538 -0.985,0.10867 -1.023,0.09765 -1.023,0.08257 -1.027,0.06761 -1.028,0.05258 -1.03,0.03756 -1.031,0.02252 -1.033,0.00752 z m 51.548,-2.22173 7.483,5.8672798 2.037,-2.33949 -6.649,-5.2151598 9.03,-5.2968 -1.097,-2.3854 -10.074,5.9428 -7.593,-5.9568 -2.095,2.3315 6.817,5.3617 -8.919,5.2428498 1.069,2.31723 z m 40.875001,7.1234898 0.705,-0.0155 0.677,-0.02582 0.648,-0.03613 0.621,-0.0465 0.592,-0.05682 0.565,-0.06717 0.57,-0.08244 0.313,-1.52272 -0.754,0.10464 -0.684,0.08206 -0.685,0.06951 -0.687,0.05694 -0.687,0.04424 -0.687,0.03155 -0.689,0.01897 -0.69,0.0063 -0.464,-0.0034 -0.453,-0.0103 -0.443,-0.01712 -0.436,-0.02406 -0.424,-0.03087 -0.415,-0.03769 -0.406,-0.04456 -0.342,-0.04452 0.284,-1.28745 h 6.737 l 0.298,-1.4439998 h -6.736 l 0.273,-1.30839 0.367,-0.0418 0.413,-0.03978 0.42,-0.03358 0.431,-0.02751 0.439,-0.02141 0.449,-0.0153 0.458,-0.00916 0.467,-0.00307 0.689,0.00586 0.686,0.01755 0.684,0.02927 0.681,0.04097 0.678,0.05265 0.676,0.06438 0.673,0.07607 0.716,0.09385 0.313,-1.49888 -0.564,-0.06621 -0.544,-0.05188 -0.576,-0.0439 -0.609,-0.03592 -0.643,-0.02792 -0.675,-0.01993 -0.708,-0.01196 -0.741,-0.004 -0.776,0.00416 -0.744,0.01249 -0.712,0.02079 -0.68,0.02913 -0.648,0.03745 -0.615,0.04577 -0.584,0.05413 -0.587,0.06642 -0.182,0.8235 -0.014,0.00307 -1.02,4.8391098 h 0.014 l -0.206,0.99074 0.584,0.08586 0.565,0.06779 0.598,0.05734 0.632,0.04691 0.665,0.03647 0.699,0.02603 0.732,0.01564 0.765,0.0052 z m 12.588,-0.0042 0.608,-0.02801 0.614,-0.04667 0.62,-0.06533 0.625,-0.084 0.632,-0.10266 0.638,-0.12131 0.675,-0.1467 1.295,-6.1086298 -0.656,-0.13794 -0.607,-0.11075 -0.606,-0.09368 -0.605,-0.07668 -0.603,-0.05963 -0.602,-0.0426 -0.601,-0.02558 -0.599,-0.00851 h -4.862 l -0.957,0.06051 -0.27,1.27471 0.903,0.04199 -0.951,4.4467898 h -0.834 l -0.283,1.36582 0.877,0.07818 h 4.947 z m -2.895,-5.8786798 h 1.152 l 0.557,0.015 0.478,0.013 0.399,0.01097 0.319,0.00901 0.24,0.007 0.16,0.00501 0.069,0.00251 0.002,0.00135 0.442,0.00521 0.433,0.01511 0.436,0.02515 0.441,0.03521 0.446,0.04537 0.45,0.05536 0.454,0.06544 0.407,0.06714 -0.787,3.7344198 -0.443,0.07363 -0.466,0.06852 -0.454,0.05788 -0.444,0.04742 -0.433,0.03693 -0.421,0.02631 -0.411,0.01577 -0.401,0.0053 h -3.576 z m 15.102,5.8788898 0.608,-0.02734 0.614,-0.04558 0.619,-0.06379 0.626,-0.08204 0.632,-0.10022 0.638,-0.11846 0.675,-0.14327 0.811,-3.7981898 h -8.444 l 0.244,-1.13176 0.442,-0.06739 0.466,-0.06279 0.455,-0.05329 0.443,-0.04342 0.434,-0.03389 0.421,-0.0241 0.411,-0.01451 0.4,-0.00484 0.576,0.00919 0.584,0.02757 0.594,0.04601 0.601,0.06436 0.611,0.08278 0.619,0.10121 0.629,0.11966 0.686,0.14873 0.312,-1.48102 -0.656,-0.13968 -0.607,-0.11217 -0.606,-0.09491 -0.605,-0.07767 -0.603,-0.0604 -0.602,-0.04316 -0.601,-0.02588 -0.599,-0.00863 -0.602,0.00896 -0.608,0.02687 -0.615,0.0448 -0.622,0.06269 -0.627,0.08062 -0.635,0.09851 -0.64,0.11641 -0.679,0.14082 -0.798,3.7443198 h 8.446 l -0.245,1.18305 -0.442,0.07014 -0.466,0.06554 -0.455,0.05542 -0.444,0.04532 -0.432,0.03523 -0.422,0.02516 -0.411,0.01509 -0.4,0.0051 -0.576,-0.0094 -0.585,-0.02811 -0.594,-0.04684 -0.604,-0.06561 -0.612,-0.08425 -0.622,-0.10318 -0.631,-0.12178 -0.689,-0.15149 -0.313,1.46062 0.659,0.14735 0.61,0.1185 0.609,0.10025 0.606,0.08205 0.605,0.06381 0.603,0.04558 0.601,0.02734 0.6,0.0091 z"
     fill="#000000"
     stroke="none"
     stroke-width="0.5"
     id="path14" />
</svg>
