  0
SECTION
  2
BLOCKS
  0
ENDSEC
  0
SECTION
  2
ENTITIES
  0
LINE
  8
0
 10
59.2667
 20
0
 11
88.9
 21
0
  0
LINE
  8
0
 10
88.9
 20
0
 11
88.9
 21
-1.2
  0
LINE
  8
0
 10
88.9
 20
-1.2
 11
88.8686
 21
-1.20163
  0
LINE
  8
0
 10
88.8686
 20
-1.20163
 11
88.8376
 21
-1.20654
  0
LINE
  8
0
 10
88.8376
 20
-1.20654
 11
88.8073
 21
-1.21468
  0
LINE
  8
0
 10
88.8073
 20
-1.21468
 11
88.778
 21
-1.22592
  0
LINE
  8
0
 10
88.778
 20
-1.22592
 11
88.75
 21
-1.24019
  0
LINE
  8
0
 10
88.75
 20
-1.24019
 11
88.7237
 21
-1.25729
  0
LINE
  8
0
 10
88.7237
 20
-1.25729
 11
88.6993
 21
-1.27705
  0
LINE
  8
0
 10
88.6993
 20
-1.27705
 11
88.677
 21
-1.29926
  0
LINE
  8
0
 10
88.677
 20
-1.29926
 11
88.6573
 21
-1.32365
  0
LINE
  8
0
 10
88.6573
 20
-1.32365
 11
88.6402
 21
-1.34999
  0
LINE
  8
0
 10
88.6402
 20
-1.34999
 11
88.6259
 21
-1.37798
  0
LINE
  8
0
 10
88.6259
 20
-1.37798
 11
88.6147
 21
-1.40729
  0
LINE
  8
0
 10
88.6147
 20
-1.40729
 11
88.6066
 21
-1.43762
  0
LINE
  8
0
 10
88.6066
 20
-1.43762
 11
88.6016
 21
-1.46863
  0
LINE
  8
0
 10
88.6016
 20
-1.46863
 11
88.6
 21
-1.5
  0
LINE
  8
0
 10
88.6
 20
-1.5
 11
88.6016
 21
-1.53136
  0
LINE
  8
0
 10
88.6016
 20
-1.53136
 11
88.6066
 21
-1.56236
  0
LINE
  8
0
 10
88.6066
 20
-1.56236
 11
88.6147
 21
-1.5927
  0
LINE
  8
0
 10
88.6147
 20
-1.5927
 11
88.6259
 21
-1.62201
  0
LINE
  8
0
 10
88.6259
 20
-1.62201
 11
88.6402
 21
-1.64999
  0
LINE
  8
0
 10
88.6402
 20
-1.64999
 11
88.6573
 21
-1.67633
  0
LINE
  8
0
 10
88.6573
 20
-1.67633
 11
88.677
 21
-1.70073
  0
LINE
  8
0
 10
88.677
 20
-1.70073
 11
88.6993
 21
-1.72293
  0
LINE
  8
0
 10
88.6993
 20
-1.72293
 11
88.7237
 21
-1.74269
  0
LINE
  8
0
 10
88.7237
 20
-1.74269
 11
88.75
 21
-1.7598
  0
LINE
  8
0
 10
88.75
 20
-1.7598
 11
88.778
 21
-1.77406
  0
LINE
  8
0
 10
88.778
 20
-1.77406
 11
88.8073
 21
-1.78531
  0
LINE
  8
0
 10
88.8073
 20
-1.78531
 11
88.8376
 21
-1.79344
  0
LINE
  8
0
 10
88.8376
 20
-1.79344
 11
88.8686
 21
-1.79836
  0
LINE
  8
0
 10
88.8686
 20
-1.79836
 11
88.9
 21
-1.79999
  0
LINE
  8
0
 10
88.9
 20
-1.79999
 11
88.9
 21
-3
  0
LINE
  8
0
 10
88.9
 20
-3
 11
118.533
 21
-3
  0
LINE
  8
0
 10
118.533
 20
-3
 11
118.533
 21
0
  0
LINE
  8
0
 10
118.533
 20
0
 11
148.167
 21
0
  0
LINE
  8
0
 10
148.167
 20
0
 11
148.167
 21
-1.2
  0
LINE
  8
0
 10
148.167
 20
-1.2
 11
148.135
 21
-1.20163
  0
LINE
  8
0
 10
148.135
 20
-1.20163
 11
148.104
 21
-1.20654
  0
LINE
  8
0
 10
148.104
 20
-1.20654
 11
148.074
 21
-1.21468
  0
LINE
  8
0
 10
148.074
 20
-1.21468
 11
148.045
 21
-1.22592
  0
LINE
  8
0
 10
148.045
 20
-1.22592
 11
148.017
 21
-1.24019
  0
LINE
  8
0
 10
148.017
 20
-1.24019
 11
147.99
 21
-1.25729
  0
LINE
  8
0
 10
147.99
 20
-1.25729
 11
147.966
 21
-1.27705
  0
LINE
  8
0
 10
147.966
 20
-1.27705
 11
147.944
 21
-1.29926
  0
LINE
  8
0
 10
147.944
 20
-1.29926
 11
147.924
 21
-1.32365
  0
LINE
  8
0
 10
147.924
 20
-1.32365
 11
147.907
 21
-1.34999
  0
LINE
  8
0
 10
147.907
 20
-1.34999
 11
147.893
 21
-1.37798
  0
LINE
  8
0
 10
147.893
 20
-1.37798
 11
147.881
 21
-1.40729
  0
LINE
  8
0
 10
147.881
 20
-1.40729
 11
147.873
 21
-1.43762
  0
LINE
  8
0
 10
147.873
 20
-1.43762
 11
147.868
 21
-1.46863
  0
LINE
  8
0
 10
147.868
 20
-1.46863
 11
147.867
 21
-1.5
  0
LINE
  8
0
 10
147.867
 20
-1.5
 11
147.868
 21
-1.53136
  0
LINE
  8
0
 10
147.868
 20
-1.53136
 11
147.873
 21
-1.56236
  0
LINE
  8
0
 10
147.873
 20
-1.56236
 11
147.881
 21
-1.5927
  0
LINE
  8
0
 10
147.881
 20
-1.5927
 11
147.893
 21
-1.62201
  0
LINE
  8
0
 10
147.893
 20
-1.62201
 11
147.907
 21
-1.64999
  0
LINE
  8
0
 10
147.907
 20
-1.64999
 11
147.924
 21
-1.67633
  0
LINE
  8
0
 10
147.924
 20
-1.67633
 11
147.944
 21
-1.70073
  0
LINE
  8
0
 10
147.944
 20
-1.70073
 11
147.966
 21
-1.72293
  0
LINE
  8
0
 10
147.966
 20
-1.72293
 11
147.99
 21
-1.74269
  0
LINE
  8
0
 10
147.99
 20
-1.74269
 11
148.017
 21
-1.7598
  0
LINE
  8
0
 10
148.017
 20
-1.7598
 11
148.045
 21
-1.77406
  0
LINE
  8
0
 10
148.045
 20
-1.77406
 11
148.074
 21
-1.78531
  0
LINE
  8
0
 10
148.074
 20
-1.78531
 11
148.104
 21
-1.79344
  0
LINE
  8
0
 10
148.104
 20
-1.79344
 11
148.135
 21
-1.79836
  0
LINE
  8
0
 10
148.135
 20
-1.79836
 11
148.167
 21
-1.79999
  0
LINE
  8
0
 10
148.167
 20
-1.79999
 11
148.167
 21
-3
  0
LINE
  8
0
 10
148.167
 20
-3
 11
177.8
 21
-3
  0
LINE
  8
0
 10
177.8
 20
-3
 11
177.8
 21
304.8
  0
LINE
  8
0
 10
177.8
 20
304.8
 11
148.167
 21
304.8
  0
LINE
  8
0
 10
148.167
 20
304.8
 11
148.167
 21
307.8
  0
LINE
  8
0
 10
148.167
 20
307.8
 11
118.533
 21
307.8
  0
LINE
  8
0
 10
118.533
 20
307.8
 11
118.533
 21
304.8
  0
LINE
  8
0
 10
118.533
 20
304.8
 11
88.9
 21
304.8
  0
LINE
  8
0
 10
88.9
 20
304.8
 11
88.9
 21
307.8
  0
LINE
  8
0
 10
88.9
 20
307.8
 11
59.2667
 21
307.8
  0
LINE
  8
0
 10
59.2667
 20
307.8
 11
59.2667
 21
304.8
  0
LINE
  8
0
 10
59.2667
 20
304.8
 11
29.6333
 21
304.8
  0
LINE
  8
0
 10
29.6333
 20
304.8
 11
29.6333
 21
307.8
  0
LINE
  8
0
 10
29.6333
 20
307.8
 11
0
 21
307.8
  0
LINE
  8
0
 10
0
 20
307.8
 11
0
 21
266.7
  0
LINE
  8
0
 10
0
 20
266.7
 11
-3
 21
266.7
  0
LINE
  8
0
 10
-3
 20
266.7
 11
-3
 21
228.6
  0
LINE
  8
0
 10
-3
 20
228.6
 11
0
 21
228.6
  0
LINE
  8
0
 10
0
 20
228.6
 11
0
 21
190.5
  0
LINE
  8
0
 10
0
 20
190.5
 11
-3
 21
190.5
  0
LINE
  8
0
 10
-3
 20
190.5
 11
-3
 21
152.4
  0
LINE
  8
0
 10
-3
 20
152.4
 11
0
 21
152.4
  0
LINE
  8
0
 10
0
 20
152.4
 11
0
 21
114.3
  0
LINE
  8
0
 10
0
 20
114.3
 11
-3
 21
114.3
  0
LINE
  8
0
 10
-3
 20
114.3
 11
-3
 21
76.2
  0
LINE
  8
0
 10
-3
 20
76.2
 11
0
 21
76.2
  0
LINE
  8
0
 10
0
 20
76.2
 11
0
 21
38.1
  0
LINE
  8
0
 10
0
 20
38.1
 11
-3
 21
38.1
  0
LINE
  8
0
 10
-3
 20
38.1
 11
-3
 21
0
  0
LINE
  8
0
 10
-3
 20
0
 11
29.6333
 21
0
  0
LINE
  8
0
 10
29.6333
 20
0
 11
29.6333
 21
-1.2
  0
LINE
  8
0
 10
29.6333
 20
-1.2
 11
29.602
 21
-1.20163
  0
LINE
  8
0
 10
29.602
 20
-1.20163
 11
29.571
 21
-1.20654
  0
LINE
  8
0
 10
29.571
 20
-1.20654
 11
29.5406
 21
-1.21468
  0
LINE
  8
0
 10
29.5406
 20
-1.21468
 11
29.5113
 21
-1.22592
  0
LINE
  8
0
 10
29.5113
 20
-1.22592
 11
29.4833
 21
-1.24019
  0
LINE
  8
0
 10
29.4833
 20
-1.24019
 11
29.457
 21
-1.25729
  0
LINE
  8
0
 10
29.457
 20
-1.25729
 11
29.4326
 21
-1.27705
  0
LINE
  8
0
 10
29.4326
 20
-1.27705
 11
29.4104
 21
-1.29926
  0
LINE
  8
0
 10
29.4104
 20
-1.29926
 11
29.3906
 21
-1.32365
  0
LINE
  8
0
 10
29.3906
 20
-1.32365
 11
29.3735
 21
-1.34999
  0
LINE
  8
0
 10
29.3735
 20
-1.34999
 11
29.3593
 21
-1.37798
  0
LINE
  8
0
 10
29.3593
 20
-1.37798
 11
29.348
 21
-1.40729
  0
LINE
  8
0
 10
29.348
 20
-1.40729
 11
29.3399
 21
-1.43762
  0
LINE
  8
0
 10
29.3399
 20
-1.43762
 11
29.335
 21
-1.46863
  0
LINE
  8
0
 10
29.335
 20
-1.46863
 11
29.3333
 21
-1.5
  0
LINE
  8
0
 10
29.3333
 20
-1.5
 11
29.335
 21
-1.53136
  0
LINE
  8
0
 10
29.335
 20
-1.53136
 11
29.3399
 21
-1.56236
  0
LINE
  8
0
 10
29.3399
 20
-1.56236
 11
29.348
 21
-1.5927
  0
LINE
  8
0
 10
29.348
 20
-1.5927
 11
29.3593
 21
-1.62201
  0
LINE
  8
0
 10
29.3593
 20
-1.62201
 11
29.3735
 21
-1.64999
  0
LINE
  8
0
 10
29.3735
 20
-1.64999
 11
29.3906
 21
-1.67633
  0
LINE
  8
0
 10
29.3906
 20
-1.67633
 11
29.4104
 21
-1.70073
  0
LINE
  8
0
 10
29.4104
 20
-1.70073
 11
29.4326
 21
-1.72293
  0
LINE
  8
0
 10
29.4326
 20
-1.72293
 11
29.457
 21
-1.74269
  0
LINE
  8
0
 10
29.457
 20
-1.74269
 11
29.4833
 21
-1.7598
  0
LINE
  8
0
 10
29.4833
 20
-1.7598
 11
29.5113
 21
-1.77406
  0
LINE
  8
0
 10
29.5113
 20
-1.77406
 11
29.5406
 21
-1.78531
  0
LINE
  8
0
 10
29.5406
 20
-1.78531
 11
29.571
 21
-1.79344
  0
LINE
  8
0
 10
29.571
 20
-1.79344
 11
29.602
 21
-1.79836
  0
LINE
  8
0
 10
29.602
 20
-1.79836
 11
29.6333
 21
-1.79999
  0
LINE
  8
0
 10
29.6333
 20
-1.79999
 11
29.6333
 21
-3
  0
LINE
  8
0
 10
29.6333
 20
-3
 11
59.2667
 21
-3
  0
LINE
  8
0
 10
59.2667
 20
-3
 11
59.2667
 21
0
  0
LINE
  8
0
 10
601.967
 20
0
 11
631.6
 21
0
  0
LINE
  8
0
 10
631.6
 20
0
 11
631.6
 21
-1.2
  0
LINE
  8
0
 10
631.6
 20
-1.2
 11
631.569
 21
-1.20163
  0
LINE
  8
0
 10
631.569
 20
-1.20163
 11
631.538
 21
-1.20654
  0
LINE
  8
0
 10
631.538
 20
-1.20654
 11
631.507
 21
-1.21468
  0
LINE
  8
0
 10
631.507
 20
-1.21468
 11
631.478
 21
-1.22592
  0
LINE
  8
0
 10
631.478
 20
-1.22592
 11
631.45
 21
-1.24019
  0
LINE
  8
0
 10
631.45
 20
-1.24019
 11
631.424
 21
-1.25729
  0
LINE
  8
0
 10
631.424
 20
-1.25729
 11
631.399
 21
-1.27705
  0
LINE
  8
0
 10
631.399
 20
-1.27705
 11
631.377
 21
-1.29926
  0
LINE
  8
0
 10
631.377
 20
-1.29926
 11
631.357
 21
-1.32365
  0
LINE
  8
0
 10
631.357
 20
-1.32365
 11
631.34
 21
-1.34999
  0
LINE
  8
0
 10
631.34
 20
-1.34999
 11
631.326
 21
-1.37798
  0
LINE
  8
0
 10
631.326
 20
-1.37798
 11
631.315
 21
-1.40729
  0
LINE
  8
0
 10
631.315
 20
-1.40729
 11
631.307
 21
-1.43762
  0
LINE
  8
0
 10
631.307
 20
-1.43762
 11
631.302
 21
-1.46863
  0
LINE
  8
0
 10
631.302
 20
-1.46863
 11
631.3
 21
-1.5
  0
LINE
  8
0
 10
631.3
 20
-1.5
 11
631.302
 21
-1.53136
  0
LINE
  8
0
 10
631.302
 20
-1.53136
 11
631.307
 21
-1.56236
  0
LINE
  8
0
 10
631.307
 20
-1.56236
 11
631.315
 21
-1.5927
  0
LINE
  8
0
 10
631.315
 20
-1.5927
 11
631.326
 21
-1.62201
  0
LINE
  8
0
 10
631.326
 20
-1.62201
 11
631.34
 21
-1.64999
  0
LINE
  8
0
 10
631.34
 20
-1.64999
 11
631.357
 21
-1.67633
  0
LINE
  8
0
 10
631.357
 20
-1.67633
 11
631.377
 21
-1.70073
  0
LINE
  8
0
 10
631.377
 20
-1.70073
 11
631.399
 21
-1.72293
  0
LINE
  8
0
 10
631.399
 20
-1.72293
 11
631.424
 21
-1.74269
  0
LINE
  8
0
 10
631.424
 20
-1.74269
 11
631.45
 21
-1.7598
  0
LINE
  8
0
 10
631.45
 20
-1.7598
 11
631.478
 21
-1.77406
  0
LINE
  8
0
 10
631.478
 20
-1.77406
 11
631.507
 21
-1.78531
  0
LINE
  8
0
 10
631.507
 20
-1.78531
 11
631.538
 21
-1.79344
  0
LINE
  8
0
 10
631.538
 20
-1.79344
 11
631.569
 21
-1.79836
  0
LINE
  8
0
 10
631.569
 20
-1.79836
 11
631.6
 21
-1.79999
  0
LINE
  8
0
 10
631.6
 20
-1.79999
 11
631.6
 21
-3
  0
LINE
  8
0
 10
631.6
 20
-3
 11
661.233
 21
-3
  0
LINE
  8
0
 10
661.233
 20
-3
 11
661.233
 21
0
  0
LINE
  8
0
 10
661.233
 20
0
 11
690.867
 21
0
  0
LINE
  8
0
 10
690.867
 20
0
 11
690.867
 21
-1.2
  0
LINE
  8
0
 10
690.867
 20
-1.2
 11
690.835
 21
-1.20163
  0
LINE
  8
0
 10
690.835
 20
-1.20163
 11
690.804
 21
-1.20654
  0
LINE
  8
0
 10
690.804
 20
-1.20654
 11
690.774
 21
-1.21468
  0
LINE
  8
0
 10
690.774
 20
-1.21468
 11
690.745
 21
-1.22592
  0
LINE
  8
0
 10
690.745
 20
-1.22592
 11
690.717
 21
-1.24019
  0
LINE
  8
0
 10
690.717
 20
-1.24019
 11
690.69
 21
-1.25729
  0
LINE
  8
0
 10
690.69
 20
-1.25729
 11
690.666
 21
-1.27705
  0
LINE
  8
0
 10
690.666
 20
-1.27705
 11
690.644
 21
-1.29926
  0
LINE
  8
0
 10
690.644
 20
-1.29926
 11
690.624
 21
-1.32365
  0
LINE
  8
0
 10
690.624
 20
-1.32365
 11
690.607
 21
-1.34999
  0
LINE
  8
0
 10
690.607
 20
-1.34999
 11
690.593
 21
-1.37798
  0
LINE
  8
0
 10
690.593
 20
-1.37798
 11
690.581
 21
-1.40729
  0
LINE
  8
0
 10
690.581
 20
-1.40729
 11
690.573
 21
-1.43762
  0
LINE
  8
0
 10
690.573
 20
-1.43762
 11
690.568
 21
-1.46863
  0
LINE
  8
0
 10
690.568
 20
-1.46863
 11
690.567
 21
-1.5
  0
LINE
  8
0
 10
690.567
 20
-1.5
 11
690.568
 21
-1.53136
  0
LINE
  8
0
 10
690.568
 20
-1.53136
 11
690.573
 21
-1.56236
  0
LINE
  8
0
 10
690.573
 20
-1.56236
 11
690.581
 21
-1.5927
  0
LINE
  8
0
 10
690.581
 20
-1.5927
 11
690.593
 21
-1.62201
  0
LINE
  8
0
 10
690.593
 20
-1.62201
 11
690.607
 21
-1.64999
  0
LINE
  8
0
 10
690.607
 20
-1.64999
 11
690.624
 21
-1.67633
  0
LINE
  8
0
 10
690.624
 20
-1.67633
 11
690.644
 21
-1.70073
  0
LINE
  8
0
 10
690.644
 20
-1.70073
 11
690.666
 21
-1.72293
  0
LINE
  8
0
 10
690.666
 20
-1.72293
 11
690.69
 21
-1.74269
  0
LINE
  8
0
 10
690.69
 20
-1.74269
 11
690.717
 21
-1.7598
  0
LINE
  8
0
 10
690.717
 20
-1.7598
 11
690.745
 21
-1.77406
  0
LINE
  8
0
 10
690.745
 20
-1.77406
 11
690.774
 21
-1.78531
  0
LINE
  8
0
 10
690.774
 20
-1.78531
 11
690.804
 21
-1.79344
  0
LINE
  8
0
 10
690.804
 20
-1.79344
 11
690.835
 21
-1.79836
  0
LINE
  8
0
 10
690.835
 20
-1.79836
 11
690.867
 21
-1.79999
  0
LINE
  8
0
 10
690.867
 20
-1.79999
 11
690.867
 21
-3
  0
LINE
  8
0
 10
690.867
 20
-3
 11
720.5
 21
-3
  0
LINE
  8
0
 10
720.5
 20
-3
 11
720.5
 21
304.8
  0
LINE
  8
0
 10
720.5
 20
304.8
 11
690.867
 21
304.8
  0
LINE
  8
0
 10
690.867
 20
304.8
 11
690.867
 21
307.8
  0
LINE
  8
0
 10
690.867
 20
307.8
 11
661.233
 21
307.8
  0
LINE
  8
0
 10
661.233
 20
307.8
 11
661.233
 21
304.8
  0
LINE
  8
0
 10
661.233
 20
304.8
 11
631.6
 21
304.8
  0
LINE
  8
0
 10
631.6
 20
304.8
 11
631.6
 21
307.8
  0
LINE
  8
0
 10
631.6
 20
307.8
 11
601.967
 21
307.8
  0
LINE
  8
0
 10
601.967
 20
307.8
 11
601.967
 21
304.8
  0
LINE
  8
0
 10
601.967
 20
304.8
 11
572.333
 21
304.8
  0
LINE
  8
0
 10
572.333
 20
304.8
 11
572.333
 21
307.8
  0
LINE
  8
0
 10
572.333
 20
307.8
 11
542.7
 21
307.8
  0
LINE
  8
0
 10
542.7
 20
307.8
 11
542.7
 21
266.7
  0
LINE
  8
0
 10
542.7
 20
266.7
 11
539.7
 21
266.7
  0
LINE
  8
0
 10
539.7
 20
266.7
 11
539.7
 21
228.6
  0
LINE
  8
0
 10
539.7
 20
228.6
 11
542.7
 21
228.6
  0
LINE
  8
0
 10
542.7
 20
228.6
 11
542.7
 21
190.5
  0
LINE
  8
0
 10
542.7
 20
190.5
 11
539.7
 21
190.5
  0
LINE
  8
0
 10
539.7
 20
190.5
 11
539.7
 21
152.4
  0
LINE
  8
0
 10
539.7
 20
152.4
 11
542.7
 21
152.4
  0
LINE
  8
0
 10
542.7
 20
152.4
 11
542.7
 21
114.3
  0
LINE
  8
0
 10
542.7
 20
114.3
 11
539.7
 21
114.3
  0
LINE
  8
0
 10
539.7
 20
114.3
 11
539.7
 21
76.2
  0
LINE
  8
0
 10
539.7
 20
76.2
 11
542.7
 21
76.2
  0
LINE
  8
0
 10
542.7
 20
76.2
 11
542.7
 21
38.1
  0
LINE
  8
0
 10
542.7
 20
38.1
 11
539.7
 21
38.1
  0
LINE
  8
0
 10
539.7
 20
38.1
 11
539.7
 21
0
  0
LINE
  8
0
 10
539.7
 20
0
 11
572.333
 21
0
  0
LINE
  8
0
 10
572.333
 20
0
 11
572.333
 21
-1.2
  0
LINE
  8
0
 10
572.333
 20
-1.2
 11
572.302
 21
-1.20163
  0
LINE
  8
0
 10
572.302
 20
-1.20163
 11
572.271
 21
-1.20654
  0
LINE
  8
0
 10
572.271
 20
-1.20654
 11
572.241
 21
-1.21468
  0
LINE
  8
0
 10
572.241
 20
-1.21468
 11
572.211
 21
-1.22592
  0
LINE
  8
0
 10
572.211
 20
-1.22592
 11
572.183
 21
-1.24019
  0
LINE
  8
0
 10
572.183
 20
-1.24019
 11
572.157
 21
-1.25729
  0
LINE
  8
0
 10
572.157
 20
-1.25729
 11
572.133
 21
-1.27705
  0
LINE
  8
0
 10
572.133
 20
-1.27705
 11
572.11
 21
-1.29926
  0
LINE
  8
0
 10
572.11
 20
-1.29926
 11
572.091
 21
-1.32365
  0
LINE
  8
0
 10
572.091
 20
-1.32365
 11
572.074
 21
-1.34999
  0
LINE
  8
0
 10
572.074
 20
-1.34999
 11
572.059
 21
-1.37798
  0
LINE
  8
0
 10
572.059
 20
-1.37798
 11
572.048
 21
-1.40729
  0
LINE
  8
0
 10
572.048
 20
-1.40729
 11
572.04
 21
-1.43762
  0
LINE
  8
0
 10
572.04
 20
-1.43762
 11
572.035
 21
-1.46863
  0
LINE
  8
0
 10
572.035
 20
-1.46863
 11
572.033
 21
-1.5
  0
LINE
  8
0
 10
572.033
 20
-1.5
 11
572.035
 21
-1.53136
  0
LINE
  8
0
 10
572.035
 20
-1.53136
 11
572.04
 21
-1.56236
  0
LINE
  8
0
 10
572.04
 20
-1.56236
 11
572.048
 21
-1.5927
  0
LINE
  8
0
 10
572.048
 20
-1.5927
 11
572.059
 21
-1.62201
  0
LINE
  8
0
 10
572.059
 20
-1.62201
 11
572.074
 21
-1.64999
  0
LINE
  8
0
 10
572.074
 20
-1.64999
 11
572.091
 21
-1.67633
  0
LINE
  8
0
 10
572.091
 20
-1.67633
 11
572.11
 21
-1.70073
  0
LINE
  8
0
 10
572.11
 20
-1.70073
 11
572.133
 21
-1.72293
  0
LINE
  8
0
 10
572.133
 20
-1.72293
 11
572.157
 21
-1.74269
  0
LINE
  8
0
 10
572.157
 20
-1.74269
 11
572.183
 21
-1.7598
  0
LINE
  8
0
 10
572.183
 20
-1.7598
 11
572.211
 21
-1.77406
  0
LINE
  8
0
 10
572.211
 20
-1.77406
 11
572.241
 21
-1.78531
  0
LINE
  8
0
 10
572.241
 20
-1.78531
 11
572.271
 21
-1.79344
  0
LINE
  8
0
 10
572.271
 20
-1.79344
 11
572.302
 21
-1.79836
  0
LINE
  8
0
 10
572.302
 20
-1.79836
 11
572.333
 21
-1.79999
  0
LINE
  8
0
 10
572.333
 20
-1.79999
 11
572.333
 21
-3
  0
LINE
  8
0
 10
572.333
 20
-3
 11
601.967
 21
-3
  0
LINE
  8
0
 10
601.967
 20
-3
 11
601.967
 21
0
  0
LINE
  8
0
 10
421.067
 20
0
 11
450.7
 21
0
  0
LINE
  8
0
 10
450.7
 20
0
 11
450.7
 21
-1.2
  0
LINE
  8
0
 10
450.7
 20
-1.2
 11
450.669
 21
-1.20163
  0
LINE
  8
0
 10
450.669
 20
-1.20163
 11
450.638
 21
-1.20654
  0
LINE
  8
0
 10
450.638
 20
-1.20654
 11
450.607
 21
-1.21468
  0
LINE
  8
0
 10
450.607
 20
-1.21468
 11
450.578
 21
-1.22592
  0
LINE
  8
0
 10
450.578
 20
-1.22592
 11
450.55
 21
-1.24019
  0
LINE
  8
0
 10
450.55
 20
-1.24019
 11
450.524
 21
-1.25729
  0
LINE
  8
0
 10
450.524
 20
-1.25729
 11
450.499
 21
-1.27705
  0
LINE
  8
0
 10
450.499
 20
-1.27705
 11
450.477
 21
-1.29926
  0
LINE
  8
0
 10
450.477
 20
-1.29926
 11
450.457
 21
-1.32365
  0
LINE
  8
0
 10
450.457
 20
-1.32365
 11
450.44
 21
-1.34999
  0
LINE
  8
0
 10
450.44
 20
-1.34999
 11
450.426
 21
-1.37798
  0
LINE
  8
0
 10
450.426
 20
-1.37798
 11
450.415
 21
-1.40729
  0
LINE
  8
0
 10
450.415
 20
-1.40729
 11
450.407
 21
-1.43762
  0
LINE
  8
0
 10
450.407
 20
-1.43762
 11
450.402
 21
-1.46863
  0
LINE
  8
0
 10
450.402
 20
-1.46863
 11
450.4
 21
-1.5
  0
LINE
  8
0
 10
450.4
 20
-1.5
 11
450.402
 21
-1.53136
  0
LINE
  8
0
 10
450.402
 20
-1.53136
 11
450.407
 21
-1.56236
  0
LINE
  8
0
 10
450.407
 20
-1.56236
 11
450.415
 21
-1.5927
  0
LINE
  8
0
 10
450.415
 20
-1.5927
 11
450.426
 21
-1.62201
  0
LINE
  8
0
 10
450.426
 20
-1.62201
 11
450.44
 21
-1.64999
  0
LINE
  8
0
 10
450.44
 20
-1.64999
 11
450.457
 21
-1.67633
  0
LINE
  8
0
 10
450.457
 20
-1.67633
 11
450.477
 21
-1.70073
  0
LINE
  8
0
 10
450.477
 20
-1.70073
 11
450.499
 21
-1.72293
  0
LINE
  8
0
 10
450.499
 20
-1.72293
 11
450.524
 21
-1.74269
  0
LINE
  8
0
 10
450.524
 20
-1.74269
 11
450.55
 21
-1.7598
  0
LINE
  8
0
 10
450.55
 20
-1.7598
 11
450.578
 21
-1.77406
  0
LINE
  8
0
 10
450.578
 20
-1.77406
 11
450.607
 21
-1.78531
  0
LINE
  8
0
 10
450.607
 20
-1.78531
 11
450.638
 21
-1.79344
  0
LINE
  8
0
 10
450.638
 20
-1.79344
 11
450.669
 21
-1.79836
  0
LINE
  8
0
 10
450.669
 20
-1.79836
 11
450.7
 21
-1.79999
  0
LINE
  8
0
 10
450.7
 20
-1.79999
 11
450.7
 21
-3
  0
LINE
  8
0
 10
450.7
 20
-3
 11
480.333
 21
-3
  0
LINE
  8
0
 10
480.333
 20
-3
 11
480.333
 21
0
  0
LINE
  8
0
 10
480.333
 20
0
 11
509.967
 21
0
  0
LINE
  8
0
 10
509.967
 20
0
 11
509.967
 21
-1.2
  0
LINE
  8
0
 10
509.967
 20
-1.2
 11
509.935
 21
-1.20163
  0
LINE
  8
0
 10
509.935
 20
-1.20163
 11
509.904
 21
-1.20654
  0
LINE
  8
0
 10
509.904
 20
-1.20654
 11
509.874
 21
-1.21468
  0
LINE
  8
0
 10
509.874
 20
-1.21468
 11
509.845
 21
-1.22592
  0
LINE
  8
0
 10
509.845
 20
-1.22592
 11
509.817
 21
-1.24019
  0
LINE
  8
0
 10
509.817
 20
-1.24019
 11
509.79
 21
-1.25729
  0
LINE
  8
0
 10
509.79
 20
-1.25729
 11
509.766
 21
-1.27705
  0
LINE
  8
0
 10
509.766
 20
-1.27705
 11
509.744
 21
-1.29926
  0
LINE
  8
0
 10
509.744
 20
-1.29926
 11
509.724
 21
-1.32365
  0
LINE
  8
0
 10
509.724
 20
-1.32365
 11
509.707
 21
-1.34999
  0
LINE
  8
0
 10
509.707
 20
-1.34999
 11
509.693
 21
-1.37798
  0
LINE
  8
0
 10
509.693
 20
-1.37798
 11
509.681
 21
-1.40729
  0
LINE
  8
0
 10
509.681
 20
-1.40729
 11
509.673
 21
-1.43762
  0
LINE
  8
0
 10
509.673
 20
-1.43762
 11
509.668
 21
-1.46863
  0
LINE
  8
0
 10
509.668
 20
-1.46863
 11
509.667
 21
-1.5
  0
LINE
  8
0
 10
509.667
 20
-1.5
 11
509.668
 21
-1.53136
  0
LINE
  8
0
 10
509.668
 20
-1.53136
 11
509.673
 21
-1.56236
  0
LINE
  8
0
 10
509.673
 20
-1.56236
 11
509.681
 21
-1.5927
  0
LINE
  8
0
 10
509.681
 20
-1.5927
 11
509.693
 21
-1.62201
  0
LINE
  8
0
 10
509.693
 20
-1.62201
 11
509.707
 21
-1.64999
  0
LINE
  8
0
 10
509.707
 20
-1.64999
 11
509.724
 21
-1.67633
  0
LINE
  8
0
 10
509.724
 20
-1.67633
 11
509.744
 21
-1.70073
  0
LINE
  8
0
 10
509.744
 20
-1.70073
 11
509.766
 21
-1.72293
  0
LINE
  8
0
 10
509.766
 20
-1.72293
 11
509.79
 21
-1.74269
  0
LINE
  8
0
 10
509.79
 20
-1.74269
 11
509.817
 21
-1.7598
  0
LINE
  8
0
 10
509.817
 20
-1.7598
 11
509.845
 21
-1.77406
  0
LINE
  8
0
 10
509.845
 20
-1.77406
 11
509.874
 21
-1.78531
  0
LINE
  8
0
 10
509.874
 20
-1.78531
 11
509.904
 21
-1.79344
  0
LINE
  8
0
 10
509.904
 20
-1.79344
 11
509.935
 21
-1.79836
  0
LINE
  8
0
 10
509.935
 20
-1.79836
 11
509.967
 21
-1.79999
  0
LINE
  8
0
 10
509.967
 20
-1.79999
 11
509.967
 21
-3
  0
LINE
  8
0
 10
509.967
 20
-3
 11
539.6
 21
-3
  0
LINE
  8
0
 10
539.6
 20
-3
 11
539.6
 21
304.8
  0
LINE
  8
0
 10
539.6
 20
304.8
 11
509.967
 21
304.8
  0
LINE
  8
0
 10
509.967
 20
304.8
 11
509.967
 21
307.8
  0
LINE
  8
0
 10
509.967
 20
307.8
 11
480.333
 21
307.8
  0
LINE
  8
0
 10
480.333
 20
307.8
 11
480.333
 21
304.8
  0
LINE
  8
0
 10
480.333
 20
304.8
 11
450.7
 21
304.8
  0
LINE
  8
0
 10
450.7
 20
304.8
 11
450.7
 21
307.8
  0
LINE
  8
0
 10
450.7
 20
307.8
 11
421.067
 21
307.8
  0
LINE
  8
0
 10
421.067
 20
307.8
 11
421.067
 21
304.8
  0
LINE
  8
0
 10
421.067
 20
304.8
 11
391.433
 21
304.8
  0
LINE
  8
0
 10
391.433
 20
304.8
 11
391.433
 21
307.8
  0
LINE
  8
0
 10
391.433
 20
307.8
 11
361.8
 21
307.8
  0
LINE
  8
0
 10
361.8
 20
307.8
 11
361.8
 21
266.7
  0
LINE
  8
0
 10
361.8
 20
266.7
 11
358.8
 21
266.7
  0
LINE
  8
0
 10
358.8
 20
266.7
 11
358.8
 21
228.6
  0
LINE
  8
0
 10
358.8
 20
228.6
 11
361.8
 21
228.6
  0
LINE
  8
0
 10
361.8
 20
228.6
 11
361.8
 21
190.5
  0
LINE
  8
0
 10
361.8
 20
190.5
 11
358.8
 21
190.5
  0
LINE
  8
0
 10
358.8
 20
190.5
 11
358.8
 21
152.4
  0
LINE
  8
0
 10
358.8
 20
152.4
 11
361.8
 21
152.4
  0
LINE
  8
0
 10
361.8
 20
152.4
 11
361.8
 21
114.3
  0
LINE
  8
0
 10
361.8
 20
114.3
 11
358.8
 21
114.3
  0
LINE
  8
0
 10
358.8
 20
114.3
 11
358.8
 21
76.2
  0
LINE
  8
0
 10
358.8
 20
76.2
 11
361.8
 21
76.2
  0
LINE
  8
0
 10
361.8
 20
76.2
 11
361.8
 21
38.1
  0
LINE
  8
0
 10
361.8
 20
38.1
 11
358.8
 21
38.1
  0
LINE
  8
0
 10
358.8
 20
38.1
 11
358.8
 21
0
  0
LINE
  8
0
 10
358.8
 20
0
 11
391.433
 21
0
  0
LINE
  8
0
 10
391.433
 20
0
 11
391.433
 21
-1.2
  0
LINE
  8
0
 10
391.433
 20
-1.2
 11
391.402
 21
-1.20163
  0
LINE
  8
0
 10
391.402
 20
-1.20163
 11
391.371
 21
-1.20654
  0
LINE
  8
0
 10
391.371
 20
-1.20654
 11
391.341
 21
-1.21468
  0
LINE
  8
0
 10
391.341
 20
-1.21468
 11
391.311
 21
-1.22592
  0
LINE
  8
0
 10
391.311
 20
-1.22592
 11
391.283
 21
-1.24019
  0
LINE
  8
0
 10
391.283
 20
-1.24019
 11
391.257
 21
-1.25729
  0
LINE
  8
0
 10
391.257
 20
-1.25729
 11
391.233
 21
-1.27705
  0
LINE
  8
0
 10
391.233
 20
-1.27705
 11
391.21
 21
-1.29926
  0
LINE
  8
0
 10
391.21
 20
-1.29926
 11
391.191
 21
-1.32365
  0
LINE
  8
0
 10
391.191
 20
-1.32365
 11
391.174
 21
-1.34999
  0
LINE
  8
0
 10
391.174
 20
-1.34999
 11
391.159
 21
-1.37798
  0
LINE
  8
0
 10
391.159
 20
-1.37798
 11
391.148
 21
-1.40729
  0
LINE
  8
0
 10
391.148
 20
-1.40729
 11
391.14
 21
-1.43762
  0
LINE
  8
0
 10
391.14
 20
-1.43762
 11
391.135
 21
-1.46863
  0
LINE
  8
0
 10
391.135
 20
-1.46863
 11
391.133
 21
-1.5
  0
LINE
  8
0
 10
391.133
 20
-1.5
 11
391.135
 21
-1.53136
  0
LINE
  8
0
 10
391.135
 20
-1.53136
 11
391.14
 21
-1.56236
  0
LINE
  8
0
 10
391.14
 20
-1.56236
 11
391.148
 21
-1.5927
  0
LINE
  8
0
 10
391.148
 20
-1.5927
 11
391.159
 21
-1.62201
  0
LINE
  8
0
 10
391.159
 20
-1.62201
 11
391.174
 21
-1.64999
  0
LINE
  8
0
 10
391.174
 20
-1.64999
 11
391.191
 21
-1.67633
  0
LINE
  8
0
 10
391.191
 20
-1.67633
 11
391.21
 21
-1.70073
  0
LINE
  8
0
 10
391.21
 20
-1.70073
 11
391.233
 21
-1.72293
  0
LINE
  8
0
 10
391.233
 20
-1.72293
 11
391.257
 21
-1.74269
  0
LINE
  8
0
 10
391.257
 20
-1.74269
 11
391.283
 21
-1.7598
  0
LINE
  8
0
 10
391.283
 20
-1.7598
 11
391.311
 21
-1.77406
  0
LINE
  8
0
 10
391.311
 20
-1.77406
 11
391.341
 21
-1.78531
  0
LINE
  8
0
 10
391.341
 20
-1.78531
 11
391.371
 21
-1.79344
  0
LINE
  8
0
 10
391.371
 20
-1.79344
 11
391.402
 21
-1.79836
  0
LINE
  8
0
 10
391.402
 20
-1.79836
 11
391.433
 21
-1.79999
  0
LINE
  8
0
 10
391.433
 20
-1.79999
 11
391.433
 21
-3
  0
LINE
  8
0
 10
391.433
 20
-3
 11
421.067
 21
-3
  0
LINE
  8
0
 10
421.067
 20
-3
 11
421.067
 21
0
  0
LINE
  8
0
 10
240.167
 20
0
 11
269.8
 21
0
  0
LINE
  8
0
 10
269.8
 20
0
 11
269.8
 21
-1.2
  0
LINE
  8
0
 10
269.8
 20
-1.2
 11
269.769
 21
-1.20163
  0
LINE
  8
0
 10
269.769
 20
-1.20163
 11
269.738
 21
-1.20654
  0
LINE
  8
0
 10
269.738
 20
-1.20654
 11
269.707
 21
-1.21468
  0
LINE
  8
0
 10
269.707
 20
-1.21468
 11
269.678
 21
-1.22592
  0
LINE
  8
0
 10
269.678
 20
-1.22592
 11
269.65
 21
-1.24019
  0
LINE
  8
0
 10
269.65
 20
-1.24019
 11
269.624
 21
-1.25729
  0
LINE
  8
0
 10
269.624
 20
-1.25729
 11
269.599
 21
-1.27705
  0
LINE
  8
0
 10
269.599
 20
-1.27705
 11
269.577
 21
-1.29926
  0
LINE
  8
0
 10
269.577
 20
-1.29926
 11
269.557
 21
-1.32365
  0
LINE
  8
0
 10
269.557
 20
-1.32365
 11
269.54
 21
-1.34999
  0
LINE
  8
0
 10
269.54
 20
-1.34999
 11
269.526
 21
-1.37798
  0
LINE
  8
0
 10
269.526
 20
-1.37798
 11
269.515
 21
-1.40729
  0
LINE
  8
0
 10
269.515
 20
-1.40729
 11
269.507
 21
-1.43762
  0
LINE
  8
0
 10
269.507
 20
-1.43762
 11
269.502
 21
-1.46863
  0
LINE
  8
0
 10
269.502
 20
-1.46863
 11
269.5
 21
-1.5
  0
LINE
  8
0
 10
269.5
 20
-1.5
 11
269.502
 21
-1.53136
  0
LINE
  8
0
 10
269.502
 20
-1.53136
 11
269.507
 21
-1.56236
  0
LINE
  8
0
 10
269.507
 20
-1.56236
 11
269.515
 21
-1.5927
  0
LINE
  8
0
 10
269.515
 20
-1.5927
 11
269.526
 21
-1.62201
  0
LINE
  8
0
 10
269.526
 20
-1.62201
 11
269.54
 21
-1.64999
  0
LINE
  8
0
 10
269.54
 20
-1.64999
 11
269.557
 21
-1.67633
  0
LINE
  8
0
 10
269.557
 20
-1.67633
 11
269.577
 21
-1.70073
  0
LINE
  8
0
 10
269.577
 20
-1.70073
 11
269.599
 21
-1.72293
  0
LINE
  8
0
 10
269.599
 20
-1.72293
 11
269.624
 21
-1.74269
  0
LINE
  8
0
 10
269.624
 20
-1.74269
 11
269.65
 21
-1.7598
  0
LINE
  8
0
 10
269.65
 20
-1.7598
 11
269.678
 21
-1.77406
  0
LINE
  8
0
 10
269.678
 20
-1.77406
 11
269.707
 21
-1.78531
  0
LINE
  8
0
 10
269.707
 20
-1.78531
 11
269.738
 21
-1.79344
  0
LINE
  8
0
 10
269.738
 20
-1.79344
 11
269.769
 21
-1.79836
  0
LINE
  8
0
 10
269.769
 20
-1.79836
 11
269.8
 21
-1.79999
  0
LINE
  8
0
 10
269.8
 20
-1.79999
 11
269.8
 21
-3
  0
LINE
  8
0
 10
269.8
 20
-3
 11
299.433
 21
-3
  0
LINE
  8
0
 10
299.433
 20
-3
 11
299.433
 21
0
  0
LINE
  8
0
 10
299.433
 20
0
 11
329.067
 21
0
  0
LINE
  8
0
 10
329.067
 20
0
 11
329.067
 21
-1.2
  0
LINE
  8
0
 10
329.067
 20
-1.2
 11
329.035
 21
-1.20163
  0
LINE
  8
0
 10
329.035
 20
-1.20163
 11
329.004
 21
-1.20654
  0
LINE
  8
0
 10
329.004
 20
-1.20654
 11
328.974
 21
-1.21468
  0
LINE
  8
0
 10
328.974
 20
-1.21468
 11
328.945
 21
-1.22592
  0
LINE
  8
0
 10
328.945
 20
-1.22592
 11
328.917
 21
-1.24019
  0
LINE
  8
0
 10
328.917
 20
-1.24019
 11
328.89
 21
-1.25729
  0
LINE
  8
0
 10
328.89
 20
-1.25729
 11
328.866
 21
-1.27705
  0
LINE
  8
0
 10
328.866
 20
-1.27705
 11
328.844
 21
-1.29926
  0
LINE
  8
0
 10
328.844
 20
-1.29926
 11
328.824
 21
-1.32365
  0
LINE
  8
0
 10
328.824
 20
-1.32365
 11
328.807
 21
-1.34999
  0
LINE
  8
0
 10
328.807
 20
-1.34999
 11
328.793
 21
-1.37798
  0
LINE
  8
0
 10
328.793
 20
-1.37798
 11
328.781
 21
-1.40729
  0
LINE
  8
0
 10
328.781
 20
-1.40729
 11
328.773
 21
-1.43762
  0
LINE
  8
0
 10
328.773
 20
-1.43762
 11
328.768
 21
-1.46863
  0
LINE
  8
0
 10
328.768
 20
-1.46863
 11
328.767
 21
-1.5
  0
LINE
  8
0
 10
328.767
 20
-1.5
 11
328.768
 21
-1.53136
  0
LINE
  8
0
 10
328.768
 20
-1.53136
 11
328.773
 21
-1.56236
  0
LINE
  8
0
 10
328.773
 20
-1.56236
 11
328.781
 21
-1.5927
  0
LINE
  8
0
 10
328.781
 20
-1.5927
 11
328.793
 21
-1.62201
  0
LINE
  8
0
 10
328.793
 20
-1.62201
 11
328.807
 21
-1.64999
  0
LINE
  8
0
 10
328.807
 20
-1.64999
 11
328.824
 21
-1.67633
  0
LINE
  8
0
 10
328.824
 20
-1.67633
 11
328.844
 21
-1.70073
  0
LINE
  8
0
 10
328.844
 20
-1.70073
 11
328.866
 21
-1.72293
  0
LINE
  8
0
 10
328.866
 20
-1.72293
 11
328.89
 21
-1.74269
  0
LINE
  8
0
 10
328.89
 20
-1.74269
 11
328.917
 21
-1.7598
  0
LINE
  8
0
 10
328.917
 20
-1.7598
 11
328.945
 21
-1.77406
  0
LINE
  8
0
 10
328.945
 20
-1.77406
 11
328.974
 21
-1.78531
  0
LINE
  8
0
 10
328.974
 20
-1.78531
 11
329.004
 21
-1.79344
  0
LINE
  8
0
 10
329.004
 20
-1.79344
 11
329.035
 21
-1.79836
  0
LINE
  8
0
 10
329.035
 20
-1.79836
 11
329.067
 21
-1.79999
  0
LINE
  8
0
 10
329.067
 20
-1.79999
 11
329.067
 21
-3
  0
LINE
  8
0
 10
329.067
 20
-3
 11
358.7
 21
-3
  0
LINE
  8
0
 10
358.7
 20
-3
 11
358.7
 21
3
  0
LINE
  8
0
 10
358.7
 20
3
 11
358.7
 21
3
  0
LINE
  8
0
 10
358.7
 20
3
 11
358.7
 21
304.8
  0
LINE
  8
0
 10
358.7
 20
304.8
 11
329.067
 21
304.8
  0
LINE
  8
0
 10
329.067
 20
304.8
 11
329.067
 21
307.8
  0
LINE
  8
0
 10
329.067
 20
307.8
 11
299.433
 21
307.8
  0
LINE
  8
0
 10
299.433
 20
307.8
 11
299.433
 21
304.8
  0
LINE
  8
0
 10
299.433
 20
304.8
 11
269.8
 21
304.8
  0
LINE
  8
0
 10
269.8
 20
304.8
 11
269.8
 21
307.8
  0
LINE
  8
0
 10
269.8
 20
307.8
 11
240.167
 21
307.8
  0
LINE
  8
0
 10
240.167
 20
307.8
 11
240.167
 21
304.8
  0
LINE
  8
0
 10
240.167
 20
304.8
 11
210.533
 21
304.8
  0
LINE
  8
0
 10
210.533
 20
304.8
 11
210.533
 21
307.8
  0
LINE
  8
0
 10
210.533
 20
307.8
 11
180.9
 21
307.8
  0
LINE
  8
0
 10
180.9
 20
307.8
 11
180.9
 21
266.7
  0
LINE
  8
0
 10
180.9
 20
266.7
 11
177.9
 21
266.7
  0
LINE
  8
0
 10
177.9
 20
266.7
 11
177.9
 21
228.6
  0
LINE
  8
0
 10
177.9
 20
228.6
 11
180.9
 21
228.6
  0
LINE
  8
0
 10
180.9
 20
228.6
 11
180.9
 21
190.5
  0
LINE
  8
0
 10
180.9
 20
190.5
 11
177.9
 21
190.5
  0
LINE
  8
0
 10
177.9
 20
190.5
 11
177.9
 21
152.4
  0
LINE
  8
0
 10
177.9
 20
152.4
 11
180.9
 21
152.4
  0
LINE
  8
0
 10
180.9
 20
152.4
 11
180.9
 21
114.3
  0
LINE
  8
0
 10
180.9
 20
114.3
 11
177.9
 21
114.3
  0
LINE
  8
0
 10
177.9
 20
114.3
 11
177.9
 21
76.2
  0
LINE
  8
0
 10
177.9
 20
76.2
 11
180.9
 21
76.2
  0
LINE
  8
0
 10
180.9
 20
76.2
 11
180.9
 21
38.1
  0
LINE
  8
0
 10
180.9
 20
38.1
 11
177.9
 21
38.1
  0
LINE
  8
0
 10
177.9
 20
38.1
 11
177.9
 21
0
  0
LINE
  8
0
 10
177.9
 20
0
 11
210.533
 21
0
  0
LINE
  8
0
 10
210.533
 20
0
 11
210.533
 21
-1.2
  0
LINE
  8
0
 10
210.533
 20
-1.2
 11
210.502
 21
-1.20163
  0
LINE
  8
0
 10
210.502
 20
-1.20163
 11
210.471
 21
-1.20654
  0
LINE
  8
0
 10
210.471
 20
-1.20654
 11
210.441
 21
-1.21468
  0
LINE
  8
0
 10
210.441
 20
-1.21468
 11
210.411
 21
-1.22592
  0
LINE
  8
0
 10
210.411
 20
-1.22592
 11
210.383
 21
-1.24019
  0
LINE
  8
0
 10
210.383
 20
-1.24019
 11
210.357
 21
-1.25729
  0
LINE
  8
0
 10
210.357
 20
-1.25729
 11
210.333
 21
-1.27705
  0
LINE
  8
0
 10
210.333
 20
-1.27705
 11
210.31
 21
-1.29926
  0
LINE
  8
0
 10
210.31
 20
-1.29926
 11
210.291
 21
-1.32365
  0
LINE
  8
0
 10
210.291
 20
-1.32365
 11
210.274
 21
-1.34999
  0
LINE
  8
0
 10
210.274
 20
-1.34999
 11
210.259
 21
-1.37798
  0
LINE
  8
0
 10
210.259
 20
-1.37798
 11
210.248
 21
-1.40729
  0
LINE
  8
0
 10
210.248
 20
-1.40729
 11
210.24
 21
-1.43762
  0
LINE
  8
0
 10
210.24
 20
-1.43762
 11
210.235
 21
-1.46863
  0
LINE
  8
0
 10
210.235
 20
-1.46863
 11
210.233
 21
-1.5
  0
LINE
  8
0
 10
210.233
 20
-1.5
 11
210.235
 21
-1.53136
  0
LINE
  8
0
 10
210.235
 20
-1.53136
 11
210.24
 21
-1.56236
  0
LINE
  8
0
 10
210.24
 20
-1.56236
 11
210.248
 21
-1.5927
  0
LINE
  8
0
 10
210.248
 20
-1.5927
 11
210.259
 21
-1.62201
  0
LINE
  8
0
 10
210.259
 20
-1.62201
 11
210.274
 21
-1.64999
  0
LINE
  8
0
 10
210.274
 20
-1.64999
 11
210.291
 21
-1.67633
  0
LINE
  8
0
 10
210.291
 20
-1.67633
 11
210.31
 21
-1.70073
  0
LINE
  8
0
 10
210.31
 20
-1.70073
 11
210.333
 21
-1.72293
  0
LINE
  8
0
 10
210.333
 20
-1.72293
 11
210.357
 21
-1.74269
  0
LINE
  8
0
 10
210.357
 20
-1.74269
 11
210.383
 21
-1.7598
  0
LINE
  8
0
 10
210.383
 20
-1.7598
 11
210.411
 21
-1.77406
  0
LINE
  8
0
 10
210.411
 20
-1.77406
 11
210.441
 21
-1.78531
  0
LINE
  8
0
 10
210.441
 20
-1.78531
 11
210.471
 21
-1.79344
  0
LINE
  8
0
 10
210.471
 20
-1.79344
 11
210.502
 21
-1.79836
  0
LINE
  8
0
 10
210.502
 20
-1.79836
 11
210.533
 21
-1.79999
  0
LINE
  8
0
 10
210.533
 20
-1.79999
 11
210.533
 21
-3
  0
LINE
  8
0
 10
210.533
 20
-3
 11
240.167
 21
-3
  0
LINE
  8
0
 10
240.167
 20
-3
 11
240.167
 21
0
  0
ENDSEC
  0
SECTION
  2
OBJECTS
  0
DICTIONARY
  0
ENDSEC
  0
EOF
