G04 #@! TF.GenerationSoftware,KiCad,Pcbnew,5.1.4+dfsg1-1*
G04 #@! TF.CreationDate,2020-08-20T21:45:12-05:00*
G04 #@! TF.ProjectId,HotBox,486f7442-6f78-42e6-9b69-6361645f7063,rev?*
G04 #@! TF.SameCoordinates,Original*
G04 #@! TF.FileFunction,Legend,Bot*
G04 #@! TF.FilePolarity,Positive*
%FSLAX46Y46*%
G04 Gerber Fmt 4.6, Leading zero omitted, Abs format (unit mm)*
G04 Created by KiCad (PCBNEW 5.1.4+dfsg1-1) date 2020-08-20 21:45:12*
%MOMM*%
%LPD*%
G04 APERTURE LIST*
%ADD10C,0.120000*%
%ADD11C,0.150000*%
G04 APERTURE END LIST*
D10*
X185473000Y-115603000D02*
X185473000Y-121353000D01*
X185523000Y-122703000D02*
X185523000Y-125903000D01*
X185523000Y-125903000D02*
X191473000Y-125903000D01*
X191473000Y-125903000D02*
X191473000Y-115603000D01*
X191473000Y-115603000D02*
X185473000Y-115603000D01*
X191373000Y-116953000D02*
X190363000Y-116953000D01*
X190363000Y-116953000D02*
X190363000Y-122033000D01*
X190363000Y-122033000D02*
X191373000Y-122033000D01*
X166873000Y-114333000D02*
X126873000Y-114333000D01*
X166873000Y-74333000D02*
X166873000Y-114333000D01*
X126873000Y-74333000D02*
X166873000Y-74333000D01*
X126873000Y-114333000D02*
X126873000Y-74333000D01*
X126873000Y-114333000D02*
X126873000Y-74333000D01*
X126873000Y-74333000D02*
X166873000Y-74333000D01*
X166873000Y-74333000D02*
X166873000Y-114333000D01*
X166873000Y-114333000D02*
X126873000Y-114333000D01*
X167393000Y-94933000D02*
X167393000Y-96133000D01*
X169153000Y-96133000D02*
X169153000Y-94933000D01*
X188778000Y-106253000D02*
X187578000Y-106253000D01*
X187578000Y-108013000D02*
X188778000Y-108013000D01*
D11*
X184975380Y-120143476D02*
X183975380Y-120143476D01*
X184689666Y-120476809D01*
X183975380Y-120810142D01*
X184975380Y-120810142D01*
X184975380Y-121810142D02*
X184975380Y-121238714D01*
X184975380Y-121524428D02*
X183975380Y-121524428D01*
X184118238Y-121429190D01*
X184213476Y-121333952D01*
X184261095Y-121238714D01*
X148063476Y-94285380D02*
X148063476Y-93285380D01*
X147682523Y-93285380D01*
X147587285Y-93333000D01*
X147539666Y-93380619D01*
X147492047Y-93475857D01*
X147492047Y-93618714D01*
X147539666Y-93713952D01*
X147587285Y-93761571D01*
X147682523Y-93809190D01*
X148063476Y-93809190D01*
X147063476Y-93761571D02*
X146730142Y-93761571D01*
X146587285Y-94285380D02*
X147063476Y-94285380D01*
X147063476Y-93285380D01*
X146587285Y-93285380D01*
X145634904Y-94285380D02*
X146206333Y-94285380D01*
X145920619Y-94285380D02*
X145920619Y-93285380D01*
X146015857Y-93428238D01*
X146111095Y-93523476D01*
X146206333Y-93571095D01*
X109325380Y-131023476D02*
X108325380Y-131023476D01*
X109039666Y-131356809D01*
X108325380Y-131690142D01*
X109325380Y-131690142D01*
X108420619Y-132118714D02*
X108373000Y-132166333D01*
X108325380Y-132261571D01*
X108325380Y-132499666D01*
X108373000Y-132594904D01*
X108420619Y-132642523D01*
X108515857Y-132690142D01*
X108611095Y-132690142D01*
X108753952Y-132642523D01*
X109325380Y-132071095D01*
X109325380Y-132690142D01*
X167725380Y-91147285D02*
X167725380Y-91718714D01*
X168725380Y-91433000D02*
X167725380Y-91433000D01*
X168725380Y-92052047D02*
X167725380Y-92052047D01*
X168201571Y-92052047D02*
X168201571Y-92623476D01*
X168725380Y-92623476D02*
X167725380Y-92623476D01*
X168725380Y-93623476D02*
X168725380Y-93052047D01*
X168725380Y-93337761D02*
X167725380Y-93337761D01*
X167868238Y-93242523D01*
X167963476Y-93147285D01*
X168011095Y-93052047D01*
X189463714Y-108235380D02*
X188892285Y-108235380D01*
X189178000Y-109235380D02*
X189178000Y-108235380D01*
X188558952Y-109235380D02*
X188558952Y-108235380D01*
X188558952Y-108711571D02*
X187987523Y-108711571D01*
X187987523Y-109235380D02*
X187987523Y-108235380D01*
X187558952Y-108330619D02*
X187511333Y-108283000D01*
X187416095Y-108235380D01*
X187178000Y-108235380D01*
X187082761Y-108283000D01*
X187035142Y-108330619D01*
X186987523Y-108425857D01*
X186987523Y-108521095D01*
X187035142Y-108663952D01*
X187606571Y-109235380D01*
X186987523Y-109235380D01*
M02*
