G04 #@! TF.GenerationSoftware,KiCad,Pcbnew,5.1.4+dfsg1-1*
G04 #@! TF.CreationDate,2020-08-20T21:45:12-05:00*
G04 #@! TF.ProjectId,HotBox,486f7442-6f78-42e6-9b69-6361645f7063,rev?*
G04 #@! TF.SameCoordinates,Original*
G04 #@! TF.FileFunction,Paste,Top*
G04 #@! TF.FilePolarity,Positive*
%FSLAX46Y46*%
G04 Gerber Fmt 4.6, Leading zero omitted, Abs format (unit mm)*
G04 Created by KiCad (PCBNEW 5.1.4+dfsg1-1) date 2020-08-20 21:45:12*
%MOMM*%
%LPD*%
G04 APERTURE LIST*
%ADD10R,1.600000X1.070000*%
%ADD11R,0.700000X0.800000*%
%ADD12R,1.550000X1.600000*%
%ADD13R,1.550000X1.200000*%
%ADD14R,0.650000X1.060000*%
%ADD15R,0.850000X1.350000*%
%ADD16R,1.350000X0.850000*%
%ADD17R,0.900000X0.800000*%
%ADD18C,0.100000*%
%ADD19C,0.875000*%
G04 APERTURE END LIST*
D10*
X181873000Y-70333000D03*
X181873000Y-67363000D03*
D11*
X121783000Y-65083000D03*
X120513000Y-65083000D03*
X119233000Y-65083000D03*
X117963000Y-65083000D03*
X117963000Y-70583000D03*
X119233000Y-70583000D03*
X120513000Y-70583000D03*
X121783000Y-70583000D03*
D12*
X120963000Y-69083000D03*
X118783000Y-69083000D03*
D13*
X120963000Y-67083000D03*
X118783000Y-67083000D03*
D14*
X113423000Y-66433000D03*
X114373000Y-66433000D03*
X115323000Y-66433000D03*
X115323000Y-64233000D03*
X113423000Y-64233000D03*
D15*
X178378000Y-118333000D03*
X176568000Y-118333000D03*
D16*
X110873000Y-66238000D03*
X110873000Y-64428000D03*
D15*
X178278000Y-122333000D03*
X176468000Y-122333000D03*
D17*
X119373000Y-133333000D03*
X121373000Y-132383000D03*
X121373000Y-134283000D03*
X121373000Y-129283000D03*
X121373000Y-127383000D03*
X119373000Y-128333000D03*
D16*
X123373000Y-127523000D03*
X123373000Y-129333000D03*
D15*
X174778000Y-118333000D03*
X172968000Y-118333000D03*
D16*
X123373000Y-134238000D03*
X123373000Y-132428000D03*
D15*
X174778000Y-122333000D03*
X172968000Y-122333000D03*
D16*
X105873000Y-109928000D03*
X105873000Y-111738000D03*
X107873000Y-111738000D03*
X107873000Y-109928000D03*
X109873000Y-109928000D03*
X109873000Y-111738000D03*
X111873000Y-111738000D03*
X111873000Y-109928000D03*
X113873000Y-109928000D03*
X113873000Y-111738000D03*
X115873000Y-111738000D03*
X115873000Y-109928000D03*
X117873000Y-109928000D03*
X117873000Y-111738000D03*
X181273000Y-112133000D03*
X181273000Y-113943000D03*
X178873000Y-113938000D03*
X178873000Y-112128000D03*
D18*
G36*
X117350691Y-61784053D02*
G01*
X117371926Y-61787203D01*
X117392750Y-61792419D01*
X117412962Y-61799651D01*
X117432368Y-61808830D01*
X117450781Y-61819866D01*
X117468024Y-61832654D01*
X117483930Y-61847070D01*
X117498346Y-61862976D01*
X117511134Y-61880219D01*
X117522170Y-61898632D01*
X117531349Y-61918038D01*
X117538581Y-61938250D01*
X117543797Y-61959074D01*
X117546947Y-61980309D01*
X117548000Y-62001750D01*
X117548000Y-62439250D01*
X117546947Y-62460691D01*
X117543797Y-62481926D01*
X117538581Y-62502750D01*
X117531349Y-62522962D01*
X117522170Y-62542368D01*
X117511134Y-62560781D01*
X117498346Y-62578024D01*
X117483930Y-62593930D01*
X117468024Y-62608346D01*
X117450781Y-62621134D01*
X117432368Y-62632170D01*
X117412962Y-62641349D01*
X117392750Y-62648581D01*
X117371926Y-62653797D01*
X117350691Y-62656947D01*
X117329250Y-62658000D01*
X116816750Y-62658000D01*
X116795309Y-62656947D01*
X116774074Y-62653797D01*
X116753250Y-62648581D01*
X116733038Y-62641349D01*
X116713632Y-62632170D01*
X116695219Y-62621134D01*
X116677976Y-62608346D01*
X116662070Y-62593930D01*
X116647654Y-62578024D01*
X116634866Y-62560781D01*
X116623830Y-62542368D01*
X116614651Y-62522962D01*
X116607419Y-62502750D01*
X116602203Y-62481926D01*
X116599053Y-62460691D01*
X116598000Y-62439250D01*
X116598000Y-62001750D01*
X116599053Y-61980309D01*
X116602203Y-61959074D01*
X116607419Y-61938250D01*
X116614651Y-61918038D01*
X116623830Y-61898632D01*
X116634866Y-61880219D01*
X116647654Y-61862976D01*
X116662070Y-61847070D01*
X116677976Y-61832654D01*
X116695219Y-61819866D01*
X116713632Y-61808830D01*
X116733038Y-61799651D01*
X116753250Y-61792419D01*
X116774074Y-61787203D01*
X116795309Y-61784053D01*
X116816750Y-61783000D01*
X117329250Y-61783000D01*
X117350691Y-61784053D01*
X117350691Y-61784053D01*
G37*
D19*
X117073000Y-62220500D03*
D18*
G36*
X117350691Y-60209053D02*
G01*
X117371926Y-60212203D01*
X117392750Y-60217419D01*
X117412962Y-60224651D01*
X117432368Y-60233830D01*
X117450781Y-60244866D01*
X117468024Y-60257654D01*
X117483930Y-60272070D01*
X117498346Y-60287976D01*
X117511134Y-60305219D01*
X117522170Y-60323632D01*
X117531349Y-60343038D01*
X117538581Y-60363250D01*
X117543797Y-60384074D01*
X117546947Y-60405309D01*
X117548000Y-60426750D01*
X117548000Y-60864250D01*
X117546947Y-60885691D01*
X117543797Y-60906926D01*
X117538581Y-60927750D01*
X117531349Y-60947962D01*
X117522170Y-60967368D01*
X117511134Y-60985781D01*
X117498346Y-61003024D01*
X117483930Y-61018930D01*
X117468024Y-61033346D01*
X117450781Y-61046134D01*
X117432368Y-61057170D01*
X117412962Y-61066349D01*
X117392750Y-61073581D01*
X117371926Y-61078797D01*
X117350691Y-61081947D01*
X117329250Y-61083000D01*
X116816750Y-61083000D01*
X116795309Y-61081947D01*
X116774074Y-61078797D01*
X116753250Y-61073581D01*
X116733038Y-61066349D01*
X116713632Y-61057170D01*
X116695219Y-61046134D01*
X116677976Y-61033346D01*
X116662070Y-61018930D01*
X116647654Y-61003024D01*
X116634866Y-60985781D01*
X116623830Y-60967368D01*
X116614651Y-60947962D01*
X116607419Y-60927750D01*
X116602203Y-60906926D01*
X116599053Y-60885691D01*
X116598000Y-60864250D01*
X116598000Y-60426750D01*
X116599053Y-60405309D01*
X116602203Y-60384074D01*
X116607419Y-60363250D01*
X116614651Y-60343038D01*
X116623830Y-60323632D01*
X116634866Y-60305219D01*
X116647654Y-60287976D01*
X116662070Y-60272070D01*
X116677976Y-60257654D01*
X116695219Y-60244866D01*
X116713632Y-60233830D01*
X116733038Y-60224651D01*
X116753250Y-60217419D01*
X116774074Y-60212203D01*
X116795309Y-60209053D01*
X116816750Y-60208000D01*
X117329250Y-60208000D01*
X117350691Y-60209053D01*
X117350691Y-60209053D01*
G37*
D19*
X117073000Y-60645500D03*
D16*
X115073000Y-62438000D03*
X115073000Y-60628000D03*
M02*
