G04 #@! TF.GenerationSoftware,KiCad,Pcbnew,5.1.4+dfsg1-1*
G04 #@! TF.CreationDate,2020-08-20T21:45:12-05:00*
G04 #@! TF.ProjectId,HotBox,486f7442-6f78-42e6-9b69-6361645f7063,rev?*
G04 #@! TF.SameCoordinates,Original*
G04 #@! TF.FileFunction,Legend,Top*
G04 #@! TF.FilePolarity,Positive*
%FSLAX46Y46*%
G04 Gerber Fmt 4.6, Leading zero omitted, Abs format (unit mm)*
G04 Created by KiCad (PCBNEW 5.1.4+dfsg1-1) date 2020-08-20 21:45:12*
%MOMM*%
%LPD*%
G04 APERTURE LIST*
%ADD10C,0.150000*%
%ADD11C,0.010000*%
%ADD12C,0.120000*%
G04 APERTURE END LIST*
D10*
X115082523Y-57860380D02*
X115082523Y-56860380D01*
X115082523Y-57336571D02*
X115653952Y-57336571D01*
X115653952Y-57860380D02*
X115653952Y-56860380D01*
X116511095Y-57812761D02*
X116415857Y-57860380D01*
X116225380Y-57860380D01*
X116130142Y-57812761D01*
X116082523Y-57717523D01*
X116082523Y-57336571D01*
X116130142Y-57241333D01*
X116225380Y-57193714D01*
X116415857Y-57193714D01*
X116511095Y-57241333D01*
X116558714Y-57336571D01*
X116558714Y-57431809D01*
X116082523Y-57527047D01*
X117415857Y-57860380D02*
X117415857Y-57336571D01*
X117368238Y-57241333D01*
X117273000Y-57193714D01*
X117082523Y-57193714D01*
X116987285Y-57241333D01*
X117415857Y-57812761D02*
X117320619Y-57860380D01*
X117082523Y-57860380D01*
X116987285Y-57812761D01*
X116939666Y-57717523D01*
X116939666Y-57622285D01*
X116987285Y-57527047D01*
X117082523Y-57479428D01*
X117320619Y-57479428D01*
X117415857Y-57431809D01*
X117749190Y-57193714D02*
X118130142Y-57193714D01*
X117892047Y-56860380D02*
X117892047Y-57717523D01*
X117939666Y-57812761D01*
X118034904Y-57860380D01*
X118130142Y-57860380D01*
X118844428Y-57812761D02*
X118749190Y-57860380D01*
X118558714Y-57860380D01*
X118463476Y-57812761D01*
X118415857Y-57717523D01*
X118415857Y-57336571D01*
X118463476Y-57241333D01*
X118558714Y-57193714D01*
X118749190Y-57193714D01*
X118844428Y-57241333D01*
X118892047Y-57336571D01*
X118892047Y-57431809D01*
X118415857Y-57527047D01*
X119320619Y-57860380D02*
X119320619Y-57193714D01*
X119320619Y-57384190D02*
X119368238Y-57288952D01*
X119415857Y-57241333D01*
X119511095Y-57193714D01*
X119606333Y-57193714D01*
X116725380Y-58510380D02*
X116915857Y-58510380D01*
X117011095Y-58558000D01*
X117106333Y-58653238D01*
X117153952Y-58843714D01*
X117153952Y-59177047D01*
X117106333Y-59367523D01*
X117011095Y-59462761D01*
X116915857Y-59510380D01*
X116725380Y-59510380D01*
X116630142Y-59462761D01*
X116534904Y-59367523D01*
X116487285Y-59177047D01*
X116487285Y-58843714D01*
X116534904Y-58653238D01*
X116630142Y-58558000D01*
X116725380Y-58510380D01*
X117582523Y-58843714D02*
X117582523Y-59510380D01*
X117582523Y-58938952D02*
X117630142Y-58891333D01*
X117725380Y-58843714D01*
X117868238Y-58843714D01*
X117963476Y-58891333D01*
X118011095Y-58986571D01*
X118011095Y-59510380D01*
D11*
G36*
X152299000Y-95006334D02*
G01*
X167962333Y-95006334D01*
X167962333Y-96869000D01*
X163541862Y-96869000D01*
X163346048Y-96869000D01*
X163252280Y-96883249D01*
X163180473Y-96946171D01*
X163116368Y-97088026D01*
X163045703Y-97339078D01*
X162967000Y-97673334D01*
X162783766Y-98477667D01*
X162365770Y-98477667D01*
X162118698Y-98471442D01*
X162002316Y-98439685D01*
X161978086Y-98362771D01*
X161991660Y-98287167D01*
X162033409Y-98104369D01*
X162097123Y-97823713D01*
X162155097Y-97567500D01*
X162274649Y-97038334D01*
X162076845Y-97038334D01*
X161976500Y-97053740D01*
X161902290Y-97121606D01*
X161837733Y-97274405D01*
X161766345Y-97544612D01*
X161722276Y-97736834D01*
X161565511Y-98435334D01*
X161165589Y-98461139D01*
X160953955Y-98468873D01*
X160826974Y-98439582D01*
X160774684Y-98344333D01*
X160787124Y-98154194D01*
X160854333Y-97840231D01*
X160894360Y-97673334D01*
X160977947Y-97300696D01*
X161010894Y-97062154D01*
X160991729Y-96929768D01*
X160918977Y-96875594D01*
X160851946Y-96869000D01*
X160693664Y-96944341D01*
X160634504Y-97067110D01*
X160632490Y-97075544D01*
X159806851Y-97075544D01*
X159802065Y-97062511D01*
X159661959Y-97005776D01*
X159391154Y-96960195D01*
X159027983Y-96926762D01*
X158610775Y-96906469D01*
X158177861Y-96900309D01*
X157767572Y-96909274D01*
X157418238Y-96934357D01*
X157168190Y-96976550D01*
X157117524Y-96992985D01*
X157058685Y-97066623D01*
X156157616Y-97066623D01*
X156157125Y-97065229D01*
X156102414Y-97004584D01*
X155978244Y-96959657D01*
X155765030Y-96928701D01*
X155443183Y-96909973D01*
X154993118Y-96901728D01*
X154395249Y-96902220D01*
X154332063Y-96902643D01*
X153849452Y-96907943D01*
X153510422Y-96918008D01*
X153289228Y-96936058D01*
X153160125Y-96965310D01*
X153097366Y-97008981D01*
X153077021Y-97059500D01*
X153110128Y-97185442D01*
X153187497Y-97207667D01*
X153288959Y-97261979D01*
X153284398Y-97355834D01*
X153244135Y-97517565D01*
X153184511Y-97778724D01*
X153138220Y-97990834D01*
X153064968Y-98256537D01*
X152984500Y-98431773D01*
X152929585Y-98477667D01*
X152814564Y-98550242D01*
X152735184Y-98719935D01*
X152722333Y-98823259D01*
X152801297Y-98863433D01*
X153016799Y-98889263D01*
X153336759Y-98901921D01*
X153729096Y-98902580D01*
X154161726Y-98892415D01*
X154602570Y-98872597D01*
X155019544Y-98844300D01*
X155380569Y-98808697D01*
X155653561Y-98766962D01*
X155806439Y-98720268D01*
X155820253Y-98709970D01*
X155866009Y-98600106D01*
X155928657Y-98370104D01*
X155998549Y-98067067D01*
X156066039Y-97738098D01*
X156121479Y-97430299D01*
X156155220Y-97190773D01*
X156157616Y-97066623D01*
X157058685Y-97066623D01*
X157025254Y-97108461D01*
X156924553Y-97387145D01*
X156814423Y-97831844D01*
X156806753Y-97867313D01*
X156735299Y-98217422D01*
X156684566Y-98500116D01*
X156660787Y-98678471D01*
X156662706Y-98720929D01*
X156816197Y-98787593D01*
X157099476Y-98836221D01*
X157473983Y-98866989D01*
X157901156Y-98880077D01*
X158342433Y-98875662D01*
X158759253Y-98853923D01*
X159113053Y-98815037D01*
X159365273Y-98759182D01*
X159462890Y-98707999D01*
X159508381Y-98600779D01*
X159570422Y-98377173D01*
X159639811Y-98081816D01*
X159707348Y-97759342D01*
X159763834Y-97454382D01*
X159800068Y-97211572D01*
X159806851Y-97075544D01*
X160632490Y-97075544D01*
X160554629Y-97401518D01*
X160474463Y-97764079D01*
X160401720Y-98116070D01*
X160344114Y-98418771D01*
X160309357Y-98633460D01*
X160304996Y-98721255D01*
X160457335Y-98789595D01*
X160739515Y-98839236D01*
X161113106Y-98870411D01*
X161539678Y-98883351D01*
X161980800Y-98878289D01*
X162398042Y-98855458D01*
X162752974Y-98815091D01*
X163007165Y-98757420D01*
X163107256Y-98704300D01*
X163144084Y-98606158D01*
X163205796Y-98378510D01*
X163283069Y-98057693D01*
X163348997Y-97762212D01*
X163541862Y-96869000D01*
X167962333Y-96869000D01*
X167962333Y-97126504D01*
X167508931Y-97126504D01*
X167502710Y-97058489D01*
X167361801Y-97001665D01*
X167090181Y-96957393D01*
X166726068Y-96926524D01*
X166307682Y-96909911D01*
X165873241Y-96908405D01*
X165460962Y-96922858D01*
X165109064Y-96954123D01*
X164867037Y-96999730D01*
X164803445Y-97025864D01*
X164749269Y-97078591D01*
X164697730Y-97179973D01*
X164642050Y-97352072D01*
X164575450Y-97616950D01*
X164491153Y-97996668D01*
X164382380Y-98513290D01*
X164341426Y-98710500D01*
X164342101Y-98854535D01*
X164457419Y-98899722D01*
X164506087Y-98901000D01*
X164606244Y-98888146D01*
X164679015Y-98828335D01*
X164739795Y-98689692D01*
X164803977Y-98440343D01*
X164863886Y-98160167D01*
X164942727Y-97822736D01*
X165022882Y-97550475D01*
X165091359Y-97385083D01*
X165114095Y-97357130D01*
X165242961Y-97328252D01*
X165494697Y-97308622D01*
X165823090Y-97298213D01*
X166181931Y-97296996D01*
X166525010Y-97304943D01*
X166806115Y-97322026D01*
X166979037Y-97348216D01*
X167003624Y-97358290D01*
X167045516Y-97437943D01*
X167040431Y-97612507D01*
X166986175Y-97908743D01*
X166943016Y-98097827D01*
X166855766Y-98467112D01*
X166806590Y-98701616D01*
X166796683Y-98831823D01*
X166827242Y-98888222D01*
X166899463Y-98901298D01*
X166974533Y-98901000D01*
X167064487Y-98888685D01*
X167133513Y-98832466D01*
X167194155Y-98703438D01*
X167258958Y-98472694D01*
X167340467Y-98111327D01*
X167363150Y-98005506D01*
X167436397Y-97636752D01*
X167486767Y-97331697D01*
X167508931Y-97126504D01*
X167962333Y-97126504D01*
X167962333Y-100848334D01*
X152299000Y-100848334D01*
X152299000Y-95006334D01*
X152299000Y-95006334D01*
G37*
X152299000Y-95006334D02*
X167962333Y-95006334D01*
X167962333Y-96869000D01*
X163541862Y-96869000D01*
X163346048Y-96869000D01*
X163252280Y-96883249D01*
X163180473Y-96946171D01*
X163116368Y-97088026D01*
X163045703Y-97339078D01*
X162967000Y-97673334D01*
X162783766Y-98477667D01*
X162365770Y-98477667D01*
X162118698Y-98471442D01*
X162002316Y-98439685D01*
X161978086Y-98362771D01*
X161991660Y-98287167D01*
X162033409Y-98104369D01*
X162097123Y-97823713D01*
X162155097Y-97567500D01*
X162274649Y-97038334D01*
X162076845Y-97038334D01*
X161976500Y-97053740D01*
X161902290Y-97121606D01*
X161837733Y-97274405D01*
X161766345Y-97544612D01*
X161722276Y-97736834D01*
X161565511Y-98435334D01*
X161165589Y-98461139D01*
X160953955Y-98468873D01*
X160826974Y-98439582D01*
X160774684Y-98344333D01*
X160787124Y-98154194D01*
X160854333Y-97840231D01*
X160894360Y-97673334D01*
X160977947Y-97300696D01*
X161010894Y-97062154D01*
X160991729Y-96929768D01*
X160918977Y-96875594D01*
X160851946Y-96869000D01*
X160693664Y-96944341D01*
X160634504Y-97067110D01*
X160632490Y-97075544D01*
X159806851Y-97075544D01*
X159802065Y-97062511D01*
X159661959Y-97005776D01*
X159391154Y-96960195D01*
X159027983Y-96926762D01*
X158610775Y-96906469D01*
X158177861Y-96900309D01*
X157767572Y-96909274D01*
X157418238Y-96934357D01*
X157168190Y-96976550D01*
X157117524Y-96992985D01*
X157058685Y-97066623D01*
X156157616Y-97066623D01*
X156157125Y-97065229D01*
X156102414Y-97004584D01*
X155978244Y-96959657D01*
X155765030Y-96928701D01*
X155443183Y-96909973D01*
X154993118Y-96901728D01*
X154395249Y-96902220D01*
X154332063Y-96902643D01*
X153849452Y-96907943D01*
X153510422Y-96918008D01*
X153289228Y-96936058D01*
X153160125Y-96965310D01*
X153097366Y-97008981D01*
X153077021Y-97059500D01*
X153110128Y-97185442D01*
X153187497Y-97207667D01*
X153288959Y-97261979D01*
X153284398Y-97355834D01*
X153244135Y-97517565D01*
X153184511Y-97778724D01*
X153138220Y-97990834D01*
X153064968Y-98256537D01*
X152984500Y-98431773D01*
X152929585Y-98477667D01*
X152814564Y-98550242D01*
X152735184Y-98719935D01*
X152722333Y-98823259D01*
X152801297Y-98863433D01*
X153016799Y-98889263D01*
X153336759Y-98901921D01*
X153729096Y-98902580D01*
X154161726Y-98892415D01*
X154602570Y-98872597D01*
X155019544Y-98844300D01*
X155380569Y-98808697D01*
X155653561Y-98766962D01*
X155806439Y-98720268D01*
X155820253Y-98709970D01*
X155866009Y-98600106D01*
X155928657Y-98370104D01*
X155998549Y-98067067D01*
X156066039Y-97738098D01*
X156121479Y-97430299D01*
X156155220Y-97190773D01*
X156157616Y-97066623D01*
X157058685Y-97066623D01*
X157025254Y-97108461D01*
X156924553Y-97387145D01*
X156814423Y-97831844D01*
X156806753Y-97867313D01*
X156735299Y-98217422D01*
X156684566Y-98500116D01*
X156660787Y-98678471D01*
X156662706Y-98720929D01*
X156816197Y-98787593D01*
X157099476Y-98836221D01*
X157473983Y-98866989D01*
X157901156Y-98880077D01*
X158342433Y-98875662D01*
X158759253Y-98853923D01*
X159113053Y-98815037D01*
X159365273Y-98759182D01*
X159462890Y-98707999D01*
X159508381Y-98600779D01*
X159570422Y-98377173D01*
X159639811Y-98081816D01*
X159707348Y-97759342D01*
X159763834Y-97454382D01*
X159800068Y-97211572D01*
X159806851Y-97075544D01*
X160632490Y-97075544D01*
X160554629Y-97401518D01*
X160474463Y-97764079D01*
X160401720Y-98116070D01*
X160344114Y-98418771D01*
X160309357Y-98633460D01*
X160304996Y-98721255D01*
X160457335Y-98789595D01*
X160739515Y-98839236D01*
X161113106Y-98870411D01*
X161539678Y-98883351D01*
X161980800Y-98878289D01*
X162398042Y-98855458D01*
X162752974Y-98815091D01*
X163007165Y-98757420D01*
X163107256Y-98704300D01*
X163144084Y-98606158D01*
X163205796Y-98378510D01*
X163283069Y-98057693D01*
X163348997Y-97762212D01*
X163541862Y-96869000D01*
X167962333Y-96869000D01*
X167962333Y-97126504D01*
X167508931Y-97126504D01*
X167502710Y-97058489D01*
X167361801Y-97001665D01*
X167090181Y-96957393D01*
X166726068Y-96926524D01*
X166307682Y-96909911D01*
X165873241Y-96908405D01*
X165460962Y-96922858D01*
X165109064Y-96954123D01*
X164867037Y-96999730D01*
X164803445Y-97025864D01*
X164749269Y-97078591D01*
X164697730Y-97179973D01*
X164642050Y-97352072D01*
X164575450Y-97616950D01*
X164491153Y-97996668D01*
X164382380Y-98513290D01*
X164341426Y-98710500D01*
X164342101Y-98854535D01*
X164457419Y-98899722D01*
X164506087Y-98901000D01*
X164606244Y-98888146D01*
X164679015Y-98828335D01*
X164739795Y-98689692D01*
X164803977Y-98440343D01*
X164863886Y-98160167D01*
X164942727Y-97822736D01*
X165022882Y-97550475D01*
X165091359Y-97385083D01*
X165114095Y-97357130D01*
X165242961Y-97328252D01*
X165494697Y-97308622D01*
X165823090Y-97298213D01*
X166181931Y-97296996D01*
X166525010Y-97304943D01*
X166806115Y-97322026D01*
X166979037Y-97348216D01*
X167003624Y-97358290D01*
X167045516Y-97437943D01*
X167040431Y-97612507D01*
X166986175Y-97908743D01*
X166943016Y-98097827D01*
X166855766Y-98467112D01*
X166806590Y-98701616D01*
X166796683Y-98831823D01*
X166827242Y-98888222D01*
X166899463Y-98901298D01*
X166974533Y-98901000D01*
X167064487Y-98888685D01*
X167133513Y-98832466D01*
X167194155Y-98703438D01*
X167258958Y-98472694D01*
X167340467Y-98111327D01*
X167363150Y-98005506D01*
X167436397Y-97636752D01*
X167486767Y-97331697D01*
X167508931Y-97126504D01*
X167962333Y-97126504D01*
X167962333Y-100848334D01*
X152299000Y-100848334D01*
X152299000Y-95006334D01*
G36*
X160309438Y-106481375D02*
G01*
X160093531Y-106367770D01*
X159758531Y-106188089D01*
X159319000Y-105950239D01*
X158789500Y-105662125D01*
X158184594Y-105331651D01*
X157518844Y-104966723D01*
X156806813Y-104575247D01*
X156765504Y-104552501D01*
X153190928Y-102584000D01*
X155221464Y-102530207D01*
X155899307Y-102513850D01*
X156656391Y-102498395D01*
X157477459Y-102483947D01*
X158347256Y-102470609D01*
X159250526Y-102458485D01*
X160172014Y-102447679D01*
X161096463Y-102438293D01*
X162008618Y-102430434D01*
X162893224Y-102424203D01*
X163735025Y-102419706D01*
X164518765Y-102417045D01*
X165229188Y-102416324D01*
X165851039Y-102417648D01*
X166369062Y-102421121D01*
X166768002Y-102426845D01*
X167032603Y-102434925D01*
X167147608Y-102445465D01*
X167150766Y-102449028D01*
X167060799Y-102509400D01*
X166844908Y-102644836D01*
X166520610Y-102844781D01*
X166105425Y-103098682D01*
X165616870Y-103395985D01*
X165072466Y-103726136D01*
X164489730Y-104078580D01*
X163886181Y-104442763D01*
X163279338Y-104808132D01*
X162686719Y-105164132D01*
X162125845Y-105500209D01*
X161614232Y-105805809D01*
X161169400Y-106070379D01*
X160808868Y-106283363D01*
X160550155Y-106434208D01*
X160410778Y-106512360D01*
X160391690Y-106521001D01*
X160309438Y-106481375D01*
X160309438Y-106481375D01*
G37*
X160309438Y-106481375D02*
X160093531Y-106367770D01*
X159758531Y-106188089D01*
X159319000Y-105950239D01*
X158789500Y-105662125D01*
X158184594Y-105331651D01*
X157518844Y-104966723D01*
X156806813Y-104575247D01*
X156765504Y-104552501D01*
X153190928Y-102584000D01*
X155221464Y-102530207D01*
X155899307Y-102513850D01*
X156656391Y-102498395D01*
X157477459Y-102483947D01*
X158347256Y-102470609D01*
X159250526Y-102458485D01*
X160172014Y-102447679D01*
X161096463Y-102438293D01*
X162008618Y-102430434D01*
X162893224Y-102424203D01*
X163735025Y-102419706D01*
X164518765Y-102417045D01*
X165229188Y-102416324D01*
X165851039Y-102417648D01*
X166369062Y-102421121D01*
X166768002Y-102426845D01*
X167032603Y-102434925D01*
X167147608Y-102445465D01*
X167150766Y-102449028D01*
X167060799Y-102509400D01*
X166844908Y-102644836D01*
X166520610Y-102844781D01*
X166105425Y-103098682D01*
X165616870Y-103395985D01*
X165072466Y-103726136D01*
X164489730Y-104078580D01*
X163886181Y-104442763D01*
X163279338Y-104808132D01*
X162686719Y-105164132D01*
X162125845Y-105500209D01*
X161614232Y-105805809D01*
X161169400Y-106070379D01*
X160808868Y-106283363D01*
X160550155Y-106434208D01*
X160410778Y-106512360D01*
X160391690Y-106521001D01*
X160309438Y-106481375D01*
G36*
X157760224Y-98473573D02*
G01*
X157456955Y-98448419D01*
X157242349Y-98409184D01*
X157160172Y-98362537D01*
X157155259Y-98220668D01*
X157189813Y-97978932D01*
X157231475Y-97791037D01*
X157346958Y-97334667D01*
X158319992Y-97310958D01*
X158709247Y-97305691D01*
X159033544Y-97309247D01*
X159257146Y-97320704D01*
X159343154Y-97337377D01*
X159351874Y-97439909D01*
X159324373Y-97648113D01*
X159272570Y-97905316D01*
X159208385Y-98154846D01*
X159143737Y-98340029D01*
X159124474Y-98377132D01*
X159013049Y-98427098D01*
X158778567Y-98461410D01*
X158463374Y-98480383D01*
X158109811Y-98484333D01*
X157760224Y-98473573D01*
X157760224Y-98473573D01*
G37*
X157760224Y-98473573D02*
X157456955Y-98448419D01*
X157242349Y-98409184D01*
X157160172Y-98362537D01*
X157155259Y-98220668D01*
X157189813Y-97978932D01*
X157231475Y-97791037D01*
X157346958Y-97334667D01*
X158319992Y-97310958D01*
X158709247Y-97305691D01*
X159033544Y-97309247D01*
X159257146Y-97320704D01*
X159343154Y-97337377D01*
X159351874Y-97439909D01*
X159324373Y-97648113D01*
X159272570Y-97905316D01*
X159208385Y-98154846D01*
X159143737Y-98340029D01*
X159124474Y-98377132D01*
X159013049Y-98427098D01*
X158778567Y-98461410D01*
X158463374Y-98480383D01*
X158109811Y-98484333D01*
X157760224Y-98473573D01*
G36*
X153742410Y-98464899D02*
G01*
X153570109Y-98423830D01*
X153497528Y-98327319D01*
X153501472Y-98155750D01*
X153558750Y-97889503D01*
X153599927Y-97715667D01*
X153708346Y-97250000D01*
X154379506Y-97239300D01*
X154753495Y-97240937D01*
X155108971Y-97255276D01*
X155373607Y-97279285D01*
X155389333Y-97281634D01*
X155604643Y-97326116D01*
X155694933Y-97396684D01*
X155703670Y-97536343D01*
X155698191Y-97587207D01*
X155649506Y-97848781D01*
X155573259Y-98130493D01*
X155570968Y-98137541D01*
X155473554Y-98435334D01*
X154478943Y-98459187D01*
X154037624Y-98470146D01*
X153742410Y-98464899D01*
X153742410Y-98464899D01*
G37*
X153742410Y-98464899D02*
X153570109Y-98423830D01*
X153497528Y-98327319D01*
X153501472Y-98155750D01*
X153558750Y-97889503D01*
X153599927Y-97715667D01*
X153708346Y-97250000D01*
X154379506Y-97239300D01*
X154753495Y-97240937D01*
X155108971Y-97255276D01*
X155373607Y-97279285D01*
X155389333Y-97281634D01*
X155604643Y-97326116D01*
X155694933Y-97396684D01*
X155703670Y-97536343D01*
X155698191Y-97587207D01*
X155649506Y-97848781D01*
X155573259Y-98130493D01*
X155570968Y-98137541D01*
X155473554Y-98435334D01*
X154478943Y-98459187D01*
X154037624Y-98470146D01*
X153742410Y-98464899D01*
G36*
X167947000Y-86359666D02*
G01*
X152283667Y-86359666D01*
X152283667Y-85682333D01*
X160777613Y-85682333D01*
X161180579Y-85682333D01*
X161425664Y-85674626D01*
X161552905Y-85630986D01*
X161613715Y-85520634D01*
X161640201Y-85407166D01*
X161688654Y-85177888D01*
X161757578Y-84858864D01*
X161820189Y-84573071D01*
X161943521Y-84014142D01*
X164035094Y-83959998D01*
X164637318Y-83942698D01*
X165204288Y-83923216D01*
X165707212Y-83902791D01*
X166117294Y-83882663D01*
X166405740Y-83864069D01*
X166514955Y-83853314D01*
X166903243Y-83800773D01*
X167114245Y-82837642D01*
X167208071Y-82418363D01*
X167261073Y-82135267D01*
X167257699Y-81957101D01*
X167182400Y-81852610D01*
X167019626Y-81790542D01*
X166753826Y-81739642D01*
X166550000Y-81703599D01*
X165665248Y-81590180D01*
X164678976Y-81549790D01*
X163641746Y-81581002D01*
X162604124Y-81682385D01*
X161668107Y-81841545D01*
X161342953Y-81912871D01*
X161144919Y-81973955D01*
X161035398Y-82049311D01*
X160975782Y-82163457D01*
X160936277Y-82306270D01*
X160853005Y-82634333D01*
X161140336Y-82634333D01*
X161332750Y-82640179D01*
X161426022Y-82654496D01*
X161427667Y-82656912D01*
X161410639Y-82742767D01*
X161363326Y-82967571D01*
X161291386Y-83304797D01*
X161200476Y-83727917D01*
X161102640Y-84180912D01*
X160777613Y-85682333D01*
X152283667Y-85682333D01*
X152283667Y-85333793D01*
X153623572Y-85333793D01*
X153627667Y-85362809D01*
X153730641Y-85399428D01*
X153963918Y-85450177D01*
X154289852Y-85507578D01*
X154571876Y-85550411D01*
X155166748Y-85610073D01*
X155871096Y-85641257D01*
X156627580Y-85644567D01*
X157378858Y-85620609D01*
X158067590Y-85569988D01*
X158549000Y-85508428D01*
X158862190Y-85451420D01*
X159108262Y-85396003D01*
X159240791Y-85352843D01*
X159248452Y-85347704D01*
X159282046Y-85254333D01*
X159343558Y-85024504D01*
X159426438Y-84687547D01*
X159524139Y-84272793D01*
X159630113Y-83809574D01*
X159737812Y-83327219D01*
X159840687Y-82855059D01*
X159932192Y-82422426D01*
X160005777Y-82058649D01*
X160054895Y-81793060D01*
X160072998Y-81654989D01*
X160073000Y-81654291D01*
X160013849Y-81572373D01*
X159821196Y-81536665D01*
X159700499Y-81533666D01*
X159327998Y-81533666D01*
X159194358Y-82147500D01*
X159118907Y-82496074D01*
X159022823Y-82942836D01*
X158920593Y-83420325D01*
X158857111Y-83718025D01*
X158774085Y-84098154D01*
X158701360Y-84412724D01*
X158647117Y-84627534D01*
X158620404Y-84707818D01*
X158513552Y-84741028D01*
X158277230Y-84780085D01*
X157951011Y-84820909D01*
X157574466Y-84859419D01*
X157187169Y-84891536D01*
X156828691Y-84913179D01*
X156559334Y-84920333D01*
X156296999Y-84912577D01*
X155958416Y-84891861D01*
X155583527Y-84862010D01*
X155212274Y-84826849D01*
X154884600Y-84790204D01*
X154640445Y-84755901D01*
X154519752Y-84727765D01*
X154514975Y-84724530D01*
X154526797Y-84640762D01*
X154569568Y-84417757D01*
X154637966Y-84081681D01*
X154726668Y-83658700D01*
X154828310Y-83184404D01*
X154933104Y-82697102D01*
X155024392Y-82266825D01*
X155096472Y-81920937D01*
X155143638Y-81686802D01*
X155160183Y-81592527D01*
X155085981Y-81557541D01*
X154894988Y-81545524D01*
X154766703Y-81550194D01*
X154371072Y-81576000D01*
X153970660Y-83438666D01*
X153857721Y-83978036D01*
X153762205Y-84461570D01*
X153688449Y-84864931D01*
X153640792Y-85163784D01*
X153623572Y-85333793D01*
X152283667Y-85333793D01*
X152283667Y-80517666D01*
X167947000Y-80517666D01*
X167947000Y-86359666D01*
X167947000Y-86359666D01*
G37*
X167947000Y-86359666D02*
X152283667Y-86359666D01*
X152283667Y-85682333D01*
X160777613Y-85682333D01*
X161180579Y-85682333D01*
X161425664Y-85674626D01*
X161552905Y-85630986D01*
X161613715Y-85520634D01*
X161640201Y-85407166D01*
X161688654Y-85177888D01*
X161757578Y-84858864D01*
X161820189Y-84573071D01*
X161943521Y-84014142D01*
X164035094Y-83959998D01*
X164637318Y-83942698D01*
X165204288Y-83923216D01*
X165707212Y-83902791D01*
X166117294Y-83882663D01*
X166405740Y-83864069D01*
X166514955Y-83853314D01*
X166903243Y-83800773D01*
X167114245Y-82837642D01*
X167208071Y-82418363D01*
X167261073Y-82135267D01*
X167257699Y-81957101D01*
X167182400Y-81852610D01*
X167019626Y-81790542D01*
X166753826Y-81739642D01*
X166550000Y-81703599D01*
X165665248Y-81590180D01*
X164678976Y-81549790D01*
X163641746Y-81581002D01*
X162604124Y-81682385D01*
X161668107Y-81841545D01*
X161342953Y-81912871D01*
X161144919Y-81973955D01*
X161035398Y-82049311D01*
X160975782Y-82163457D01*
X160936277Y-82306270D01*
X160853005Y-82634333D01*
X161140336Y-82634333D01*
X161332750Y-82640179D01*
X161426022Y-82654496D01*
X161427667Y-82656912D01*
X161410639Y-82742767D01*
X161363326Y-82967571D01*
X161291386Y-83304797D01*
X161200476Y-83727917D01*
X161102640Y-84180912D01*
X160777613Y-85682333D01*
X152283667Y-85682333D01*
X152283667Y-85333793D01*
X153623572Y-85333793D01*
X153627667Y-85362809D01*
X153730641Y-85399428D01*
X153963918Y-85450177D01*
X154289852Y-85507578D01*
X154571876Y-85550411D01*
X155166748Y-85610073D01*
X155871096Y-85641257D01*
X156627580Y-85644567D01*
X157378858Y-85620609D01*
X158067590Y-85569988D01*
X158549000Y-85508428D01*
X158862190Y-85451420D01*
X159108262Y-85396003D01*
X159240791Y-85352843D01*
X159248452Y-85347704D01*
X159282046Y-85254333D01*
X159343558Y-85024504D01*
X159426438Y-84687547D01*
X159524139Y-84272793D01*
X159630113Y-83809574D01*
X159737812Y-83327219D01*
X159840687Y-82855059D01*
X159932192Y-82422426D01*
X160005777Y-82058649D01*
X160054895Y-81793060D01*
X160072998Y-81654989D01*
X160073000Y-81654291D01*
X160013849Y-81572373D01*
X159821196Y-81536665D01*
X159700499Y-81533666D01*
X159327998Y-81533666D01*
X159194358Y-82147500D01*
X159118907Y-82496074D01*
X159022823Y-82942836D01*
X158920593Y-83420325D01*
X158857111Y-83718025D01*
X158774085Y-84098154D01*
X158701360Y-84412724D01*
X158647117Y-84627534D01*
X158620404Y-84707818D01*
X158513552Y-84741028D01*
X158277230Y-84780085D01*
X157951011Y-84820909D01*
X157574466Y-84859419D01*
X157187169Y-84891536D01*
X156828691Y-84913179D01*
X156559334Y-84920333D01*
X156296999Y-84912577D01*
X155958416Y-84891861D01*
X155583527Y-84862010D01*
X155212274Y-84826849D01*
X154884600Y-84790204D01*
X154640445Y-84755901D01*
X154519752Y-84727765D01*
X154514975Y-84724530D01*
X154526797Y-84640762D01*
X154569568Y-84417757D01*
X154637966Y-84081681D01*
X154726668Y-83658700D01*
X154828310Y-83184404D01*
X154933104Y-82697102D01*
X155024392Y-82266825D01*
X155096472Y-81920937D01*
X155143638Y-81686802D01*
X155160183Y-81592527D01*
X155085981Y-81557541D01*
X154894988Y-81545524D01*
X154766703Y-81550194D01*
X154371072Y-81576000D01*
X153970660Y-83438666D01*
X153857721Y-83978036D01*
X153762205Y-84461570D01*
X153688449Y-84864931D01*
X153640792Y-85163784D01*
X153623572Y-85333793D01*
X152283667Y-85333793D01*
X152283667Y-80517666D01*
X167947000Y-80517666D01*
X167947000Y-86359666D01*
G36*
X159936562Y-74884625D02*
G01*
X160152469Y-74998230D01*
X160487469Y-75177911D01*
X160927000Y-75415761D01*
X161456500Y-75703875D01*
X162061406Y-76034349D01*
X162727156Y-76399277D01*
X163439187Y-76790753D01*
X163480496Y-76813499D01*
X167055072Y-78782000D01*
X165024536Y-78835793D01*
X164346693Y-78852150D01*
X163589609Y-78867605D01*
X162768541Y-78882053D01*
X161898744Y-78895391D01*
X160995474Y-78907515D01*
X160073986Y-78918321D01*
X159149537Y-78927707D01*
X158237382Y-78935566D01*
X157352776Y-78941797D01*
X156510975Y-78946294D01*
X155727235Y-78948955D01*
X155016812Y-78949676D01*
X154394961Y-78948352D01*
X153876938Y-78944879D01*
X153477998Y-78939155D01*
X153213397Y-78931075D01*
X153098392Y-78920535D01*
X153095234Y-78916972D01*
X153185201Y-78856600D01*
X153401092Y-78721164D01*
X153725390Y-78521219D01*
X154140575Y-78267318D01*
X154629130Y-77970015D01*
X155173534Y-77639864D01*
X155756270Y-77287420D01*
X156359819Y-76923237D01*
X156966662Y-76557868D01*
X157559281Y-76201868D01*
X158120155Y-75865791D01*
X158631768Y-75560191D01*
X159076600Y-75295621D01*
X159437132Y-75082637D01*
X159695845Y-74931792D01*
X159835222Y-74853640D01*
X159854310Y-74844999D01*
X159936562Y-74884625D01*
X159936562Y-74884625D01*
G37*
X159936562Y-74884625D02*
X160152469Y-74998230D01*
X160487469Y-75177911D01*
X160927000Y-75415761D01*
X161456500Y-75703875D01*
X162061406Y-76034349D01*
X162727156Y-76399277D01*
X163439187Y-76790753D01*
X163480496Y-76813499D01*
X167055072Y-78782000D01*
X165024536Y-78835793D01*
X164346693Y-78852150D01*
X163589609Y-78867605D01*
X162768541Y-78882053D01*
X161898744Y-78895391D01*
X160995474Y-78907515D01*
X160073986Y-78918321D01*
X159149537Y-78927707D01*
X158237382Y-78935566D01*
X157352776Y-78941797D01*
X156510975Y-78946294D01*
X155727235Y-78948955D01*
X155016812Y-78949676D01*
X154394961Y-78948352D01*
X153876938Y-78944879D01*
X153477998Y-78939155D01*
X153213397Y-78931075D01*
X153098392Y-78920535D01*
X153095234Y-78916972D01*
X153185201Y-78856600D01*
X153401092Y-78721164D01*
X153725390Y-78521219D01*
X154140575Y-78267318D01*
X154629130Y-77970015D01*
X155173534Y-77639864D01*
X155756270Y-77287420D01*
X156359819Y-76923237D01*
X156966662Y-76557868D01*
X157559281Y-76201868D01*
X158120155Y-75865791D01*
X158631768Y-75560191D01*
X159076600Y-75295621D01*
X159437132Y-75082637D01*
X159695845Y-74931792D01*
X159835222Y-74853640D01*
X159854310Y-74844999D01*
X159936562Y-74884625D01*
G36*
X164948718Y-82351714D02*
G01*
X165411861Y-82369753D01*
X165772634Y-82397668D01*
X165851500Y-82407592D01*
X166127285Y-82454407D01*
X166273869Y-82508279D01*
X166330745Y-82590969D01*
X166338334Y-82675834D01*
X166337710Y-82817895D01*
X166322995Y-82927751D01*
X166274922Y-83009538D01*
X166174226Y-83067390D01*
X166001640Y-83105441D01*
X165737898Y-83127827D01*
X165363733Y-83138681D01*
X164859879Y-83142139D01*
X164207071Y-83142335D01*
X164164570Y-83142333D01*
X163519438Y-83141630D01*
X163024476Y-83138587D01*
X162660524Y-83131807D01*
X162408419Y-83119891D01*
X162249003Y-83101439D01*
X162163113Y-83075054D01*
X162131589Y-83039335D01*
X162134910Y-82994166D01*
X162192970Y-82788298D01*
X162229544Y-82660048D01*
X162308562Y-82531590D01*
X162482983Y-82450213D01*
X162680762Y-82408957D01*
X162977196Y-82377914D01*
X163397446Y-82356649D01*
X163896274Y-82345181D01*
X164428444Y-82343529D01*
X164948718Y-82351714D01*
X164948718Y-82351714D01*
G37*
X164948718Y-82351714D02*
X165411861Y-82369753D01*
X165772634Y-82397668D01*
X165851500Y-82407592D01*
X166127285Y-82454407D01*
X166273869Y-82508279D01*
X166330745Y-82590969D01*
X166338334Y-82675834D01*
X166337710Y-82817895D01*
X166322995Y-82927751D01*
X166274922Y-83009538D01*
X166174226Y-83067390D01*
X166001640Y-83105441D01*
X165737898Y-83127827D01*
X165363733Y-83138681D01*
X164859879Y-83142139D01*
X164207071Y-83142335D01*
X164164570Y-83142333D01*
X163519438Y-83141630D01*
X163024476Y-83138587D01*
X162660524Y-83131807D01*
X162408419Y-83119891D01*
X162249003Y-83101439D01*
X162163113Y-83075054D01*
X162131589Y-83039335D01*
X162134910Y-82994166D01*
X162192970Y-82788298D01*
X162229544Y-82660048D01*
X162308562Y-82531590D01*
X162482983Y-82450213D01*
X162680762Y-82408957D01*
X162977196Y-82377914D01*
X163397446Y-82356649D01*
X163896274Y-82345181D01*
X164428444Y-82343529D01*
X164948718Y-82351714D01*
G36*
X145474266Y-93254779D02*
G01*
X145572582Y-93326523D01*
X145777129Y-93483765D01*
X146061890Y-93706248D01*
X146400847Y-93973716D01*
X146562233Y-94101848D01*
X146915432Y-94378017D01*
X147225935Y-94611836D01*
X147468109Y-94784686D01*
X147616323Y-94877950D01*
X147645930Y-94889000D01*
X147745505Y-94847558D01*
X147965513Y-94732331D01*
X148281371Y-94556961D01*
X148668498Y-94335093D01*
X149095075Y-94084667D01*
X149527089Y-93830604D01*
X149910656Y-93609535D01*
X150221540Y-93435066D01*
X150435506Y-93320799D01*
X150528037Y-93280333D01*
X150619927Y-93350101D01*
X150724564Y-93513472D01*
X150807088Y-93701544D01*
X150832639Y-93845416D01*
X150825243Y-93867752D01*
X150740087Y-93932660D01*
X150532648Y-94066244D01*
X150227714Y-94253253D01*
X149850075Y-94478437D01*
X149503703Y-94680786D01*
X149094405Y-94923219D01*
X148747525Y-95139146D01*
X148485145Y-95313945D01*
X148329348Y-95432992D01*
X148297420Y-95479609D01*
X148387460Y-95552195D01*
X148583192Y-95706794D01*
X148856671Y-95921424D01*
X149179953Y-96174101D01*
X149213333Y-96200137D01*
X149538583Y-96454322D01*
X149815366Y-96671627D01*
X150016246Y-96830440D01*
X150113786Y-96909149D01*
X150116910Y-96911882D01*
X150099722Y-96999236D01*
X149993982Y-97167343D01*
X149893181Y-97295213D01*
X149612542Y-97627093D01*
X148608604Y-96838675D01*
X148250529Y-96557508D01*
X147935757Y-96310415D01*
X147690229Y-96117754D01*
X147539887Y-95999885D01*
X147509696Y-95976276D01*
X147395681Y-95987468D01*
X147153153Y-96089335D01*
X146793142Y-96276629D01*
X146366696Y-96520435D01*
X145950566Y-96765606D01*
X145549763Y-97001273D01*
X145204869Y-97203606D01*
X144956467Y-97348773D01*
X144919584Y-97370215D01*
X144520503Y-97601855D01*
X144390418Y-97350299D01*
X144300805Y-97154799D01*
X144260506Y-97022998D01*
X144260333Y-97018507D01*
X144329717Y-96950216D01*
X144521047Y-96814749D01*
X144809089Y-96628670D01*
X145168609Y-96408540D01*
X145382166Y-96282174D01*
X145783627Y-96046438D01*
X146142056Y-95834212D01*
X146427770Y-95663205D01*
X146611084Y-95551126D01*
X146654042Y-95523420D01*
X146699769Y-95473520D01*
X146690250Y-95405294D01*
X146609232Y-95301517D01*
X146440463Y-95144964D01*
X146167688Y-94918411D01*
X145823954Y-94643692D01*
X144843823Y-93866620D01*
X145109845Y-93530741D01*
X145291762Y-93335105D01*
X145431816Y-93249983D01*
X145474266Y-93254779D01*
X145474266Y-93254779D01*
G37*
X145474266Y-93254779D02*
X145572582Y-93326523D01*
X145777129Y-93483765D01*
X146061890Y-93706248D01*
X146400847Y-93973716D01*
X146562233Y-94101848D01*
X146915432Y-94378017D01*
X147225935Y-94611836D01*
X147468109Y-94784686D01*
X147616323Y-94877950D01*
X147645930Y-94889000D01*
X147745505Y-94847558D01*
X147965513Y-94732331D01*
X148281371Y-94556961D01*
X148668498Y-94335093D01*
X149095075Y-94084667D01*
X149527089Y-93830604D01*
X149910656Y-93609535D01*
X150221540Y-93435066D01*
X150435506Y-93320799D01*
X150528037Y-93280333D01*
X150619927Y-93350101D01*
X150724564Y-93513472D01*
X150807088Y-93701544D01*
X150832639Y-93845416D01*
X150825243Y-93867752D01*
X150740087Y-93932660D01*
X150532648Y-94066244D01*
X150227714Y-94253253D01*
X149850075Y-94478437D01*
X149503703Y-94680786D01*
X149094405Y-94923219D01*
X148747525Y-95139146D01*
X148485145Y-95313945D01*
X148329348Y-95432992D01*
X148297420Y-95479609D01*
X148387460Y-95552195D01*
X148583192Y-95706794D01*
X148856671Y-95921424D01*
X149179953Y-96174101D01*
X149213333Y-96200137D01*
X149538583Y-96454322D01*
X149815366Y-96671627D01*
X150016246Y-96830440D01*
X150113786Y-96909149D01*
X150116910Y-96911882D01*
X150099722Y-96999236D01*
X149993982Y-97167343D01*
X149893181Y-97295213D01*
X149612542Y-97627093D01*
X148608604Y-96838675D01*
X148250529Y-96557508D01*
X147935757Y-96310415D01*
X147690229Y-96117754D01*
X147539887Y-95999885D01*
X147509696Y-95976276D01*
X147395681Y-95987468D01*
X147153153Y-96089335D01*
X146793142Y-96276629D01*
X146366696Y-96520435D01*
X145950566Y-96765606D01*
X145549763Y-97001273D01*
X145204869Y-97203606D01*
X144956467Y-97348773D01*
X144919584Y-97370215D01*
X144520503Y-97601855D01*
X144390418Y-97350299D01*
X144300805Y-97154799D01*
X144260506Y-97022998D01*
X144260333Y-97018507D01*
X144329717Y-96950216D01*
X144521047Y-96814749D01*
X144809089Y-96628670D01*
X145168609Y-96408540D01*
X145382166Y-96282174D01*
X145783627Y-96046438D01*
X146142056Y-95834212D01*
X146427770Y-95663205D01*
X146611084Y-95551126D01*
X146654042Y-95523420D01*
X146699769Y-95473520D01*
X146690250Y-95405294D01*
X146609232Y-95301517D01*
X146440463Y-95144964D01*
X146167688Y-94918411D01*
X145823954Y-94643692D01*
X144843823Y-93866620D01*
X145109845Y-93530741D01*
X145291762Y-93335105D01*
X145431816Y-93249983D01*
X145474266Y-93254779D01*
G36*
X133719074Y-93208933D02*
G01*
X134323728Y-93218900D01*
X134875967Y-93236327D01*
X135351765Y-93260839D01*
X135727098Y-93292063D01*
X135977939Y-93329626D01*
X136075886Y-93366831D01*
X136076878Y-93462706D01*
X136045858Y-93679290D01*
X135992005Y-93973045D01*
X135924498Y-94300434D01*
X135852516Y-94617917D01*
X135785236Y-94881957D01*
X135731838Y-95049016D01*
X135714437Y-95081338D01*
X135600546Y-95135045D01*
X135384036Y-95193599D01*
X135279595Y-95214585D01*
X134904666Y-95282494D01*
X135264500Y-95347189D01*
X135440939Y-95384915D01*
X135553307Y-95441873D01*
X135606891Y-95547129D01*
X135606981Y-95729751D01*
X135558865Y-96018805D01*
X135467832Y-96443358D01*
X135465703Y-96453010D01*
X135388906Y-96786635D01*
X135324966Y-96991536D01*
X135251986Y-97104717D01*
X135148063Y-97163180D01*
X135026056Y-97195858D01*
X134823872Y-97222933D01*
X134482204Y-97246732D01*
X134030877Y-97266873D01*
X133499716Y-97282972D01*
X132918547Y-97294646D01*
X132317195Y-97301514D01*
X131725483Y-97303192D01*
X131173238Y-97299296D01*
X130690284Y-97289446D01*
X130306446Y-97273256D01*
X130121000Y-97258821D01*
X129619969Y-97203482D01*
X129266956Y-97154813D01*
X129041027Y-97108096D01*
X128921250Y-97058612D01*
X128886692Y-97001644D01*
X128890113Y-96981386D01*
X128931135Y-96824625D01*
X128971135Y-96651437D01*
X129052260Y-96489048D01*
X130269576Y-96489048D01*
X130809121Y-96525581D01*
X131094934Y-96537377D01*
X131480008Y-96542592D01*
X131935006Y-96541952D01*
X132430593Y-96536183D01*
X132937431Y-96526012D01*
X133426183Y-96512166D01*
X133867515Y-96495371D01*
X134232088Y-96476353D01*
X134490568Y-96455840D01*
X134613616Y-96434559D01*
X134618693Y-96431224D01*
X134685776Y-96307610D01*
X134729129Y-96187706D01*
X134743429Y-96090947D01*
X134695611Y-96020640D01*
X134554604Y-95958466D01*
X134289338Y-95886105D01*
X134167145Y-95856365D01*
X133868788Y-95801503D01*
X133477163Y-95753969D01*
X133020547Y-95714573D01*
X132527221Y-95684125D01*
X132025462Y-95663435D01*
X131543550Y-95653314D01*
X131109762Y-95654570D01*
X130752378Y-95668016D01*
X130499676Y-95694459D01*
X130379934Y-95734712D01*
X130374068Y-95747704D01*
X130360248Y-95904018D01*
X130327549Y-96137616D01*
X130321356Y-96175857D01*
X130269576Y-96489048D01*
X129052260Y-96489048D01*
X129063804Y-96465941D01*
X129248188Y-96397437D01*
X129341778Y-96379163D01*
X129413417Y-96331887D01*
X129474141Y-96228707D01*
X129534990Y-96042718D01*
X129607002Y-95747018D01*
X129701214Y-95314705D01*
X129710770Y-95270000D01*
X129791458Y-94889000D01*
X130609773Y-94889000D01*
X131656553Y-94887533D01*
X132158332Y-94879638D01*
X132690734Y-94859463D01*
X133180725Y-94830325D01*
X133472222Y-94805034D01*
X133880638Y-94756473D01*
X134284174Y-94699283D01*
X134610968Y-94643881D01*
X134678722Y-94630152D01*
X134934670Y-94566981D01*
X135065047Y-94499006D01*
X135111465Y-94394536D01*
X135116333Y-94296918D01*
X135110536Y-94179756D01*
X135070679Y-94105595D01*
X134963061Y-94060192D01*
X134753983Y-94029300D01*
X134411019Y-93998782D01*
X134125587Y-93982799D01*
X133742460Y-93972355D01*
X133291716Y-93967089D01*
X132803429Y-93966643D01*
X132307676Y-93970656D01*
X131834533Y-93978769D01*
X131414076Y-93990621D01*
X131076380Y-94005853D01*
X130851521Y-94024105D01*
X130770912Y-94042333D01*
X130735126Y-94144296D01*
X130691078Y-94355372D01*
X130669639Y-94486833D01*
X130609773Y-94889000D01*
X129791458Y-94889000D01*
X129798050Y-94857874D01*
X129871110Y-94506099D01*
X129923251Y-94247439D01*
X129947774Y-94114657D01*
X129948788Y-94105833D01*
X129878270Y-94058877D01*
X129730577Y-94042333D01*
X129589286Y-94029473D01*
X129540120Y-93958641D01*
X129558427Y-93781460D01*
X129568795Y-93724833D01*
X129610889Y-93516727D01*
X129640996Y-93398317D01*
X129645054Y-93389885D01*
X129730826Y-93376909D01*
X129953292Y-93353857D01*
X130280324Y-93323803D01*
X130679795Y-93289824D01*
X130750465Y-93284052D01*
X131256814Y-93251122D01*
X131830875Y-93227519D01*
X132448622Y-93212869D01*
X133086030Y-93206798D01*
X133719074Y-93208933D01*
X133719074Y-93208933D01*
G37*
X133719074Y-93208933D02*
X134323728Y-93218900D01*
X134875967Y-93236327D01*
X135351765Y-93260839D01*
X135727098Y-93292063D01*
X135977939Y-93329626D01*
X136075886Y-93366831D01*
X136076878Y-93462706D01*
X136045858Y-93679290D01*
X135992005Y-93973045D01*
X135924498Y-94300434D01*
X135852516Y-94617917D01*
X135785236Y-94881957D01*
X135731838Y-95049016D01*
X135714437Y-95081338D01*
X135600546Y-95135045D01*
X135384036Y-95193599D01*
X135279595Y-95214585D01*
X134904666Y-95282494D01*
X135264500Y-95347189D01*
X135440939Y-95384915D01*
X135553307Y-95441873D01*
X135606891Y-95547129D01*
X135606981Y-95729751D01*
X135558865Y-96018805D01*
X135467832Y-96443358D01*
X135465703Y-96453010D01*
X135388906Y-96786635D01*
X135324966Y-96991536D01*
X135251986Y-97104717D01*
X135148063Y-97163180D01*
X135026056Y-97195858D01*
X134823872Y-97222933D01*
X134482204Y-97246732D01*
X134030877Y-97266873D01*
X133499716Y-97282972D01*
X132918547Y-97294646D01*
X132317195Y-97301514D01*
X131725483Y-97303192D01*
X131173238Y-97299296D01*
X130690284Y-97289446D01*
X130306446Y-97273256D01*
X130121000Y-97258821D01*
X129619969Y-97203482D01*
X129266956Y-97154813D01*
X129041027Y-97108096D01*
X128921250Y-97058612D01*
X128886692Y-97001644D01*
X128890113Y-96981386D01*
X128931135Y-96824625D01*
X128971135Y-96651437D01*
X129052260Y-96489048D01*
X130269576Y-96489048D01*
X130809121Y-96525581D01*
X131094934Y-96537377D01*
X131480008Y-96542592D01*
X131935006Y-96541952D01*
X132430593Y-96536183D01*
X132937431Y-96526012D01*
X133426183Y-96512166D01*
X133867515Y-96495371D01*
X134232088Y-96476353D01*
X134490568Y-96455840D01*
X134613616Y-96434559D01*
X134618693Y-96431224D01*
X134685776Y-96307610D01*
X134729129Y-96187706D01*
X134743429Y-96090947D01*
X134695611Y-96020640D01*
X134554604Y-95958466D01*
X134289338Y-95886105D01*
X134167145Y-95856365D01*
X133868788Y-95801503D01*
X133477163Y-95753969D01*
X133020547Y-95714573D01*
X132527221Y-95684125D01*
X132025462Y-95663435D01*
X131543550Y-95653314D01*
X131109762Y-95654570D01*
X130752378Y-95668016D01*
X130499676Y-95694459D01*
X130379934Y-95734712D01*
X130374068Y-95747704D01*
X130360248Y-95904018D01*
X130327549Y-96137616D01*
X130321356Y-96175857D01*
X130269576Y-96489048D01*
X129052260Y-96489048D01*
X129063804Y-96465941D01*
X129248188Y-96397437D01*
X129341778Y-96379163D01*
X129413417Y-96331887D01*
X129474141Y-96228707D01*
X129534990Y-96042718D01*
X129607002Y-95747018D01*
X129701214Y-95314705D01*
X129710770Y-95270000D01*
X129791458Y-94889000D01*
X130609773Y-94889000D01*
X131656553Y-94887533D01*
X132158332Y-94879638D01*
X132690734Y-94859463D01*
X133180725Y-94830325D01*
X133472222Y-94805034D01*
X133880638Y-94756473D01*
X134284174Y-94699283D01*
X134610968Y-94643881D01*
X134678722Y-94630152D01*
X134934670Y-94566981D01*
X135065047Y-94499006D01*
X135111465Y-94394536D01*
X135116333Y-94296918D01*
X135110536Y-94179756D01*
X135070679Y-94105595D01*
X134963061Y-94060192D01*
X134753983Y-94029300D01*
X134411019Y-93998782D01*
X134125587Y-93982799D01*
X133742460Y-93972355D01*
X133291716Y-93967089D01*
X132803429Y-93966643D01*
X132307676Y-93970656D01*
X131834533Y-93978769D01*
X131414076Y-93990621D01*
X131076380Y-94005853D01*
X130851521Y-94024105D01*
X130770912Y-94042333D01*
X130735126Y-94144296D01*
X130691078Y-94355372D01*
X130669639Y-94486833D01*
X130609773Y-94889000D01*
X129791458Y-94889000D01*
X129798050Y-94857874D01*
X129871110Y-94506099D01*
X129923251Y-94247439D01*
X129947774Y-94114657D01*
X129948788Y-94105833D01*
X129878270Y-94058877D01*
X129730577Y-94042333D01*
X129589286Y-94029473D01*
X129540120Y-93958641D01*
X129558427Y-93781460D01*
X129568795Y-93724833D01*
X129610889Y-93516727D01*
X129640996Y-93398317D01*
X129645054Y-93389885D01*
X129730826Y-93376909D01*
X129953292Y-93353857D01*
X130280324Y-93323803D01*
X130679795Y-93289824D01*
X130750465Y-93284052D01*
X131256814Y-93251122D01*
X131830875Y-93227519D01*
X132448622Y-93212869D01*
X133086030Y-93206798D01*
X133719074Y-93208933D01*
G36*
X140873666Y-93240131D02*
G01*
X141688316Y-93258868D01*
X142419843Y-93310475D01*
X143039778Y-93392176D01*
X143505464Y-93496924D01*
X143547271Y-93527652D01*
X143567410Y-93602899D01*
X143563141Y-93743433D01*
X143531724Y-93970023D01*
X143470419Y-94303435D01*
X143376488Y-94764440D01*
X143275087Y-95243395D01*
X143162329Y-95759643D01*
X143057288Y-96218867D01*
X142966206Y-96595471D01*
X142895326Y-96863860D01*
X142850891Y-96998441D01*
X142844622Y-97008201D01*
X142708194Y-97060084D01*
X142433551Y-97113559D01*
X142051766Y-97166273D01*
X141593911Y-97215875D01*
X141091059Y-97260014D01*
X140574282Y-97296339D01*
X140074653Y-97322498D01*
X139623245Y-97336140D01*
X139251130Y-97334913D01*
X138989381Y-97316466D01*
X138926333Y-97304708D01*
X138789827Y-97280083D01*
X138530455Y-97240671D01*
X138193314Y-97193175D01*
X138013323Y-97168975D01*
X137668671Y-97118692D01*
X137393847Y-97069778D01*
X137227602Y-97029580D01*
X137196658Y-97014148D01*
X137204292Y-96919706D01*
X137243350Y-96690499D01*
X137302324Y-96382997D01*
X138106613Y-96382997D01*
X138191499Y-96400942D01*
X138400486Y-96434206D01*
X138689812Y-96475859D01*
X138714666Y-96479284D01*
X139571350Y-96555066D01*
X140486919Y-96563706D01*
X141364604Y-96504737D01*
X141466684Y-96492608D01*
X141797518Y-96443344D01*
X142059496Y-96389754D01*
X142210454Y-96341026D01*
X142229544Y-96326374D01*
X142268076Y-96210562D01*
X142325665Y-95974618D01*
X142394797Y-95657144D01*
X142467960Y-95296743D01*
X142537638Y-94932019D01*
X142596320Y-94601575D01*
X142636492Y-94344013D01*
X142650640Y-94197939D01*
X142647401Y-94179440D01*
X142535056Y-94140992D01*
X142294068Y-94097309D01*
X141964843Y-94052933D01*
X141587787Y-94012409D01*
X141203309Y-93980278D01*
X140851816Y-93961084D01*
X140674819Y-93957667D01*
X140367308Y-93966226D01*
X139997755Y-93989182D01*
X139605471Y-94022452D01*
X139229770Y-94061953D01*
X138909962Y-94103602D01*
X138685362Y-94143317D01*
X138597728Y-94173383D01*
X138568660Y-94262422D01*
X138513915Y-94477709D01*
X138441796Y-94781880D01*
X138360609Y-95137569D01*
X138278658Y-95507411D01*
X138204249Y-95854043D01*
X138145686Y-96140099D01*
X138111273Y-96328214D01*
X138106613Y-96382997D01*
X137302324Y-96382997D01*
X137307349Y-96356797D01*
X137389809Y-95948871D01*
X137484249Y-95496993D01*
X137584187Y-95031433D01*
X137683142Y-94582462D01*
X137774633Y-94180352D01*
X137852179Y-93855374D01*
X137909299Y-93637797D01*
X137935884Y-93561488D01*
X138057508Y-93494474D01*
X138321453Y-93429571D01*
X138700709Y-93369732D01*
X139168266Y-93317913D01*
X139697113Y-93277068D01*
X140260241Y-93250152D01*
X140830638Y-93240119D01*
X140873666Y-93240131D01*
X140873666Y-93240131D01*
G37*
X140873666Y-93240131D02*
X141688316Y-93258868D01*
X142419843Y-93310475D01*
X143039778Y-93392176D01*
X143505464Y-93496924D01*
X143547271Y-93527652D01*
X143567410Y-93602899D01*
X143563141Y-93743433D01*
X143531724Y-93970023D01*
X143470419Y-94303435D01*
X143376488Y-94764440D01*
X143275087Y-95243395D01*
X143162329Y-95759643D01*
X143057288Y-96218867D01*
X142966206Y-96595471D01*
X142895326Y-96863860D01*
X142850891Y-96998441D01*
X142844622Y-97008201D01*
X142708194Y-97060084D01*
X142433551Y-97113559D01*
X142051766Y-97166273D01*
X141593911Y-97215875D01*
X141091059Y-97260014D01*
X140574282Y-97296339D01*
X140074653Y-97322498D01*
X139623245Y-97336140D01*
X139251130Y-97334913D01*
X138989381Y-97316466D01*
X138926333Y-97304708D01*
X138789827Y-97280083D01*
X138530455Y-97240671D01*
X138193314Y-97193175D01*
X138013323Y-97168975D01*
X137668671Y-97118692D01*
X137393847Y-97069778D01*
X137227602Y-97029580D01*
X137196658Y-97014148D01*
X137204292Y-96919706D01*
X137243350Y-96690499D01*
X137302324Y-96382997D01*
X138106613Y-96382997D01*
X138191499Y-96400942D01*
X138400486Y-96434206D01*
X138689812Y-96475859D01*
X138714666Y-96479284D01*
X139571350Y-96555066D01*
X140486919Y-96563706D01*
X141364604Y-96504737D01*
X141466684Y-96492608D01*
X141797518Y-96443344D01*
X142059496Y-96389754D01*
X142210454Y-96341026D01*
X142229544Y-96326374D01*
X142268076Y-96210562D01*
X142325665Y-95974618D01*
X142394797Y-95657144D01*
X142467960Y-95296743D01*
X142537638Y-94932019D01*
X142596320Y-94601575D01*
X142636492Y-94344013D01*
X142650640Y-94197939D01*
X142647401Y-94179440D01*
X142535056Y-94140992D01*
X142294068Y-94097309D01*
X141964843Y-94052933D01*
X141587787Y-94012409D01*
X141203309Y-93980278D01*
X140851816Y-93961084D01*
X140674819Y-93957667D01*
X140367308Y-93966226D01*
X139997755Y-93989182D01*
X139605471Y-94022452D01*
X139229770Y-94061953D01*
X138909962Y-94103602D01*
X138685362Y-94143317D01*
X138597728Y-94173383D01*
X138568660Y-94262422D01*
X138513915Y-94477709D01*
X138441796Y-94781880D01*
X138360609Y-95137569D01*
X138278658Y-95507411D01*
X138204249Y-95854043D01*
X138145686Y-96140099D01*
X138111273Y-96328214D01*
X138106613Y-96382997D01*
X137302324Y-96382997D01*
X137307349Y-96356797D01*
X137389809Y-95948871D01*
X137484249Y-95496993D01*
X137584187Y-95031433D01*
X137683142Y-94582462D01*
X137774633Y-94180352D01*
X137852179Y-93855374D01*
X137909299Y-93637797D01*
X137935884Y-93561488D01*
X138057508Y-93494474D01*
X138321453Y-93429571D01*
X138700709Y-93369732D01*
X139168266Y-93317913D01*
X139697113Y-93277068D01*
X140260241Y-93250152D01*
X140830638Y-93240119D01*
X140873666Y-93240131D01*
G36*
X135343490Y-85005973D02*
G01*
X135452410Y-85073210D01*
X135455000Y-85089615D01*
X135438169Y-85192622D01*
X135391642Y-85432730D01*
X135321369Y-85781502D01*
X135233296Y-86210500D01*
X135133373Y-86691287D01*
X135027547Y-87195424D01*
X134921768Y-87694475D01*
X134821983Y-88160002D01*
X134734142Y-88563566D01*
X134664192Y-88876730D01*
X134649360Y-88941167D01*
X134596143Y-89061303D01*
X134477341Y-89117295D01*
X134242928Y-89131639D01*
X134225720Y-89131667D01*
X133961131Y-89109205D01*
X133850476Y-89043465D01*
X133847584Y-89025833D01*
X133855920Y-88946243D01*
X133882962Y-88798084D01*
X133933647Y-88558123D01*
X134012911Y-88203121D01*
X134125688Y-87709845D01*
X134144340Y-87628833D01*
X134188226Y-87438333D01*
X130050364Y-87438333D01*
X129954143Y-87882833D01*
X129877461Y-88236984D01*
X129797746Y-88605024D01*
X129770778Y-88729500D01*
X129683635Y-89131667D01*
X128870461Y-89131667D01*
X129110174Y-88009833D01*
X129223091Y-87481320D01*
X129346369Y-86904194D01*
X129464024Y-86353295D01*
X129548712Y-85956667D01*
X129747538Y-85025333D01*
X130145935Y-84999528D01*
X130378684Y-84998189D01*
X130522184Y-85023825D01*
X130544333Y-85046150D01*
X130527270Y-85156687D01*
X130481680Y-85390246D01*
X130415961Y-85704591D01*
X130384405Y-85850417D01*
X130318053Y-86181750D01*
X130276400Y-86446421D01*
X130265281Y-86604175D01*
X130271517Y-86629295D01*
X130365926Y-86642502D01*
X130605678Y-86654277D01*
X130966785Y-86664071D01*
X131425261Y-86671335D01*
X131957116Y-86675522D01*
X132329717Y-86676333D01*
X134340878Y-86676333D01*
X134397534Y-86401167D01*
X134445648Y-86173586D01*
X134514602Y-85854583D01*
X134580381Y-85554500D01*
X134706572Y-84983000D01*
X135080786Y-84983000D01*
X135343490Y-85005973D01*
X135343490Y-85005973D01*
G37*
X135343490Y-85005973D02*
X135452410Y-85073210D01*
X135455000Y-85089615D01*
X135438169Y-85192622D01*
X135391642Y-85432730D01*
X135321369Y-85781502D01*
X135233296Y-86210500D01*
X135133373Y-86691287D01*
X135027547Y-87195424D01*
X134921768Y-87694475D01*
X134821983Y-88160002D01*
X134734142Y-88563566D01*
X134664192Y-88876730D01*
X134649360Y-88941167D01*
X134596143Y-89061303D01*
X134477341Y-89117295D01*
X134242928Y-89131639D01*
X134225720Y-89131667D01*
X133961131Y-89109205D01*
X133850476Y-89043465D01*
X133847584Y-89025833D01*
X133855920Y-88946243D01*
X133882962Y-88798084D01*
X133933647Y-88558123D01*
X134012911Y-88203121D01*
X134125688Y-87709845D01*
X134144340Y-87628833D01*
X134188226Y-87438333D01*
X130050364Y-87438333D01*
X129954143Y-87882833D01*
X129877461Y-88236984D01*
X129797746Y-88605024D01*
X129770778Y-88729500D01*
X129683635Y-89131667D01*
X128870461Y-89131667D01*
X129110174Y-88009833D01*
X129223091Y-87481320D01*
X129346369Y-86904194D01*
X129464024Y-86353295D01*
X129548712Y-85956667D01*
X129747538Y-85025333D01*
X130145935Y-84999528D01*
X130378684Y-84998189D01*
X130522184Y-85023825D01*
X130544333Y-85046150D01*
X130527270Y-85156687D01*
X130481680Y-85390246D01*
X130415961Y-85704591D01*
X130384405Y-85850417D01*
X130318053Y-86181750D01*
X130276400Y-86446421D01*
X130265281Y-86604175D01*
X130271517Y-86629295D01*
X130365926Y-86642502D01*
X130605678Y-86654277D01*
X130966785Y-86664071D01*
X131425261Y-86671335D01*
X131957116Y-86675522D01*
X132329717Y-86676333D01*
X134340878Y-86676333D01*
X134397534Y-86401167D01*
X134445648Y-86173586D01*
X134514602Y-85854583D01*
X134580381Y-85554500D01*
X134706572Y-84983000D01*
X135080786Y-84983000D01*
X135343490Y-85005973D01*
G36*
X141466333Y-85027464D02*
G01*
X142280982Y-85046201D01*
X143012510Y-85097808D01*
X143632445Y-85179509D01*
X144098131Y-85284258D01*
X144139938Y-85314986D01*
X144160077Y-85390233D01*
X144155807Y-85530767D01*
X144124390Y-85757356D01*
X144063086Y-86090769D01*
X143969155Y-86551773D01*
X143867753Y-87030728D01*
X143754996Y-87546976D01*
X143649955Y-88006200D01*
X143558872Y-88382804D01*
X143487993Y-88651194D01*
X143443558Y-88785774D01*
X143437289Y-88795534D01*
X143300861Y-88847417D01*
X143026218Y-88900892D01*
X142644433Y-88953606D01*
X142186578Y-89003208D01*
X141683725Y-89047347D01*
X141166949Y-89083672D01*
X140667320Y-89109831D01*
X140215912Y-89123473D01*
X139843797Y-89122246D01*
X139582047Y-89103800D01*
X139519000Y-89092041D01*
X139382494Y-89067416D01*
X139123122Y-89028004D01*
X138785981Y-88980509D01*
X138605990Y-88956308D01*
X138261338Y-88906026D01*
X137986514Y-88857112D01*
X137820268Y-88816913D01*
X137789324Y-88801482D01*
X137796959Y-88707040D01*
X137836017Y-88477832D01*
X137894991Y-88170331D01*
X138699280Y-88170331D01*
X138784165Y-88188276D01*
X138993152Y-88221540D01*
X139282478Y-88263192D01*
X139307333Y-88266617D01*
X140164017Y-88342399D01*
X141079586Y-88351039D01*
X141957271Y-88292071D01*
X142059350Y-88279941D01*
X142390185Y-88230677D01*
X142652163Y-88177087D01*
X142803120Y-88128359D01*
X142822210Y-88113708D01*
X142860743Y-87997896D01*
X142918332Y-87761951D01*
X142987464Y-87444477D01*
X143060626Y-87084076D01*
X143130305Y-86719352D01*
X143188987Y-86388908D01*
X143229159Y-86131347D01*
X143243307Y-85985272D01*
X143240068Y-85966774D01*
X143127723Y-85928325D01*
X142886735Y-85884642D01*
X142557509Y-85840266D01*
X142180454Y-85799742D01*
X141795976Y-85767611D01*
X141444482Y-85748417D01*
X141267485Y-85745000D01*
X140959975Y-85753559D01*
X140590422Y-85776515D01*
X140198138Y-85809785D01*
X139822436Y-85849286D01*
X139502629Y-85890936D01*
X139278028Y-85930651D01*
X139190394Y-85960716D01*
X139161327Y-86049755D01*
X139106581Y-86265043D01*
X139034463Y-86569213D01*
X138953276Y-86924902D01*
X138871325Y-87294745D01*
X138796916Y-87641376D01*
X138738352Y-87927432D01*
X138703940Y-88115548D01*
X138699280Y-88170331D01*
X137894991Y-88170331D01*
X137900016Y-88144130D01*
X137982476Y-87736204D01*
X138076915Y-87284326D01*
X138176853Y-86818766D01*
X138275808Y-86369796D01*
X138367299Y-85967686D01*
X138444846Y-85642707D01*
X138501966Y-85425131D01*
X138528550Y-85348821D01*
X138650174Y-85281807D01*
X138914120Y-85216904D01*
X139293376Y-85157065D01*
X139760933Y-85105247D01*
X140289780Y-85064402D01*
X140852907Y-85037486D01*
X141423305Y-85027453D01*
X141466333Y-85027464D01*
X141466333Y-85027464D01*
G37*
X141466333Y-85027464D02*
X142280982Y-85046201D01*
X143012510Y-85097808D01*
X143632445Y-85179509D01*
X144098131Y-85284258D01*
X144139938Y-85314986D01*
X144160077Y-85390233D01*
X144155807Y-85530767D01*
X144124390Y-85757356D01*
X144063086Y-86090769D01*
X143969155Y-86551773D01*
X143867753Y-87030728D01*
X143754996Y-87546976D01*
X143649955Y-88006200D01*
X143558872Y-88382804D01*
X143487993Y-88651194D01*
X143443558Y-88785774D01*
X143437289Y-88795534D01*
X143300861Y-88847417D01*
X143026218Y-88900892D01*
X142644433Y-88953606D01*
X142186578Y-89003208D01*
X141683725Y-89047347D01*
X141166949Y-89083672D01*
X140667320Y-89109831D01*
X140215912Y-89123473D01*
X139843797Y-89122246D01*
X139582047Y-89103800D01*
X139519000Y-89092041D01*
X139382494Y-89067416D01*
X139123122Y-89028004D01*
X138785981Y-88980509D01*
X138605990Y-88956308D01*
X138261338Y-88906026D01*
X137986514Y-88857112D01*
X137820268Y-88816913D01*
X137789324Y-88801482D01*
X137796959Y-88707040D01*
X137836017Y-88477832D01*
X137894991Y-88170331D01*
X138699280Y-88170331D01*
X138784165Y-88188276D01*
X138993152Y-88221540D01*
X139282478Y-88263192D01*
X139307333Y-88266617D01*
X140164017Y-88342399D01*
X141079586Y-88351039D01*
X141957271Y-88292071D01*
X142059350Y-88279941D01*
X142390185Y-88230677D01*
X142652163Y-88177087D01*
X142803120Y-88128359D01*
X142822210Y-88113708D01*
X142860743Y-87997896D01*
X142918332Y-87761951D01*
X142987464Y-87444477D01*
X143060626Y-87084076D01*
X143130305Y-86719352D01*
X143188987Y-86388908D01*
X143229159Y-86131347D01*
X143243307Y-85985272D01*
X143240068Y-85966774D01*
X143127723Y-85928325D01*
X142886735Y-85884642D01*
X142557509Y-85840266D01*
X142180454Y-85799742D01*
X141795976Y-85767611D01*
X141444482Y-85748417D01*
X141267485Y-85745000D01*
X140959975Y-85753559D01*
X140590422Y-85776515D01*
X140198138Y-85809785D01*
X139822436Y-85849286D01*
X139502629Y-85890936D01*
X139278028Y-85930651D01*
X139190394Y-85960716D01*
X139161327Y-86049755D01*
X139106581Y-86265043D01*
X139034463Y-86569213D01*
X138953276Y-86924902D01*
X138871325Y-87294745D01*
X138796916Y-87641376D01*
X138738352Y-87927432D01*
X138703940Y-88115548D01*
X138699280Y-88170331D01*
X137894991Y-88170331D01*
X137900016Y-88144130D01*
X137982476Y-87736204D01*
X138076915Y-87284326D01*
X138176853Y-86818766D01*
X138275808Y-86369796D01*
X138367299Y-85967686D01*
X138444846Y-85642707D01*
X138501966Y-85425131D01*
X138528550Y-85348821D01*
X138650174Y-85281807D01*
X138914120Y-85216904D01*
X139293376Y-85157065D01*
X139760933Y-85105247D01*
X140289780Y-85064402D01*
X140852907Y-85037486D01*
X141423305Y-85027453D01*
X141466333Y-85027464D01*
G36*
X148375953Y-85006178D02*
G01*
X148451333Y-85008976D01*
X148947625Y-85038335D01*
X149443489Y-85081099D01*
X149906788Y-85133079D01*
X150305384Y-85190086D01*
X150607142Y-85247933D01*
X150779924Y-85302429D01*
X150799149Y-85314992D01*
X150809939Y-85413001D01*
X150786903Y-85605613D01*
X150742825Y-85824638D01*
X150690489Y-86001887D01*
X150659256Y-86061165D01*
X150573999Y-86055450D01*
X150366457Y-86021805D01*
X150080017Y-85967331D01*
X150054278Y-85962142D01*
X149638401Y-85892741D01*
X149178210Y-85837797D01*
X148880404Y-85815310D01*
X148293476Y-85787333D01*
X147930627Y-87438333D01*
X147819977Y-87942220D01*
X147722663Y-88386178D01*
X147644194Y-88745006D01*
X147590080Y-88993505D01*
X147565829Y-89106472D01*
X147565056Y-89110500D01*
X147487424Y-89135678D01*
X147307598Y-89137955D01*
X147090390Y-89122385D01*
X146900616Y-89094020D01*
X146803090Y-89057915D01*
X146800333Y-89050875D01*
X146817743Y-88946080D01*
X146866155Y-88703420D01*
X146939846Y-88350329D01*
X147033088Y-87914245D01*
X147139000Y-87427884D01*
X147245861Y-86937820D01*
X147338867Y-86504711D01*
X147412309Y-86155686D01*
X147460478Y-85917875D01*
X147477666Y-85818527D01*
X147398983Y-85789334D01*
X147182071Y-85786262D01*
X146855636Y-85807032D01*
X146448382Y-85849363D01*
X145989015Y-85910975D01*
X145660643Y-85962870D01*
X145347424Y-86013340D01*
X145108993Y-86047617D01*
X144985405Y-86060085D01*
X144976723Y-86058754D01*
X144976286Y-85934053D01*
X145028361Y-85726811D01*
X145109398Y-85504913D01*
X145195845Y-85336242D01*
X145244458Y-85287036D01*
X145493262Y-85221842D01*
X145872719Y-85159415D01*
X146344146Y-85103109D01*
X146868864Y-85056279D01*
X147408191Y-85022278D01*
X147923448Y-85004459D01*
X148375953Y-85006178D01*
X148375953Y-85006178D01*
G37*
X148375953Y-85006178D02*
X148451333Y-85008976D01*
X148947625Y-85038335D01*
X149443489Y-85081099D01*
X149906788Y-85133079D01*
X150305384Y-85190086D01*
X150607142Y-85247933D01*
X150779924Y-85302429D01*
X150799149Y-85314992D01*
X150809939Y-85413001D01*
X150786903Y-85605613D01*
X150742825Y-85824638D01*
X150690489Y-86001887D01*
X150659256Y-86061165D01*
X150573999Y-86055450D01*
X150366457Y-86021805D01*
X150080017Y-85967331D01*
X150054278Y-85962142D01*
X149638401Y-85892741D01*
X149178210Y-85837797D01*
X148880404Y-85815310D01*
X148293476Y-85787333D01*
X147930627Y-87438333D01*
X147819977Y-87942220D01*
X147722663Y-88386178D01*
X147644194Y-88745006D01*
X147590080Y-88993505D01*
X147565829Y-89106472D01*
X147565056Y-89110500D01*
X147487424Y-89135678D01*
X147307598Y-89137955D01*
X147090390Y-89122385D01*
X146900616Y-89094020D01*
X146803090Y-89057915D01*
X146800333Y-89050875D01*
X146817743Y-88946080D01*
X146866155Y-88703420D01*
X146939846Y-88350329D01*
X147033088Y-87914245D01*
X147139000Y-87427884D01*
X147245861Y-86937820D01*
X147338867Y-86504711D01*
X147412309Y-86155686D01*
X147460478Y-85917875D01*
X147477666Y-85818527D01*
X147398983Y-85789334D01*
X147182071Y-85786262D01*
X146855636Y-85807032D01*
X146448382Y-85849363D01*
X145989015Y-85910975D01*
X145660643Y-85962870D01*
X145347424Y-86013340D01*
X145108993Y-86047617D01*
X144985405Y-86060085D01*
X144976723Y-86058754D01*
X144976286Y-85934053D01*
X145028361Y-85726811D01*
X145109398Y-85504913D01*
X145195845Y-85336242D01*
X145244458Y-85287036D01*
X145493262Y-85221842D01*
X145872719Y-85159415D01*
X146344146Y-85103109D01*
X146868864Y-85056279D01*
X147408191Y-85022278D01*
X147923448Y-85004459D01*
X148375953Y-85006178D01*
D12*
X131143000Y-134063000D02*
X128603000Y-134063000D01*
X128603000Y-134063000D02*
X128603000Y-136733000D01*
X131143000Y-136733000D02*
X169373000Y-136733000D01*
X125933000Y-136733000D02*
X128603000Y-136733000D01*
X128603000Y-121363000D02*
X128603000Y-118693000D01*
X128603000Y-121363000D02*
X166703000Y-121363000D01*
X166703000Y-121363000D02*
X166703000Y-118693000D01*
X131143000Y-134063000D02*
X131143000Y-136733000D01*
X131143000Y-134063000D02*
X166703000Y-134063000D01*
X166703000Y-134063000D02*
X166703000Y-136733000D01*
X169373000Y-136733000D02*
X169373000Y-118693000D01*
X169373000Y-118693000D02*
X125933000Y-118693000D01*
X125933000Y-118693000D02*
X125933000Y-136733000D01*
X182943000Y-67848000D02*
X182943000Y-69848000D01*
X180803000Y-69848000D02*
X180803000Y-67848000D01*
X122673000Y-64233000D02*
X122273000Y-64233000D01*
X122673000Y-70833000D02*
X122673000Y-64233000D01*
X117073000Y-70433000D02*
X117073000Y-65233000D01*
X115983000Y-66233000D02*
X115983000Y-64433000D01*
X112763000Y-64433000D02*
X112763000Y-66883000D01*
X176973000Y-119183000D02*
X177973000Y-119183000D01*
X177973000Y-117483000D02*
X176973000Y-117483000D01*
X104373000Y-86273000D02*
X106383000Y-86273000D01*
X104373000Y-86273000D02*
X104373000Y-87833000D01*
X104603000Y-86503000D02*
X120843000Y-86503000D01*
X120843000Y-86503000D02*
X120843000Y-106943000D01*
X120843000Y-106943000D02*
X104603000Y-106943000D01*
X104603000Y-106943000D02*
X104603000Y-86503000D01*
X110023000Y-64833000D02*
X110023000Y-65833000D01*
X111723000Y-65833000D02*
X111723000Y-64833000D01*
X176873000Y-123183000D02*
X177873000Y-123183000D01*
X177873000Y-121483000D02*
X176873000Y-121483000D01*
X119613000Y-131753000D02*
X121073000Y-131753000D01*
X119613000Y-134913000D02*
X121773000Y-134913000D01*
X119613000Y-134913000D02*
X119613000Y-133983000D01*
X119613000Y-131753000D02*
X119613000Y-132683000D01*
X119613000Y-126753000D02*
X119613000Y-127683000D01*
X119613000Y-129913000D02*
X119613000Y-128983000D01*
X119613000Y-129913000D02*
X121773000Y-129913000D01*
X119613000Y-126753000D02*
X121073000Y-126753000D01*
X122493000Y-129028000D02*
X122493000Y-127828000D01*
X124253000Y-127828000D02*
X124253000Y-129028000D01*
X173273000Y-117453000D02*
X174473000Y-117453000D01*
X174473000Y-119213000D02*
X173273000Y-119213000D01*
X124253000Y-132733000D02*
X124253000Y-133933000D01*
X122493000Y-133933000D02*
X122493000Y-132733000D01*
X173273000Y-121453000D02*
X174473000Y-121453000D01*
X174473000Y-123213000D02*
X173273000Y-123213000D01*
X104993000Y-111433000D02*
X104993000Y-110233000D01*
X106753000Y-110233000D02*
X106753000Y-111433000D01*
X108753000Y-110233000D02*
X108753000Y-111433000D01*
X106993000Y-111433000D02*
X106993000Y-110233000D01*
X108993000Y-111433000D02*
X108993000Y-110233000D01*
X110753000Y-110233000D02*
X110753000Y-111433000D01*
X112753000Y-110233000D02*
X112753000Y-111433000D01*
X110993000Y-111433000D02*
X110993000Y-110233000D01*
X112993000Y-111433000D02*
X112993000Y-110233000D01*
X114753000Y-110233000D02*
X114753000Y-111433000D01*
X116753000Y-110233000D02*
X116753000Y-111433000D01*
X114993000Y-111433000D02*
X114993000Y-110233000D01*
X116993000Y-111433000D02*
X116993000Y-110233000D01*
X118753000Y-110233000D02*
X118753000Y-111433000D01*
X171373000Y-59333000D02*
G75*
G03X171373000Y-59333000I-5500000J0D01*
G01*
X137373000Y-59333000D02*
G75*
G03X137373000Y-59333000I-5500000J0D01*
G01*
X191393000Y-72833000D02*
G75*
G03X191393000Y-72833000I-3270000J0D01*
G01*
X188123000Y-69603000D02*
X188123000Y-76063000D01*
X188163000Y-69603000D02*
X188163000Y-76063000D01*
X188203000Y-69603000D02*
X188203000Y-76063000D01*
X188243000Y-69605000D02*
X188243000Y-76061000D01*
X188283000Y-69606000D02*
X188283000Y-76060000D01*
X188323000Y-69609000D02*
X188323000Y-76057000D01*
X188363000Y-69611000D02*
X188363000Y-71793000D01*
X188363000Y-73873000D02*
X188363000Y-76055000D01*
X188403000Y-69615000D02*
X188403000Y-71793000D01*
X188403000Y-73873000D02*
X188403000Y-76051000D01*
X188443000Y-69618000D02*
X188443000Y-71793000D01*
X188443000Y-73873000D02*
X188443000Y-76048000D01*
X188483000Y-69622000D02*
X188483000Y-71793000D01*
X188483000Y-73873000D02*
X188483000Y-76044000D01*
X188523000Y-69627000D02*
X188523000Y-71793000D01*
X188523000Y-73873000D02*
X188523000Y-76039000D01*
X188563000Y-69632000D02*
X188563000Y-71793000D01*
X188563000Y-73873000D02*
X188563000Y-76034000D01*
X188603000Y-69638000D02*
X188603000Y-71793000D01*
X188603000Y-73873000D02*
X188603000Y-76028000D01*
X188643000Y-69644000D02*
X188643000Y-71793000D01*
X188643000Y-73873000D02*
X188643000Y-76022000D01*
X188683000Y-69651000D02*
X188683000Y-71793000D01*
X188683000Y-73873000D02*
X188683000Y-76015000D01*
X188723000Y-69658000D02*
X188723000Y-71793000D01*
X188723000Y-73873000D02*
X188723000Y-76008000D01*
X188763000Y-69666000D02*
X188763000Y-71793000D01*
X188763000Y-73873000D02*
X188763000Y-76000000D01*
X188803000Y-69674000D02*
X188803000Y-71793000D01*
X188803000Y-73873000D02*
X188803000Y-75992000D01*
X188844000Y-69683000D02*
X188844000Y-71793000D01*
X188844000Y-73873000D02*
X188844000Y-75983000D01*
X188884000Y-69692000D02*
X188884000Y-71793000D01*
X188884000Y-73873000D02*
X188884000Y-75974000D01*
X188924000Y-69702000D02*
X188924000Y-71793000D01*
X188924000Y-73873000D02*
X188924000Y-75964000D01*
X188964000Y-69712000D02*
X188964000Y-71793000D01*
X188964000Y-73873000D02*
X188964000Y-75954000D01*
X189004000Y-69723000D02*
X189004000Y-71793000D01*
X189004000Y-73873000D02*
X189004000Y-75943000D01*
X189044000Y-69735000D02*
X189044000Y-71793000D01*
X189044000Y-73873000D02*
X189044000Y-75931000D01*
X189084000Y-69747000D02*
X189084000Y-71793000D01*
X189084000Y-73873000D02*
X189084000Y-75919000D01*
X189124000Y-69759000D02*
X189124000Y-71793000D01*
X189124000Y-73873000D02*
X189124000Y-75907000D01*
X189164000Y-69772000D02*
X189164000Y-71793000D01*
X189164000Y-73873000D02*
X189164000Y-75894000D01*
X189204000Y-69786000D02*
X189204000Y-71793000D01*
X189204000Y-73873000D02*
X189204000Y-75880000D01*
X189244000Y-69800000D02*
X189244000Y-71793000D01*
X189244000Y-73873000D02*
X189244000Y-75866000D01*
X189284000Y-69815000D02*
X189284000Y-71793000D01*
X189284000Y-73873000D02*
X189284000Y-75851000D01*
X189324000Y-69831000D02*
X189324000Y-71793000D01*
X189324000Y-73873000D02*
X189324000Y-75835000D01*
X189364000Y-69847000D02*
X189364000Y-71793000D01*
X189364000Y-73873000D02*
X189364000Y-75819000D01*
X189404000Y-69863000D02*
X189404000Y-71793000D01*
X189404000Y-73873000D02*
X189404000Y-75803000D01*
X189444000Y-69881000D02*
X189444000Y-71793000D01*
X189444000Y-73873000D02*
X189444000Y-75785000D01*
X189484000Y-69899000D02*
X189484000Y-71793000D01*
X189484000Y-73873000D02*
X189484000Y-75767000D01*
X189524000Y-69917000D02*
X189524000Y-71793000D01*
X189524000Y-73873000D02*
X189524000Y-75749000D01*
X189564000Y-69937000D02*
X189564000Y-71793000D01*
X189564000Y-73873000D02*
X189564000Y-75729000D01*
X189604000Y-69957000D02*
X189604000Y-71793000D01*
X189604000Y-73873000D02*
X189604000Y-75709000D01*
X189644000Y-69977000D02*
X189644000Y-71793000D01*
X189644000Y-73873000D02*
X189644000Y-75689000D01*
X189684000Y-69999000D02*
X189684000Y-71793000D01*
X189684000Y-73873000D02*
X189684000Y-75667000D01*
X189724000Y-70021000D02*
X189724000Y-71793000D01*
X189724000Y-73873000D02*
X189724000Y-75645000D01*
X189764000Y-70043000D02*
X189764000Y-71793000D01*
X189764000Y-73873000D02*
X189764000Y-75623000D01*
X189804000Y-70067000D02*
X189804000Y-71793000D01*
X189804000Y-73873000D02*
X189804000Y-75599000D01*
X189844000Y-70091000D02*
X189844000Y-71793000D01*
X189844000Y-73873000D02*
X189844000Y-75575000D01*
X189884000Y-70117000D02*
X189884000Y-71793000D01*
X189884000Y-73873000D02*
X189884000Y-75549000D01*
X189924000Y-70143000D02*
X189924000Y-71793000D01*
X189924000Y-73873000D02*
X189924000Y-75523000D01*
X189964000Y-70169000D02*
X189964000Y-71793000D01*
X189964000Y-73873000D02*
X189964000Y-75497000D01*
X190004000Y-70197000D02*
X190004000Y-71793000D01*
X190004000Y-73873000D02*
X190004000Y-75469000D01*
X190044000Y-70226000D02*
X190044000Y-71793000D01*
X190044000Y-73873000D02*
X190044000Y-75440000D01*
X190084000Y-70255000D02*
X190084000Y-71793000D01*
X190084000Y-73873000D02*
X190084000Y-75411000D01*
X190124000Y-70285000D02*
X190124000Y-71793000D01*
X190124000Y-73873000D02*
X190124000Y-75381000D01*
X190164000Y-70317000D02*
X190164000Y-71793000D01*
X190164000Y-73873000D02*
X190164000Y-75349000D01*
X190204000Y-70349000D02*
X190204000Y-71793000D01*
X190204000Y-73873000D02*
X190204000Y-75317000D01*
X190244000Y-70383000D02*
X190244000Y-71793000D01*
X190244000Y-73873000D02*
X190244000Y-75283000D01*
X190284000Y-70417000D02*
X190284000Y-71793000D01*
X190284000Y-73873000D02*
X190284000Y-75249000D01*
X190324000Y-70453000D02*
X190324000Y-71793000D01*
X190324000Y-73873000D02*
X190324000Y-75213000D01*
X190364000Y-70490000D02*
X190364000Y-71793000D01*
X190364000Y-73873000D02*
X190364000Y-75176000D01*
X190404000Y-70528000D02*
X190404000Y-71793000D01*
X190404000Y-73873000D02*
X190404000Y-75138000D01*
X190444000Y-70568000D02*
X190444000Y-75098000D01*
X190484000Y-70609000D02*
X190484000Y-75057000D01*
X190524000Y-70651000D02*
X190524000Y-75015000D01*
X190564000Y-70696000D02*
X190564000Y-74970000D01*
X190604000Y-70741000D02*
X190604000Y-74925000D01*
X190644000Y-70789000D02*
X190644000Y-74877000D01*
X190684000Y-70838000D02*
X190684000Y-74828000D01*
X190724000Y-70889000D02*
X190724000Y-74777000D01*
X190764000Y-70943000D02*
X190764000Y-74723000D01*
X190804000Y-70999000D02*
X190804000Y-74667000D01*
X190844000Y-71057000D02*
X190844000Y-74609000D01*
X190884000Y-71119000D02*
X190884000Y-74547000D01*
X190924000Y-71183000D02*
X190924000Y-74483000D01*
X190964000Y-71252000D02*
X190964000Y-74414000D01*
X191004000Y-71324000D02*
X191004000Y-74342000D01*
X191044000Y-71401000D02*
X191044000Y-74265000D01*
X191084000Y-71483000D02*
X191084000Y-74183000D01*
X191124000Y-71571000D02*
X191124000Y-74095000D01*
X191164000Y-71668000D02*
X191164000Y-73998000D01*
X191204000Y-71774000D02*
X191204000Y-73892000D01*
X191244000Y-71893000D02*
X191244000Y-73773000D01*
X191284000Y-72031000D02*
X191284000Y-73635000D01*
X191324000Y-72200000D02*
X191324000Y-73466000D01*
X191364000Y-72431000D02*
X191364000Y-73235000D01*
X184622759Y-70994000D02*
X185252759Y-70994000D01*
X184937759Y-70679000D02*
X184937759Y-71309000D01*
X180393000Y-113638000D02*
X180393000Y-112438000D01*
X182153000Y-112438000D02*
X182153000Y-113638000D01*
X179753000Y-112433000D02*
X179753000Y-113633000D01*
X177993000Y-113633000D02*
X177993000Y-112433000D01*
X116338000Y-60633000D02*
X116338000Y-62918000D01*
X116338000Y-62918000D02*
X117808000Y-62918000D01*
X117808000Y-62918000D02*
X117808000Y-60633000D01*
X115953000Y-60933000D02*
X115953000Y-62133000D01*
X114193000Y-62133000D02*
X114193000Y-60933000D01*
X179879010Y-84735894D02*
G75*
G02X168473000Y-82133000I-5406010J2602894D01*
G01*
X168479672Y-82133000D02*
G75*
G02X179872999Y-79533001I5993328J0D01*
G01*
X179879010Y-84735894D02*
X179872999Y-79533001D01*
X179479010Y-100435894D02*
X179472999Y-95233001D01*
X168079672Y-97833000D02*
G75*
G02X179472999Y-95233001I5993328J0D01*
G01*
X179479010Y-100435894D02*
G75*
G02X168073000Y-97833000I-5406010J2602894D01*
G01*
X145438000Y-56773000D02*
X154158000Y-56773000D01*
X154158000Y-56773000D02*
X154158000Y-62193000D01*
X145438000Y-62193000D02*
X154158000Y-62193000D01*
X143738000Y-58073000D02*
X145438000Y-56773000D01*
X143738000Y-60893000D02*
X145438000Y-62193000D01*
X143738000Y-58073000D02*
X143738000Y-60893000D01*
D10*
X102011095Y-138985380D02*
X102011095Y-137985380D01*
X102011095Y-138461571D02*
X102582523Y-138461571D01*
X102582523Y-138985380D02*
X102582523Y-137985380D01*
X103582523Y-138985380D02*
X103011095Y-138985380D01*
X103296809Y-138985380D02*
X103296809Y-137985380D01*
X103201571Y-138128238D01*
X103106333Y-138223476D01*
X103011095Y-138271095D01*
X102211095Y-50785380D02*
X102211095Y-49785380D01*
X102211095Y-50261571D02*
X102782523Y-50261571D01*
X102782523Y-50785380D02*
X102782523Y-49785380D01*
X103211095Y-49880619D02*
X103258714Y-49833000D01*
X103353952Y-49785380D01*
X103592047Y-49785380D01*
X103687285Y-49833000D01*
X103734904Y-49880619D01*
X103782523Y-49975857D01*
X103782523Y-50071095D01*
X103734904Y-50213952D01*
X103163476Y-50785380D01*
X103782523Y-50785380D01*
X190211095Y-50785380D02*
X190211095Y-49785380D01*
X190211095Y-50261571D02*
X190782523Y-50261571D01*
X190782523Y-50785380D02*
X190782523Y-49785380D01*
X191163476Y-49785380D02*
X191782523Y-49785380D01*
X191449190Y-50166333D01*
X191592047Y-50166333D01*
X191687285Y-50213952D01*
X191734904Y-50261571D01*
X191782523Y-50356809D01*
X191782523Y-50594904D01*
X191734904Y-50690142D01*
X191687285Y-50737761D01*
X191592047Y-50785380D01*
X191306333Y-50785380D01*
X191211095Y-50737761D01*
X191163476Y-50690142D01*
X190611095Y-138885380D02*
X190611095Y-137885380D01*
X190611095Y-138361571D02*
X191182523Y-138361571D01*
X191182523Y-138885380D02*
X191182523Y-137885380D01*
X192087285Y-138218714D02*
X192087285Y-138885380D01*
X191849190Y-137837761D02*
X191611095Y-138552047D01*
X192230142Y-138552047D01*
X125439666Y-136447285D02*
X125439666Y-135971095D01*
X125725380Y-136542523D02*
X124725380Y-136209190D01*
X125725380Y-135875857D01*
X125725380Y-135018714D02*
X125725380Y-135590142D01*
X125725380Y-135304428D02*
X124725380Y-135304428D01*
X124868238Y-135399666D01*
X124963476Y-135494904D01*
X125011095Y-135590142D01*
X179951571Y-69181333D02*
X179951571Y-69514666D01*
X180475380Y-69514666D02*
X179475380Y-69514666D01*
X179475380Y-69038476D01*
X180475380Y-68133714D02*
X180475380Y-68705142D01*
X180475380Y-68419428D02*
X179475380Y-68419428D01*
X179618238Y-68514666D01*
X179713476Y-68609904D01*
X179761095Y-68705142D01*
X124220619Y-67928238D02*
X124173000Y-68023476D01*
X124077761Y-68118714D01*
X123934904Y-68261571D01*
X123887285Y-68356809D01*
X123887285Y-68452047D01*
X124125380Y-68404428D02*
X124077761Y-68499666D01*
X123982523Y-68594904D01*
X123792047Y-68642523D01*
X123458714Y-68642523D01*
X123268238Y-68594904D01*
X123173000Y-68499666D01*
X123125380Y-68404428D01*
X123125380Y-68213952D01*
X123173000Y-68118714D01*
X123268238Y-68023476D01*
X123458714Y-67975857D01*
X123792047Y-67975857D01*
X123982523Y-68023476D01*
X124077761Y-68118714D01*
X124125380Y-68213952D01*
X124125380Y-68404428D01*
X124125380Y-67023476D02*
X124125380Y-67594904D01*
X124125380Y-67309190D02*
X123125380Y-67309190D01*
X123268238Y-67404428D01*
X123363476Y-67499666D01*
X123411095Y-67594904D01*
X113825380Y-69394904D02*
X114634904Y-69394904D01*
X114730142Y-69347285D01*
X114777761Y-69299666D01*
X114825380Y-69204428D01*
X114825380Y-69013952D01*
X114777761Y-68918714D01*
X114730142Y-68871095D01*
X114634904Y-68823476D01*
X113825380Y-68823476D01*
X114825380Y-67823476D02*
X114825380Y-68394904D01*
X114825380Y-68109190D02*
X113825380Y-68109190D01*
X113968238Y-68204428D01*
X114063476Y-68299666D01*
X114111095Y-68394904D01*
X177306333Y-117190142D02*
X177258714Y-117237761D01*
X177115857Y-117285380D01*
X177020619Y-117285380D01*
X176877761Y-117237761D01*
X176782523Y-117142523D01*
X176734904Y-117047285D01*
X176687285Y-116856809D01*
X176687285Y-116713952D01*
X176734904Y-116523476D01*
X176782523Y-116428238D01*
X176877761Y-116333000D01*
X177020619Y-116285380D01*
X177115857Y-116285380D01*
X177258714Y-116333000D01*
X177306333Y-116380619D01*
X177639666Y-116285380D02*
X178258714Y-116285380D01*
X177925380Y-116666333D01*
X178068238Y-116666333D01*
X178163476Y-116713952D01*
X178211095Y-116761571D01*
X178258714Y-116856809D01*
X178258714Y-117094904D01*
X178211095Y-117190142D01*
X178163476Y-117237761D01*
X178068238Y-117285380D01*
X177782523Y-117285380D01*
X177687285Y-117237761D01*
X177639666Y-117190142D01*
X106041095Y-84925380D02*
X106041095Y-85734904D01*
X106088714Y-85830142D01*
X106136333Y-85877761D01*
X106231571Y-85925380D01*
X106422047Y-85925380D01*
X106517285Y-85877761D01*
X106564904Y-85830142D01*
X106612523Y-85734904D01*
X106612523Y-84925380D01*
X107041095Y-85020619D02*
X107088714Y-84973000D01*
X107183952Y-84925380D01*
X107422047Y-84925380D01*
X107517285Y-84973000D01*
X107564904Y-85020619D01*
X107612523Y-85115857D01*
X107612523Y-85211095D01*
X107564904Y-85353952D01*
X106993476Y-85925380D01*
X107612523Y-85925380D01*
X109330142Y-65699666D02*
X109377761Y-65747285D01*
X109425380Y-65890142D01*
X109425380Y-65985380D01*
X109377761Y-66128238D01*
X109282523Y-66223476D01*
X109187285Y-66271095D01*
X108996809Y-66318714D01*
X108853952Y-66318714D01*
X108663476Y-66271095D01*
X108568238Y-66223476D01*
X108473000Y-66128238D01*
X108425380Y-65985380D01*
X108425380Y-65890142D01*
X108473000Y-65747285D01*
X108520619Y-65699666D01*
X109425380Y-64747285D02*
X109425380Y-65318714D01*
X109425380Y-65033000D02*
X108425380Y-65033000D01*
X108568238Y-65128238D01*
X108663476Y-65223476D01*
X108711095Y-65318714D01*
X177206333Y-121190142D02*
X177158714Y-121237761D01*
X177015857Y-121285380D01*
X176920619Y-121285380D01*
X176777761Y-121237761D01*
X176682523Y-121142523D01*
X176634904Y-121047285D01*
X176587285Y-120856809D01*
X176587285Y-120713952D01*
X176634904Y-120523476D01*
X176682523Y-120428238D01*
X176777761Y-120333000D01*
X176920619Y-120285380D01*
X177015857Y-120285380D01*
X177158714Y-120333000D01*
X177206333Y-120380619D01*
X177587285Y-120380619D02*
X177634904Y-120333000D01*
X177730142Y-120285380D01*
X177968238Y-120285380D01*
X178063476Y-120333000D01*
X178111095Y-120380619D01*
X178158714Y-120475857D01*
X178158714Y-120571095D01*
X178111095Y-120713952D01*
X177539666Y-121285380D01*
X178158714Y-121285380D01*
X120277761Y-136380619D02*
X120182523Y-136333000D01*
X120087285Y-136237761D01*
X119944428Y-136094904D01*
X119849190Y-136047285D01*
X119753952Y-136047285D01*
X119801571Y-136285380D02*
X119706333Y-136237761D01*
X119611095Y-136142523D01*
X119563476Y-135952047D01*
X119563476Y-135618714D01*
X119611095Y-135428238D01*
X119706333Y-135333000D01*
X119801571Y-135285380D01*
X119992047Y-135285380D01*
X120087285Y-135333000D01*
X120182523Y-135428238D01*
X120230142Y-135618714D01*
X120230142Y-135952047D01*
X120182523Y-136142523D01*
X120087285Y-136237761D01*
X119992047Y-136285380D01*
X119801571Y-136285380D01*
X120611095Y-135380619D02*
X120658714Y-135333000D01*
X120753952Y-135285380D01*
X120992047Y-135285380D01*
X121087285Y-135333000D01*
X121134904Y-135380619D01*
X121182523Y-135475857D01*
X121182523Y-135571095D01*
X121134904Y-135713952D01*
X120563476Y-136285380D01*
X121182523Y-136285380D01*
X120277761Y-131380619D02*
X120182523Y-131333000D01*
X120087285Y-131237761D01*
X119944428Y-131094904D01*
X119849190Y-131047285D01*
X119753952Y-131047285D01*
X119801571Y-131285380D02*
X119706333Y-131237761D01*
X119611095Y-131142523D01*
X119563476Y-130952047D01*
X119563476Y-130618714D01*
X119611095Y-130428238D01*
X119706333Y-130333000D01*
X119801571Y-130285380D01*
X119992047Y-130285380D01*
X120087285Y-130333000D01*
X120182523Y-130428238D01*
X120230142Y-130618714D01*
X120230142Y-130952047D01*
X120182523Y-131142523D01*
X120087285Y-131237761D01*
X119992047Y-131285380D01*
X119801571Y-131285380D01*
X120563476Y-130285380D02*
X121182523Y-130285380D01*
X120849190Y-130666333D01*
X120992047Y-130666333D01*
X121087285Y-130713952D01*
X121134904Y-130761571D01*
X121182523Y-130856809D01*
X121182523Y-131094904D01*
X121134904Y-131190142D01*
X121087285Y-131237761D01*
X120992047Y-131285380D01*
X120706333Y-131285380D01*
X120611095Y-131237761D01*
X120563476Y-131190142D01*
X123925380Y-125799666D02*
X123449190Y-126133000D01*
X123925380Y-126371095D02*
X122925380Y-126371095D01*
X122925380Y-125990142D01*
X122973000Y-125894904D01*
X123020619Y-125847285D01*
X123115857Y-125799666D01*
X123258714Y-125799666D01*
X123353952Y-125847285D01*
X123401571Y-125894904D01*
X123449190Y-125990142D01*
X123449190Y-126371095D01*
X123925380Y-124847285D02*
X123925380Y-125418714D01*
X123925380Y-125133000D02*
X122925380Y-125133000D01*
X123068238Y-125228238D01*
X123163476Y-125323476D01*
X123211095Y-125418714D01*
X173706333Y-117135380D02*
X173373000Y-116659190D01*
X173134904Y-117135380D02*
X173134904Y-116135380D01*
X173515857Y-116135380D01*
X173611095Y-116183000D01*
X173658714Y-116230619D01*
X173706333Y-116325857D01*
X173706333Y-116468714D01*
X173658714Y-116563952D01*
X173611095Y-116611571D01*
X173515857Y-116659190D01*
X173134904Y-116659190D01*
X174087285Y-116230619D02*
X174134904Y-116183000D01*
X174230142Y-116135380D01*
X174468238Y-116135380D01*
X174563476Y-116183000D01*
X174611095Y-116230619D01*
X174658714Y-116325857D01*
X174658714Y-116421095D01*
X174611095Y-116563952D01*
X174039666Y-117135380D01*
X174658714Y-117135380D01*
X123825380Y-136099666D02*
X123349190Y-136433000D01*
X123825380Y-136671095D02*
X122825380Y-136671095D01*
X122825380Y-136290142D01*
X122873000Y-136194904D01*
X122920619Y-136147285D01*
X123015857Y-136099666D01*
X123158714Y-136099666D01*
X123253952Y-136147285D01*
X123301571Y-136194904D01*
X123349190Y-136290142D01*
X123349190Y-136671095D01*
X122825380Y-135766333D02*
X122825380Y-135147285D01*
X123206333Y-135480619D01*
X123206333Y-135337761D01*
X123253952Y-135242523D01*
X123301571Y-135194904D01*
X123396809Y-135147285D01*
X123634904Y-135147285D01*
X123730142Y-135194904D01*
X123777761Y-135242523D01*
X123825380Y-135337761D01*
X123825380Y-135623476D01*
X123777761Y-135718714D01*
X123730142Y-135766333D01*
X173706333Y-121135380D02*
X173373000Y-120659190D01*
X173134904Y-121135380D02*
X173134904Y-120135380D01*
X173515857Y-120135380D01*
X173611095Y-120183000D01*
X173658714Y-120230619D01*
X173706333Y-120325857D01*
X173706333Y-120468714D01*
X173658714Y-120563952D01*
X173611095Y-120611571D01*
X173515857Y-120659190D01*
X173134904Y-120659190D01*
X174563476Y-120468714D02*
X174563476Y-121135380D01*
X174325380Y-120087761D02*
X174087285Y-120802047D01*
X174706333Y-120802047D01*
X106275380Y-114499666D02*
X105799190Y-114833000D01*
X106275380Y-115071095D02*
X105275380Y-115071095D01*
X105275380Y-114690142D01*
X105323000Y-114594904D01*
X105370619Y-114547285D01*
X105465857Y-114499666D01*
X105608714Y-114499666D01*
X105703952Y-114547285D01*
X105751571Y-114594904D01*
X105799190Y-114690142D01*
X105799190Y-115071095D01*
X105275380Y-113594904D02*
X105275380Y-114071095D01*
X105751571Y-114118714D01*
X105703952Y-114071095D01*
X105656333Y-113975857D01*
X105656333Y-113737761D01*
X105703952Y-113642523D01*
X105751571Y-113594904D01*
X105846809Y-113547285D01*
X106084904Y-113547285D01*
X106180142Y-113594904D01*
X106227761Y-113642523D01*
X106275380Y-113737761D01*
X106275380Y-113975857D01*
X106227761Y-114071095D01*
X106180142Y-114118714D01*
X108275380Y-114499666D02*
X107799190Y-114833000D01*
X108275380Y-115071095D02*
X107275380Y-115071095D01*
X107275380Y-114690142D01*
X107323000Y-114594904D01*
X107370619Y-114547285D01*
X107465857Y-114499666D01*
X107608714Y-114499666D01*
X107703952Y-114547285D01*
X107751571Y-114594904D01*
X107799190Y-114690142D01*
X107799190Y-115071095D01*
X107275380Y-113642523D02*
X107275380Y-113833000D01*
X107323000Y-113928238D01*
X107370619Y-113975857D01*
X107513476Y-114071095D01*
X107703952Y-114118714D01*
X108084904Y-114118714D01*
X108180142Y-114071095D01*
X108227761Y-114023476D01*
X108275380Y-113928238D01*
X108275380Y-113737761D01*
X108227761Y-113642523D01*
X108180142Y-113594904D01*
X108084904Y-113547285D01*
X107846809Y-113547285D01*
X107751571Y-113594904D01*
X107703952Y-113642523D01*
X107656333Y-113737761D01*
X107656333Y-113928238D01*
X107703952Y-114023476D01*
X107751571Y-114071095D01*
X107846809Y-114118714D01*
X110275380Y-114499666D02*
X109799190Y-114833000D01*
X110275380Y-115071095D02*
X109275380Y-115071095D01*
X109275380Y-114690142D01*
X109323000Y-114594904D01*
X109370619Y-114547285D01*
X109465857Y-114499666D01*
X109608714Y-114499666D01*
X109703952Y-114547285D01*
X109751571Y-114594904D01*
X109799190Y-114690142D01*
X109799190Y-115071095D01*
X109275380Y-114166333D02*
X109275380Y-113499666D01*
X110275380Y-113928238D01*
X112275380Y-114499666D02*
X111799190Y-114833000D01*
X112275380Y-115071095D02*
X111275380Y-115071095D01*
X111275380Y-114690142D01*
X111323000Y-114594904D01*
X111370619Y-114547285D01*
X111465857Y-114499666D01*
X111608714Y-114499666D01*
X111703952Y-114547285D01*
X111751571Y-114594904D01*
X111799190Y-114690142D01*
X111799190Y-115071095D01*
X111703952Y-113928238D02*
X111656333Y-114023476D01*
X111608714Y-114071095D01*
X111513476Y-114118714D01*
X111465857Y-114118714D01*
X111370619Y-114071095D01*
X111323000Y-114023476D01*
X111275380Y-113928238D01*
X111275380Y-113737761D01*
X111323000Y-113642523D01*
X111370619Y-113594904D01*
X111465857Y-113547285D01*
X111513476Y-113547285D01*
X111608714Y-113594904D01*
X111656333Y-113642523D01*
X111703952Y-113737761D01*
X111703952Y-113928238D01*
X111751571Y-114023476D01*
X111799190Y-114071095D01*
X111894428Y-114118714D01*
X112084904Y-114118714D01*
X112180142Y-114071095D01*
X112227761Y-114023476D01*
X112275380Y-113928238D01*
X112275380Y-113737761D01*
X112227761Y-113642523D01*
X112180142Y-113594904D01*
X112084904Y-113547285D01*
X111894428Y-113547285D01*
X111799190Y-113594904D01*
X111751571Y-113642523D01*
X111703952Y-113737761D01*
X114275380Y-114499666D02*
X113799190Y-114833000D01*
X114275380Y-115071095D02*
X113275380Y-115071095D01*
X113275380Y-114690142D01*
X113323000Y-114594904D01*
X113370619Y-114547285D01*
X113465857Y-114499666D01*
X113608714Y-114499666D01*
X113703952Y-114547285D01*
X113751571Y-114594904D01*
X113799190Y-114690142D01*
X113799190Y-115071095D01*
X114275380Y-114023476D02*
X114275380Y-113833000D01*
X114227761Y-113737761D01*
X114180142Y-113690142D01*
X114037285Y-113594904D01*
X113846809Y-113547285D01*
X113465857Y-113547285D01*
X113370619Y-113594904D01*
X113323000Y-113642523D01*
X113275380Y-113737761D01*
X113275380Y-113928238D01*
X113323000Y-114023476D01*
X113370619Y-114071095D01*
X113465857Y-114118714D01*
X113703952Y-114118714D01*
X113799190Y-114071095D01*
X113846809Y-114023476D01*
X113894428Y-113928238D01*
X113894428Y-113737761D01*
X113846809Y-113642523D01*
X113799190Y-113594904D01*
X113703952Y-113547285D01*
X116275380Y-114975857D02*
X115799190Y-115309190D01*
X116275380Y-115547285D02*
X115275380Y-115547285D01*
X115275380Y-115166333D01*
X115323000Y-115071095D01*
X115370619Y-115023476D01*
X115465857Y-114975857D01*
X115608714Y-114975857D01*
X115703952Y-115023476D01*
X115751571Y-115071095D01*
X115799190Y-115166333D01*
X115799190Y-115547285D01*
X116275380Y-114023476D02*
X116275380Y-114594904D01*
X116275380Y-114309190D02*
X115275380Y-114309190D01*
X115418238Y-114404428D01*
X115513476Y-114499666D01*
X115561095Y-114594904D01*
X115275380Y-113404428D02*
X115275380Y-113309190D01*
X115323000Y-113213952D01*
X115370619Y-113166333D01*
X115465857Y-113118714D01*
X115656333Y-113071095D01*
X115894428Y-113071095D01*
X116084904Y-113118714D01*
X116180142Y-113166333D01*
X116227761Y-113213952D01*
X116275380Y-113309190D01*
X116275380Y-113404428D01*
X116227761Y-113499666D01*
X116180142Y-113547285D01*
X116084904Y-113594904D01*
X115894428Y-113642523D01*
X115656333Y-113642523D01*
X115465857Y-113594904D01*
X115370619Y-113547285D01*
X115323000Y-113499666D01*
X115275380Y-113404428D01*
X118275380Y-114975857D02*
X117799190Y-115309190D01*
X118275380Y-115547285D02*
X117275380Y-115547285D01*
X117275380Y-115166333D01*
X117323000Y-115071095D01*
X117370619Y-115023476D01*
X117465857Y-114975857D01*
X117608714Y-114975857D01*
X117703952Y-115023476D01*
X117751571Y-115071095D01*
X117799190Y-115166333D01*
X117799190Y-115547285D01*
X118275380Y-114023476D02*
X118275380Y-114594904D01*
X118275380Y-114309190D02*
X117275380Y-114309190D01*
X117418238Y-114404428D01*
X117513476Y-114499666D01*
X117561095Y-114594904D01*
X118275380Y-113071095D02*
X118275380Y-113642523D01*
X118275380Y-113356809D02*
X117275380Y-113356809D01*
X117418238Y-113452047D01*
X117513476Y-113547285D01*
X117561095Y-113642523D01*
X165539666Y-52285380D02*
X165539666Y-52999666D01*
X165492047Y-53142523D01*
X165396809Y-53237761D01*
X165253952Y-53285380D01*
X165158714Y-53285380D01*
X165968238Y-52380619D02*
X166015857Y-52333000D01*
X166111095Y-52285380D01*
X166349190Y-52285380D01*
X166444428Y-52333000D01*
X166492047Y-52380619D01*
X166539666Y-52475857D01*
X166539666Y-52571095D01*
X166492047Y-52713952D01*
X165920619Y-53285380D01*
X166539666Y-53285380D01*
X131539666Y-52285380D02*
X131539666Y-52999666D01*
X131492047Y-53142523D01*
X131396809Y-53237761D01*
X131253952Y-53285380D01*
X131158714Y-53285380D01*
X131920619Y-52285380D02*
X132539666Y-52285380D01*
X132206333Y-52666333D01*
X132349190Y-52666333D01*
X132444428Y-52713952D01*
X132492047Y-52761571D01*
X132539666Y-52856809D01*
X132539666Y-53094904D01*
X132492047Y-53190142D01*
X132444428Y-53237761D01*
X132349190Y-53285380D01*
X132063476Y-53285380D01*
X131968238Y-53237761D01*
X131920619Y-53190142D01*
X187956333Y-68790142D02*
X187908714Y-68837761D01*
X187765857Y-68885380D01*
X187670619Y-68885380D01*
X187527761Y-68837761D01*
X187432523Y-68742523D01*
X187384904Y-68647285D01*
X187337285Y-68456809D01*
X187337285Y-68313952D01*
X187384904Y-68123476D01*
X187432523Y-68028238D01*
X187527761Y-67933000D01*
X187670619Y-67885380D01*
X187765857Y-67885380D01*
X187908714Y-67933000D01*
X187956333Y-67980619D01*
X188813476Y-68218714D02*
X188813476Y-68885380D01*
X188575380Y-67837761D02*
X188337285Y-68552047D01*
X188956333Y-68552047D01*
X183425380Y-113775857D02*
X182949190Y-114109190D01*
X183425380Y-114347285D02*
X182425380Y-114347285D01*
X182425380Y-113966333D01*
X182473000Y-113871095D01*
X182520619Y-113823476D01*
X182615857Y-113775857D01*
X182758714Y-113775857D01*
X182853952Y-113823476D01*
X182901571Y-113871095D01*
X182949190Y-113966333D01*
X182949190Y-114347285D01*
X183425380Y-112823476D02*
X183425380Y-113394904D01*
X183425380Y-113109190D02*
X182425380Y-113109190D01*
X182568238Y-113204428D01*
X182663476Y-113299666D01*
X182711095Y-113394904D01*
X182520619Y-112442523D02*
X182473000Y-112394904D01*
X182425380Y-112299666D01*
X182425380Y-112061571D01*
X182473000Y-111966333D01*
X182520619Y-111918714D01*
X182615857Y-111871095D01*
X182711095Y-111871095D01*
X182853952Y-111918714D01*
X183425380Y-112490142D01*
X183425380Y-111871095D01*
X177675380Y-113675857D02*
X177199190Y-114009190D01*
X177675380Y-114247285D02*
X176675380Y-114247285D01*
X176675380Y-113866333D01*
X176723000Y-113771095D01*
X176770619Y-113723476D01*
X176865857Y-113675857D01*
X177008714Y-113675857D01*
X177103952Y-113723476D01*
X177151571Y-113771095D01*
X177199190Y-113866333D01*
X177199190Y-114247285D01*
X177675380Y-112723476D02*
X177675380Y-113294904D01*
X177675380Y-113009190D02*
X176675380Y-113009190D01*
X176818238Y-113104428D01*
X176913476Y-113199666D01*
X176961095Y-113294904D01*
X176675380Y-112390142D02*
X176675380Y-111771095D01*
X177056333Y-112104428D01*
X177056333Y-111961571D01*
X177103952Y-111866333D01*
X177151571Y-111818714D01*
X177246809Y-111771095D01*
X177484904Y-111771095D01*
X177580142Y-111818714D01*
X177627761Y-111866333D01*
X177675380Y-111961571D01*
X177675380Y-112247285D01*
X177627761Y-112342523D01*
X177580142Y-112390142D01*
X119225380Y-62271095D02*
X118225380Y-62271095D01*
X118225380Y-62033000D01*
X118273000Y-61890142D01*
X118368238Y-61794904D01*
X118463476Y-61747285D01*
X118653952Y-61699666D01*
X118796809Y-61699666D01*
X118987285Y-61747285D01*
X119082523Y-61794904D01*
X119177761Y-61890142D01*
X119225380Y-62033000D01*
X119225380Y-62271095D01*
X119225380Y-60747285D02*
X119225380Y-61318714D01*
X119225380Y-61033000D02*
X118225380Y-61033000D01*
X118368238Y-61128238D01*
X118463476Y-61223476D01*
X118511095Y-61318714D01*
X113625380Y-61875857D02*
X113149190Y-62209190D01*
X113625380Y-62447285D02*
X112625380Y-62447285D01*
X112625380Y-62066333D01*
X112673000Y-61971095D01*
X112720619Y-61923476D01*
X112815857Y-61875857D01*
X112958714Y-61875857D01*
X113053952Y-61923476D01*
X113101571Y-61971095D01*
X113149190Y-62066333D01*
X113149190Y-62447285D01*
X113625380Y-60923476D02*
X113625380Y-61494904D01*
X113625380Y-61209190D02*
X112625380Y-61209190D01*
X112768238Y-61304428D01*
X112863476Y-61399666D01*
X112911095Y-61494904D01*
X112958714Y-60066333D02*
X113625380Y-60066333D01*
X112577761Y-60304428D02*
X113292047Y-60542523D01*
X113292047Y-59923476D01*
X180539666Y-82537761D02*
X180682523Y-82585380D01*
X180920619Y-82585380D01*
X181015857Y-82537761D01*
X181063476Y-82490142D01*
X181111095Y-82394904D01*
X181111095Y-82299666D01*
X181063476Y-82204428D01*
X181015857Y-82156809D01*
X180920619Y-82109190D01*
X180730142Y-82061571D01*
X180634904Y-82013952D01*
X180587285Y-81966333D01*
X180539666Y-81871095D01*
X180539666Y-81775857D01*
X180587285Y-81680619D01*
X180634904Y-81633000D01*
X180730142Y-81585380D01*
X180968238Y-81585380D01*
X181111095Y-81633000D01*
X181444428Y-81585380D02*
X181682523Y-82585380D01*
X181873000Y-81871095D01*
X182063476Y-82585380D01*
X182301571Y-81585380D01*
X183206333Y-82585380D02*
X182634904Y-82585380D01*
X182920619Y-82585380D02*
X182920619Y-81585380D01*
X182825380Y-81728238D01*
X182730142Y-81823476D01*
X182634904Y-81871095D01*
X179939666Y-98237761D02*
X180082523Y-98285380D01*
X180320619Y-98285380D01*
X180415857Y-98237761D01*
X180463476Y-98190142D01*
X180511095Y-98094904D01*
X180511095Y-97999666D01*
X180463476Y-97904428D01*
X180415857Y-97856809D01*
X180320619Y-97809190D01*
X180130142Y-97761571D01*
X180034904Y-97713952D01*
X179987285Y-97666333D01*
X179939666Y-97571095D01*
X179939666Y-97475857D01*
X179987285Y-97380619D01*
X180034904Y-97333000D01*
X180130142Y-97285380D01*
X180368238Y-97285380D01*
X180511095Y-97333000D01*
X180844428Y-97285380D02*
X181082523Y-98285380D01*
X181273000Y-97571095D01*
X181463476Y-98285380D01*
X181701571Y-97285380D01*
X182034904Y-97380619D02*
X182082523Y-97333000D01*
X182177761Y-97285380D01*
X182415857Y-97285380D01*
X182511095Y-97333000D01*
X182558714Y-97380619D01*
X182606333Y-97475857D01*
X182606333Y-97571095D01*
X182558714Y-97713952D01*
X181987285Y-98285380D01*
X182606333Y-98285380D01*
X148614666Y-54935380D02*
X148614666Y-55649666D01*
X148567047Y-55792523D01*
X148471809Y-55887761D01*
X148328952Y-55935380D01*
X148233714Y-55935380D01*
X149614666Y-55935380D02*
X149043238Y-55935380D01*
X149328952Y-55935380D02*
X149328952Y-54935380D01*
X149233714Y-55078238D01*
X149138476Y-55173476D01*
X149043238Y-55221095D01*
X154876571Y-59590142D02*
X156019428Y-59590142D01*
X155448000Y-60161571D02*
X155448000Y-59018714D01*
X141876571Y-59590142D02*
X143019428Y-59590142D01*
M02*
