M48
; DRILL file {KiCad 5.1.4+dfsg1-1} date Thu 20 Aug 2020 09:44:57 PM CDT
; FORMAT={2:4/ absolute / inch / suppress leading zeros}
; #@! TF.CreationDate,2020-08-20T21:44:57-05:00
; #@! TF.GenerationSoftware,Kicad,Pcbnew,5.1.4+dfsg1-1
; #@! TF.FileFunction,Plated,1,2,PTH
FMAT,2
INCH,TZ
T1C0.0157
T2C0.0315
T3C0.0394
T4C0.0402
T5C0.0433
T6C0.0642
T7C0.1063
T8C0.2402
%
G90
G05
T1
X44399Y-28674
X45147Y-29422
X47785Y-51509
X47785Y-53478
X56092Y-54344
X66249Y-38714
X68060Y-45958
X68060Y-48950
X70816Y-47375
X70816Y-46509
X70895Y-48241
T2
X73572Y-28674
X74556Y-28674
X51131Y-47281
X51131Y-53281
X52131Y-47281
X52131Y-53281
X53131Y-47281
X53131Y-53281
X54131Y-47281
X54131Y-53281
X55131Y-47281
X55131Y-53281
X56131Y-47281
X56131Y-53281
X57131Y-47281
X57131Y-53281
X58131Y-47281
X58131Y-53281
X59131Y-47281
X59131Y-53281
X60131Y-47281
X60131Y-53281
X61131Y-47281
X61131Y-53281
X62131Y-47281
X62131Y-53281
X63131Y-47281
X63131Y-53281
X64131Y-47281
X64131Y-53281
X65131Y-47281
X65131Y-53281
T3
X41879Y-34580
X41879Y-35580
X41879Y-36580
X41879Y-37580
X41879Y-38580
X41879Y-39580
X41879Y-40580
X41879Y-41580
X46879Y-34580
X46879Y-35580
X46879Y-36580
X46879Y-37580
X46879Y-38580
X46879Y-39580
X46879Y-40580
X46879Y-41580
T4
X74044Y-46044
X74044Y-47044
X74044Y-48044
X74044Y-49044
T5
X67706Y-31352
X67706Y-33320
X69674Y-31352
X69674Y-33320
X67548Y-37533
X67548Y-39501
X69517Y-37533
X69517Y-39501
T6
X49163Y-29265
X49163Y-45013
T7
X57657Y-23419
X59625Y-23419
T8
X65304Y-23359
X51919Y-23359
T0
M30
