<svg height="312mmmm" version="1.1" viewBox="-4 -308 182 312" width="182mmmm" xmlns="http://www.w3.org/2000/svg">
<title>OpenSCAD Model</title>
<path d="M 59.3167,0.0500031 L 88.85,0.0500031 L 88.85,1.15396 L 88.8272,1.15756 L 88.7918,1.16705 L 88.7576,1.18018 L 88.725,1.19684 L 88.6942,1.21678 L 88.6658,1.23984 L 88.6398,1.26575 L 88.6168,1.29422 L 88.5968,1.32497 L 88.5802,1.35762 L 88.5671,1.39182 L 88.5576,1.4272 L 88.5518,1.46339 L 88.5499,1.5 L 88.5518,1.53659 L 88.5576,1.57278 L 88.5671,1.60817 L 88.5802,1.64236 L 88.5968,1.67502 L 88.6168,1.70576 L 88.6398,1.73424 L 88.6658,1.76015 L 88.6942,1.7832 L 88.725,1.80315 L 88.7576,1.81981 L 88.7918,1.83293 L 88.8272,1.84242 L 88.85,1.84602 L 88.85,3.05 L 118.583,3.05 L 118.583,0.0500031 L 148.117,0.0500031 L 148.117,1.15396 L 148.094,1.15756 L 148.058,1.16705 L 148.024,1.18018 L 147.992,1.19684 L 147.961,1.21678 L 147.932,1.23985 L 147.907,1.26575 L 147.883,1.29422 L 147.863,1.32497 L 147.847,1.3576 L 147.834,1.39182 L 147.824,1.42722 L 147.819,1.46339 L 147.817,1.5 L 147.819,1.53659 L 147.824,1.57277 L 147.834,1.60817 L 147.847,1.64238 L 147.863,1.67502 L 147.883,1.70576 L 147.907,1.73424 L 147.932,1.76013 L 147.961,1.7832 L 147.992,1.80315 L 148.024,1.81981 L 148.058,1.83293 L 148.094,1.84242 L 148.117,1.84602 L 148.117,3.05 L 177.85,3.05 L 177.85,-304.85 L 148.217,-304.85 L 148.217,-307.85 L 118.483,-307.85 L 118.483,-304.85 L 88.95,-304.85 L 88.95,-307.85 L 59.2167,-307.85 L 59.2167,-304.85 L 29.6833,-304.85 L 29.6833,-307.85 L -0.0500031,-307.85 L -0.0500031,-266.75 L -3.05,-266.75 L -3.05,-228.55 L -0.0500031,-228.55 L -0.0500031,-190.55 L -3.05,-190.55 L -3.05,-152.35 L -0.0500031,-152.35 L -0.0500031,-114.35 L -3.05,-114.35 L -3.05,-76.15 L -0.0500031,-76.15 L -0.0500031,-38.15 L -3.05,-38.15 L -3.05,0.0500031 L 29.5833,0.0500031 L 29.5833,1.15396 L 29.5605,1.15756 L 29.5251,1.16705 L 29.4909,1.18018 L 29.4583,1.19684 L 29.4276,1.21678 L 29.3991,1.23985 L 29.3732,1.26575 L 29.3501,1.29422 L 29.3302,1.32497 L 29.3135,1.3576 L 29.3004,1.39182 L 29.2909,1.42722 L 29.2852,1.46339 L 29.2833,1.5 L 29.2852,1.53659 L 29.2909,1.57277 L 29.3004,1.60817 L 29.3135,1.64238 L 29.3302,1.67502 L 29.3501,1.70576 L 29.3732,1.73424 L 29.3991,1.76013 L 29.4276,1.7832 L 29.4583,1.80315 L 29.4909,1.81981 L 29.5251,1.83293 L 29.5605,1.84242 L 29.5833,1.84602 L 29.5833,3.05 L 59.3167,3.05 Z" fill="none" stroke="#0000ff" stroke-width="0.1"/>
<path d="M 240.217,0.0500031 L 269.75,0.0500031 L 269.75,1.15396 L 269.727,1.15756 L 269.692,1.16705 L 269.658,1.18018 L 269.625,1.19684 L 269.594,1.2168 L 269.566,1.23985 L 269.54,1.26573 L 269.517,1.29422 L 269.497,1.32497 L 269.48,1.3576 L 269.467,1.39182 L 269.458,1.42722 L 269.452,1.46339 L 269.45,1.5 L 269.452,1.53659 L 269.458,1.57277 L 269.467,1.60817 L 269.48,1.64238 L 269.497,1.67502 L 269.517,1.70576 L 269.54,1.73425 L 269.566,1.76013 L 269.594,1.78319 L 269.625,1.80315 L 269.658,1.81981 L 269.692,1.83293 L 269.727,1.84242 L 269.75,1.84602 L 269.75,3.05 L 299.483,3.05 L 299.483,0.0500031 L 329.017,0.0500031 L 329.017,1.15396 L 328.994,1.15756 L 328.958,1.16705 L 328.924,1.18018 L 328.892,1.19684 L 328.861,1.2168 L 328.832,1.23985 L 328.807,1.26575 L 328.783,1.29422 L 328.763,1.32495 L 328.747,1.3576 L 328.734,1.39182 L 328.724,1.42722 L 328.719,1.46339 L 328.717,1.5 L 328.719,1.53659 L 328.724,1.57277 L 328.734,1.60817 L 328.747,1.64238 L 328.763,1.67503 L 328.783,1.70576 L 328.807,1.73424 L 328.832,1.76013 L 328.861,1.78319 L 328.892,1.80315 L 328.924,1.81981 L 328.958,1.83293 L 328.994,1.84242 L 329.017,1.84602 L 329.017,3.05 L 358.75,3.05 M 358.75,-304.85 L 329.117,-304.85 L 329.117,-307.85 L 299.383,-307.85 L 299.383,-304.85 L 269.85,-304.85 L 269.85,-307.85 L 240.117,-307.85 L 240.117,-304.85 L 210.583,-304.85 L 210.583,-307.85 L 180.85,-307.85 L 180.85,-266.75 L 177.85,-266.75 M 177.85,-228.55 L 180.85,-228.55 L 180.85,-190.55 L 177.85,-190.55 M 177.85,-152.35 L 180.85,-152.35 L 180.85,-114.35 L 177.85,-114.35 M 177.85,-76.15 L 180.85,-76.15 L 180.85,-38.15 L 177.85,-38.15 M 177.85,0.0500031 L 210.483,0.0500031 L 210.483,1.15396 L 210.461,1.15756 L 210.425,1.16705 L 210.391,1.18018 L 210.358,1.19684 L 210.328,1.21678 L 210.299,1.23985 L 210.273,1.26575 L 210.25,1.29422 L 210.23,1.32497 L 210.214,1.3576 L 210.2,1.3918 L 210.191,1.4272 L 210.185,1.46339 L 210.183,1.5 L 210.185,1.53659 L 210.191,1.57278 L 210.2,1.60818 L 210.214,1.64238 L 210.23,1.67502 L 210.25,1.70576 L 210.273,1.73424 L 210.299,1.76013 L 210.328,1.7832 L 210.358,1.80315 L 210.391,1.81981 L 210.425,1.83293 L 210.461,1.84242 L 210.483,1.84602 L 210.483,3.05 L 240.217,3.05 Z" fill="none" stroke="#0000ff" stroke-width="0.1"/><path d="M 421.117,0.0500031 L 450.65,0.0500031 L 450.65,1.15396 L 450.627,1.15756 L 450.592,1.16705 L 450.558,1.18018 L 450.525,1.19684 L 450.494,1.2168 L 450.466,1.23985 L 450.44,1.26575 L 450.417,1.29422 L 450.397,1.32495 L 450.38,1.3576 L 450.367,1.39182 L 450.358,1.42722 L 450.352,1.46339 L 450.35,1.5 L 450.352,1.53659 L 450.358,1.57277 L 450.367,1.60817 L 450.38,1.64238 L 450.397,1.67503 L 450.417,1.70576 L 450.44,1.73424 L 450.466,1.76013 L 450.494,1.78319 L 450.525,1.80315 L 450.558,1.81981 L 450.592,1.83293 L 450.627,1.84242 L 450.65,1.84602 L 450.65,3.05 L 480.383,3.05 L 480.383,0.0500031 L 509.917,0.0500031 L 509.917,1.15396 L 509.894,1.15756 L 509.858,1.16705 L 509.824,1.18019 L 509.792,1.19684 L 509.761,1.21678 L 509.732,1.23984 L 509.707,1.26575 L 509.683,1.29422 L 509.663,1.32495 L 509.647,1.3576 L 509.634,1.39182 L 509.624,1.42722 L 509.619,1.46339 L 509.617,1.5 L 509.619,1.53659 L 509.624,1.57277 L 509.634,1.60817 L 509.647,1.64238 L 509.663,1.67503 L 509.683,1.70576 L 509.707,1.73424 L 509.732,1.76015 L 509.761,1.7832 L 509.792,1.80315 L 509.824,1.81979 L 509.858,1.83293 L 509.894,1.84242 L 509.917,1.84602 L 509.917,3.05 L 539.65,3.05 L 539.65,-304.85 L 510.017,-304.85 L 510.017,-307.85 L 480.283,-307.85 L 480.283,-304.85 L 450.75,-304.85 L 450.75,-307.85 L 421.017,-307.85 L 421.017,-304.85 L 391.483,-304.85 L 391.483,-307.85 L 361.75,-307.85 L 361.75,-266.75 L 358.75,-266.75 M 358.75,-228.55 L 361.75,-228.55 L 361.75,-190.55 L 358.75,-190.55 M 358.75,-152.35 L 361.75,-152.35 L 361.75,-114.35 L 358.75,-114.35 M 358.75,-76.15 L 361.75,-76.15 L 361.75,-38.15 L 358.75,-38.15 M 358.75,-304.85 L 358.75,3.05 M 358.75,0.0500031 L 391.383,0.0500031 L 391.383,1.15396 L 391.361,1.15756 L 391.325,1.16705 L 391.291,1.18018 L 391.258,1.19684 L 391.228,1.2168 L 391.199,1.23985 L 391.173,1.26575 L 391.15,1.29422 L 391.13,1.32495 L 391.114,1.3576 L 391.1,1.39182 L 391.091,1.42722 L 391.085,1.46339 L 391.083,1.5 L 391.085,1.53659 L 391.091,1.57277 L 391.1,1.60817 L 391.114,1.64238 L 391.13,1.67503 L 391.15,1.70576 L 391.173,1.73424 L 391.199,1.76013 L 391.228,1.78319 L 391.258,1.80315 L 391.291,1.81981 L 391.325,1.83293 L 391.361,1.84242 L 391.383,1.84602 L 391.383,3.05 L 421.117,3.05 Z" fill="none" stroke="#0000ff" stroke-width="0.1"/><path d="M 602.017,0.0500031 L 631.55,0.0500031 L 631.55,1.15396 L 631.527,1.15756 L 631.492,1.16705 L 631.458,1.18018 L 631.425,1.19684 L 631.394,1.21678 L 631.366,1.23985 L 631.34,1.26576 L 631.317,1.29422 L 631.297,1.32495 L 631.28,1.3576 L 631.267,1.39185 L 631.258,1.4272 L 631.252,1.46336 L 631.25,1.5 L 631.252,1.53662 L 631.258,1.57278 L 631.267,1.60814 L 631.28,1.64238 L 631.297,1.67503 L 631.317,1.70576 L 631.34,1.73422 L 631.366,1.76013 L 631.394,1.7832 L 631.425,1.80315 L 631.458,1.81981 L 631.492,1.83293 L 631.527,1.84242 L 631.55,1.84602 L 631.55,3.05 L 661.283,3.05 L 661.283,0.0500031 L 690.817,0.0500031 L 690.817,1.15396 L 690.794,1.15756 L 690.759,1.16705 L 690.724,1.18018 L 690.692,1.19684 L 690.661,1.2168 L 690.632,1.23985 L 690.607,1.26573 L 690.583,1.29422 L 690.564,1.32495 L 690.547,1.3576 L 690.534,1.39185 L 690.524,1.4272 L 690.519,1.46336 L 690.517,1.5 L 690.519,1.53662 L 690.524,1.57278 L 690.534,1.60814 L 690.547,1.64238 L 690.564,1.67503 L 690.583,1.70576 L 690.607,1.73425 L 690.632,1.76013 L 690.661,1.78319 L 690.692,1.80315 L 690.724,1.81981 L 690.759,1.83293 L 690.794,1.84242 L 690.817,1.84602 L 690.817,3.05 L 720.55,3.05 L 720.55,-304.85 L 690.917,-304.85 L 690.917,-307.85 L 661.183,-307.85 L 661.183,-304.85 L 631.65,-304.85 L 631.65,-307.85 L 601.917,-307.85 L 601.917,-304.85 L 572.383,-304.85 L 572.383,-307.85 L 542.65,-307.85 L 542.65,-266.75 L 539.65,-266.75 M 539.65,-228.55 L 542.65,-228.55 L 542.65,-190.55 L 539.65,-190.55 M 539.65,-152.35 L 542.65,-152.35 L 542.65,-114.35 L 539.65,-114.35 M 539.65,-76.15 L 542.65,-76.15 L 542.65,-38.15 L 539.65,-38.15 M 539.65,0.0500031 L 572.283,0.0500031 L 572.283,1.15396 L 572.261,1.15756 L 572.225,1.16705 L 572.191,1.18019 L 572.158,1.19684 L 572.128,1.21678 L 572.099,1.23985 L 572.073,1.26576 L 572.05,1.29422 L 572.03,1.32495 L 572.014,1.3576 L 572,1.39185 L 571.991,1.4272 L 571.985,1.46336 L 571.983,1.5 L 571.985,1.53662 L 571.991,1.57278 L 572,1.60814 L 572.014,1.64238 L 572.03,1.67503 L 572.05,1.70576 L 572.073,1.73422 L 572.099,1.76013 L 572.128,1.7832 L 572.158,1.80315 L 572.191,1.81979 L 572.225,1.83293 L 572.261,1.84242 L 572.283,1.84602 L 572.283,3.05 L 602.017,3.05 Z" fill="none" stroke="#0000ff" stroke-width="0.1"/><path d="M 1063.35,18.9954 L 1065.32,18.6827 L 1067.25,18.1652 L 1069.12,17.4488 L 1070.9,16.5411 L 1072.58,15.4523 L 1074.13,14.1941 L 1075.54,12.7804 L 1076.8,11.2267 L 1077.89,9.55003 L 1078.8,7.76869 L 1079.52,5.90224 L 1080.03,3.97112 L 1080.18,3.05 L 1080.45,3.05 L 1080.45,-38.05 L 1081.55,-38.05 L 1081.56,-38.0273 L 1081.57,-37.9918 L 1081.58,-37.9576 L 1081.6,-37.925 L 1081.62,-37.8942 L 1081.64,-37.8658 L 1081.67,-37.8398 L 1081.69,-37.8168 L 1081.72,-37.7968 L 1081.76,-37.7802 L 1081.79,-37.7671 L 1081.83,-37.7576 L 1081.86,-37.7518 L 1081.9,-37.7499 L 1081.94,-37.7518 L 1081.97,-37.7576 L 1082.01,-37.7671 L 1082.04,-37.7802 L 1082.08,-37.7968 L 1082.11,-37.8168 L 1082.13,-37.8398 L 1082.16,-37.8658 L 1082.18,-37.8942 L 1082.2,-37.925 L 1082.22,-37.9576 L 1082.23,-37.9918 L 1082.24,-38.0272 L 1082.25,-38.05 L 1083.45,-38.05 L 1083.45,-38.3214 L 1084.37,-38.4673 L 1086.3,-38.9847 L 1088.17,-39.7012 L 1089.95,-40.6088 L 1091.63,-41.6977 L 1093.18,-42.9559 L 1094.59,-44.3696 L 1095.85,-45.9232 L 1096.94,-47.6 L 1097.85,-49.3813 L 1098.57,-51.2477 L 1099.08,-53.1789 L 1099.4,-55.1535 L 1099.5,-57.15 L 1099.4,-59.1465 L 1099.08,-61.1211 L 1098.57,-63.0522 L 1097.85,-64.9187 L 1096.94,-66.7 L 1095.85,-68.3767 L 1094.59,-69.9304 L 1093.18,-71.3441 L 1091.63,-72.6023 L 1089.95,-73.6911 L 1088.17,-74.5988 L 1086.3,-75.3152 L 1084.37,-75.8327 L 1083.45,-75.9786 L 1083.45,-76.25 L 1080.45,-76.25 L 1080.45,-114.25 L 1081.55,-114.25 L 1081.56,-114.227 L 1081.57,-114.192 L 1081.58,-114.158 L 1081.6,-114.125 L 1081.62,-114.094 L 1081.64,-114.066 L 1081.67,-114.04 L 1081.69,-114.017 L 1081.72,-113.997 L 1081.76,-113.98 L 1081.79,-113.967 L 1081.83,-113.958 L 1081.86,-113.952 L 1081.9,-113.95 L 1081.94,-113.952 L 1081.97,-113.958 L 1082.01,-113.967 L 1082.04,-113.98 L 1082.08,-113.997 L 1082.11,-114.017 L 1082.13,-114.04 L 1082.16,-114.066 L 1082.18,-114.094 L 1082.2,-114.125 L 1082.22,-114.158 L 1082.23,-114.192 L 1082.24,-114.227 L 1082.25,-114.25 L 1083.45,-114.25 L 1083.45,-114.521 L 1084.37,-114.667 L 1086.3,-115.185 L 1088.17,-115.901 L 1089.95,-116.809 L 1091.63,-117.898 L 1093.18,-119.156 L 1094.59,-120.57 L 1095.85,-122.123 L 1096.94,-123.8 L 1097.85,-125.581 L 1098.57,-127.448 L 1099.08,-129.379 L 1099.4,-131.354 L 1099.5,-133.35 L 1099.4,-135.346 L 1099.08,-137.321 L 1098.57,-139.252 L 1097.85,-141.119 L 1096.94,-142.9 L 1095.85,-144.577 L 1094.59,-146.13 L 1093.18,-147.544 L 1091.63,-148.802 L 1089.95,-149.891 L 1088.17,-150.799 L 1086.3,-151.515 L 1084.37,-152.033 L 1083.45,-152.179 L 1083.45,-152.45 L 1080.45,-152.45 L 1080.45,-190.45 L 1081.55,-190.45 L 1081.56,-190.427 L 1081.57,-190.392 L 1081.58,-190.358 L 1081.6,-190.325 L 1081.62,-190.294 L 1081.64,-190.266 L 1081.67,-190.24 L 1081.69,-190.217 L 1081.72,-190.197 L 1081.76,-190.18 L 1081.79,-190.167 L 1081.83,-190.158 L 1081.86,-190.152 L 1081.9,-190.15 L 1081.94,-190.152 L 1081.97,-190.158 L 1082.01,-190.167 L 1082.04,-190.18 L 1082.08,-190.197 L 1082.11,-190.217 L 1082.13,-190.24 L 1082.16,-190.266 L 1082.18,-190.294 L 1082.2,-190.325 L 1082.22,-190.358 L 1082.23,-190.392 L 1082.24,-190.427 L 1082.25,-190.45 L 1083.45,-190.45 L 1083.45,-190.721 L 1084.37,-190.867 L 1086.3,-191.385 L 1088.17,-192.101 L 1089.95,-193.009 L 1091.63,-194.098 L 1093.18,-195.356 L 1094.59,-196.77 L 1095.85,-198.323 L 1096.94,-200 L 1097.85,-201.781 L 1098.57,-203.648 L 1099.08,-205.579 L 1099.4,-207.553 L 1099.5,-209.55 L 1099.4,-211.546 L 1099.08,-213.521 L 1098.57,-215.452 L 1097.85,-217.319 L 1096.94,-219.1 L 1095.85,-220.777 L 1094.59,-222.33 L 1093.18,-223.744 L 1091.63,-225.002 L 1089.95,-226.091 L 1088.17,-226.999 L 1086.3,-227.715 L 1084.37,-228.233 L 1083.45,-228.379 L 1083.45,-228.65 L 1080.45,-228.65 L 1080.45,-266.65 L 1081.55,-266.65 L 1081.56,-266.627 L 1081.57,-266.592 L 1081.58,-266.558 L 1081.6,-266.525 L 1081.62,-266.494 L 1081.64,-266.466 L 1081.67,-266.44 L 1081.69,-266.417 L 1081.72,-266.397 L 1081.76,-266.38 L 1081.79,-266.367 L 1081.83,-266.358 L 1081.86,-266.352 L 1081.9,-266.35 L 1081.94,-266.352 L 1081.97,-266.358 L 1082.01,-266.367 L 1082.04,-266.38 L 1082.08,-266.397 L 1082.11,-266.417 L 1082.13,-266.44 L 1082.16,-266.466 L 1082.18,-266.494 L 1082.2,-266.525 L 1082.22,-266.558 L 1082.23,-266.592 L 1082.24,-266.627 L 1082.25,-266.65 L 1083.45,-266.65 L 1083.45,-266.921 L 1084.37,-267.067 L 1086.3,-267.585 L 1088.17,-268.301 L 1089.95,-269.209 L 1091.63,-270.298 L 1093.18,-271.556 L 1094.59,-272.97 L 1095.85,-274.523 L 1096.94,-276.2 L 1097.85,-277.981 L 1098.57,-279.848 L 1099.08,-281.779 L 1099.4,-283.753 L 1099.5,-285.75 L 1099.4,-287.747 L 1099.08,-289.721 L 1098.57,-291.652 L 1097.85,-293.519 L 1096.94,-295.3 L 1095.85,-296.977 L 1094.59,-298.53 L 1093.18,-299.944 L 1091.63,-301.202 L 1089.95,-302.291 L 1088.17,-303.199 L 1086.3,-303.915 L 1084.37,-304.433 L 1083.45,-304.579 L 1083.45,-304.85 L 1042.35,-304.85 L 1042.35,-305.954 L 1042.37,-305.958 L 1042.41,-305.967 L 1042.44,-305.98 L 1042.47,-305.997 L 1042.51,-306.017 L 1042.53,-306.04 L 1042.56,-306.066 L 1042.58,-306.094 L 1042.6,-306.125 L 1042.62,-306.158 L 1042.63,-306.192 L 1042.64,-306.227 L 1042.65,-306.263 L 1042.65,-306.3 L 1042.65,-306.337 L 1042.64,-306.373 L 1042.63,-306.408 L 1042.62,-306.442 L 1042.6,-306.475 L 1042.58,-306.506 L 1042.56,-306.534 L 1042.53,-306.56 L 1042.51,-306.583 L 1042.47,-306.603 L 1042.44,-306.62 L 1042.41,-306.633 L 1042.37,-306.642 L 1042.35,-306.646 L 1042.35,-307.85 L 1042.08,-307.85 L 1041.93,-308.771 L 1041.42,-310.702 L 1040.7,-312.569 L 1039.79,-314.35 L 1038.7,-316.027 L 1037.44,-317.58 L 1036.03,-318.994 L 1034.48,-320.252 L 1032.8,-321.341 L 1031.02,-322.249 L 1029.15,-322.965 L 1027.22,-323.483 L 1025.25,-323.795 L 1023.25,-323.9 L 1021.25,-323.795 L 1019.28,-323.483 L 1017.35,-322.965 L 1015.48,-322.249 L 1013.7,-321.341 L 1012.02,-320.252 L 1010.47,-318.994 L 1009.06,-317.58 L 1007.8,-316.027 L 1006.71,-314.35 L 1005.8,-312.569 L 1005.08,-310.702 L 1004.57,-308.771 L 1004.42,-307.85 L 1004.15,-307.85 L 1004.15,-304.85 L 966.15,-304.85 L 966.15,-305.954 L 966.173,-305.958 L 966.208,-305.967 L 966.242,-305.98 L 966.275,-305.997 L 966.306,-306.017 L 966.334,-306.04 L 966.36,-306.066 L 966.383,-306.094 L 966.403,-306.125 L 966.42,-306.158 L 966.433,-306.192 L 966.442,-306.227 L 966.448,-306.263 L 966.45,-306.3 L 966.448,-306.337 L 966.442,-306.373 L 966.433,-306.408 L 966.42,-306.442 L 966.403,-306.475 L 966.383,-306.506 L 966.36,-306.534 L 966.334,-306.56 L 966.306,-306.583 L 966.275,-306.603 L 966.242,-306.62 L 966.208,-306.633 L 966.173,-306.642 L 966.15,-306.646 L 966.15,-307.85 L 965.879,-307.85 L 965.733,-308.771 L 965.215,-310.702 L 964.499,-312.569 L 963.591,-314.35 L 962.502,-316.027 L 961.244,-317.58 L 959.83,-318.994 L 958.277,-320.252 L 956.6,-321.341 L 954.819,-322.249 L 952.952,-322.965 L 951.021,-323.483 L 949.046,-323.795 L 947.05,-323.9 L 945.053,-323.795 L 943.079,-323.483 L 941.148,-322.965 L 939.281,-322.249 L 937.5,-321.341 L 935.823,-320.252 L 934.27,-318.994 L 932.856,-317.58 L 931.598,-316.027 L 930.509,-314.35 L 929.601,-312.569 L 928.885,-310.702 L 928.367,-308.771 L 928.221,-307.85 L 927.95,-307.85 L 927.95,-304.85 L 889.95,-304.85 L 889.95,-305.954 L 889.973,-305.958 L 890.008,-305.967 L 890.042,-305.98 L 890.075,-305.997 L 890.106,-306.017 L 890.134,-306.04 L 890.16,-306.066 L 890.183,-306.094 L 890.203,-306.125 L 890.22,-306.158 L 890.233,-306.192 L 890.242,-306.227 L 890.248,-306.263 L 890.25,-306.3 L 890.248,-306.337 L 890.242,-306.373 L 890.233,-306.408 L 890.22,-306.442 L 890.203,-306.475 L 890.183,-306.506 L 890.16,-306.534 L 890.134,-306.56 L 890.106,-306.583 L 890.075,-306.603 L 890.042,-306.62 L 890.008,-306.633 L 889.973,-306.642 L 889.95,-306.646 L 889.95,-307.85 L 889.679,-307.85 L 889.533,-308.771 L 889.015,-310.702 L 888.299,-312.569 L 887.391,-314.35 L 886.302,-316.027 L 885.044,-317.58 L 883.63,-318.994 L 882.077,-320.252 L 880.4,-321.341 L 878.619,-322.249 L 876.752,-322.965 L 874.821,-323.483 L 872.846,-323.795 L 870.85,-323.9 L 868.853,-323.795 L 866.879,-323.483 L 864.948,-322.965 L 863.081,-322.249 L 861.3,-321.341 L 859.623,-320.252 L 858.07,-318.994 L 856.656,-317.58 L 855.398,-316.027 L 854.309,-314.35 L 853.401,-312.569 L 852.685,-310.702 L 852.167,-308.771 L 852.021,-307.85 L 851.75,-307.85 L 851.75,-304.85 L 813.75,-304.85 L 813.75,-305.954 L 813.773,-305.958 L 813.808,-305.967 L 813.842,-305.98 L 813.875,-305.997 L 813.906,-306.017 L 813.934,-306.04 L 813.96,-306.066 L 813.983,-306.094 L 814.003,-306.125 L 814.02,-306.158 L 814.033,-306.192 L 814.042,-306.227 L 814.048,-306.263 L 814.05,-306.3 L 814.048,-306.337 L 814.042,-306.373 L 814.033,-306.408 L 814.02,-306.442 L 814.003,-306.475 L 813.983,-306.506 L 813.96,-306.534 L 813.934,-306.56 L 813.906,-306.583 L 813.875,-306.603 L 813.842,-306.62 L 813.808,-306.633 L 813.773,-306.642 L 813.75,-306.646 L 813.75,-307.85 L 813.479,-307.85 L 813.333,-308.771 L 812.815,-310.702 L 812.099,-312.569 L 811.191,-314.35 L 810.102,-316.027 L 808.844,-317.58 L 807.43,-318.994 L 805.877,-320.252 L 804.2,-321.341 L 802.419,-322.249 L 800.552,-322.965 L 798.621,-323.483 L 796.647,-323.795 L 794.65,-323.9 L 792.654,-323.795 L 790.679,-323.483 L 788.748,-322.965 L 786.881,-322.249 L 785.1,-321.341 L 783.423,-320.252 L 781.87,-318.994 L 780.456,-317.58 L 779.198,-316.027 L 778.109,-314.35 L 777.201,-312.569 L 776.485,-310.702 L 775.967,-308.771 L 775.821,-307.85 L 775.55,-307.85 L 775.55,-266.75 L 774.446,-266.75 L 774.442,-266.773 L 774.433,-266.808 L 774.42,-266.842 L 774.403,-266.875 L 774.383,-266.906 L 774.36,-266.934 L 774.334,-266.96 L 774.306,-266.983 L 774.275,-267.003 L 774.242,-267.02 L 774.208,-267.033 L 774.173,-267.042 L 774.137,-267.048 L 774.1,-267.05 L 774.063,-267.048 L 774.027,-267.042 L 773.992,-267.033 L 773.958,-267.02 L 773.925,-267.003 L 773.894,-266.983 L 773.866,-266.96 L 773.84,-266.934 L 773.817,-266.906 L 773.797,-266.875 L 773.78,-266.842 L 773.767,-266.808 L 773.758,-266.773 L 773.754,-266.75 L 772.55,-266.75 L 772.55,-266.479 L 771.629,-266.333 L 769.698,-265.815 L 767.831,-265.099 L 766.05,-264.191 L 764.373,-263.102 L 762.82,-261.844 L 761.406,-260.43 L 760.148,-258.877 L 759.059,-257.2 L 758.151,-255.419 L 757.435,-253.552 L 756.917,-251.621 L 756.605,-249.646 L 756.5,-247.65 L 756.605,-245.654 L 756.917,-243.679 L 757.435,-241.748 L 758.151,-239.881 L 759.059,-238.1 L 760.148,-236.423 L 761.406,-234.87 L 762.82,-233.456 L 764.373,-232.198 L 766.05,-231.109 L 767.831,-230.201 L 769.698,-229.485 L 771.629,-228.967 L 772.55,-228.821 L 772.55,-228.55 L 775.55,-228.55 L 775.55,-190.55 L 774.446,-190.55 L 774.442,-190.573 L 774.433,-190.608 L 774.42,-190.642 L 774.403,-190.675 L 774.383,-190.706 L 774.36,-190.734 L 774.334,-190.76 L 774.306,-190.783 L 774.275,-190.803 L 774.242,-190.82 L 774.208,-190.833 L 774.173,-190.842 L 774.137,-190.848 L 774.1,-190.85 L 774.063,-190.848 L 774.027,-190.842 L 773.992,-190.833 L 773.958,-190.82 L 773.925,-190.803 L 773.894,-190.783 L 773.866,-190.76 L 773.84,-190.734 L 773.817,-190.706 L 773.797,-190.675 L 773.78,-190.642 L 773.767,-190.608 L 773.758,-190.573 L 773.754,-190.55 L 772.55,-190.55 L 772.55,-190.279 L 771.629,-190.133 L 769.698,-189.615 L 767.831,-188.899 L 766.05,-187.991 L 764.373,-186.902 L 762.82,-185.644 L 761.406,-184.23 L 760.148,-182.677 L 759.059,-181 L 758.151,-179.219 L 757.435,-177.352 L 756.917,-175.421 L 756.605,-173.447 L 756.5,-171.45 L 756.605,-169.454 L 756.917,-167.479 L 757.435,-165.548 L 758.151,-163.681 L 759.059,-161.9 L 760.148,-160.223 L 761.406,-158.67 L 762.82,-157.256 L 764.373,-155.998 L 766.05,-154.909 L 767.831,-154.001 L 769.698,-153.285 L 771.629,-152.767 L 772.55,-152.621 L 772.55,-152.35 L 775.55,-152.35 L 775.55,-114.35 L 774.446,-114.35 L 774.442,-114.373 L 774.433,-114.408 L 774.42,-114.442 L 774.403,-114.475 L 774.383,-114.506 L 774.36,-114.534 L 774.334,-114.56 L 774.306,-114.583 L 774.275,-114.603 L 774.242,-114.62 L 774.208,-114.633 L 774.173,-114.642 L 774.137,-114.648 L 774.1,-114.65 L 774.063,-114.648 L 774.027,-114.642 L 773.992,-114.633 L 773.958,-114.62 L 773.925,-114.603 L 773.894,-114.583 L 773.866,-114.56 L 773.84,-114.534 L 773.817,-114.506 L 773.797,-114.475 L 773.78,-114.442 L 773.767,-114.408 L 773.758,-114.373 L 773.754,-114.35 L 772.55,-114.35 L 772.55,-114.079 L 771.629,-113.933 L 769.698,-113.415 L 767.831,-112.699 L 766.05,-111.791 L 764.373,-110.702 L 762.82,-109.444 L 761.406,-108.03 L 760.148,-106.477 L 759.059,-104.8 L 758.151,-103.019 L 757.435,-101.152 L 756.917,-99.2211 L 756.605,-97.2465 L 756.5,-95.25 L 756.605,-93.2535 L 756.917,-91.2789 L 757.435,-89.3477 L 758.151,-87.4813 L 759.059,-85.7 L 760.148,-84.0233 L 761.406,-82.4695 L 762.82,-81.0559 L 764.373,-79.7977 L 766.05,-78.7088 L 767.831,-77.8012 L 769.698,-77.0847 L 771.629,-76.5673 L 772.55,-76.4214 L 772.55,-76.15 L 775.55,-76.15 L 775.55,-38.15 L 774.446,-38.15 L 774.442,-38.1728 L 774.433,-38.2081 L 774.42,-38.2424 L 774.403,-38.275 L 774.383,-38.3058 L 774.36,-38.3343 L 774.334,-38.3602 L 774.306,-38.3832 L 774.275,-38.4032 L 774.242,-38.4198 L 774.208,-38.4329 L 774.173,-38.4424 L 774.137,-38.4481 L 774.1,-38.4501 L 774.063,-38.4481 L 774.027,-38.4424 L 773.992,-38.4329 L 773.958,-38.4198 L 773.925,-38.4032 L 773.894,-38.3832 L 773.866,-38.3601 L 773.84,-38.3342 L 773.817,-38.3058 L 773.797,-38.275 L 773.78,-38.2424 L 773.767,-38.2081 L 773.758,-38.1728 L 773.754,-38.15 L 772.55,-38.15 L 772.55,-37.8786 L 771.629,-37.7327 L 769.698,-37.2152 L 767.831,-36.4988 L 766.05,-35.5911 L 764.373,-34.5023 L 762.82,-33.2441 L 761.406,-31.8304 L 760.148,-30.2767 L 759.059,-28.6 L 758.151,-26.8187 L 757.435,-24.9522 L 756.917,-23.0211 L 756.605,-21.0465 L 756.5,-19.05 L 756.605,-17.0535 L 756.917,-15.0789 L 757.435,-13.1478 L 758.151,-11.2813 L 759.059,-9.49995 L 760.148,-7.82324 L 761.406,-6.26955 L 762.82,-4.85588 L 764.373,-3.5977 L 766.05,-2.50885 L 767.831,-1.60121 L 769.698,-0.88475 L 771.629,-0.367294 L 772.55,-0.22142 L 772.55,0.0500031 L 813.65,0.0500031 L 813.65,1.15396 L 813.627,1.15756 L 813.592,1.16705 L 813.558,1.18018 L 813.525,1.19684 L 813.494,1.2168 L 813.466,1.23984 L 813.44,1.26573 L 813.417,1.29422 L 813.397,1.32498 L 813.38,1.3576 L 813.367,1.3918 L 813.358,1.42725 L 813.352,1.46341 L 813.35,1.5 L 813.352,1.53658 L 813.358,1.57274 L 813.367,1.60818 L 813.38,1.64238 L 813.397,1.675 L 813.417,1.70576 L 813.44,1.73425 L 813.466,1.76015 L 813.494,1.78319 L 813.525,1.80315 L 813.558,1.81981 L 813.592,1.83293 L 813.627,1.84242 L 813.65,1.84602 L 813.65,3.05 L 813.921,3.05 L 814.067,3.97112 L 814.585,5.90224 L 815.301,7.76869 L 816.209,9.55003 L 817.298,11.2267 L 818.556,12.7804 L 819.97,14.1941 L 821.523,15.4523 L 823.2,16.5411 L 824.981,17.4488 L 826.848,18.1652 L 828.779,18.6827 L 830.753,18.9954 L 832.75,19.1001 L 834.747,18.9954 L 836.721,18.6827 L 838.652,18.1652 L 840.519,17.4488 L 842.3,16.5411 L 843.977,15.4523 L 845.53,14.1941 L 846.944,12.7804 L 848.202,11.2267 L 849.291,9.55003 L 850.199,7.76869 L 850.915,5.90224 L 851.433,3.97112 L 851.579,3.05 L 851.85,3.05 L 851.85,0.0500031 L 889.85,0.0500031 L 889.85,1.15396 L 889.827,1.15756 L 889.792,1.16705 L 889.758,1.18018 L 889.725,1.19684 L 889.694,1.2168 L 889.666,1.23984 L 889.64,1.26573 L 889.617,1.29422 L 889.597,1.32495 L 889.58,1.3576 L 889.567,1.39185 L 889.558,1.4272 L 889.552,1.46336 L 889.55,1.5 L 889.552,1.53662 L 889.558,1.57278 L 889.567,1.60814 L 889.58,1.64238 L 889.597,1.67503 L 889.617,1.70576 L 889.64,1.73425 L 889.666,1.76015 L 889.694,1.78319 L 889.725,1.80315 L 889.758,1.81981 L 889.792,1.83293 L 889.827,1.84242 L 889.85,1.84602 L 889.85,3.05 L 890.121,3.05 L 890.267,3.97112 L 890.785,5.90224 L 891.501,7.76869 L 892.409,9.55003 L 893.498,11.2267 L 894.756,12.7804 L 896.17,14.1941 L 897.723,15.4523 L 899.4,16.5411 L 901.181,17.4488 L 903.048,18.1652 L 904.979,18.6827 L 906.954,18.9954 L 908.95,19.1001 L 910.947,18.9954 L 912.921,18.6827 L 914.852,18.1652 L 916.719,17.4488 L 918.5,16.5411 L 920.177,15.4523 L 921.73,14.1941 L 923.144,12.7804 L 924.402,11.2267 L 925.491,9.55003 L 926.399,7.76869 L 927.115,5.90224 L 927.633,3.97112 L 927.779,3.05 L 928.05,3.05 L 928.05,0.0500031 L 966.05,0.0500031 L 966.05,1.15396 L 966.027,1.15756 L 965.992,1.16705 L 965.958,1.18018 L 965.925,1.19684 L 965.894,1.2168 L 965.866,1.23985 L 965.84,1.26573 L 965.817,1.29422 L 965.797,1.32495 L 965.78,1.3576 L 965.767,1.39185 L 965.758,1.4272 L 965.752,1.46336 L 965.75,1.5 L 965.752,1.53662 L 965.758,1.57278 L 965.767,1.60814 L 965.78,1.64238 L 965.797,1.67503 L 965.817,1.70576 L 965.84,1.73425 L 965.866,1.76013 L 965.894,1.78319 L 965.925,1.80315 L 965.958,1.81981 L 965.992,1.83293 L 966.027,1.84242 L 966.05,1.84602 L 966.05,3.05 L 966.321,3.05 L 966.467,3.97112 L 966.985,5.90224 L 967.701,7.76869 L 968.609,9.55003 L 969.698,11.2267 L 970.956,12.7804 L 972.37,14.1941 L 973.923,15.4523 L 975.6,16.5411 L 977.381,17.4488 L 979.248,18.1652 L 981.179,18.6827 L 983.154,18.9954 L 985.15,19.1001 L 987.147,18.9954 L 989.121,18.6827 L 991.052,18.1652 L 992.919,17.4488 L 994.7,16.5411 L 996.377,15.4523 L 997.93,14.1941 L 999.344,12.7804 L 1000.6,11.2267 L 1001.69,9.55003 L 1002.6,7.76869 L 1003.32,5.90224 L 1003.83,3.97112 L 1003.98,3.05 L 1004.25,3.05 L 1004.25,0.0500031 L 1042.25,0.0500031 L 1042.25,1.15396 L 1042.23,1.15756 L 1042.19,1.16705 L 1042.16,1.18019 L 1042.12,1.19684 L 1042.09,1.21678 L 1042.07,1.23984 L 1042.04,1.26573 L 1042.02,1.29422 L 1042,1.32495 L 1041.98,1.3576 L 1041.97,1.39188 L 1041.96,1.4272 L 1041.95,1.46336 L 1041.95,1.5 L 1041.95,1.53662 L 1041.96,1.57278 L 1041.97,1.60811 L 1041.98,1.64238 L 1042,1.67503 L 1042.02,1.70576 L 1042.04,1.73425 L 1042.07,1.76015 L 1042.09,1.7832 L 1042.12,1.80315 L 1042.16,1.81979 L 1042.19,1.83293 L 1042.23,1.84242 L 1042.25,1.84602 L 1042.25,3.05 L 1042.52,3.05 L 1042.67,3.97112 L 1043.18,5.90224 L 1043.9,7.76869 L 1044.81,9.55003 L 1045.9,11.2267 L 1047.16,12.7804 L 1048.57,14.1941 L 1050.12,15.4523 L 1051.8,16.5411 L 1053.58,17.4488 L 1055.45,18.1652 L 1057.38,18.6827 L 1059.35,18.9954 L 1061.35,19.1001 Z M 880.375,-198.707 L 880.251,-198.726 L 880.129,-198.759 L 880.012,-198.804 L 879.9,-198.861 L 879.795,-198.929 L 879.697,-199.008 L 879.608,-199.097 L 879.529,-199.195 L 879.461,-199.3 L 879.404,-199.412 L 879.359,-199.529 L 879.326,-199.65 L 879.307,-199.775 L 879.3,-199.9 L 879.307,-200.025 L 879.326,-200.15 L 879.359,-200.271 L 879.404,-200.388 L 879.461,-200.5 L 879.529,-200.605 L 879.608,-200.703 L 879.697,-200.792 L 879.795,-200.871 L 879.9,-200.939 L 880.012,-200.996 L 880.129,-201.041 L 880.251,-201.074 L 880.375,-201.093 L 880.5,-201.1 L 880.625,-201.093 L 880.749,-201.074 L 880.871,-201.041 L 880.988,-200.996 L 881.1,-200.939 L 881.205,-200.871 L 881.303,-200.792 L 881.392,-200.703 L 881.471,-200.605 L 881.539,-200.5 L 881.596,-200.388 L 881.641,-200.271 L 881.674,-200.15 L 881.693,-200.025 L 881.7,-199.9 L 881.693,-199.775 L 881.674,-199.65 L 881.641,-199.529 L 881.596,-199.412 L 881.539,-199.3 L 881.471,-199.195 L 881.392,-199.097 L 881.303,-199.008 L 881.205,-198.929 L 881.1,-198.861 L 880.988,-198.804 L 880.871,-198.759 L 880.749,-198.726 L 880.625,-198.707 L 880.5,-198.7 Z M 975.375,-198.707 L 975.251,-198.726 L 975.129,-198.759 L 975.012,-198.804 L 974.9,-198.861 L 974.795,-198.929 L 974.697,-199.008 L 974.608,-199.097 L 974.529,-199.195 L 974.461,-199.3 L 974.404,-199.412 L 974.359,-199.529 L 974.326,-199.65 L 974.307,-199.775 L 974.3,-199.9 L 974.307,-200.025 L 974.326,-200.15 L 974.359,-200.271 L 974.404,-200.388 L 974.461,-200.5 L 974.529,-200.605 L 974.608,-200.703 L 974.697,-200.792 L 974.795,-200.871 L 974.9,-200.939 L 975.012,-200.996 L 975.129,-201.041 L 975.251,-201.074 L 975.375,-201.093 L 975.5,-201.1 L 975.625,-201.093 L 975.749,-201.074 L 975.871,-201.041 L 975.988,-200.996 L 976.1,-200.939 L 976.205,-200.871 L 976.303,-200.792 L 976.392,-200.703 L 976.471,-200.605 L 976.539,-200.5 L 976.596,-200.388 L 976.641,-200.271 L 976.674,-200.15 L 976.693,-200.025 L 976.7,-199.9 L 976.693,-199.775 L 976.674,-199.65 L 976.641,-199.529 L 976.596,-199.412 L 976.539,-199.3 L 976.471,-199.195 L 976.392,-199.097 L 976.303,-199.008 L 976.205,-198.929 L 976.1,-198.861 L 975.988,-198.804 L 975.871,-198.759 L 975.749,-198.726 L 975.625,-198.707 L 975.5,-198.7 Z M 883.05,-107.45 L 883.05,-197.35 L 972.95,-197.35 L 972.95,-107.45 Z M 880.375,-103.707 L 880.251,-103.726 L 880.129,-103.759 L 880.012,-103.804 L 879.9,-103.861 L 879.795,-103.929 L 879.697,-104.008 L 879.608,-104.097 L 879.529,-104.195 L 879.461,-104.3 L 879.404,-104.412 L 879.359,-104.529 L 879.326,-104.65 L 879.307,-104.775 L 879.3,-104.9 L 879.307,-105.025 L 879.326,-105.15 L 879.359,-105.271 L 879.404,-105.388 L 879.461,-105.5 L 879.529,-105.605 L 879.608,-105.703 L 879.697,-105.792 L 879.795,-105.871 L 879.9,-105.939 L 880.012,-105.996 L 880.129,-106.041 L 880.251,-106.074 L 880.375,-106.093 L 880.5,-106.1 L 880.625,-106.093 L 880.749,-106.074 L 880.871,-106.041 L 880.988,-105.996 L 881.1,-105.939 L 881.205,-105.871 L 881.303,-105.792 L 881.392,-105.703 L 881.471,-105.605 L 881.539,-105.5 L 881.596,-105.388 L 881.641,-105.271 L 881.674,-105.15 L 881.693,-105.025 L 881.7,-104.9 L 881.693,-104.775 L 881.674,-104.65 L 881.641,-104.529 L 881.596,-104.412 L 881.539,-104.3 L 881.471,-104.195 L 881.392,-104.097 L 881.303,-104.008 L 881.205,-103.929 L 881.1,-103.861 L 880.988,-103.804 L 880.871,-103.759 L 880.749,-103.726 L 880.625,-103.707 L 880.5,-103.7 Z M 975.375,-103.707 L 975.251,-103.726 L 975.129,-103.759 L 975.012,-103.804 L 974.9,-103.861 L 974.795,-103.929 L 974.697,-104.008 L 974.608,-104.097 L 974.529,-104.195 L 974.461,-104.3 L 974.404,-104.412 L 974.359,-104.529 L 974.326,-104.65 L 974.307,-104.775 L 974.3,-104.9 L 974.307,-105.025 L 974.326,-105.15 L 974.359,-105.271 L 974.404,-105.388 L 974.461,-105.5 L 974.529,-105.605 L 974.608,-105.703 L 974.697,-105.792 L 974.795,-105.871 L 974.9,-105.939 L 975.012,-105.996 L 975.129,-106.041 L 975.251,-106.074 L 975.375,-106.093 L 975.5,-106.1 L 975.625,-106.093 L 975.749,-106.074 L 975.871,-106.041 L 975.988,-105.996 L 976.1,-105.939 L 976.205,-105.871 L 976.303,-105.792 L 976.392,-105.703 L 976.471,-105.605 L 976.539,-105.5 L 976.596,-105.388 L 976.641,-105.271 L 976.674,-105.15 L 976.693,-105.025 L 976.7,-104.9 L 976.693,-104.775 L 976.674,-104.65 L 976.641,-104.529 L 976.596,-104.412 L 976.539,-104.3 L 976.471,-104.195 L 976.392,-104.097 L 976.303,-104.008 L 976.205,-103.929 L 976.1,-103.861 L 975.988,-103.804 L 975.871,-103.759 L 975.749,-103.726 L 975.625,-103.707 L 975.5,-103.7 Z" fill="none" stroke="#0000ff" stroke-width="0.1"/><path d="M 786.668,-40.062 L 800.677,-40.062 L 799.427,-34.238 L 802.252,-34.238 L 805.301,-48.61 L 802.477,-48.61 L 801.255,-42.914 L 787.245,-42.914 L 788.468,-48.61 L 785.587,-48.61 L 782.538,-34.238 L 785.418,-34.238 Z M 847.665,-45.8836 L 848.6,-45.8306 L 849.591,-45.7487 L 850.595,-45.6403 L 851.611,-45.5055 L 852.641,-45.3442 L 853.684,-45.1563 L 854.739,-44.9422 L 855.858,-44.6901 L 856.462,-47.5137 L 855.192,-47.7784 L 853.974,-47.999 L 852.759,-48.1857 L 851.547,-48.3384 L 850.339,-48.4572 L 849.135,-48.5421 L 847.934,-48.593 L 846.736,-48.61 L 845.534,-48.593 L 844.32,-48.5421 L 843.094,-48.4572 L 841.855,-48.3385 L 840.605,-48.1857 L 839.342,-47.9991 L 838.068,-47.7785 L 836.749,-47.5177 L 836.143,-44.6855 L 837.411,-44.9481 L 838.573,-45.1668 L 839.704,-45.3572 L 840.806,-45.5195 L 841.876,-45.6534 L 842.916,-45.7592 L 843.925,-45.8367 L 844.841,-45.8828 L 842.369,-34.238 L 845.194,-34.238 Z M 823.077,-34.2556 L 824.291,-34.3086 L 825.517,-34.3969 L 826.756,-34.5206 L 828.006,-34.6795 L 829.269,-34.8737 L 830.544,-35.1033 L 831.862,-35.3746 L 834.434,-47.4551 L 833.171,-47.7339 L 831.958,-47.9663 L 830.748,-48.163 L 829.54,-48.3239 L 828.335,-48.4491 L 827.133,-48.5385 L 825.933,-48.5921 L 824.736,-48.61 L 823.533,-48.5921 L 822.318,-48.5385 L 821.089,-48.4491 L 819.848,-48.3239 L 818.594,-48.163 L 817.326,-47.9664 L 816.046,-47.734 L 814.722,-47.4593 L 812.148,-35.3363 L 813.419,-35.0712 L 814.637,-34.8501 L 815.852,-34.6631 L 817.063,-34.51 L 818.271,-34.391 L 819.476,-34.306 L 820.677,-34.255 L 821.875,-34.238 Z M 821.683,-36.9729 L 820.817,-37.0053 L 819.94,-37.0596 L 819.053,-37.1355 L 818.157,-37.2331 L 817.252,-37.3524 L 816.336,-37.4935 L 815.462,-37.6472 L 817.084,-45.2083 L 818.004,-45.363 L 818.936,-45.5017 L 819.846,-45.6191 L 820.734,-45.7152 L 821.601,-45.79 L 822.445,-45.8433 L 823.268,-45.8753 L 824.07,-45.886 L 824.928,-45.8749 L 825.793,-45.8417 L 826.668,-45.7863 L 827.551,-45.7088 L 828.444,-45.609 L 829.344,-45.4871 L 830.253,-45.3431 L 831.121,-45.186 L 829.528,-37.6297 L 828.607,-37.4774 L 827.676,-37.3407 L 826.765,-37.2249 L 825.878,-37.1303 L 825.011,-37.0566 L 824.166,-37.0041 L 823.344,-36.9725 L 822.542,-36.962 Z M 887.204,-24.3316 L 886.32,-24.3094 L 885.533,-24.283 L 884.778,-24.2509 L 884.056,-24.2132 L 883.367,-24.1696 L 882.711,-24.1204 L 882.088,-24.0654 L 881.462,-24.001 L 881.162,-22.5815 L 881.75,-22.6482 L 882.272,-22.7008 L 882.799,-22.7473 L 883.329,-22.7876 L 883.864,-22.8217 L 884.401,-22.8497 L 884.944,-22.8714 L 885.427,-22.8852 L 884.205,-17.062 L 885.669,-17.062 Z M 925.874,-24.3316 L 924.99,-24.3094 L 924.202,-24.283 L 923.448,-24.2509 L 922.726,-24.2132 L 922.037,-24.1696 L 921.381,-24.1204 L 920.758,-24.0654 L 920.132,-24.001 L 919.832,-22.5815 L 920.42,-22.6482 L 920.942,-22.7008 L 921.469,-22.7473 L 921.999,-22.7876 L 922.534,-22.8217 L 923.071,-22.8497 L 923.614,-22.8714 L 924.097,-22.8852 L 922.875,-17.062 L 924.338,-17.062 Z M 939.42,-22.588 L 939.176,-21.45 L 930.731,-21.45 L 929.921,-17.6207 L 930.561,-17.4818 L 931.154,-17.3704 L 931.747,-17.2762 L 932.342,-17.1991 L 932.938,-17.1391 L 933.534,-17.0963 L 934.132,-17.0706 L 934.73,-17.062 L 935.333,-17.0711 L 935.945,-17.0984 L 936.565,-17.144 L 937.194,-17.2078 L 937.832,-17.2898 L 938.478,-17.39 L 939.133,-17.5085 L 939.828,-17.6516 L 940.143,-19.12 L 939.369,-18.9645 L 938.687,-18.8428 L 938.022,-18.7399 L 937.374,-18.6557 L 936.743,-18.5902 L 936.13,-18.5434 L 935.533,-18.5153 L 934.953,-18.506 L 934.555,-18.511 L 934.151,-18.526 L 933.739,-18.551 L 933.322,-18.586 L 932.898,-18.631 L 932.468,-18.6861 L 932.031,-18.7511 L 931.637,-18.8177 L 931.882,-20.006 L 940.326,-20.006 L 941.123,-23.7743 L 940.486,-23.9125 L 939.896,-24.0233 L 939.305,-24.117 L 938.712,-24.1937 L 938.118,-24.2533 L 937.523,-24.2959 L 936.926,-24.3215 L 936.328,-24.33 L 935.725,-24.321 L 935.112,-24.2942 L 934.491,-24.2494 L 933.86,-24.1867 L 933.221,-24.1061 L 932.572,-24.0076 L 931.914,-23.8912 L 931.216,-23.7505 L 930.901,-22.2823 L 931.678,-22.4351 L 932.363,-22.5547 L 933.03,-22.656 L 933.68,-22.7388 L 934.312,-22.8032 L 934.928,-22.8492 L 935.525,-22.8768 L 936.104,-22.886 L 936.5,-22.8812 L 936.902,-22.8669 L 937.312,-22.8429 L 937.728,-22.8095 L 938.153,-22.7664 L 938.586,-22.7137 L 939.024,-22.6515 Z M 963.65,-22.7872 L 964.036,-22.7514 L 964.252,-22.7283 L 955.476,-18.3112 L 955.897,-17.041 L 966.248,-22.3323 L 966.555,-23.7737 L 965.895,-23.9118 L 965.285,-24.0228 L 964.677,-24.1166 L 964.07,-24.1934 L 963.466,-24.2532 L 962.863,-24.2959 L 962.261,-24.3215 L 961.662,-24.33 L 961.06,-24.3215 L 960.452,-24.2961 L 959.839,-24.2536 L 959.219,-24.1942 L 958.593,-24.1178 L 957.961,-24.0245 L 957.323,-23.9142 L 956.648,-23.7807 L 956.333,-22.3117 L 957.095,-22.4573 L 957.761,-22.571 L 958.407,-22.6673 L 959.032,-22.7461 L 959.637,-22.8073 L 960.222,-22.851 L 960.785,-22.8773 L 961.329,-22.886 L 961.717,-22.8832 L 962.104,-22.875 L 962.491,-22.8613 L 962.878,-22.8421 L 963.264,-22.8174 Z M 900.75,-22.588 L 900.507,-21.45 L 892.061,-21.45 L 891.251,-17.6207 L 891.891,-17.4818 L 892.484,-17.3704 L 893.078,-17.2762 L 893.672,-17.1991 L 894.268,-17.1391 L 894.864,-17.0963 L 895.462,-17.0706 L 896.06,-17.062 L 896.663,-17.0711 L 897.275,-17.0984 L 897.895,-17.144 L 898.524,-17.2078 L 899.162,-17.2898 L 899.808,-17.39 L 900.463,-17.5085 L 901.158,-17.6516 L 901.473,-19.12 L 900.699,-18.9645 L 900.017,-18.8428 L 899.352,-18.7399 L 898.705,-18.6557 L 898.074,-18.5902 L 897.46,-18.5434 L 896.863,-18.5153 L 896.283,-18.506 L 895.885,-18.511 L 895.481,-18.526 L 895.07,-18.551 L 894.652,-18.586 L 894.228,-18.631 L 893.798,-18.6861 L 893.361,-18.7511 L 892.967,-18.8177 L 893.212,-20.006 L 901.657,-20.006 L 902.453,-23.7743 L 901.816,-23.9125 L 901.226,-24.0233 L 900.635,-24.117 L 900.042,-24.1937 L 899.448,-24.2533 L 898.853,-24.2959 L 898.256,-24.3215 L 897.658,-24.33 L 897.055,-24.321 L 896.442,-24.2942 L 895.821,-24.2494 L 895.19,-24.1867 L 894.551,-24.1061 L 893.902,-24.0076 L 893.244,-23.8912 L 892.546,-23.7505 L 892.231,-22.2823 L 893.008,-22.4351 L 893.693,-22.5547 L 894.36,-22.656 L 895.01,-22.7388 L 895.642,-22.8032 L 896.258,-22.8492 L 896.855,-22.8768 L 897.435,-22.886 L 897.83,-22.8812 L 898.232,-22.8669 L 898.642,-22.8429 L 899.058,-22.8095 L 899.483,-22.7664 L 899.916,-22.7137 L 900.354,-22.6515 Z M 948.478,-19.5515 L 952.225,-16.5954 L 953.277,-17.7915 L 949.959,-20.4229 L 954.464,-23.0771 L 953.893,-24.2859 L 948.848,-21.3095 L 945.046,-24.3152 L 943.965,-23.1189 L 947.367,-20.4355 L 942.917,-17.7523 L 943.474,-16.5942 Z M 909.808,-19.5515 L 913.555,-16.5954 L 914.607,-17.7915 L 911.289,-20.4229 L 915.794,-23.0771 L 915.223,-24.2859 L 910.178,-21.3095 L 906.376,-24.3152 L 905.295,-23.1189 L 908.697,-20.4355 L 904.247,-17.7523 L 904.804,-16.5942 Z M 821.205,-4.25565 L 822.419,-4.30862 L 823.645,-4.39694 L 824.884,-4.52055 L 826.134,-4.67949 L 827.397,-4.87373 L 828.671,-5.10329 L 829.99,-5.3746 L 832.562,-17.4551 L 831.299,-17.7339 L 830.086,-17.9663 L 828.876,-18.163 L 827.668,-18.3239 L 826.463,-18.4491 L 825.261,-18.5385 L 824.061,-18.5921 L 822.864,-18.61 L 821.661,-18.5921 L 820.446,-18.5385 L 819.217,-18.4491 L 817.976,-18.3239 L 816.722,-18.163 L 815.454,-17.9664 L 814.174,-17.734 L 812.85,-17.4593 L 810.276,-5.3363 L 811.547,-5.07115 L 812.765,-4.85011 L 813.98,-4.66309 L 815.191,-4.51004 L 816.399,-4.39104 L 817.604,-4.306 L 818.805,-4.25499 L 820.003,-4.23799 Z M 819.811,-6.97285 L 818.945,-7.00534 L 818.068,-7.0596 L 817.181,-7.1355 L 816.285,-7.23314 L 815.38,-7.35242 L 814.464,-7.49352 L 813.59,-7.64725 L 815.211,-15.2083 L 816.132,-15.363 L 817.064,-15.5017 L 817.974,-15.6191 L 818.862,-15.7152 L 819.729,-15.79 L 820.573,-15.8433 L 821.396,-15.8753 L 822.198,-15.886 L 823.055,-15.8749 L 823.921,-15.8417 L 824.796,-15.7863 L 825.678,-15.7088 L 826.571,-15.609 L 827.472,-15.4871 L 828.381,-15.3431 L 829.249,-15.186 L 827.656,-7.62975 L 826.735,-7.4774 L 825.804,-7.3407 L 824.893,-7.22488 L 824.006,-7.13028 L 823.139,-7.05663 L 822.294,-7.00406 L 821.471,-6.97253 L 820.67,-6.96201 Z M 795.927,-4.24867 L 797.336,-4.28078 L 798.689,-4.33424 L 799.985,-4.40912 L 801.225,-4.50537 L 802.409,-4.62305 L 803.537,-4.76213 L 804.642,-4.92767 L 805.909,-10.8982 L 803.327,-11.4083 L 806.142,-11.8672 L 807.438,-18.0983 L 806.364,-18.2231 L 805.278,-18.3257 L 804.126,-18.4126 L 802.909,-18.4837 L 801.625,-18.539 L 800.275,-18.5784 L 798.86,-18.6021 L 797.378,-18.61 L 795.742,-18.5995 L 794.139,-18.568 L 792.57,-18.5156 L 791.035,-18.4422 L 789.534,-18.3478 L 788.066,-18.2324 L 786.633,-18.096 L 785.197,-17.9346 L 784.677,-15.45 L 786.26,-15.45 L 784.588,-7.63451 L 783.059,-7.69052 L 782.541,-5.09113 L 783.951,-4.88539 L 785.346,-4.71362 L 786.776,-4.56828 L 788.242,-4.44936 L 789.744,-4.35689 L 791.28,-4.29083 L 792.853,-4.25121 L 794.461,-4.23799 Z M 802.027,-15.6875 L 803.071,-15.5927 L 804.067,-15.489 L 803.725,-13.9294 L 802.605,-13.6963 L 801.494,-13.4886 L 800.426,-13.313 L 799.399,-13.1694 L 798.414,-13.0576 L 797.471,-12.9778 L 796.57,-12.9299 L 795.711,-12.914 L 788.523,-12.914 L 789.113,-15.603 L 789.87,-15.6815 L 790.68,-15.7527 L 791.508,-15.813 L 792.352,-15.8623 L 793.215,-15.9007 L 794.095,-15.9281 L 794.991,-15.9445 L 795.906,-15.95 L 796.909,-15.9427 L 797.918,-15.9208 L 798.935,-15.8844 L 799.959,-15.8333 L 800.989,-15.7677 Z M 793.257,-6.9689 L 792.348,-6.98961 L 791.46,-7.02408 L 790.59,-7.0724 L 789.739,-7.13449 L 788.908,-7.21034 L 788.095,-7.30006 L 787.356,-7.3965 L 787.946,-10.062 L 795.155,-10.062 L 795.928,-10.0434 L 796.749,-9.98773 L 797.619,-9.89487 L 798.537,-9.76489 L 799.505,-9.59755 L 800.52,-9.39328 L 801.585,-9.15149 L 802.653,-8.88405 L 802.364,-7.43867 L 801.379,-7.33 L 800.356,-7.23235 L 799.333,-7.14978 L 798.306,-7.08217 L 797.278,-7.02959 L 796.248,-6.99203 L 795.217,-6.96951 L 794.184,-6.96199 Z M 844.805,-9.19063 L 852.288,-3.32335 L 854.325,-5.66284 L 847.676,-10.878 L 856.706,-16.1748 L 855.609,-18.5602 L 845.535,-12.6174 L 837.942,-18.5742 L 835.847,-16.2427 L 842.664,-10.881 L 833.745,-5.63815 L 834.814,-3.32092 Z M 885.68,-2.06714 L 886.385,-2.08264 L 887.062,-2.10846 L 887.71,-2.14459 L 888.331,-2.19109 L 888.923,-2.24791 L 889.488,-2.31508 L 890.058,-2.39752 L 890.371,-3.92024 L 889.617,-3.8156 L 888.933,-3.73354 L 888.248,-3.66403 L 887.561,-3.60709 L 886.874,-3.56285 L 886.187,-3.5313 L 885.498,-3.51233 L 884.808,-3.506 L 884.344,-3.50943 L 883.891,-3.51973 L 883.448,-3.53685 L 883.012,-3.56091 L 882.588,-3.59178 L 882.173,-3.62947 L 881.767,-3.67403 L 881.425,-3.71855 L 881.709,-5.006 L 888.446,-5.006 L 888.744,-6.45 L 882.008,-6.45 L 882.281,-7.75839 L 882.648,-7.80019 L 883.061,-7.83997 L 883.481,-7.87355 L 883.912,-7.90106 L 884.351,-7.92247 L 884.8,-7.93777 L 885.258,-7.94693 L 885.725,-7.95 L 886.414,-7.94414 L 887.1,-7.92659 L 887.784,-7.89732 L 888.465,-7.85635 L 889.143,-7.8037 L 889.819,-7.73932 L 890.492,-7.66325 L 891.208,-7.5694 L 891.521,-9.06828 L 890.957,-9.13449 L 890.413,-9.18637 L 889.837,-9.23027 L 889.228,-9.26619 L 888.585,-9.29411 L 887.91,-9.31404 L 887.202,-9.326 L 886.461,-9.33 L 885.685,-9.32584 L 884.941,-9.31335 L 884.229,-9.29256 L 883.549,-9.26343 L 882.901,-9.22598 L 882.286,-9.18021 L 881.702,-9.12608 L 881.115,-9.05966 L 880.933,-8.23616 L 880.919,-8.23309 L 879.899,-3.39398 L 879.913,-3.39398 L 879.707,-2.40324 L 880.291,-2.31738 L 880.856,-2.24959 L 881.454,-2.19225 L 882.086,-2.14534 L 882.751,-2.10887 L 883.45,-2.08284 L 884.182,-2.0672 L 884.947,-2.062 Z M 898.268,-2.07132 L 898.876,-2.09933 L 899.49,-2.146 L 900.11,-2.21133 L 900.735,-2.29533 L 901.367,-2.39799 L 902.005,-2.5193 L 902.68,-2.666 L 903.975,-8.77463 L 903.319,-8.91257 L 902.712,-9.02332 L 902.106,-9.117 L 901.501,-9.19368 L 900.898,-9.25331 L 900.296,-9.29591 L 899.695,-9.32149 L 899.096,-9.33 L 894.234,-9.33 L 893.277,-9.26949 L 893.007,-7.99478 L 893.91,-7.95279 L 892.959,-3.506 L 892.125,-3.506 L 891.842,-2.14018 L 892.719,-2.062 L 897.666,-2.062 Z M 895.373,-7.95 L 896.525,-7.95 L 897.082,-7.935 L 897.56,-7.922 L 897.959,-7.91103 L 898.278,-7.90202 L 898.518,-7.89502 L 898.678,-7.89001 L 898.747,-7.8875 L 898.749,-7.88615 L 899.191,-7.88094 L 899.624,-7.86583 L 900.06,-7.84068 L 900.501,-7.80547 L 900.947,-7.7601 L 901.397,-7.70474 L 901.851,-7.6393 L 902.258,-7.57216 L 901.471,-3.83774 L 901.028,-3.76411 L 900.562,-3.69559 L 900.108,-3.63771 L 899.664,-3.59029 L 899.231,-3.55336 L 898.81,-3.52705 L 898.399,-3.51128 L 897.998,-3.506 L 894.422,-3.506 Z M 910.475,-2.07111 L 911.083,-2.09845 L 911.697,-2.14403 L 912.316,-2.20782 L 912.942,-2.28986 L 913.574,-2.39008 L 914.212,-2.50854 L 914.887,-2.65181 L 915.698,-6.45 L 907.254,-6.45 L 907.498,-7.58176 L 907.94,-7.64915 L 908.406,-7.71194 L 908.861,-7.76523 L 909.304,-7.80865 L 909.738,-7.84254 L 910.159,-7.86664 L 910.57,-7.88115 L 910.97,-7.88599 L 911.546,-7.8768 L 912.13,-7.84923 L 912.724,-7.80322 L 913.325,-7.73886 L 913.936,-7.65608 L 914.555,-7.55487 L 915.184,-7.43521 L 915.87,-7.28648 L 916.182,-8.7675 L 915.526,-8.90718 L 914.919,-9.01935 L 914.313,-9.11426 L 913.708,-9.19193 L 913.105,-9.25233 L 912.503,-9.29549 L 911.902,-9.32137 L 911.303,-9.33 L 910.701,-9.32104 L 910.093,-9.29417 L 909.478,-9.24937 L 908.856,-9.18668 L 908.229,-9.10606 L 907.594,-9.00755 L 906.954,-8.89114 L 906.275,-8.75032 L 905.477,-5.006 L 913.923,-5.006 L 913.678,-3.82295 L 913.236,-3.75281 L 912.77,-3.68727 L 912.315,-3.63185 L 911.871,-3.58653 L 911.439,-3.5513 L 911.017,-3.52614 L 910.606,-3.51105 L 910.206,-3.506 L 909.63,-3.51535 L 909.045,-3.54346 L 908.451,-3.5903 L 907.847,-3.65591 L 907.235,-3.74016 L 906.613,-3.84334 L 905.982,-3.96512 L 905.293,-4.11661 L 904.98,-2.65599 L 905.639,-2.50864 L 906.249,-2.39014 L 906.858,-2.28989 L 907.464,-2.20784 L 908.069,-2.14403 L 908.672,-2.09845 L 909.273,-2.07111 L 909.873,-2.062 Z" fill="#000000" stroke="none" stroke-width="0.5"/></svg>