<?xml version="1.0" standalone="no"?>
<!DOCTYPE svg PUBLIC "-//W3C//DTD SVG 1.1//EN" "http://www.w3.org/Graphics/SVG/1.1/DTD/svg11.dtd">
<svg width="182mm" height="312mm" viewBox="539 -308 182 312" xmlns="http://www.w3.org/2000/svg" version="1.1">
<title>OpenSCAD Model</title>
<path d="
M 602.017,0.0500031 L 631.55,0.0500031 L 631.55,1.15396 L 631.527,1.15756 L 631.492,1.16705 L 631.458,1.18018
 L 631.425,1.19684 L 631.394,1.21678 L 631.366,1.23985 L 631.34,1.26576 L 631.317,1.29422 L 631.297,1.32495
 L 631.28,1.3576 L 631.267,1.39185 L 631.258,1.4272 L 631.252,1.46336 L 631.25,1.5 L 631.252,1.53662
 L 631.258,1.57278 L 631.267,1.60814 L 631.28,1.64238 L 631.297,1.67503 L 631.317,1.70576 L 631.34,1.73422
 L 631.366,1.76013 L 631.394,1.7832 L 631.425,1.80315 L 631.458,1.81981 L 631.492,1.83293 L 631.527,1.84242
 L 631.55,1.84602 L 631.55,3.05 L 661.283,3.05 L 661.283,0.0500031 L 690.817,0.0500031 L 690.817,1.15396
 L 690.794,1.15756 L 690.759,1.16705 L 690.724,1.18018 L 690.692,1.19684 L 690.661,1.2168 L 690.632,1.23985
 L 690.607,1.26573 L 690.583,1.29422 L 690.564,1.32495 L 690.547,1.3576 L 690.534,1.39185 L 690.524,1.4272
 L 690.519,1.46336 L 690.517,1.5 L 690.519,1.53662 L 690.524,1.57278 L 690.534,1.60814 L 690.547,1.64238
 L 690.564,1.67503 L 690.583,1.70576 L 690.607,1.73425 L 690.632,1.76013 L 690.661,1.78319 L 690.692,1.80315
 L 690.724,1.81981 L 690.759,1.83293 L 690.794,1.84242 L 690.817,1.84602 L 690.817,3.05 L 720.55,3.05
 L 720.55,-304.85 L 690.917,-304.85 L 690.917,-307.85 L 661.183,-307.85 L 661.183,-304.85 L 631.65,-304.85
 L 631.65,-307.85 L 601.917,-307.85 L 601.917,-304.85 L 572.383,-304.85 L 572.383,-307.85 L 542.65,-307.85
 L 542.65,-266.75 L 539.65,-266.75 L 539.65,-228.55 L 542.65,-228.55 L 542.65,-190.55 L 539.65,-190.55
 L 539.65,-152.35 L 542.65,-152.35 L 542.65,-114.35 L 539.65,-114.35 L 539.65,-76.15 L 542.65,-76.15
 L 542.65,-38.15 L 539.65,-38.15 L 539.65,0.0500031 L 572.283,0.0500031 L 572.283,1.15396 L 572.261,1.15756
 L 572.225,1.16705 L 572.191,1.18019 L 572.158,1.19684 L 572.128,1.21678 L 572.099,1.23985 L 572.073,1.26576
 L 572.05,1.29422 L 572.03,1.32495 L 572.014,1.3576 L 572,1.39185 L 571.991,1.4272 L 571.985,1.46336
 L 571.983,1.5 L 571.985,1.53662 L 571.991,1.57278 L 572,1.60814 L 572.014,1.64238 L 572.03,1.67503
 L 572.05,1.70576 L 572.073,1.73422 L 572.099,1.76013 L 572.128,1.7832 L 572.158,1.80315 L 572.191,1.81979
 L 572.225,1.83293 L 572.261,1.84242 L 572.283,1.84602 L 572.283,3.05 L 602.017,3.05 z
" stroke="black" fill="lightgray" stroke-width="0.5"/>
</svg>
