<?xml version="1.0" standalone="no"?>
<!DOCTYPE svg PUBLIC "-//W3C//DTD SVG 1.1//EN" "http://www.w3.org/Graphics/SVG/1.1/DTD/svg11.dtd">
<svg width="185mm" height="47mm" viewBox="782 -49 185 47" xmlns="http://www.w3.org/2000/svg" version="1.1">
<title>OpenSCAD Model</title>
<path d="
M 786.668,-40.062 L 800.677,-40.062 L 799.427,-34.238 L 802.252,-34.238 L 805.301,-48.61 L 802.477,-48.61
 L 801.255,-42.914 L 787.245,-42.914 L 788.468,-48.61 L 785.587,-48.61 L 782.538,-34.238 L 785.418,-34.238
 z
M 847.665,-45.8836 L 848.6,-45.8306 L 849.591,-45.7487 L 850.595,-45.6403 L 851.611,-45.5055 L 852.641,-45.3442
 L 853.684,-45.1563 L 854.739,-44.9422 L 855.858,-44.6901 L 856.462,-47.5137 L 855.192,-47.7784 L 853.974,-47.999
 L 852.759,-48.1857 L 851.547,-48.3384 L 850.339,-48.4572 L 849.135,-48.5421 L 847.934,-48.593 L 846.736,-48.61
 L 845.534,-48.593 L 844.32,-48.5421 L 843.094,-48.4572 L 841.855,-48.3385 L 840.605,-48.1857 L 839.342,-47.9991
 L 838.068,-47.7785 L 836.749,-47.5177 L 836.143,-44.6855 L 837.411,-44.9481 L 838.573,-45.1668 L 839.704,-45.3572
 L 840.806,-45.5195 L 841.876,-45.6534 L 842.916,-45.7592 L 843.925,-45.8367 L 844.841,-45.8828 L 842.369,-34.238
 L 845.194,-34.238 z
M 823.077,-34.2556 L 824.291,-34.3086 L 825.517,-34.3969 L 826.756,-34.5206 L 828.006,-34.6795 L 829.269,-34.8737
 L 830.544,-35.1033 L 831.862,-35.3746 L 834.434,-47.4551 L 833.171,-47.7339 L 831.958,-47.9663 L 830.748,-48.163
 L 829.54,-48.3239 L 828.335,-48.4491 L 827.133,-48.5385 L 825.933,-48.5921 L 824.736,-48.61 L 823.533,-48.5921
 L 822.318,-48.5385 L 821.089,-48.4491 L 819.848,-48.3239 L 818.594,-48.163 L 817.326,-47.9664 L 816.046,-47.734
 L 814.722,-47.4593 L 812.148,-35.3363 L 813.419,-35.0712 L 814.637,-34.8501 L 815.852,-34.6631 L 817.063,-34.51
 L 818.271,-34.391 L 819.476,-34.306 L 820.677,-34.255 L 821.875,-34.238 z
M 821.683,-36.9729 L 820.817,-37.0053 L 819.94,-37.0596 L 819.053,-37.1355 L 818.157,-37.2331 L 817.252,-37.3524
 L 816.336,-37.4935 L 815.462,-37.6472 L 817.084,-45.2083 L 818.004,-45.363 L 818.936,-45.5017 L 819.846,-45.6191
 L 820.734,-45.7152 L 821.601,-45.79 L 822.445,-45.8433 L 823.268,-45.8753 L 824.07,-45.886 L 824.928,-45.8749
 L 825.793,-45.8417 L 826.668,-45.7863 L 827.551,-45.7088 L 828.444,-45.609 L 829.344,-45.4871 L 830.253,-45.3431
 L 831.121,-45.186 L 829.528,-37.6297 L 828.607,-37.4774 L 827.676,-37.3407 L 826.765,-37.2249 L 825.878,-37.1303
 L 825.011,-37.0566 L 824.166,-37.0041 L 823.344,-36.9725 L 822.542,-36.962 z
M 887.204,-24.3316 L 886.32,-24.3094 L 885.533,-24.283 L 884.778,-24.2509 L 884.056,-24.2132 L 883.367,-24.1696
 L 882.711,-24.1204 L 882.088,-24.0654 L 881.462,-24.001 L 881.162,-22.5815 L 881.75,-22.6482 L 882.272,-22.7008
 L 882.799,-22.7473 L 883.329,-22.7876 L 883.864,-22.8217 L 884.401,-22.8497 L 884.944,-22.8714 L 885.427,-22.8852
 L 884.205,-17.062 L 885.669,-17.062 z
M 925.874,-24.3316 L 924.99,-24.3094 L 924.202,-24.283 L 923.448,-24.2509 L 922.726,-24.2132 L 922.037,-24.1696
 L 921.381,-24.1204 L 920.758,-24.0654 L 920.132,-24.001 L 919.832,-22.5815 L 920.42,-22.6482 L 920.942,-22.7008
 L 921.469,-22.7473 L 921.999,-22.7876 L 922.534,-22.8217 L 923.071,-22.8497 L 923.614,-22.8714 L 924.097,-22.8852
 L 922.875,-17.062 L 924.338,-17.062 z
M 939.42,-22.588 L 939.176,-21.45 L 930.731,-21.45 L 929.921,-17.6207 L 930.561,-17.4818 L 931.154,-17.3704
 L 931.747,-17.2762 L 932.342,-17.1991 L 932.938,-17.1391 L 933.534,-17.0963 L 934.132,-17.0706 L 934.73,-17.062
 L 935.333,-17.0711 L 935.945,-17.0984 L 936.565,-17.144 L 937.194,-17.2078 L 937.832,-17.2898 L 938.478,-17.39
 L 939.133,-17.5085 L 939.828,-17.6516 L 940.143,-19.12 L 939.369,-18.9645 L 938.687,-18.8428 L 938.022,-18.7399
 L 937.374,-18.6557 L 936.743,-18.5902 L 936.13,-18.5434 L 935.533,-18.5153 L 934.953,-18.506 L 934.555,-18.511
 L 934.151,-18.526 L 933.739,-18.551 L 933.322,-18.586 L 932.898,-18.631 L 932.468,-18.6861 L 932.031,-18.7511
 L 931.637,-18.8177 L 931.882,-20.006 L 940.326,-20.006 L 941.123,-23.7743 L 940.486,-23.9125 L 939.896,-24.0233
 L 939.305,-24.117 L 938.712,-24.1937 L 938.118,-24.2533 L 937.523,-24.2959 L 936.926,-24.3215 L 936.328,-24.33
 L 935.725,-24.321 L 935.112,-24.2942 L 934.491,-24.2494 L 933.86,-24.1867 L 933.221,-24.1061 L 932.572,-24.0076
 L 931.914,-23.8912 L 931.216,-23.7505 L 930.901,-22.2823 L 931.678,-22.4351 L 932.363,-22.5547 L 933.03,-22.656
 L 933.68,-22.7388 L 934.312,-22.8032 L 934.928,-22.8492 L 935.525,-22.8768 L 936.104,-22.886 L 936.5,-22.8812
 L 936.902,-22.8669 L 937.312,-22.8429 L 937.728,-22.8095 L 938.153,-22.7664 L 938.586,-22.7137 L 939.024,-22.6515
 z
M 963.65,-22.7872 L 964.036,-22.7514 L 964.252,-22.7283 L 955.476,-18.3112 L 955.897,-17.041 L 966.248,-22.3323
 L 966.555,-23.7737 L 965.895,-23.9118 L 965.285,-24.0228 L 964.677,-24.1166 L 964.07,-24.1934 L 963.466,-24.2532
 L 962.863,-24.2959 L 962.261,-24.3215 L 961.662,-24.33 L 961.06,-24.3215 L 960.452,-24.2961 L 959.839,-24.2536
 L 959.219,-24.1942 L 958.593,-24.1178 L 957.961,-24.0245 L 957.323,-23.9142 L 956.648,-23.7807 L 956.333,-22.3117
 L 957.095,-22.4573 L 957.761,-22.571 L 958.407,-22.6673 L 959.032,-22.7461 L 959.637,-22.8073 L 960.222,-22.851
 L 960.785,-22.8773 L 961.329,-22.886 L 961.717,-22.8832 L 962.104,-22.875 L 962.491,-22.8613 L 962.878,-22.8421
 L 963.264,-22.8174 z
M 900.75,-22.588 L 900.507,-21.45 L 892.061,-21.45 L 891.251,-17.6207 L 891.891,-17.4818 L 892.484,-17.3704
 L 893.078,-17.2762 L 893.672,-17.1991 L 894.268,-17.1391 L 894.864,-17.0963 L 895.462,-17.0706 L 896.06,-17.062
 L 896.663,-17.0711 L 897.275,-17.0984 L 897.895,-17.144 L 898.524,-17.2078 L 899.162,-17.2898 L 899.808,-17.39
 L 900.463,-17.5085 L 901.158,-17.6516 L 901.473,-19.12 L 900.699,-18.9645 L 900.017,-18.8428 L 899.352,-18.7399
 L 898.705,-18.6557 L 898.074,-18.5902 L 897.46,-18.5434 L 896.863,-18.5153 L 896.283,-18.506 L 895.885,-18.511
 L 895.481,-18.526 L 895.07,-18.551 L 894.652,-18.586 L 894.228,-18.631 L 893.798,-18.6861 L 893.361,-18.7511
 L 892.967,-18.8177 L 893.212,-20.006 L 901.657,-20.006 L 902.453,-23.7743 L 901.816,-23.9125 L 901.226,-24.0233
 L 900.635,-24.117 L 900.042,-24.1937 L 899.448,-24.2533 L 898.853,-24.2959 L 898.256,-24.3215 L 897.658,-24.33
 L 897.055,-24.321 L 896.442,-24.2942 L 895.821,-24.2494 L 895.19,-24.1867 L 894.551,-24.1061 L 893.902,-24.0076
 L 893.244,-23.8912 L 892.546,-23.7505 L 892.231,-22.2823 L 893.008,-22.4351 L 893.693,-22.5547 L 894.36,-22.656
 L 895.01,-22.7388 L 895.642,-22.8032 L 896.258,-22.8492 L 896.855,-22.8768 L 897.435,-22.886 L 897.83,-22.8812
 L 898.232,-22.8669 L 898.642,-22.8429 L 899.058,-22.8095 L 899.483,-22.7664 L 899.916,-22.7137 L 900.354,-22.6515
 z
M 948.478,-19.5515 L 952.225,-16.5954 L 953.277,-17.7915 L 949.959,-20.4229 L 954.464,-23.0771 L 953.893,-24.2859
 L 948.848,-21.3095 L 945.046,-24.3152 L 943.965,-23.1189 L 947.367,-20.4355 L 942.917,-17.7523 L 943.474,-16.5942
 z
M 909.808,-19.5515 L 913.555,-16.5954 L 914.607,-17.7915 L 911.289,-20.4229 L 915.794,-23.0771 L 915.223,-24.2859
 L 910.178,-21.3095 L 906.376,-24.3152 L 905.295,-23.1189 L 908.697,-20.4355 L 904.247,-17.7523 L 904.804,-16.5942
 z
M 821.205,-4.25565 L 822.419,-4.30862 L 823.645,-4.39694 L 824.884,-4.52055 L 826.134,-4.67949 L 827.397,-4.87373
 L 828.671,-5.10329 L 829.99,-5.3746 L 832.562,-17.4551 L 831.299,-17.7339 L 830.086,-17.9663 L 828.876,-18.163
 L 827.668,-18.3239 L 826.463,-18.4491 L 825.261,-18.5385 L 824.061,-18.5921 L 822.864,-18.61 L 821.661,-18.5921
 L 820.446,-18.5385 L 819.217,-18.4491 L 817.976,-18.3239 L 816.722,-18.163 L 815.454,-17.9664 L 814.174,-17.734
 L 812.85,-17.4593 L 810.276,-5.3363 L 811.547,-5.07115 L 812.765,-4.85011 L 813.98,-4.66309 L 815.191,-4.51004
 L 816.399,-4.39104 L 817.604,-4.306 L 818.805,-4.25499 L 820.003,-4.23799 z
M 819.811,-6.97285 L 818.945,-7.00534 L 818.068,-7.0596 L 817.181,-7.1355 L 816.285,-7.23314 L 815.38,-7.35242
 L 814.464,-7.49352 L 813.59,-7.64725 L 815.211,-15.2083 L 816.132,-15.363 L 817.064,-15.5017 L 817.974,-15.6191
 L 818.862,-15.7152 L 819.729,-15.79 L 820.573,-15.8433 L 821.396,-15.8753 L 822.198,-15.886 L 823.055,-15.8749
 L 823.921,-15.8417 L 824.796,-15.7863 L 825.678,-15.7088 L 826.571,-15.609 L 827.472,-15.4871 L 828.381,-15.3431
 L 829.249,-15.186 L 827.656,-7.62975 L 826.735,-7.4774 L 825.804,-7.3407 L 824.893,-7.22488 L 824.006,-7.13028
 L 823.139,-7.05663 L 822.294,-7.00406 L 821.471,-6.97253 L 820.67,-6.96201 z
M 795.927,-4.24867 L 797.336,-4.28078 L 798.689,-4.33424 L 799.985,-4.40912 L 801.225,-4.50537 L 802.409,-4.62305
 L 803.537,-4.76213 L 804.642,-4.92767 L 805.909,-10.8982 L 803.327,-11.4083 L 806.142,-11.8672 L 807.438,-18.0983
 L 806.364,-18.2231 L 805.278,-18.3257 L 804.126,-18.4126 L 802.909,-18.4837 L 801.625,-18.539 L 800.275,-18.5784
 L 798.86,-18.6021 L 797.378,-18.61 L 795.742,-18.5995 L 794.139,-18.568 L 792.57,-18.5156 L 791.035,-18.4422
 L 789.534,-18.3478 L 788.066,-18.2324 L 786.633,-18.096 L 785.197,-17.9346 L 784.677,-15.45 L 786.26,-15.45
 L 784.588,-7.63451 L 783.059,-7.69052 L 782.541,-5.09113 L 783.951,-4.88539 L 785.346,-4.71362 L 786.776,-4.56828
 L 788.242,-4.44936 L 789.744,-4.35689 L 791.28,-4.29083 L 792.853,-4.25121 L 794.461,-4.23799 z
M 802.027,-15.6875 L 803.071,-15.5927 L 804.067,-15.489 L 803.725,-13.9294 L 802.605,-13.6963 L 801.494,-13.4886
 L 800.426,-13.313 L 799.399,-13.1694 L 798.414,-13.0576 L 797.471,-12.9778 L 796.57,-12.9299 L 795.711,-12.914
 L 788.523,-12.914 L 789.113,-15.603 L 789.87,-15.6815 L 790.68,-15.7527 L 791.508,-15.813 L 792.352,-15.8623
 L 793.215,-15.9007 L 794.095,-15.9281 L 794.991,-15.9445 L 795.906,-15.95 L 796.909,-15.9427 L 797.918,-15.9208
 L 798.935,-15.8844 L 799.959,-15.8333 L 800.989,-15.7677 z
M 793.257,-6.9689 L 792.348,-6.98961 L 791.46,-7.02408 L 790.59,-7.0724 L 789.739,-7.13449 L 788.908,-7.21034
 L 788.095,-7.30006 L 787.356,-7.3965 L 787.946,-10.062 L 795.155,-10.062 L 795.928,-10.0434 L 796.749,-9.98773
 L 797.619,-9.89487 L 798.537,-9.76489 L 799.505,-9.59755 L 800.52,-9.39328 L 801.585,-9.15149 L 802.653,-8.88405
 L 802.364,-7.43867 L 801.379,-7.33 L 800.356,-7.23235 L 799.333,-7.14978 L 798.306,-7.08217 L 797.278,-7.02959
 L 796.248,-6.99203 L 795.217,-6.96951 L 794.184,-6.96199 z
M 844.805,-9.19063 L 852.288,-3.32335 L 854.325,-5.66284 L 847.676,-10.878 L 856.706,-16.1748 L 855.609,-18.5602
 L 845.535,-12.6174 L 837.942,-18.5742 L 835.847,-16.2427 L 842.664,-10.881 L 833.745,-5.63815 L 834.814,-3.32092
 z
M 885.68,-2.06714 L 886.385,-2.08264 L 887.062,-2.10846 L 887.71,-2.14459 L 888.331,-2.19109 L 888.923,-2.24791
 L 889.488,-2.31508 L 890.058,-2.39752 L 890.371,-3.92024 L 889.617,-3.8156 L 888.933,-3.73354 L 888.248,-3.66403
 L 887.561,-3.60709 L 886.874,-3.56285 L 886.187,-3.5313 L 885.498,-3.51233 L 884.808,-3.506 L 884.344,-3.50943
 L 883.891,-3.51973 L 883.448,-3.53685 L 883.012,-3.56091 L 882.588,-3.59178 L 882.173,-3.62947 L 881.767,-3.67403
 L 881.425,-3.71855 L 881.709,-5.006 L 888.446,-5.006 L 888.744,-6.45 L 882.008,-6.45 L 882.281,-7.75839
 L 882.648,-7.80019 L 883.061,-7.83997 L 883.481,-7.87355 L 883.912,-7.90106 L 884.351,-7.92247 L 884.8,-7.93777
 L 885.258,-7.94693 L 885.725,-7.95 L 886.414,-7.94414 L 887.1,-7.92659 L 887.784,-7.89732 L 888.465,-7.85635
 L 889.143,-7.8037 L 889.819,-7.73932 L 890.492,-7.66325 L 891.208,-7.5694 L 891.521,-9.06828 L 890.957,-9.13449
 L 890.413,-9.18637 L 889.837,-9.23027 L 889.228,-9.26619 L 888.585,-9.29411 L 887.91,-9.31404 L 887.202,-9.326
 L 886.461,-9.33 L 885.685,-9.32584 L 884.941,-9.31335 L 884.229,-9.29256 L 883.549,-9.26343 L 882.901,-9.22598
 L 882.286,-9.18021 L 881.702,-9.12608 L 881.115,-9.05966 L 880.933,-8.23616 L 880.919,-8.23309 L 879.899,-3.39398
 L 879.913,-3.39398 L 879.707,-2.40324 L 880.291,-2.31738 L 880.856,-2.24959 L 881.454,-2.19225 L 882.086,-2.14534
 L 882.751,-2.10887 L 883.45,-2.08284 L 884.182,-2.0672 L 884.947,-2.062 z
M 898.268,-2.07132 L 898.876,-2.09933 L 899.49,-2.146 L 900.11,-2.21133 L 900.735,-2.29533 L 901.367,-2.39799
 L 902.005,-2.5193 L 902.68,-2.666 L 903.975,-8.77463 L 903.319,-8.91257 L 902.712,-9.02332 L 902.106,-9.117
 L 901.501,-9.19368 L 900.898,-9.25331 L 900.296,-9.29591 L 899.695,-9.32149 L 899.096,-9.33 L 894.234,-9.33
 L 893.277,-9.26949 L 893.007,-7.99478 L 893.91,-7.95279 L 892.959,-3.506 L 892.125,-3.506 L 891.842,-2.14018
 L 892.719,-2.062 L 897.666,-2.062 z
M 895.373,-7.95 L 896.525,-7.95 L 897.082,-7.935 L 897.56,-7.922 L 897.959,-7.91103 L 898.278,-7.90202
 L 898.518,-7.89502 L 898.678,-7.89001 L 898.747,-7.8875 L 898.749,-7.88615 L 899.191,-7.88094 L 899.624,-7.86583
 L 900.06,-7.84068 L 900.501,-7.80547 L 900.947,-7.7601 L 901.397,-7.70474 L 901.851,-7.6393 L 902.258,-7.57216
 L 901.471,-3.83774 L 901.028,-3.76411 L 900.562,-3.69559 L 900.108,-3.63771 L 899.664,-3.59029 L 899.231,-3.55336
 L 898.81,-3.52705 L 898.399,-3.51128 L 897.998,-3.506 L 894.422,-3.506 z
M 910.475,-2.07111 L 911.083,-2.09845 L 911.697,-2.14403 L 912.316,-2.20782 L 912.942,-2.28986 L 913.574,-2.39008
 L 914.212,-2.50854 L 914.887,-2.65181 L 915.698,-6.45 L 907.254,-6.45 L 907.498,-7.58176 L 907.94,-7.64915
 L 908.406,-7.71194 L 908.861,-7.76523 L 909.304,-7.80865 L 909.738,-7.84254 L 910.159,-7.86664 L 910.57,-7.88115
 L 910.97,-7.88599 L 911.546,-7.8768 L 912.13,-7.84923 L 912.724,-7.80322 L 913.325,-7.73886 L 913.936,-7.65608
 L 914.555,-7.55487 L 915.184,-7.43521 L 915.87,-7.28648 L 916.182,-8.7675 L 915.526,-8.90718 L 914.919,-9.01935
 L 914.313,-9.11426 L 913.708,-9.19193 L 913.105,-9.25233 L 912.503,-9.29549 L 911.902,-9.32137 L 911.303,-9.33
 L 910.701,-9.32104 L 910.093,-9.29417 L 909.478,-9.24937 L 908.856,-9.18668 L 908.229,-9.10606 L 907.594,-9.00755
 L 906.954,-8.89114 L 906.275,-8.75032 L 905.477,-5.006 L 913.923,-5.006 L 913.678,-3.82295 L 913.236,-3.75281
 L 912.77,-3.68727 L 912.315,-3.63185 L 911.871,-3.58653 L 911.439,-3.5513 L 911.017,-3.52614 L 910.606,-3.51105
 L 910.206,-3.506 L 909.63,-3.51535 L 909.045,-3.54346 L 908.451,-3.5903 L 907.847,-3.65591 L 907.235,-3.74016
 L 906.613,-3.84334 L 905.982,-3.96512 L 905.293,-4.11661 L 904.98,-2.65599 L 905.639,-2.50864 L 906.249,-2.39014
 L 906.858,-2.28989 L 907.464,-2.20784 L 908.069,-2.14403 L 908.672,-2.09845 L 909.273,-2.07111 L 909.873,-2.062
 z
" stroke="black" fill="lightgray" stroke-width="0.5"/>
</svg>
