<?xml version="1.0" standalone="no"?>
<!DOCTYPE svg PUBLIC "-//W3C//DTD SVG 1.1//EN" "http://www.w3.org/Graphics/SVG/1.1/DTD/svg11.dtd">
<svg width="344mm" height="344mm" viewBox="756 -324 344 344" xmlns="http://www.w3.org/2000/svg" version="1.1">
<title>OpenSCAD Model</title>
<path d="
M 1063.35,18.9954 L 1065.32,18.6827 L 1067.25,18.1652 L 1069.12,17.4488 L 1070.9,16.5411 L 1072.58,15.4523
 L 1074.13,14.1941 L 1075.54,12.7804 L 1076.8,11.2267 L 1077.89,9.55003 L 1078.8,7.76869 L 1079.52,5.90224
 L 1080.03,3.97112 L 1080.18,3.05 L 1080.45,3.05 L 1080.45,-38.05 L 1081.55,-38.05 L 1081.56,-38.0273
 L 1081.57,-37.9918 L 1081.58,-37.9576 L 1081.6,-37.925 L 1081.62,-37.8942 L 1081.64,-37.8658 L 1081.67,-37.8398
 L 1081.69,-37.8168 L 1081.72,-37.7968 L 1081.76,-37.7802 L 1081.79,-37.7671 L 1081.83,-37.7576 L 1081.86,-37.7518
 L 1081.9,-37.7499 L 1081.94,-37.7518 L 1081.97,-37.7576 L 1082.01,-37.7671 L 1082.04,-37.7802 L 1082.08,-37.7968
 L 1082.11,-37.8168 L 1082.13,-37.8398 L 1082.16,-37.8658 L 1082.18,-37.8942 L 1082.2,-37.925 L 1082.22,-37.9576
 L 1082.23,-37.9918 L 1082.24,-38.0272 L 1082.25,-38.05 L 1083.45,-38.05 L 1083.45,-38.3214 L 1084.37,-38.4673
 L 1086.3,-38.9847 L 1088.17,-39.7012 L 1089.95,-40.6088 L 1091.63,-41.6977 L 1093.18,-42.9559 L 1094.59,-44.3696
 L 1095.85,-45.9232 L 1096.94,-47.6 L 1097.85,-49.3813 L 1098.57,-51.2477 L 1099.08,-53.1789 L 1099.4,-55.1535
 L 1099.5,-57.15 L 1099.4,-59.1465 L 1099.08,-61.1211 L 1098.57,-63.0522 L 1097.85,-64.9187 L 1096.94,-66.7
 L 1095.85,-68.3767 L 1094.59,-69.9304 L 1093.18,-71.3441 L 1091.63,-72.6023 L 1089.95,-73.6911 L 1088.17,-74.5988
 L 1086.3,-75.3152 L 1084.37,-75.8327 L 1083.45,-75.9786 L 1083.45,-76.25 L 1080.45,-76.25 L 1080.45,-114.25
 L 1081.55,-114.25 L 1081.56,-114.227 L 1081.57,-114.192 L 1081.58,-114.158 L 1081.6,-114.125 L 1081.62,-114.094
 L 1081.64,-114.066 L 1081.67,-114.04 L 1081.69,-114.017 L 1081.72,-113.997 L 1081.76,-113.98 L 1081.79,-113.967
 L 1081.83,-113.958 L 1081.86,-113.952 L 1081.9,-113.95 L 1081.94,-113.952 L 1081.97,-113.958 L 1082.01,-113.967
 L 1082.04,-113.98 L 1082.08,-113.997 L 1082.11,-114.017 L 1082.13,-114.04 L 1082.16,-114.066 L 1082.18,-114.094
 L 1082.2,-114.125 L 1082.22,-114.158 L 1082.23,-114.192 L 1082.24,-114.227 L 1082.25,-114.25 L 1083.45,-114.25
 L 1083.45,-114.521 L 1084.37,-114.667 L 1086.3,-115.185 L 1088.17,-115.901 L 1089.95,-116.809 L 1091.63,-117.898
 L 1093.18,-119.156 L 1094.59,-120.57 L 1095.85,-122.123 L 1096.94,-123.8 L 1097.85,-125.581 L 1098.57,-127.448
 L 1099.08,-129.379 L 1099.4,-131.354 L 1099.5,-133.35 L 1099.4,-135.346 L 1099.08,-137.321 L 1098.57,-139.252
 L 1097.85,-141.119 L 1096.94,-142.9 L 1095.85,-144.577 L 1094.59,-146.13 L 1093.18,-147.544 L 1091.63,-148.802
 L 1089.95,-149.891 L 1088.17,-150.799 L 1086.3,-151.515 L 1084.37,-152.033 L 1083.45,-152.179 L 1083.45,-152.45
 L 1080.45,-152.45 L 1080.45,-190.45 L 1081.55,-190.45 L 1081.56,-190.427 L 1081.57,-190.392 L 1081.58,-190.358
 L 1081.6,-190.325 L 1081.62,-190.294 L 1081.64,-190.266 L 1081.67,-190.24 L 1081.69,-190.217 L 1081.72,-190.197
 L 1081.76,-190.18 L 1081.79,-190.167 L 1081.83,-190.158 L 1081.86,-190.152 L 1081.9,-190.15 L 1081.94,-190.152
 L 1081.97,-190.158 L 1082.01,-190.167 L 1082.04,-190.18 L 1082.08,-190.197 L 1082.11,-190.217 L 1082.13,-190.24
 L 1082.16,-190.266 L 1082.18,-190.294 L 1082.2,-190.325 L 1082.22,-190.358 L 1082.23,-190.392 L 1082.24,-190.427
 L 1082.25,-190.45 L 1083.45,-190.45 L 1083.45,-190.721 L 1084.37,-190.867 L 1086.3,-191.385 L 1088.17,-192.101
 L 1089.95,-193.009 L 1091.63,-194.098 L 1093.18,-195.356 L 1094.59,-196.77 L 1095.85,-198.323 L 1096.94,-200
 L 1097.85,-201.781 L 1098.57,-203.648 L 1099.08,-205.579 L 1099.4,-207.553 L 1099.5,-209.55 L 1099.4,-211.546
 L 1099.08,-213.521 L 1098.57,-215.452 L 1097.85,-217.319 L 1096.94,-219.1 L 1095.85,-220.777 L 1094.59,-222.33
 L 1093.18,-223.744 L 1091.63,-225.002 L 1089.95,-226.091 L 1088.17,-226.999 L 1086.3,-227.715 L 1084.37,-228.233
 L 1083.45,-228.379 L 1083.45,-228.65 L 1080.45,-228.65 L 1080.45,-266.65 L 1081.55,-266.65 L 1081.56,-266.627
 L 1081.57,-266.592 L 1081.58,-266.558 L 1081.6,-266.525 L 1081.62,-266.494 L 1081.64,-266.466 L 1081.67,-266.44
 L 1081.69,-266.417 L 1081.72,-266.397 L 1081.76,-266.38 L 1081.79,-266.367 L 1081.83,-266.358 L 1081.86,-266.352
 L 1081.9,-266.35 L 1081.94,-266.352 L 1081.97,-266.358 L 1082.01,-266.367 L 1082.04,-266.38 L 1082.08,-266.397
 L 1082.11,-266.417 L 1082.13,-266.44 L 1082.16,-266.466 L 1082.18,-266.494 L 1082.2,-266.525 L 1082.22,-266.558
 L 1082.23,-266.592 L 1082.24,-266.627 L 1082.25,-266.65 L 1083.45,-266.65 L 1083.45,-266.921 L 1084.37,-267.067
 L 1086.3,-267.585 L 1088.17,-268.301 L 1089.95,-269.209 L 1091.63,-270.298 L 1093.18,-271.556 L 1094.59,-272.97
 L 1095.85,-274.523 L 1096.94,-276.2 L 1097.85,-277.981 L 1098.57,-279.848 L 1099.08,-281.779 L 1099.4,-283.753
 L 1099.5,-285.75 L 1099.4,-287.747 L 1099.08,-289.721 L 1098.57,-291.652 L 1097.85,-293.519 L 1096.94,-295.3
 L 1095.85,-296.977 L 1094.59,-298.53 L 1093.18,-299.944 L 1091.63,-301.202 L 1089.95,-302.291 L 1088.17,-303.199
 L 1086.3,-303.915 L 1084.37,-304.433 L 1083.45,-304.579 L 1083.45,-304.85 L 1042.35,-304.85 L 1042.35,-305.954
 L 1042.37,-305.958 L 1042.41,-305.967 L 1042.44,-305.98 L 1042.47,-305.997 L 1042.51,-306.017 L 1042.53,-306.04
 L 1042.56,-306.066 L 1042.58,-306.094 L 1042.6,-306.125 L 1042.62,-306.158 L 1042.63,-306.192 L 1042.64,-306.227
 L 1042.65,-306.263 L 1042.65,-306.3 L 1042.65,-306.337 L 1042.64,-306.373 L 1042.63,-306.408 L 1042.62,-306.442
 L 1042.6,-306.475 L 1042.58,-306.506 L 1042.56,-306.534 L 1042.53,-306.56 L 1042.51,-306.583 L 1042.47,-306.603
 L 1042.44,-306.62 L 1042.41,-306.633 L 1042.37,-306.642 L 1042.35,-306.646 L 1042.35,-307.85 L 1042.08,-307.85
 L 1041.93,-308.771 L 1041.42,-310.702 L 1040.7,-312.569 L 1039.79,-314.35 L 1038.7,-316.027 L 1037.44,-317.58
 L 1036.03,-318.994 L 1034.48,-320.252 L 1032.8,-321.341 L 1031.02,-322.249 L 1029.15,-322.965 L 1027.22,-323.483
 L 1025.25,-323.795 L 1023.25,-323.9 L 1021.25,-323.795 L 1019.28,-323.483 L 1017.35,-322.965 L 1015.48,-322.249
 L 1013.7,-321.341 L 1012.02,-320.252 L 1010.47,-318.994 L 1009.06,-317.58 L 1007.8,-316.027 L 1006.71,-314.35
 L 1005.8,-312.569 L 1005.08,-310.702 L 1004.57,-308.771 L 1004.42,-307.85 L 1004.15,-307.85 L 1004.15,-304.85
 L 966.15,-304.85 L 966.15,-305.954 L 966.173,-305.958 L 966.208,-305.967 L 966.242,-305.98 L 966.275,-305.997
 L 966.306,-306.017 L 966.334,-306.04 L 966.36,-306.066 L 966.383,-306.094 L 966.403,-306.125 L 966.42,-306.158
 L 966.433,-306.192 L 966.442,-306.227 L 966.448,-306.263 L 966.45,-306.3 L 966.448,-306.337 L 966.442,-306.373
 L 966.433,-306.408 L 966.42,-306.442 L 966.403,-306.475 L 966.383,-306.506 L 966.36,-306.534 L 966.334,-306.56
 L 966.306,-306.583 L 966.275,-306.603 L 966.242,-306.62 L 966.208,-306.633 L 966.173,-306.642 L 966.15,-306.646
 L 966.15,-307.85 L 965.879,-307.85 L 965.733,-308.771 L 965.215,-310.702 L 964.499,-312.569 L 963.591,-314.35
 L 962.502,-316.027 L 961.244,-317.58 L 959.83,-318.994 L 958.277,-320.252 L 956.6,-321.341 L 954.819,-322.249
 L 952.952,-322.965 L 951.021,-323.483 L 949.046,-323.795 L 947.05,-323.9 L 945.053,-323.795 L 943.079,-323.483
 L 941.148,-322.965 L 939.281,-322.249 L 937.5,-321.341 L 935.823,-320.252 L 934.27,-318.994 L 932.856,-317.58
 L 931.598,-316.027 L 930.509,-314.35 L 929.601,-312.569 L 928.885,-310.702 L 928.367,-308.771 L 928.221,-307.85
 L 927.95,-307.85 L 927.95,-304.85 L 889.95,-304.85 L 889.95,-305.954 L 889.973,-305.958 L 890.008,-305.967
 L 890.042,-305.98 L 890.075,-305.997 L 890.106,-306.017 L 890.134,-306.04 L 890.16,-306.066 L 890.183,-306.094
 L 890.203,-306.125 L 890.22,-306.158 L 890.233,-306.192 L 890.242,-306.227 L 890.248,-306.263 L 890.25,-306.3
 L 890.248,-306.337 L 890.242,-306.373 L 890.233,-306.408 L 890.22,-306.442 L 890.203,-306.475 L 890.183,-306.506
 L 890.16,-306.534 L 890.134,-306.56 L 890.106,-306.583 L 890.075,-306.603 L 890.042,-306.62 L 890.008,-306.633
 L 889.973,-306.642 L 889.95,-306.646 L 889.95,-307.85 L 889.679,-307.85 L 889.533,-308.771 L 889.015,-310.702
 L 888.299,-312.569 L 887.391,-314.35 L 886.302,-316.027 L 885.044,-317.58 L 883.63,-318.994 L 882.077,-320.252
 L 880.4,-321.341 L 878.619,-322.249 L 876.752,-322.965 L 874.821,-323.483 L 872.846,-323.795 L 870.85,-323.9
 L 868.853,-323.795 L 866.879,-323.483 L 864.948,-322.965 L 863.081,-322.249 L 861.3,-321.341 L 859.623,-320.252
 L 858.07,-318.994 L 856.656,-317.58 L 855.398,-316.027 L 854.309,-314.35 L 853.401,-312.569 L 852.685,-310.702
 L 852.167,-308.771 L 852.021,-307.85 L 851.75,-307.85 L 851.75,-304.85 L 813.75,-304.85 L 813.75,-305.954
 L 813.773,-305.958 L 813.808,-305.967 L 813.842,-305.98 L 813.875,-305.997 L 813.906,-306.017 L 813.934,-306.04
 L 813.96,-306.066 L 813.983,-306.094 L 814.003,-306.125 L 814.02,-306.158 L 814.033,-306.192 L 814.042,-306.227
 L 814.048,-306.263 L 814.05,-306.3 L 814.048,-306.337 L 814.042,-306.373 L 814.033,-306.408 L 814.02,-306.442
 L 814.003,-306.475 L 813.983,-306.506 L 813.96,-306.534 L 813.934,-306.56 L 813.906,-306.583 L 813.875,-306.603
 L 813.842,-306.62 L 813.808,-306.633 L 813.773,-306.642 L 813.75,-306.646 L 813.75,-307.85 L 813.479,-307.85
 L 813.333,-308.771 L 812.815,-310.702 L 812.099,-312.569 L 811.191,-314.35 L 810.102,-316.027 L 808.844,-317.58
 L 807.43,-318.994 L 805.877,-320.252 L 804.2,-321.341 L 802.419,-322.249 L 800.552,-322.965 L 798.621,-323.483
 L 796.647,-323.795 L 794.65,-323.9 L 792.654,-323.795 L 790.679,-323.483 L 788.748,-322.965 L 786.881,-322.249
 L 785.1,-321.341 L 783.423,-320.252 L 781.87,-318.994 L 780.456,-317.58 L 779.198,-316.027 L 778.109,-314.35
 L 777.201,-312.569 L 776.485,-310.702 L 775.967,-308.771 L 775.821,-307.85 L 775.55,-307.85 L 775.55,-266.75
 L 774.446,-266.75 L 774.442,-266.773 L 774.433,-266.808 L 774.42,-266.842 L 774.403,-266.875 L 774.383,-266.906
 L 774.36,-266.934 L 774.334,-266.96 L 774.306,-266.983 L 774.275,-267.003 L 774.242,-267.02 L 774.208,-267.033
 L 774.173,-267.042 L 774.137,-267.048 L 774.1,-267.05 L 774.063,-267.048 L 774.027,-267.042 L 773.992,-267.033
 L 773.958,-267.02 L 773.925,-267.003 L 773.894,-266.983 L 773.866,-266.96 L 773.84,-266.934 L 773.817,-266.906
 L 773.797,-266.875 L 773.78,-266.842 L 773.767,-266.808 L 773.758,-266.773 L 773.754,-266.75 L 772.55,-266.75
 L 772.55,-266.479 L 771.629,-266.333 L 769.698,-265.815 L 767.831,-265.099 L 766.05,-264.191 L 764.373,-263.102
 L 762.82,-261.844 L 761.406,-260.43 L 760.148,-258.877 L 759.059,-257.2 L 758.151,-255.419 L 757.435,-253.552
 L 756.917,-251.621 L 756.605,-249.646 L 756.5,-247.65 L 756.605,-245.654 L 756.917,-243.679 L 757.435,-241.748
 L 758.151,-239.881 L 759.059,-238.1 L 760.148,-236.423 L 761.406,-234.87 L 762.82,-233.456 L 764.373,-232.198
 L 766.05,-231.109 L 767.831,-230.201 L 769.698,-229.485 L 771.629,-228.967 L 772.55,-228.821 L 772.55,-228.55
 L 775.55,-228.55 L 775.55,-190.55 L 774.446,-190.55 L 774.442,-190.573 L 774.433,-190.608 L 774.42,-190.642
 L 774.403,-190.675 L 774.383,-190.706 L 774.36,-190.734 L 774.334,-190.76 L 774.306,-190.783 L 774.275,-190.803
 L 774.242,-190.82 L 774.208,-190.833 L 774.173,-190.842 L 774.137,-190.848 L 774.1,-190.85 L 774.063,-190.848
 L 774.027,-190.842 L 773.992,-190.833 L 773.958,-190.82 L 773.925,-190.803 L 773.894,-190.783 L 773.866,-190.76
 L 773.84,-190.734 L 773.817,-190.706 L 773.797,-190.675 L 773.78,-190.642 L 773.767,-190.608 L 773.758,-190.573
 L 773.754,-190.55 L 772.55,-190.55 L 772.55,-190.279 L 771.629,-190.133 L 769.698,-189.615 L 767.831,-188.899
 L 766.05,-187.991 L 764.373,-186.902 L 762.82,-185.644 L 761.406,-184.23 L 760.148,-182.677 L 759.059,-181
 L 758.151,-179.219 L 757.435,-177.352 L 756.917,-175.421 L 756.605,-173.447 L 756.5,-171.45 L 756.605,-169.454
 L 756.917,-167.479 L 757.435,-165.548 L 758.151,-163.681 L 759.059,-161.9 L 760.148,-160.223 L 761.406,-158.67
 L 762.82,-157.256 L 764.373,-155.998 L 766.05,-154.909 L 767.831,-154.001 L 769.698,-153.285 L 771.629,-152.767
 L 772.55,-152.621 L 772.55,-152.35 L 775.55,-152.35 L 775.55,-114.35 L 774.446,-114.35 L 774.442,-114.373
 L 774.433,-114.408 L 774.42,-114.442 L 774.403,-114.475 L 774.383,-114.506 L 774.36,-114.534 L 774.334,-114.56
 L 774.306,-114.583 L 774.275,-114.603 L 774.242,-114.62 L 774.208,-114.633 L 774.173,-114.642 L 774.137,-114.648
 L 774.1,-114.65 L 774.063,-114.648 L 774.027,-114.642 L 773.992,-114.633 L 773.958,-114.62 L 773.925,-114.603
 L 773.894,-114.583 L 773.866,-114.56 L 773.84,-114.534 L 773.817,-114.506 L 773.797,-114.475 L 773.78,-114.442
 L 773.767,-114.408 L 773.758,-114.373 L 773.754,-114.35 L 772.55,-114.35 L 772.55,-114.079 L 771.629,-113.933
 L 769.698,-113.415 L 767.831,-112.699 L 766.05,-111.791 L 764.373,-110.702 L 762.82,-109.444 L 761.406,-108.03
 L 760.148,-106.477 L 759.059,-104.8 L 758.151,-103.019 L 757.435,-101.152 L 756.917,-99.2211 L 756.605,-97.2465
 L 756.5,-95.25 L 756.605,-93.2535 L 756.917,-91.2789 L 757.435,-89.3477 L 758.151,-87.4813 L 759.059,-85.7
 L 760.148,-84.0233 L 761.406,-82.4695 L 762.82,-81.0559 L 764.373,-79.7977 L 766.05,-78.7088 L 767.831,-77.8012
 L 769.698,-77.0847 L 771.629,-76.5673 L 772.55,-76.4214 L 772.55,-76.15 L 775.55,-76.15 L 775.55,-38.15
 L 774.446,-38.15 L 774.442,-38.1728 L 774.433,-38.2081 L 774.42,-38.2424 L 774.403,-38.275 L 774.383,-38.3058
 L 774.36,-38.3343 L 774.334,-38.3602 L 774.306,-38.3832 L 774.275,-38.4032 L 774.242,-38.4198 L 774.208,-38.4329
 L 774.173,-38.4424 L 774.137,-38.4481 L 774.1,-38.4501 L 774.063,-38.4481 L 774.027,-38.4424 L 773.992,-38.4329
 L 773.958,-38.4198 L 773.925,-38.4032 L 773.894,-38.3832 L 773.866,-38.3601 L 773.84,-38.3342 L 773.817,-38.3058
 L 773.797,-38.275 L 773.78,-38.2424 L 773.767,-38.2081 L 773.758,-38.1728 L 773.754,-38.15 L 772.55,-38.15
 L 772.55,-37.8786 L 771.629,-37.7327 L 769.698,-37.2152 L 767.831,-36.4988 L 766.05,-35.5911 L 764.373,-34.5023
 L 762.82,-33.2441 L 761.406,-31.8304 L 760.148,-30.2767 L 759.059,-28.6 L 758.151,-26.8187 L 757.435,-24.9522
 L 756.917,-23.0211 L 756.605,-21.0465 L 756.5,-19.05 L 756.605,-17.0535 L 756.917,-15.0789 L 757.435,-13.1478
 L 758.151,-11.2813 L 759.059,-9.49995 L 760.148,-7.82324 L 761.406,-6.26955 L 762.82,-4.85588 L 764.373,-3.5977
 L 766.05,-2.50885 L 767.831,-1.60121 L 769.698,-0.88475 L 771.629,-0.367294 L 772.55,-0.22142 L 772.55,0.0500031
 L 813.65,0.0500031 L 813.65,1.15396 L 813.627,1.15756 L 813.592,1.16705 L 813.558,1.18018 L 813.525,1.19684
 L 813.494,1.2168 L 813.466,1.23984 L 813.44,1.26573 L 813.417,1.29422 L 813.397,1.32498 L 813.38,1.3576
 L 813.367,1.3918 L 813.358,1.42725 L 813.352,1.46341 L 813.35,1.5 L 813.352,1.53658 L 813.358,1.57274
 L 813.367,1.60818 L 813.38,1.64238 L 813.397,1.675 L 813.417,1.70576 L 813.44,1.73425 L 813.466,1.76015
 L 813.494,1.78319 L 813.525,1.80315 L 813.558,1.81981 L 813.592,1.83293 L 813.627,1.84242 L 813.65,1.84602
 L 813.65,3.05 L 813.921,3.05 L 814.067,3.97112 L 814.585,5.90224 L 815.301,7.76869 L 816.209,9.55003
 L 817.298,11.2267 L 818.556,12.7804 L 819.97,14.1941 L 821.523,15.4523 L 823.2,16.5411 L 824.981,17.4488
 L 826.848,18.1652 L 828.779,18.6827 L 830.753,18.9954 L 832.75,19.1001 L 834.747,18.9954 L 836.721,18.6827
 L 838.652,18.1652 L 840.519,17.4488 L 842.3,16.5411 L 843.977,15.4523 L 845.53,14.1941 L 846.944,12.7804
 L 848.202,11.2267 L 849.291,9.55003 L 850.199,7.76869 L 850.915,5.90224 L 851.433,3.97112 L 851.579,3.05
 L 851.85,3.05 L 851.85,0.0500031 L 889.85,0.0500031 L 889.85,1.15396 L 889.827,1.15756 L 889.792,1.16705
 L 889.758,1.18018 L 889.725,1.19684 L 889.694,1.2168 L 889.666,1.23984 L 889.64,1.26573 L 889.617,1.29422
 L 889.597,1.32495 L 889.58,1.3576 L 889.567,1.39185 L 889.558,1.4272 L 889.552,1.46336 L 889.55,1.5
 L 889.552,1.53662 L 889.558,1.57278 L 889.567,1.60814 L 889.58,1.64238 L 889.597,1.67503 L 889.617,1.70576
 L 889.64,1.73425 L 889.666,1.76015 L 889.694,1.78319 L 889.725,1.80315 L 889.758,1.81981 L 889.792,1.83293
 L 889.827,1.84242 L 889.85,1.84602 L 889.85,3.05 L 890.121,3.05 L 890.267,3.97112 L 890.785,5.90224
 L 891.501,7.76869 L 892.409,9.55003 L 893.498,11.2267 L 894.756,12.7804 L 896.17,14.1941 L 897.723,15.4523
 L 899.4,16.5411 L 901.181,17.4488 L 903.048,18.1652 L 904.979,18.6827 L 906.954,18.9954 L 908.95,19.1001
 L 910.947,18.9954 L 912.921,18.6827 L 914.852,18.1652 L 916.719,17.4488 L 918.5,16.5411 L 920.177,15.4523
 L 921.73,14.1941 L 923.144,12.7804 L 924.402,11.2267 L 925.491,9.55003 L 926.399,7.76869 L 927.115,5.90224
 L 927.633,3.97112 L 927.779,3.05 L 928.05,3.05 L 928.05,0.0500031 L 966.05,0.0500031 L 966.05,1.15396
 L 966.027,1.15756 L 965.992,1.16705 L 965.958,1.18018 L 965.925,1.19684 L 965.894,1.2168 L 965.866,1.23985
 L 965.84,1.26573 L 965.817,1.29422 L 965.797,1.32495 L 965.78,1.3576 L 965.767,1.39185 L 965.758,1.4272
 L 965.752,1.46336 L 965.75,1.5 L 965.752,1.53662 L 965.758,1.57278 L 965.767,1.60814 L 965.78,1.64238
 L 965.797,1.67503 L 965.817,1.70576 L 965.84,1.73425 L 965.866,1.76013 L 965.894,1.78319 L 965.925,1.80315
 L 965.958,1.81981 L 965.992,1.83293 L 966.027,1.84242 L 966.05,1.84602 L 966.05,3.05 L 966.321,3.05
 L 966.467,3.97112 L 966.985,5.90224 L 967.701,7.76869 L 968.609,9.55003 L 969.698,11.2267 L 970.956,12.7804
 L 972.37,14.1941 L 973.923,15.4523 L 975.6,16.5411 L 977.381,17.4488 L 979.248,18.1652 L 981.179,18.6827
 L 983.154,18.9954 L 985.15,19.1001 L 987.147,18.9954 L 989.121,18.6827 L 991.052,18.1652 L 992.919,17.4488
 L 994.7,16.5411 L 996.377,15.4523 L 997.93,14.1941 L 999.344,12.7804 L 1000.6,11.2267 L 1001.69,9.55003
 L 1002.6,7.76869 L 1003.32,5.90224 L 1003.83,3.97112 L 1003.98,3.05 L 1004.25,3.05 L 1004.25,0.0500031
 L 1042.25,0.0500031 L 1042.25,1.15396 L 1042.23,1.15756 L 1042.19,1.16705 L 1042.16,1.18019 L 1042.12,1.19684
 L 1042.09,1.21678 L 1042.07,1.23984 L 1042.04,1.26573 L 1042.02,1.29422 L 1042,1.32495 L 1041.98,1.3576
 L 1041.97,1.39188 L 1041.96,1.4272 L 1041.95,1.46336 L 1041.95,1.5 L 1041.95,1.53662 L 1041.96,1.57278
 L 1041.97,1.60811 L 1041.98,1.64238 L 1042,1.67503 L 1042.02,1.70576 L 1042.04,1.73425 L 1042.07,1.76015
 L 1042.09,1.7832 L 1042.12,1.80315 L 1042.16,1.81979 L 1042.19,1.83293 L 1042.23,1.84242 L 1042.25,1.84602
 L 1042.25,3.05 L 1042.52,3.05 L 1042.67,3.97112 L 1043.18,5.90224 L 1043.9,7.76869 L 1044.81,9.55003
 L 1045.9,11.2267 L 1047.16,12.7804 L 1048.57,14.1941 L 1050.12,15.4523 L 1051.8,16.5411 L 1053.58,17.4488
 L 1055.45,18.1652 L 1057.38,18.6827 L 1059.35,18.9954 L 1061.35,19.1001 z
M 880.375,-198.707 L 880.251,-198.726 L 880.129,-198.759 L 880.012,-198.804 L 879.9,-198.861 L 879.795,-198.929
 L 879.697,-199.008 L 879.608,-199.097 L 879.529,-199.195 L 879.461,-199.3 L 879.404,-199.412 L 879.359,-199.529
 L 879.326,-199.65 L 879.307,-199.775 L 879.3,-199.9 L 879.307,-200.025 L 879.326,-200.15 L 879.359,-200.271
 L 879.404,-200.388 L 879.461,-200.5 L 879.529,-200.605 L 879.608,-200.703 L 879.697,-200.792 L 879.795,-200.871
 L 879.9,-200.939 L 880.012,-200.996 L 880.129,-201.041 L 880.251,-201.074 L 880.375,-201.093 L 880.5,-201.1
 L 880.625,-201.093 L 880.749,-201.074 L 880.871,-201.041 L 880.988,-200.996 L 881.1,-200.939 L 881.205,-200.871
 L 881.303,-200.792 L 881.392,-200.703 L 881.471,-200.605 L 881.539,-200.5 L 881.596,-200.388 L 881.641,-200.271
 L 881.674,-200.15 L 881.693,-200.025 L 881.7,-199.9 L 881.693,-199.775 L 881.674,-199.65 L 881.641,-199.529
 L 881.596,-199.412 L 881.539,-199.3 L 881.471,-199.195 L 881.392,-199.097 L 881.303,-199.008 L 881.205,-198.929
 L 881.1,-198.861 L 880.988,-198.804 L 880.871,-198.759 L 880.749,-198.726 L 880.625,-198.707 L 880.5,-198.7
 z
M 975.375,-198.707 L 975.251,-198.726 L 975.129,-198.759 L 975.012,-198.804 L 974.9,-198.861 L 974.795,-198.929
 L 974.697,-199.008 L 974.608,-199.097 L 974.529,-199.195 L 974.461,-199.3 L 974.404,-199.412 L 974.359,-199.529
 L 974.326,-199.65 L 974.307,-199.775 L 974.3,-199.9 L 974.307,-200.025 L 974.326,-200.15 L 974.359,-200.271
 L 974.404,-200.388 L 974.461,-200.5 L 974.529,-200.605 L 974.608,-200.703 L 974.697,-200.792 L 974.795,-200.871
 L 974.9,-200.939 L 975.012,-200.996 L 975.129,-201.041 L 975.251,-201.074 L 975.375,-201.093 L 975.5,-201.1
 L 975.625,-201.093 L 975.749,-201.074 L 975.871,-201.041 L 975.988,-200.996 L 976.1,-200.939 L 976.205,-200.871
 L 976.303,-200.792 L 976.392,-200.703 L 976.471,-200.605 L 976.539,-200.5 L 976.596,-200.388 L 976.641,-200.271
 L 976.674,-200.15 L 976.693,-200.025 L 976.7,-199.9 L 976.693,-199.775 L 976.674,-199.65 L 976.641,-199.529
 L 976.596,-199.412 L 976.539,-199.3 L 976.471,-199.195 L 976.392,-199.097 L 976.303,-199.008 L 976.205,-198.929
 L 976.1,-198.861 L 975.988,-198.804 L 975.871,-198.759 L 975.749,-198.726 L 975.625,-198.707 L 975.5,-198.7
 z
M 883.05,-107.45 L 883.05,-197.35 L 972.95,-197.35 L 972.95,-107.45 z
M 880.375,-103.707 L 880.251,-103.726 L 880.129,-103.759 L 880.012,-103.804 L 879.9,-103.861 L 879.795,-103.929
 L 879.697,-104.008 L 879.608,-104.097 L 879.529,-104.195 L 879.461,-104.3 L 879.404,-104.412 L 879.359,-104.529
 L 879.326,-104.65 L 879.307,-104.775 L 879.3,-104.9 L 879.307,-105.025 L 879.326,-105.15 L 879.359,-105.271
 L 879.404,-105.388 L 879.461,-105.5 L 879.529,-105.605 L 879.608,-105.703 L 879.697,-105.792 L 879.795,-105.871
 L 879.9,-105.939 L 880.012,-105.996 L 880.129,-106.041 L 880.251,-106.074 L 880.375,-106.093 L 880.5,-106.1
 L 880.625,-106.093 L 880.749,-106.074 L 880.871,-106.041 L 880.988,-105.996 L 881.1,-105.939 L 881.205,-105.871
 L 881.303,-105.792 L 881.392,-105.703 L 881.471,-105.605 L 881.539,-105.5 L 881.596,-105.388 L 881.641,-105.271
 L 881.674,-105.15 L 881.693,-105.025 L 881.7,-104.9 L 881.693,-104.775 L 881.674,-104.65 L 881.641,-104.529
 L 881.596,-104.412 L 881.539,-104.3 L 881.471,-104.195 L 881.392,-104.097 L 881.303,-104.008 L 881.205,-103.929
 L 881.1,-103.861 L 880.988,-103.804 L 880.871,-103.759 L 880.749,-103.726 L 880.625,-103.707 L 880.5,-103.7
 z
M 975.375,-103.707 L 975.251,-103.726 L 975.129,-103.759 L 975.012,-103.804 L 974.9,-103.861 L 974.795,-103.929
 L 974.697,-104.008 L 974.608,-104.097 L 974.529,-104.195 L 974.461,-104.3 L 974.404,-104.412 L 974.359,-104.529
 L 974.326,-104.65 L 974.307,-104.775 L 974.3,-104.9 L 974.307,-105.025 L 974.326,-105.15 L 974.359,-105.271
 L 974.404,-105.388 L 974.461,-105.5 L 974.529,-105.605 L 974.608,-105.703 L 974.697,-105.792 L 974.795,-105.871
 L 974.9,-105.939 L 975.012,-105.996 L 975.129,-106.041 L 975.251,-106.074 L 975.375,-106.093 L 975.5,-106.1
 L 975.625,-106.093 L 975.749,-106.074 L 975.871,-106.041 L 975.988,-105.996 L 976.1,-105.939 L 976.205,-105.871
 L 976.303,-105.792 L 976.392,-105.703 L 976.471,-105.605 L 976.539,-105.5 L 976.596,-105.388 L 976.641,-105.271
 L 976.674,-105.15 L 976.693,-105.025 L 976.7,-104.9 L 976.693,-104.775 L 976.674,-104.65 L 976.641,-104.529
 L 976.596,-104.412 L 976.539,-104.3 L 976.471,-104.195 L 976.392,-104.097 L 976.303,-104.008 L 976.205,-103.929
 L 976.1,-103.861 L 975.988,-103.804 L 975.871,-103.759 L 975.749,-103.726 L 975.625,-103.707 L 975.5,-103.7
 z
" stroke="black" fill="lightgray" stroke-width="0.5"/>
</svg>
