<?xml version="1.0" standalone="no"?>
<!DOCTYPE svg PUBLIC "-//W3C//DTD SVG 1.1//EN" "http://www.w3.org/Graphics/SVG/1.1/DTD/svg11.dtd">
<svg width="182mm" height="312mm" viewBox="177 -308 182 312" xmlns="http://www.w3.org/2000/svg" version="1.1">
<title>OpenSCAD Model</title>
<path d="
M 240.217,0.0500031 L 269.75,0.0500031 L 269.75,1.15396 L 269.727,1.15756 L 269.692,1.16705 L 269.658,1.18018
 L 269.625,1.19684 L 269.594,1.2168 L 269.566,1.23985 L 269.54,1.26573 L 269.517,1.29422 L 269.497,1.32497
 L 269.48,1.3576 L 269.467,1.39182 L 269.458,1.42722 L 269.452,1.46339 L 269.45,1.5 L 269.452,1.53659
 L 269.458,1.57277 L 269.467,1.60817 L 269.48,1.64238 L 269.497,1.67502 L 269.517,1.70576 L 269.54,1.73425
 L 269.566,1.76013 L 269.594,1.78319 L 269.625,1.80315 L 269.658,1.81981 L 269.692,1.83293 L 269.727,1.84242
 L 269.75,1.84602 L 269.75,3.05 L 299.483,3.05 L 299.483,0.0500031 L 329.017,0.0500031 L 329.017,1.15396
 L 328.994,1.15756 L 328.958,1.16705 L 328.924,1.18018 L 328.892,1.19684 L 328.861,1.2168 L 328.832,1.23985
 L 328.807,1.26575 L 328.783,1.29422 L 328.763,1.32495 L 328.747,1.3576 L 328.734,1.39182 L 328.724,1.42722
 L 328.719,1.46339 L 328.717,1.5 L 328.719,1.53659 L 328.724,1.57277 L 328.734,1.60817 L 328.747,1.64238
 L 328.763,1.67503 L 328.783,1.70576 L 328.807,1.73424 L 328.832,1.76013 L 328.861,1.78319 L 328.892,1.80315
 L 328.924,1.81981 L 328.958,1.83293 L 328.994,1.84242 L 329.017,1.84602 L 329.017,3.05 L 358.75,3.05
 L 358.75,-3.05 L 358.75,-3.05 L 358.75,-304.85 L 329.117,-304.85 L 329.117,-307.85 L 299.383,-307.85
 L 299.383,-304.85 L 269.85,-304.85 L 269.85,-307.85 L 240.117,-307.85 L 240.117,-304.85 L 210.583,-304.85
 L 210.583,-307.85 L 180.85,-307.85 L 180.85,-266.75 L 177.85,-266.75 L 177.85,-228.55 L 180.85,-228.55
 L 180.85,-190.55 L 177.85,-190.55 L 177.85,-152.35 L 180.85,-152.35 L 180.85,-114.35 L 177.85,-114.35
 L 177.85,-76.15 L 180.85,-76.15 L 180.85,-38.15 L 177.85,-38.15 L 177.85,0.0500031 L 210.483,0.0500031
 L 210.483,1.15396 L 210.461,1.15756 L 210.425,1.16705 L 210.391,1.18018 L 210.358,1.19684 L 210.328,1.21678
 L 210.299,1.23985 L 210.273,1.26575 L 210.25,1.29422 L 210.23,1.32497 L 210.214,1.3576 L 210.2,1.3918
 L 210.191,1.4272 L 210.185,1.46339 L 210.183,1.5 L 210.185,1.53659 L 210.191,1.57278 L 210.2,1.60818
 L 210.214,1.64238 L 210.23,1.67502 L 210.25,1.70576 L 210.273,1.73424 L 210.299,1.76013 L 210.328,1.7832
 L 210.358,1.80315 L 210.391,1.81981 L 210.425,1.83293 L 210.461,1.84242 L 210.483,1.84602 L 210.483,3.05
 L 240.217,3.05 z
" stroke="black" fill="lightgray" stroke-width="0.5"/>
</svg>
