<?xml version="1.0" standalone="no"?>
<!DOCTYPE svg PUBLIC "-//W3C//DTD SVG 1.1//EN" "http://www.w3.org/Graphics/SVG/1.1/DTD/svg11.dtd">
<svg width="182mm" height="312mm" viewBox="358 -308 182 312" xmlns="http://www.w3.org/2000/svg" version="1.1">
<title>OpenSCAD Model</title>
<path d="
M 421.117,0.0500031 L 450.65,0.0500031 L 450.65,1.15396 L 450.627,1.15756 L 450.592,1.16705 L 450.558,1.18018
 L 450.525,1.19684 L 450.494,1.2168 L 450.466,1.23985 L 450.44,1.26575 L 450.417,1.29422 L 450.397,1.32495
 L 450.38,1.3576 L 450.367,1.39182 L 450.358,1.42722 L 450.352,1.46339 L 450.35,1.5 L 450.352,1.53659
 L 450.358,1.57277 L 450.367,1.60817 L 450.38,1.64238 L 450.397,1.67503 L 450.417,1.70576 L 450.44,1.73424
 L 450.466,1.76013 L 450.494,1.78319 L 450.525,1.80315 L 450.558,1.81981 L 450.592,1.83293 L 450.627,1.84242
 L 450.65,1.84602 L 450.65,3.05 L 480.383,3.05 L 480.383,0.0500031 L 509.917,0.0500031 L 509.917,1.15396
 L 509.894,1.15756 L 509.858,1.16705 L 509.824,1.18019 L 509.792,1.19684 L 509.761,1.21678 L 509.732,1.23984
 L 509.707,1.26575 L 509.683,1.29422 L 509.663,1.32495 L 509.647,1.3576 L 509.634,1.39182 L 509.624,1.42722
 L 509.619,1.46339 L 509.617,1.5 L 509.619,1.53659 L 509.624,1.57277 L 509.634,1.60817 L 509.647,1.64238
 L 509.663,1.67503 L 509.683,1.70576 L 509.707,1.73424 L 509.732,1.76015 L 509.761,1.7832 L 509.792,1.80315
 L 509.824,1.81979 L 509.858,1.83293 L 509.894,1.84242 L 509.917,1.84602 L 509.917,3.05 L 539.65,3.05
 L 539.65,-304.85 L 510.017,-304.85 L 510.017,-307.85 L 480.283,-307.85 L 480.283,-304.85 L 450.75,-304.85
 L 450.75,-307.85 L 421.017,-307.85 L 421.017,-304.85 L 391.483,-304.85 L 391.483,-307.85 L 361.75,-307.85
 L 361.75,-266.75 L 358.75,-266.75 L 358.75,-228.55 L 361.75,-228.55 L 361.75,-190.55 L 358.75,-190.55
 L 358.75,-152.35 L 361.75,-152.35 L 361.75,-114.35 L 358.75,-114.35 L 358.75,-76.15 L 361.75,-76.15
 L 361.75,-38.15 L 358.75,-38.15 L 358.75,0.0500031 L 391.383,0.0500031 L 391.383,1.15396 L 391.361,1.15756
 L 391.325,1.16705 L 391.291,1.18018 L 391.258,1.19684 L 391.228,1.2168 L 391.199,1.23985 L 391.173,1.26575
 L 391.15,1.29422 L 391.13,1.32495 L 391.114,1.3576 L 391.1,1.39182 L 391.091,1.42722 L 391.085,1.46339
 L 391.083,1.5 L 391.085,1.53659 L 391.091,1.57277 L 391.1,1.60817 L 391.114,1.64238 L 391.13,1.67503
 L 391.15,1.70576 L 391.173,1.73424 L 391.199,1.76013 L 391.228,1.78319 L 391.258,1.80315 L 391.291,1.81981
 L 391.325,1.83293 L 391.361,1.84242 L 391.383,1.84602 L 391.383,3.05 L 421.117,3.05 z
" stroke="black" fill="lightgray" stroke-width="0.5"/>
</svg>
