<?xml version="1.0" standalone="no"?>
<!DOCTYPE svg PUBLIC "-//W3C//DTD SVG 1.1//EN" "http://www.w3.org/Graphics/SVG/1.1/DTD/svg11.dtd">
<svg width="182mm" height="312mm" viewBox="-4 -308 182 312" xmlns="http://www.w3.org/2000/svg" version="1.1">
<title>OpenSCAD Model</title>
<path d="
M 59.3167,0.0500031 L 88.85,0.0500031 L 88.85,1.15396 L 88.8272,1.15756 L 88.7918,1.16705 L 88.7576,1.18018
 L 88.725,1.19684 L 88.6942,1.21678 L 88.6658,1.23984 L 88.6398,1.26575 L 88.6168,1.29422 L 88.5968,1.32497
 L 88.5802,1.35762 L 88.5671,1.39182 L 88.5576,1.4272 L 88.5518,1.46339 L 88.5499,1.5 L 88.5518,1.53659
 L 88.5576,1.57278 L 88.5671,1.60817 L 88.5802,1.64236 L 88.5968,1.67502 L 88.6168,1.70576 L 88.6398,1.73424
 L 88.6658,1.76015 L 88.6942,1.7832 L 88.725,1.80315 L 88.7576,1.81981 L 88.7918,1.83293 L 88.8272,1.84242
 L 88.85,1.84602 L 88.85,3.05 L 118.583,3.05 L 118.583,0.0500031 L 148.117,0.0500031 L 148.117,1.15396
 L 148.094,1.15756 L 148.058,1.16705 L 148.024,1.18018 L 147.992,1.19684 L 147.961,1.21678 L 147.932,1.23985
 L 147.907,1.26575 L 147.883,1.29422 L 147.863,1.32497 L 147.847,1.3576 L 147.834,1.39182 L 147.824,1.42722
 L 147.819,1.46339 L 147.817,1.5 L 147.819,1.53659 L 147.824,1.57277 L 147.834,1.60817 L 147.847,1.64238
 L 147.863,1.67502 L 147.883,1.70576 L 147.907,1.73424 L 147.932,1.76013 L 147.961,1.7832 L 147.992,1.80315
 L 148.024,1.81981 L 148.058,1.83293 L 148.094,1.84242 L 148.117,1.84602 L 148.117,3.05 L 177.85,3.05
 L 177.85,-304.85 L 148.217,-304.85 L 148.217,-307.85 L 118.483,-307.85 L 118.483,-304.85 L 88.95,-304.85
 L 88.95,-307.85 L 59.2167,-307.85 L 59.2167,-304.85 L 29.6833,-304.85 L 29.6833,-307.85 L -0.0500031,-307.85
 L -0.0500031,-266.75 L -3.05,-266.75 L -3.05,-228.55 L -0.0500031,-228.55 L -0.0500031,-190.55 L -3.05,-190.55
 L -3.05,-152.35 L -0.0500031,-152.35 L -0.0500031,-114.35 L -3.05,-114.35 L -3.05,-76.15 L -0.0500031,-76.15
 L -0.0500031,-38.15 L -3.05,-38.15 L -3.05,0.0500031 L 29.5833,0.0500031 L 29.5833,1.15396 L 29.5605,1.15756
 L 29.5251,1.16705 L 29.4909,1.18018 L 29.4583,1.19684 L 29.4276,1.21678 L 29.3991,1.23985 L 29.3732,1.26575
 L 29.3501,1.29422 L 29.3302,1.32497 L 29.3135,1.3576 L 29.3004,1.39182 L 29.2909,1.42722 L 29.2852,1.46339
 L 29.2833,1.5 L 29.2852,1.53659 L 29.2909,1.57277 L 29.3004,1.60817 L 29.3135,1.64238 L 29.3302,1.67502
 L 29.3501,1.70576 L 29.3732,1.73424 L 29.3991,1.76013 L 29.4276,1.7832 L 29.4583,1.80315 L 29.4909,1.81981
 L 29.5251,1.83293 L 29.5605,1.84242 L 29.5833,1.84602 L 29.5833,3.05 L 59.3167,3.05 z
" stroke="black" fill="lightgray" stroke-width="0.5"/>
</svg>
