G04 #@! TF.GenerationSoftware,KiCad,Pcbnew,5.1.4+dfsg1-1*
G04 #@! TF.CreationDate,2020-12-14T22:30:58-06:00*
G04 #@! TF.ProjectId,HotBox,486f7442-6f78-42e6-9b69-6361645f7063,2*
G04 #@! TF.SameCoordinates,Original*
G04 #@! TF.FileFunction,Legend,Top*
G04 #@! TF.FilePolarity,Positive*
%FSLAX46Y46*%
G04 Gerber Fmt 4.6, Leading zero omitted, Abs format (unit mm)*
G04 Created by KiCad (PCBNEW 5.1.4+dfsg1-1) date 2020-12-14 22:30:58*
%MOMM*%
%LPD*%
G04 APERTURE LIST*
%ADD10C,0.150000*%
%ADD11C,0.010000*%
%ADD12C,0.120000*%
G04 APERTURE END LIST*
D10*
X173930714Y-138547571D02*
X174073571Y-138595190D01*
X174121190Y-138642809D01*
X174168809Y-138738047D01*
X174168809Y-138880904D01*
X174121190Y-138976142D01*
X174073571Y-139023761D01*
X173978333Y-139071380D01*
X173597380Y-139071380D01*
X173597380Y-138071380D01*
X173930714Y-138071380D01*
X174025952Y-138119000D01*
X174073571Y-138166619D01*
X174121190Y-138261857D01*
X174121190Y-138357095D01*
X174073571Y-138452333D01*
X174025952Y-138499952D01*
X173930714Y-138547571D01*
X173597380Y-138547571D01*
X174978333Y-139023761D02*
X174883095Y-139071380D01*
X174692619Y-139071380D01*
X174597380Y-139023761D01*
X174549761Y-138928523D01*
X174549761Y-138547571D01*
X174597380Y-138452333D01*
X174692619Y-138404714D01*
X174883095Y-138404714D01*
X174978333Y-138452333D01*
X175025952Y-138547571D01*
X175025952Y-138642809D01*
X174549761Y-138738047D01*
X175454523Y-138404714D02*
X175454523Y-139071380D01*
X175454523Y-138499952D02*
X175502142Y-138452333D01*
X175597380Y-138404714D01*
X175740238Y-138404714D01*
X175835476Y-138452333D01*
X175883095Y-138547571D01*
X175883095Y-139071380D01*
X176787857Y-139023761D02*
X176692619Y-139071380D01*
X176502142Y-139071380D01*
X176406904Y-139023761D01*
X176359285Y-138976142D01*
X176311666Y-138880904D01*
X176311666Y-138595190D01*
X176359285Y-138499952D01*
X176406904Y-138452333D01*
X176502142Y-138404714D01*
X176692619Y-138404714D01*
X176787857Y-138452333D01*
X177216428Y-139071380D02*
X177216428Y-138071380D01*
X177645000Y-139071380D02*
X177645000Y-138547571D01*
X177597380Y-138452333D01*
X177502142Y-138404714D01*
X177359285Y-138404714D01*
X177264047Y-138452333D01*
X177216428Y-138499952D01*
X178787857Y-138071380D02*
X179025952Y-139071380D01*
X179216428Y-138357095D01*
X179406904Y-139071380D01*
X179645000Y-138071380D01*
X180025952Y-139071380D02*
X180025952Y-138404714D01*
X180025952Y-138071380D02*
X179978333Y-138119000D01*
X180025952Y-138166619D01*
X180073571Y-138119000D01*
X180025952Y-138071380D01*
X180025952Y-138166619D01*
X180454523Y-139023761D02*
X180549761Y-139071380D01*
X180740238Y-139071380D01*
X180835476Y-139023761D01*
X180883095Y-138928523D01*
X180883095Y-138880904D01*
X180835476Y-138785666D01*
X180740238Y-138738047D01*
X180597380Y-138738047D01*
X180502142Y-138690428D01*
X180454523Y-138595190D01*
X180454523Y-138547571D01*
X180502142Y-138452333D01*
X180597380Y-138404714D01*
X180740238Y-138404714D01*
X180835476Y-138452333D01*
X181692619Y-139023761D02*
X181597380Y-139071380D01*
X181406904Y-139071380D01*
X181311666Y-139023761D01*
X181264047Y-138928523D01*
X181264047Y-138547571D01*
X181311666Y-138452333D01*
X181406904Y-138404714D01*
X181597380Y-138404714D01*
X181692619Y-138452333D01*
X181740238Y-138547571D01*
X181740238Y-138642809D01*
X181264047Y-138738047D01*
X174883095Y-140721380D02*
X174883095Y-139721380D01*
X174883095Y-140197571D02*
X175454523Y-140197571D01*
X175454523Y-140721380D02*
X175454523Y-139721380D01*
X176073571Y-140721380D02*
X175978333Y-140673761D01*
X175930714Y-140626142D01*
X175883095Y-140530904D01*
X175883095Y-140245190D01*
X175930714Y-140149952D01*
X175978333Y-140102333D01*
X176073571Y-140054714D01*
X176216428Y-140054714D01*
X176311666Y-140102333D01*
X176359285Y-140149952D01*
X176406904Y-140245190D01*
X176406904Y-140530904D01*
X176359285Y-140626142D01*
X176311666Y-140673761D01*
X176216428Y-140721380D01*
X176073571Y-140721380D01*
X176692619Y-140054714D02*
X177073571Y-140054714D01*
X176835476Y-139721380D02*
X176835476Y-140578523D01*
X176883095Y-140673761D01*
X176978333Y-140721380D01*
X177073571Y-140721380D01*
X178502142Y-140197571D02*
X178645000Y-140245190D01*
X178692619Y-140292809D01*
X178740238Y-140388047D01*
X178740238Y-140530904D01*
X178692619Y-140626142D01*
X178645000Y-140673761D01*
X178549761Y-140721380D01*
X178168809Y-140721380D01*
X178168809Y-139721380D01*
X178502142Y-139721380D01*
X178597380Y-139769000D01*
X178645000Y-139816619D01*
X178692619Y-139911857D01*
X178692619Y-140007095D01*
X178645000Y-140102333D01*
X178597380Y-140149952D01*
X178502142Y-140197571D01*
X178168809Y-140197571D01*
X179311666Y-140721380D02*
X179216428Y-140673761D01*
X179168809Y-140626142D01*
X179121190Y-140530904D01*
X179121190Y-140245190D01*
X179168809Y-140149952D01*
X179216428Y-140102333D01*
X179311666Y-140054714D01*
X179454523Y-140054714D01*
X179549761Y-140102333D01*
X179597380Y-140149952D01*
X179645000Y-140245190D01*
X179645000Y-140530904D01*
X179597380Y-140626142D01*
X179549761Y-140673761D01*
X179454523Y-140721380D01*
X179311666Y-140721380D01*
X179978333Y-140721380D02*
X180502142Y-140054714D01*
X179978333Y-140054714D02*
X180502142Y-140721380D01*
X176597380Y-142371380D02*
X176264047Y-141895190D01*
X176025952Y-142371380D02*
X176025952Y-141371380D01*
X176406904Y-141371380D01*
X176502142Y-141419000D01*
X176549761Y-141466619D01*
X176597380Y-141561857D01*
X176597380Y-141704714D01*
X176549761Y-141799952D01*
X176502142Y-141847571D01*
X176406904Y-141895190D01*
X176025952Y-141895190D01*
X177025952Y-141847571D02*
X177359285Y-141847571D01*
X177502142Y-142371380D02*
X177025952Y-142371380D01*
X177025952Y-141371380D01*
X177502142Y-141371380D01*
X177787857Y-141371380D02*
X178121190Y-142371380D01*
X178454523Y-141371380D01*
X178740238Y-141466619D02*
X178787857Y-141419000D01*
X178883095Y-141371380D01*
X179121190Y-141371380D01*
X179216428Y-141419000D01*
X179264047Y-141466619D01*
X179311666Y-141561857D01*
X179311666Y-141657095D01*
X179264047Y-141799952D01*
X178692619Y-142371380D01*
X179311666Y-142371380D01*
X116082023Y-56838380D02*
X116082023Y-55838380D01*
X116082023Y-56314571D02*
X116653452Y-56314571D01*
X116653452Y-56838380D02*
X116653452Y-55838380D01*
X117510595Y-56790761D02*
X117415357Y-56838380D01*
X117224880Y-56838380D01*
X117129642Y-56790761D01*
X117082023Y-56695523D01*
X117082023Y-56314571D01*
X117129642Y-56219333D01*
X117224880Y-56171714D01*
X117415357Y-56171714D01*
X117510595Y-56219333D01*
X117558214Y-56314571D01*
X117558214Y-56409809D01*
X117082023Y-56505047D01*
X118415357Y-56838380D02*
X118415357Y-56314571D01*
X118367738Y-56219333D01*
X118272500Y-56171714D01*
X118082023Y-56171714D01*
X117986785Y-56219333D01*
X118415357Y-56790761D02*
X118320119Y-56838380D01*
X118082023Y-56838380D01*
X117986785Y-56790761D01*
X117939166Y-56695523D01*
X117939166Y-56600285D01*
X117986785Y-56505047D01*
X118082023Y-56457428D01*
X118320119Y-56457428D01*
X118415357Y-56409809D01*
X118748690Y-56171714D02*
X119129642Y-56171714D01*
X118891547Y-55838380D02*
X118891547Y-56695523D01*
X118939166Y-56790761D01*
X119034404Y-56838380D01*
X119129642Y-56838380D01*
X119843928Y-56790761D02*
X119748690Y-56838380D01*
X119558214Y-56838380D01*
X119462976Y-56790761D01*
X119415357Y-56695523D01*
X119415357Y-56314571D01*
X119462976Y-56219333D01*
X119558214Y-56171714D01*
X119748690Y-56171714D01*
X119843928Y-56219333D01*
X119891547Y-56314571D01*
X119891547Y-56409809D01*
X119415357Y-56505047D01*
X120320119Y-56838380D02*
X120320119Y-56171714D01*
X120320119Y-56362190D02*
X120367738Y-56266952D01*
X120415357Y-56219333D01*
X120510595Y-56171714D01*
X120605833Y-56171714D01*
X117724880Y-57488380D02*
X117915357Y-57488380D01*
X118010595Y-57536000D01*
X118105833Y-57631238D01*
X118153452Y-57821714D01*
X118153452Y-58155047D01*
X118105833Y-58345523D01*
X118010595Y-58440761D01*
X117915357Y-58488380D01*
X117724880Y-58488380D01*
X117629642Y-58440761D01*
X117534404Y-58345523D01*
X117486785Y-58155047D01*
X117486785Y-57821714D01*
X117534404Y-57631238D01*
X117629642Y-57536000D01*
X117724880Y-57488380D01*
X118582023Y-57821714D02*
X118582023Y-58488380D01*
X118582023Y-57916952D02*
X118629642Y-57869333D01*
X118724880Y-57821714D01*
X118867738Y-57821714D01*
X118962976Y-57869333D01*
X119010595Y-57964571D01*
X119010595Y-58488380D01*
D11*
G36*
X164740718Y-80973714D02*
G01*
X165203861Y-80991753D01*
X165564634Y-81019668D01*
X165643500Y-81029592D01*
X165919285Y-81076407D01*
X166065869Y-81130279D01*
X166122745Y-81212969D01*
X166130334Y-81297834D01*
X166129710Y-81439895D01*
X166114995Y-81549751D01*
X166066922Y-81631538D01*
X165966226Y-81689390D01*
X165793640Y-81727441D01*
X165529898Y-81749827D01*
X165155733Y-81760681D01*
X164651879Y-81764139D01*
X163999071Y-81764335D01*
X163956570Y-81764333D01*
X163311438Y-81763630D01*
X162816476Y-81760587D01*
X162452524Y-81753807D01*
X162200419Y-81741891D01*
X162041003Y-81723439D01*
X161955113Y-81697054D01*
X161923589Y-81661335D01*
X161926910Y-81616166D01*
X161984970Y-81410298D01*
X162021544Y-81282048D01*
X162100562Y-81153590D01*
X162274983Y-81072213D01*
X162472762Y-81030957D01*
X162769196Y-80999914D01*
X163189446Y-80978649D01*
X163688274Y-80967181D01*
X164220444Y-80965529D01*
X164740718Y-80973714D01*
X164740718Y-80973714D01*
G37*
X164740718Y-80973714D02*
X165203861Y-80991753D01*
X165564634Y-81019668D01*
X165643500Y-81029592D01*
X165919285Y-81076407D01*
X166065869Y-81130279D01*
X166122745Y-81212969D01*
X166130334Y-81297834D01*
X166129710Y-81439895D01*
X166114995Y-81549751D01*
X166066922Y-81631538D01*
X165966226Y-81689390D01*
X165793640Y-81727441D01*
X165529898Y-81749827D01*
X165155733Y-81760681D01*
X164651879Y-81764139D01*
X163999071Y-81764335D01*
X163956570Y-81764333D01*
X163311438Y-81763630D01*
X162816476Y-81760587D01*
X162452524Y-81753807D01*
X162200419Y-81741891D01*
X162041003Y-81723439D01*
X161955113Y-81697054D01*
X161923589Y-81661335D01*
X161926910Y-81616166D01*
X161984970Y-81410298D01*
X162021544Y-81282048D01*
X162100562Y-81153590D01*
X162274983Y-81072213D01*
X162472762Y-81030957D01*
X162769196Y-80999914D01*
X163189446Y-80978649D01*
X163688274Y-80967181D01*
X164220444Y-80965529D01*
X164740718Y-80973714D01*
G36*
X159728562Y-73506625D02*
G01*
X159944469Y-73620230D01*
X160279469Y-73799911D01*
X160719000Y-74037761D01*
X161248500Y-74325875D01*
X161853406Y-74656349D01*
X162519156Y-75021277D01*
X163231187Y-75412753D01*
X163272496Y-75435499D01*
X166847072Y-77404000D01*
X164816536Y-77457793D01*
X164138693Y-77474150D01*
X163381609Y-77489605D01*
X162560541Y-77504053D01*
X161690744Y-77517391D01*
X160787474Y-77529515D01*
X159865986Y-77540321D01*
X158941537Y-77549707D01*
X158029382Y-77557566D01*
X157144776Y-77563797D01*
X156302975Y-77568294D01*
X155519235Y-77570955D01*
X154808812Y-77571676D01*
X154186961Y-77570352D01*
X153668938Y-77566879D01*
X153269998Y-77561155D01*
X153005397Y-77553075D01*
X152890392Y-77542535D01*
X152887234Y-77538972D01*
X152977201Y-77478600D01*
X153193092Y-77343164D01*
X153517390Y-77143219D01*
X153932575Y-76889318D01*
X154421130Y-76592015D01*
X154965534Y-76261864D01*
X155548270Y-75909420D01*
X156151819Y-75545237D01*
X156758662Y-75179868D01*
X157351281Y-74823868D01*
X157912155Y-74487791D01*
X158423768Y-74182191D01*
X158868600Y-73917621D01*
X159229132Y-73704637D01*
X159487845Y-73553792D01*
X159627222Y-73475640D01*
X159646310Y-73466999D01*
X159728562Y-73506625D01*
X159728562Y-73506625D01*
G37*
X159728562Y-73506625D02*
X159944469Y-73620230D01*
X160279469Y-73799911D01*
X160719000Y-74037761D01*
X161248500Y-74325875D01*
X161853406Y-74656349D01*
X162519156Y-75021277D01*
X163231187Y-75412753D01*
X163272496Y-75435499D01*
X166847072Y-77404000D01*
X164816536Y-77457793D01*
X164138693Y-77474150D01*
X163381609Y-77489605D01*
X162560541Y-77504053D01*
X161690744Y-77517391D01*
X160787474Y-77529515D01*
X159865986Y-77540321D01*
X158941537Y-77549707D01*
X158029382Y-77557566D01*
X157144776Y-77563797D01*
X156302975Y-77568294D01*
X155519235Y-77570955D01*
X154808812Y-77571676D01*
X154186961Y-77570352D01*
X153668938Y-77566879D01*
X153269998Y-77561155D01*
X153005397Y-77553075D01*
X152890392Y-77542535D01*
X152887234Y-77538972D01*
X152977201Y-77478600D01*
X153193092Y-77343164D01*
X153517390Y-77143219D01*
X153932575Y-76889318D01*
X154421130Y-76592015D01*
X154965534Y-76261864D01*
X155548270Y-75909420D01*
X156151819Y-75545237D01*
X156758662Y-75179868D01*
X157351281Y-74823868D01*
X157912155Y-74487791D01*
X158423768Y-74182191D01*
X158868600Y-73917621D01*
X159229132Y-73704637D01*
X159487845Y-73553792D01*
X159627222Y-73475640D01*
X159646310Y-73466999D01*
X159728562Y-73506625D01*
G36*
X167739000Y-84981666D02*
G01*
X152075667Y-84981666D01*
X152075667Y-84304333D01*
X160569613Y-84304333D01*
X160972579Y-84304333D01*
X161217664Y-84296626D01*
X161344905Y-84252986D01*
X161405715Y-84142634D01*
X161432201Y-84029166D01*
X161480654Y-83799888D01*
X161549578Y-83480864D01*
X161612189Y-83195071D01*
X161735521Y-82636142D01*
X163827094Y-82581998D01*
X164429318Y-82564698D01*
X164996288Y-82545216D01*
X165499212Y-82524791D01*
X165909294Y-82504663D01*
X166197740Y-82486069D01*
X166306955Y-82475314D01*
X166695243Y-82422773D01*
X166906245Y-81459642D01*
X167000071Y-81040363D01*
X167053073Y-80757267D01*
X167049699Y-80579101D01*
X166974400Y-80474610D01*
X166811626Y-80412542D01*
X166545826Y-80361642D01*
X166342000Y-80325599D01*
X165457248Y-80212180D01*
X164470976Y-80171790D01*
X163433746Y-80203002D01*
X162396124Y-80304385D01*
X161460107Y-80463545D01*
X161134953Y-80534871D01*
X160936919Y-80595955D01*
X160827398Y-80671311D01*
X160767782Y-80785457D01*
X160728277Y-80928270D01*
X160645005Y-81256333D01*
X160932336Y-81256333D01*
X161124750Y-81262179D01*
X161218022Y-81276496D01*
X161219667Y-81278912D01*
X161202639Y-81364767D01*
X161155326Y-81589571D01*
X161083386Y-81926797D01*
X160992476Y-82349917D01*
X160894640Y-82802912D01*
X160569613Y-84304333D01*
X152075667Y-84304333D01*
X152075667Y-83955793D01*
X153415572Y-83955793D01*
X153419667Y-83984809D01*
X153522641Y-84021428D01*
X153755918Y-84072177D01*
X154081852Y-84129578D01*
X154363876Y-84172411D01*
X154958748Y-84232073D01*
X155663096Y-84263257D01*
X156419580Y-84266567D01*
X157170858Y-84242609D01*
X157859590Y-84191988D01*
X158341000Y-84130428D01*
X158654190Y-84073420D01*
X158900262Y-84018003D01*
X159032791Y-83974843D01*
X159040452Y-83969704D01*
X159074046Y-83876333D01*
X159135558Y-83646504D01*
X159218438Y-83309547D01*
X159316139Y-82894793D01*
X159422113Y-82431574D01*
X159529812Y-81949219D01*
X159632687Y-81477059D01*
X159724192Y-81044426D01*
X159797777Y-80680649D01*
X159846895Y-80415060D01*
X159864998Y-80276989D01*
X159865000Y-80276291D01*
X159805849Y-80194373D01*
X159613196Y-80158665D01*
X159492499Y-80155666D01*
X159119998Y-80155666D01*
X158986358Y-80769500D01*
X158910907Y-81118074D01*
X158814823Y-81564836D01*
X158712593Y-82042325D01*
X158649111Y-82340025D01*
X158566085Y-82720154D01*
X158493360Y-83034724D01*
X158439117Y-83249534D01*
X158412404Y-83329818D01*
X158305552Y-83363028D01*
X158069230Y-83402085D01*
X157743011Y-83442909D01*
X157366466Y-83481419D01*
X156979169Y-83513536D01*
X156620691Y-83535179D01*
X156351334Y-83542333D01*
X156088999Y-83534577D01*
X155750416Y-83513861D01*
X155375527Y-83484010D01*
X155004274Y-83448849D01*
X154676600Y-83412204D01*
X154432445Y-83377901D01*
X154311752Y-83349765D01*
X154306975Y-83346530D01*
X154318797Y-83262762D01*
X154361568Y-83039757D01*
X154429966Y-82703681D01*
X154518668Y-82280700D01*
X154620310Y-81806404D01*
X154725104Y-81319102D01*
X154816392Y-80888825D01*
X154888472Y-80542937D01*
X154935638Y-80308802D01*
X154952183Y-80214527D01*
X154877981Y-80179541D01*
X154686988Y-80167524D01*
X154558703Y-80172194D01*
X154163072Y-80198000D01*
X153762660Y-82060666D01*
X153649721Y-82600036D01*
X153554205Y-83083570D01*
X153480449Y-83486931D01*
X153432792Y-83785784D01*
X153415572Y-83955793D01*
X152075667Y-83955793D01*
X152075667Y-79139666D01*
X167739000Y-79139666D01*
X167739000Y-84981666D01*
X167739000Y-84981666D01*
G37*
X167739000Y-84981666D02*
X152075667Y-84981666D01*
X152075667Y-84304333D01*
X160569613Y-84304333D01*
X160972579Y-84304333D01*
X161217664Y-84296626D01*
X161344905Y-84252986D01*
X161405715Y-84142634D01*
X161432201Y-84029166D01*
X161480654Y-83799888D01*
X161549578Y-83480864D01*
X161612189Y-83195071D01*
X161735521Y-82636142D01*
X163827094Y-82581998D01*
X164429318Y-82564698D01*
X164996288Y-82545216D01*
X165499212Y-82524791D01*
X165909294Y-82504663D01*
X166197740Y-82486069D01*
X166306955Y-82475314D01*
X166695243Y-82422773D01*
X166906245Y-81459642D01*
X167000071Y-81040363D01*
X167053073Y-80757267D01*
X167049699Y-80579101D01*
X166974400Y-80474610D01*
X166811626Y-80412542D01*
X166545826Y-80361642D01*
X166342000Y-80325599D01*
X165457248Y-80212180D01*
X164470976Y-80171790D01*
X163433746Y-80203002D01*
X162396124Y-80304385D01*
X161460107Y-80463545D01*
X161134953Y-80534871D01*
X160936919Y-80595955D01*
X160827398Y-80671311D01*
X160767782Y-80785457D01*
X160728277Y-80928270D01*
X160645005Y-81256333D01*
X160932336Y-81256333D01*
X161124750Y-81262179D01*
X161218022Y-81276496D01*
X161219667Y-81278912D01*
X161202639Y-81364767D01*
X161155326Y-81589571D01*
X161083386Y-81926797D01*
X160992476Y-82349917D01*
X160894640Y-82802912D01*
X160569613Y-84304333D01*
X152075667Y-84304333D01*
X152075667Y-83955793D01*
X153415572Y-83955793D01*
X153419667Y-83984809D01*
X153522641Y-84021428D01*
X153755918Y-84072177D01*
X154081852Y-84129578D01*
X154363876Y-84172411D01*
X154958748Y-84232073D01*
X155663096Y-84263257D01*
X156419580Y-84266567D01*
X157170858Y-84242609D01*
X157859590Y-84191988D01*
X158341000Y-84130428D01*
X158654190Y-84073420D01*
X158900262Y-84018003D01*
X159032791Y-83974843D01*
X159040452Y-83969704D01*
X159074046Y-83876333D01*
X159135558Y-83646504D01*
X159218438Y-83309547D01*
X159316139Y-82894793D01*
X159422113Y-82431574D01*
X159529812Y-81949219D01*
X159632687Y-81477059D01*
X159724192Y-81044426D01*
X159797777Y-80680649D01*
X159846895Y-80415060D01*
X159864998Y-80276989D01*
X159865000Y-80276291D01*
X159805849Y-80194373D01*
X159613196Y-80158665D01*
X159492499Y-80155666D01*
X159119998Y-80155666D01*
X158986358Y-80769500D01*
X158910907Y-81118074D01*
X158814823Y-81564836D01*
X158712593Y-82042325D01*
X158649111Y-82340025D01*
X158566085Y-82720154D01*
X158493360Y-83034724D01*
X158439117Y-83249534D01*
X158412404Y-83329818D01*
X158305552Y-83363028D01*
X158069230Y-83402085D01*
X157743011Y-83442909D01*
X157366466Y-83481419D01*
X156979169Y-83513536D01*
X156620691Y-83535179D01*
X156351334Y-83542333D01*
X156088999Y-83534577D01*
X155750416Y-83513861D01*
X155375527Y-83484010D01*
X155004274Y-83448849D01*
X154676600Y-83412204D01*
X154432445Y-83377901D01*
X154311752Y-83349765D01*
X154306975Y-83346530D01*
X154318797Y-83262762D01*
X154361568Y-83039757D01*
X154429966Y-82703681D01*
X154518668Y-82280700D01*
X154620310Y-81806404D01*
X154725104Y-81319102D01*
X154816392Y-80888825D01*
X154888472Y-80542937D01*
X154935638Y-80308802D01*
X154952183Y-80214527D01*
X154877981Y-80179541D01*
X154686988Y-80167524D01*
X154558703Y-80172194D01*
X154163072Y-80198000D01*
X153762660Y-82060666D01*
X153649721Y-82600036D01*
X153554205Y-83083570D01*
X153480449Y-83486931D01*
X153432792Y-83785784D01*
X153415572Y-83955793D01*
X152075667Y-83955793D01*
X152075667Y-79139666D01*
X167739000Y-79139666D01*
X167739000Y-84981666D01*
G36*
X152672410Y-98176899D02*
G01*
X152500109Y-98135830D01*
X152427528Y-98039319D01*
X152431472Y-97867750D01*
X152488750Y-97601503D01*
X152529927Y-97427667D01*
X152638346Y-96962000D01*
X153309506Y-96951300D01*
X153683495Y-96952937D01*
X154038971Y-96967276D01*
X154303607Y-96991285D01*
X154319333Y-96993634D01*
X154534643Y-97038116D01*
X154624933Y-97108684D01*
X154633670Y-97248343D01*
X154628191Y-97299207D01*
X154579506Y-97560781D01*
X154503259Y-97842493D01*
X154500968Y-97849541D01*
X154403554Y-98147334D01*
X153408943Y-98171187D01*
X152967624Y-98182146D01*
X152672410Y-98176899D01*
X152672410Y-98176899D01*
G37*
X152672410Y-98176899D02*
X152500109Y-98135830D01*
X152427528Y-98039319D01*
X152431472Y-97867750D01*
X152488750Y-97601503D01*
X152529927Y-97427667D01*
X152638346Y-96962000D01*
X153309506Y-96951300D01*
X153683495Y-96952937D01*
X154038971Y-96967276D01*
X154303607Y-96991285D01*
X154319333Y-96993634D01*
X154534643Y-97038116D01*
X154624933Y-97108684D01*
X154633670Y-97248343D01*
X154628191Y-97299207D01*
X154579506Y-97560781D01*
X154503259Y-97842493D01*
X154500968Y-97849541D01*
X154403554Y-98147334D01*
X153408943Y-98171187D01*
X152967624Y-98182146D01*
X152672410Y-98176899D01*
G36*
X156690224Y-98185573D02*
G01*
X156386955Y-98160419D01*
X156172349Y-98121184D01*
X156090172Y-98074537D01*
X156085259Y-97932668D01*
X156119813Y-97690932D01*
X156161475Y-97503037D01*
X156276958Y-97046667D01*
X157249992Y-97022958D01*
X157639247Y-97017691D01*
X157963544Y-97021247D01*
X158187146Y-97032704D01*
X158273154Y-97049377D01*
X158281874Y-97151909D01*
X158254373Y-97360113D01*
X158202570Y-97617316D01*
X158138385Y-97866846D01*
X158073737Y-98052029D01*
X158054474Y-98089132D01*
X157943049Y-98139098D01*
X157708567Y-98173410D01*
X157393374Y-98192383D01*
X157039811Y-98196333D01*
X156690224Y-98185573D01*
X156690224Y-98185573D01*
G37*
X156690224Y-98185573D02*
X156386955Y-98160419D01*
X156172349Y-98121184D01*
X156090172Y-98074537D01*
X156085259Y-97932668D01*
X156119813Y-97690932D01*
X156161475Y-97503037D01*
X156276958Y-97046667D01*
X157249992Y-97022958D01*
X157639247Y-97017691D01*
X157963544Y-97021247D01*
X158187146Y-97032704D01*
X158273154Y-97049377D01*
X158281874Y-97151909D01*
X158254373Y-97360113D01*
X158202570Y-97617316D01*
X158138385Y-97866846D01*
X158073737Y-98052029D01*
X158054474Y-98089132D01*
X157943049Y-98139098D01*
X157708567Y-98173410D01*
X157393374Y-98192383D01*
X157039811Y-98196333D01*
X156690224Y-98185573D01*
G36*
X159239438Y-106193375D02*
G01*
X159023531Y-106079770D01*
X158688531Y-105900089D01*
X158249000Y-105662239D01*
X157719500Y-105374125D01*
X157114594Y-105043651D01*
X156448844Y-104678723D01*
X155736813Y-104287247D01*
X155695504Y-104264501D01*
X152120928Y-102296000D01*
X154151464Y-102242207D01*
X154829307Y-102225850D01*
X155586391Y-102210395D01*
X156407459Y-102195947D01*
X157277256Y-102182609D01*
X158180526Y-102170485D01*
X159102014Y-102159679D01*
X160026463Y-102150293D01*
X160938618Y-102142434D01*
X161823224Y-102136203D01*
X162665025Y-102131706D01*
X163448765Y-102129045D01*
X164159188Y-102128324D01*
X164781039Y-102129648D01*
X165299062Y-102133121D01*
X165698002Y-102138845D01*
X165962603Y-102146925D01*
X166077608Y-102157465D01*
X166080766Y-102161028D01*
X165990799Y-102221400D01*
X165774908Y-102356836D01*
X165450610Y-102556781D01*
X165035425Y-102810682D01*
X164546870Y-103107985D01*
X164002466Y-103438136D01*
X163419730Y-103790580D01*
X162816181Y-104154763D01*
X162209338Y-104520132D01*
X161616719Y-104876132D01*
X161055845Y-105212209D01*
X160544232Y-105517809D01*
X160099400Y-105782379D01*
X159738868Y-105995363D01*
X159480155Y-106146208D01*
X159340778Y-106224360D01*
X159321690Y-106233001D01*
X159239438Y-106193375D01*
X159239438Y-106193375D01*
G37*
X159239438Y-106193375D02*
X159023531Y-106079770D01*
X158688531Y-105900089D01*
X158249000Y-105662239D01*
X157719500Y-105374125D01*
X157114594Y-105043651D01*
X156448844Y-104678723D01*
X155736813Y-104287247D01*
X155695504Y-104264501D01*
X152120928Y-102296000D01*
X154151464Y-102242207D01*
X154829307Y-102225850D01*
X155586391Y-102210395D01*
X156407459Y-102195947D01*
X157277256Y-102182609D01*
X158180526Y-102170485D01*
X159102014Y-102159679D01*
X160026463Y-102150293D01*
X160938618Y-102142434D01*
X161823224Y-102136203D01*
X162665025Y-102131706D01*
X163448765Y-102129045D01*
X164159188Y-102128324D01*
X164781039Y-102129648D01*
X165299062Y-102133121D01*
X165698002Y-102138845D01*
X165962603Y-102146925D01*
X166077608Y-102157465D01*
X166080766Y-102161028D01*
X165990799Y-102221400D01*
X165774908Y-102356836D01*
X165450610Y-102556781D01*
X165035425Y-102810682D01*
X164546870Y-103107985D01*
X164002466Y-103438136D01*
X163419730Y-103790580D01*
X162816181Y-104154763D01*
X162209338Y-104520132D01*
X161616719Y-104876132D01*
X161055845Y-105212209D01*
X160544232Y-105517809D01*
X160099400Y-105782379D01*
X159738868Y-105995363D01*
X159480155Y-106146208D01*
X159340778Y-106224360D01*
X159321690Y-106233001D01*
X159239438Y-106193375D01*
G36*
X151229000Y-94718334D02*
G01*
X166892333Y-94718334D01*
X166892333Y-96581000D01*
X162471862Y-96581000D01*
X162276048Y-96581000D01*
X162182280Y-96595249D01*
X162110473Y-96658171D01*
X162046368Y-96800026D01*
X161975703Y-97051078D01*
X161897000Y-97385334D01*
X161713766Y-98189667D01*
X161295770Y-98189667D01*
X161048698Y-98183442D01*
X160932316Y-98151685D01*
X160908086Y-98074771D01*
X160921660Y-97999167D01*
X160963409Y-97816369D01*
X161027123Y-97535713D01*
X161085097Y-97279500D01*
X161204649Y-96750334D01*
X161006845Y-96750334D01*
X160906500Y-96765740D01*
X160832290Y-96833606D01*
X160767733Y-96986405D01*
X160696345Y-97256612D01*
X160652276Y-97448834D01*
X160495511Y-98147334D01*
X160095589Y-98173139D01*
X159883955Y-98180873D01*
X159756974Y-98151582D01*
X159704684Y-98056333D01*
X159717124Y-97866194D01*
X159784333Y-97552231D01*
X159824360Y-97385334D01*
X159907947Y-97012696D01*
X159940894Y-96774154D01*
X159921729Y-96641768D01*
X159848977Y-96587594D01*
X159781946Y-96581000D01*
X159623664Y-96656341D01*
X159564504Y-96779110D01*
X159562490Y-96787544D01*
X158736851Y-96787544D01*
X158732065Y-96774511D01*
X158591959Y-96717776D01*
X158321154Y-96672195D01*
X157957983Y-96638762D01*
X157540775Y-96618469D01*
X157107861Y-96612309D01*
X156697572Y-96621274D01*
X156348238Y-96646357D01*
X156098190Y-96688550D01*
X156047524Y-96704985D01*
X155988685Y-96778623D01*
X155087616Y-96778623D01*
X155087125Y-96777229D01*
X155032414Y-96716584D01*
X154908244Y-96671657D01*
X154695030Y-96640701D01*
X154373183Y-96621973D01*
X153923118Y-96613728D01*
X153325249Y-96614220D01*
X153262063Y-96614643D01*
X152779452Y-96619943D01*
X152440422Y-96630008D01*
X152219228Y-96648058D01*
X152090125Y-96677310D01*
X152027366Y-96720981D01*
X152007021Y-96771500D01*
X152040128Y-96897442D01*
X152117497Y-96919667D01*
X152218959Y-96973979D01*
X152214398Y-97067834D01*
X152174135Y-97229565D01*
X152114511Y-97490724D01*
X152068220Y-97702834D01*
X151994968Y-97968537D01*
X151914500Y-98143773D01*
X151859585Y-98189667D01*
X151744564Y-98262242D01*
X151665184Y-98431935D01*
X151652333Y-98535259D01*
X151731297Y-98575433D01*
X151946799Y-98601263D01*
X152266759Y-98613921D01*
X152659096Y-98614580D01*
X153091726Y-98604415D01*
X153532570Y-98584597D01*
X153949544Y-98556300D01*
X154310569Y-98520697D01*
X154583561Y-98478962D01*
X154736439Y-98432268D01*
X154750253Y-98421970D01*
X154796009Y-98312106D01*
X154858657Y-98082104D01*
X154928549Y-97779067D01*
X154996039Y-97450098D01*
X155051479Y-97142299D01*
X155085220Y-96902773D01*
X155087616Y-96778623D01*
X155988685Y-96778623D01*
X155955254Y-96820461D01*
X155854553Y-97099145D01*
X155744423Y-97543844D01*
X155736753Y-97579313D01*
X155665299Y-97929422D01*
X155614566Y-98212116D01*
X155590787Y-98390471D01*
X155592706Y-98432929D01*
X155746197Y-98499593D01*
X156029476Y-98548221D01*
X156403983Y-98578989D01*
X156831156Y-98592077D01*
X157272433Y-98587662D01*
X157689253Y-98565923D01*
X158043053Y-98527037D01*
X158295273Y-98471182D01*
X158392890Y-98419999D01*
X158438381Y-98312779D01*
X158500422Y-98089173D01*
X158569811Y-97793816D01*
X158637348Y-97471342D01*
X158693834Y-97166382D01*
X158730068Y-96923572D01*
X158736851Y-96787544D01*
X159562490Y-96787544D01*
X159484629Y-97113518D01*
X159404463Y-97476079D01*
X159331720Y-97828070D01*
X159274114Y-98130771D01*
X159239357Y-98345460D01*
X159234996Y-98433255D01*
X159387335Y-98501595D01*
X159669515Y-98551236D01*
X160043106Y-98582411D01*
X160469678Y-98595351D01*
X160910800Y-98590289D01*
X161328042Y-98567458D01*
X161682974Y-98527091D01*
X161937165Y-98469420D01*
X162037256Y-98416300D01*
X162074084Y-98318158D01*
X162135796Y-98090510D01*
X162213069Y-97769693D01*
X162278997Y-97474212D01*
X162471862Y-96581000D01*
X166892333Y-96581000D01*
X166892333Y-96838504D01*
X166438931Y-96838504D01*
X166432710Y-96770489D01*
X166291801Y-96713665D01*
X166020181Y-96669393D01*
X165656068Y-96638524D01*
X165237682Y-96621911D01*
X164803241Y-96620405D01*
X164390962Y-96634858D01*
X164039064Y-96666123D01*
X163797037Y-96711730D01*
X163733445Y-96737864D01*
X163679269Y-96790591D01*
X163627730Y-96891973D01*
X163572050Y-97064072D01*
X163505450Y-97328950D01*
X163421153Y-97708668D01*
X163312380Y-98225290D01*
X163271426Y-98422500D01*
X163272101Y-98566535D01*
X163387419Y-98611722D01*
X163436087Y-98613000D01*
X163536244Y-98600146D01*
X163609015Y-98540335D01*
X163669795Y-98401692D01*
X163733977Y-98152343D01*
X163793886Y-97872167D01*
X163872727Y-97534736D01*
X163952882Y-97262475D01*
X164021359Y-97097083D01*
X164044095Y-97069130D01*
X164172961Y-97040252D01*
X164424697Y-97020622D01*
X164753090Y-97010213D01*
X165111931Y-97008996D01*
X165455010Y-97016943D01*
X165736115Y-97034026D01*
X165909037Y-97060216D01*
X165933624Y-97070290D01*
X165975516Y-97149943D01*
X165970431Y-97324507D01*
X165916175Y-97620743D01*
X165873016Y-97809827D01*
X165785766Y-98179112D01*
X165736590Y-98413616D01*
X165726683Y-98543823D01*
X165757242Y-98600222D01*
X165829463Y-98613298D01*
X165904533Y-98613000D01*
X165994487Y-98600685D01*
X166063513Y-98544466D01*
X166124155Y-98415438D01*
X166188958Y-98184694D01*
X166270467Y-97823327D01*
X166293150Y-97717506D01*
X166366397Y-97348752D01*
X166416767Y-97043697D01*
X166438931Y-96838504D01*
X166892333Y-96838504D01*
X166892333Y-100560334D01*
X151229000Y-100560334D01*
X151229000Y-94718334D01*
X151229000Y-94718334D01*
G37*
X151229000Y-94718334D02*
X166892333Y-94718334D01*
X166892333Y-96581000D01*
X162471862Y-96581000D01*
X162276048Y-96581000D01*
X162182280Y-96595249D01*
X162110473Y-96658171D01*
X162046368Y-96800026D01*
X161975703Y-97051078D01*
X161897000Y-97385334D01*
X161713766Y-98189667D01*
X161295770Y-98189667D01*
X161048698Y-98183442D01*
X160932316Y-98151685D01*
X160908086Y-98074771D01*
X160921660Y-97999167D01*
X160963409Y-97816369D01*
X161027123Y-97535713D01*
X161085097Y-97279500D01*
X161204649Y-96750334D01*
X161006845Y-96750334D01*
X160906500Y-96765740D01*
X160832290Y-96833606D01*
X160767733Y-96986405D01*
X160696345Y-97256612D01*
X160652276Y-97448834D01*
X160495511Y-98147334D01*
X160095589Y-98173139D01*
X159883955Y-98180873D01*
X159756974Y-98151582D01*
X159704684Y-98056333D01*
X159717124Y-97866194D01*
X159784333Y-97552231D01*
X159824360Y-97385334D01*
X159907947Y-97012696D01*
X159940894Y-96774154D01*
X159921729Y-96641768D01*
X159848977Y-96587594D01*
X159781946Y-96581000D01*
X159623664Y-96656341D01*
X159564504Y-96779110D01*
X159562490Y-96787544D01*
X158736851Y-96787544D01*
X158732065Y-96774511D01*
X158591959Y-96717776D01*
X158321154Y-96672195D01*
X157957983Y-96638762D01*
X157540775Y-96618469D01*
X157107861Y-96612309D01*
X156697572Y-96621274D01*
X156348238Y-96646357D01*
X156098190Y-96688550D01*
X156047524Y-96704985D01*
X155988685Y-96778623D01*
X155087616Y-96778623D01*
X155087125Y-96777229D01*
X155032414Y-96716584D01*
X154908244Y-96671657D01*
X154695030Y-96640701D01*
X154373183Y-96621973D01*
X153923118Y-96613728D01*
X153325249Y-96614220D01*
X153262063Y-96614643D01*
X152779452Y-96619943D01*
X152440422Y-96630008D01*
X152219228Y-96648058D01*
X152090125Y-96677310D01*
X152027366Y-96720981D01*
X152007021Y-96771500D01*
X152040128Y-96897442D01*
X152117497Y-96919667D01*
X152218959Y-96973979D01*
X152214398Y-97067834D01*
X152174135Y-97229565D01*
X152114511Y-97490724D01*
X152068220Y-97702834D01*
X151994968Y-97968537D01*
X151914500Y-98143773D01*
X151859585Y-98189667D01*
X151744564Y-98262242D01*
X151665184Y-98431935D01*
X151652333Y-98535259D01*
X151731297Y-98575433D01*
X151946799Y-98601263D01*
X152266759Y-98613921D01*
X152659096Y-98614580D01*
X153091726Y-98604415D01*
X153532570Y-98584597D01*
X153949544Y-98556300D01*
X154310569Y-98520697D01*
X154583561Y-98478962D01*
X154736439Y-98432268D01*
X154750253Y-98421970D01*
X154796009Y-98312106D01*
X154858657Y-98082104D01*
X154928549Y-97779067D01*
X154996039Y-97450098D01*
X155051479Y-97142299D01*
X155085220Y-96902773D01*
X155087616Y-96778623D01*
X155988685Y-96778623D01*
X155955254Y-96820461D01*
X155854553Y-97099145D01*
X155744423Y-97543844D01*
X155736753Y-97579313D01*
X155665299Y-97929422D01*
X155614566Y-98212116D01*
X155590787Y-98390471D01*
X155592706Y-98432929D01*
X155746197Y-98499593D01*
X156029476Y-98548221D01*
X156403983Y-98578989D01*
X156831156Y-98592077D01*
X157272433Y-98587662D01*
X157689253Y-98565923D01*
X158043053Y-98527037D01*
X158295273Y-98471182D01*
X158392890Y-98419999D01*
X158438381Y-98312779D01*
X158500422Y-98089173D01*
X158569811Y-97793816D01*
X158637348Y-97471342D01*
X158693834Y-97166382D01*
X158730068Y-96923572D01*
X158736851Y-96787544D01*
X159562490Y-96787544D01*
X159484629Y-97113518D01*
X159404463Y-97476079D01*
X159331720Y-97828070D01*
X159274114Y-98130771D01*
X159239357Y-98345460D01*
X159234996Y-98433255D01*
X159387335Y-98501595D01*
X159669515Y-98551236D01*
X160043106Y-98582411D01*
X160469678Y-98595351D01*
X160910800Y-98590289D01*
X161328042Y-98567458D01*
X161682974Y-98527091D01*
X161937165Y-98469420D01*
X162037256Y-98416300D01*
X162074084Y-98318158D01*
X162135796Y-98090510D01*
X162213069Y-97769693D01*
X162278997Y-97474212D01*
X162471862Y-96581000D01*
X166892333Y-96581000D01*
X166892333Y-96838504D01*
X166438931Y-96838504D01*
X166432710Y-96770489D01*
X166291801Y-96713665D01*
X166020181Y-96669393D01*
X165656068Y-96638524D01*
X165237682Y-96621911D01*
X164803241Y-96620405D01*
X164390962Y-96634858D01*
X164039064Y-96666123D01*
X163797037Y-96711730D01*
X163733445Y-96737864D01*
X163679269Y-96790591D01*
X163627730Y-96891973D01*
X163572050Y-97064072D01*
X163505450Y-97328950D01*
X163421153Y-97708668D01*
X163312380Y-98225290D01*
X163271426Y-98422500D01*
X163272101Y-98566535D01*
X163387419Y-98611722D01*
X163436087Y-98613000D01*
X163536244Y-98600146D01*
X163609015Y-98540335D01*
X163669795Y-98401692D01*
X163733977Y-98152343D01*
X163793886Y-97872167D01*
X163872727Y-97534736D01*
X163952882Y-97262475D01*
X164021359Y-97097083D01*
X164044095Y-97069130D01*
X164172961Y-97040252D01*
X164424697Y-97020622D01*
X164753090Y-97010213D01*
X165111931Y-97008996D01*
X165455010Y-97016943D01*
X165736115Y-97034026D01*
X165909037Y-97060216D01*
X165933624Y-97070290D01*
X165975516Y-97149943D01*
X165970431Y-97324507D01*
X165916175Y-97620743D01*
X165873016Y-97809827D01*
X165785766Y-98179112D01*
X165736590Y-98413616D01*
X165726683Y-98543823D01*
X165757242Y-98600222D01*
X165829463Y-98613298D01*
X165904533Y-98613000D01*
X165994487Y-98600685D01*
X166063513Y-98544466D01*
X166124155Y-98415438D01*
X166188958Y-98184694D01*
X166270467Y-97823327D01*
X166293150Y-97717506D01*
X166366397Y-97348752D01*
X166416767Y-97043697D01*
X166438931Y-96838504D01*
X166892333Y-96838504D01*
X166892333Y-100560334D01*
X151229000Y-100560334D01*
X151229000Y-94718334D01*
G36*
X146877953Y-83904178D02*
G01*
X146953333Y-83906976D01*
X147449625Y-83936335D01*
X147945489Y-83979099D01*
X148408788Y-84031079D01*
X148807384Y-84088086D01*
X149109142Y-84145933D01*
X149281924Y-84200429D01*
X149301149Y-84212992D01*
X149311939Y-84311001D01*
X149288903Y-84503613D01*
X149244825Y-84722638D01*
X149192489Y-84899887D01*
X149161256Y-84959165D01*
X149075999Y-84953450D01*
X148868457Y-84919805D01*
X148582017Y-84865331D01*
X148556278Y-84860142D01*
X148140401Y-84790741D01*
X147680210Y-84735797D01*
X147382404Y-84713310D01*
X146795476Y-84685333D01*
X146432627Y-86336333D01*
X146321977Y-86840220D01*
X146224663Y-87284178D01*
X146146194Y-87643006D01*
X146092080Y-87891505D01*
X146067829Y-88004472D01*
X146067056Y-88008500D01*
X145989424Y-88033678D01*
X145809598Y-88035955D01*
X145592390Y-88020385D01*
X145402616Y-87992020D01*
X145305090Y-87955915D01*
X145302333Y-87948875D01*
X145319743Y-87844080D01*
X145368155Y-87601420D01*
X145441846Y-87248329D01*
X145535088Y-86812245D01*
X145641000Y-86325884D01*
X145747861Y-85835820D01*
X145840867Y-85402711D01*
X145914309Y-85053686D01*
X145962478Y-84815875D01*
X145979666Y-84716527D01*
X145900983Y-84687334D01*
X145684071Y-84684262D01*
X145357636Y-84705032D01*
X144950382Y-84747363D01*
X144491015Y-84808975D01*
X144162643Y-84860870D01*
X143849424Y-84911340D01*
X143610993Y-84945617D01*
X143487405Y-84958085D01*
X143478723Y-84956754D01*
X143478286Y-84832053D01*
X143530361Y-84624811D01*
X143611398Y-84402913D01*
X143697845Y-84234242D01*
X143746458Y-84185036D01*
X143995262Y-84119842D01*
X144374719Y-84057415D01*
X144846146Y-84001109D01*
X145370864Y-83954279D01*
X145910191Y-83920278D01*
X146425448Y-83902459D01*
X146877953Y-83904178D01*
X146877953Y-83904178D01*
G37*
X146877953Y-83904178D02*
X146953333Y-83906976D01*
X147449625Y-83936335D01*
X147945489Y-83979099D01*
X148408788Y-84031079D01*
X148807384Y-84088086D01*
X149109142Y-84145933D01*
X149281924Y-84200429D01*
X149301149Y-84212992D01*
X149311939Y-84311001D01*
X149288903Y-84503613D01*
X149244825Y-84722638D01*
X149192489Y-84899887D01*
X149161256Y-84959165D01*
X149075999Y-84953450D01*
X148868457Y-84919805D01*
X148582017Y-84865331D01*
X148556278Y-84860142D01*
X148140401Y-84790741D01*
X147680210Y-84735797D01*
X147382404Y-84713310D01*
X146795476Y-84685333D01*
X146432627Y-86336333D01*
X146321977Y-86840220D01*
X146224663Y-87284178D01*
X146146194Y-87643006D01*
X146092080Y-87891505D01*
X146067829Y-88004472D01*
X146067056Y-88008500D01*
X145989424Y-88033678D01*
X145809598Y-88035955D01*
X145592390Y-88020385D01*
X145402616Y-87992020D01*
X145305090Y-87955915D01*
X145302333Y-87948875D01*
X145319743Y-87844080D01*
X145368155Y-87601420D01*
X145441846Y-87248329D01*
X145535088Y-86812245D01*
X145641000Y-86325884D01*
X145747861Y-85835820D01*
X145840867Y-85402711D01*
X145914309Y-85053686D01*
X145962478Y-84815875D01*
X145979666Y-84716527D01*
X145900983Y-84687334D01*
X145684071Y-84684262D01*
X145357636Y-84705032D01*
X144950382Y-84747363D01*
X144491015Y-84808975D01*
X144162643Y-84860870D01*
X143849424Y-84911340D01*
X143610993Y-84945617D01*
X143487405Y-84958085D01*
X143478723Y-84956754D01*
X143478286Y-84832053D01*
X143530361Y-84624811D01*
X143611398Y-84402913D01*
X143697845Y-84234242D01*
X143746458Y-84185036D01*
X143995262Y-84119842D01*
X144374719Y-84057415D01*
X144846146Y-84001109D01*
X145370864Y-83954279D01*
X145910191Y-83920278D01*
X146425448Y-83902459D01*
X146877953Y-83904178D01*
G36*
X139968333Y-83925464D02*
G01*
X140782982Y-83944201D01*
X141514510Y-83995808D01*
X142134445Y-84077509D01*
X142600131Y-84182258D01*
X142641938Y-84212986D01*
X142662077Y-84288233D01*
X142657807Y-84428767D01*
X142626390Y-84655356D01*
X142565086Y-84988769D01*
X142471155Y-85449773D01*
X142369753Y-85928728D01*
X142256996Y-86444976D01*
X142151955Y-86904200D01*
X142060872Y-87280804D01*
X141989993Y-87549194D01*
X141945558Y-87683774D01*
X141939289Y-87693534D01*
X141802861Y-87745417D01*
X141528218Y-87798892D01*
X141146433Y-87851606D01*
X140688578Y-87901208D01*
X140185725Y-87945347D01*
X139668949Y-87981672D01*
X139169320Y-88007831D01*
X138717912Y-88021473D01*
X138345797Y-88020246D01*
X138084047Y-88001800D01*
X138021000Y-87990041D01*
X137884494Y-87965416D01*
X137625122Y-87926004D01*
X137287981Y-87878509D01*
X137107990Y-87854308D01*
X136763338Y-87804026D01*
X136488514Y-87755112D01*
X136322268Y-87714913D01*
X136291324Y-87699482D01*
X136298959Y-87605040D01*
X136338017Y-87375832D01*
X136396991Y-87068331D01*
X137201280Y-87068331D01*
X137286165Y-87086276D01*
X137495152Y-87119540D01*
X137784478Y-87161192D01*
X137809333Y-87164617D01*
X138666017Y-87240399D01*
X139581586Y-87249039D01*
X140459271Y-87190071D01*
X140561350Y-87177941D01*
X140892185Y-87128677D01*
X141154163Y-87075087D01*
X141305120Y-87026359D01*
X141324210Y-87011708D01*
X141362743Y-86895896D01*
X141420332Y-86659951D01*
X141489464Y-86342477D01*
X141562626Y-85982076D01*
X141632305Y-85617352D01*
X141690987Y-85286908D01*
X141731159Y-85029347D01*
X141745307Y-84883272D01*
X141742068Y-84864774D01*
X141629723Y-84826325D01*
X141388735Y-84782642D01*
X141059509Y-84738266D01*
X140682454Y-84697742D01*
X140297976Y-84665611D01*
X139946482Y-84646417D01*
X139769485Y-84643000D01*
X139461975Y-84651559D01*
X139092422Y-84674515D01*
X138700138Y-84707785D01*
X138324436Y-84747286D01*
X138004629Y-84788936D01*
X137780028Y-84828651D01*
X137692394Y-84858716D01*
X137663327Y-84947755D01*
X137608581Y-85163043D01*
X137536463Y-85467213D01*
X137455276Y-85822902D01*
X137373325Y-86192745D01*
X137298916Y-86539376D01*
X137240352Y-86825432D01*
X137205940Y-87013548D01*
X137201280Y-87068331D01*
X136396991Y-87068331D01*
X136402016Y-87042130D01*
X136484476Y-86634204D01*
X136578915Y-86182326D01*
X136678853Y-85716766D01*
X136777808Y-85267796D01*
X136869299Y-84865686D01*
X136946846Y-84540707D01*
X137003966Y-84323131D01*
X137030550Y-84246821D01*
X137152174Y-84179807D01*
X137416120Y-84114904D01*
X137795376Y-84055065D01*
X138262933Y-84003247D01*
X138791780Y-83962402D01*
X139354907Y-83935486D01*
X139925305Y-83925453D01*
X139968333Y-83925464D01*
X139968333Y-83925464D01*
G37*
X139968333Y-83925464D02*
X140782982Y-83944201D01*
X141514510Y-83995808D01*
X142134445Y-84077509D01*
X142600131Y-84182258D01*
X142641938Y-84212986D01*
X142662077Y-84288233D01*
X142657807Y-84428767D01*
X142626390Y-84655356D01*
X142565086Y-84988769D01*
X142471155Y-85449773D01*
X142369753Y-85928728D01*
X142256996Y-86444976D01*
X142151955Y-86904200D01*
X142060872Y-87280804D01*
X141989993Y-87549194D01*
X141945558Y-87683774D01*
X141939289Y-87693534D01*
X141802861Y-87745417D01*
X141528218Y-87798892D01*
X141146433Y-87851606D01*
X140688578Y-87901208D01*
X140185725Y-87945347D01*
X139668949Y-87981672D01*
X139169320Y-88007831D01*
X138717912Y-88021473D01*
X138345797Y-88020246D01*
X138084047Y-88001800D01*
X138021000Y-87990041D01*
X137884494Y-87965416D01*
X137625122Y-87926004D01*
X137287981Y-87878509D01*
X137107990Y-87854308D01*
X136763338Y-87804026D01*
X136488514Y-87755112D01*
X136322268Y-87714913D01*
X136291324Y-87699482D01*
X136298959Y-87605040D01*
X136338017Y-87375832D01*
X136396991Y-87068331D01*
X137201280Y-87068331D01*
X137286165Y-87086276D01*
X137495152Y-87119540D01*
X137784478Y-87161192D01*
X137809333Y-87164617D01*
X138666017Y-87240399D01*
X139581586Y-87249039D01*
X140459271Y-87190071D01*
X140561350Y-87177941D01*
X140892185Y-87128677D01*
X141154163Y-87075087D01*
X141305120Y-87026359D01*
X141324210Y-87011708D01*
X141362743Y-86895896D01*
X141420332Y-86659951D01*
X141489464Y-86342477D01*
X141562626Y-85982076D01*
X141632305Y-85617352D01*
X141690987Y-85286908D01*
X141731159Y-85029347D01*
X141745307Y-84883272D01*
X141742068Y-84864774D01*
X141629723Y-84826325D01*
X141388735Y-84782642D01*
X141059509Y-84738266D01*
X140682454Y-84697742D01*
X140297976Y-84665611D01*
X139946482Y-84646417D01*
X139769485Y-84643000D01*
X139461975Y-84651559D01*
X139092422Y-84674515D01*
X138700138Y-84707785D01*
X138324436Y-84747286D01*
X138004629Y-84788936D01*
X137780028Y-84828651D01*
X137692394Y-84858716D01*
X137663327Y-84947755D01*
X137608581Y-85163043D01*
X137536463Y-85467213D01*
X137455276Y-85822902D01*
X137373325Y-86192745D01*
X137298916Y-86539376D01*
X137240352Y-86825432D01*
X137205940Y-87013548D01*
X137201280Y-87068331D01*
X136396991Y-87068331D01*
X136402016Y-87042130D01*
X136484476Y-86634204D01*
X136578915Y-86182326D01*
X136678853Y-85716766D01*
X136777808Y-85267796D01*
X136869299Y-84865686D01*
X136946846Y-84540707D01*
X137003966Y-84323131D01*
X137030550Y-84246821D01*
X137152174Y-84179807D01*
X137416120Y-84114904D01*
X137795376Y-84055065D01*
X138262933Y-84003247D01*
X138791780Y-83962402D01*
X139354907Y-83935486D01*
X139925305Y-83925453D01*
X139968333Y-83925464D01*
G36*
X133845490Y-83903973D02*
G01*
X133954410Y-83971210D01*
X133957000Y-83987615D01*
X133940169Y-84090622D01*
X133893642Y-84330730D01*
X133823369Y-84679502D01*
X133735296Y-85108500D01*
X133635373Y-85589287D01*
X133529547Y-86093424D01*
X133423768Y-86592475D01*
X133323983Y-87058002D01*
X133236142Y-87461566D01*
X133166192Y-87774730D01*
X133151360Y-87839167D01*
X133098143Y-87959303D01*
X132979341Y-88015295D01*
X132744928Y-88029639D01*
X132727720Y-88029667D01*
X132463131Y-88007205D01*
X132352476Y-87941465D01*
X132349584Y-87923833D01*
X132357920Y-87844243D01*
X132384962Y-87696084D01*
X132435647Y-87456123D01*
X132514911Y-87101121D01*
X132627688Y-86607845D01*
X132646340Y-86526833D01*
X132690226Y-86336333D01*
X128552364Y-86336333D01*
X128456143Y-86780833D01*
X128379461Y-87134984D01*
X128299746Y-87503024D01*
X128272778Y-87627500D01*
X128185635Y-88029667D01*
X127372461Y-88029667D01*
X127612174Y-86907833D01*
X127725091Y-86379320D01*
X127848369Y-85802194D01*
X127966024Y-85251295D01*
X128050712Y-84854667D01*
X128249538Y-83923333D01*
X128647935Y-83897528D01*
X128880684Y-83896189D01*
X129024184Y-83921825D01*
X129046333Y-83944150D01*
X129029270Y-84054687D01*
X128983680Y-84288246D01*
X128917961Y-84602591D01*
X128886405Y-84748417D01*
X128820053Y-85079750D01*
X128778400Y-85344421D01*
X128767281Y-85502175D01*
X128773517Y-85527295D01*
X128867926Y-85540502D01*
X129107678Y-85552277D01*
X129468785Y-85562071D01*
X129927261Y-85569335D01*
X130459116Y-85573522D01*
X130831717Y-85574333D01*
X132842878Y-85574333D01*
X132899534Y-85299167D01*
X132947648Y-85071586D01*
X133016602Y-84752583D01*
X133082381Y-84452500D01*
X133208572Y-83881000D01*
X133582786Y-83881000D01*
X133845490Y-83903973D01*
X133845490Y-83903973D01*
G37*
X133845490Y-83903973D02*
X133954410Y-83971210D01*
X133957000Y-83987615D01*
X133940169Y-84090622D01*
X133893642Y-84330730D01*
X133823369Y-84679502D01*
X133735296Y-85108500D01*
X133635373Y-85589287D01*
X133529547Y-86093424D01*
X133423768Y-86592475D01*
X133323983Y-87058002D01*
X133236142Y-87461566D01*
X133166192Y-87774730D01*
X133151360Y-87839167D01*
X133098143Y-87959303D01*
X132979341Y-88015295D01*
X132744928Y-88029639D01*
X132727720Y-88029667D01*
X132463131Y-88007205D01*
X132352476Y-87941465D01*
X132349584Y-87923833D01*
X132357920Y-87844243D01*
X132384962Y-87696084D01*
X132435647Y-87456123D01*
X132514911Y-87101121D01*
X132627688Y-86607845D01*
X132646340Y-86526833D01*
X132690226Y-86336333D01*
X128552364Y-86336333D01*
X128456143Y-86780833D01*
X128379461Y-87134984D01*
X128299746Y-87503024D01*
X128272778Y-87627500D01*
X128185635Y-88029667D01*
X127372461Y-88029667D01*
X127612174Y-86907833D01*
X127725091Y-86379320D01*
X127848369Y-85802194D01*
X127966024Y-85251295D01*
X128050712Y-84854667D01*
X128249538Y-83923333D01*
X128647935Y-83897528D01*
X128880684Y-83896189D01*
X129024184Y-83921825D01*
X129046333Y-83944150D01*
X129029270Y-84054687D01*
X128983680Y-84288246D01*
X128917961Y-84602591D01*
X128886405Y-84748417D01*
X128820053Y-85079750D01*
X128778400Y-85344421D01*
X128767281Y-85502175D01*
X128773517Y-85527295D01*
X128867926Y-85540502D01*
X129107678Y-85552277D01*
X129468785Y-85562071D01*
X129927261Y-85569335D01*
X130459116Y-85573522D01*
X130831717Y-85574333D01*
X132842878Y-85574333D01*
X132899534Y-85299167D01*
X132947648Y-85071586D01*
X133016602Y-84752583D01*
X133082381Y-84452500D01*
X133208572Y-83881000D01*
X133582786Y-83881000D01*
X133845490Y-83903973D01*
G36*
X139375666Y-92138131D02*
G01*
X140190316Y-92156868D01*
X140921843Y-92208475D01*
X141541778Y-92290176D01*
X142007464Y-92394924D01*
X142049271Y-92425652D01*
X142069410Y-92500899D01*
X142065141Y-92641433D01*
X142033724Y-92868023D01*
X141972419Y-93201435D01*
X141878488Y-93662440D01*
X141777087Y-94141395D01*
X141664329Y-94657643D01*
X141559288Y-95116867D01*
X141468206Y-95493471D01*
X141397326Y-95761860D01*
X141352891Y-95896441D01*
X141346622Y-95906201D01*
X141210194Y-95958084D01*
X140935551Y-96011559D01*
X140553766Y-96064273D01*
X140095911Y-96113875D01*
X139593059Y-96158014D01*
X139076282Y-96194339D01*
X138576653Y-96220498D01*
X138125245Y-96234140D01*
X137753130Y-96232913D01*
X137491381Y-96214466D01*
X137428333Y-96202708D01*
X137291827Y-96178083D01*
X137032455Y-96138671D01*
X136695314Y-96091175D01*
X136515323Y-96066975D01*
X136170671Y-96016692D01*
X135895847Y-95967778D01*
X135729602Y-95927580D01*
X135698658Y-95912148D01*
X135706292Y-95817706D01*
X135745350Y-95588499D01*
X135804324Y-95280997D01*
X136608613Y-95280997D01*
X136693499Y-95298942D01*
X136902486Y-95332206D01*
X137191812Y-95373859D01*
X137216666Y-95377284D01*
X138073350Y-95453066D01*
X138988919Y-95461706D01*
X139866604Y-95402737D01*
X139968684Y-95390608D01*
X140299518Y-95341344D01*
X140561496Y-95287754D01*
X140712454Y-95239026D01*
X140731544Y-95224374D01*
X140770076Y-95108562D01*
X140827665Y-94872618D01*
X140896797Y-94555144D01*
X140969960Y-94194743D01*
X141039638Y-93830019D01*
X141098320Y-93499575D01*
X141138492Y-93242013D01*
X141152640Y-93095939D01*
X141149401Y-93077440D01*
X141037056Y-93038992D01*
X140796068Y-92995309D01*
X140466843Y-92950933D01*
X140089787Y-92910409D01*
X139705309Y-92878278D01*
X139353816Y-92859084D01*
X139176819Y-92855667D01*
X138869308Y-92864226D01*
X138499755Y-92887182D01*
X138107471Y-92920452D01*
X137731770Y-92959953D01*
X137411962Y-93001602D01*
X137187362Y-93041317D01*
X137099728Y-93071383D01*
X137070660Y-93160422D01*
X137015915Y-93375709D01*
X136943796Y-93679880D01*
X136862609Y-94035569D01*
X136780658Y-94405411D01*
X136706249Y-94752043D01*
X136647686Y-95038099D01*
X136613273Y-95226214D01*
X136608613Y-95280997D01*
X135804324Y-95280997D01*
X135809349Y-95254797D01*
X135891809Y-94846871D01*
X135986249Y-94394993D01*
X136086187Y-93929433D01*
X136185142Y-93480462D01*
X136276633Y-93078352D01*
X136354179Y-92753374D01*
X136411299Y-92535797D01*
X136437884Y-92459488D01*
X136559508Y-92392474D01*
X136823453Y-92327571D01*
X137202709Y-92267732D01*
X137670266Y-92215913D01*
X138199113Y-92175068D01*
X138762241Y-92148152D01*
X139332638Y-92138119D01*
X139375666Y-92138131D01*
X139375666Y-92138131D01*
G37*
X139375666Y-92138131D02*
X140190316Y-92156868D01*
X140921843Y-92208475D01*
X141541778Y-92290176D01*
X142007464Y-92394924D01*
X142049271Y-92425652D01*
X142069410Y-92500899D01*
X142065141Y-92641433D01*
X142033724Y-92868023D01*
X141972419Y-93201435D01*
X141878488Y-93662440D01*
X141777087Y-94141395D01*
X141664329Y-94657643D01*
X141559288Y-95116867D01*
X141468206Y-95493471D01*
X141397326Y-95761860D01*
X141352891Y-95896441D01*
X141346622Y-95906201D01*
X141210194Y-95958084D01*
X140935551Y-96011559D01*
X140553766Y-96064273D01*
X140095911Y-96113875D01*
X139593059Y-96158014D01*
X139076282Y-96194339D01*
X138576653Y-96220498D01*
X138125245Y-96234140D01*
X137753130Y-96232913D01*
X137491381Y-96214466D01*
X137428333Y-96202708D01*
X137291827Y-96178083D01*
X137032455Y-96138671D01*
X136695314Y-96091175D01*
X136515323Y-96066975D01*
X136170671Y-96016692D01*
X135895847Y-95967778D01*
X135729602Y-95927580D01*
X135698658Y-95912148D01*
X135706292Y-95817706D01*
X135745350Y-95588499D01*
X135804324Y-95280997D01*
X136608613Y-95280997D01*
X136693499Y-95298942D01*
X136902486Y-95332206D01*
X137191812Y-95373859D01*
X137216666Y-95377284D01*
X138073350Y-95453066D01*
X138988919Y-95461706D01*
X139866604Y-95402737D01*
X139968684Y-95390608D01*
X140299518Y-95341344D01*
X140561496Y-95287754D01*
X140712454Y-95239026D01*
X140731544Y-95224374D01*
X140770076Y-95108562D01*
X140827665Y-94872618D01*
X140896797Y-94555144D01*
X140969960Y-94194743D01*
X141039638Y-93830019D01*
X141098320Y-93499575D01*
X141138492Y-93242013D01*
X141152640Y-93095939D01*
X141149401Y-93077440D01*
X141037056Y-93038992D01*
X140796068Y-92995309D01*
X140466843Y-92950933D01*
X140089787Y-92910409D01*
X139705309Y-92878278D01*
X139353816Y-92859084D01*
X139176819Y-92855667D01*
X138869308Y-92864226D01*
X138499755Y-92887182D01*
X138107471Y-92920452D01*
X137731770Y-92959953D01*
X137411962Y-93001602D01*
X137187362Y-93041317D01*
X137099728Y-93071383D01*
X137070660Y-93160422D01*
X137015915Y-93375709D01*
X136943796Y-93679880D01*
X136862609Y-94035569D01*
X136780658Y-94405411D01*
X136706249Y-94752043D01*
X136647686Y-95038099D01*
X136613273Y-95226214D01*
X136608613Y-95280997D01*
X135804324Y-95280997D01*
X135809349Y-95254797D01*
X135891809Y-94846871D01*
X135986249Y-94394993D01*
X136086187Y-93929433D01*
X136185142Y-93480462D01*
X136276633Y-93078352D01*
X136354179Y-92753374D01*
X136411299Y-92535797D01*
X136437884Y-92459488D01*
X136559508Y-92392474D01*
X136823453Y-92327571D01*
X137202709Y-92267732D01*
X137670266Y-92215913D01*
X138199113Y-92175068D01*
X138762241Y-92148152D01*
X139332638Y-92138119D01*
X139375666Y-92138131D01*
G36*
X132221074Y-92106933D02*
G01*
X132825728Y-92116900D01*
X133377967Y-92134327D01*
X133853765Y-92158839D01*
X134229098Y-92190063D01*
X134479939Y-92227626D01*
X134577886Y-92264831D01*
X134578878Y-92360706D01*
X134547858Y-92577290D01*
X134494005Y-92871045D01*
X134426498Y-93198434D01*
X134354516Y-93515917D01*
X134287236Y-93779957D01*
X134233838Y-93947016D01*
X134216437Y-93979338D01*
X134102546Y-94033045D01*
X133886036Y-94091599D01*
X133781595Y-94112585D01*
X133406666Y-94180494D01*
X133766500Y-94245189D01*
X133942939Y-94282915D01*
X134055307Y-94339873D01*
X134108891Y-94445129D01*
X134108981Y-94627751D01*
X134060865Y-94916805D01*
X133969832Y-95341358D01*
X133967703Y-95351010D01*
X133890906Y-95684635D01*
X133826966Y-95889536D01*
X133753986Y-96002717D01*
X133650063Y-96061180D01*
X133528056Y-96093858D01*
X133325872Y-96120933D01*
X132984204Y-96144732D01*
X132532877Y-96164873D01*
X132001716Y-96180972D01*
X131420547Y-96192646D01*
X130819195Y-96199514D01*
X130227483Y-96201192D01*
X129675238Y-96197296D01*
X129192284Y-96187446D01*
X128808446Y-96171256D01*
X128623000Y-96156821D01*
X128121969Y-96101482D01*
X127768956Y-96052813D01*
X127543027Y-96006096D01*
X127423250Y-95956612D01*
X127388692Y-95899644D01*
X127392113Y-95879386D01*
X127433135Y-95722625D01*
X127473135Y-95549437D01*
X127554260Y-95387048D01*
X128771576Y-95387048D01*
X129311121Y-95423581D01*
X129596934Y-95435377D01*
X129982008Y-95440592D01*
X130437006Y-95439952D01*
X130932593Y-95434183D01*
X131439431Y-95424012D01*
X131928183Y-95410166D01*
X132369515Y-95393371D01*
X132734088Y-95374353D01*
X132992568Y-95353840D01*
X133115616Y-95332559D01*
X133120693Y-95329224D01*
X133187776Y-95205610D01*
X133231129Y-95085706D01*
X133245429Y-94988947D01*
X133197611Y-94918640D01*
X133056604Y-94856466D01*
X132791338Y-94784105D01*
X132669145Y-94754365D01*
X132370788Y-94699503D01*
X131979163Y-94651969D01*
X131522547Y-94612573D01*
X131029221Y-94582125D01*
X130527462Y-94561435D01*
X130045550Y-94551314D01*
X129611762Y-94552570D01*
X129254378Y-94566016D01*
X129001676Y-94592459D01*
X128881934Y-94632712D01*
X128876068Y-94645704D01*
X128862248Y-94802018D01*
X128829549Y-95035616D01*
X128823356Y-95073857D01*
X128771576Y-95387048D01*
X127554260Y-95387048D01*
X127565804Y-95363941D01*
X127750188Y-95295437D01*
X127843778Y-95277163D01*
X127915417Y-95229887D01*
X127976141Y-95126707D01*
X128036990Y-94940718D01*
X128109002Y-94645018D01*
X128203214Y-94212705D01*
X128212770Y-94168000D01*
X128293458Y-93787000D01*
X129111773Y-93787000D01*
X130158553Y-93785533D01*
X130660332Y-93777638D01*
X131192734Y-93757463D01*
X131682725Y-93728325D01*
X131974222Y-93703034D01*
X132382638Y-93654473D01*
X132786174Y-93597283D01*
X133112968Y-93541881D01*
X133180722Y-93528152D01*
X133436670Y-93464981D01*
X133567047Y-93397006D01*
X133613465Y-93292536D01*
X133618333Y-93194918D01*
X133612536Y-93077756D01*
X133572679Y-93003595D01*
X133465061Y-92958192D01*
X133255983Y-92927300D01*
X132913019Y-92896782D01*
X132627587Y-92880799D01*
X132244460Y-92870355D01*
X131793716Y-92865089D01*
X131305429Y-92864643D01*
X130809676Y-92868656D01*
X130336533Y-92876769D01*
X129916076Y-92888621D01*
X129578380Y-92903853D01*
X129353521Y-92922105D01*
X129272912Y-92940333D01*
X129237126Y-93042296D01*
X129193078Y-93253372D01*
X129171639Y-93384833D01*
X129111773Y-93787000D01*
X128293458Y-93787000D01*
X128300050Y-93755874D01*
X128373110Y-93404099D01*
X128425251Y-93145439D01*
X128449774Y-93012657D01*
X128450788Y-93003833D01*
X128380270Y-92956877D01*
X128232577Y-92940333D01*
X128091286Y-92927473D01*
X128042120Y-92856641D01*
X128060427Y-92679460D01*
X128070795Y-92622833D01*
X128112889Y-92414727D01*
X128142996Y-92296317D01*
X128147054Y-92287885D01*
X128232826Y-92274909D01*
X128455292Y-92251857D01*
X128782324Y-92221803D01*
X129181795Y-92187824D01*
X129252465Y-92182052D01*
X129758814Y-92149122D01*
X130332875Y-92125519D01*
X130950622Y-92110869D01*
X131588030Y-92104798D01*
X132221074Y-92106933D01*
X132221074Y-92106933D01*
G37*
X132221074Y-92106933D02*
X132825728Y-92116900D01*
X133377967Y-92134327D01*
X133853765Y-92158839D01*
X134229098Y-92190063D01*
X134479939Y-92227626D01*
X134577886Y-92264831D01*
X134578878Y-92360706D01*
X134547858Y-92577290D01*
X134494005Y-92871045D01*
X134426498Y-93198434D01*
X134354516Y-93515917D01*
X134287236Y-93779957D01*
X134233838Y-93947016D01*
X134216437Y-93979338D01*
X134102546Y-94033045D01*
X133886036Y-94091599D01*
X133781595Y-94112585D01*
X133406666Y-94180494D01*
X133766500Y-94245189D01*
X133942939Y-94282915D01*
X134055307Y-94339873D01*
X134108891Y-94445129D01*
X134108981Y-94627751D01*
X134060865Y-94916805D01*
X133969832Y-95341358D01*
X133967703Y-95351010D01*
X133890906Y-95684635D01*
X133826966Y-95889536D01*
X133753986Y-96002717D01*
X133650063Y-96061180D01*
X133528056Y-96093858D01*
X133325872Y-96120933D01*
X132984204Y-96144732D01*
X132532877Y-96164873D01*
X132001716Y-96180972D01*
X131420547Y-96192646D01*
X130819195Y-96199514D01*
X130227483Y-96201192D01*
X129675238Y-96197296D01*
X129192284Y-96187446D01*
X128808446Y-96171256D01*
X128623000Y-96156821D01*
X128121969Y-96101482D01*
X127768956Y-96052813D01*
X127543027Y-96006096D01*
X127423250Y-95956612D01*
X127388692Y-95899644D01*
X127392113Y-95879386D01*
X127433135Y-95722625D01*
X127473135Y-95549437D01*
X127554260Y-95387048D01*
X128771576Y-95387048D01*
X129311121Y-95423581D01*
X129596934Y-95435377D01*
X129982008Y-95440592D01*
X130437006Y-95439952D01*
X130932593Y-95434183D01*
X131439431Y-95424012D01*
X131928183Y-95410166D01*
X132369515Y-95393371D01*
X132734088Y-95374353D01*
X132992568Y-95353840D01*
X133115616Y-95332559D01*
X133120693Y-95329224D01*
X133187776Y-95205610D01*
X133231129Y-95085706D01*
X133245429Y-94988947D01*
X133197611Y-94918640D01*
X133056604Y-94856466D01*
X132791338Y-94784105D01*
X132669145Y-94754365D01*
X132370788Y-94699503D01*
X131979163Y-94651969D01*
X131522547Y-94612573D01*
X131029221Y-94582125D01*
X130527462Y-94561435D01*
X130045550Y-94551314D01*
X129611762Y-94552570D01*
X129254378Y-94566016D01*
X129001676Y-94592459D01*
X128881934Y-94632712D01*
X128876068Y-94645704D01*
X128862248Y-94802018D01*
X128829549Y-95035616D01*
X128823356Y-95073857D01*
X128771576Y-95387048D01*
X127554260Y-95387048D01*
X127565804Y-95363941D01*
X127750188Y-95295437D01*
X127843778Y-95277163D01*
X127915417Y-95229887D01*
X127976141Y-95126707D01*
X128036990Y-94940718D01*
X128109002Y-94645018D01*
X128203214Y-94212705D01*
X128212770Y-94168000D01*
X128293458Y-93787000D01*
X129111773Y-93787000D01*
X130158553Y-93785533D01*
X130660332Y-93777638D01*
X131192734Y-93757463D01*
X131682725Y-93728325D01*
X131974222Y-93703034D01*
X132382638Y-93654473D01*
X132786174Y-93597283D01*
X133112968Y-93541881D01*
X133180722Y-93528152D01*
X133436670Y-93464981D01*
X133567047Y-93397006D01*
X133613465Y-93292536D01*
X133618333Y-93194918D01*
X133612536Y-93077756D01*
X133572679Y-93003595D01*
X133465061Y-92958192D01*
X133255983Y-92927300D01*
X132913019Y-92896782D01*
X132627587Y-92880799D01*
X132244460Y-92870355D01*
X131793716Y-92865089D01*
X131305429Y-92864643D01*
X130809676Y-92868656D01*
X130336533Y-92876769D01*
X129916076Y-92888621D01*
X129578380Y-92903853D01*
X129353521Y-92922105D01*
X129272912Y-92940333D01*
X129237126Y-93042296D01*
X129193078Y-93253372D01*
X129171639Y-93384833D01*
X129111773Y-93787000D01*
X128293458Y-93787000D01*
X128300050Y-93755874D01*
X128373110Y-93404099D01*
X128425251Y-93145439D01*
X128449774Y-93012657D01*
X128450788Y-93003833D01*
X128380270Y-92956877D01*
X128232577Y-92940333D01*
X128091286Y-92927473D01*
X128042120Y-92856641D01*
X128060427Y-92679460D01*
X128070795Y-92622833D01*
X128112889Y-92414727D01*
X128142996Y-92296317D01*
X128147054Y-92287885D01*
X128232826Y-92274909D01*
X128455292Y-92251857D01*
X128782324Y-92221803D01*
X129181795Y-92187824D01*
X129252465Y-92182052D01*
X129758814Y-92149122D01*
X130332875Y-92125519D01*
X130950622Y-92110869D01*
X131588030Y-92104798D01*
X132221074Y-92106933D01*
G36*
X143976266Y-92152779D02*
G01*
X144074582Y-92224523D01*
X144279129Y-92381765D01*
X144563890Y-92604248D01*
X144902847Y-92871716D01*
X145064233Y-92999848D01*
X145417432Y-93276017D01*
X145727935Y-93509836D01*
X145970109Y-93682686D01*
X146118323Y-93775950D01*
X146147930Y-93787000D01*
X146247505Y-93745558D01*
X146467513Y-93630331D01*
X146783371Y-93454961D01*
X147170498Y-93233093D01*
X147597075Y-92982667D01*
X148029089Y-92728604D01*
X148412656Y-92507535D01*
X148723540Y-92333066D01*
X148937506Y-92218799D01*
X149030037Y-92178333D01*
X149121927Y-92248101D01*
X149226564Y-92411472D01*
X149309088Y-92599544D01*
X149334639Y-92743416D01*
X149327243Y-92765752D01*
X149242087Y-92830660D01*
X149034648Y-92964244D01*
X148729714Y-93151253D01*
X148352075Y-93376437D01*
X148005703Y-93578786D01*
X147596405Y-93821219D01*
X147249525Y-94037146D01*
X146987145Y-94211945D01*
X146831348Y-94330992D01*
X146799420Y-94377609D01*
X146889460Y-94450195D01*
X147085192Y-94604794D01*
X147358671Y-94819424D01*
X147681953Y-95072101D01*
X147715333Y-95098137D01*
X148040583Y-95352322D01*
X148317366Y-95569627D01*
X148518246Y-95728440D01*
X148615786Y-95807149D01*
X148618910Y-95809882D01*
X148601722Y-95897236D01*
X148495982Y-96065343D01*
X148395181Y-96193213D01*
X148114542Y-96525093D01*
X147110604Y-95736675D01*
X146752529Y-95455508D01*
X146437757Y-95208415D01*
X146192229Y-95015754D01*
X146041887Y-94897885D01*
X146011696Y-94874276D01*
X145897681Y-94885468D01*
X145655153Y-94987335D01*
X145295142Y-95174629D01*
X144868696Y-95418435D01*
X144452566Y-95663606D01*
X144051763Y-95899273D01*
X143706869Y-96101606D01*
X143458467Y-96246773D01*
X143421584Y-96268215D01*
X143022503Y-96499855D01*
X142892418Y-96248299D01*
X142802805Y-96052799D01*
X142762506Y-95920998D01*
X142762333Y-95916507D01*
X142831717Y-95848216D01*
X143023047Y-95712749D01*
X143311089Y-95526670D01*
X143670609Y-95306540D01*
X143884166Y-95180174D01*
X144285627Y-94944438D01*
X144644056Y-94732212D01*
X144929770Y-94561205D01*
X145113084Y-94449126D01*
X145156042Y-94421420D01*
X145201769Y-94371520D01*
X145192250Y-94303294D01*
X145111232Y-94199517D01*
X144942463Y-94042964D01*
X144669688Y-93816411D01*
X144325954Y-93541692D01*
X143345823Y-92764620D01*
X143611845Y-92428741D01*
X143793762Y-92233105D01*
X143933816Y-92147983D01*
X143976266Y-92152779D01*
X143976266Y-92152779D01*
G37*
X143976266Y-92152779D02*
X144074582Y-92224523D01*
X144279129Y-92381765D01*
X144563890Y-92604248D01*
X144902847Y-92871716D01*
X145064233Y-92999848D01*
X145417432Y-93276017D01*
X145727935Y-93509836D01*
X145970109Y-93682686D01*
X146118323Y-93775950D01*
X146147930Y-93787000D01*
X146247505Y-93745558D01*
X146467513Y-93630331D01*
X146783371Y-93454961D01*
X147170498Y-93233093D01*
X147597075Y-92982667D01*
X148029089Y-92728604D01*
X148412656Y-92507535D01*
X148723540Y-92333066D01*
X148937506Y-92218799D01*
X149030037Y-92178333D01*
X149121927Y-92248101D01*
X149226564Y-92411472D01*
X149309088Y-92599544D01*
X149334639Y-92743416D01*
X149327243Y-92765752D01*
X149242087Y-92830660D01*
X149034648Y-92964244D01*
X148729714Y-93151253D01*
X148352075Y-93376437D01*
X148005703Y-93578786D01*
X147596405Y-93821219D01*
X147249525Y-94037146D01*
X146987145Y-94211945D01*
X146831348Y-94330992D01*
X146799420Y-94377609D01*
X146889460Y-94450195D01*
X147085192Y-94604794D01*
X147358671Y-94819424D01*
X147681953Y-95072101D01*
X147715333Y-95098137D01*
X148040583Y-95352322D01*
X148317366Y-95569627D01*
X148518246Y-95728440D01*
X148615786Y-95807149D01*
X148618910Y-95809882D01*
X148601722Y-95897236D01*
X148495982Y-96065343D01*
X148395181Y-96193213D01*
X148114542Y-96525093D01*
X147110604Y-95736675D01*
X146752529Y-95455508D01*
X146437757Y-95208415D01*
X146192229Y-95015754D01*
X146041887Y-94897885D01*
X146011696Y-94874276D01*
X145897681Y-94885468D01*
X145655153Y-94987335D01*
X145295142Y-95174629D01*
X144868696Y-95418435D01*
X144452566Y-95663606D01*
X144051763Y-95899273D01*
X143706869Y-96101606D01*
X143458467Y-96246773D01*
X143421584Y-96268215D01*
X143022503Y-96499855D01*
X142892418Y-96248299D01*
X142802805Y-96052799D01*
X142762506Y-95920998D01*
X142762333Y-95916507D01*
X142831717Y-95848216D01*
X143023047Y-95712749D01*
X143311089Y-95526670D01*
X143670609Y-95306540D01*
X143884166Y-95180174D01*
X144285627Y-94944438D01*
X144644056Y-94732212D01*
X144929770Y-94561205D01*
X145113084Y-94449126D01*
X145156042Y-94421420D01*
X145201769Y-94371520D01*
X145192250Y-94303294D01*
X145111232Y-94199517D01*
X144942463Y-94042964D01*
X144669688Y-93816411D01*
X144325954Y-93541692D01*
X143345823Y-92764620D01*
X143611845Y-92428741D01*
X143793762Y-92233105D01*
X143933816Y-92147983D01*
X143976266Y-92152779D01*
D12*
X131143000Y-134063000D02*
X128603000Y-134063000D01*
X128603000Y-134063000D02*
X128603000Y-136733000D01*
X131143000Y-136733000D02*
X169373000Y-136733000D01*
X125933000Y-136733000D02*
X128603000Y-136733000D01*
X128603000Y-121363000D02*
X128603000Y-118693000D01*
X128603000Y-121363000D02*
X166703000Y-121363000D01*
X166703000Y-121363000D02*
X166703000Y-118693000D01*
X131143000Y-134063000D02*
X131143000Y-136733000D01*
X131143000Y-134063000D02*
X166703000Y-134063000D01*
X166703000Y-134063000D02*
X166703000Y-136733000D01*
X169373000Y-136733000D02*
X169373000Y-118693000D01*
X169373000Y-118693000D02*
X125933000Y-118693000D01*
X125933000Y-118693000D02*
X125933000Y-136733000D01*
X122673000Y-64233000D02*
X122273000Y-64233000D01*
X122673000Y-70833000D02*
X122673000Y-64233000D01*
X117073000Y-70433000D02*
X117073000Y-65233000D01*
X104373000Y-86273000D02*
X106383000Y-86273000D01*
X104373000Y-86273000D02*
X104373000Y-87833000D01*
X104603000Y-86503000D02*
X120843000Y-86503000D01*
X120843000Y-86503000D02*
X120843000Y-106943000D01*
X120843000Y-106943000D02*
X104603000Y-106943000D01*
X104603000Y-106943000D02*
X104603000Y-86503000D01*
X171373000Y-59333000D02*
G75*
G03X171373000Y-59333000I-5500000J0D01*
G01*
X137373000Y-59333000D02*
G75*
G03X137373000Y-59333000I-5500000J0D01*
G01*
X152169500Y-67942500D02*
G75*
G03X152169500Y-67942500I-3270000J0D01*
G01*
X148899500Y-71172500D02*
X148899500Y-64712500D01*
X148859500Y-71172500D02*
X148859500Y-64712500D01*
X148819500Y-71172500D02*
X148819500Y-64712500D01*
X148779500Y-71170500D02*
X148779500Y-64714500D01*
X148739500Y-71169500D02*
X148739500Y-64715500D01*
X148699500Y-71166500D02*
X148699500Y-64718500D01*
X148659500Y-71164500D02*
X148659500Y-68982500D01*
X148659500Y-66902500D02*
X148659500Y-64720500D01*
X148619500Y-71160500D02*
X148619500Y-68982500D01*
X148619500Y-66902500D02*
X148619500Y-64724500D01*
X148579500Y-71157500D02*
X148579500Y-68982500D01*
X148579500Y-66902500D02*
X148579500Y-64727500D01*
X148539500Y-71153500D02*
X148539500Y-68982500D01*
X148539500Y-66902500D02*
X148539500Y-64731500D01*
X148499500Y-71148500D02*
X148499500Y-68982500D01*
X148499500Y-66902500D02*
X148499500Y-64736500D01*
X148459500Y-71143500D02*
X148459500Y-68982500D01*
X148459500Y-66902500D02*
X148459500Y-64741500D01*
X148419500Y-71137500D02*
X148419500Y-68982500D01*
X148419500Y-66902500D02*
X148419500Y-64747500D01*
X148379500Y-71131500D02*
X148379500Y-68982500D01*
X148379500Y-66902500D02*
X148379500Y-64753500D01*
X148339500Y-71124500D02*
X148339500Y-68982500D01*
X148339500Y-66902500D02*
X148339500Y-64760500D01*
X148299500Y-71117500D02*
X148299500Y-68982500D01*
X148299500Y-66902500D02*
X148299500Y-64767500D01*
X148259500Y-71109500D02*
X148259500Y-68982500D01*
X148259500Y-66902500D02*
X148259500Y-64775500D01*
X148219500Y-71101500D02*
X148219500Y-68982500D01*
X148219500Y-66902500D02*
X148219500Y-64783500D01*
X148178500Y-71092500D02*
X148178500Y-68982500D01*
X148178500Y-66902500D02*
X148178500Y-64792500D01*
X148138500Y-71083500D02*
X148138500Y-68982500D01*
X148138500Y-66902500D02*
X148138500Y-64801500D01*
X148098500Y-71073500D02*
X148098500Y-68982500D01*
X148098500Y-66902500D02*
X148098500Y-64811500D01*
X148058500Y-71063500D02*
X148058500Y-68982500D01*
X148058500Y-66902500D02*
X148058500Y-64821500D01*
X148018500Y-71052500D02*
X148018500Y-68982500D01*
X148018500Y-66902500D02*
X148018500Y-64832500D01*
X147978500Y-71040500D02*
X147978500Y-68982500D01*
X147978500Y-66902500D02*
X147978500Y-64844500D01*
X147938500Y-71028500D02*
X147938500Y-68982500D01*
X147938500Y-66902500D02*
X147938500Y-64856500D01*
X147898500Y-71016500D02*
X147898500Y-68982500D01*
X147898500Y-66902500D02*
X147898500Y-64868500D01*
X147858500Y-71003500D02*
X147858500Y-68982500D01*
X147858500Y-66902500D02*
X147858500Y-64881500D01*
X147818500Y-70989500D02*
X147818500Y-68982500D01*
X147818500Y-66902500D02*
X147818500Y-64895500D01*
X147778500Y-70975500D02*
X147778500Y-68982500D01*
X147778500Y-66902500D02*
X147778500Y-64909500D01*
X147738500Y-70960500D02*
X147738500Y-68982500D01*
X147738500Y-66902500D02*
X147738500Y-64924500D01*
X147698500Y-70944500D02*
X147698500Y-68982500D01*
X147698500Y-66902500D02*
X147698500Y-64940500D01*
X147658500Y-70928500D02*
X147658500Y-68982500D01*
X147658500Y-66902500D02*
X147658500Y-64956500D01*
X147618500Y-70912500D02*
X147618500Y-68982500D01*
X147618500Y-66902500D02*
X147618500Y-64972500D01*
X147578500Y-70894500D02*
X147578500Y-68982500D01*
X147578500Y-66902500D02*
X147578500Y-64990500D01*
X147538500Y-70876500D02*
X147538500Y-68982500D01*
X147538500Y-66902500D02*
X147538500Y-65008500D01*
X147498500Y-70858500D02*
X147498500Y-68982500D01*
X147498500Y-66902500D02*
X147498500Y-65026500D01*
X147458500Y-70838500D02*
X147458500Y-68982500D01*
X147458500Y-66902500D02*
X147458500Y-65046500D01*
X147418500Y-70818500D02*
X147418500Y-68982500D01*
X147418500Y-66902500D02*
X147418500Y-65066500D01*
X147378500Y-70798500D02*
X147378500Y-68982500D01*
X147378500Y-66902500D02*
X147378500Y-65086500D01*
X147338500Y-70776500D02*
X147338500Y-68982500D01*
X147338500Y-66902500D02*
X147338500Y-65108500D01*
X147298500Y-70754500D02*
X147298500Y-68982500D01*
X147298500Y-66902500D02*
X147298500Y-65130500D01*
X147258500Y-70732500D02*
X147258500Y-68982500D01*
X147258500Y-66902500D02*
X147258500Y-65152500D01*
X147218500Y-70708500D02*
X147218500Y-68982500D01*
X147218500Y-66902500D02*
X147218500Y-65176500D01*
X147178500Y-70684500D02*
X147178500Y-68982500D01*
X147178500Y-66902500D02*
X147178500Y-65200500D01*
X147138500Y-70658500D02*
X147138500Y-68982500D01*
X147138500Y-66902500D02*
X147138500Y-65226500D01*
X147098500Y-70632500D02*
X147098500Y-68982500D01*
X147098500Y-66902500D02*
X147098500Y-65252500D01*
X147058500Y-70606500D02*
X147058500Y-68982500D01*
X147058500Y-66902500D02*
X147058500Y-65278500D01*
X147018500Y-70578500D02*
X147018500Y-68982500D01*
X147018500Y-66902500D02*
X147018500Y-65306500D01*
X146978500Y-70549500D02*
X146978500Y-68982500D01*
X146978500Y-66902500D02*
X146978500Y-65335500D01*
X146938500Y-70520500D02*
X146938500Y-68982500D01*
X146938500Y-66902500D02*
X146938500Y-65364500D01*
X146898500Y-70490500D02*
X146898500Y-68982500D01*
X146898500Y-66902500D02*
X146898500Y-65394500D01*
X146858500Y-70458500D02*
X146858500Y-68982500D01*
X146858500Y-66902500D02*
X146858500Y-65426500D01*
X146818500Y-70426500D02*
X146818500Y-68982500D01*
X146818500Y-66902500D02*
X146818500Y-65458500D01*
X146778500Y-70392500D02*
X146778500Y-68982500D01*
X146778500Y-66902500D02*
X146778500Y-65492500D01*
X146738500Y-70358500D02*
X146738500Y-68982500D01*
X146738500Y-66902500D02*
X146738500Y-65526500D01*
X146698500Y-70322500D02*
X146698500Y-68982500D01*
X146698500Y-66902500D02*
X146698500Y-65562500D01*
X146658500Y-70285500D02*
X146658500Y-68982500D01*
X146658500Y-66902500D02*
X146658500Y-65599500D01*
X146618500Y-70247500D02*
X146618500Y-68982500D01*
X146618500Y-66902500D02*
X146618500Y-65637500D01*
X146578500Y-70207500D02*
X146578500Y-65677500D01*
X146538500Y-70166500D02*
X146538500Y-65718500D01*
X146498500Y-70124500D02*
X146498500Y-65760500D01*
X146458500Y-70079500D02*
X146458500Y-65805500D01*
X146418500Y-70034500D02*
X146418500Y-65850500D01*
X146378500Y-69986500D02*
X146378500Y-65898500D01*
X146338500Y-69937500D02*
X146338500Y-65947500D01*
X146298500Y-69886500D02*
X146298500Y-65998500D01*
X146258500Y-69832500D02*
X146258500Y-66052500D01*
X146218500Y-69776500D02*
X146218500Y-66108500D01*
X146178500Y-69718500D02*
X146178500Y-66166500D01*
X146138500Y-69656500D02*
X146138500Y-66228500D01*
X146098500Y-69592500D02*
X146098500Y-66292500D01*
X146058500Y-69523500D02*
X146058500Y-66361500D01*
X146018500Y-69451500D02*
X146018500Y-66433500D01*
X145978500Y-69374500D02*
X145978500Y-66510500D01*
X145938500Y-69292500D02*
X145938500Y-66592500D01*
X145898500Y-69204500D02*
X145898500Y-66680500D01*
X145858500Y-69107500D02*
X145858500Y-66777500D01*
X145818500Y-69001500D02*
X145818500Y-66883500D01*
X145778500Y-68882500D02*
X145778500Y-67002500D01*
X145738500Y-68744500D02*
X145738500Y-67140500D01*
X145698500Y-68575500D02*
X145698500Y-67309500D01*
X145658500Y-68344500D02*
X145658500Y-67540500D01*
X152399741Y-69781500D02*
X151769741Y-69781500D01*
X152084741Y-70096500D02*
X152084741Y-69466500D01*
X116401500Y-59807500D02*
X116401500Y-62092500D01*
X116401500Y-62092500D02*
X117871500Y-62092500D01*
X117871500Y-62092500D02*
X117871500Y-59807500D01*
X145438000Y-56773000D02*
X154158000Y-56773000D01*
X154158000Y-56773000D02*
X154158000Y-62193000D01*
X145438000Y-62193000D02*
X154158000Y-62193000D01*
X143738000Y-58073000D02*
X145438000Y-56773000D01*
X143738000Y-60893000D02*
X145438000Y-62193000D01*
X143738000Y-58073000D02*
X143738000Y-60893000D01*
X109231000Y-63823000D02*
X109231000Y-64823000D01*
X110931000Y-64823000D02*
X110931000Y-63823000D01*
X177873000Y-121483000D02*
X176873000Y-121483000D01*
X176873000Y-123183000D02*
X177873000Y-123183000D01*
X176973000Y-119183000D02*
X177973000Y-119183000D01*
X177973000Y-117483000D02*
X176973000Y-117483000D01*
X114460500Y-64750500D02*
X112560500Y-64750500D01*
X113060500Y-67070500D02*
X114460500Y-67070500D01*
X174473000Y-119213000D02*
X173273000Y-119213000D01*
X173273000Y-117453000D02*
X174473000Y-117453000D01*
X174473000Y-123213000D02*
X173273000Y-123213000D01*
X173273000Y-121453000D02*
X174473000Y-121453000D01*
X116016500Y-60107500D02*
X116016500Y-61307500D01*
X114256500Y-61307500D02*
X114256500Y-60107500D01*
X179879010Y-84735894D02*
G75*
G02X168473000Y-82133000I-5406010J2602894D01*
G01*
X168479672Y-82133000D02*
G75*
G02X179872999Y-79533001I5993328J0D01*
G01*
X179879010Y-84735894D02*
X179872999Y-79533001D01*
X179479010Y-100435894D02*
X179472999Y-95233001D01*
X168079672Y-97833000D02*
G75*
G02X179472999Y-95233001I5993328J0D01*
G01*
X179479010Y-100435894D02*
G75*
G02X168073000Y-97833000I-5406010J2602894D01*
G01*
X115466000Y-62300000D02*
X116666000Y-62300000D01*
X116666000Y-64060000D02*
X115466000Y-64060000D01*
X109036000Y-110368500D02*
X109036000Y-111368500D01*
X112396000Y-110368500D02*
X112396000Y-111368500D01*
X116714000Y-110368500D02*
X116714000Y-111368500D01*
X113354000Y-110368500D02*
X113354000Y-111368500D01*
X122361000Y-132196500D02*
X122361000Y-131196500D01*
X120661000Y-131196500D02*
X120661000Y-132196500D01*
X116668000Y-130044000D02*
X116668000Y-131944000D01*
X118988000Y-131444000D02*
X118988000Y-130044000D01*
X122278000Y-122914500D02*
X122278000Y-121654500D01*
X122278000Y-116094500D02*
X122278000Y-117354500D01*
X118518000Y-122914500D02*
X122278000Y-122914500D01*
X116268000Y-116094500D02*
X122278000Y-116094500D01*
X174852000Y-70961500D02*
X178152000Y-70961500D01*
X178152000Y-70961500D02*
X178152000Y-65561500D01*
X174852000Y-70961500D02*
X174852000Y-65561500D01*
X125228000Y-116409000D02*
X128028000Y-116409000D01*
X128028000Y-116409000D02*
X128028000Y-118409000D01*
X128028000Y-118409000D02*
X125228000Y-118409000D01*
X125228000Y-118409000D02*
X125228000Y-116409000D01*
X125191000Y-122727000D02*
X125191000Y-120727000D01*
X127991000Y-122727000D02*
X125191000Y-122727000D01*
X127991000Y-120727000D02*
X127991000Y-122727000D01*
X125191000Y-120727000D02*
X127991000Y-120727000D01*
D10*
X102011095Y-138985380D02*
X102011095Y-137985380D01*
X102011095Y-138461571D02*
X102582523Y-138461571D01*
X102582523Y-138985380D02*
X102582523Y-137985380D01*
X103582523Y-138985380D02*
X103011095Y-138985380D01*
X103296809Y-138985380D02*
X103296809Y-137985380D01*
X103201571Y-138128238D01*
X103106333Y-138223476D01*
X103011095Y-138271095D01*
X102211095Y-50785380D02*
X102211095Y-49785380D01*
X102211095Y-50261571D02*
X102782523Y-50261571D01*
X102782523Y-50785380D02*
X102782523Y-49785380D01*
X103211095Y-49880619D02*
X103258714Y-49833000D01*
X103353952Y-49785380D01*
X103592047Y-49785380D01*
X103687285Y-49833000D01*
X103734904Y-49880619D01*
X103782523Y-49975857D01*
X103782523Y-50071095D01*
X103734904Y-50213952D01*
X103163476Y-50785380D01*
X103782523Y-50785380D01*
X190211095Y-50785380D02*
X190211095Y-49785380D01*
X190211095Y-50261571D02*
X190782523Y-50261571D01*
X190782523Y-50785380D02*
X190782523Y-49785380D01*
X191163476Y-49785380D02*
X191782523Y-49785380D01*
X191449190Y-50166333D01*
X191592047Y-50166333D01*
X191687285Y-50213952D01*
X191734904Y-50261571D01*
X191782523Y-50356809D01*
X191782523Y-50594904D01*
X191734904Y-50690142D01*
X191687285Y-50737761D01*
X191592047Y-50785380D01*
X191306333Y-50785380D01*
X191211095Y-50737761D01*
X191163476Y-50690142D01*
X190611095Y-138885380D02*
X190611095Y-137885380D01*
X190611095Y-138361571D02*
X191182523Y-138361571D01*
X191182523Y-138885380D02*
X191182523Y-137885380D01*
X192087285Y-138218714D02*
X192087285Y-138885380D01*
X191849190Y-137837761D02*
X191611095Y-138552047D01*
X192230142Y-138552047D01*
X125439666Y-136447285D02*
X125439666Y-135971095D01*
X125725380Y-136542523D02*
X124725380Y-136209190D01*
X125725380Y-135875857D01*
X125725380Y-135018714D02*
X125725380Y-135590142D01*
X125725380Y-135304428D02*
X124725380Y-135304428D01*
X124868238Y-135399666D01*
X124963476Y-135494904D01*
X125011095Y-135590142D01*
X124220619Y-67928238D02*
X124173000Y-68023476D01*
X124077761Y-68118714D01*
X123934904Y-68261571D01*
X123887285Y-68356809D01*
X123887285Y-68452047D01*
X124125380Y-68404428D02*
X124077761Y-68499666D01*
X123982523Y-68594904D01*
X123792047Y-68642523D01*
X123458714Y-68642523D01*
X123268238Y-68594904D01*
X123173000Y-68499666D01*
X123125380Y-68404428D01*
X123125380Y-68213952D01*
X123173000Y-68118714D01*
X123268238Y-68023476D01*
X123458714Y-67975857D01*
X123792047Y-67975857D01*
X123982523Y-68023476D01*
X124077761Y-68118714D01*
X124125380Y-68213952D01*
X124125380Y-68404428D01*
X124125380Y-67023476D02*
X124125380Y-67594904D01*
X124125380Y-67309190D02*
X123125380Y-67309190D01*
X123268238Y-67404428D01*
X123363476Y-67499666D01*
X123411095Y-67594904D01*
X106041095Y-84925380D02*
X106041095Y-85734904D01*
X106088714Y-85830142D01*
X106136333Y-85877761D01*
X106231571Y-85925380D01*
X106422047Y-85925380D01*
X106517285Y-85877761D01*
X106564904Y-85830142D01*
X106612523Y-85734904D01*
X106612523Y-84925380D01*
X107041095Y-85020619D02*
X107088714Y-84973000D01*
X107183952Y-84925380D01*
X107422047Y-84925380D01*
X107517285Y-84973000D01*
X107564904Y-85020619D01*
X107612523Y-85115857D01*
X107612523Y-85211095D01*
X107564904Y-85353952D01*
X106993476Y-85925380D01*
X107612523Y-85925380D01*
X165539666Y-52285380D02*
X165539666Y-52999666D01*
X165492047Y-53142523D01*
X165396809Y-53237761D01*
X165253952Y-53285380D01*
X165158714Y-53285380D01*
X165968238Y-52380619D02*
X166015857Y-52333000D01*
X166111095Y-52285380D01*
X166349190Y-52285380D01*
X166444428Y-52333000D01*
X166492047Y-52380619D01*
X166539666Y-52475857D01*
X166539666Y-52571095D01*
X166492047Y-52713952D01*
X165920619Y-53285380D01*
X166539666Y-53285380D01*
X131539666Y-52285380D02*
X131539666Y-52999666D01*
X131492047Y-53142523D01*
X131396809Y-53237761D01*
X131253952Y-53285380D01*
X131158714Y-53285380D01*
X131920619Y-52285380D02*
X132539666Y-52285380D01*
X132206333Y-52666333D01*
X132349190Y-52666333D01*
X132444428Y-52713952D01*
X132492047Y-52761571D01*
X132539666Y-52856809D01*
X132539666Y-53094904D01*
X132492047Y-53190142D01*
X132444428Y-53237761D01*
X132349190Y-53285380D01*
X132063476Y-53285380D01*
X131968238Y-53237761D01*
X131920619Y-53190142D01*
X148732833Y-72699642D02*
X148685214Y-72747261D01*
X148542357Y-72794880D01*
X148447119Y-72794880D01*
X148304261Y-72747261D01*
X148209023Y-72652023D01*
X148161404Y-72556785D01*
X148113785Y-72366309D01*
X148113785Y-72223452D01*
X148161404Y-72032976D01*
X148209023Y-71937738D01*
X148304261Y-71842500D01*
X148447119Y-71794880D01*
X148542357Y-71794880D01*
X148685214Y-71842500D01*
X148732833Y-71890119D01*
X149589976Y-72128214D02*
X149589976Y-72794880D01*
X149351880Y-71747261D02*
X149113785Y-72461547D01*
X149732833Y-72461547D01*
X119288880Y-61445595D02*
X118288880Y-61445595D01*
X118288880Y-61207500D01*
X118336500Y-61064642D01*
X118431738Y-60969404D01*
X118526976Y-60921785D01*
X118717452Y-60874166D01*
X118860309Y-60874166D01*
X119050785Y-60921785D01*
X119146023Y-60969404D01*
X119241261Y-61064642D01*
X119288880Y-61207500D01*
X119288880Y-61445595D01*
X119288880Y-59921785D02*
X119288880Y-60493214D01*
X119288880Y-60207500D02*
X118288880Y-60207500D01*
X118431738Y-60302738D01*
X118526976Y-60397976D01*
X118574595Y-60493214D01*
X148614666Y-54935380D02*
X148614666Y-55649666D01*
X148567047Y-55792523D01*
X148471809Y-55887761D01*
X148328952Y-55935380D01*
X148233714Y-55935380D01*
X149614666Y-55935380D02*
X149043238Y-55935380D01*
X149328952Y-55935380D02*
X149328952Y-54935380D01*
X149233714Y-55078238D01*
X149138476Y-55173476D01*
X149043238Y-55221095D01*
X154876571Y-59590142D02*
X156019428Y-59590142D01*
X155448000Y-60161571D02*
X155448000Y-59018714D01*
X141876571Y-59590142D02*
X143019428Y-59590142D01*
X108938142Y-64489666D02*
X108985761Y-64537285D01*
X109033380Y-64680142D01*
X109033380Y-64775380D01*
X108985761Y-64918238D01*
X108890523Y-65013476D01*
X108795285Y-65061095D01*
X108604809Y-65108714D01*
X108461952Y-65108714D01*
X108271476Y-65061095D01*
X108176238Y-65013476D01*
X108081000Y-64918238D01*
X108033380Y-64775380D01*
X108033380Y-64680142D01*
X108081000Y-64537285D01*
X108128619Y-64489666D01*
X109033380Y-63537285D02*
X109033380Y-64108714D01*
X109033380Y-63823000D02*
X108033380Y-63823000D01*
X108176238Y-63918238D01*
X108271476Y-64013476D01*
X108319095Y-64108714D01*
X177206333Y-121190142D02*
X177158714Y-121237761D01*
X177015857Y-121285380D01*
X176920619Y-121285380D01*
X176777761Y-121237761D01*
X176682523Y-121142523D01*
X176634904Y-121047285D01*
X176587285Y-120856809D01*
X176587285Y-120713952D01*
X176634904Y-120523476D01*
X176682523Y-120428238D01*
X176777761Y-120333000D01*
X176920619Y-120285380D01*
X177015857Y-120285380D01*
X177158714Y-120333000D01*
X177206333Y-120380619D01*
X177587285Y-120380619D02*
X177634904Y-120333000D01*
X177730142Y-120285380D01*
X177968238Y-120285380D01*
X178063476Y-120333000D01*
X178111095Y-120380619D01*
X178158714Y-120475857D01*
X178158714Y-120571095D01*
X178111095Y-120713952D01*
X177539666Y-121285380D01*
X178158714Y-121285380D01*
X177306333Y-117190142D02*
X177258714Y-117237761D01*
X177115857Y-117285380D01*
X177020619Y-117285380D01*
X176877761Y-117237761D01*
X176782523Y-117142523D01*
X176734904Y-117047285D01*
X176687285Y-116856809D01*
X176687285Y-116713952D01*
X176734904Y-116523476D01*
X176782523Y-116428238D01*
X176877761Y-116333000D01*
X177020619Y-116285380D01*
X177115857Y-116285380D01*
X177258714Y-116333000D01*
X177306333Y-116380619D01*
X177639666Y-116285380D02*
X178258714Y-116285380D01*
X177925380Y-116666333D01*
X178068238Y-116666333D01*
X178163476Y-116713952D01*
X178211095Y-116761571D01*
X178258714Y-116856809D01*
X178258714Y-117094904D01*
X178211095Y-117190142D01*
X178163476Y-117237761D01*
X178068238Y-117285380D01*
X177782523Y-117285380D01*
X177687285Y-117237761D01*
X177639666Y-117190142D01*
X113665261Y-64458119D02*
X113570023Y-64410500D01*
X113474785Y-64315261D01*
X113331928Y-64172404D01*
X113236690Y-64124785D01*
X113141452Y-64124785D01*
X113189071Y-64362880D02*
X113093833Y-64315261D01*
X112998595Y-64220023D01*
X112950976Y-64029547D01*
X112950976Y-63696214D01*
X112998595Y-63505738D01*
X113093833Y-63410500D01*
X113189071Y-63362880D01*
X113379547Y-63362880D01*
X113474785Y-63410500D01*
X113570023Y-63505738D01*
X113617642Y-63696214D01*
X113617642Y-64029547D01*
X113570023Y-64220023D01*
X113474785Y-64315261D01*
X113379547Y-64362880D01*
X113189071Y-64362880D01*
X114474785Y-63696214D02*
X114474785Y-64362880D01*
X114236690Y-63315261D02*
X113998595Y-64029547D01*
X114617642Y-64029547D01*
X173706333Y-117135380D02*
X173373000Y-116659190D01*
X173134904Y-117135380D02*
X173134904Y-116135380D01*
X173515857Y-116135380D01*
X173611095Y-116183000D01*
X173658714Y-116230619D01*
X173706333Y-116325857D01*
X173706333Y-116468714D01*
X173658714Y-116563952D01*
X173611095Y-116611571D01*
X173515857Y-116659190D01*
X173134904Y-116659190D01*
X174087285Y-116230619D02*
X174134904Y-116183000D01*
X174230142Y-116135380D01*
X174468238Y-116135380D01*
X174563476Y-116183000D01*
X174611095Y-116230619D01*
X174658714Y-116325857D01*
X174658714Y-116421095D01*
X174611095Y-116563952D01*
X174039666Y-117135380D01*
X174658714Y-117135380D01*
X173706333Y-121135380D02*
X173373000Y-120659190D01*
X173134904Y-121135380D02*
X173134904Y-120135380D01*
X173515857Y-120135380D01*
X173611095Y-120183000D01*
X173658714Y-120230619D01*
X173706333Y-120325857D01*
X173706333Y-120468714D01*
X173658714Y-120563952D01*
X173611095Y-120611571D01*
X173515857Y-120659190D01*
X173134904Y-120659190D01*
X174563476Y-120468714D02*
X174563476Y-121135380D01*
X174325380Y-120087761D02*
X174087285Y-120802047D01*
X174706333Y-120802047D01*
X113688880Y-61050357D02*
X113212690Y-61383690D01*
X113688880Y-61621785D02*
X112688880Y-61621785D01*
X112688880Y-61240833D01*
X112736500Y-61145595D01*
X112784119Y-61097976D01*
X112879357Y-61050357D01*
X113022214Y-61050357D01*
X113117452Y-61097976D01*
X113165071Y-61145595D01*
X113212690Y-61240833D01*
X113212690Y-61621785D01*
X113688880Y-60097976D02*
X113688880Y-60669404D01*
X113688880Y-60383690D02*
X112688880Y-60383690D01*
X112831738Y-60478928D01*
X112926976Y-60574166D01*
X112974595Y-60669404D01*
X113022214Y-59240833D02*
X113688880Y-59240833D01*
X112641261Y-59478928D02*
X113355547Y-59717023D01*
X113355547Y-59097976D01*
X180539666Y-82537761D02*
X180682523Y-82585380D01*
X180920619Y-82585380D01*
X181015857Y-82537761D01*
X181063476Y-82490142D01*
X181111095Y-82394904D01*
X181111095Y-82299666D01*
X181063476Y-82204428D01*
X181015857Y-82156809D01*
X180920619Y-82109190D01*
X180730142Y-82061571D01*
X180634904Y-82013952D01*
X180587285Y-81966333D01*
X180539666Y-81871095D01*
X180539666Y-81775857D01*
X180587285Y-81680619D01*
X180634904Y-81633000D01*
X180730142Y-81585380D01*
X180968238Y-81585380D01*
X181111095Y-81633000D01*
X181444428Y-81585380D02*
X181682523Y-82585380D01*
X181873000Y-81871095D01*
X182063476Y-82585380D01*
X182301571Y-81585380D01*
X183206333Y-82585380D02*
X182634904Y-82585380D01*
X182920619Y-82585380D02*
X182920619Y-81585380D01*
X182825380Y-81728238D01*
X182730142Y-81823476D01*
X182634904Y-81871095D01*
X179939666Y-98237761D02*
X180082523Y-98285380D01*
X180320619Y-98285380D01*
X180415857Y-98237761D01*
X180463476Y-98190142D01*
X180511095Y-98094904D01*
X180511095Y-97999666D01*
X180463476Y-97904428D01*
X180415857Y-97856809D01*
X180320619Y-97809190D01*
X180130142Y-97761571D01*
X180034904Y-97713952D01*
X179987285Y-97666333D01*
X179939666Y-97571095D01*
X179939666Y-97475857D01*
X179987285Y-97380619D01*
X180034904Y-97333000D01*
X180130142Y-97285380D01*
X180368238Y-97285380D01*
X180511095Y-97333000D01*
X180844428Y-97285380D02*
X181082523Y-98285380D01*
X181273000Y-97571095D01*
X181463476Y-98285380D01*
X181701571Y-97285380D01*
X182034904Y-97380619D02*
X182082523Y-97333000D01*
X182177761Y-97285380D01*
X182415857Y-97285380D01*
X182511095Y-97333000D01*
X182558714Y-97380619D01*
X182606333Y-97475857D01*
X182606333Y-97571095D01*
X182558714Y-97713952D01*
X181987285Y-98285380D01*
X182606333Y-98285380D01*
X115423142Y-65282380D02*
X115089809Y-64806190D01*
X114851714Y-65282380D02*
X114851714Y-64282380D01*
X115232666Y-64282380D01*
X115327904Y-64330000D01*
X115375523Y-64377619D01*
X115423142Y-64472857D01*
X115423142Y-64615714D01*
X115375523Y-64710952D01*
X115327904Y-64758571D01*
X115232666Y-64806190D01*
X114851714Y-64806190D01*
X116375523Y-65282380D02*
X115804095Y-65282380D01*
X116089809Y-65282380D02*
X116089809Y-64282380D01*
X115994571Y-64425238D01*
X115899333Y-64520476D01*
X115804095Y-64568095D01*
X117280285Y-64282380D02*
X116804095Y-64282380D01*
X116756476Y-64758571D01*
X116804095Y-64710952D01*
X116899333Y-64663333D01*
X117137428Y-64663333D01*
X117232666Y-64710952D01*
X117280285Y-64758571D01*
X117327904Y-64853809D01*
X117327904Y-65091904D01*
X117280285Y-65187142D01*
X117232666Y-65234761D01*
X117137428Y-65282380D01*
X116899333Y-65282380D01*
X116804095Y-65234761D01*
X116756476Y-65187142D01*
X108368380Y-111558976D02*
X107892190Y-111892309D01*
X108368380Y-112130404D02*
X107368380Y-112130404D01*
X107368380Y-111749452D01*
X107416000Y-111654214D01*
X107463619Y-111606595D01*
X107558857Y-111558976D01*
X107701714Y-111558976D01*
X107796952Y-111606595D01*
X107844571Y-111654214D01*
X107892190Y-111749452D01*
X107892190Y-112130404D01*
X108368380Y-111130404D02*
X107368380Y-111130404D01*
X108368380Y-110558976D01*
X107368380Y-110558976D01*
X108368380Y-109558976D02*
X108368380Y-110130404D01*
X108368380Y-109844690D02*
X107368380Y-109844690D01*
X107511238Y-109939928D01*
X107606476Y-110035166D01*
X107654095Y-110130404D01*
X112686380Y-111558976D02*
X112210190Y-111892309D01*
X112686380Y-112130404D02*
X111686380Y-112130404D01*
X111686380Y-111749452D01*
X111734000Y-111654214D01*
X111781619Y-111606595D01*
X111876857Y-111558976D01*
X112019714Y-111558976D01*
X112114952Y-111606595D01*
X112162571Y-111654214D01*
X112210190Y-111749452D01*
X112210190Y-112130404D01*
X112686380Y-111130404D02*
X111686380Y-111130404D01*
X112686380Y-110558976D01*
X111686380Y-110558976D01*
X111781619Y-110130404D02*
X111734000Y-110082785D01*
X111686380Y-109987547D01*
X111686380Y-109749452D01*
X111734000Y-109654214D01*
X111781619Y-109606595D01*
X111876857Y-109558976D01*
X111972095Y-109558976D01*
X112114952Y-109606595D01*
X112686380Y-110178023D01*
X112686380Y-109558976D01*
X123368142Y-131863166D02*
X123415761Y-131910785D01*
X123463380Y-132053642D01*
X123463380Y-132148880D01*
X123415761Y-132291738D01*
X123320523Y-132386976D01*
X123225285Y-132434595D01*
X123034809Y-132482214D01*
X122891952Y-132482214D01*
X122701476Y-132434595D01*
X122606238Y-132386976D01*
X122511000Y-132291738D01*
X122463380Y-132148880D01*
X122463380Y-132053642D01*
X122511000Y-131910785D01*
X122558619Y-131863166D01*
X122463380Y-130958404D02*
X122463380Y-131434595D01*
X122939571Y-131482214D01*
X122891952Y-131434595D01*
X122844333Y-131339357D01*
X122844333Y-131101261D01*
X122891952Y-131006023D01*
X122939571Y-130958404D01*
X123034809Y-130910785D01*
X123272904Y-130910785D01*
X123368142Y-130958404D01*
X123415761Y-131006023D01*
X123463380Y-131101261D01*
X123463380Y-131339357D01*
X123415761Y-131434595D01*
X123368142Y-131482214D01*
X116375619Y-130839238D02*
X116328000Y-130934476D01*
X116232761Y-131029714D01*
X116089904Y-131172571D01*
X116042285Y-131267809D01*
X116042285Y-131363047D01*
X116280380Y-131315428D02*
X116232761Y-131410666D01*
X116137523Y-131505904D01*
X115947047Y-131553523D01*
X115613714Y-131553523D01*
X115423238Y-131505904D01*
X115328000Y-131410666D01*
X115280380Y-131315428D01*
X115280380Y-131124952D01*
X115328000Y-131029714D01*
X115423238Y-130934476D01*
X115613714Y-130886857D01*
X115947047Y-130886857D01*
X116137523Y-130934476D01*
X116232761Y-131029714D01*
X116280380Y-131124952D01*
X116280380Y-131315428D01*
X115375619Y-130505904D02*
X115328000Y-130458285D01*
X115280380Y-130363047D01*
X115280380Y-130124952D01*
X115328000Y-130029714D01*
X115375619Y-129982095D01*
X115470857Y-129934476D01*
X115566095Y-129934476D01*
X115708952Y-129982095D01*
X116280380Y-130553523D01*
X116280380Y-129934476D01*
X119606095Y-114456880D02*
X119606095Y-115266404D01*
X119653714Y-115361642D01*
X119701333Y-115409261D01*
X119796571Y-115456880D01*
X119987047Y-115456880D01*
X120082285Y-115409261D01*
X120129904Y-115361642D01*
X120177523Y-115266404D01*
X120177523Y-114456880D01*
X121177523Y-115456880D02*
X120606095Y-115456880D01*
X120891809Y-115456880D02*
X120891809Y-114456880D01*
X120796571Y-114599738D01*
X120701333Y-114694976D01*
X120606095Y-114742595D01*
X174454380Y-68299595D02*
X173454380Y-68299595D01*
X173454380Y-68061500D01*
X173502000Y-67918642D01*
X173597238Y-67823404D01*
X173692476Y-67775785D01*
X173882952Y-67728166D01*
X174025809Y-67728166D01*
X174216285Y-67775785D01*
X174311523Y-67823404D01*
X174406761Y-67918642D01*
X174454380Y-68061500D01*
X174454380Y-68299595D01*
X173549619Y-67347214D02*
X173502000Y-67299595D01*
X173454380Y-67204357D01*
X173454380Y-66966261D01*
X173502000Y-66871023D01*
X173549619Y-66823404D01*
X173644857Y-66775785D01*
X173740095Y-66775785D01*
X173882952Y-66823404D01*
X174454380Y-67394833D01*
X174454380Y-66775785D01*
X125794666Y-115061380D02*
X125794666Y-115775666D01*
X125747047Y-115918523D01*
X125651809Y-116013761D01*
X125508952Y-116061380D01*
X125413714Y-116061380D01*
X126270857Y-116061380D02*
X126270857Y-115061380D01*
X126651809Y-115061380D01*
X126747047Y-115109000D01*
X126794666Y-115156619D01*
X126842285Y-115251857D01*
X126842285Y-115394714D01*
X126794666Y-115489952D01*
X126747047Y-115537571D01*
X126651809Y-115585190D01*
X126270857Y-115585190D01*
X127794666Y-116061380D02*
X127223238Y-116061380D01*
X127508952Y-116061380D02*
X127508952Y-115061380D01*
X127413714Y-115204238D01*
X127318476Y-115299476D01*
X127223238Y-115347095D01*
X125757666Y-119379380D02*
X125757666Y-120093666D01*
X125710047Y-120236523D01*
X125614809Y-120331761D01*
X125471952Y-120379380D01*
X125376714Y-120379380D01*
X126233857Y-120379380D02*
X126233857Y-119379380D01*
X126614809Y-119379380D01*
X126710047Y-119427000D01*
X126757666Y-119474619D01*
X126805285Y-119569857D01*
X126805285Y-119712714D01*
X126757666Y-119807952D01*
X126710047Y-119855571D01*
X126614809Y-119903190D01*
X126233857Y-119903190D01*
X127186238Y-119474619D02*
X127233857Y-119427000D01*
X127329095Y-119379380D01*
X127567190Y-119379380D01*
X127662428Y-119427000D01*
X127710047Y-119474619D01*
X127757666Y-119569857D01*
X127757666Y-119665095D01*
X127710047Y-119807952D01*
X127138619Y-120379380D01*
X127757666Y-120379380D01*
M02*
