G04 #@! TF.GenerationSoftware,KiCad,Pcbnew,5.1.4+dfsg1-1*
G04 #@! TF.CreationDate,2020-12-14T22:30:58-06:00*
G04 #@! TF.ProjectId,HotBox,486f7442-6f78-42e6-9b69-6361645f7063,2*
G04 #@! TF.SameCoordinates,Original*
G04 #@! TF.FileFunction,Soldermask,Bot*
G04 #@! TF.FilePolarity,Negative*
%FSLAX46Y46*%
G04 Gerber Fmt 4.6, Leading zero omitted, Abs format (unit mm)*
G04 Created by KiCad (PCBNEW 5.1.4+dfsg1-1) date 2020-12-14 22:30:58*
%MOMM*%
%LPD*%
G04 APERTURE LIST*
%ADD10C,0.100000*%
G04 APERTURE END LIST*
D10*
G36*
X194748256Y-140224298D02*
G01*
X194854579Y-140245447D01*
X195155042Y-140369903D01*
X195425451Y-140550585D01*
X195655415Y-140780549D01*
X195836097Y-141050958D01*
X195960553Y-141351421D01*
X196024000Y-141670391D01*
X196024000Y-141995609D01*
X195960553Y-142314579D01*
X195836097Y-142615042D01*
X195655415Y-142885451D01*
X195425451Y-143115415D01*
X195155042Y-143296097D01*
X194854579Y-143420553D01*
X194748256Y-143441702D01*
X194535611Y-143484000D01*
X194210389Y-143484000D01*
X193997744Y-143441702D01*
X193891421Y-143420553D01*
X193590958Y-143296097D01*
X193320549Y-143115415D01*
X193090585Y-142885451D01*
X192909903Y-142615042D01*
X192785447Y-142314579D01*
X192722000Y-141995609D01*
X192722000Y-141670391D01*
X192785447Y-141351421D01*
X192909903Y-141050958D01*
X193090585Y-140780549D01*
X193320549Y-140550585D01*
X193590958Y-140369903D01*
X193891421Y-140245447D01*
X193997744Y-140224298D01*
X194210389Y-140182000D01*
X194535611Y-140182000D01*
X194748256Y-140224298D01*
X194748256Y-140224298D01*
G37*
G36*
X99748256Y-140224298D02*
G01*
X99854579Y-140245447D01*
X100155042Y-140369903D01*
X100425451Y-140550585D01*
X100655415Y-140780549D01*
X100836097Y-141050958D01*
X100960553Y-141351421D01*
X101024000Y-141670391D01*
X101024000Y-141995609D01*
X100960553Y-142314579D01*
X100836097Y-142615042D01*
X100655415Y-142885451D01*
X100425451Y-143115415D01*
X100155042Y-143296097D01*
X99854579Y-143420553D01*
X99748256Y-143441702D01*
X99535611Y-143484000D01*
X99210389Y-143484000D01*
X98997744Y-143441702D01*
X98891421Y-143420553D01*
X98590958Y-143296097D01*
X98320549Y-143115415D01*
X98090585Y-142885451D01*
X97909903Y-142615042D01*
X97785447Y-142314579D01*
X97722000Y-141995609D01*
X97722000Y-141670391D01*
X97785447Y-141351421D01*
X97909903Y-141050958D01*
X98090585Y-140780549D01*
X98320549Y-140550585D01*
X98590958Y-140369903D01*
X98891421Y-140245447D01*
X98997744Y-140224298D01*
X99210389Y-140182000D01*
X99535611Y-140182000D01*
X99748256Y-140224298D01*
X99748256Y-140224298D01*
G37*
G36*
X178879000Y-136998500D02*
G01*
X177427000Y-136998500D01*
X177427000Y-136046500D01*
X178879000Y-136046500D01*
X178879000Y-136998500D01*
X178879000Y-136998500D01*
G37*
G36*
X145279823Y-134494313D02*
G01*
X145440242Y-134542976D01*
X145572906Y-134613886D01*
X145588078Y-134621996D01*
X145717659Y-134728341D01*
X145824004Y-134857922D01*
X145824005Y-134857924D01*
X145903024Y-135005758D01*
X145951687Y-135166177D01*
X145968117Y-135333000D01*
X145951687Y-135499823D01*
X145903024Y-135660242D01*
X145832114Y-135792906D01*
X145824004Y-135808078D01*
X145717659Y-135937659D01*
X145588078Y-136044004D01*
X145588076Y-136044005D01*
X145440242Y-136123024D01*
X145279823Y-136171687D01*
X145154804Y-136184000D01*
X145071196Y-136184000D01*
X144946177Y-136171687D01*
X144785758Y-136123024D01*
X144637924Y-136044005D01*
X144637922Y-136044004D01*
X144508341Y-135937659D01*
X144401996Y-135808078D01*
X144393886Y-135792906D01*
X144322976Y-135660242D01*
X144274313Y-135499823D01*
X144257883Y-135333000D01*
X144274313Y-135166177D01*
X144322976Y-135005758D01*
X144401995Y-134857924D01*
X144401996Y-134857922D01*
X144508341Y-134728341D01*
X144637922Y-134621996D01*
X144653094Y-134613886D01*
X144785758Y-134542976D01*
X144946177Y-134494313D01*
X145071196Y-134482000D01*
X145154804Y-134482000D01*
X145279823Y-134494313D01*
X145279823Y-134494313D01*
G37*
G36*
X160519823Y-134494313D02*
G01*
X160680242Y-134542976D01*
X160812906Y-134613886D01*
X160828078Y-134621996D01*
X160957659Y-134728341D01*
X161064004Y-134857922D01*
X161064005Y-134857924D01*
X161143024Y-135005758D01*
X161191687Y-135166177D01*
X161208117Y-135333000D01*
X161191687Y-135499823D01*
X161143024Y-135660242D01*
X161072114Y-135792906D01*
X161064004Y-135808078D01*
X160957659Y-135937659D01*
X160828078Y-136044004D01*
X160828076Y-136044005D01*
X160680242Y-136123024D01*
X160519823Y-136171687D01*
X160394804Y-136184000D01*
X160311196Y-136184000D01*
X160186177Y-136171687D01*
X160025758Y-136123024D01*
X159877924Y-136044005D01*
X159877922Y-136044004D01*
X159748341Y-135937659D01*
X159641996Y-135808078D01*
X159633886Y-135792906D01*
X159562976Y-135660242D01*
X159514313Y-135499823D01*
X159497883Y-135333000D01*
X159514313Y-135166177D01*
X159562976Y-135005758D01*
X159641995Y-134857924D01*
X159641996Y-134857922D01*
X159748341Y-134728341D01*
X159877922Y-134621996D01*
X159893094Y-134613886D01*
X160025758Y-134542976D01*
X160186177Y-134494313D01*
X160311196Y-134482000D01*
X160394804Y-134482000D01*
X160519823Y-134494313D01*
X160519823Y-134494313D01*
G37*
G36*
X155439823Y-134494313D02*
G01*
X155600242Y-134542976D01*
X155732906Y-134613886D01*
X155748078Y-134621996D01*
X155877659Y-134728341D01*
X155984004Y-134857922D01*
X155984005Y-134857924D01*
X156063024Y-135005758D01*
X156111687Y-135166177D01*
X156128117Y-135333000D01*
X156111687Y-135499823D01*
X156063024Y-135660242D01*
X155992114Y-135792906D01*
X155984004Y-135808078D01*
X155877659Y-135937659D01*
X155748078Y-136044004D01*
X155748076Y-136044005D01*
X155600242Y-136123024D01*
X155439823Y-136171687D01*
X155314804Y-136184000D01*
X155231196Y-136184000D01*
X155106177Y-136171687D01*
X154945758Y-136123024D01*
X154797924Y-136044005D01*
X154797922Y-136044004D01*
X154668341Y-135937659D01*
X154561996Y-135808078D01*
X154553886Y-135792906D01*
X154482976Y-135660242D01*
X154434313Y-135499823D01*
X154417883Y-135333000D01*
X154434313Y-135166177D01*
X154482976Y-135005758D01*
X154561995Y-134857924D01*
X154561996Y-134857922D01*
X154668341Y-134728341D01*
X154797922Y-134621996D01*
X154813094Y-134613886D01*
X154945758Y-134542976D01*
X155106177Y-134494313D01*
X155231196Y-134482000D01*
X155314804Y-134482000D01*
X155439823Y-134494313D01*
X155439823Y-134494313D01*
G37*
G36*
X152899823Y-134494313D02*
G01*
X153060242Y-134542976D01*
X153192906Y-134613886D01*
X153208078Y-134621996D01*
X153337659Y-134728341D01*
X153444004Y-134857922D01*
X153444005Y-134857924D01*
X153523024Y-135005758D01*
X153571687Y-135166177D01*
X153588117Y-135333000D01*
X153571687Y-135499823D01*
X153523024Y-135660242D01*
X153452114Y-135792906D01*
X153444004Y-135808078D01*
X153337659Y-135937659D01*
X153208078Y-136044004D01*
X153208076Y-136044005D01*
X153060242Y-136123024D01*
X152899823Y-136171687D01*
X152774804Y-136184000D01*
X152691196Y-136184000D01*
X152566177Y-136171687D01*
X152405758Y-136123024D01*
X152257924Y-136044005D01*
X152257922Y-136044004D01*
X152128341Y-135937659D01*
X152021996Y-135808078D01*
X152013886Y-135792906D01*
X151942976Y-135660242D01*
X151894313Y-135499823D01*
X151877883Y-135333000D01*
X151894313Y-135166177D01*
X151942976Y-135005758D01*
X152021995Y-134857924D01*
X152021996Y-134857922D01*
X152128341Y-134728341D01*
X152257922Y-134621996D01*
X152273094Y-134613886D01*
X152405758Y-134542976D01*
X152566177Y-134494313D01*
X152691196Y-134482000D01*
X152774804Y-134482000D01*
X152899823Y-134494313D01*
X152899823Y-134494313D01*
G37*
G36*
X150359823Y-134494313D02*
G01*
X150520242Y-134542976D01*
X150652906Y-134613886D01*
X150668078Y-134621996D01*
X150797659Y-134728341D01*
X150904004Y-134857922D01*
X150904005Y-134857924D01*
X150983024Y-135005758D01*
X151031687Y-135166177D01*
X151048117Y-135333000D01*
X151031687Y-135499823D01*
X150983024Y-135660242D01*
X150912114Y-135792906D01*
X150904004Y-135808078D01*
X150797659Y-135937659D01*
X150668078Y-136044004D01*
X150668076Y-136044005D01*
X150520242Y-136123024D01*
X150359823Y-136171687D01*
X150234804Y-136184000D01*
X150151196Y-136184000D01*
X150026177Y-136171687D01*
X149865758Y-136123024D01*
X149717924Y-136044005D01*
X149717922Y-136044004D01*
X149588341Y-135937659D01*
X149481996Y-135808078D01*
X149473886Y-135792906D01*
X149402976Y-135660242D01*
X149354313Y-135499823D01*
X149337883Y-135333000D01*
X149354313Y-135166177D01*
X149402976Y-135005758D01*
X149481995Y-134857924D01*
X149481996Y-134857922D01*
X149588341Y-134728341D01*
X149717922Y-134621996D01*
X149733094Y-134613886D01*
X149865758Y-134542976D01*
X150026177Y-134494313D01*
X150151196Y-134482000D01*
X150234804Y-134482000D01*
X150359823Y-134494313D01*
X150359823Y-134494313D01*
G37*
G36*
X147819823Y-134494313D02*
G01*
X147980242Y-134542976D01*
X148112906Y-134613886D01*
X148128078Y-134621996D01*
X148257659Y-134728341D01*
X148364004Y-134857922D01*
X148364005Y-134857924D01*
X148443024Y-135005758D01*
X148491687Y-135166177D01*
X148508117Y-135333000D01*
X148491687Y-135499823D01*
X148443024Y-135660242D01*
X148372114Y-135792906D01*
X148364004Y-135808078D01*
X148257659Y-135937659D01*
X148128078Y-136044004D01*
X148128076Y-136044005D01*
X147980242Y-136123024D01*
X147819823Y-136171687D01*
X147694804Y-136184000D01*
X147611196Y-136184000D01*
X147486177Y-136171687D01*
X147325758Y-136123024D01*
X147177924Y-136044005D01*
X147177922Y-136044004D01*
X147048341Y-135937659D01*
X146941996Y-135808078D01*
X146933886Y-135792906D01*
X146862976Y-135660242D01*
X146814313Y-135499823D01*
X146797883Y-135333000D01*
X146814313Y-135166177D01*
X146862976Y-135005758D01*
X146941995Y-134857924D01*
X146941996Y-134857922D01*
X147048341Y-134728341D01*
X147177922Y-134621996D01*
X147193094Y-134613886D01*
X147325758Y-134542976D01*
X147486177Y-134494313D01*
X147611196Y-134482000D01*
X147694804Y-134482000D01*
X147819823Y-134494313D01*
X147819823Y-134494313D01*
G37*
G36*
X142739823Y-134494313D02*
G01*
X142900242Y-134542976D01*
X143032906Y-134613886D01*
X143048078Y-134621996D01*
X143177659Y-134728341D01*
X143284004Y-134857922D01*
X143284005Y-134857924D01*
X143363024Y-135005758D01*
X143411687Y-135166177D01*
X143428117Y-135333000D01*
X143411687Y-135499823D01*
X143363024Y-135660242D01*
X143292114Y-135792906D01*
X143284004Y-135808078D01*
X143177659Y-135937659D01*
X143048078Y-136044004D01*
X143048076Y-136044005D01*
X142900242Y-136123024D01*
X142739823Y-136171687D01*
X142614804Y-136184000D01*
X142531196Y-136184000D01*
X142406177Y-136171687D01*
X142245758Y-136123024D01*
X142097924Y-136044005D01*
X142097922Y-136044004D01*
X141968341Y-135937659D01*
X141861996Y-135808078D01*
X141853886Y-135792906D01*
X141782976Y-135660242D01*
X141734313Y-135499823D01*
X141717883Y-135333000D01*
X141734313Y-135166177D01*
X141782976Y-135005758D01*
X141861995Y-134857924D01*
X141861996Y-134857922D01*
X141968341Y-134728341D01*
X142097922Y-134621996D01*
X142113094Y-134613886D01*
X142245758Y-134542976D01*
X142406177Y-134494313D01*
X142531196Y-134482000D01*
X142614804Y-134482000D01*
X142739823Y-134494313D01*
X142739823Y-134494313D01*
G37*
G36*
X140199823Y-134494313D02*
G01*
X140360242Y-134542976D01*
X140492906Y-134613886D01*
X140508078Y-134621996D01*
X140637659Y-134728341D01*
X140744004Y-134857922D01*
X140744005Y-134857924D01*
X140823024Y-135005758D01*
X140871687Y-135166177D01*
X140888117Y-135333000D01*
X140871687Y-135499823D01*
X140823024Y-135660242D01*
X140752114Y-135792906D01*
X140744004Y-135808078D01*
X140637659Y-135937659D01*
X140508078Y-136044004D01*
X140508076Y-136044005D01*
X140360242Y-136123024D01*
X140199823Y-136171687D01*
X140074804Y-136184000D01*
X139991196Y-136184000D01*
X139866177Y-136171687D01*
X139705758Y-136123024D01*
X139557924Y-136044005D01*
X139557922Y-136044004D01*
X139428341Y-135937659D01*
X139321996Y-135808078D01*
X139313886Y-135792906D01*
X139242976Y-135660242D01*
X139194313Y-135499823D01*
X139177883Y-135333000D01*
X139194313Y-135166177D01*
X139242976Y-135005758D01*
X139321995Y-134857924D01*
X139321996Y-134857922D01*
X139428341Y-134728341D01*
X139557922Y-134621996D01*
X139573094Y-134613886D01*
X139705758Y-134542976D01*
X139866177Y-134494313D01*
X139991196Y-134482000D01*
X140074804Y-134482000D01*
X140199823Y-134494313D01*
X140199823Y-134494313D01*
G37*
G36*
X137659823Y-134494313D02*
G01*
X137820242Y-134542976D01*
X137952906Y-134613886D01*
X137968078Y-134621996D01*
X138097659Y-134728341D01*
X138204004Y-134857922D01*
X138204005Y-134857924D01*
X138283024Y-135005758D01*
X138331687Y-135166177D01*
X138348117Y-135333000D01*
X138331687Y-135499823D01*
X138283024Y-135660242D01*
X138212114Y-135792906D01*
X138204004Y-135808078D01*
X138097659Y-135937659D01*
X137968078Y-136044004D01*
X137968076Y-136044005D01*
X137820242Y-136123024D01*
X137659823Y-136171687D01*
X137534804Y-136184000D01*
X137451196Y-136184000D01*
X137326177Y-136171687D01*
X137165758Y-136123024D01*
X137017924Y-136044005D01*
X137017922Y-136044004D01*
X136888341Y-135937659D01*
X136781996Y-135808078D01*
X136773886Y-135792906D01*
X136702976Y-135660242D01*
X136654313Y-135499823D01*
X136637883Y-135333000D01*
X136654313Y-135166177D01*
X136702976Y-135005758D01*
X136781995Y-134857924D01*
X136781996Y-134857922D01*
X136888341Y-134728341D01*
X137017922Y-134621996D01*
X137033094Y-134613886D01*
X137165758Y-134542976D01*
X137326177Y-134494313D01*
X137451196Y-134482000D01*
X137534804Y-134482000D01*
X137659823Y-134494313D01*
X137659823Y-134494313D01*
G37*
G36*
X135119823Y-134494313D02*
G01*
X135280242Y-134542976D01*
X135412906Y-134613886D01*
X135428078Y-134621996D01*
X135557659Y-134728341D01*
X135664004Y-134857922D01*
X135664005Y-134857924D01*
X135743024Y-135005758D01*
X135791687Y-135166177D01*
X135808117Y-135333000D01*
X135791687Y-135499823D01*
X135743024Y-135660242D01*
X135672114Y-135792906D01*
X135664004Y-135808078D01*
X135557659Y-135937659D01*
X135428078Y-136044004D01*
X135428076Y-136044005D01*
X135280242Y-136123024D01*
X135119823Y-136171687D01*
X134994804Y-136184000D01*
X134911196Y-136184000D01*
X134786177Y-136171687D01*
X134625758Y-136123024D01*
X134477924Y-136044005D01*
X134477922Y-136044004D01*
X134348341Y-135937659D01*
X134241996Y-135808078D01*
X134233886Y-135792906D01*
X134162976Y-135660242D01*
X134114313Y-135499823D01*
X134097883Y-135333000D01*
X134114313Y-135166177D01*
X134162976Y-135005758D01*
X134241995Y-134857924D01*
X134241996Y-134857922D01*
X134348341Y-134728341D01*
X134477922Y-134621996D01*
X134493094Y-134613886D01*
X134625758Y-134542976D01*
X134786177Y-134494313D01*
X134911196Y-134482000D01*
X134994804Y-134482000D01*
X135119823Y-134494313D01*
X135119823Y-134494313D01*
G37*
G36*
X132579823Y-134494313D02*
G01*
X132740242Y-134542976D01*
X132872906Y-134613886D01*
X132888078Y-134621996D01*
X133017659Y-134728341D01*
X133124004Y-134857922D01*
X133124005Y-134857924D01*
X133203024Y-135005758D01*
X133251687Y-135166177D01*
X133268117Y-135333000D01*
X133251687Y-135499823D01*
X133203024Y-135660242D01*
X133132114Y-135792906D01*
X133124004Y-135808078D01*
X133017659Y-135937659D01*
X132888078Y-136044004D01*
X132888076Y-136044005D01*
X132740242Y-136123024D01*
X132579823Y-136171687D01*
X132454804Y-136184000D01*
X132371196Y-136184000D01*
X132246177Y-136171687D01*
X132085758Y-136123024D01*
X131937924Y-136044005D01*
X131937922Y-136044004D01*
X131808341Y-135937659D01*
X131701996Y-135808078D01*
X131693886Y-135792906D01*
X131622976Y-135660242D01*
X131574313Y-135499823D01*
X131557883Y-135333000D01*
X131574313Y-135166177D01*
X131622976Y-135005758D01*
X131701995Y-134857924D01*
X131701996Y-134857922D01*
X131808341Y-134728341D01*
X131937922Y-134621996D01*
X131953094Y-134613886D01*
X132085758Y-134542976D01*
X132246177Y-134494313D01*
X132371196Y-134482000D01*
X132454804Y-134482000D01*
X132579823Y-134494313D01*
X132579823Y-134494313D01*
G37*
G36*
X130724000Y-136184000D02*
G01*
X129022000Y-136184000D01*
X129022000Y-134482000D01*
X130724000Y-134482000D01*
X130724000Y-136184000D01*
X130724000Y-136184000D01*
G37*
G36*
X165599823Y-134494313D02*
G01*
X165760242Y-134542976D01*
X165892906Y-134613886D01*
X165908078Y-134621996D01*
X166037659Y-134728341D01*
X166144004Y-134857922D01*
X166144005Y-134857924D01*
X166223024Y-135005758D01*
X166271687Y-135166177D01*
X166288117Y-135333000D01*
X166271687Y-135499823D01*
X166223024Y-135660242D01*
X166152114Y-135792906D01*
X166144004Y-135808078D01*
X166037659Y-135937659D01*
X165908078Y-136044004D01*
X165908076Y-136044005D01*
X165760242Y-136123024D01*
X165599823Y-136171687D01*
X165474804Y-136184000D01*
X165391196Y-136184000D01*
X165266177Y-136171687D01*
X165105758Y-136123024D01*
X164957924Y-136044005D01*
X164957922Y-136044004D01*
X164828341Y-135937659D01*
X164721996Y-135808078D01*
X164713886Y-135792906D01*
X164642976Y-135660242D01*
X164594313Y-135499823D01*
X164577883Y-135333000D01*
X164594313Y-135166177D01*
X164642976Y-135005758D01*
X164721995Y-134857924D01*
X164721996Y-134857922D01*
X164828341Y-134728341D01*
X164957922Y-134621996D01*
X164973094Y-134613886D01*
X165105758Y-134542976D01*
X165266177Y-134494313D01*
X165391196Y-134482000D01*
X165474804Y-134482000D01*
X165599823Y-134494313D01*
X165599823Y-134494313D01*
G37*
G36*
X157979823Y-134494313D02*
G01*
X158140242Y-134542976D01*
X158272906Y-134613886D01*
X158288078Y-134621996D01*
X158417659Y-134728341D01*
X158524004Y-134857922D01*
X158524005Y-134857924D01*
X158603024Y-135005758D01*
X158651687Y-135166177D01*
X158668117Y-135333000D01*
X158651687Y-135499823D01*
X158603024Y-135660242D01*
X158532114Y-135792906D01*
X158524004Y-135808078D01*
X158417659Y-135937659D01*
X158288078Y-136044004D01*
X158288076Y-136044005D01*
X158140242Y-136123024D01*
X157979823Y-136171687D01*
X157854804Y-136184000D01*
X157771196Y-136184000D01*
X157646177Y-136171687D01*
X157485758Y-136123024D01*
X157337924Y-136044005D01*
X157337922Y-136044004D01*
X157208341Y-135937659D01*
X157101996Y-135808078D01*
X157093886Y-135792906D01*
X157022976Y-135660242D01*
X156974313Y-135499823D01*
X156957883Y-135333000D01*
X156974313Y-135166177D01*
X157022976Y-135005758D01*
X157101995Y-134857924D01*
X157101996Y-134857922D01*
X157208341Y-134728341D01*
X157337922Y-134621996D01*
X157353094Y-134613886D01*
X157485758Y-134542976D01*
X157646177Y-134494313D01*
X157771196Y-134482000D01*
X157854804Y-134482000D01*
X157979823Y-134494313D01*
X157979823Y-134494313D01*
G37*
G36*
X163059823Y-134494313D02*
G01*
X163220242Y-134542976D01*
X163352906Y-134613886D01*
X163368078Y-134621996D01*
X163497659Y-134728341D01*
X163604004Y-134857922D01*
X163604005Y-134857924D01*
X163683024Y-135005758D01*
X163731687Y-135166177D01*
X163748117Y-135333000D01*
X163731687Y-135499823D01*
X163683024Y-135660242D01*
X163612114Y-135792906D01*
X163604004Y-135808078D01*
X163497659Y-135937659D01*
X163368078Y-136044004D01*
X163368076Y-136044005D01*
X163220242Y-136123024D01*
X163059823Y-136171687D01*
X162934804Y-136184000D01*
X162851196Y-136184000D01*
X162726177Y-136171687D01*
X162565758Y-136123024D01*
X162417924Y-136044005D01*
X162417922Y-136044004D01*
X162288341Y-135937659D01*
X162181996Y-135808078D01*
X162173886Y-135792906D01*
X162102976Y-135660242D01*
X162054313Y-135499823D01*
X162037883Y-135333000D01*
X162054313Y-135166177D01*
X162102976Y-135005758D01*
X162181995Y-134857924D01*
X162181996Y-134857922D01*
X162288341Y-134728341D01*
X162417922Y-134621996D01*
X162433094Y-134613886D01*
X162565758Y-134542976D01*
X162726177Y-134494313D01*
X162851196Y-134482000D01*
X162934804Y-134482000D01*
X163059823Y-134494313D01*
X163059823Y-134494313D01*
G37*
G36*
X178879000Y-135188500D02*
G01*
X177427000Y-135188500D01*
X177427000Y-134236500D01*
X178879000Y-134236500D01*
X178879000Y-135188500D01*
X178879000Y-135188500D01*
G37*
G36*
X184961198Y-128875933D02*
G01*
X185252443Y-128933865D01*
X185801138Y-129161142D01*
X186294950Y-129491097D01*
X186714903Y-129911050D01*
X187044858Y-130404862D01*
X187272135Y-130953557D01*
X187388000Y-131536048D01*
X187388000Y-132129952D01*
X187272135Y-132712443D01*
X187044858Y-133261138D01*
X186714903Y-133754950D01*
X186294950Y-134174903D01*
X185801138Y-134504858D01*
X185801137Y-134504859D01*
X185801136Y-134504859D01*
X185709113Y-134542976D01*
X185252443Y-134732135D01*
X184961197Y-134790068D01*
X184669953Y-134848000D01*
X184076047Y-134848000D01*
X183784803Y-134790068D01*
X183493557Y-134732135D01*
X183036887Y-134542976D01*
X182944864Y-134504859D01*
X182944863Y-134504859D01*
X182944862Y-134504858D01*
X182451050Y-134174903D01*
X182031097Y-133754950D01*
X181701142Y-133261138D01*
X181473865Y-132712443D01*
X181358000Y-132129952D01*
X181358000Y-131536048D01*
X181473865Y-130953557D01*
X181701142Y-130404862D01*
X182031097Y-129911050D01*
X182451050Y-129491097D01*
X182944862Y-129161142D01*
X183493557Y-128933865D01*
X183784802Y-128875933D01*
X184076047Y-128818000D01*
X184669953Y-128818000D01*
X184961198Y-128875933D01*
X184961198Y-128875933D01*
G37*
G36*
X109961198Y-128875933D02*
G01*
X110252443Y-128933865D01*
X110801138Y-129161142D01*
X111294950Y-129491097D01*
X111714903Y-129911050D01*
X112044858Y-130404862D01*
X112272135Y-130953557D01*
X112388000Y-131536048D01*
X112388000Y-132129952D01*
X112272135Y-132712443D01*
X112044858Y-133261138D01*
X111714903Y-133754950D01*
X111294950Y-134174903D01*
X110801138Y-134504858D01*
X110801137Y-134504859D01*
X110801136Y-134504859D01*
X110709113Y-134542976D01*
X110252443Y-134732135D01*
X109961197Y-134790068D01*
X109669953Y-134848000D01*
X109076047Y-134848000D01*
X108784803Y-134790068D01*
X108493557Y-134732135D01*
X108036887Y-134542976D01*
X107944864Y-134504859D01*
X107944863Y-134504859D01*
X107944862Y-134504858D01*
X107451050Y-134174903D01*
X107031097Y-133754950D01*
X106701142Y-133261138D01*
X106473865Y-132712443D01*
X106358000Y-132129952D01*
X106358000Y-131536048D01*
X106473865Y-130953557D01*
X106701142Y-130404862D01*
X107031097Y-129911050D01*
X107451050Y-129491097D01*
X107944862Y-129161142D01*
X108493557Y-128933865D01*
X108784802Y-128875933D01*
X109076047Y-128818000D01*
X109669953Y-128818000D01*
X109961198Y-128875933D01*
X109961198Y-128875933D01*
G37*
G36*
X189513343Y-123616361D02*
G01*
X189532568Y-123618254D01*
X189618900Y-123644443D01*
X189705234Y-123670632D01*
X189864365Y-123755689D01*
X190003844Y-123870156D01*
X190118311Y-124009635D01*
X190203368Y-124168766D01*
X190255746Y-124341433D01*
X190273432Y-124521000D01*
X190255746Y-124700567D01*
X190203368Y-124873234D01*
X190118311Y-125032365D01*
X190003844Y-125171844D01*
X189864365Y-125286311D01*
X189705234Y-125371368D01*
X189618900Y-125397557D01*
X189532568Y-125423746D01*
X189513343Y-125425639D01*
X189397998Y-125437000D01*
X189008002Y-125437000D01*
X188892657Y-125425639D01*
X188873432Y-125423746D01*
X188700766Y-125371368D01*
X188541635Y-125286311D01*
X188402156Y-125171844D01*
X188287689Y-125032365D01*
X188202632Y-124873234D01*
X188150254Y-124700567D01*
X188132568Y-124521000D01*
X188150254Y-124341433D01*
X188202632Y-124168766D01*
X188287689Y-124009635D01*
X188402156Y-123870156D01*
X188541635Y-123755689D01*
X188700766Y-123670632D01*
X188787100Y-123644443D01*
X188873432Y-123618254D01*
X188892657Y-123616361D01*
X189008002Y-123605000D01*
X189397998Y-123605000D01*
X189513343Y-123616361D01*
X189513343Y-123616361D01*
G37*
G36*
X189513343Y-121076361D02*
G01*
X189532568Y-121078254D01*
X189705234Y-121130632D01*
X189864365Y-121215689D01*
X190003844Y-121330156D01*
X190118311Y-121469635D01*
X190203368Y-121628766D01*
X190255746Y-121801433D01*
X190273432Y-121981000D01*
X190255746Y-122160567D01*
X190203368Y-122333234D01*
X190118311Y-122492365D01*
X190003844Y-122631844D01*
X189864365Y-122746311D01*
X189705234Y-122831368D01*
X189532568Y-122883746D01*
X189513343Y-122885639D01*
X189397998Y-122897000D01*
X189008002Y-122897000D01*
X188892657Y-122885639D01*
X188873432Y-122883746D01*
X188700766Y-122831368D01*
X188541635Y-122746311D01*
X188402156Y-122631844D01*
X188287689Y-122492365D01*
X188202632Y-122333234D01*
X188150254Y-122160567D01*
X188132568Y-121981000D01*
X188150254Y-121801433D01*
X188202632Y-121628766D01*
X188287689Y-121469635D01*
X188402156Y-121330156D01*
X188541635Y-121215689D01*
X188700766Y-121130632D01*
X188787100Y-121104443D01*
X188873432Y-121078254D01*
X188892657Y-121076361D01*
X189008002Y-121065000D01*
X189397998Y-121065000D01*
X189513343Y-121076361D01*
X189513343Y-121076361D01*
G37*
G36*
X187179601Y-121395397D02*
G01*
X187218305Y-121403096D01*
X187250340Y-121416365D01*
X187327680Y-121448400D01*
X187426115Y-121514173D01*
X187509827Y-121597885D01*
X187575600Y-121696320D01*
X187607635Y-121773660D01*
X187620904Y-121805695D01*
X187644000Y-121921807D01*
X187644000Y-122040193D01*
X187620904Y-122156305D01*
X187619138Y-122160568D01*
X187575600Y-122265680D01*
X187509827Y-122364115D01*
X187426115Y-122447827D01*
X187327680Y-122513600D01*
X187250340Y-122545635D01*
X187218305Y-122558904D01*
X187179601Y-122566603D01*
X187102195Y-122582000D01*
X186983805Y-122582000D01*
X186906399Y-122566603D01*
X186867695Y-122558904D01*
X186835660Y-122545635D01*
X186758320Y-122513600D01*
X186659885Y-122447827D01*
X186576173Y-122364115D01*
X186510400Y-122265680D01*
X186466862Y-122160568D01*
X186465096Y-122156305D01*
X186442000Y-122040193D01*
X186442000Y-121921807D01*
X186465096Y-121805695D01*
X186478365Y-121773660D01*
X186510400Y-121696320D01*
X186576173Y-121597885D01*
X186659885Y-121514173D01*
X186758320Y-121448400D01*
X186835660Y-121416365D01*
X186867695Y-121403096D01*
X186906399Y-121395397D01*
X186983805Y-121380000D01*
X187102195Y-121380000D01*
X187179601Y-121395397D01*
X187179601Y-121395397D01*
G37*
G36*
X150359823Y-119254313D02*
G01*
X150520242Y-119302976D01*
X150652906Y-119373886D01*
X150668078Y-119381996D01*
X150797659Y-119488341D01*
X150904004Y-119617922D01*
X150904005Y-119617924D01*
X150983024Y-119765758D01*
X151031687Y-119926177D01*
X151048117Y-120093000D01*
X151031687Y-120259823D01*
X150983024Y-120420242D01*
X150912114Y-120552906D01*
X150904004Y-120568078D01*
X150797659Y-120697659D01*
X150668078Y-120804004D01*
X150668076Y-120804005D01*
X150520242Y-120883024D01*
X150359823Y-120931687D01*
X150234804Y-120944000D01*
X150151196Y-120944000D01*
X150026177Y-120931687D01*
X149865758Y-120883024D01*
X149717924Y-120804005D01*
X149717922Y-120804004D01*
X149588341Y-120697659D01*
X149481996Y-120568078D01*
X149473886Y-120552906D01*
X149402976Y-120420242D01*
X149354313Y-120259823D01*
X149337883Y-120093000D01*
X149354313Y-119926177D01*
X149402976Y-119765758D01*
X149481995Y-119617924D01*
X149481996Y-119617922D01*
X149588341Y-119488341D01*
X149717922Y-119381996D01*
X149733094Y-119373886D01*
X149865758Y-119302976D01*
X150026177Y-119254313D01*
X150151196Y-119242000D01*
X150234804Y-119242000D01*
X150359823Y-119254313D01*
X150359823Y-119254313D01*
G37*
G36*
X135119823Y-119254313D02*
G01*
X135280242Y-119302976D01*
X135412906Y-119373886D01*
X135428078Y-119381996D01*
X135557659Y-119488341D01*
X135664004Y-119617922D01*
X135664005Y-119617924D01*
X135743024Y-119765758D01*
X135791687Y-119926177D01*
X135808117Y-120093000D01*
X135791687Y-120259823D01*
X135743024Y-120420242D01*
X135672114Y-120552906D01*
X135664004Y-120568078D01*
X135557659Y-120697659D01*
X135428078Y-120804004D01*
X135428076Y-120804005D01*
X135280242Y-120883024D01*
X135119823Y-120931687D01*
X134994804Y-120944000D01*
X134911196Y-120944000D01*
X134786177Y-120931687D01*
X134625758Y-120883024D01*
X134477924Y-120804005D01*
X134477922Y-120804004D01*
X134348341Y-120697659D01*
X134241996Y-120568078D01*
X134233886Y-120552906D01*
X134162976Y-120420242D01*
X134114313Y-120259823D01*
X134097883Y-120093000D01*
X134114313Y-119926177D01*
X134162976Y-119765758D01*
X134241995Y-119617924D01*
X134241996Y-119617922D01*
X134348341Y-119488341D01*
X134477922Y-119381996D01*
X134493094Y-119373886D01*
X134625758Y-119302976D01*
X134786177Y-119254313D01*
X134911196Y-119242000D01*
X134994804Y-119242000D01*
X135119823Y-119254313D01*
X135119823Y-119254313D01*
G37*
G36*
X137659823Y-119254313D02*
G01*
X137820242Y-119302976D01*
X137952906Y-119373886D01*
X137968078Y-119381996D01*
X138097659Y-119488341D01*
X138204004Y-119617922D01*
X138204005Y-119617924D01*
X138283024Y-119765758D01*
X138331687Y-119926177D01*
X138348117Y-120093000D01*
X138331687Y-120259823D01*
X138283024Y-120420242D01*
X138212114Y-120552906D01*
X138204004Y-120568078D01*
X138097659Y-120697659D01*
X137968078Y-120804004D01*
X137968076Y-120804005D01*
X137820242Y-120883024D01*
X137659823Y-120931687D01*
X137534804Y-120944000D01*
X137451196Y-120944000D01*
X137326177Y-120931687D01*
X137165758Y-120883024D01*
X137017924Y-120804005D01*
X137017922Y-120804004D01*
X136888341Y-120697659D01*
X136781996Y-120568078D01*
X136773886Y-120552906D01*
X136702976Y-120420242D01*
X136654313Y-120259823D01*
X136637883Y-120093000D01*
X136654313Y-119926177D01*
X136702976Y-119765758D01*
X136781995Y-119617924D01*
X136781996Y-119617922D01*
X136888341Y-119488341D01*
X137017922Y-119381996D01*
X137033094Y-119373886D01*
X137165758Y-119302976D01*
X137326177Y-119254313D01*
X137451196Y-119242000D01*
X137534804Y-119242000D01*
X137659823Y-119254313D01*
X137659823Y-119254313D01*
G37*
G36*
X130039823Y-119254313D02*
G01*
X130200242Y-119302976D01*
X130332906Y-119373886D01*
X130348078Y-119381996D01*
X130477659Y-119488341D01*
X130584004Y-119617922D01*
X130584005Y-119617924D01*
X130663024Y-119765758D01*
X130711687Y-119926177D01*
X130728117Y-120093000D01*
X130711687Y-120259823D01*
X130663024Y-120420242D01*
X130592114Y-120552906D01*
X130584004Y-120568078D01*
X130477659Y-120697659D01*
X130348078Y-120804004D01*
X130348076Y-120804005D01*
X130200242Y-120883024D01*
X130039823Y-120931687D01*
X129914804Y-120944000D01*
X129831196Y-120944000D01*
X129706177Y-120931687D01*
X129545758Y-120883024D01*
X129397924Y-120804005D01*
X129397922Y-120804004D01*
X129268341Y-120697659D01*
X129161996Y-120568078D01*
X129153886Y-120552906D01*
X129082976Y-120420242D01*
X129034313Y-120259823D01*
X129017883Y-120093000D01*
X129034313Y-119926177D01*
X129082976Y-119765758D01*
X129161995Y-119617924D01*
X129161996Y-119617922D01*
X129268341Y-119488341D01*
X129397922Y-119381996D01*
X129413094Y-119373886D01*
X129545758Y-119302976D01*
X129706177Y-119254313D01*
X129831196Y-119242000D01*
X129914804Y-119242000D01*
X130039823Y-119254313D01*
X130039823Y-119254313D01*
G37*
G36*
X140199823Y-119254313D02*
G01*
X140360242Y-119302976D01*
X140492906Y-119373886D01*
X140508078Y-119381996D01*
X140637659Y-119488341D01*
X140744004Y-119617922D01*
X140744005Y-119617924D01*
X140823024Y-119765758D01*
X140871687Y-119926177D01*
X140888117Y-120093000D01*
X140871687Y-120259823D01*
X140823024Y-120420242D01*
X140752114Y-120552906D01*
X140744004Y-120568078D01*
X140637659Y-120697659D01*
X140508078Y-120804004D01*
X140508076Y-120804005D01*
X140360242Y-120883024D01*
X140199823Y-120931687D01*
X140074804Y-120944000D01*
X139991196Y-120944000D01*
X139866177Y-120931687D01*
X139705758Y-120883024D01*
X139557924Y-120804005D01*
X139557922Y-120804004D01*
X139428341Y-120697659D01*
X139321996Y-120568078D01*
X139313886Y-120552906D01*
X139242976Y-120420242D01*
X139194313Y-120259823D01*
X139177883Y-120093000D01*
X139194313Y-119926177D01*
X139242976Y-119765758D01*
X139321995Y-119617924D01*
X139321996Y-119617922D01*
X139428341Y-119488341D01*
X139557922Y-119381996D01*
X139573094Y-119373886D01*
X139705758Y-119302976D01*
X139866177Y-119254313D01*
X139991196Y-119242000D01*
X140074804Y-119242000D01*
X140199823Y-119254313D01*
X140199823Y-119254313D01*
G37*
G36*
X142739823Y-119254313D02*
G01*
X142900242Y-119302976D01*
X143032906Y-119373886D01*
X143048078Y-119381996D01*
X143177659Y-119488341D01*
X143284004Y-119617922D01*
X143284005Y-119617924D01*
X143363024Y-119765758D01*
X143411687Y-119926177D01*
X143428117Y-120093000D01*
X143411687Y-120259823D01*
X143363024Y-120420242D01*
X143292114Y-120552906D01*
X143284004Y-120568078D01*
X143177659Y-120697659D01*
X143048078Y-120804004D01*
X143048076Y-120804005D01*
X142900242Y-120883024D01*
X142739823Y-120931687D01*
X142614804Y-120944000D01*
X142531196Y-120944000D01*
X142406177Y-120931687D01*
X142245758Y-120883024D01*
X142097924Y-120804005D01*
X142097922Y-120804004D01*
X141968341Y-120697659D01*
X141861996Y-120568078D01*
X141853886Y-120552906D01*
X141782976Y-120420242D01*
X141734313Y-120259823D01*
X141717883Y-120093000D01*
X141734313Y-119926177D01*
X141782976Y-119765758D01*
X141861995Y-119617924D01*
X141861996Y-119617922D01*
X141968341Y-119488341D01*
X142097922Y-119381996D01*
X142113094Y-119373886D01*
X142245758Y-119302976D01*
X142406177Y-119254313D01*
X142531196Y-119242000D01*
X142614804Y-119242000D01*
X142739823Y-119254313D01*
X142739823Y-119254313D01*
G37*
G36*
X145279823Y-119254313D02*
G01*
X145440242Y-119302976D01*
X145572906Y-119373886D01*
X145588078Y-119381996D01*
X145717659Y-119488341D01*
X145824004Y-119617922D01*
X145824005Y-119617924D01*
X145903024Y-119765758D01*
X145951687Y-119926177D01*
X145968117Y-120093000D01*
X145951687Y-120259823D01*
X145903024Y-120420242D01*
X145832114Y-120552906D01*
X145824004Y-120568078D01*
X145717659Y-120697659D01*
X145588078Y-120804004D01*
X145588076Y-120804005D01*
X145440242Y-120883024D01*
X145279823Y-120931687D01*
X145154804Y-120944000D01*
X145071196Y-120944000D01*
X144946177Y-120931687D01*
X144785758Y-120883024D01*
X144637924Y-120804005D01*
X144637922Y-120804004D01*
X144508341Y-120697659D01*
X144401996Y-120568078D01*
X144393886Y-120552906D01*
X144322976Y-120420242D01*
X144274313Y-120259823D01*
X144257883Y-120093000D01*
X144274313Y-119926177D01*
X144322976Y-119765758D01*
X144401995Y-119617924D01*
X144401996Y-119617922D01*
X144508341Y-119488341D01*
X144637922Y-119381996D01*
X144653094Y-119373886D01*
X144785758Y-119302976D01*
X144946177Y-119254313D01*
X145071196Y-119242000D01*
X145154804Y-119242000D01*
X145279823Y-119254313D01*
X145279823Y-119254313D01*
G37*
G36*
X147819823Y-119254313D02*
G01*
X147980242Y-119302976D01*
X148112906Y-119373886D01*
X148128078Y-119381996D01*
X148257659Y-119488341D01*
X148364004Y-119617922D01*
X148364005Y-119617924D01*
X148443024Y-119765758D01*
X148491687Y-119926177D01*
X148508117Y-120093000D01*
X148491687Y-120259823D01*
X148443024Y-120420242D01*
X148372114Y-120552906D01*
X148364004Y-120568078D01*
X148257659Y-120697659D01*
X148128078Y-120804004D01*
X148128076Y-120804005D01*
X147980242Y-120883024D01*
X147819823Y-120931687D01*
X147694804Y-120944000D01*
X147611196Y-120944000D01*
X147486177Y-120931687D01*
X147325758Y-120883024D01*
X147177924Y-120804005D01*
X147177922Y-120804004D01*
X147048341Y-120697659D01*
X146941996Y-120568078D01*
X146933886Y-120552906D01*
X146862976Y-120420242D01*
X146814313Y-120259823D01*
X146797883Y-120093000D01*
X146814313Y-119926177D01*
X146862976Y-119765758D01*
X146941995Y-119617924D01*
X146941996Y-119617922D01*
X147048341Y-119488341D01*
X147177922Y-119381996D01*
X147193094Y-119373886D01*
X147325758Y-119302976D01*
X147486177Y-119254313D01*
X147611196Y-119242000D01*
X147694804Y-119242000D01*
X147819823Y-119254313D01*
X147819823Y-119254313D01*
G37*
G36*
X132579823Y-119254313D02*
G01*
X132740242Y-119302976D01*
X132872906Y-119373886D01*
X132888078Y-119381996D01*
X133017659Y-119488341D01*
X133124004Y-119617922D01*
X133124005Y-119617924D01*
X133203024Y-119765758D01*
X133251687Y-119926177D01*
X133268117Y-120093000D01*
X133251687Y-120259823D01*
X133203024Y-120420242D01*
X133132114Y-120552906D01*
X133124004Y-120568078D01*
X133017659Y-120697659D01*
X132888078Y-120804004D01*
X132888076Y-120804005D01*
X132740242Y-120883024D01*
X132579823Y-120931687D01*
X132454804Y-120944000D01*
X132371196Y-120944000D01*
X132246177Y-120931687D01*
X132085758Y-120883024D01*
X131937924Y-120804005D01*
X131937922Y-120804004D01*
X131808341Y-120697659D01*
X131701996Y-120568078D01*
X131693886Y-120552906D01*
X131622976Y-120420242D01*
X131574313Y-120259823D01*
X131557883Y-120093000D01*
X131574313Y-119926177D01*
X131622976Y-119765758D01*
X131701995Y-119617924D01*
X131701996Y-119617922D01*
X131808341Y-119488341D01*
X131937922Y-119381996D01*
X131953094Y-119373886D01*
X132085758Y-119302976D01*
X132246177Y-119254313D01*
X132371196Y-119242000D01*
X132454804Y-119242000D01*
X132579823Y-119254313D01*
X132579823Y-119254313D01*
G37*
G36*
X160519823Y-119254313D02*
G01*
X160680242Y-119302976D01*
X160812906Y-119373886D01*
X160828078Y-119381996D01*
X160957659Y-119488341D01*
X161064004Y-119617922D01*
X161064005Y-119617924D01*
X161143024Y-119765758D01*
X161191687Y-119926177D01*
X161208117Y-120093000D01*
X161191687Y-120259823D01*
X161143024Y-120420242D01*
X161072114Y-120552906D01*
X161064004Y-120568078D01*
X160957659Y-120697659D01*
X160828078Y-120804004D01*
X160828076Y-120804005D01*
X160680242Y-120883024D01*
X160519823Y-120931687D01*
X160394804Y-120944000D01*
X160311196Y-120944000D01*
X160186177Y-120931687D01*
X160025758Y-120883024D01*
X159877924Y-120804005D01*
X159877922Y-120804004D01*
X159748341Y-120697659D01*
X159641996Y-120568078D01*
X159633886Y-120552906D01*
X159562976Y-120420242D01*
X159514313Y-120259823D01*
X159497883Y-120093000D01*
X159514313Y-119926177D01*
X159562976Y-119765758D01*
X159641995Y-119617924D01*
X159641996Y-119617922D01*
X159748341Y-119488341D01*
X159877922Y-119381996D01*
X159893094Y-119373886D01*
X160025758Y-119302976D01*
X160186177Y-119254313D01*
X160311196Y-119242000D01*
X160394804Y-119242000D01*
X160519823Y-119254313D01*
X160519823Y-119254313D01*
G37*
G36*
X155439823Y-119254313D02*
G01*
X155600242Y-119302976D01*
X155732906Y-119373886D01*
X155748078Y-119381996D01*
X155877659Y-119488341D01*
X155984004Y-119617922D01*
X155984005Y-119617924D01*
X156063024Y-119765758D01*
X156111687Y-119926177D01*
X156128117Y-120093000D01*
X156111687Y-120259823D01*
X156063024Y-120420242D01*
X155992114Y-120552906D01*
X155984004Y-120568078D01*
X155877659Y-120697659D01*
X155748078Y-120804004D01*
X155748076Y-120804005D01*
X155600242Y-120883024D01*
X155439823Y-120931687D01*
X155314804Y-120944000D01*
X155231196Y-120944000D01*
X155106177Y-120931687D01*
X154945758Y-120883024D01*
X154797924Y-120804005D01*
X154797922Y-120804004D01*
X154668341Y-120697659D01*
X154561996Y-120568078D01*
X154553886Y-120552906D01*
X154482976Y-120420242D01*
X154434313Y-120259823D01*
X154417883Y-120093000D01*
X154434313Y-119926177D01*
X154482976Y-119765758D01*
X154561995Y-119617924D01*
X154561996Y-119617922D01*
X154668341Y-119488341D01*
X154797922Y-119381996D01*
X154813094Y-119373886D01*
X154945758Y-119302976D01*
X155106177Y-119254313D01*
X155231196Y-119242000D01*
X155314804Y-119242000D01*
X155439823Y-119254313D01*
X155439823Y-119254313D01*
G37*
G36*
X152899823Y-119254313D02*
G01*
X153060242Y-119302976D01*
X153192906Y-119373886D01*
X153208078Y-119381996D01*
X153337659Y-119488341D01*
X153444004Y-119617922D01*
X153444005Y-119617924D01*
X153523024Y-119765758D01*
X153571687Y-119926177D01*
X153588117Y-120093000D01*
X153571687Y-120259823D01*
X153523024Y-120420242D01*
X153452114Y-120552906D01*
X153444004Y-120568078D01*
X153337659Y-120697659D01*
X153208078Y-120804004D01*
X153208076Y-120804005D01*
X153060242Y-120883024D01*
X152899823Y-120931687D01*
X152774804Y-120944000D01*
X152691196Y-120944000D01*
X152566177Y-120931687D01*
X152405758Y-120883024D01*
X152257924Y-120804005D01*
X152257922Y-120804004D01*
X152128341Y-120697659D01*
X152021996Y-120568078D01*
X152013886Y-120552906D01*
X151942976Y-120420242D01*
X151894313Y-120259823D01*
X151877883Y-120093000D01*
X151894313Y-119926177D01*
X151942976Y-119765758D01*
X152021995Y-119617924D01*
X152021996Y-119617922D01*
X152128341Y-119488341D01*
X152257922Y-119381996D01*
X152273094Y-119373886D01*
X152405758Y-119302976D01*
X152566177Y-119254313D01*
X152691196Y-119242000D01*
X152774804Y-119242000D01*
X152899823Y-119254313D01*
X152899823Y-119254313D01*
G37*
G36*
X157979823Y-119254313D02*
G01*
X158140242Y-119302976D01*
X158272906Y-119373886D01*
X158288078Y-119381996D01*
X158417659Y-119488341D01*
X158524004Y-119617922D01*
X158524005Y-119617924D01*
X158603024Y-119765758D01*
X158651687Y-119926177D01*
X158668117Y-120093000D01*
X158651687Y-120259823D01*
X158603024Y-120420242D01*
X158532114Y-120552906D01*
X158524004Y-120568078D01*
X158417659Y-120697659D01*
X158288078Y-120804004D01*
X158288076Y-120804005D01*
X158140242Y-120883024D01*
X157979823Y-120931687D01*
X157854804Y-120944000D01*
X157771196Y-120944000D01*
X157646177Y-120931687D01*
X157485758Y-120883024D01*
X157337924Y-120804005D01*
X157337922Y-120804004D01*
X157208341Y-120697659D01*
X157101996Y-120568078D01*
X157093886Y-120552906D01*
X157022976Y-120420242D01*
X156974313Y-120259823D01*
X156957883Y-120093000D01*
X156974313Y-119926177D01*
X157022976Y-119765758D01*
X157101995Y-119617924D01*
X157101996Y-119617922D01*
X157208341Y-119488341D01*
X157337922Y-119381996D01*
X157353094Y-119373886D01*
X157485758Y-119302976D01*
X157646177Y-119254313D01*
X157771196Y-119242000D01*
X157854804Y-119242000D01*
X157979823Y-119254313D01*
X157979823Y-119254313D01*
G37*
G36*
X163059823Y-119254313D02*
G01*
X163220242Y-119302976D01*
X163352906Y-119373886D01*
X163368078Y-119381996D01*
X163497659Y-119488341D01*
X163604004Y-119617922D01*
X163604005Y-119617924D01*
X163683024Y-119765758D01*
X163731687Y-119926177D01*
X163748117Y-120093000D01*
X163731687Y-120259823D01*
X163683024Y-120420242D01*
X163612114Y-120552906D01*
X163604004Y-120568078D01*
X163497659Y-120697659D01*
X163368078Y-120804004D01*
X163368076Y-120804005D01*
X163220242Y-120883024D01*
X163059823Y-120931687D01*
X162934804Y-120944000D01*
X162851196Y-120944000D01*
X162726177Y-120931687D01*
X162565758Y-120883024D01*
X162417924Y-120804005D01*
X162417922Y-120804004D01*
X162288341Y-120697659D01*
X162181996Y-120568078D01*
X162173886Y-120552906D01*
X162102976Y-120420242D01*
X162054313Y-120259823D01*
X162037883Y-120093000D01*
X162054313Y-119926177D01*
X162102976Y-119765758D01*
X162181995Y-119617924D01*
X162181996Y-119617922D01*
X162288341Y-119488341D01*
X162417922Y-119381996D01*
X162433094Y-119373886D01*
X162565758Y-119302976D01*
X162726177Y-119254313D01*
X162851196Y-119242000D01*
X162934804Y-119242000D01*
X163059823Y-119254313D01*
X163059823Y-119254313D01*
G37*
G36*
X165599823Y-119254313D02*
G01*
X165760242Y-119302976D01*
X165892906Y-119373886D01*
X165908078Y-119381996D01*
X166037659Y-119488341D01*
X166144004Y-119617922D01*
X166144005Y-119617924D01*
X166223024Y-119765758D01*
X166271687Y-119926177D01*
X166288117Y-120093000D01*
X166271687Y-120259823D01*
X166223024Y-120420242D01*
X166152114Y-120552906D01*
X166144004Y-120568078D01*
X166037659Y-120697659D01*
X165908078Y-120804004D01*
X165908076Y-120804005D01*
X165760242Y-120883024D01*
X165599823Y-120931687D01*
X165474804Y-120944000D01*
X165391196Y-120944000D01*
X165266177Y-120931687D01*
X165105758Y-120883024D01*
X164957924Y-120804005D01*
X164957922Y-120804004D01*
X164828341Y-120697659D01*
X164721996Y-120568078D01*
X164713886Y-120552906D01*
X164642976Y-120420242D01*
X164594313Y-120259823D01*
X164577883Y-120093000D01*
X164594313Y-119926177D01*
X164642976Y-119765758D01*
X164721995Y-119617924D01*
X164721996Y-119617922D01*
X164828341Y-119488341D01*
X164957922Y-119381996D01*
X164973094Y-119373886D01*
X165105758Y-119302976D01*
X165266177Y-119254313D01*
X165391196Y-119242000D01*
X165474804Y-119242000D01*
X165599823Y-119254313D01*
X165599823Y-119254313D01*
G37*
G36*
X189513343Y-118536361D02*
G01*
X189532568Y-118538254D01*
X189618900Y-118564443D01*
X189705234Y-118590632D01*
X189864365Y-118675689D01*
X190003844Y-118790156D01*
X190118311Y-118929635D01*
X190203368Y-119088766D01*
X190203368Y-119088767D01*
X190253587Y-119254314D01*
X190255746Y-119261433D01*
X190273432Y-119441000D01*
X190255746Y-119620567D01*
X190203368Y-119793234D01*
X190118311Y-119952365D01*
X190003844Y-120091844D01*
X189864365Y-120206311D01*
X189705234Y-120291368D01*
X189532568Y-120343746D01*
X189513343Y-120345639D01*
X189397998Y-120357000D01*
X189008002Y-120357000D01*
X188892657Y-120345639D01*
X188873432Y-120343746D01*
X188700766Y-120291368D01*
X188541635Y-120206311D01*
X188402156Y-120091844D01*
X188287689Y-119952365D01*
X188202632Y-119793234D01*
X188150254Y-119620567D01*
X188132568Y-119441000D01*
X188150254Y-119261433D01*
X188152414Y-119254314D01*
X188202632Y-119088767D01*
X188202632Y-119088766D01*
X188287689Y-118929635D01*
X188402156Y-118790156D01*
X188541635Y-118675689D01*
X188700766Y-118590632D01*
X188787100Y-118564443D01*
X188873432Y-118538254D01*
X188892657Y-118536361D01*
X189008002Y-118525000D01*
X189397998Y-118525000D01*
X189513343Y-118536361D01*
X189513343Y-118536361D01*
G37*
G36*
X190269000Y-117817000D02*
G01*
X188137000Y-117817000D01*
X188137000Y-115985000D01*
X190269000Y-115985000D01*
X190269000Y-117817000D01*
X190269000Y-117817000D01*
G37*
G36*
X125252487Y-113081996D02*
G01*
X125489253Y-113180068D01*
X125489255Y-113180069D01*
X125702339Y-113322447D01*
X125883553Y-113503661D01*
X126025932Y-113716747D01*
X126124004Y-113953513D01*
X126174000Y-114204861D01*
X126174000Y-114461139D01*
X126124004Y-114712487D01*
X126025932Y-114949253D01*
X126025931Y-114949255D01*
X125883553Y-115162339D01*
X125702339Y-115343553D01*
X125489255Y-115485931D01*
X125489254Y-115485932D01*
X125489253Y-115485932D01*
X125252487Y-115584004D01*
X125001139Y-115634000D01*
X124744861Y-115634000D01*
X124493513Y-115584004D01*
X124256747Y-115485932D01*
X124256746Y-115485932D01*
X124256745Y-115485931D01*
X124043661Y-115343553D01*
X123862447Y-115162339D01*
X123720069Y-114949255D01*
X123720068Y-114949253D01*
X123621996Y-114712487D01*
X123572000Y-114461139D01*
X123572000Y-114204861D01*
X123621996Y-113953513D01*
X123720068Y-113716747D01*
X123862447Y-113503661D01*
X124043661Y-113322447D01*
X124256745Y-113180069D01*
X124256747Y-113180068D01*
X124493513Y-113081996D01*
X124744861Y-113032000D01*
X125001139Y-113032000D01*
X125252487Y-113081996D01*
X125252487Y-113081996D01*
G37*
G36*
X189559000Y-107859000D02*
G01*
X188607000Y-107859000D01*
X188607000Y-106407000D01*
X189559000Y-106407000D01*
X189559000Y-107859000D01*
X189559000Y-107859000D01*
G37*
G36*
X187749000Y-107859000D02*
G01*
X186797000Y-107859000D01*
X186797000Y-106407000D01*
X187749000Y-106407000D01*
X187749000Y-107859000D01*
X187749000Y-107859000D01*
G37*
G36*
X106486512Y-104716927D02*
G01*
X106635812Y-104746624D01*
X106799784Y-104814544D01*
X106947354Y-104913147D01*
X107072853Y-105038646D01*
X107171456Y-105186216D01*
X107239376Y-105350188D01*
X107274000Y-105524259D01*
X107274000Y-105701741D01*
X107239376Y-105875812D01*
X107171456Y-106039784D01*
X107072853Y-106187354D01*
X106947354Y-106312853D01*
X106799784Y-106411456D01*
X106635812Y-106479376D01*
X106486512Y-106509073D01*
X106461742Y-106514000D01*
X106284258Y-106514000D01*
X106259488Y-106509073D01*
X106110188Y-106479376D01*
X105946216Y-106411456D01*
X105798646Y-106312853D01*
X105673147Y-106187354D01*
X105574544Y-106039784D01*
X105506624Y-105875812D01*
X105472000Y-105701741D01*
X105472000Y-105524259D01*
X105506624Y-105350188D01*
X105574544Y-105186216D01*
X105673147Y-105038646D01*
X105798646Y-104913147D01*
X105946216Y-104814544D01*
X106110188Y-104746624D01*
X106259488Y-104716927D01*
X106284258Y-104712000D01*
X106461742Y-104712000D01*
X106486512Y-104716927D01*
X106486512Y-104716927D01*
G37*
G36*
X119186512Y-104716927D02*
G01*
X119335812Y-104746624D01*
X119499784Y-104814544D01*
X119647354Y-104913147D01*
X119772853Y-105038646D01*
X119871456Y-105186216D01*
X119939376Y-105350188D01*
X119974000Y-105524259D01*
X119974000Y-105701741D01*
X119939376Y-105875812D01*
X119871456Y-106039784D01*
X119772853Y-106187354D01*
X119647354Y-106312853D01*
X119499784Y-106411456D01*
X119335812Y-106479376D01*
X119186512Y-106509073D01*
X119161742Y-106514000D01*
X118984258Y-106514000D01*
X118959488Y-106509073D01*
X118810188Y-106479376D01*
X118646216Y-106411456D01*
X118498646Y-106312853D01*
X118373147Y-106187354D01*
X118274544Y-106039784D01*
X118206624Y-105875812D01*
X118172000Y-105701741D01*
X118172000Y-105524259D01*
X118206624Y-105350188D01*
X118274544Y-105186216D01*
X118373147Y-105038646D01*
X118498646Y-104913147D01*
X118646216Y-104814544D01*
X118810188Y-104746624D01*
X118959488Y-104716927D01*
X118984258Y-104712000D01*
X119161742Y-104712000D01*
X119186512Y-104716927D01*
X119186512Y-104716927D01*
G37*
G36*
X106486512Y-102176927D02*
G01*
X106635812Y-102206624D01*
X106799784Y-102274544D01*
X106947354Y-102373147D01*
X107072853Y-102498646D01*
X107171456Y-102646216D01*
X107239376Y-102810188D01*
X107274000Y-102984259D01*
X107274000Y-103161741D01*
X107239376Y-103335812D01*
X107171456Y-103499784D01*
X107072853Y-103647354D01*
X106947354Y-103772853D01*
X106799784Y-103871456D01*
X106635812Y-103939376D01*
X106486512Y-103969073D01*
X106461742Y-103974000D01*
X106284258Y-103974000D01*
X106259488Y-103969073D01*
X106110188Y-103939376D01*
X105946216Y-103871456D01*
X105798646Y-103772853D01*
X105673147Y-103647354D01*
X105574544Y-103499784D01*
X105506624Y-103335812D01*
X105472000Y-103161741D01*
X105472000Y-102984259D01*
X105506624Y-102810188D01*
X105574544Y-102646216D01*
X105673147Y-102498646D01*
X105798646Y-102373147D01*
X105946216Y-102274544D01*
X106110188Y-102206624D01*
X106259488Y-102176927D01*
X106284258Y-102172000D01*
X106461742Y-102172000D01*
X106486512Y-102176927D01*
X106486512Y-102176927D01*
G37*
G36*
X119186512Y-102176927D02*
G01*
X119335812Y-102206624D01*
X119499784Y-102274544D01*
X119647354Y-102373147D01*
X119772853Y-102498646D01*
X119871456Y-102646216D01*
X119939376Y-102810188D01*
X119974000Y-102984259D01*
X119974000Y-103161741D01*
X119939376Y-103335812D01*
X119871456Y-103499784D01*
X119772853Y-103647354D01*
X119647354Y-103772853D01*
X119499784Y-103871456D01*
X119335812Y-103939376D01*
X119186512Y-103969073D01*
X119161742Y-103974000D01*
X118984258Y-103974000D01*
X118959488Y-103969073D01*
X118810188Y-103939376D01*
X118646216Y-103871456D01*
X118498646Y-103772853D01*
X118373147Y-103647354D01*
X118274544Y-103499784D01*
X118206624Y-103335812D01*
X118172000Y-103161741D01*
X118172000Y-102984259D01*
X118206624Y-102810188D01*
X118274544Y-102646216D01*
X118373147Y-102498646D01*
X118498646Y-102373147D01*
X118646216Y-102274544D01*
X118810188Y-102206624D01*
X118959488Y-102176927D01*
X118984258Y-102172000D01*
X119161742Y-102172000D01*
X119186512Y-102176927D01*
X119186512Y-102176927D01*
G37*
G36*
X171797549Y-99204116D02*
G01*
X171908734Y-99226232D01*
X172118203Y-99312997D01*
X172306720Y-99438960D01*
X172467040Y-99599280D01*
X172593003Y-99787797D01*
X172679768Y-99997266D01*
X172724000Y-100219636D01*
X172724000Y-100446364D01*
X172679768Y-100668734D01*
X172593003Y-100878203D01*
X172467040Y-101066720D01*
X172306720Y-101227040D01*
X172118203Y-101353003D01*
X171908734Y-101439768D01*
X171797549Y-101461884D01*
X171686365Y-101484000D01*
X171459635Y-101484000D01*
X171348451Y-101461884D01*
X171237266Y-101439768D01*
X171027797Y-101353003D01*
X170839280Y-101227040D01*
X170678960Y-101066720D01*
X170552997Y-100878203D01*
X170466232Y-100668734D01*
X170422000Y-100446364D01*
X170422000Y-100219636D01*
X170466232Y-99997266D01*
X170552997Y-99787797D01*
X170678960Y-99599280D01*
X170839280Y-99438960D01*
X171027797Y-99312997D01*
X171237266Y-99226232D01*
X171348451Y-99204116D01*
X171459635Y-99182000D01*
X171686365Y-99182000D01*
X171797549Y-99204116D01*
X171797549Y-99204116D01*
G37*
G36*
X176797549Y-99204116D02*
G01*
X176908734Y-99226232D01*
X177118203Y-99312997D01*
X177306720Y-99438960D01*
X177467040Y-99599280D01*
X177593003Y-99787797D01*
X177679768Y-99997266D01*
X177724000Y-100219636D01*
X177724000Y-100446364D01*
X177679768Y-100668734D01*
X177593003Y-100878203D01*
X177467040Y-101066720D01*
X177306720Y-101227040D01*
X177118203Y-101353003D01*
X176908734Y-101439768D01*
X176797549Y-101461884D01*
X176686365Y-101484000D01*
X176459635Y-101484000D01*
X176348451Y-101461884D01*
X176237266Y-101439768D01*
X176027797Y-101353003D01*
X175839280Y-101227040D01*
X175678960Y-101066720D01*
X175552997Y-100878203D01*
X175466232Y-100668734D01*
X175422000Y-100446364D01*
X175422000Y-100219636D01*
X175466232Y-99997266D01*
X175552997Y-99787797D01*
X175678960Y-99599280D01*
X175839280Y-99438960D01*
X176027797Y-99312997D01*
X176237266Y-99226232D01*
X176348451Y-99204116D01*
X176459635Y-99182000D01*
X176686365Y-99182000D01*
X176797549Y-99204116D01*
X176797549Y-99204116D01*
G37*
G36*
X106486512Y-99636927D02*
G01*
X106635812Y-99666624D01*
X106799784Y-99734544D01*
X106947354Y-99833147D01*
X107072853Y-99958646D01*
X107171456Y-100106216D01*
X107239376Y-100270188D01*
X107274000Y-100444259D01*
X107274000Y-100621741D01*
X107239376Y-100795812D01*
X107171456Y-100959784D01*
X107072853Y-101107354D01*
X106947354Y-101232853D01*
X106799784Y-101331456D01*
X106635812Y-101399376D01*
X106486512Y-101429073D01*
X106461742Y-101434000D01*
X106284258Y-101434000D01*
X106259488Y-101429073D01*
X106110188Y-101399376D01*
X105946216Y-101331456D01*
X105798646Y-101232853D01*
X105673147Y-101107354D01*
X105574544Y-100959784D01*
X105506624Y-100795812D01*
X105472000Y-100621741D01*
X105472000Y-100444259D01*
X105506624Y-100270188D01*
X105574544Y-100106216D01*
X105673147Y-99958646D01*
X105798646Y-99833147D01*
X105946216Y-99734544D01*
X106110188Y-99666624D01*
X106259488Y-99636927D01*
X106284258Y-99632000D01*
X106461742Y-99632000D01*
X106486512Y-99636927D01*
X106486512Y-99636927D01*
G37*
G36*
X119186512Y-99636927D02*
G01*
X119335812Y-99666624D01*
X119499784Y-99734544D01*
X119647354Y-99833147D01*
X119772853Y-99958646D01*
X119871456Y-100106216D01*
X119939376Y-100270188D01*
X119974000Y-100444259D01*
X119974000Y-100621741D01*
X119939376Y-100795812D01*
X119871456Y-100959784D01*
X119772853Y-101107354D01*
X119647354Y-101232853D01*
X119499784Y-101331456D01*
X119335812Y-101399376D01*
X119186512Y-101429073D01*
X119161742Y-101434000D01*
X118984258Y-101434000D01*
X118959488Y-101429073D01*
X118810188Y-101399376D01*
X118646216Y-101331456D01*
X118498646Y-101232853D01*
X118373147Y-101107354D01*
X118274544Y-100959784D01*
X118206624Y-100795812D01*
X118172000Y-100621741D01*
X118172000Y-100444259D01*
X118206624Y-100270188D01*
X118274544Y-100106216D01*
X118373147Y-99958646D01*
X118498646Y-99833147D01*
X118646216Y-99734544D01*
X118810188Y-99666624D01*
X118959488Y-99636927D01*
X118984258Y-99632000D01*
X119161742Y-99632000D01*
X119186512Y-99636927D01*
X119186512Y-99636927D01*
G37*
G36*
X106486512Y-97096927D02*
G01*
X106635812Y-97126624D01*
X106799784Y-97194544D01*
X106947354Y-97293147D01*
X107072853Y-97418646D01*
X107171456Y-97566216D01*
X107239376Y-97730188D01*
X107274000Y-97904259D01*
X107274000Y-98081741D01*
X107239376Y-98255812D01*
X107171456Y-98419784D01*
X107072853Y-98567354D01*
X106947354Y-98692853D01*
X106799784Y-98791456D01*
X106635812Y-98859376D01*
X106486512Y-98889073D01*
X106461742Y-98894000D01*
X106284258Y-98894000D01*
X106259488Y-98889073D01*
X106110188Y-98859376D01*
X105946216Y-98791456D01*
X105798646Y-98692853D01*
X105673147Y-98567354D01*
X105574544Y-98419784D01*
X105506624Y-98255812D01*
X105472000Y-98081741D01*
X105472000Y-97904259D01*
X105506624Y-97730188D01*
X105574544Y-97566216D01*
X105673147Y-97418646D01*
X105798646Y-97293147D01*
X105946216Y-97194544D01*
X106110188Y-97126624D01*
X106259488Y-97096927D01*
X106284258Y-97092000D01*
X106461742Y-97092000D01*
X106486512Y-97096927D01*
X106486512Y-97096927D01*
G37*
G36*
X119186512Y-97096927D02*
G01*
X119335812Y-97126624D01*
X119499784Y-97194544D01*
X119647354Y-97293147D01*
X119772853Y-97418646D01*
X119871456Y-97566216D01*
X119939376Y-97730188D01*
X119974000Y-97904259D01*
X119974000Y-98081741D01*
X119939376Y-98255812D01*
X119871456Y-98419784D01*
X119772853Y-98567354D01*
X119647354Y-98692853D01*
X119499784Y-98791456D01*
X119335812Y-98859376D01*
X119186512Y-98889073D01*
X119161742Y-98894000D01*
X118984258Y-98894000D01*
X118959488Y-98889073D01*
X118810188Y-98859376D01*
X118646216Y-98791456D01*
X118498646Y-98692853D01*
X118373147Y-98567354D01*
X118274544Y-98419784D01*
X118206624Y-98255812D01*
X118172000Y-98081741D01*
X118172000Y-97904259D01*
X118206624Y-97730188D01*
X118274544Y-97566216D01*
X118373147Y-97418646D01*
X118498646Y-97293147D01*
X118646216Y-97194544D01*
X118810188Y-97126624D01*
X118959488Y-97096927D01*
X118984258Y-97092000D01*
X119161742Y-97092000D01*
X119186512Y-97096927D01*
X119186512Y-97096927D01*
G37*
G36*
X171797549Y-94204116D02*
G01*
X171908734Y-94226232D01*
X172118203Y-94312997D01*
X172306720Y-94438960D01*
X172467040Y-94599280D01*
X172569851Y-94753148D01*
X172593004Y-94787799D01*
X172679768Y-94997267D01*
X172718143Y-95190188D01*
X172724000Y-95219636D01*
X172724000Y-95446364D01*
X172679768Y-95668734D01*
X172593003Y-95878203D01*
X172467040Y-96066720D01*
X172306720Y-96227040D01*
X172118203Y-96353003D01*
X171908734Y-96439768D01*
X171797549Y-96461884D01*
X171686365Y-96484000D01*
X171459635Y-96484000D01*
X171348451Y-96461884D01*
X171237266Y-96439768D01*
X171027797Y-96353003D01*
X170839280Y-96227040D01*
X170678960Y-96066720D01*
X170552997Y-95878203D01*
X170466232Y-95668734D01*
X170422000Y-95446364D01*
X170422000Y-95219636D01*
X170427858Y-95190188D01*
X170466232Y-94997267D01*
X170552996Y-94787799D01*
X170576149Y-94753148D01*
X170678960Y-94599280D01*
X170839280Y-94438960D01*
X171027797Y-94312997D01*
X171237266Y-94226232D01*
X171348451Y-94204116D01*
X171459635Y-94182000D01*
X171686365Y-94182000D01*
X171797549Y-94204116D01*
X171797549Y-94204116D01*
G37*
G36*
X176797549Y-94204116D02*
G01*
X176908734Y-94226232D01*
X177118203Y-94312997D01*
X177306720Y-94438960D01*
X177467040Y-94599280D01*
X177569851Y-94753148D01*
X177593004Y-94787799D01*
X177679768Y-94997267D01*
X177718143Y-95190188D01*
X177724000Y-95219636D01*
X177724000Y-95446364D01*
X177679768Y-95668734D01*
X177593003Y-95878203D01*
X177467040Y-96066720D01*
X177306720Y-96227040D01*
X177118203Y-96353003D01*
X176908734Y-96439768D01*
X176797549Y-96461884D01*
X176686365Y-96484000D01*
X176459635Y-96484000D01*
X176348451Y-96461884D01*
X176237266Y-96439768D01*
X176027797Y-96353003D01*
X175839280Y-96227040D01*
X175678960Y-96066720D01*
X175552997Y-95878203D01*
X175466232Y-95668734D01*
X175422000Y-95446364D01*
X175422000Y-95219636D01*
X175427858Y-95190188D01*
X175466232Y-94997267D01*
X175552996Y-94787799D01*
X175576149Y-94753148D01*
X175678960Y-94599280D01*
X175839280Y-94438960D01*
X176027797Y-94312997D01*
X176237266Y-94226232D01*
X176348451Y-94204116D01*
X176459635Y-94182000D01*
X176686365Y-94182000D01*
X176797549Y-94204116D01*
X176797549Y-94204116D01*
G37*
G36*
X106486512Y-94556927D02*
G01*
X106635812Y-94586624D01*
X106799784Y-94654544D01*
X106947354Y-94753147D01*
X107072853Y-94878646D01*
X107171456Y-95026216D01*
X107239376Y-95190188D01*
X107274000Y-95364259D01*
X107274000Y-95541741D01*
X107239376Y-95715812D01*
X107171456Y-95879784D01*
X107072853Y-96027354D01*
X106947354Y-96152853D01*
X106799784Y-96251456D01*
X106635812Y-96319376D01*
X106486512Y-96349073D01*
X106461742Y-96354000D01*
X106284258Y-96354000D01*
X106259488Y-96349073D01*
X106110188Y-96319376D01*
X105946216Y-96251456D01*
X105798646Y-96152853D01*
X105673147Y-96027354D01*
X105574544Y-95879784D01*
X105506624Y-95715812D01*
X105472000Y-95541741D01*
X105472000Y-95364259D01*
X105506624Y-95190188D01*
X105574544Y-95026216D01*
X105673147Y-94878646D01*
X105798646Y-94753147D01*
X105946216Y-94654544D01*
X106110188Y-94586624D01*
X106259488Y-94556927D01*
X106284258Y-94552000D01*
X106461742Y-94552000D01*
X106486512Y-94556927D01*
X106486512Y-94556927D01*
G37*
G36*
X119186512Y-94556927D02*
G01*
X119335812Y-94586624D01*
X119499784Y-94654544D01*
X119647354Y-94753147D01*
X119772853Y-94878646D01*
X119871456Y-95026216D01*
X119939376Y-95190188D01*
X119974000Y-95364259D01*
X119974000Y-95541741D01*
X119939376Y-95715812D01*
X119871456Y-95879784D01*
X119772853Y-96027354D01*
X119647354Y-96152853D01*
X119499784Y-96251456D01*
X119335812Y-96319376D01*
X119186512Y-96349073D01*
X119161742Y-96354000D01*
X118984258Y-96354000D01*
X118959488Y-96349073D01*
X118810188Y-96319376D01*
X118646216Y-96251456D01*
X118498646Y-96152853D01*
X118373147Y-96027354D01*
X118274544Y-95879784D01*
X118206624Y-95715812D01*
X118172000Y-95541741D01*
X118172000Y-95364259D01*
X118206624Y-95190188D01*
X118274544Y-95026216D01*
X118373147Y-94878646D01*
X118498646Y-94753147D01*
X118646216Y-94654544D01*
X118810188Y-94586624D01*
X118959488Y-94556927D01*
X118984258Y-94552000D01*
X119161742Y-94552000D01*
X119186512Y-94556927D01*
X119186512Y-94556927D01*
G37*
G36*
X106486512Y-92016927D02*
G01*
X106635812Y-92046624D01*
X106799784Y-92114544D01*
X106947354Y-92213147D01*
X107072853Y-92338646D01*
X107171456Y-92486216D01*
X107239376Y-92650188D01*
X107274000Y-92824259D01*
X107274000Y-93001741D01*
X107239376Y-93175812D01*
X107171456Y-93339784D01*
X107072853Y-93487354D01*
X106947354Y-93612853D01*
X106799784Y-93711456D01*
X106635812Y-93779376D01*
X106486512Y-93809073D01*
X106461742Y-93814000D01*
X106284258Y-93814000D01*
X106259488Y-93809073D01*
X106110188Y-93779376D01*
X105946216Y-93711456D01*
X105798646Y-93612853D01*
X105673147Y-93487354D01*
X105574544Y-93339784D01*
X105506624Y-93175812D01*
X105472000Y-93001741D01*
X105472000Y-92824259D01*
X105506624Y-92650188D01*
X105574544Y-92486216D01*
X105673147Y-92338646D01*
X105798646Y-92213147D01*
X105946216Y-92114544D01*
X106110188Y-92046624D01*
X106259488Y-92016927D01*
X106284258Y-92012000D01*
X106461742Y-92012000D01*
X106486512Y-92016927D01*
X106486512Y-92016927D01*
G37*
G36*
X119186512Y-92016927D02*
G01*
X119335812Y-92046624D01*
X119499784Y-92114544D01*
X119647354Y-92213147D01*
X119772853Y-92338646D01*
X119871456Y-92486216D01*
X119939376Y-92650188D01*
X119974000Y-92824259D01*
X119974000Y-93001741D01*
X119939376Y-93175812D01*
X119871456Y-93339784D01*
X119772853Y-93487354D01*
X119647354Y-93612853D01*
X119499784Y-93711456D01*
X119335812Y-93779376D01*
X119186512Y-93809073D01*
X119161742Y-93814000D01*
X118984258Y-93814000D01*
X118959488Y-93809073D01*
X118810188Y-93779376D01*
X118646216Y-93711456D01*
X118498646Y-93612853D01*
X118373147Y-93487354D01*
X118274544Y-93339784D01*
X118206624Y-93175812D01*
X118172000Y-93001741D01*
X118172000Y-92824259D01*
X118206624Y-92650188D01*
X118274544Y-92486216D01*
X118373147Y-92338646D01*
X118498646Y-92213147D01*
X118646216Y-92114544D01*
X118810188Y-92046624D01*
X118959488Y-92016927D01*
X118984258Y-92012000D01*
X119161742Y-92012000D01*
X119186512Y-92016927D01*
X119186512Y-92016927D01*
G37*
G36*
X106486512Y-89476927D02*
G01*
X106635812Y-89506624D01*
X106799784Y-89574544D01*
X106947354Y-89673147D01*
X107072853Y-89798646D01*
X107171456Y-89946216D01*
X107239376Y-90110188D01*
X107274000Y-90284259D01*
X107274000Y-90461741D01*
X107239376Y-90635812D01*
X107171456Y-90799784D01*
X107072853Y-90947354D01*
X106947354Y-91072853D01*
X106799784Y-91171456D01*
X106635812Y-91239376D01*
X106486512Y-91269073D01*
X106461742Y-91274000D01*
X106284258Y-91274000D01*
X106259488Y-91269073D01*
X106110188Y-91239376D01*
X105946216Y-91171456D01*
X105798646Y-91072853D01*
X105673147Y-90947354D01*
X105574544Y-90799784D01*
X105506624Y-90635812D01*
X105472000Y-90461741D01*
X105472000Y-90284259D01*
X105506624Y-90110188D01*
X105574544Y-89946216D01*
X105673147Y-89798646D01*
X105798646Y-89673147D01*
X105946216Y-89574544D01*
X106110188Y-89506624D01*
X106259488Y-89476927D01*
X106284258Y-89472000D01*
X106461742Y-89472000D01*
X106486512Y-89476927D01*
X106486512Y-89476927D01*
G37*
G36*
X119186512Y-89476927D02*
G01*
X119335812Y-89506624D01*
X119499784Y-89574544D01*
X119647354Y-89673147D01*
X119772853Y-89798646D01*
X119871456Y-89946216D01*
X119939376Y-90110188D01*
X119974000Y-90284259D01*
X119974000Y-90461741D01*
X119939376Y-90635812D01*
X119871456Y-90799784D01*
X119772853Y-90947354D01*
X119647354Y-91072853D01*
X119499784Y-91171456D01*
X119335812Y-91239376D01*
X119186512Y-91269073D01*
X119161742Y-91274000D01*
X118984258Y-91274000D01*
X118959488Y-91269073D01*
X118810188Y-91239376D01*
X118646216Y-91171456D01*
X118498646Y-91072853D01*
X118373147Y-90947354D01*
X118274544Y-90799784D01*
X118206624Y-90635812D01*
X118172000Y-90461741D01*
X118172000Y-90284259D01*
X118206624Y-90110188D01*
X118274544Y-89946216D01*
X118373147Y-89798646D01*
X118498646Y-89673147D01*
X118646216Y-89574544D01*
X118810188Y-89506624D01*
X118959488Y-89476927D01*
X118984258Y-89472000D01*
X119161742Y-89472000D01*
X119186512Y-89476927D01*
X119186512Y-89476927D01*
G37*
G36*
X119186512Y-86936927D02*
G01*
X119335812Y-86966624D01*
X119499784Y-87034544D01*
X119647354Y-87133147D01*
X119772853Y-87258646D01*
X119871456Y-87406216D01*
X119939376Y-87570188D01*
X119974000Y-87744259D01*
X119974000Y-87921741D01*
X119939376Y-88095812D01*
X119871456Y-88259784D01*
X119772853Y-88407354D01*
X119647354Y-88532853D01*
X119499784Y-88631456D01*
X119335812Y-88699376D01*
X119186512Y-88729073D01*
X119161742Y-88734000D01*
X118984258Y-88734000D01*
X118959488Y-88729073D01*
X118810188Y-88699376D01*
X118646216Y-88631456D01*
X118498646Y-88532853D01*
X118373147Y-88407354D01*
X118274544Y-88259784D01*
X118206624Y-88095812D01*
X118172000Y-87921741D01*
X118172000Y-87744259D01*
X118206624Y-87570188D01*
X118274544Y-87406216D01*
X118373147Y-87258646D01*
X118498646Y-87133147D01*
X118646216Y-87034544D01*
X118810188Y-86966624D01*
X118959488Y-86936927D01*
X118984258Y-86932000D01*
X119161742Y-86932000D01*
X119186512Y-86936927D01*
X119186512Y-86936927D01*
G37*
G36*
X107274000Y-88734000D02*
G01*
X105472000Y-88734000D01*
X105472000Y-86932000D01*
X107274000Y-86932000D01*
X107274000Y-88734000D01*
X107274000Y-88734000D01*
G37*
G36*
X172197549Y-83504116D02*
G01*
X172308734Y-83526232D01*
X172518203Y-83612997D01*
X172706720Y-83738960D01*
X172867040Y-83899280D01*
X172993003Y-84087797D01*
X173079768Y-84297266D01*
X173124000Y-84519636D01*
X173124000Y-84746364D01*
X173079768Y-84968734D01*
X172993003Y-85178203D01*
X172867040Y-85366720D01*
X172706720Y-85527040D01*
X172518203Y-85653003D01*
X172308734Y-85739768D01*
X172197549Y-85761884D01*
X172086365Y-85784000D01*
X171859635Y-85784000D01*
X171748451Y-85761884D01*
X171637266Y-85739768D01*
X171427797Y-85653003D01*
X171239280Y-85527040D01*
X171078960Y-85366720D01*
X170952997Y-85178203D01*
X170866232Y-84968734D01*
X170822000Y-84746364D01*
X170822000Y-84519636D01*
X170866232Y-84297266D01*
X170952997Y-84087797D01*
X171078960Y-83899280D01*
X171239280Y-83738960D01*
X171427797Y-83612997D01*
X171637266Y-83526232D01*
X171748451Y-83504116D01*
X171859635Y-83482000D01*
X172086365Y-83482000D01*
X172197549Y-83504116D01*
X172197549Y-83504116D01*
G37*
G36*
X177197549Y-83504116D02*
G01*
X177308734Y-83526232D01*
X177518203Y-83612997D01*
X177706720Y-83738960D01*
X177867040Y-83899280D01*
X177993003Y-84087797D01*
X178079768Y-84297266D01*
X178124000Y-84519636D01*
X178124000Y-84746364D01*
X178079768Y-84968734D01*
X177993003Y-85178203D01*
X177867040Y-85366720D01*
X177706720Y-85527040D01*
X177518203Y-85653003D01*
X177308734Y-85739768D01*
X177197549Y-85761884D01*
X177086365Y-85784000D01*
X176859635Y-85784000D01*
X176748451Y-85761884D01*
X176637266Y-85739768D01*
X176427797Y-85653003D01*
X176239280Y-85527040D01*
X176078960Y-85366720D01*
X175952997Y-85178203D01*
X175866232Y-84968734D01*
X175822000Y-84746364D01*
X175822000Y-84519636D01*
X175866232Y-84297266D01*
X175952997Y-84087797D01*
X176078960Y-83899280D01*
X176239280Y-83738960D01*
X176427797Y-83612997D01*
X176637266Y-83526232D01*
X176748451Y-83504116D01*
X176859635Y-83482000D01*
X177086365Y-83482000D01*
X177197549Y-83504116D01*
X177197549Y-83504116D01*
G37*
G36*
X177197549Y-78504116D02*
G01*
X177308734Y-78526232D01*
X177518203Y-78612997D01*
X177706720Y-78738960D01*
X177867040Y-78899280D01*
X177993003Y-79087797D01*
X178079768Y-79297266D01*
X178124000Y-79519636D01*
X178124000Y-79746364D01*
X178079768Y-79968734D01*
X177993003Y-80178203D01*
X177867040Y-80366720D01*
X177706720Y-80527040D01*
X177518203Y-80653003D01*
X177308734Y-80739768D01*
X177197549Y-80761884D01*
X177086365Y-80784000D01*
X176859635Y-80784000D01*
X176748451Y-80761884D01*
X176637266Y-80739768D01*
X176427797Y-80653003D01*
X176239280Y-80527040D01*
X176078960Y-80366720D01*
X175952997Y-80178203D01*
X175866232Y-79968734D01*
X175822000Y-79746364D01*
X175822000Y-79519636D01*
X175866232Y-79297266D01*
X175952997Y-79087797D01*
X176078960Y-78899280D01*
X176239280Y-78738960D01*
X176427797Y-78612997D01*
X176637266Y-78526232D01*
X176748451Y-78504116D01*
X176859635Y-78482000D01*
X177086365Y-78482000D01*
X177197549Y-78504116D01*
X177197549Y-78504116D01*
G37*
G36*
X172197549Y-78504116D02*
G01*
X172308734Y-78526232D01*
X172518203Y-78612997D01*
X172706720Y-78738960D01*
X172867040Y-78899280D01*
X172993003Y-79087797D01*
X173079768Y-79297266D01*
X173124000Y-79519636D01*
X173124000Y-79746364D01*
X173079768Y-79968734D01*
X172993003Y-80178203D01*
X172867040Y-80366720D01*
X172706720Y-80527040D01*
X172518203Y-80653003D01*
X172308734Y-80739768D01*
X172197549Y-80761884D01*
X172086365Y-80784000D01*
X171859635Y-80784000D01*
X171748451Y-80761884D01*
X171637266Y-80739768D01*
X171427797Y-80653003D01*
X171239280Y-80527040D01*
X171078960Y-80366720D01*
X170952997Y-80178203D01*
X170866232Y-79968734D01*
X170822000Y-79746364D01*
X170822000Y-79519636D01*
X170866232Y-79297266D01*
X170952997Y-79087797D01*
X171078960Y-78899280D01*
X171239280Y-78738960D01*
X171427797Y-78612997D01*
X171637266Y-78526232D01*
X171748451Y-78504116D01*
X171859635Y-78482000D01*
X172086365Y-78482000D01*
X172197549Y-78504116D01*
X172197549Y-78504116D01*
G37*
G36*
X125252487Y-73081996D02*
G01*
X125489253Y-73180068D01*
X125489255Y-73180069D01*
X125702339Y-73322447D01*
X125883553Y-73503661D01*
X126025932Y-73716747D01*
X126124004Y-73953513D01*
X126174000Y-74204861D01*
X126174000Y-74461139D01*
X126124004Y-74712487D01*
X126025932Y-74949253D01*
X126025931Y-74949255D01*
X125883553Y-75162339D01*
X125702339Y-75343553D01*
X125489255Y-75485931D01*
X125489254Y-75485932D01*
X125489253Y-75485932D01*
X125252487Y-75584004D01*
X125001139Y-75634000D01*
X124744861Y-75634000D01*
X124493513Y-75584004D01*
X124256747Y-75485932D01*
X124256746Y-75485932D01*
X124256745Y-75485931D01*
X124043661Y-75343553D01*
X123862447Y-75162339D01*
X123720069Y-74949255D01*
X123720068Y-74949253D01*
X123621996Y-74712487D01*
X123572000Y-74461139D01*
X123572000Y-74204861D01*
X123621996Y-73953513D01*
X123720068Y-73716747D01*
X123862447Y-73503661D01*
X124043661Y-73322447D01*
X124256745Y-73180069D01*
X124256747Y-73180068D01*
X124493513Y-73081996D01*
X124744861Y-73032000D01*
X125001139Y-73032000D01*
X125252487Y-73081996D01*
X125252487Y-73081996D01*
G37*
G36*
X151000500Y-68793500D02*
G01*
X149298500Y-68793500D01*
X149298500Y-67091500D01*
X151000500Y-67091500D01*
X151000500Y-68793500D01*
X151000500Y-68793500D01*
G37*
G36*
X147897728Y-67124203D02*
G01*
X148052600Y-67188353D01*
X148191981Y-67281485D01*
X148310515Y-67400019D01*
X148403647Y-67539400D01*
X148467797Y-67694272D01*
X148500500Y-67858684D01*
X148500500Y-68026316D01*
X148467797Y-68190728D01*
X148403647Y-68345600D01*
X148310515Y-68484981D01*
X148191981Y-68603515D01*
X148052600Y-68696647D01*
X147897728Y-68760797D01*
X147733316Y-68793500D01*
X147565684Y-68793500D01*
X147401272Y-68760797D01*
X147246400Y-68696647D01*
X147107019Y-68603515D01*
X146988485Y-68484981D01*
X146895353Y-68345600D01*
X146831203Y-68190728D01*
X146798500Y-68026316D01*
X146798500Y-67858684D01*
X146831203Y-67694272D01*
X146895353Y-67539400D01*
X146988485Y-67400019D01*
X147107019Y-67281485D01*
X147246400Y-67188353D01*
X147401272Y-67124203D01*
X147565684Y-67091500D01*
X147733316Y-67091500D01*
X147897728Y-67124203D01*
X147897728Y-67124203D01*
G37*
G36*
X166874008Y-54300590D02*
G01*
X167369658Y-54399181D01*
X168303440Y-54785967D01*
X169143822Y-55347492D01*
X169858508Y-56062178D01*
X170420033Y-56902560D01*
X170806819Y-57836342D01*
X170891316Y-58261138D01*
X171004000Y-58827639D01*
X171004000Y-59838361D01*
X170961487Y-60052086D01*
X170806819Y-60829658D01*
X170420033Y-61763440D01*
X169858508Y-62603822D01*
X169143822Y-63318508D01*
X168303440Y-63880033D01*
X167369658Y-64266819D01*
X166874008Y-64365410D01*
X166378361Y-64464000D01*
X165367639Y-64464000D01*
X164871992Y-64365410D01*
X164376342Y-64266819D01*
X163442560Y-63880033D01*
X162602178Y-63318508D01*
X161887492Y-62603822D01*
X161325967Y-61763440D01*
X160939181Y-60829658D01*
X160784513Y-60052086D01*
X160742000Y-59838361D01*
X160742000Y-58827639D01*
X160854684Y-58261138D01*
X160939181Y-57836342D01*
X161325967Y-56902560D01*
X161887492Y-56062178D01*
X162602178Y-55347492D01*
X163442560Y-54785967D01*
X164376342Y-54399181D01*
X164871992Y-54300590D01*
X165367639Y-54202000D01*
X166378361Y-54202000D01*
X166874008Y-54300590D01*
X166874008Y-54300590D01*
G37*
G36*
X132874008Y-54300590D02*
G01*
X133369658Y-54399181D01*
X134303440Y-54785967D01*
X135143822Y-55347492D01*
X135858508Y-56062178D01*
X136420033Y-56902560D01*
X136806819Y-57836342D01*
X136891316Y-58261138D01*
X137004000Y-58827639D01*
X137004000Y-59838361D01*
X136961487Y-60052086D01*
X136806819Y-60829658D01*
X136420033Y-61763440D01*
X135858508Y-62603822D01*
X135143822Y-63318508D01*
X134303440Y-63880033D01*
X133369658Y-64266819D01*
X132874008Y-64365410D01*
X132378361Y-64464000D01*
X131367639Y-64464000D01*
X130871992Y-64365410D01*
X130376342Y-64266819D01*
X129442560Y-63880033D01*
X128602178Y-63318508D01*
X127887492Y-62603822D01*
X127325967Y-61763440D01*
X126939181Y-60829658D01*
X126784513Y-60052086D01*
X126742000Y-59838361D01*
X126742000Y-58827639D01*
X126854684Y-58261138D01*
X126939181Y-57836342D01*
X127325967Y-56902560D01*
X127887492Y-56062178D01*
X128602178Y-55347492D01*
X129442560Y-54785967D01*
X130376342Y-54399181D01*
X130871992Y-54300590D01*
X131367639Y-54202000D01*
X132378361Y-54202000D01*
X132874008Y-54300590D01*
X132874008Y-54300590D01*
G37*
G36*
X148399000Y-61434000D02*
G01*
X144497000Y-61434000D01*
X144497000Y-57532000D01*
X148399000Y-57532000D01*
X148399000Y-61434000D01*
X148399000Y-61434000D01*
G37*
G36*
X152017085Y-57606975D02*
G01*
X152372143Y-57754045D01*
X152372145Y-57754046D01*
X152691690Y-57967559D01*
X152963441Y-58239310D01*
X153176954Y-58558855D01*
X153176955Y-58558857D01*
X153324025Y-58913915D01*
X153399000Y-59290842D01*
X153399000Y-59675158D01*
X153324025Y-60052085D01*
X153176955Y-60407143D01*
X153176954Y-60407145D01*
X152963441Y-60726690D01*
X152691690Y-60998441D01*
X152372145Y-61211954D01*
X152372144Y-61211955D01*
X152372143Y-61211955D01*
X152017085Y-61359025D01*
X151640158Y-61434000D01*
X151255842Y-61434000D01*
X150878915Y-61359025D01*
X150523857Y-61211955D01*
X150523856Y-61211955D01*
X150523855Y-61211954D01*
X150204310Y-60998441D01*
X149932559Y-60726690D01*
X149719046Y-60407145D01*
X149719045Y-60407143D01*
X149571975Y-60052085D01*
X149497000Y-59675158D01*
X149497000Y-59290842D01*
X149571975Y-58913915D01*
X149719045Y-58558857D01*
X149719046Y-58558855D01*
X149932559Y-58239310D01*
X150204310Y-57967559D01*
X150523855Y-57754046D01*
X150523857Y-57754045D01*
X150878915Y-57606975D01*
X151255842Y-57532000D01*
X151640158Y-57532000D01*
X152017085Y-57606975D01*
X152017085Y-57606975D01*
G37*
G36*
X184961198Y-53875933D02*
G01*
X185252443Y-53933865D01*
X185801138Y-54161142D01*
X186294950Y-54491097D01*
X186714903Y-54911050D01*
X187044858Y-55404862D01*
X187272135Y-55953557D01*
X187388000Y-56536048D01*
X187388000Y-57129952D01*
X187272135Y-57712443D01*
X187166462Y-57967559D01*
X187053900Y-58239310D01*
X187044858Y-58261138D01*
X186714903Y-58754950D01*
X186294950Y-59174903D01*
X185801138Y-59504858D01*
X185252443Y-59732135D01*
X184961197Y-59790068D01*
X184669953Y-59848000D01*
X184076047Y-59848000D01*
X183784803Y-59790068D01*
X183493557Y-59732135D01*
X182944862Y-59504858D01*
X182451050Y-59174903D01*
X182031097Y-58754950D01*
X181701142Y-58261138D01*
X181692101Y-58239310D01*
X181579538Y-57967559D01*
X181473865Y-57712443D01*
X181358000Y-57129952D01*
X181358000Y-56536048D01*
X181473865Y-55953557D01*
X181701142Y-55404862D01*
X182031097Y-54911050D01*
X182451050Y-54491097D01*
X182944862Y-54161142D01*
X183493557Y-53933865D01*
X183784802Y-53875933D01*
X184076047Y-53818000D01*
X184669953Y-53818000D01*
X184961198Y-53875933D01*
X184961198Y-53875933D01*
G37*
G36*
X109961198Y-53875933D02*
G01*
X110252443Y-53933865D01*
X110801138Y-54161142D01*
X111294950Y-54491097D01*
X111714903Y-54911050D01*
X112044858Y-55404862D01*
X112272135Y-55953557D01*
X112388000Y-56536048D01*
X112388000Y-57129952D01*
X112272135Y-57712443D01*
X112166462Y-57967559D01*
X112053900Y-58239310D01*
X112044858Y-58261138D01*
X111714903Y-58754950D01*
X111294950Y-59174903D01*
X110801138Y-59504858D01*
X110252443Y-59732135D01*
X109961197Y-59790068D01*
X109669953Y-59848000D01*
X109076047Y-59848000D01*
X108784803Y-59790068D01*
X108493557Y-59732135D01*
X107944862Y-59504858D01*
X107451050Y-59174903D01*
X107031097Y-58754950D01*
X106701142Y-58261138D01*
X106692101Y-58239310D01*
X106579538Y-57967559D01*
X106473865Y-57712443D01*
X106358000Y-57129952D01*
X106358000Y-56536048D01*
X106473865Y-55953557D01*
X106701142Y-55404862D01*
X107031097Y-54911050D01*
X107451050Y-54491097D01*
X107944862Y-54161142D01*
X108493557Y-53933865D01*
X108784802Y-53875933D01*
X109076047Y-53818000D01*
X109669953Y-53818000D01*
X109961198Y-53875933D01*
X109961198Y-53875933D01*
G37*
G36*
X194748256Y-45224298D02*
G01*
X194854579Y-45245447D01*
X195155042Y-45369903D01*
X195425451Y-45550585D01*
X195655415Y-45780549D01*
X195836097Y-46050958D01*
X195960553Y-46351421D01*
X196024000Y-46670391D01*
X196024000Y-46995609D01*
X195960553Y-47314579D01*
X195836097Y-47615042D01*
X195655415Y-47885451D01*
X195425451Y-48115415D01*
X195155042Y-48296097D01*
X194854579Y-48420553D01*
X194748256Y-48441702D01*
X194535611Y-48484000D01*
X194210389Y-48484000D01*
X193997744Y-48441702D01*
X193891421Y-48420553D01*
X193590958Y-48296097D01*
X193320549Y-48115415D01*
X193090585Y-47885451D01*
X192909903Y-47615042D01*
X192785447Y-47314579D01*
X192722000Y-46995609D01*
X192722000Y-46670391D01*
X192785447Y-46351421D01*
X192909903Y-46050958D01*
X193090585Y-45780549D01*
X193320549Y-45550585D01*
X193590958Y-45369903D01*
X193891421Y-45245447D01*
X193997744Y-45224298D01*
X194210389Y-45182000D01*
X194535611Y-45182000D01*
X194748256Y-45224298D01*
X194748256Y-45224298D01*
G37*
G36*
X99748256Y-45224298D02*
G01*
X99854579Y-45245447D01*
X100155042Y-45369903D01*
X100425451Y-45550585D01*
X100655415Y-45780549D01*
X100836097Y-46050958D01*
X100960553Y-46351421D01*
X101024000Y-46670391D01*
X101024000Y-46995609D01*
X100960553Y-47314579D01*
X100836097Y-47615042D01*
X100655415Y-47885451D01*
X100425451Y-48115415D01*
X100155042Y-48296097D01*
X99854579Y-48420553D01*
X99748256Y-48441702D01*
X99535611Y-48484000D01*
X99210389Y-48484000D01*
X98997744Y-48441702D01*
X98891421Y-48420553D01*
X98590958Y-48296097D01*
X98320549Y-48115415D01*
X98090585Y-47885451D01*
X97909903Y-47615042D01*
X97785447Y-47314579D01*
X97722000Y-46995609D01*
X97722000Y-46670391D01*
X97785447Y-46351421D01*
X97909903Y-46050958D01*
X98090585Y-45780549D01*
X98320549Y-45550585D01*
X98590958Y-45369903D01*
X98891421Y-45245447D01*
X98997744Y-45224298D01*
X99210389Y-45182000D01*
X99535611Y-45182000D01*
X99748256Y-45224298D01*
X99748256Y-45224298D01*
G37*
M02*
