G04 #@! TF.GenerationSoftware,KiCad,Pcbnew,5.1.4+dfsg1-1*
G04 #@! TF.CreationDate,2020-08-20T21:45:12-05:00*
G04 #@! TF.ProjectId,HotBox,486f7442-6f78-42e6-9b69-6361645f7063,rev?*
G04 #@! TF.SameCoordinates,Original*
G04 #@! TF.FileFunction,Copper,L1,Top*
G04 #@! TF.FilePolarity,Positive*
%FSLAX46Y46*%
G04 Gerber Fmt 4.6, Leading zero omitted, Abs format (unit mm)*
G04 Created by KiCad (PCBNEW 5.1.4+dfsg1-1) date 2020-08-20 21:45:12*
%MOMM*%
%LPD*%
G04 APERTURE LIST*
%ADD10R,2.030000X1.730000*%
%ADD11O,2.030000X1.730000*%
%ADD12C,2.500000*%
%ADD13R,1.600000X1.600000*%
%ADD14O,1.600000X1.600000*%
%ADD15R,1.600000X1.070000*%
%ADD16R,0.700000X0.800000*%
%ADD17R,4.500000X4.290000*%
%ADD18R,0.650000X1.060000*%
%ADD19R,0.850000X1.350000*%
%ADD20R,1.700000X1.700000*%
%ADD21C,1.700000*%
%ADD22R,1.350000X0.850000*%
%ADD23R,0.900000X0.800000*%
%ADD24C,10.160000*%
%ADD25C,1.600000*%
%ADD26C,0.100000*%
%ADD27C,0.875000*%
%ADD28C,2.200000*%
%ADD29R,3.800000X3.800000*%
%ADD30C,3.800000*%
%ADD31C,0.800000*%
%ADD32C,0.250000*%
%ADD33C,0.254000*%
G04 APERTURE END LIST*
D10*
X188073000Y-116953000D03*
D11*
X188073000Y-119493000D03*
X188073000Y-122033000D03*
X188073000Y-124573000D03*
D12*
X124873000Y-74333000D03*
X124873000Y-114333000D03*
D13*
X129873000Y-135333000D03*
D14*
X162893000Y-120093000D03*
X132413000Y-135333000D03*
X160353000Y-120093000D03*
X134953000Y-135333000D03*
X157813000Y-120093000D03*
X137493000Y-135333000D03*
X155273000Y-120093000D03*
X140033000Y-135333000D03*
X152733000Y-120093000D03*
X142573000Y-135333000D03*
X150193000Y-120093000D03*
X145113000Y-135333000D03*
X147653000Y-120093000D03*
X147653000Y-135333000D03*
X145113000Y-120093000D03*
X150193000Y-135333000D03*
X142573000Y-120093000D03*
X152733000Y-135333000D03*
X140033000Y-120093000D03*
X155273000Y-135333000D03*
X137493000Y-120093000D03*
X157813000Y-135333000D03*
X134953000Y-120093000D03*
X160353000Y-135333000D03*
X132413000Y-120093000D03*
X162893000Y-135333000D03*
X129873000Y-120093000D03*
X165433000Y-135333000D03*
X165433000Y-120093000D03*
D15*
X181873000Y-70333000D03*
X181873000Y-67363000D03*
D16*
X121783000Y-65083000D03*
X120513000Y-65083000D03*
X119233000Y-65083000D03*
X117963000Y-65083000D03*
X117963000Y-70583000D03*
X119233000Y-70583000D03*
X120513000Y-70583000D03*
X121783000Y-70583000D03*
D17*
X119873000Y-68333000D03*
D18*
X113423000Y-66433000D03*
X114373000Y-66433000D03*
X115323000Y-66433000D03*
X115323000Y-64233000D03*
X113423000Y-64233000D03*
D19*
X178378000Y-118333000D03*
X176568000Y-118333000D03*
D20*
X106373000Y-87833000D03*
D21*
X106373000Y-90373000D03*
X106373000Y-92913000D03*
X106373000Y-95453000D03*
X106373000Y-97993000D03*
X106373000Y-100533000D03*
X106373000Y-103073000D03*
X106373000Y-105613000D03*
X119073000Y-105613000D03*
X119073000Y-103073000D03*
X119073000Y-100533000D03*
X119073000Y-97993000D03*
X119073000Y-95453000D03*
X119073000Y-92913000D03*
X119073000Y-90373000D03*
X119073000Y-87833000D03*
D22*
X110873000Y-66238000D03*
X110873000Y-64428000D03*
D19*
X178278000Y-122333000D03*
X176468000Y-122333000D03*
D23*
X119373000Y-133333000D03*
X121373000Y-132383000D03*
X121373000Y-134283000D03*
X121373000Y-129283000D03*
X121373000Y-127383000D03*
X119373000Y-128333000D03*
D22*
X123373000Y-127523000D03*
X123373000Y-129333000D03*
D19*
X174778000Y-118333000D03*
X172968000Y-118333000D03*
D22*
X123373000Y-134238000D03*
X123373000Y-132428000D03*
D19*
X174778000Y-122333000D03*
X172968000Y-122333000D03*
D22*
X105873000Y-109928000D03*
X105873000Y-111738000D03*
X107873000Y-111738000D03*
X107873000Y-109928000D03*
X109873000Y-109928000D03*
X109873000Y-111738000D03*
X111873000Y-111738000D03*
X111873000Y-109928000D03*
X113873000Y-109928000D03*
X113873000Y-111738000D03*
X115873000Y-111738000D03*
X115873000Y-109928000D03*
X117873000Y-109928000D03*
X117873000Y-111738000D03*
D24*
X165873000Y-59333000D03*
X131873000Y-59333000D03*
D13*
X186873000Y-72833000D03*
D25*
X189373000Y-72833000D03*
D22*
X181273000Y-112133000D03*
X181273000Y-113943000D03*
X178873000Y-113938000D03*
X178873000Y-112128000D03*
D26*
G36*
X117350691Y-61784053D02*
G01*
X117371926Y-61787203D01*
X117392750Y-61792419D01*
X117412962Y-61799651D01*
X117432368Y-61808830D01*
X117450781Y-61819866D01*
X117468024Y-61832654D01*
X117483930Y-61847070D01*
X117498346Y-61862976D01*
X117511134Y-61880219D01*
X117522170Y-61898632D01*
X117531349Y-61918038D01*
X117538581Y-61938250D01*
X117543797Y-61959074D01*
X117546947Y-61980309D01*
X117548000Y-62001750D01*
X117548000Y-62439250D01*
X117546947Y-62460691D01*
X117543797Y-62481926D01*
X117538581Y-62502750D01*
X117531349Y-62522962D01*
X117522170Y-62542368D01*
X117511134Y-62560781D01*
X117498346Y-62578024D01*
X117483930Y-62593930D01*
X117468024Y-62608346D01*
X117450781Y-62621134D01*
X117432368Y-62632170D01*
X117412962Y-62641349D01*
X117392750Y-62648581D01*
X117371926Y-62653797D01*
X117350691Y-62656947D01*
X117329250Y-62658000D01*
X116816750Y-62658000D01*
X116795309Y-62656947D01*
X116774074Y-62653797D01*
X116753250Y-62648581D01*
X116733038Y-62641349D01*
X116713632Y-62632170D01*
X116695219Y-62621134D01*
X116677976Y-62608346D01*
X116662070Y-62593930D01*
X116647654Y-62578024D01*
X116634866Y-62560781D01*
X116623830Y-62542368D01*
X116614651Y-62522962D01*
X116607419Y-62502750D01*
X116602203Y-62481926D01*
X116599053Y-62460691D01*
X116598000Y-62439250D01*
X116598000Y-62001750D01*
X116599053Y-61980309D01*
X116602203Y-61959074D01*
X116607419Y-61938250D01*
X116614651Y-61918038D01*
X116623830Y-61898632D01*
X116634866Y-61880219D01*
X116647654Y-61862976D01*
X116662070Y-61847070D01*
X116677976Y-61832654D01*
X116695219Y-61819866D01*
X116713632Y-61808830D01*
X116733038Y-61799651D01*
X116753250Y-61792419D01*
X116774074Y-61787203D01*
X116795309Y-61784053D01*
X116816750Y-61783000D01*
X117329250Y-61783000D01*
X117350691Y-61784053D01*
X117350691Y-61784053D01*
G37*
D27*
X117073000Y-62220500D03*
D26*
G36*
X117350691Y-60209053D02*
G01*
X117371926Y-60212203D01*
X117392750Y-60217419D01*
X117412962Y-60224651D01*
X117432368Y-60233830D01*
X117450781Y-60244866D01*
X117468024Y-60257654D01*
X117483930Y-60272070D01*
X117498346Y-60287976D01*
X117511134Y-60305219D01*
X117522170Y-60323632D01*
X117531349Y-60343038D01*
X117538581Y-60363250D01*
X117543797Y-60384074D01*
X117546947Y-60405309D01*
X117548000Y-60426750D01*
X117548000Y-60864250D01*
X117546947Y-60885691D01*
X117543797Y-60906926D01*
X117538581Y-60927750D01*
X117531349Y-60947962D01*
X117522170Y-60967368D01*
X117511134Y-60985781D01*
X117498346Y-61003024D01*
X117483930Y-61018930D01*
X117468024Y-61033346D01*
X117450781Y-61046134D01*
X117432368Y-61057170D01*
X117412962Y-61066349D01*
X117392750Y-61073581D01*
X117371926Y-61078797D01*
X117350691Y-61081947D01*
X117329250Y-61083000D01*
X116816750Y-61083000D01*
X116795309Y-61081947D01*
X116774074Y-61078797D01*
X116753250Y-61073581D01*
X116733038Y-61066349D01*
X116713632Y-61057170D01*
X116695219Y-61046134D01*
X116677976Y-61033346D01*
X116662070Y-61018930D01*
X116647654Y-61003024D01*
X116634866Y-60985781D01*
X116623830Y-60967368D01*
X116614651Y-60947962D01*
X116607419Y-60927750D01*
X116602203Y-60906926D01*
X116599053Y-60885691D01*
X116598000Y-60864250D01*
X116598000Y-60426750D01*
X116599053Y-60405309D01*
X116602203Y-60384074D01*
X116607419Y-60363250D01*
X116614651Y-60343038D01*
X116623830Y-60323632D01*
X116634866Y-60305219D01*
X116647654Y-60287976D01*
X116662070Y-60272070D01*
X116677976Y-60257654D01*
X116695219Y-60244866D01*
X116713632Y-60233830D01*
X116733038Y-60224651D01*
X116753250Y-60217419D01*
X116774074Y-60212203D01*
X116795309Y-60209053D01*
X116816750Y-60208000D01*
X117329250Y-60208000D01*
X117350691Y-60209053D01*
X117350691Y-60209053D01*
G37*
D27*
X117073000Y-60645500D03*
D22*
X115073000Y-62438000D03*
X115073000Y-60628000D03*
D28*
X176973000Y-84633000D03*
X176973000Y-79633000D03*
X171973000Y-79633000D03*
X171973000Y-84633000D03*
X171573000Y-100333000D03*
X171573000Y-95333000D03*
X176573000Y-95333000D03*
X176573000Y-100333000D03*
D29*
X146448000Y-59483000D03*
D30*
X151448000Y-59483000D03*
D31*
X172873000Y-124333000D03*
X172873000Y-116733000D03*
X179872996Y-120333000D03*
X168273000Y-98333000D03*
X142473000Y-138033000D03*
X121373000Y-135833000D03*
X121373000Y-130833000D03*
X179873000Y-118133022D03*
X180073000Y-122533000D03*
X112773000Y-72833000D03*
X114673000Y-74733000D03*
D32*
X129873000Y-135333000D02*
X126873000Y-135333000D01*
X125778000Y-134238000D02*
X123373000Y-134238000D01*
X126873000Y-135333000D02*
X125778000Y-134238000D01*
X172873000Y-122428000D02*
X172873000Y-124333000D01*
X172968000Y-122333000D02*
X172873000Y-122428000D01*
X172873000Y-118238000D02*
X172873000Y-116733000D01*
X172968000Y-118333000D02*
X172873000Y-118238000D01*
X170473000Y-122333000D02*
X172968000Y-122333000D01*
X166473000Y-118333000D02*
X170473000Y-122333000D01*
X163521630Y-118333000D02*
X166473000Y-118333000D01*
X162893000Y-120093000D02*
X162893000Y-118961630D01*
X162893000Y-118961630D02*
X163521630Y-118333000D01*
X172873000Y-124333000D02*
X179673000Y-124333000D01*
X179673000Y-124333000D02*
X181273000Y-122733000D01*
X181273000Y-122733000D02*
X181273000Y-113943000D01*
X181268000Y-113938000D02*
X181273000Y-113943000D01*
X178873000Y-113938000D02*
X181268000Y-113938000D01*
X132413000Y-135333000D02*
X132413000Y-132873000D01*
X128873000Y-129333000D02*
X123373000Y-129333000D01*
X132413000Y-132873000D02*
X128873000Y-129333000D01*
X174778000Y-122333000D02*
X176468000Y-122333000D01*
X174778000Y-121408000D02*
X174778000Y-122333000D01*
X166509410Y-117733000D02*
X169509410Y-120733000D01*
X174103000Y-120733000D02*
X174778000Y-121408000D01*
X157813000Y-118393000D02*
X158473000Y-117733000D01*
X157813000Y-120093000D02*
X157813000Y-118393000D01*
X158473000Y-117733000D02*
X166509410Y-117733000D01*
X169509410Y-120733000D02*
X174103000Y-120733000D01*
X176468000Y-122333000D02*
X176468000Y-122083000D01*
X179307311Y-120333000D02*
X179872996Y-120333000D01*
X178218000Y-120333000D02*
X179307311Y-120333000D01*
X176468000Y-122083000D02*
X178218000Y-120333000D01*
X174778000Y-118333000D02*
X176568000Y-118333000D01*
X168273000Y-100133000D02*
X168273000Y-98333000D01*
X176473000Y-117313000D02*
X176473000Y-108333000D01*
X176473000Y-108333000D02*
X168273000Y-100133000D01*
X176568000Y-118333000D02*
X176568000Y-117408000D01*
X176568000Y-117408000D02*
X176473000Y-117313000D01*
X156323010Y-117282990D02*
X155273000Y-118333000D01*
X174778000Y-119258000D02*
X173753010Y-120282990D01*
X155273000Y-118333000D02*
X155273000Y-120093000D01*
X169695810Y-120282990D02*
X166695810Y-117282990D01*
X173753010Y-120282990D02*
X169695810Y-120282990D01*
X174778000Y-118333000D02*
X174778000Y-119258000D01*
X166695810Y-117282990D02*
X156323010Y-117282990D01*
X145073000Y-137833000D02*
X143372999Y-136132999D01*
X143372999Y-136132999D02*
X142573000Y-135333000D01*
X170509410Y-137833000D02*
X145073000Y-137833000D01*
X174373000Y-130969410D02*
X174373000Y-133969410D01*
X174373000Y-133969410D02*
X170509410Y-137833000D01*
X180769412Y-124573000D02*
X180641206Y-124701206D01*
X188073000Y-124573000D02*
X180769412Y-124573000D01*
X180641206Y-124701206D02*
X174373000Y-130969410D01*
X145113000Y-135333000D02*
X147113000Y-137333000D01*
X173873000Y-133833000D02*
X173873000Y-130833000D01*
X170373000Y-137333000D02*
X173873000Y-133833000D01*
X147113000Y-137333000D02*
X170373000Y-137333000D01*
X187923000Y-122033000D02*
X185833010Y-124122990D01*
X188073000Y-122033000D02*
X187923000Y-122033000D01*
X180583010Y-124122990D02*
X180573000Y-124133000D01*
X185833010Y-124122990D02*
X180583010Y-124122990D01*
X173873000Y-130833000D02*
X180573000Y-124133000D01*
X115323000Y-66433000D02*
X115323000Y-71583000D01*
X115323000Y-71583000D02*
X102673000Y-84233000D01*
X102673000Y-84233000D02*
X102673000Y-135133000D01*
X102673000Y-135133000D02*
X105573000Y-138033000D01*
X105573000Y-138033000D02*
X142473000Y-138033000D01*
X169773000Y-96583000D02*
X168123000Y-96583000D01*
X168123000Y-96583000D02*
X166873000Y-97833000D01*
X166873000Y-114033000D02*
X164073020Y-116832980D01*
X166873000Y-97833000D02*
X166873000Y-114033000D01*
X164073020Y-116832980D02*
X143773020Y-116832980D01*
X142573000Y-118033000D02*
X142573000Y-120093000D01*
X143773020Y-116832980D02*
X142573000Y-118033000D01*
X171573000Y-98383000D02*
X169773000Y-96583000D01*
X171573000Y-100333000D02*
X171573000Y-98383000D01*
X171573000Y-100333000D02*
X176573000Y-100333000D01*
X176573000Y-100333000D02*
X178873000Y-102633000D01*
X178873000Y-102633000D02*
X178873000Y-112128000D01*
X105873000Y-111738000D02*
X105873000Y-115333000D01*
X105873000Y-115333000D02*
X105873000Y-114333000D01*
X105873000Y-118333000D02*
X105873000Y-115333000D01*
X113623055Y-126083055D02*
X105873000Y-118333000D01*
X152123055Y-126083055D02*
X113623055Y-126083055D01*
X152733000Y-135333000D02*
X152733000Y-126693000D01*
X152733000Y-126693000D02*
X152123055Y-126083055D01*
X140832999Y-119136591D02*
X143636590Y-116333000D01*
X140033000Y-120093000D02*
X140832999Y-119293001D01*
X140832999Y-119293001D02*
X140832999Y-119136591D01*
X143636590Y-116333000D02*
X163936590Y-116333000D01*
X163936590Y-116333000D02*
X166422990Y-113846600D01*
X166422990Y-113846600D02*
X166422991Y-97646599D01*
X167854795Y-93151205D02*
X167854795Y-96214795D01*
X166422991Y-97646599D02*
X167854795Y-96214795D01*
X171973000Y-84633000D02*
X176973000Y-84633000D01*
X167973000Y-93033000D02*
X167854795Y-93151205D01*
X171973000Y-84633000D02*
X171973000Y-88433000D01*
X167973000Y-92433000D02*
X167973000Y-93033000D01*
X171973000Y-88433000D02*
X167973000Y-92433000D01*
X168173000Y-92833000D02*
X167973000Y-93033000D01*
X177173000Y-92833000D02*
X168173000Y-92833000D01*
X181273000Y-112133000D02*
X181273000Y-96933000D01*
X181273000Y-96933000D02*
X177173000Y-92833000D01*
X107873000Y-112413000D02*
X107873000Y-111738000D01*
X155273000Y-126233000D02*
X154673044Y-125633044D01*
X155273000Y-135333000D02*
X155273000Y-126233000D01*
X154673044Y-125633044D02*
X114173044Y-125633044D01*
X114173044Y-125633044D02*
X107873000Y-119333000D01*
X107873000Y-119333000D02*
X107873000Y-112413000D01*
X157813000Y-125773000D02*
X157223033Y-125183033D01*
X157813000Y-135333000D02*
X157813000Y-125773000D01*
X157223033Y-125183033D02*
X114359443Y-125183033D01*
X114359443Y-125183033D02*
X109873000Y-120696590D01*
X109873000Y-112413000D02*
X109873000Y-111738000D01*
X109873000Y-120696590D02*
X109873000Y-112413000D01*
X159273022Y-124733022D02*
X114545842Y-124733022D01*
X160353000Y-125813000D02*
X159273022Y-124733022D01*
X114545842Y-124733022D02*
X111873000Y-122060180D01*
X111873000Y-112413000D02*
X111873000Y-111738000D01*
X160353000Y-135333000D02*
X160353000Y-125813000D01*
X111873000Y-122060180D02*
X111873000Y-112413000D01*
X162323011Y-124283011D02*
X162893000Y-124853000D01*
X162893000Y-124853000D02*
X162893000Y-135333000D01*
X114823011Y-124283011D02*
X162323011Y-124283011D01*
X113873000Y-111738000D02*
X113873000Y-123333000D01*
X113873000Y-123333000D02*
X114823011Y-124283011D01*
X165373000Y-135273000D02*
X165433000Y-135333000D01*
X115873000Y-111738000D02*
X115873000Y-123333000D01*
X115873000Y-123333000D02*
X116373000Y-123833000D01*
X116373000Y-123833000D02*
X164373000Y-123833000D01*
X164373000Y-123833000D02*
X165373000Y-124833000D01*
X165373000Y-124833000D02*
X165373000Y-135273000D01*
X124873000Y-123333000D02*
X124373000Y-123333000D01*
X118373000Y-123333000D02*
X124873000Y-123333000D01*
X117873000Y-122833000D02*
X118373000Y-123333000D01*
X117873000Y-111738000D02*
X117873000Y-122833000D01*
X165433000Y-122273000D02*
X165433000Y-120093000D01*
X124873000Y-123333000D02*
X164373000Y-123333000D01*
X164373000Y-123333000D02*
X165433000Y-122273000D01*
X121373000Y-134283000D02*
X121373000Y-134933000D01*
X121373000Y-134933000D02*
X121373000Y-135833000D01*
X121373000Y-129283000D02*
X121373000Y-130833000D01*
X179872978Y-118133000D02*
X179873000Y-118133022D01*
X178378000Y-118333000D02*
X178578000Y-118133000D01*
X178578000Y-118133000D02*
X179872978Y-118133000D01*
X178478000Y-122533000D02*
X180073000Y-122533000D01*
X178278000Y-122333000D02*
X178478000Y-122533000D01*
X110873000Y-63753000D02*
X111493000Y-63133000D01*
X110873000Y-64428000D02*
X110873000Y-63753000D01*
X113423000Y-65013000D02*
X113423000Y-64233000D01*
X117113000Y-65333000D02*
X113743000Y-65333000D01*
X113743000Y-65333000D02*
X113423000Y-65013000D01*
X117363000Y-65083000D02*
X117113000Y-65333000D01*
X117963000Y-65083000D02*
X117363000Y-65083000D01*
X113423000Y-64233000D02*
X113423000Y-63583010D01*
X113423000Y-64233000D02*
X113423000Y-62883000D01*
X113868000Y-62438000D02*
X115073000Y-62438000D01*
X113423000Y-62883000D02*
X113868000Y-62438000D01*
X110873000Y-66238000D02*
X110873000Y-70933000D01*
X110873000Y-70933000D02*
X112773000Y-72833000D01*
X114673000Y-74733000D02*
X114673000Y-77933000D01*
X114673000Y-77933000D02*
X131773000Y-95033000D01*
X131773000Y-95033000D02*
X133073000Y-95033000D01*
X129873000Y-120093000D02*
X127013000Y-120093000D01*
X113953000Y-67633000D02*
X110873000Y-67633000D01*
X110873000Y-67633000D02*
X110873000Y-66238000D01*
X114373000Y-66433000D02*
X114373000Y-67213000D01*
X114373000Y-67213000D02*
X113953000Y-67633000D01*
X104753000Y-95453000D02*
X106373000Y-95453000D01*
X103873000Y-96333000D02*
X104753000Y-95453000D01*
X103873000Y-118533000D02*
X103873000Y-96333000D01*
X119373000Y-133333000D02*
X118673000Y-133333000D01*
X118673000Y-133333000D02*
X103873000Y-118533000D01*
X123328000Y-132383000D02*
X123373000Y-132428000D01*
X121373000Y-132383000D02*
X123328000Y-132383000D01*
X123233000Y-127383000D02*
X123373000Y-127523000D01*
X121373000Y-127383000D02*
X123233000Y-127383000D01*
X104373000Y-99993000D02*
X106373000Y-97993000D01*
X104373000Y-117833000D02*
X104373000Y-99993000D01*
X119373000Y-128333000D02*
X114873000Y-128333000D01*
X114873000Y-128333000D02*
X104373000Y-117833000D01*
X106373000Y-109428000D02*
X106373000Y-105613000D01*
X105873000Y-109928000D02*
X106373000Y-109428000D01*
X106743000Y-103073000D02*
X106373000Y-103073000D01*
X107873000Y-109928000D02*
X107873000Y-104203000D01*
X107873000Y-104203000D02*
X106743000Y-103073000D01*
X109873000Y-109928000D02*
X109873000Y-102333000D01*
X108073000Y-100533000D02*
X106373000Y-100533000D01*
X109873000Y-102333000D02*
X108073000Y-100533000D01*
X117873000Y-109928000D02*
X117873000Y-108833000D01*
X119073000Y-107633000D02*
X119073000Y-105613000D01*
X117873000Y-108833000D02*
X119073000Y-107633000D01*
X115873000Y-109928000D02*
X115873000Y-104833000D01*
X117633000Y-103073000D02*
X119073000Y-103073000D01*
X115873000Y-104833000D02*
X117633000Y-103073000D01*
X119073000Y-100533000D02*
X116673000Y-100533000D01*
X113873000Y-103333000D02*
X113873000Y-109928000D01*
X116673000Y-100533000D02*
X113873000Y-103333000D01*
X119073000Y-96655081D02*
X119073000Y-97993000D01*
X119073000Y-95453000D02*
X119073000Y-96655081D01*
X116213000Y-97993000D02*
X119073000Y-97993000D01*
X111873000Y-109928000D02*
X111873000Y-102333000D01*
X111873000Y-102333000D02*
X116213000Y-97993000D01*
X117055500Y-60628000D02*
X117073000Y-60645500D01*
X115073000Y-60628000D02*
X117055500Y-60628000D01*
D33*
G36*
X180542463Y-69443506D02*
G01*
X180483498Y-69553820D01*
X180447188Y-69673518D01*
X180434928Y-69798000D01*
X180438000Y-70047250D01*
X180596750Y-70206000D01*
X181746000Y-70206000D01*
X181746000Y-70186000D01*
X182000000Y-70186000D01*
X182000000Y-70206000D01*
X183149250Y-70206000D01*
X183308000Y-70047250D01*
X183311072Y-69798000D01*
X183298812Y-69673518D01*
X183262502Y-69553820D01*
X183203537Y-69443506D01*
X183135006Y-69360000D01*
X192746000Y-69360000D01*
X192746000Y-120606000D01*
X188686149Y-120606000D01*
X188517051Y-120554705D01*
X188296680Y-120533000D01*
X187849320Y-120533000D01*
X187628949Y-120554705D01*
X187459851Y-120606000D01*
X182033000Y-120606000D01*
X182033000Y-116088000D01*
X186419928Y-116088000D01*
X186419928Y-117818000D01*
X186432188Y-117942482D01*
X186468498Y-118062180D01*
X186527463Y-118172494D01*
X186606815Y-118269185D01*
X186703506Y-118348537D01*
X186813820Y-118407502D01*
X186933518Y-118443812D01*
X187058000Y-118456072D01*
X189088000Y-118456072D01*
X189212482Y-118443812D01*
X189332180Y-118407502D01*
X189442494Y-118348537D01*
X189539185Y-118269185D01*
X189618537Y-118172494D01*
X189677502Y-118062180D01*
X189713812Y-117942482D01*
X189726072Y-117818000D01*
X189726072Y-116088000D01*
X189713812Y-115963518D01*
X189677502Y-115843820D01*
X189618537Y-115733506D01*
X189539185Y-115636815D01*
X189442494Y-115557463D01*
X189332180Y-115498498D01*
X189212482Y-115462188D01*
X189088000Y-115449928D01*
X187058000Y-115449928D01*
X186933518Y-115462188D01*
X186813820Y-115498498D01*
X186703506Y-115557463D01*
X186606815Y-115636815D01*
X186527463Y-115733506D01*
X186468498Y-115843820D01*
X186432188Y-115963518D01*
X186419928Y-116088000D01*
X182033000Y-116088000D01*
X182033000Y-114997701D01*
X182072482Y-114993812D01*
X182192180Y-114957502D01*
X182302494Y-114898537D01*
X182399185Y-114819185D01*
X182478537Y-114722494D01*
X182537502Y-114612180D01*
X182573812Y-114492482D01*
X182586072Y-114368000D01*
X182586072Y-113518000D01*
X182573812Y-113393518D01*
X182537502Y-113273820D01*
X182478537Y-113163506D01*
X182399185Y-113066815D01*
X182364074Y-113038000D01*
X182399185Y-113009185D01*
X182478537Y-112912494D01*
X182537502Y-112802180D01*
X182573812Y-112682482D01*
X182586072Y-112558000D01*
X182586072Y-111708000D01*
X182573812Y-111583518D01*
X182537502Y-111463820D01*
X182478537Y-111353506D01*
X182399185Y-111256815D01*
X182302494Y-111177463D01*
X182192180Y-111118498D01*
X182072482Y-111082188D01*
X182033000Y-111078299D01*
X182033000Y-96970333D01*
X182036677Y-96933000D01*
X182022003Y-96784014D01*
X181978546Y-96640753D01*
X181907974Y-96508724D01*
X181836799Y-96421997D01*
X181813001Y-96392999D01*
X181784003Y-96369201D01*
X177736804Y-92322003D01*
X177713001Y-92292999D01*
X177597276Y-92198026D01*
X177465247Y-92127454D01*
X177321986Y-92083997D01*
X177210333Y-92073000D01*
X177210322Y-92073000D01*
X177173000Y-92069324D01*
X177135678Y-92073000D01*
X169407801Y-92073000D01*
X172484003Y-88996799D01*
X172513001Y-88973001D01*
X172607974Y-88857276D01*
X172678546Y-88725247D01*
X172722003Y-88581986D01*
X172733000Y-88470333D01*
X172733000Y-88470324D01*
X172736676Y-88433001D01*
X172733000Y-88395678D01*
X172733000Y-86196148D01*
X172794831Y-86170537D01*
X173078998Y-85980663D01*
X173320663Y-85738998D01*
X173510537Y-85454831D01*
X173536148Y-85393000D01*
X175409852Y-85393000D01*
X175435463Y-85454831D01*
X175625337Y-85738998D01*
X175867002Y-85980663D01*
X176151169Y-86170537D01*
X176466919Y-86301325D01*
X176802117Y-86368000D01*
X177143883Y-86368000D01*
X177479081Y-86301325D01*
X177794831Y-86170537D01*
X178078998Y-85980663D01*
X178320663Y-85738998D01*
X178510537Y-85454831D01*
X178641325Y-85139081D01*
X178708000Y-84803883D01*
X178708000Y-84462117D01*
X178641325Y-84126919D01*
X178510537Y-83811169D01*
X178320663Y-83527002D01*
X178078998Y-83285337D01*
X177794831Y-83095463D01*
X177479081Y-82964675D01*
X177143883Y-82898000D01*
X176802117Y-82898000D01*
X176466919Y-82964675D01*
X176151169Y-83095463D01*
X175867002Y-83285337D01*
X175625337Y-83527002D01*
X175435463Y-83811169D01*
X175409852Y-83873000D01*
X173536148Y-83873000D01*
X173510537Y-83811169D01*
X173320663Y-83527002D01*
X173078998Y-83285337D01*
X172794831Y-83095463D01*
X172479081Y-82964675D01*
X172143883Y-82898000D01*
X171802117Y-82898000D01*
X171466919Y-82964675D01*
X171151169Y-83095463D01*
X170867002Y-83285337D01*
X170625337Y-83527002D01*
X170435463Y-83811169D01*
X170304675Y-84126919D01*
X170238000Y-84462117D01*
X170238000Y-84803883D01*
X170304675Y-85139081D01*
X170435463Y-85454831D01*
X170625337Y-85738998D01*
X170867002Y-85980663D01*
X171151169Y-86170537D01*
X171213000Y-86196148D01*
X171213001Y-88118197D01*
X167462003Y-91869196D01*
X167432999Y-91892999D01*
X167377871Y-91960174D01*
X167338026Y-92008724D01*
X167297791Y-92083998D01*
X167267454Y-92140754D01*
X167223997Y-92284015D01*
X167213000Y-92395668D01*
X167213000Y-92395678D01*
X167209324Y-92433000D01*
X167213000Y-92470322D01*
X167213000Y-92739690D01*
X167150149Y-92857276D01*
X167149249Y-92858959D01*
X167105792Y-93002220D01*
X167094795Y-93113873D01*
X167094795Y-93113883D01*
X167091119Y-93151205D01*
X167094795Y-93188528D01*
X167094796Y-95899992D01*
X165911989Y-97082800D01*
X165882991Y-97106598D01*
X165859193Y-97135596D01*
X165859192Y-97135597D01*
X165788017Y-97222323D01*
X165717445Y-97354353D01*
X165673989Y-97497614D01*
X165659315Y-97646599D01*
X165662992Y-97683931D01*
X165662990Y-113531798D01*
X163621789Y-115573000D01*
X143673912Y-115573000D01*
X143636589Y-115569324D01*
X143599266Y-115573000D01*
X143599257Y-115573000D01*
X143487604Y-115583997D01*
X143344343Y-115627454D01*
X143212314Y-115698026D01*
X143212312Y-115698027D01*
X143212313Y-115698027D01*
X143125586Y-115769201D01*
X143125582Y-115769205D01*
X143096589Y-115792999D01*
X143072795Y-115821992D01*
X140488789Y-118406000D01*
X128273000Y-118406000D01*
X128248224Y-118408440D01*
X128224399Y-118415667D01*
X128202443Y-118427403D01*
X128183197Y-118443197D01*
X128167403Y-118462443D01*
X128155667Y-118484399D01*
X128148440Y-118508224D01*
X128146000Y-118533000D01*
X128146000Y-121606000D01*
X121500000Y-121606000D01*
X121500000Y-115646605D01*
X123739000Y-115646605D01*
X123864914Y-115936577D01*
X124197126Y-116102433D01*
X124555312Y-116200290D01*
X124925706Y-116226389D01*
X125294075Y-116179725D01*
X125646262Y-116062094D01*
X125881086Y-115936577D01*
X126007000Y-115646605D01*
X124873000Y-114512605D01*
X123739000Y-115646605D01*
X121500000Y-115646605D01*
X121500000Y-114385706D01*
X122979611Y-114385706D01*
X123026275Y-114754075D01*
X123143906Y-115106262D01*
X123269423Y-115341086D01*
X123559395Y-115467000D01*
X124693395Y-114333000D01*
X125052605Y-114333000D01*
X126186605Y-115467000D01*
X126476577Y-115341086D01*
X126642433Y-115008874D01*
X126740290Y-114650688D01*
X126766389Y-114280294D01*
X126719725Y-113911925D01*
X126602094Y-113559738D01*
X126476577Y-113324914D01*
X126186605Y-113199000D01*
X125052605Y-114333000D01*
X124693395Y-114333000D01*
X123559395Y-113199000D01*
X123269423Y-113324914D01*
X123103567Y-113657126D01*
X123005710Y-114015312D01*
X122979611Y-114385706D01*
X121500000Y-114385706D01*
X121500000Y-113019395D01*
X123739000Y-113019395D01*
X124873000Y-114153395D01*
X126007000Y-113019395D01*
X125881086Y-112729423D01*
X125548874Y-112563567D01*
X125190688Y-112465710D01*
X124820294Y-112439611D01*
X124451925Y-112486275D01*
X124099738Y-112603906D01*
X123864914Y-112729423D01*
X123739000Y-113019395D01*
X121500000Y-113019395D01*
X121500000Y-97235606D01*
X139273489Y-79462117D01*
X170238000Y-79462117D01*
X170238000Y-79803883D01*
X170304675Y-80139081D01*
X170435463Y-80454831D01*
X170625337Y-80738998D01*
X170867002Y-80980663D01*
X171151169Y-81170537D01*
X171466919Y-81301325D01*
X171802117Y-81368000D01*
X172143883Y-81368000D01*
X172479081Y-81301325D01*
X172794831Y-81170537D01*
X173078998Y-80980663D01*
X173320663Y-80738998D01*
X173510537Y-80454831D01*
X173641325Y-80139081D01*
X173708000Y-79803883D01*
X173708000Y-79462117D01*
X175238000Y-79462117D01*
X175238000Y-79803883D01*
X175304675Y-80139081D01*
X175435463Y-80454831D01*
X175625337Y-80738998D01*
X175867002Y-80980663D01*
X176151169Y-81170537D01*
X176466919Y-81301325D01*
X176802117Y-81368000D01*
X177143883Y-81368000D01*
X177479081Y-81301325D01*
X177794831Y-81170537D01*
X178078998Y-80980663D01*
X178320663Y-80738998D01*
X178510537Y-80454831D01*
X178641325Y-80139081D01*
X178708000Y-79803883D01*
X178708000Y-79462117D01*
X178641325Y-79126919D01*
X178510537Y-78811169D01*
X178320663Y-78527002D01*
X178078998Y-78285337D01*
X177794831Y-78095463D01*
X177479081Y-77964675D01*
X177143883Y-77898000D01*
X176802117Y-77898000D01*
X176466919Y-77964675D01*
X176151169Y-78095463D01*
X175867002Y-78285337D01*
X175625337Y-78527002D01*
X175435463Y-78811169D01*
X175304675Y-79126919D01*
X175238000Y-79462117D01*
X173708000Y-79462117D01*
X173641325Y-79126919D01*
X173510537Y-78811169D01*
X173320663Y-78527002D01*
X173078998Y-78285337D01*
X172794831Y-78095463D01*
X172479081Y-77964675D01*
X172143883Y-77898000D01*
X171802117Y-77898000D01*
X171466919Y-77964675D01*
X171151169Y-78095463D01*
X170867002Y-78285337D01*
X170625337Y-78527002D01*
X170435463Y-78811169D01*
X170304675Y-79126919D01*
X170238000Y-79462117D01*
X139273489Y-79462117D01*
X145102606Y-73633000D01*
X185434928Y-73633000D01*
X185447188Y-73757482D01*
X185483498Y-73877180D01*
X185542463Y-73987494D01*
X185621815Y-74084185D01*
X185718506Y-74163537D01*
X185828820Y-74222502D01*
X185948518Y-74258812D01*
X186073000Y-74271072D01*
X186587250Y-74268000D01*
X186746000Y-74109250D01*
X186746000Y-72960000D01*
X185596750Y-72960000D01*
X185438000Y-73118750D01*
X185434928Y-73633000D01*
X145102606Y-73633000D01*
X146702606Y-72033000D01*
X185434928Y-72033000D01*
X185438000Y-72547250D01*
X185596750Y-72706000D01*
X186746000Y-72706000D01*
X186746000Y-71556750D01*
X187000000Y-71556750D01*
X187000000Y-72706000D01*
X187020000Y-72706000D01*
X187020000Y-72960000D01*
X187000000Y-72960000D01*
X187000000Y-74109250D01*
X187158750Y-74268000D01*
X187673000Y-74271072D01*
X187797482Y-74258812D01*
X187917180Y-74222502D01*
X188027494Y-74163537D01*
X188124185Y-74084185D01*
X188203537Y-73987494D01*
X188262502Y-73877180D01*
X188291661Y-73781057D01*
X188458241Y-73947637D01*
X188693273Y-74104680D01*
X188954426Y-74212853D01*
X189231665Y-74268000D01*
X189514335Y-74268000D01*
X189791574Y-74212853D01*
X190052727Y-74104680D01*
X190287759Y-73947637D01*
X190487637Y-73747759D01*
X190644680Y-73512727D01*
X190752853Y-73251574D01*
X190808000Y-72974335D01*
X190808000Y-72691665D01*
X190752853Y-72414426D01*
X190644680Y-72153273D01*
X190487637Y-71918241D01*
X190287759Y-71718363D01*
X190052727Y-71561320D01*
X189791574Y-71453147D01*
X189514335Y-71398000D01*
X189231665Y-71398000D01*
X188954426Y-71453147D01*
X188693273Y-71561320D01*
X188458241Y-71718363D01*
X188291661Y-71884943D01*
X188262502Y-71788820D01*
X188203537Y-71678506D01*
X188124185Y-71581815D01*
X188027494Y-71502463D01*
X187917180Y-71443498D01*
X187797482Y-71407188D01*
X187673000Y-71394928D01*
X187158750Y-71398000D01*
X187000000Y-71556750D01*
X186746000Y-71556750D01*
X186587250Y-71398000D01*
X186073000Y-71394928D01*
X185948518Y-71407188D01*
X185828820Y-71443498D01*
X185718506Y-71502463D01*
X185621815Y-71581815D01*
X185542463Y-71678506D01*
X185483498Y-71788820D01*
X185447188Y-71908518D01*
X185434928Y-72033000D01*
X146702606Y-72033000D01*
X147867606Y-70868000D01*
X180434928Y-70868000D01*
X180447188Y-70992482D01*
X180483498Y-71112180D01*
X180542463Y-71222494D01*
X180621815Y-71319185D01*
X180718506Y-71398537D01*
X180828820Y-71457502D01*
X180948518Y-71493812D01*
X181073000Y-71506072D01*
X181587250Y-71503000D01*
X181746000Y-71344250D01*
X181746000Y-70460000D01*
X182000000Y-70460000D01*
X182000000Y-71344250D01*
X182158750Y-71503000D01*
X182673000Y-71506072D01*
X182797482Y-71493812D01*
X182917180Y-71457502D01*
X183027494Y-71398537D01*
X183124185Y-71319185D01*
X183203537Y-71222494D01*
X183262502Y-71112180D01*
X183298812Y-70992482D01*
X183311072Y-70868000D01*
X183308000Y-70618750D01*
X183149250Y-70460000D01*
X182000000Y-70460000D01*
X181746000Y-70460000D01*
X180596750Y-70460000D01*
X180438000Y-70618750D01*
X180434928Y-70868000D01*
X147867606Y-70868000D01*
X149362803Y-69372803D01*
X149373310Y-69360000D01*
X180610994Y-69360000D01*
X180542463Y-69443506D01*
X180542463Y-69443506D01*
G37*
X180542463Y-69443506D02*
X180483498Y-69553820D01*
X180447188Y-69673518D01*
X180434928Y-69798000D01*
X180438000Y-70047250D01*
X180596750Y-70206000D01*
X181746000Y-70206000D01*
X181746000Y-70186000D01*
X182000000Y-70186000D01*
X182000000Y-70206000D01*
X183149250Y-70206000D01*
X183308000Y-70047250D01*
X183311072Y-69798000D01*
X183298812Y-69673518D01*
X183262502Y-69553820D01*
X183203537Y-69443506D01*
X183135006Y-69360000D01*
X192746000Y-69360000D01*
X192746000Y-120606000D01*
X188686149Y-120606000D01*
X188517051Y-120554705D01*
X188296680Y-120533000D01*
X187849320Y-120533000D01*
X187628949Y-120554705D01*
X187459851Y-120606000D01*
X182033000Y-120606000D01*
X182033000Y-116088000D01*
X186419928Y-116088000D01*
X186419928Y-117818000D01*
X186432188Y-117942482D01*
X186468498Y-118062180D01*
X186527463Y-118172494D01*
X186606815Y-118269185D01*
X186703506Y-118348537D01*
X186813820Y-118407502D01*
X186933518Y-118443812D01*
X187058000Y-118456072D01*
X189088000Y-118456072D01*
X189212482Y-118443812D01*
X189332180Y-118407502D01*
X189442494Y-118348537D01*
X189539185Y-118269185D01*
X189618537Y-118172494D01*
X189677502Y-118062180D01*
X189713812Y-117942482D01*
X189726072Y-117818000D01*
X189726072Y-116088000D01*
X189713812Y-115963518D01*
X189677502Y-115843820D01*
X189618537Y-115733506D01*
X189539185Y-115636815D01*
X189442494Y-115557463D01*
X189332180Y-115498498D01*
X189212482Y-115462188D01*
X189088000Y-115449928D01*
X187058000Y-115449928D01*
X186933518Y-115462188D01*
X186813820Y-115498498D01*
X186703506Y-115557463D01*
X186606815Y-115636815D01*
X186527463Y-115733506D01*
X186468498Y-115843820D01*
X186432188Y-115963518D01*
X186419928Y-116088000D01*
X182033000Y-116088000D01*
X182033000Y-114997701D01*
X182072482Y-114993812D01*
X182192180Y-114957502D01*
X182302494Y-114898537D01*
X182399185Y-114819185D01*
X182478537Y-114722494D01*
X182537502Y-114612180D01*
X182573812Y-114492482D01*
X182586072Y-114368000D01*
X182586072Y-113518000D01*
X182573812Y-113393518D01*
X182537502Y-113273820D01*
X182478537Y-113163506D01*
X182399185Y-113066815D01*
X182364074Y-113038000D01*
X182399185Y-113009185D01*
X182478537Y-112912494D01*
X182537502Y-112802180D01*
X182573812Y-112682482D01*
X182586072Y-112558000D01*
X182586072Y-111708000D01*
X182573812Y-111583518D01*
X182537502Y-111463820D01*
X182478537Y-111353506D01*
X182399185Y-111256815D01*
X182302494Y-111177463D01*
X182192180Y-111118498D01*
X182072482Y-111082188D01*
X182033000Y-111078299D01*
X182033000Y-96970333D01*
X182036677Y-96933000D01*
X182022003Y-96784014D01*
X181978546Y-96640753D01*
X181907974Y-96508724D01*
X181836799Y-96421997D01*
X181813001Y-96392999D01*
X181784003Y-96369201D01*
X177736804Y-92322003D01*
X177713001Y-92292999D01*
X177597276Y-92198026D01*
X177465247Y-92127454D01*
X177321986Y-92083997D01*
X177210333Y-92073000D01*
X177210322Y-92073000D01*
X177173000Y-92069324D01*
X177135678Y-92073000D01*
X169407801Y-92073000D01*
X172484003Y-88996799D01*
X172513001Y-88973001D01*
X172607974Y-88857276D01*
X172678546Y-88725247D01*
X172722003Y-88581986D01*
X172733000Y-88470333D01*
X172733000Y-88470324D01*
X172736676Y-88433001D01*
X172733000Y-88395678D01*
X172733000Y-86196148D01*
X172794831Y-86170537D01*
X173078998Y-85980663D01*
X173320663Y-85738998D01*
X173510537Y-85454831D01*
X173536148Y-85393000D01*
X175409852Y-85393000D01*
X175435463Y-85454831D01*
X175625337Y-85738998D01*
X175867002Y-85980663D01*
X176151169Y-86170537D01*
X176466919Y-86301325D01*
X176802117Y-86368000D01*
X177143883Y-86368000D01*
X177479081Y-86301325D01*
X177794831Y-86170537D01*
X178078998Y-85980663D01*
X178320663Y-85738998D01*
X178510537Y-85454831D01*
X178641325Y-85139081D01*
X178708000Y-84803883D01*
X178708000Y-84462117D01*
X178641325Y-84126919D01*
X178510537Y-83811169D01*
X178320663Y-83527002D01*
X178078998Y-83285337D01*
X177794831Y-83095463D01*
X177479081Y-82964675D01*
X177143883Y-82898000D01*
X176802117Y-82898000D01*
X176466919Y-82964675D01*
X176151169Y-83095463D01*
X175867002Y-83285337D01*
X175625337Y-83527002D01*
X175435463Y-83811169D01*
X175409852Y-83873000D01*
X173536148Y-83873000D01*
X173510537Y-83811169D01*
X173320663Y-83527002D01*
X173078998Y-83285337D01*
X172794831Y-83095463D01*
X172479081Y-82964675D01*
X172143883Y-82898000D01*
X171802117Y-82898000D01*
X171466919Y-82964675D01*
X171151169Y-83095463D01*
X170867002Y-83285337D01*
X170625337Y-83527002D01*
X170435463Y-83811169D01*
X170304675Y-84126919D01*
X170238000Y-84462117D01*
X170238000Y-84803883D01*
X170304675Y-85139081D01*
X170435463Y-85454831D01*
X170625337Y-85738998D01*
X170867002Y-85980663D01*
X171151169Y-86170537D01*
X171213000Y-86196148D01*
X171213001Y-88118197D01*
X167462003Y-91869196D01*
X167432999Y-91892999D01*
X167377871Y-91960174D01*
X167338026Y-92008724D01*
X167297791Y-92083998D01*
X167267454Y-92140754D01*
X167223997Y-92284015D01*
X167213000Y-92395668D01*
X167213000Y-92395678D01*
X167209324Y-92433000D01*
X167213000Y-92470322D01*
X167213000Y-92739690D01*
X167150149Y-92857276D01*
X167149249Y-92858959D01*
X167105792Y-93002220D01*
X167094795Y-93113873D01*
X167094795Y-93113883D01*
X167091119Y-93151205D01*
X167094795Y-93188528D01*
X167094796Y-95899992D01*
X165911989Y-97082800D01*
X165882991Y-97106598D01*
X165859193Y-97135596D01*
X165859192Y-97135597D01*
X165788017Y-97222323D01*
X165717445Y-97354353D01*
X165673989Y-97497614D01*
X165659315Y-97646599D01*
X165662992Y-97683931D01*
X165662990Y-113531798D01*
X163621789Y-115573000D01*
X143673912Y-115573000D01*
X143636589Y-115569324D01*
X143599266Y-115573000D01*
X143599257Y-115573000D01*
X143487604Y-115583997D01*
X143344343Y-115627454D01*
X143212314Y-115698026D01*
X143212312Y-115698027D01*
X143212313Y-115698027D01*
X143125586Y-115769201D01*
X143125582Y-115769205D01*
X143096589Y-115792999D01*
X143072795Y-115821992D01*
X140488789Y-118406000D01*
X128273000Y-118406000D01*
X128248224Y-118408440D01*
X128224399Y-118415667D01*
X128202443Y-118427403D01*
X128183197Y-118443197D01*
X128167403Y-118462443D01*
X128155667Y-118484399D01*
X128148440Y-118508224D01*
X128146000Y-118533000D01*
X128146000Y-121606000D01*
X121500000Y-121606000D01*
X121500000Y-115646605D01*
X123739000Y-115646605D01*
X123864914Y-115936577D01*
X124197126Y-116102433D01*
X124555312Y-116200290D01*
X124925706Y-116226389D01*
X125294075Y-116179725D01*
X125646262Y-116062094D01*
X125881086Y-115936577D01*
X126007000Y-115646605D01*
X124873000Y-114512605D01*
X123739000Y-115646605D01*
X121500000Y-115646605D01*
X121500000Y-114385706D01*
X122979611Y-114385706D01*
X123026275Y-114754075D01*
X123143906Y-115106262D01*
X123269423Y-115341086D01*
X123559395Y-115467000D01*
X124693395Y-114333000D01*
X125052605Y-114333000D01*
X126186605Y-115467000D01*
X126476577Y-115341086D01*
X126642433Y-115008874D01*
X126740290Y-114650688D01*
X126766389Y-114280294D01*
X126719725Y-113911925D01*
X126602094Y-113559738D01*
X126476577Y-113324914D01*
X126186605Y-113199000D01*
X125052605Y-114333000D01*
X124693395Y-114333000D01*
X123559395Y-113199000D01*
X123269423Y-113324914D01*
X123103567Y-113657126D01*
X123005710Y-114015312D01*
X122979611Y-114385706D01*
X121500000Y-114385706D01*
X121500000Y-113019395D01*
X123739000Y-113019395D01*
X124873000Y-114153395D01*
X126007000Y-113019395D01*
X125881086Y-112729423D01*
X125548874Y-112563567D01*
X125190688Y-112465710D01*
X124820294Y-112439611D01*
X124451925Y-112486275D01*
X124099738Y-112603906D01*
X123864914Y-112729423D01*
X123739000Y-113019395D01*
X121500000Y-113019395D01*
X121500000Y-97235606D01*
X139273489Y-79462117D01*
X170238000Y-79462117D01*
X170238000Y-79803883D01*
X170304675Y-80139081D01*
X170435463Y-80454831D01*
X170625337Y-80738998D01*
X170867002Y-80980663D01*
X171151169Y-81170537D01*
X171466919Y-81301325D01*
X171802117Y-81368000D01*
X172143883Y-81368000D01*
X172479081Y-81301325D01*
X172794831Y-81170537D01*
X173078998Y-80980663D01*
X173320663Y-80738998D01*
X173510537Y-80454831D01*
X173641325Y-80139081D01*
X173708000Y-79803883D01*
X173708000Y-79462117D01*
X175238000Y-79462117D01*
X175238000Y-79803883D01*
X175304675Y-80139081D01*
X175435463Y-80454831D01*
X175625337Y-80738998D01*
X175867002Y-80980663D01*
X176151169Y-81170537D01*
X176466919Y-81301325D01*
X176802117Y-81368000D01*
X177143883Y-81368000D01*
X177479081Y-81301325D01*
X177794831Y-81170537D01*
X178078998Y-80980663D01*
X178320663Y-80738998D01*
X178510537Y-80454831D01*
X178641325Y-80139081D01*
X178708000Y-79803883D01*
X178708000Y-79462117D01*
X178641325Y-79126919D01*
X178510537Y-78811169D01*
X178320663Y-78527002D01*
X178078998Y-78285337D01*
X177794831Y-78095463D01*
X177479081Y-77964675D01*
X177143883Y-77898000D01*
X176802117Y-77898000D01*
X176466919Y-77964675D01*
X176151169Y-78095463D01*
X175867002Y-78285337D01*
X175625337Y-78527002D01*
X175435463Y-78811169D01*
X175304675Y-79126919D01*
X175238000Y-79462117D01*
X173708000Y-79462117D01*
X173641325Y-79126919D01*
X173510537Y-78811169D01*
X173320663Y-78527002D01*
X173078998Y-78285337D01*
X172794831Y-78095463D01*
X172479081Y-77964675D01*
X172143883Y-77898000D01*
X171802117Y-77898000D01*
X171466919Y-77964675D01*
X171151169Y-78095463D01*
X170867002Y-78285337D01*
X170625337Y-78527002D01*
X170435463Y-78811169D01*
X170304675Y-79126919D01*
X170238000Y-79462117D01*
X139273489Y-79462117D01*
X145102606Y-73633000D01*
X185434928Y-73633000D01*
X185447188Y-73757482D01*
X185483498Y-73877180D01*
X185542463Y-73987494D01*
X185621815Y-74084185D01*
X185718506Y-74163537D01*
X185828820Y-74222502D01*
X185948518Y-74258812D01*
X186073000Y-74271072D01*
X186587250Y-74268000D01*
X186746000Y-74109250D01*
X186746000Y-72960000D01*
X185596750Y-72960000D01*
X185438000Y-73118750D01*
X185434928Y-73633000D01*
X145102606Y-73633000D01*
X146702606Y-72033000D01*
X185434928Y-72033000D01*
X185438000Y-72547250D01*
X185596750Y-72706000D01*
X186746000Y-72706000D01*
X186746000Y-71556750D01*
X187000000Y-71556750D01*
X187000000Y-72706000D01*
X187020000Y-72706000D01*
X187020000Y-72960000D01*
X187000000Y-72960000D01*
X187000000Y-74109250D01*
X187158750Y-74268000D01*
X187673000Y-74271072D01*
X187797482Y-74258812D01*
X187917180Y-74222502D01*
X188027494Y-74163537D01*
X188124185Y-74084185D01*
X188203537Y-73987494D01*
X188262502Y-73877180D01*
X188291661Y-73781057D01*
X188458241Y-73947637D01*
X188693273Y-74104680D01*
X188954426Y-74212853D01*
X189231665Y-74268000D01*
X189514335Y-74268000D01*
X189791574Y-74212853D01*
X190052727Y-74104680D01*
X190287759Y-73947637D01*
X190487637Y-73747759D01*
X190644680Y-73512727D01*
X190752853Y-73251574D01*
X190808000Y-72974335D01*
X190808000Y-72691665D01*
X190752853Y-72414426D01*
X190644680Y-72153273D01*
X190487637Y-71918241D01*
X190287759Y-71718363D01*
X190052727Y-71561320D01*
X189791574Y-71453147D01*
X189514335Y-71398000D01*
X189231665Y-71398000D01*
X188954426Y-71453147D01*
X188693273Y-71561320D01*
X188458241Y-71718363D01*
X188291661Y-71884943D01*
X188262502Y-71788820D01*
X188203537Y-71678506D01*
X188124185Y-71581815D01*
X188027494Y-71502463D01*
X187917180Y-71443498D01*
X187797482Y-71407188D01*
X187673000Y-71394928D01*
X187158750Y-71398000D01*
X187000000Y-71556750D01*
X186746000Y-71556750D01*
X186587250Y-71398000D01*
X186073000Y-71394928D01*
X185948518Y-71407188D01*
X185828820Y-71443498D01*
X185718506Y-71502463D01*
X185621815Y-71581815D01*
X185542463Y-71678506D01*
X185483498Y-71788820D01*
X185447188Y-71908518D01*
X185434928Y-72033000D01*
X146702606Y-72033000D01*
X147867606Y-70868000D01*
X180434928Y-70868000D01*
X180447188Y-70992482D01*
X180483498Y-71112180D01*
X180542463Y-71222494D01*
X180621815Y-71319185D01*
X180718506Y-71398537D01*
X180828820Y-71457502D01*
X180948518Y-71493812D01*
X181073000Y-71506072D01*
X181587250Y-71503000D01*
X181746000Y-71344250D01*
X181746000Y-70460000D01*
X182000000Y-70460000D01*
X182000000Y-71344250D01*
X182158750Y-71503000D01*
X182673000Y-71506072D01*
X182797482Y-71493812D01*
X182917180Y-71457502D01*
X183027494Y-71398537D01*
X183124185Y-71319185D01*
X183203537Y-71222494D01*
X183262502Y-71112180D01*
X183298812Y-70992482D01*
X183311072Y-70868000D01*
X183308000Y-70618750D01*
X183149250Y-70460000D01*
X182000000Y-70460000D01*
X181746000Y-70460000D01*
X180596750Y-70460000D01*
X180438000Y-70618750D01*
X180434928Y-70868000D01*
X147867606Y-70868000D01*
X149362803Y-69372803D01*
X149373310Y-69360000D01*
X180610994Y-69360000D01*
X180542463Y-69443506D01*
G36*
X191246000Y-68406000D02*
G01*
X183054956Y-68406000D01*
X183124185Y-68349185D01*
X183203537Y-68252494D01*
X183262502Y-68142180D01*
X183298812Y-68022482D01*
X183311072Y-67898000D01*
X183308000Y-67648750D01*
X183149250Y-67490000D01*
X182000000Y-67490000D01*
X182000000Y-67510000D01*
X181746000Y-67510000D01*
X181746000Y-67490000D01*
X180596750Y-67490000D01*
X180438000Y-67648750D01*
X180434928Y-67898000D01*
X180447188Y-68022482D01*
X180483498Y-68142180D01*
X180542463Y-68252494D01*
X180621815Y-68349185D01*
X180691044Y-68406000D01*
X149400000Y-68406000D01*
X149400000Y-66828000D01*
X180434928Y-66828000D01*
X180438000Y-67077250D01*
X180596750Y-67236000D01*
X181746000Y-67236000D01*
X181746000Y-66351750D01*
X182000000Y-66351750D01*
X182000000Y-67236000D01*
X183149250Y-67236000D01*
X183308000Y-67077250D01*
X183311072Y-66828000D01*
X183298812Y-66703518D01*
X183262502Y-66583820D01*
X183203537Y-66473506D01*
X183124185Y-66376815D01*
X183027494Y-66297463D01*
X182917180Y-66238498D01*
X182797482Y-66202188D01*
X182673000Y-66189928D01*
X182158750Y-66193000D01*
X182000000Y-66351750D01*
X181746000Y-66351750D01*
X181587250Y-66193000D01*
X181073000Y-66189928D01*
X180948518Y-66202188D01*
X180828820Y-66238498D01*
X180718506Y-66297463D01*
X180621815Y-66376815D01*
X180542463Y-66473506D01*
X180483498Y-66583820D01*
X180447188Y-66703518D01*
X180434928Y-66828000D01*
X149400000Y-66828000D01*
X149400000Y-63370196D01*
X162015409Y-63370196D01*
X162601124Y-64052416D01*
X163584704Y-64600045D01*
X164656223Y-64945265D01*
X165774501Y-65074808D01*
X166896565Y-64983697D01*
X167979294Y-64675433D01*
X168981079Y-64161863D01*
X169144876Y-64052416D01*
X169730591Y-63370196D01*
X165873000Y-59512605D01*
X162015409Y-63370196D01*
X149400000Y-63370196D01*
X149400000Y-61259349D01*
X149851256Y-61259349D01*
X150055362Y-61615867D01*
X150498223Y-61846575D01*
X150977583Y-61986452D01*
X151475021Y-62030123D01*
X151971422Y-61975909D01*
X152447707Y-61825894D01*
X152840638Y-61615867D01*
X153044744Y-61259349D01*
X151448000Y-59662605D01*
X149851256Y-61259349D01*
X149400000Y-61259349D01*
X149400000Y-60924224D01*
X149671651Y-61079744D01*
X151268395Y-59483000D01*
X151627605Y-59483000D01*
X153224349Y-61079744D01*
X153580867Y-60875638D01*
X153811575Y-60432777D01*
X153951452Y-59953417D01*
X153995123Y-59455979D01*
X153970935Y-59234501D01*
X160131192Y-59234501D01*
X160222303Y-60356565D01*
X160530567Y-61439294D01*
X161044137Y-62441079D01*
X161153584Y-62604876D01*
X161835804Y-63190591D01*
X165693395Y-59333000D01*
X166052605Y-59333000D01*
X169910196Y-63190591D01*
X170592416Y-62604876D01*
X171140045Y-61621296D01*
X171485265Y-60549777D01*
X171614808Y-59431499D01*
X171523697Y-58309435D01*
X171215433Y-57226706D01*
X170854952Y-56523540D01*
X181231000Y-56523540D01*
X181231000Y-57142460D01*
X181351745Y-57749488D01*
X181588596Y-58321295D01*
X181932449Y-58835908D01*
X182370092Y-59273551D01*
X182884705Y-59617404D01*
X183456512Y-59854255D01*
X184063540Y-59975000D01*
X184682460Y-59975000D01*
X185289488Y-59854255D01*
X185861295Y-59617404D01*
X186375908Y-59273551D01*
X186813551Y-58835908D01*
X187157404Y-58321295D01*
X187394255Y-57749488D01*
X187515000Y-57142460D01*
X187515000Y-56523540D01*
X187394255Y-55916512D01*
X187157404Y-55344705D01*
X186813551Y-54830092D01*
X186375908Y-54392449D01*
X185861295Y-54048596D01*
X185289488Y-53811745D01*
X184682460Y-53691000D01*
X184063540Y-53691000D01*
X183456512Y-53811745D01*
X182884705Y-54048596D01*
X182370092Y-54392449D01*
X181932449Y-54830092D01*
X181588596Y-55344705D01*
X181351745Y-55916512D01*
X181231000Y-56523540D01*
X170854952Y-56523540D01*
X170701863Y-56224921D01*
X170592416Y-56061124D01*
X169910196Y-55475409D01*
X166052605Y-59333000D01*
X165693395Y-59333000D01*
X161835804Y-55475409D01*
X161153584Y-56061124D01*
X160605955Y-57044704D01*
X160260735Y-58116223D01*
X160131192Y-59234501D01*
X153970935Y-59234501D01*
X153940909Y-58959578D01*
X153790894Y-58483293D01*
X153580867Y-58090362D01*
X153224349Y-57886256D01*
X151627605Y-59483000D01*
X151268395Y-59483000D01*
X149671651Y-57886256D01*
X149400000Y-58041776D01*
X149400000Y-57706651D01*
X149851256Y-57706651D01*
X151448000Y-59303395D01*
X153044744Y-57706651D01*
X152840638Y-57350133D01*
X152397777Y-57119425D01*
X151918417Y-56979548D01*
X151420979Y-56935877D01*
X150924578Y-56990091D01*
X150448293Y-57140106D01*
X150055362Y-57350133D01*
X149851256Y-57706651D01*
X149400000Y-57706651D01*
X149400000Y-55295804D01*
X162015409Y-55295804D01*
X165873000Y-59153395D01*
X169730591Y-55295804D01*
X169144876Y-54613584D01*
X168161296Y-54065955D01*
X167089777Y-53720735D01*
X165971499Y-53591192D01*
X164849435Y-53682303D01*
X163766706Y-53990567D01*
X162764921Y-54504137D01*
X162601124Y-54613584D01*
X162015409Y-55295804D01*
X149400000Y-55295804D01*
X149400000Y-49960000D01*
X191246000Y-49960000D01*
X191246000Y-68406000D01*
X191246000Y-68406000D01*
G37*
X191246000Y-68406000D02*
X183054956Y-68406000D01*
X183124185Y-68349185D01*
X183203537Y-68252494D01*
X183262502Y-68142180D01*
X183298812Y-68022482D01*
X183311072Y-67898000D01*
X183308000Y-67648750D01*
X183149250Y-67490000D01*
X182000000Y-67490000D01*
X182000000Y-67510000D01*
X181746000Y-67510000D01*
X181746000Y-67490000D01*
X180596750Y-67490000D01*
X180438000Y-67648750D01*
X180434928Y-67898000D01*
X180447188Y-68022482D01*
X180483498Y-68142180D01*
X180542463Y-68252494D01*
X180621815Y-68349185D01*
X180691044Y-68406000D01*
X149400000Y-68406000D01*
X149400000Y-66828000D01*
X180434928Y-66828000D01*
X180438000Y-67077250D01*
X180596750Y-67236000D01*
X181746000Y-67236000D01*
X181746000Y-66351750D01*
X182000000Y-66351750D01*
X182000000Y-67236000D01*
X183149250Y-67236000D01*
X183308000Y-67077250D01*
X183311072Y-66828000D01*
X183298812Y-66703518D01*
X183262502Y-66583820D01*
X183203537Y-66473506D01*
X183124185Y-66376815D01*
X183027494Y-66297463D01*
X182917180Y-66238498D01*
X182797482Y-66202188D01*
X182673000Y-66189928D01*
X182158750Y-66193000D01*
X182000000Y-66351750D01*
X181746000Y-66351750D01*
X181587250Y-66193000D01*
X181073000Y-66189928D01*
X180948518Y-66202188D01*
X180828820Y-66238498D01*
X180718506Y-66297463D01*
X180621815Y-66376815D01*
X180542463Y-66473506D01*
X180483498Y-66583820D01*
X180447188Y-66703518D01*
X180434928Y-66828000D01*
X149400000Y-66828000D01*
X149400000Y-63370196D01*
X162015409Y-63370196D01*
X162601124Y-64052416D01*
X163584704Y-64600045D01*
X164656223Y-64945265D01*
X165774501Y-65074808D01*
X166896565Y-64983697D01*
X167979294Y-64675433D01*
X168981079Y-64161863D01*
X169144876Y-64052416D01*
X169730591Y-63370196D01*
X165873000Y-59512605D01*
X162015409Y-63370196D01*
X149400000Y-63370196D01*
X149400000Y-61259349D01*
X149851256Y-61259349D01*
X150055362Y-61615867D01*
X150498223Y-61846575D01*
X150977583Y-61986452D01*
X151475021Y-62030123D01*
X151971422Y-61975909D01*
X152447707Y-61825894D01*
X152840638Y-61615867D01*
X153044744Y-61259349D01*
X151448000Y-59662605D01*
X149851256Y-61259349D01*
X149400000Y-61259349D01*
X149400000Y-60924224D01*
X149671651Y-61079744D01*
X151268395Y-59483000D01*
X151627605Y-59483000D01*
X153224349Y-61079744D01*
X153580867Y-60875638D01*
X153811575Y-60432777D01*
X153951452Y-59953417D01*
X153995123Y-59455979D01*
X153970935Y-59234501D01*
X160131192Y-59234501D01*
X160222303Y-60356565D01*
X160530567Y-61439294D01*
X161044137Y-62441079D01*
X161153584Y-62604876D01*
X161835804Y-63190591D01*
X165693395Y-59333000D01*
X166052605Y-59333000D01*
X169910196Y-63190591D01*
X170592416Y-62604876D01*
X171140045Y-61621296D01*
X171485265Y-60549777D01*
X171614808Y-59431499D01*
X171523697Y-58309435D01*
X171215433Y-57226706D01*
X170854952Y-56523540D01*
X181231000Y-56523540D01*
X181231000Y-57142460D01*
X181351745Y-57749488D01*
X181588596Y-58321295D01*
X181932449Y-58835908D01*
X182370092Y-59273551D01*
X182884705Y-59617404D01*
X183456512Y-59854255D01*
X184063540Y-59975000D01*
X184682460Y-59975000D01*
X185289488Y-59854255D01*
X185861295Y-59617404D01*
X186375908Y-59273551D01*
X186813551Y-58835908D01*
X187157404Y-58321295D01*
X187394255Y-57749488D01*
X187515000Y-57142460D01*
X187515000Y-56523540D01*
X187394255Y-55916512D01*
X187157404Y-55344705D01*
X186813551Y-54830092D01*
X186375908Y-54392449D01*
X185861295Y-54048596D01*
X185289488Y-53811745D01*
X184682460Y-53691000D01*
X184063540Y-53691000D01*
X183456512Y-53811745D01*
X182884705Y-54048596D01*
X182370092Y-54392449D01*
X181932449Y-54830092D01*
X181588596Y-55344705D01*
X181351745Y-55916512D01*
X181231000Y-56523540D01*
X170854952Y-56523540D01*
X170701863Y-56224921D01*
X170592416Y-56061124D01*
X169910196Y-55475409D01*
X166052605Y-59333000D01*
X165693395Y-59333000D01*
X161835804Y-55475409D01*
X161153584Y-56061124D01*
X160605955Y-57044704D01*
X160260735Y-58116223D01*
X160131192Y-59234501D01*
X153970935Y-59234501D01*
X153940909Y-58959578D01*
X153790894Y-58483293D01*
X153580867Y-58090362D01*
X153224349Y-57886256D01*
X151627605Y-59483000D01*
X151268395Y-59483000D01*
X149671651Y-57886256D01*
X149400000Y-58041776D01*
X149400000Y-57706651D01*
X149851256Y-57706651D01*
X151448000Y-59303395D01*
X153044744Y-57706651D01*
X152840638Y-57350133D01*
X152397777Y-57119425D01*
X151918417Y-56979548D01*
X151420979Y-56935877D01*
X150924578Y-56990091D01*
X150448293Y-57140106D01*
X150055362Y-57350133D01*
X149851256Y-57706651D01*
X149400000Y-57706651D01*
X149400000Y-55295804D01*
X162015409Y-55295804D01*
X165873000Y-59153395D01*
X169730591Y-55295804D01*
X169144876Y-54613584D01*
X168161296Y-54065955D01*
X167089777Y-53720735D01*
X165971499Y-53591192D01*
X164849435Y-53682303D01*
X163766706Y-53990567D01*
X162764921Y-54504137D01*
X162601124Y-54613584D01*
X162015409Y-55295804D01*
X149400000Y-55295804D01*
X149400000Y-49960000D01*
X191246000Y-49960000D01*
X191246000Y-68406000D01*
G36*
X117368820Y-66072502D02*
G01*
X117488518Y-66108812D01*
X117613000Y-66121072D01*
X118313000Y-66121072D01*
X118437482Y-66108812D01*
X118557180Y-66072502D01*
X118580569Y-66060000D01*
X118615431Y-66060000D01*
X118638820Y-66072502D01*
X118758518Y-66108812D01*
X118883000Y-66121072D01*
X119583000Y-66121072D01*
X119707482Y-66108812D01*
X119827180Y-66072502D01*
X119850569Y-66060000D01*
X119895431Y-66060000D01*
X119918820Y-66072502D01*
X120038518Y-66108812D01*
X120163000Y-66121072D01*
X120863000Y-66121072D01*
X120987482Y-66108812D01*
X121107180Y-66072502D01*
X121130569Y-66060000D01*
X121165431Y-66060000D01*
X121188820Y-66072502D01*
X121308518Y-66108812D01*
X121433000Y-66121072D01*
X122133000Y-66121072D01*
X122257482Y-66108812D01*
X122377180Y-66072502D01*
X122400569Y-66060000D01*
X129346000Y-66060000D01*
X129346000Y-80480394D01*
X127720394Y-82106000D01*
X119925606Y-82106000D01*
X116900000Y-79080394D01*
X116900000Y-66093000D01*
X117075678Y-66093000D01*
X117113000Y-66096676D01*
X117150322Y-66093000D01*
X117150333Y-66093000D01*
X117261986Y-66082003D01*
X117334522Y-66060000D01*
X117345430Y-66060000D01*
X117368820Y-66072502D01*
X117368820Y-66072502D01*
G37*
X117368820Y-66072502D02*
X117488518Y-66108812D01*
X117613000Y-66121072D01*
X118313000Y-66121072D01*
X118437482Y-66108812D01*
X118557180Y-66072502D01*
X118580569Y-66060000D01*
X118615431Y-66060000D01*
X118638820Y-66072502D01*
X118758518Y-66108812D01*
X118883000Y-66121072D01*
X119583000Y-66121072D01*
X119707482Y-66108812D01*
X119827180Y-66072502D01*
X119850569Y-66060000D01*
X119895431Y-66060000D01*
X119918820Y-66072502D01*
X120038518Y-66108812D01*
X120163000Y-66121072D01*
X120863000Y-66121072D01*
X120987482Y-66108812D01*
X121107180Y-66072502D01*
X121130569Y-66060000D01*
X121165431Y-66060000D01*
X121188820Y-66072502D01*
X121308518Y-66108812D01*
X121433000Y-66121072D01*
X122133000Y-66121072D01*
X122257482Y-66108812D01*
X122377180Y-66072502D01*
X122400569Y-66060000D01*
X129346000Y-66060000D01*
X129346000Y-80480394D01*
X127720394Y-82106000D01*
X119925606Y-82106000D01*
X116900000Y-79080394D01*
X116900000Y-66093000D01*
X117075678Y-66093000D01*
X117113000Y-66096676D01*
X117150322Y-66093000D01*
X117150333Y-66093000D01*
X117261986Y-66082003D01*
X117334522Y-66060000D01*
X117345430Y-66060000D01*
X117368820Y-66072502D01*
G36*
X148546000Y-68480167D02*
G01*
X132220622Y-84706000D01*
X122520801Y-84706000D01*
X120682801Y-82868000D01*
X127773000Y-82868000D01*
X127896882Y-82855799D01*
X128016004Y-82819664D01*
X128125787Y-82760983D01*
X128222013Y-82682013D01*
X129922013Y-80982013D01*
X130000983Y-80885787D01*
X130059664Y-80776004D01*
X130095799Y-80656882D01*
X130108000Y-80533000D01*
X130108000Y-65933000D01*
X130095799Y-65809118D01*
X130059664Y-65689996D01*
X130000983Y-65580213D01*
X129922013Y-65483987D01*
X129825787Y-65405017D01*
X129716004Y-65346336D01*
X129596882Y-65310201D01*
X129473000Y-65298000D01*
X118951072Y-65298000D01*
X118951072Y-64683000D01*
X118938812Y-64558518D01*
X118902502Y-64438820D01*
X118843537Y-64328506D01*
X118764185Y-64231815D01*
X118667494Y-64152463D01*
X118557180Y-64093498D01*
X118437482Y-64057188D01*
X118313000Y-64044928D01*
X117613000Y-64044928D01*
X117488518Y-64057188D01*
X117368820Y-64093498D01*
X117258506Y-64152463D01*
X117161815Y-64231815D01*
X117082463Y-64328506D01*
X117050518Y-64388270D01*
X116938724Y-64448026D01*
X116822999Y-64542999D01*
X116799200Y-64571998D01*
X116798198Y-64573000D01*
X114386072Y-64573000D01*
X114386072Y-63703000D01*
X114373812Y-63578518D01*
X114348851Y-63496231D01*
X114398000Y-63501072D01*
X115748000Y-63501072D01*
X115872482Y-63488812D01*
X115992180Y-63452502D01*
X116102494Y-63393537D01*
X116199185Y-63314185D01*
X116278537Y-63217494D01*
X116282791Y-63209536D01*
X116353820Y-63247502D01*
X116473518Y-63283812D01*
X116598000Y-63296072D01*
X116787250Y-63293000D01*
X116946000Y-63134250D01*
X116946000Y-62347500D01*
X117200000Y-62347500D01*
X117200000Y-63134250D01*
X117358750Y-63293000D01*
X117548000Y-63296072D01*
X117672482Y-63283812D01*
X117792180Y-63247502D01*
X117902494Y-63188537D01*
X117999185Y-63109185D01*
X118078537Y-63012494D01*
X118137502Y-62902180D01*
X118173812Y-62782482D01*
X118186072Y-62658000D01*
X118183000Y-62506250D01*
X118024250Y-62347500D01*
X117200000Y-62347500D01*
X116946000Y-62347500D01*
X116926000Y-62347500D01*
X116926000Y-62093500D01*
X116946000Y-62093500D01*
X116946000Y-62073500D01*
X117200000Y-62073500D01*
X117200000Y-62093500D01*
X118024250Y-62093500D01*
X118183000Y-61934750D01*
X118186072Y-61783000D01*
X118173812Y-61658518D01*
X118137502Y-61538820D01*
X118078537Y-61428506D01*
X118023900Y-61361930D01*
X118041671Y-61340275D01*
X118120850Y-61192142D01*
X118169608Y-61031408D01*
X118186072Y-60864250D01*
X118186072Y-60426750D01*
X118169608Y-60259592D01*
X118120850Y-60098858D01*
X118041671Y-59950725D01*
X117935115Y-59820885D01*
X117805275Y-59714329D01*
X117657142Y-59635150D01*
X117496408Y-59586392D01*
X117329250Y-59569928D01*
X116816750Y-59569928D01*
X116649592Y-59586392D01*
X116488858Y-59635150D01*
X116340725Y-59714329D01*
X116237765Y-59798825D01*
X116199185Y-59751815D01*
X116102494Y-59672463D01*
X115992180Y-59613498D01*
X115872482Y-59577188D01*
X115748000Y-59564928D01*
X114398000Y-59564928D01*
X114273518Y-59577188D01*
X114153820Y-59613498D01*
X114043506Y-59672463D01*
X113946815Y-59751815D01*
X113867463Y-59848506D01*
X113808498Y-59958820D01*
X113772188Y-60078518D01*
X113759928Y-60203000D01*
X113759928Y-61053000D01*
X113772188Y-61177482D01*
X113808498Y-61297180D01*
X113867463Y-61407494D01*
X113946815Y-61504185D01*
X113981926Y-61533000D01*
X113946815Y-61561815D01*
X113867463Y-61658506D01*
X113858508Y-61675259D01*
X113830676Y-61678000D01*
X113830667Y-61678000D01*
X113719014Y-61688997D01*
X113585531Y-61729488D01*
X113575753Y-61732454D01*
X113443723Y-61803026D01*
X113401146Y-61837969D01*
X113327999Y-61897999D01*
X113304196Y-61927003D01*
X112911998Y-62319201D01*
X112883000Y-62342999D01*
X112859202Y-62371997D01*
X112859201Y-62371998D01*
X112788026Y-62458724D01*
X112717454Y-62590754D01*
X112673998Y-62734015D01*
X112659324Y-62883000D01*
X112663001Y-62920332D01*
X112663001Y-63238532D01*
X112646815Y-63251815D01*
X112567463Y-63348506D01*
X112508498Y-63458820D01*
X112472188Y-63578518D01*
X112459928Y-63703000D01*
X112459928Y-64763000D01*
X112472188Y-64887482D01*
X112508498Y-65007180D01*
X112567463Y-65117494D01*
X112646815Y-65214185D01*
X112704090Y-65261189D01*
X112717454Y-65305246D01*
X112751188Y-65368357D01*
X112743506Y-65372463D01*
X112646815Y-65451815D01*
X112567463Y-65548506D01*
X112508498Y-65658820D01*
X112472188Y-65778518D01*
X112459928Y-65903000D01*
X112459928Y-66873000D01*
X112147870Y-66873000D01*
X112173812Y-66787482D01*
X112186072Y-66663000D01*
X112186072Y-65813000D01*
X112173812Y-65688518D01*
X112137502Y-65568820D01*
X112078537Y-65458506D01*
X111999185Y-65361815D01*
X111964074Y-65333000D01*
X111999185Y-65304185D01*
X112078537Y-65207494D01*
X112137502Y-65097180D01*
X112173812Y-64977482D01*
X112186072Y-64853000D01*
X112183000Y-64713750D01*
X112024250Y-64555000D01*
X111000000Y-64555000D01*
X111000000Y-64575000D01*
X110746000Y-64575000D01*
X110746000Y-64555000D01*
X109721750Y-64555000D01*
X109563000Y-64713750D01*
X109559928Y-64853000D01*
X109572188Y-64977482D01*
X109608498Y-65097180D01*
X109667463Y-65207494D01*
X109746815Y-65304185D01*
X109781926Y-65333000D01*
X109746815Y-65361815D01*
X109667463Y-65458506D01*
X109608498Y-65568820D01*
X109572188Y-65688518D01*
X109559928Y-65813000D01*
X109559928Y-66663000D01*
X109572188Y-66787482D01*
X109608498Y-66907180D01*
X109667463Y-67017494D01*
X109746815Y-67114185D01*
X109843506Y-67193537D01*
X109953820Y-67252502D01*
X110073518Y-67288812D01*
X110113000Y-67292701D01*
X110113000Y-67595664D01*
X110109323Y-67633000D01*
X110113000Y-67670332D01*
X110113001Y-70895668D01*
X110109324Y-70933000D01*
X110113001Y-70970333D01*
X110122572Y-71067502D01*
X110123998Y-71081985D01*
X110167454Y-71225246D01*
X110238026Y-71357276D01*
X110309201Y-71444002D01*
X110333000Y-71473001D01*
X110361998Y-71496799D01*
X111738000Y-72872802D01*
X111738000Y-72934939D01*
X111777774Y-73134898D01*
X111855795Y-73323256D01*
X111969063Y-73492774D01*
X112113226Y-73636937D01*
X112161803Y-73669395D01*
X102500000Y-83331199D01*
X102500000Y-64003000D01*
X109559928Y-64003000D01*
X109563000Y-64142250D01*
X109721750Y-64301000D01*
X110746000Y-64301000D01*
X110746000Y-63526750D01*
X111000000Y-63526750D01*
X111000000Y-64301000D01*
X112024250Y-64301000D01*
X112183000Y-64142250D01*
X112186072Y-64003000D01*
X112173812Y-63878518D01*
X112137502Y-63758820D01*
X112078537Y-63648506D01*
X111999185Y-63551815D01*
X111902494Y-63472463D01*
X111792180Y-63413498D01*
X111672482Y-63377188D01*
X111548000Y-63364928D01*
X111158750Y-63368000D01*
X111000000Y-63526750D01*
X110746000Y-63526750D01*
X110587250Y-63368000D01*
X110198000Y-63364928D01*
X110073518Y-63377188D01*
X109953820Y-63413498D01*
X109843506Y-63472463D01*
X109746815Y-63551815D01*
X109667463Y-63648506D01*
X109608498Y-63758820D01*
X109572188Y-63878518D01*
X109559928Y-64003000D01*
X102500000Y-64003000D01*
X102500000Y-56523540D01*
X106231000Y-56523540D01*
X106231000Y-57142460D01*
X106351745Y-57749488D01*
X106588596Y-58321295D01*
X106932449Y-58835908D01*
X107370092Y-59273551D01*
X107884705Y-59617404D01*
X108456512Y-59854255D01*
X109063540Y-59975000D01*
X109682460Y-59975000D01*
X110289488Y-59854255D01*
X110861295Y-59617404D01*
X111375908Y-59273551D01*
X111813551Y-58835908D01*
X112157404Y-58321295D01*
X112394255Y-57749488D01*
X112515000Y-57142460D01*
X112515000Y-56523540D01*
X112394255Y-55916512D01*
X112157404Y-55344705D01*
X111813551Y-54830092D01*
X111375908Y-54392449D01*
X110861295Y-54048596D01*
X110289488Y-53811745D01*
X109682460Y-53691000D01*
X109063540Y-53691000D01*
X108456512Y-53811745D01*
X107884705Y-54048596D01*
X107370092Y-54392449D01*
X106932449Y-54830092D01*
X106588596Y-55344705D01*
X106351745Y-55916512D01*
X106231000Y-56523540D01*
X102500000Y-56523540D01*
X102500000Y-49960000D01*
X148546000Y-49960000D01*
X148546000Y-68480167D01*
X148546000Y-68480167D01*
G37*
X148546000Y-68480167D02*
X132220622Y-84706000D01*
X122520801Y-84706000D01*
X120682801Y-82868000D01*
X127773000Y-82868000D01*
X127896882Y-82855799D01*
X128016004Y-82819664D01*
X128125787Y-82760983D01*
X128222013Y-82682013D01*
X129922013Y-80982013D01*
X130000983Y-80885787D01*
X130059664Y-80776004D01*
X130095799Y-80656882D01*
X130108000Y-80533000D01*
X130108000Y-65933000D01*
X130095799Y-65809118D01*
X130059664Y-65689996D01*
X130000983Y-65580213D01*
X129922013Y-65483987D01*
X129825787Y-65405017D01*
X129716004Y-65346336D01*
X129596882Y-65310201D01*
X129473000Y-65298000D01*
X118951072Y-65298000D01*
X118951072Y-64683000D01*
X118938812Y-64558518D01*
X118902502Y-64438820D01*
X118843537Y-64328506D01*
X118764185Y-64231815D01*
X118667494Y-64152463D01*
X118557180Y-64093498D01*
X118437482Y-64057188D01*
X118313000Y-64044928D01*
X117613000Y-64044928D01*
X117488518Y-64057188D01*
X117368820Y-64093498D01*
X117258506Y-64152463D01*
X117161815Y-64231815D01*
X117082463Y-64328506D01*
X117050518Y-64388270D01*
X116938724Y-64448026D01*
X116822999Y-64542999D01*
X116799200Y-64571998D01*
X116798198Y-64573000D01*
X114386072Y-64573000D01*
X114386072Y-63703000D01*
X114373812Y-63578518D01*
X114348851Y-63496231D01*
X114398000Y-63501072D01*
X115748000Y-63501072D01*
X115872482Y-63488812D01*
X115992180Y-63452502D01*
X116102494Y-63393537D01*
X116199185Y-63314185D01*
X116278537Y-63217494D01*
X116282791Y-63209536D01*
X116353820Y-63247502D01*
X116473518Y-63283812D01*
X116598000Y-63296072D01*
X116787250Y-63293000D01*
X116946000Y-63134250D01*
X116946000Y-62347500D01*
X117200000Y-62347500D01*
X117200000Y-63134250D01*
X117358750Y-63293000D01*
X117548000Y-63296072D01*
X117672482Y-63283812D01*
X117792180Y-63247502D01*
X117902494Y-63188537D01*
X117999185Y-63109185D01*
X118078537Y-63012494D01*
X118137502Y-62902180D01*
X118173812Y-62782482D01*
X118186072Y-62658000D01*
X118183000Y-62506250D01*
X118024250Y-62347500D01*
X117200000Y-62347500D01*
X116946000Y-62347500D01*
X116926000Y-62347500D01*
X116926000Y-62093500D01*
X116946000Y-62093500D01*
X116946000Y-62073500D01*
X117200000Y-62073500D01*
X117200000Y-62093500D01*
X118024250Y-62093500D01*
X118183000Y-61934750D01*
X118186072Y-61783000D01*
X118173812Y-61658518D01*
X118137502Y-61538820D01*
X118078537Y-61428506D01*
X118023900Y-61361930D01*
X118041671Y-61340275D01*
X118120850Y-61192142D01*
X118169608Y-61031408D01*
X118186072Y-60864250D01*
X118186072Y-60426750D01*
X118169608Y-60259592D01*
X118120850Y-60098858D01*
X118041671Y-59950725D01*
X117935115Y-59820885D01*
X117805275Y-59714329D01*
X117657142Y-59635150D01*
X117496408Y-59586392D01*
X117329250Y-59569928D01*
X116816750Y-59569928D01*
X116649592Y-59586392D01*
X116488858Y-59635150D01*
X116340725Y-59714329D01*
X116237765Y-59798825D01*
X116199185Y-59751815D01*
X116102494Y-59672463D01*
X115992180Y-59613498D01*
X115872482Y-59577188D01*
X115748000Y-59564928D01*
X114398000Y-59564928D01*
X114273518Y-59577188D01*
X114153820Y-59613498D01*
X114043506Y-59672463D01*
X113946815Y-59751815D01*
X113867463Y-59848506D01*
X113808498Y-59958820D01*
X113772188Y-60078518D01*
X113759928Y-60203000D01*
X113759928Y-61053000D01*
X113772188Y-61177482D01*
X113808498Y-61297180D01*
X113867463Y-61407494D01*
X113946815Y-61504185D01*
X113981926Y-61533000D01*
X113946815Y-61561815D01*
X113867463Y-61658506D01*
X113858508Y-61675259D01*
X113830676Y-61678000D01*
X113830667Y-61678000D01*
X113719014Y-61688997D01*
X113585531Y-61729488D01*
X113575753Y-61732454D01*
X113443723Y-61803026D01*
X113401146Y-61837969D01*
X113327999Y-61897999D01*
X113304196Y-61927003D01*
X112911998Y-62319201D01*
X112883000Y-62342999D01*
X112859202Y-62371997D01*
X112859201Y-62371998D01*
X112788026Y-62458724D01*
X112717454Y-62590754D01*
X112673998Y-62734015D01*
X112659324Y-62883000D01*
X112663001Y-62920332D01*
X112663001Y-63238532D01*
X112646815Y-63251815D01*
X112567463Y-63348506D01*
X112508498Y-63458820D01*
X112472188Y-63578518D01*
X112459928Y-63703000D01*
X112459928Y-64763000D01*
X112472188Y-64887482D01*
X112508498Y-65007180D01*
X112567463Y-65117494D01*
X112646815Y-65214185D01*
X112704090Y-65261189D01*
X112717454Y-65305246D01*
X112751188Y-65368357D01*
X112743506Y-65372463D01*
X112646815Y-65451815D01*
X112567463Y-65548506D01*
X112508498Y-65658820D01*
X112472188Y-65778518D01*
X112459928Y-65903000D01*
X112459928Y-66873000D01*
X112147870Y-66873000D01*
X112173812Y-66787482D01*
X112186072Y-66663000D01*
X112186072Y-65813000D01*
X112173812Y-65688518D01*
X112137502Y-65568820D01*
X112078537Y-65458506D01*
X111999185Y-65361815D01*
X111964074Y-65333000D01*
X111999185Y-65304185D01*
X112078537Y-65207494D01*
X112137502Y-65097180D01*
X112173812Y-64977482D01*
X112186072Y-64853000D01*
X112183000Y-64713750D01*
X112024250Y-64555000D01*
X111000000Y-64555000D01*
X111000000Y-64575000D01*
X110746000Y-64575000D01*
X110746000Y-64555000D01*
X109721750Y-64555000D01*
X109563000Y-64713750D01*
X109559928Y-64853000D01*
X109572188Y-64977482D01*
X109608498Y-65097180D01*
X109667463Y-65207494D01*
X109746815Y-65304185D01*
X109781926Y-65333000D01*
X109746815Y-65361815D01*
X109667463Y-65458506D01*
X109608498Y-65568820D01*
X109572188Y-65688518D01*
X109559928Y-65813000D01*
X109559928Y-66663000D01*
X109572188Y-66787482D01*
X109608498Y-66907180D01*
X109667463Y-67017494D01*
X109746815Y-67114185D01*
X109843506Y-67193537D01*
X109953820Y-67252502D01*
X110073518Y-67288812D01*
X110113000Y-67292701D01*
X110113000Y-67595664D01*
X110109323Y-67633000D01*
X110113000Y-67670332D01*
X110113001Y-70895668D01*
X110109324Y-70933000D01*
X110113001Y-70970333D01*
X110122572Y-71067502D01*
X110123998Y-71081985D01*
X110167454Y-71225246D01*
X110238026Y-71357276D01*
X110309201Y-71444002D01*
X110333000Y-71473001D01*
X110361998Y-71496799D01*
X111738000Y-72872802D01*
X111738000Y-72934939D01*
X111777774Y-73134898D01*
X111855795Y-73323256D01*
X111969063Y-73492774D01*
X112113226Y-73636937D01*
X112161803Y-73669395D01*
X102500000Y-83331199D01*
X102500000Y-64003000D01*
X109559928Y-64003000D01*
X109563000Y-64142250D01*
X109721750Y-64301000D01*
X110746000Y-64301000D01*
X110746000Y-63526750D01*
X111000000Y-63526750D01*
X111000000Y-64301000D01*
X112024250Y-64301000D01*
X112183000Y-64142250D01*
X112186072Y-64003000D01*
X112173812Y-63878518D01*
X112137502Y-63758820D01*
X112078537Y-63648506D01*
X111999185Y-63551815D01*
X111902494Y-63472463D01*
X111792180Y-63413498D01*
X111672482Y-63377188D01*
X111548000Y-63364928D01*
X111158750Y-63368000D01*
X111000000Y-63526750D01*
X110746000Y-63526750D01*
X110587250Y-63368000D01*
X110198000Y-63364928D01*
X110073518Y-63377188D01*
X109953820Y-63413498D01*
X109843506Y-63472463D01*
X109746815Y-63551815D01*
X109667463Y-63648506D01*
X109608498Y-63758820D01*
X109572188Y-63878518D01*
X109559928Y-64003000D01*
X102500000Y-64003000D01*
X102500000Y-56523540D01*
X106231000Y-56523540D01*
X106231000Y-57142460D01*
X106351745Y-57749488D01*
X106588596Y-58321295D01*
X106932449Y-58835908D01*
X107370092Y-59273551D01*
X107884705Y-59617404D01*
X108456512Y-59854255D01*
X109063540Y-59975000D01*
X109682460Y-59975000D01*
X110289488Y-59854255D01*
X110861295Y-59617404D01*
X111375908Y-59273551D01*
X111813551Y-58835908D01*
X112157404Y-58321295D01*
X112394255Y-57749488D01*
X112515000Y-57142460D01*
X112515000Y-56523540D01*
X112394255Y-55916512D01*
X112157404Y-55344705D01*
X111813551Y-54830092D01*
X111375908Y-54392449D01*
X110861295Y-54048596D01*
X110289488Y-53811745D01*
X109682460Y-53691000D01*
X109063540Y-53691000D01*
X108456512Y-53811745D01*
X107884705Y-54048596D01*
X107370092Y-54392449D01*
X106932449Y-54830092D01*
X106588596Y-55344705D01*
X106351745Y-55916512D01*
X106231000Y-56523540D01*
X102500000Y-56523540D01*
X102500000Y-49960000D01*
X148546000Y-49960000D01*
X148546000Y-68480167D01*
M02*
